<svg width="81" height="86" xmlns="http://www.w3.org/2000/svg" xmlns:xlink="http://www.w3.org/1999/xlink" overflow="hidden"><defs><clipPath id="clip0"><rect x="269" y="310" width="81" height="86"/></clipPath></defs><g clip-path="url(#clip0)" transform="translate(-269 -310)"><path d="M328.172 312 288 312C286.895 312 286 312.895 286 314L286 392C286 393.105 286.895 394 288 394L346 394C347.105 394 348 393.105 348 392L348 331.828C348 331.298 347.789 330.789 347.414 330.414L329.586 312.586C329.211 312.211 328.702 312 328.172 312Z" stroke="#979593" stroke-width="2.33333" stroke-miterlimit="8" fill="#FFFFFF" fill-rule="evenodd"/><path d="M328 312 328 330C328 331.105 328.895 332 330 332L348 332" stroke="#979593" stroke-width="2.33333" stroke-miterlimit="8" fill="none" fill-rule="evenodd"/><path d="M340 366 309 366 309 364 340 364C340.552 364 341 364.448 341 365L341 365C341 365.552 340.552 366 340 366ZM340 360 309 360 309 358 340 358C340.552 358 341 358.448 341 359L341 359C341 359.552 340.552 360 340 360ZM340 354 309 354 309 352 340 352C340.552 352 341 352.448 341 353L341 353C341 353.552 340.552 354 340 354ZM340 348 309 348 309 346 340 346C340.552 346 341 346.448 341 347L341 347C341 347.552 340.552 348 340 348ZM340 372 309 372 309 370 340 370C340.552 370 341 370.448 341 371L341 371C341 371.552 340.552 372 340 372Z" fill="#C8C6C4" fill-rule="evenodd"/><path d="M273 379 305 379C307.209 379 309 377.209 309 375L309 343C309 340.791 307.209 339 305 339L273 339C270.791 339 269 340.791 269 343L269 375C269 377.209 270.791 379 273 379Z" fill="#185ABD" fill-rule="evenodd"/><path d="M282.624 365.645C282.691 366.167 282.734 366.622 282.754 367.011L282.83 367.011C282.861 366.643 282.919 366.198 283.005 365.676 283.092 365.155 283.176 364.715 283.257 364.357L286.791 349 291.361 349 295.018 364.127C295.201 364.874 295.353 365.824 295.475 366.98L295.535 366.98C295.586 366.182 295.713 365.262 295.916 364.219L298.841 349 303 349 297.882 371 293.022 371 289.533 356.426C289.432 356.006 289.317 355.459 289.19 354.784 289.063 354.109 288.985 353.618 288.954 353.311L288.894 353.311C288.853 353.669 288.774 354.201 288.657 354.906 288.54 355.613 288.446 356.134 288.375 356.471L285.1 371 280.164 371 275 349 279.235 349 282.419 364.388C282.49 364.705 282.558 365.124 282.624 365.645Z" fill="#FFFFFF" fill-rule="evenodd"/></g></svg>