<svg width="82" height="86" xmlns="http://www.w3.org/2000/svg" xmlns:xlink="http://www.w3.org/1999/xlink" overflow="hidden"><defs><clipPath id="clip0"><rect x="141" y="310" width="82" height="86"/></clipPath></defs><g clip-path="url(#clip0)" transform="translate(-141 -310)"><path d="M201.172 312 161 312C159.895 312 159 312.895 159 314L159 392C159 393.105 159.895 394 161 394L219 394C220.105 394 221 393.105 221 392L221 331.828C221 331.298 220.789 330.789 220.414 330.414L202.586 312.586C202.211 312.211 201.702 312 201.172 312Z" stroke="#979593" stroke-width="2.33333" stroke-miterlimit="8" fill="#FFFFFF" fill-rule="evenodd"/><path d="M201 312 201 330C201 331.105 201.895 332 203 332L221 332" stroke="#979593" stroke-width="2.33333" stroke-miterlimit="8" fill="none" fill-rule="evenodd"/><path d="M213 366 182 366 182 364 213 364C213.552 364 214 364.448 214 365L214 365C214 365.552 213.552 366 213 366ZM213 360 182 360 182 358 213 358C213.552 358 214 358.448 214 359L214 359C214 359.552 213.552 360 213 360ZM213 354 182 354 182 352 213 352C213.552 352 214 352.448 214 353L214 353C214 353.552 213.552 354 213 354ZM213 348 182 348 182 346 213 346C213.552 346 214 346.448 214 347L214 347C214 347.552 213.552 348 213 348ZM213 372 182 372 182 370 213 370C213.552 370 214 370.448 214 371L214 371C214 371.552 213.552 372 213 372Z" fill="#C8C6C4" fill-rule="evenodd"/><rect x="143" y="340" width="38" height="37" fill="#FFFFFF"/><path d="M141.989 358.482 141.989 338.982 181.989 338.982 181.989 377.982 141.989 377.982ZM178.989 363.194 178.989 351.331 178.217 351.331C177.543 351.331 176.78 352.568 172.239 361.001L167.033 370.669 161.008 370.856 160.822 361.462 155.282 370.832 149.989 370.832 149.989 351.331 147.322 351.331 147.322 347.431 159.322 347.431 159.322 351.331 156.322 351.331 156.378 358.32 161.769 347.431 167.322 347.431 167.329 358.645 169.477 355.069 171.625 351.495 169.321 351.292 169.321 347.431 178.988 347.431 178.988 341.908 144.987 341.908 144.987 375.058 178.988 375.058Z" fill="#295595" fill-rule="evenodd"/></g></svg>