<svg width="64" height="83" xmlns="http://www.w3.org/2000/svg" xmlns:xlink="http://www.w3.org/1999/xlink" overflow="hidden"><defs><clipPath id="clip0"><rect x="362" y="439" width="64" height="83"/></clipPath></defs><g clip-path="url(#clip0)" transform="translate(-362 -439)"><path d="M367.734 439 402.622 439 425 461.442 425 516.266C425 518.881 422.881 521 420.266 521L367.734 521C365.119 521 363 518.881 363 516.266L363 443.734C363 441.119 365.119 439 367.734 439Z" fill="#4F8DF5" fill-rule="evenodd"/><rect x="378" y="480" width="32" height="4" fill="#FFFFFF"/><rect x="378" y="489" width="32" height="3" fill="#FFFFFF"/><rect x="378" y="497" width="32" height="3" fill="#FFFFFF"/><rect x="378" y="504" width="23" height="4" fill="#FFFFFF"/><path d="M425.269 461.81 402.758 461.803 402.75 439.292Z" fill="#A7C6FA" fill-rule="evenodd"/><path d="M425 484 403 462 425 462Z" fill="#437BE1" fill-rule="evenodd" fill-opacity="0.431373"/></g></svg>