<svg xmlns="http://www.w3.org/2000/svg" xml:space="preserve" overflow="hidden" viewBox="0 0 4376 1286"><defs><clipPath id="a"><path d="M2 492h4376v1286H2z"/></clipPath><clipPath id="c"><path d="M2 511h2891v1248H2z"/></clipPath><clipPath id="d"><path d="M2 511h2892v1248H2z"/></clipPath><linearGradient id="b" x1="3736.52" x2="3736.52" y1="1777.96" y2="492.965" gradientUnits="userSpaceOnUse" spreadMethod="reflect"><stop offset="0" stop-color="#FC3F04"/><stop offset=".1" stop-color="#FC3F04"/><stop offset="1" stop-color="#FFC000"/></linearGradient></defs><g clip-path="url(#a)" transform="translate(-2 -492)"><path fill="#FFD966" fill-rule="evenodd" d="M3561.05 1507.15c0-45.18 36.59-81.81 81.74-81.81 45.14 0 81.73 36.63 81.73 81.81 0 45.19-36.59 81.81-81.73 81.81-45.15 0-81.74-36.62-81.74-81.81Zm-4.81-688.185c0-42.51 34.14-77 76.13-77 42.25.265 76.3 34.714 76.13 77 0 42.51-34.14 77-76.13 77-42.25-.265-76.3-34.714-76.13-77Zm-315.72 386.605c0-89.51 72.12-162.02 161.07-162.02 88.95 0 161.07 72.51 161.07 162.02s-72.12 162.02-161.07 162.02c-89.16-.26-161.24-72.78-161.07-162.02Z"/><path fill="url(#b)" fill-rule="evenodd" d="M3737.33 492.965c132.85 0 256.4 40.427 358.76 109.73l46.85 35.133-504.93 98.982c-40.95 7.975-67.67 47.62-59.69 88.554 7.97 40.934 47.62 67.653 88.57 59.678l596.39-117.11 6.1 8.343c17.33 25.667 32.89 52.619 46.37 80.693l2.41 6.096-19.26 1.925-926.92 182.881c-84.37 16.61-139.29 98.46-122.67 182.81 16.63 84.34 98.47 139.25 182.84 122.64l926.76-182.88 18.61-5.62-1.76 36.26c-2.09 20.12-5.09 40.14-8.99 60l-4.81 19.41-723.95 147.27c-42.76 8.68-70.38 50.37-61.7 93.12 8.68 42.75 50.38 70.37 93.14 61.69l621.59-126.42-44.12 69.95c-121.24 158.87-309.72 252.02-509.59 251.86-354.63-.17-641.98-287.76-641.81-642.34v-.16c0-354.854 287.21-642.495 641.81-642.495Z"/><g clip-path="url(#c)"><g clip-path="url(#d)"><path fill="#2E8062" d="M1974.62007 742.34531008c10.87 7.24752166 21.74 12.6826628 30.79 18.11780394 3.63 1.81238052 9.06 5.43514114 9.06 5.43514114 12.68 7.24752166 23.55 14.49504332 30.79 19.93018446 28.99 21.74156477 45.29 47.10589016 36.23 97.83654136v5.43514114c-3.62 23.55294508-10.87 36.23560788-39.85 57.97717265-48.91 34.42422757-134.04 85.15387856-208.31 119.57710592-27.17 12.6826628-65.21 3.62376083-81.51-12.68166259-23.55-25.3653256-27.18-59.78955317-27.18-81.53111794 0-19.92918425 1.82-36.23560788 1.82-48.91727047-16.31 14.49404311-50.72 36.23560788-103.25 68.84745493-3.63 1.81138031-7.25 3.62376083-10.87 7.24752166 3.62 30.79946653 7.24 57.97617244 10.87 83.34149804 12.68 106.89544333 27.17 173.93151795 45.28 199.29584334 21.74 32.61284726 54.34 56.16579234 92.38 67.03607462 47.1 14.49504332 159.41 7.24752166 206.5-3.62276062 56.16-12.6826628 99.63-28.98908643 132.24-48.91827068 10.86-7.24752166 18.11-10.87128249 19.92-10.87128249 3.62 0 5.43 3.62376083 5.43 10.87128249-3.62 21.74156477 0 38.04698819 9.06 48.91827068 10.87 12.68166259 25.36 18.11780394 45.29 18.11780394 18.11 0 34.41-5.43614135 48.9-14.49504332 16.31-10.87028228 25.36-23.55294508 23.55-39.8583685-3.62-50.7306512-14.49-134.07214924-36.23-253.65025537-9.05-47.10589016-38.03-244.59035319-56.15-365.97983963-10.87 0-65.21 5.43514114-90.57 10.87028228-32.6 7.24752166-68.83 5.43514114-101.44-1.81138031-28.98-7.24752166-54.34-19.93018446-77.89-36.23660809 12.68 14.49504332 25.36 30.80046674 28.98 34.42422757 16.31 18.11780394 34.42 32.61184705 56.16 45.29450985Zm52.53 525.41731447-61.59-36.23560788 28.98-52.54203151 61.59 36.23660809-28.98 52.5410313Zm108.68-235.53145122c1.81 12.6826628-3.62 18.11780394-14.49 21.74156477-117.74 39.85936871-233.67 79.71773721-351.41 119.57710592-10.87 3.62376083-19.93 9.05890197-30.79 14.49504332 5.43 14.49404311 27.17 16.30542342 19.92 34.42322736h-10.87c-3.62-3.62376083-7.24-9.05890197-10.87-12.6826628-10.86-14.49404311-9.05-32.61184705 7.25-41.67074902 7.25-3.62376083 14.49-7.24752166 21.74-9.05890197 121.36-41.67074902 240.91-83.34249825 362.28-123.20086675 1.81-3.62376083 3.62-3.62376083 7.24-3.62376083Z"/><path fill="#FD7D0E" d="M1567.05007 976.06538099c-19.92-164.87161577-47.09-375.03894164-57.96-452.94569863-45.29 16.30612357-88.76 43.48282948-135.86 65.2241942 28.98 25.36542563 52.53 48.91837071 77.89 72.47131579-19.92 36.23560788-34.41 68.84745493-76.08 77.9063569-7.24 1.81238052-14.49 9.05890197-16.3 16.30642363-18.11 48.91827068-54.34 65.22469431-105.06 56.16579234-5.43-1.81238052-10.87 0-18.11 0-1.82 30.79946653-1.82 59.78855296-3.63 83.34149804 19.93 9.05890197 39.85 12.6826628 50.72 25.3653256 21.74 23.55294508 43.48 48.91827068 65.21 74.28259607 5.44 5.43614135 27.17 30.80046674 50.72 57.97717265 43.48-16.30542342 79.7-30.80046674 108.69-45.29450985 21.73-12.6826628 39.85-21.74156477 59.77-30.80046674Zm-85.13-137.69490986c-1.81 3.62276062-1.81 5.43514114-3.63 7.24652145h-3.62c-21.74-14.49404311-27.17-12.6826628-30.79 12.6826628-5.44 25.3653256-12.68 90.5890197-16.31 97.83654136-10.86-30.80046674-25.36-63.41231379-36.22-92.40140022-16.31 7.24752166-30.8 1.81238052-36.23-9.05890197-7.25-12.6826628 1.81-21.74156477 7.24-30.80046674 5.44-9.05890197 19.93 1.81238052 23.55 3.62376083 7.25 5.43514114 14.49 16.30642363 18.12 23.55294508 10.86 16.30642363 14.49 34.42422757 23.54 54.35441203 3.63-21.74156477 7.25-41.67174923 10.87-61.60093348 1.81-9.05890197 3.63-18.11780394 7.25-25.3653256 3.62-9.05890197 9.06-16.30542342 21.74-10.87028228 9.05 7.24652145 18.11 21.74156477 14.49 30.80046674Z"/><path fill="#2C297B" d="M1853.25007 923.52434969c0 16.30542342-1.81 34.42322736-5.43 50.72965099-1.81 12.6826628-5.43 27.17670591-9.06 38.04698819h1.81c68.84-28.98808622 155.79-79.71773721 204.69-115.95334509 14.49-10.87128249 23.55-16.30642363 23.55-19.93018446v-1.81138031c-3.62-14.49504332-16.3-25.3653256-32.6-38.0479884-19.93-14.49404311-41.67-27.17670591-63.4-39.85936871 0 0-10.87-5.43514114-16.31-9.05890197-7.24-5.43514114-21.73-16.30542342-21.73-16.30542342-23.55-16.30642363-67.02-63.41231379-77.89-86.96625908 0-1.81138031 3.62-25.36432539 5.43-39.85936871-18.11-12.68166259-34.42-25.36432539-52.53-36.2352078 7.25 45.29410977 16.3 97.83614128 25.36 155.81331393 12.68 79.71873742 18.11 132.26076893 18.11 159.43747484Z"/><path fill="#FFD323" d="M1574.30007 1023.17227136c-39.85 21.74156477-70.65 36.23560788-94.19 43.48212933 0 0-19.93 3.62376083-57.97 9.05890197 19.93 25.3653256 38.04 48.91827068 43.47 61.60093348 14.5 36.23560788 36.23 54.35341182 68.84 68.84845514 38.04 18.11780394 63.4 45.29450985 81.51 79.71773721-9.06-28.98808622-18.11-63.41231379-23.55-105.08306281-1.81-21.74156477-9.05-81.53011773-18.11-157.62509432Z"/><path fill="#FB2D21" d="M1673.93007 916.27682803c50.71-30.80046674 74.26-50.72965099 74.26-57.97717265 0-1.81138031-10.87-23.55294508-32.6-68.84745493-12.68-23.55394529-30.8-67.03607462-30.8-70.65983545 0-3.62376083 1.82-12.6826628 3.63-27.17670591 3.62-16.30642363 5.43-23.55294508 7.24-23.55294508 1.81 0 25.36 47.10589016 28.98 56.16479213-1.81-5.43514114 9.06 21.74156477 23.55 47.10689037 12.68 23.55294508 18.12 43.48212933 18.12 57.97717265 0 34.42322736-10.87 63.41231379-32.61 90.5890197v38.04698819c0 25.3653256 3.62 47.10689037 18.12 57.97717265 10.86 9.05890197 28.98 10.87128249 47.09 9.05890197l7.25-1.81138031c7.24-1.81238052 16.3-3.62376083 23.55-7.24752166-1.82-23.55294508-5.44-57.97717265-5.44-61.60093348-7.24-70.65883524-23.55-186.61318054-52.53-351.48559648-1.81-5.43534118-1.81-12.68246276-3.62-19.92968435-30.8-18.11780394-63.4-34.42382749-96.01-47.10639027-36.22-12.68246276-81.51-28.9884963-121.36-23.55314512 7.25 61.60063342 36.23 273.57943962 57.96 442.07481622 21.74-12.68166259 43.48-25.36432539 65.22-38.04698819Z"/><path fill="#98C543" d="M2643.03007 1213.40921273c18.11-1.81138031 19.92-10.87028228 10.86-23.55294508-19.92-27.17670591-50.71-41.67074902-74.26-59.78855296-7.25 23.55294508-14.49 45.29450985-21.74 68.84745493 27.17 7.24752166 54.34 18.11780394 85.14 14.49404311Z"/><path fill="#4CA84D" d="M1989.11007 1532.2831622c94.19 1.8103801 186.57-16.303423 277.14-39.85936871 65.22-16.30542342 126.8-38.04698819 184.77-72.47121576 18.11-10.87028228 30.79-21.74156477 48.91-41.67074902-18.12-12.6826628-143.11-43.48312954-153.97-47.10689037-7.25-1.81138031-10.87-5.43514114-7.25-14.49404311 3.62-16.30542342 5.43-25.36432539 9.06-38.04698819 3.62-14.49504332 14.49-19.93018446 27.17-25.3653256 25.36-10.87028228 39.85-21.74156477 65.21-32.61184705 5.43-1.81238052 9.06-5.43514114 14.49-7.24752166-21.74-65.2236941 0-117.76572561 38.04-164.87261598-5.43-12.68166259-3.62-25.36432539-1.81-38.04698819 0 0-47.1-68.84745493-70.65-103.2716825-1.81-1.81138031-1.81-5.43514114-1.81-5.43514114 14.49-34.42422757-9.06-47.10689037-30.79-63.41231379-32.61-25.3653256-68.83-50.7306512-94.19-83.34249825-18.12-23.55294508-32.61-36.23560788-63.4-27.17670591-5.44 1.81138031-12.68 0-19.93-3.62376083-3.62-1.81138031-5.43-3.62376083-7.24-5.43514114 16.3 105.08306281 48.9 311.62642781 59.77 378.66250243 14.49 77.90735711 19.93 134.07214924 21.74 168.49637681 0 41.67074902-9.06 77.9063569-28.98 108.70682364-21.74 34.42422757-52.53 50.72965099-90.57 50.72965099-36.23 0-56.16-25.36432539-59.78-77.9063569-27.17 18.11780394-68.83 34.42422757-126.8 50.72965099-9.06 1.81238052-16.3 5.43614135-25.36 7.24752166-54.34 12.6826628-173.89 19.92918425-226.42-1.81138031-25.36-10.87128249-52.53-25.3653256-68.84-43.48312954-7.24-9.05890197-14.49-19.93018446-21.73-30.80046674 3.62 12.6826628 7.24 25.3653256 10.86 38.04698819 10.87 52.54203151 27.18 105.08406302 81.52 128.6370081 3.62 1.81238052 7.24 1.81238052 9.05 3.62376083 1.82 0 1.82 0 3.63 1.81138031 14.49 5.43614135 28.98 10.87128249 43.47 19.92818404 14.49 1.8103801 28.98 3.6207602 43.47 5.4411424 52.54 3.6207602 106.88 5.4311403 161.22 5.4311403Zm315.18-688.47754993c36.23 36.23560788 45.29 81.53011773 36.23 130.44838841-3.62 23.55294508-12.68 45.29450985-16.3 67.03607462-1.81 12.6826628-1.81 27.17670591 0 39.85936871 1.81 7.24652145 10.87 10.87028228 18.11 16.30542342 3.63-5.43514114 9.06-10.87028228 12.68-18.11780394 1.81-3.62376083 1.81-9.05890197 5.44-18.11780394 5.43 23.55394529 3.62 41.67174923-5.44 57.97717265-9.05 16.30642363-30.79 12.6826628-39.85-7.24652145-10.87-21.74156477-5.43-43.48312954-1.81-67.03607462 5.44-23.55394529 10.87-48.91827068 16.3-72.47221597 7.25-32.61184705-3.62-61.59993327-23.54-86.96525887-16.31-16.30642363-16.31-16.30642363-1.82-41.67074902Z"/><path fill="#98C543" d="M2844.09007 1142.74937728c-30.79 1.81238052-63.4-1.81138031-94.19 3.62376083-30.79 5.43514114-57.97 3.62376083-81.51-5.43514114 16.3 36.23560788 10.86 79.71873742-19.93 112.33058447-18.11 18.11780394-39.85 18.11780394-59.78 12.6826628-25.36-5.43514114-50.72-14.49404311-76.07-23.55294508-3.63-1.81238052-9.06-3.62376083-12.68-1.81238052-32.61 14.49404311-65.22 28.98908643-99.63 45.29450985 16.3 3.62376083 30.79 7.24752166 45.28 10.87128249 16.31 5.43514114 32.61 9.05890197 48.91 16.30542342 21.74 9.05890197 30.8 27.17670591 28.98 50.7306512-7.24 50.72965099-39.85 83.34149804-79.7 106.89444312-63.4 38.0479884-132.23 61.60093348-202.88 79.71473658l56.16 38.0479884 27.17-41.6687486 54.34 36.2376083c1.81-3.6207602 3.62-7.2515225 3.62-7.2515225 34.42-38.0479884 81.52-61.5929318 137.67-74.27959544 117.74-27.17670591 222.8-81.53011773 327.86-139.50729038 14.5-7.24652145 30.8-21.74156477 32.61-36.23560788 9.06-45.29450985 12.68-92.40040001 14.49-137.69490986-1.81-25.3653256-14.49-47.10689037-50.72-45.29551006ZM2514.42007 1182.60874599c1.81 0 1.81-1.81138031 3.62-1.81138031 38.04-16.30642363 45.28-50.72965099 16.3-79.71873742-5.43-5.43514114-12.68-10.87028228-19.92-12.6826628-18.12-1.81138031-50.72 28.98908643-50.72 50.7306512v3.62276062c1.81 16.30642363 36.23 41.67174923 50.72 39.85936871ZM2264.44007 1642.8063672l-57.96-39.8683706 30.79-48.910269c-9.06 1.8103801-19.92 5.4311403-28.98 7.2415204-119.55 27.1757057-251.79 32.6168481-373.15 18.1238052 34.42 76.0959768 76.08 103.2716825 121.36 179.3676593 7.25-10.8722827 50.72 0 50.72-3.6307623l79.71-70.6548344c63.39-5.4411424 126.79-10.8722827 190.19-14.4930429 5.44 0 14.49 1.8103801 18.12 5.4311403 21.73 16.303423 34.41 7.2515225 41.66-14.4930429 1.81-7.2515225 5.43-16.303423 7.24-23.5549455l-54.34-36.2376083-25.36 41.6787507Z"/><path fill="#2E8062" d="M1217.45007 1175.36222454h21.74v141.31867069h-21.74ZM1164.92007 1175.36222454h21.74v141.31867069h-21.74ZM670.40807 1175.36222454h21.737v141.31867069h-21.737ZM617.87707 1175.36222454h21.737v141.31867069h-21.737ZM409.56607 1206.16269128h21.737v110.51820395h-21.737ZM290.01307 1175.36222454h21.737v141.31867069h-21.737Z"/><path fill="#2E8062" d="M1186.01 1294.8816165v21.7445654h-168.461v-21.7445654ZM431.833 1295.50458076v21.74156477H151.066v-21.74156477Z"/><path fill="#2E8062" d="M1101.52007 1209.7854519h21.74v108.70782385h-21.74ZM215.74607 1209.7854519h21.736v108.70782385h-21.736ZM152.34607 1209.7854519h21.737v108.70782385h-21.737ZM996.46107 1258.70372258h21.739v103.2716825h-21.739ZM753.73207 1294.93933046h21.737v65.22469431h-21.737Z"/><path fill="#2E8062" d="M754.135343 1318.18104985v-21.74156477h81.513v21.74156477ZM289.22 1229.13796431v-21.74156477h143.101v21.74156477ZM95.584 1229.33051356v-21.74156477h77.891v21.74156477ZM572.552 1317.73661091v-21.74156477h67.022v21.74156477Z"/><path fill="#2E8062" d="M833.43407 1202.53893045c-32.605 0-57.965 25.36432539-57.965 57.97717265 0 32.61184705 25.36 57.97717265 57.965 57.97717265 32.605 0 57.965-25.3653256 57.965-57.97717265 0-32.61284726-25.36-57.97717265-57.965-57.97717265Zm0 92.40040001c-19.925 0-36.228-16.30542342-36.228-36.23560788 0-19.92918425 16.303-36.23560788 36.228-36.23560788 19.926 0 36.228 16.30642363 36.228 36.23560788 0 19.93018446-16.302 36.23560788-36.228 36.23560788ZM1018.20007 1258.70372258c0-32.61184705-25.362-57.97717265-57.968-57.97717265-32.605 0-57.964 25.3653256-57.964 57.97717265 0 32.61284726 25.359 57.97717265 57.964 57.97717265h57.968v-57.97717265Zm-21.739 36.23560788h-36.229c-19.925 0-36.228-16.30542342-36.228-36.23560788 0-19.92918425 16.303-36.23560788 36.228-36.23560788 19.926 0 36.229 16.30642363 36.229 36.23560788v36.23560788ZM554.47807 1258.70372258h21.737v103.2716825h-21.737Z"/><path fill="#2E8062" d="M578.02607 1258.70372258c0-32.61184705-25.359-57.97717265-57.965-57.97717265-32.605 0-57.965 25.3653256-57.965 57.97717265 0 32.61284726 25.36 57.97717265 57.965 57.97717265h57.965v-57.97717265Zm-23.548 36.23560788h-36.228c-19.925 0-36.228-16.30542342-36.228-36.23560788 0-19.92918425 16.303-36.23560788 36.228-36.23560788s36.228 16.30642363 36.228 36.23560788v36.23560788ZM241.10507 1180.79736568c0 8.00468063-6.488 14.49404311-14.491 14.49404311s-14.491-6.48936248-14.491-14.49404311 6.488-14.49404311 14.491-14.49404311 14.491 6.48936248 14.491 14.49404311ZM94.38167 1387.34073068c0 8.00468063-6.488 14.49404311-14.4913 14.49404311-8.0032 0-14.4912-6.48936248-14.4912-14.49404311s6.488-14.49404311 14.4912-14.49404311c8.0033 0 14.4913 6.48936248 14.4913 14.49404311ZM58.15357 1387.34073068c0 8.00468063-6.4879 14.49404311-14.4912 14.49404311s-14.4912-6.48936248-14.4912-14.49404311 6.4879-14.49404311 14.4912-14.49404311 14.4912 6.48936248 14.4912 14.49404311ZM1101.52007 1345.66998166c0 8.00468063-6.49 14.49404311-14.49 14.49404311s-14.49-6.48936248-14.49-14.49404311c0-8.00568084 6.49-14.49504332 14.49-14.49504332s14.49 6.48936248 14.49 14.49504332ZM1067.11007 1345.66998166c0 8.00468063-6.49 14.49404311-14.5 14.49404311-8 0-14.49-6.48936248-14.49-14.49404311 0-8.00568084 6.49-14.49504332 14.49-14.49504332 8.01 0 14.5 6.48936248 14.5 14.49504332ZM96.19307 1303.99823243c0 19.93018446-16.3026 36.23560788-36.2281 36.23560788-19.9254 0-36.2281-16.30542342-36.2281-36.23560788v-52.5410313H2.00007v52.5410313c0 32.61284726 25.3596 57.97717265 57.9649 57.97717265s57.9651-25.36432539 57.9651-57.97717265v-92.40040001h-21.737v92.40040001ZM291.82507 1642.8063672c0 8.00168-6.488 14.4930429-14.492 14.4930429-8.003 0-14.491-6.4913629-14.491-14.4930429 0-8.0116821 6.488-14.503045 14.491-14.503045 8.004 0 14.492 6.4913629 14.492 14.503045ZM255.59607 1642.8063672c0 8.00168-6.487 14.4930429-14.491 14.4930429-8.003 0-14.491-6.4913629-14.491-14.4930429 0-8.0116821 6.488-14.503045 14.491-14.503045 8.004 0 14.491 6.4913629 14.491 14.503045ZM1217.45007 1432.63524053h21.74v141.31667027h-21.74ZM1164.92007 1432.63524053h21.74v141.31667027h-21.74ZM1087.03007 1465.24708758h21.74v108.70482322h-21.74ZM1014.57007 1465.24708758h21.74v108.70482322h-21.74ZM943.93007 1465.24708758h21.737v108.70482322h-21.737Z"/><path fill="#2E8062" d="M1186.971 1551.06163265v21.74156477H609.13v-21.74156477ZM397.562 1490.0606072v-21.74156477h83.323v21.74156477ZM301.524 1490.02090939v-21.74156477h70.649v21.74156477ZM397.37 1573.5906072v-21.74156477h83.33v21.74156477Z"/><path fill="#2E8062" d="M480.315 1572.90815159h-21.737V1467.8270892h21.737ZM373.474 1572.90815159h-21.737V1467.8270892h21.737ZM840.68007 1463.43570727c-32.605 0-57.965 25.36432539-57.965 57.97517223v34.4272282h21.737v-34.4272282c0-19.92818404 16.302-36.23360746 36.228-36.23360746h25.359v-21.74156477h-25.359ZM295.44707 1559.4588679c0 19.9341853-16.302 36.2376083-36.228 36.2376083-19.925 0-36.228-16.303423-36.228-36.2376083v-52.54003109h-21.737v52.54003109c0 32.6168481 25.36 57.9821737 57.965 57.9821737 32.606 0 57.965-25.3653256 57.965-57.9821737v-90.58801949h-21.737v90.58801949ZM592.51807 1514.1693591h21.736v103.2716825h-21.736Z"/><path fill="#2E8062" d="M616.06607 1515.9797392c0-32.61484768-25.36-57.97917307-57.965-57.97917307-32.605 0-57.965 25.36432539-57.965 57.97917307 0 32.606846 25.36 57.9721716 57.965 57.9721716h57.965v-57.9721716Zm-23.548 36.2376083h-36.229c-19.925 0-36.228-16.3134251-36.228-36.2376083 0-19.93218488 16.303-36.23860851 36.228-36.23860851 19.926 0 36.229 16.30642363 36.229 36.23860851v36.2376083Z"/><path fill="#4EAF57" d="M67.21057 1479.74113069h21.7369v94.21078011h-21.7369Z"/><path fill="#4EAF57" d="M88.94747 1476.11837007c0-23.55394529-19.9255-43.48312954-43.4737-43.48312954-23.5483 0-43.4737 19.92918425-43.4737 43.48312954 0 23.55294508 19.9254 43.48212933 43.4737 43.48212933h43.4737v-43.48212933Zm-21.7369 21.74156477h-21.7368c-12.6798 0-21.7369-9.05990218-21.7369-21.74156477 0-12.6826628 9.0571-21.74156477 21.7369-21.74156477 12.6798 0 21.7368 9.05890197 21.7368 21.74156477v21.74156477ZM130.53200005 1573.89062992h-21.737v-97.83354073h21.737Z"/><path fill="#4EAF57" d="M177.70607 1432.63524053h-25.36c-23.548 0-43.473 19.92918425-43.473 43.48312954h21.737c0-12.6826628 9.057-21.74156477 21.736-21.74156477h25.36"/></g></g></g></svg>