<svg width="2682" height="835" xmlns="http://www.w3.org/2000/svg" xmlns:xlink="http://www.w3.org/1999/xlink" overflow="hidden"><defs><clipPath id="clip0"><rect x="1249" y="103" width="2682" height="835"/></clipPath></defs><g clip-path="url(#clip0)" transform="translate(-1249 -103)"><path d="M1249 520.5C1249 289.921 1435.92 103 1666.5 103L3513.5 103C3744.08 103 3931 289.921 3931 520.5L3931 520.5C3931 751.079 3744.08 938 3513.5 938L1666.5 938C1435.92 938 1249 751.079 1249 520.5Z" fill="#4DAC5F" fill-rule="evenodd" fill-opacity="0.941176"/><path d="M2902 507 2915 507 2915 594.001 2902 594.001Z" fill="#FFFFFF" fill-rule="evenodd"/><path d="M2869 507 2882 507 2882 594.001 2869 594.001Z" fill="#FFFFFF" fill-rule="evenodd"/><path d="M2564 507 2577 507 2577 594.001 2564 594.001Z" fill="#FFFFFF" fill-rule="evenodd"/><path d="M2531 507 2544 507 2544 594.001 2531 594.001Z" fill="#FFFFFF" fill-rule="evenodd"/><path d="M2402 526 2416 526 2416 594 2402 594Z" fill="#FFFFFF" fill-rule="evenodd"/><path d="M2328 507 2342 507 2342 594.001 2328 594.001Z" fill="#FFFFFF" fill-rule="evenodd"/><path d="M2883 580 2883 594 2779 594 2779 580Z" fill="#FFFFFF" fill-rule="evenodd"/><path d="M2416 580 2416 594 2243 594 2243 580Z" fill="#FFFFFF" fill-rule="evenodd"/><path d="M2830 527 2844 527 2844 594 2830 594Z" fill="#FFFFFF" fill-rule="evenodd"/><path d="M2282 527 2296 527 2296 594 2282 594Z" fill="#FFFFFF" fill-rule="evenodd"/><path d="M2243 527 2256 527 2256 594 2243 594Z" fill="#FFFFFF" fill-rule="evenodd"/><path d="M2765 557 2779 557 2779 621.001 2765 621.001Z" fill="#FFFFFF" fill-rule="evenodd"/><path d="M2615 580 2629 580 2629 621 2615 621Z" fill="#FFFFFF" fill-rule="evenodd"/><path d="M2615 594 2615 580 2666 580 2666 594Z" fill="#FFFFFF" fill-rule="evenodd"/><path d="M2328 539 2328 526 2416 526 2416 539Z" fill="#FFFFFF" fill-rule="evenodd"/><path d="M2208 539 2208 526 2256 526 2256 539Z" fill="#FFFFFF" fill-rule="evenodd"/><path d="M2503 594 2503 580 2544 580 2544 594Z" fill="#FFFFFF" fill-rule="evenodd"/><path d="M2664.5 522C2644.89 522 2629 538.118 2629 558 2629 577.883 2644.89 594.001 2664.5 594.001 2684.11 594.001 2700 577.882 2700 558 2700 557.975 2700 557.949 2700 557.924 2700 538.083 2684.14 522 2664.58 522 2664.55 522 2664.52 522 2664.5 522ZM2664.5 580.213C2652.36 580.213 2642.52 570.233 2642.52 557.924 2642.52 545.613 2652.36 535.634 2664.5 535.634 2676.64 535.634 2686.48 545.613 2686.48 557.924 2686.61 570.19 2676.9 580.239 2664.8 580.365 2664.7 580.366 2664.6 580.366 2664.5 580.366Z" fill="#FFFFFF" fill-rule="evenodd"/><path d="M2779 558.424C2778.96 538.819 2762.8 522.958 2742.92 523 2723.04 523.041 2706.96 538.969 2707 558.576 2707.04 578.152 2723.15 594.001 2743 594.001L2779 594.001ZM2765.26 580.452 2743 580.452C2730.67 580.493 2720.63 570.666 2720.59 558.5 2720.55 546.336 2730.51 536.44 2742.85 536.398 2755.18 536.356 2765.21 546.184 2765.26 558.349 2765.26 558.374 2765.26 558.4 2765.26 558.424Z" fill="#FFFFFF" fill-rule="evenodd"/><path d="M2492 557 2506 557 2506 621.001 2492 621.001Z" fill="#FFFFFF" fill-rule="evenodd"/><path d="M2506 558C2506 538.118 2489.88 522 2470 522 2450.12 522 2434 538.118 2434 558 2434 577.882 2450.12 594.001 2470 594.001L2506 594.001ZM2492.29 580.289 2470.08 580.289C2457.77 580.332 2447.75 570.387 2447.71 558.077 2447.66 545.767 2457.61 535.754 2469.92 535.711 2482.23 535.669 2492.24 545.614 2492.29 557.924 2492.29 557.949 2492.29 557.975 2492.29 558Z" fill="#FFFFFF" fill-rule="evenodd"/><path d="M2297 509.5C2297 514.194 2293.2 518 2288.5 518 2283.81 518 2280 514.194 2280 509.5 2280 504.805 2283.81 501 2288.5 501 2293.2 501 2297 504.805 2297 509.5Z" fill="#FFFFFF" fill-rule="evenodd"/><path d="M2207 636.5C2207 641.194 2203.19 645 2198.5 645 2193.81 645 2190 641.194 2190 636.5 2190 631.806 2193.81 628 2198.5 628 2203.19 628 2207 631.806 2207 636.5Z" fill="#FFFFFF" fill-rule="evenodd"/><path d="M2184 636.5C2184 641.194 2180.42 645 2176 645 2171.58 645 2168 641.194 2168 636.5 2168 631.806 2171.58 628 2176 628 2180.42 628 2184 631.806 2184 636.5Z" fill="#FFFFFF" fill-rule="evenodd"/><path d="M2830 610.5C2830 615.195 2826.2 619 2821.5 619 2816.81 619 2813 615.195 2813 610.5 2813 605.805 2816.81 602 2821.5 602 2826.2 602 2830 605.805 2830 610.5Z" fill="#FFFFFF" fill-rule="evenodd"/><path d="M2808 610.5C2808 615.195 2804.19 619 2799.5 619 2794.81 619 2791 615.195 2791 610.5 2791 605.805 2794.81 602 2799.5 602 2804.19 602 2808 605.805 2808 610.5Z" fill="#FFFFFF" fill-rule="evenodd"/><path d="M2208.27 585.536C2207.55 597.76 2197 607.088 2184.7 606.37 2173.4 605.712 2164.39 596.758 2163.73 585.536L2163.73 553.077 2150 553.077 2150 585.84C2150.92 605.597 2167.78 620.874 2187.66 619.962 2206.26 619.109 2221.14 604.32 2222 585.84L2222 529 2208.27 529 2208.27 585.536Z" fill="#FFFFFF" fill-rule="evenodd"/><path d="M2329 795.5C2329 800.194 2325.2 804 2320.5 804 2315.81 804 2312 800.194 2312 795.5 2312 790.805 2315.81 787 2320.5 787 2325.2 787 2329 790.805 2329 795.5Z" fill="#FFFFFF" fill-rule="evenodd"/><path d="M2307 795.5C2307 800.194 2303.19 804 2298.5 804 2293.81 804 2290 800.194 2290 795.5 2290 790.805 2293.81 787 2298.5 787 2303.19 787 2307 790.805 2307 795.5Z" fill="#FFFFFF" fill-rule="evenodd"/><path d="M2902 665 2915 665 2915 752.001 2902 752.001Z" fill="#FFFFFF" fill-rule="evenodd"/><path d="M2869 665 2882 665 2882 752.001 2869 752.001Z" fill="#FFFFFF" fill-rule="evenodd"/><path d="M2822 685 2835 685 2835 752 2822 752Z" fill="#FFFFFF" fill-rule="evenodd"/><path d="M2777 685 2791 685 2791 752 2777 752Z" fill="#FFFFFF" fill-rule="evenodd"/><path d="M2732 685 2746 685 2746 752 2732 752Z" fill="#FFFFFF" fill-rule="evenodd"/><path d="M2882 739 2882 752 2526 752 2526 739Z" fill="#FFFFFF" fill-rule="evenodd"/><path d="M2394 701 2394 687 2446 687 2446 701Z" fill="#FFFFFF" fill-rule="evenodd"/><path d="M2336 701 2336 687 2379 687 2379 701Z" fill="#FFFFFF" fill-rule="evenodd"/><path d="M2394 752 2394 739 2446 739 2446 752Z" fill="#FFFFFF" fill-rule="evenodd"/><path d="M2446 752 2432 752 2432 687 2446 687Z" fill="#FFFFFF" fill-rule="evenodd"/><path d="M2379 752 2366 752 2366 687 2379 687Z" fill="#FFFFFF" fill-rule="evenodd"/><path d="M2668.23 684C2648.77 684 2633 700.089 2633 719.932L2633 741 2646.45 741 2646.45 719.932C2646.45 707.658 2656.19 697.714 2668.23 697.714L2684 697.714 2684 684Z" fill="#FFFFFF" fill-rule="evenodd"/><path d="M2331.47 743.727C2330.75 755.99 2320.34 765.355 2308.21 764.628 2297.08 763.971 2288.19 754.988 2287.53 743.727L2287.53 710.853 2274 710.853 2274 743.727C2274.91 763.551 2291.53 778.879 2311.14 777.961 2329.48 777.105 2344.15 762.266 2345 743.727L2345 687 2331.47 687 2331.47 743.727Z" fill="#FFFFFF" fill-rule="evenodd"/><path d="M2516 716 2529 716 2529 779.001 2516 779.001Z" fill="#FFFFFF" fill-rule="evenodd"/><path d="M2529 716.924C2528.96 697.043 2513.03 680.958 2493.42 681 2473.82 681.042 2457.96 697.197 2458 717.077 2458.04 736.927 2473.93 753.001 2493.5 753.001L2529 753.001ZM2515.45 739.261 2493.5 739.261C2481.34 739.307 2471.44 729.336 2471.4 717 2471.36 704.665 2481.19 694.632 2493.35 694.586 2505.51 694.548 2515.41 704.512 2515.45 716.847 2515.45 716.87 2515.45 716.9 2515.45 716.924Z" fill="#FFFFFF" fill-rule="evenodd"/><path d="M2225 665 2238 665 2238 752.001 2225 752.001Z" fill="#FFFFFF" fill-rule="evenodd"/><path d="M2191 694 2205 694 2205 752 2191 752Z" fill="#FFFFFF" fill-rule="evenodd"/><path d="M2205 692C2205 677.089 2192.69 665 2177.5 665 2162.31 665 2150 677.089 2150 692 2150 706.911 2162.31 719.001 2177.5 719.001L2205 719.001ZM2191.17 705.425 2177.5 705.425C2169.95 705.425 2163.83 699.418 2163.83 692 2163.83 684.583 2169.95 678.576 2177.5 678.576 2185.06 678.576 2191.17 684.583 2191.17 692Z" fill="#FFFFFF" fill-rule="evenodd"/><path d="M3318.18 289.749 3318.18 289.749 3335.93 300.266C3337.83 301.254 3341.49 303.513 3341.49 303.513 3347.81 307.001 3353.95 310.817 3359.87 314.947 3376.63 327.016 3385.64 341.344 3380.5 371.412L3380.08 374.589C3377.9 387.999 3374.38 395.763 3357.55 407.833 3319.81 433.89 3279.98 456.766 3238.47 476.227 3222.75 482.65 3204.78 479.942 3191.64 469.168 3177.56 455.052 3176.36 435.43 3176.29 422.514 3176.29 410.797 3177.07 401.339 3177.49 394.987 3158.86 409.67 3139.08 422.819 3118.34 434.301L3112 438.042C3114.25 455.546 3116.3 471.639 3118.06 485.403 3125.8 546.667 3133.55 584.711 3143.48 599.463 3156.19 618.036 3174.88 631.667 3196.43 638.071 3222.77 646.541 3287.97 642.236 3314.1 636.095 3340.43 630.799 3365.79 621.492 3389.3 608.497 3392.92 605.848 3396.94 603.799 3401.2 602.427 3403.46 602.427 3404.3 604.474 3403.88 608.568 3401.61 618.131 3403.42 628.21 3408.88 636.377 3415.32 643.533 3424.63 647.418 3434.23 646.964 3444.19 646.997 3453.95 644.208 3462.4 638.918 3471 634.504 3476.29 625.517 3475.99 615.838 3474.02 587.088 3467.26 538.809 3455.71 471.003 3450.85 444.112 3434.23 331.251 3424.02 261.164 3406.58 262.272 3389.21 264.299 3371.98 267.233 3352.98 271.085 3333.36 270.579 3314.59 265.751 3298.69 261.359 3283.62 254.346 3270.02 245 3277.06 253.823 3284.1 262.999 3286.64 265.186 3296.34 274.372 3306.9 282.598 3318.18 289.749ZM3348.25 589.793 3313.04 569.113 3329.94 538.621 3365.15 559.302ZM3410.36 455.122C3411.7 462.181 3408.81 465.569 3402.33 467.827 3335.29 490.555 3268.35 513.541 3201.5 536.786 3195.45 538.903 3189.74 542.079 3183.69 544.903 3186.78 553.09 3199.46 554.22 3194.53 564.877L3188.61 564.877C3186.43 562.336 3184.04 559.937 3182 557.254 3176.28 551.192 3176.54 541.633 3182.59 535.902 3183.69 534.864 3184.94 533.995 3186.29 533.327 3190.1 531.058 3194.14 529.189 3198.33 527.752L3405.43 456.746C3407.04 456.135 3408.69 455.618 3410.36 455.193Z" fill="#FFFFFF" fill-rule="evenodd"/><path d="M3086 422.625 3053.13 164C3026.9 173.73 3002.16 188.466 2975.73 201.228 2991.91 216.247 3006.33 229.432 3020.19 242.265 3008.88 262.642 3000.26 281.608 2977 286.544 2972.72 288.08 2969.3 291.363 2967.6 295.569 2956.78 323.772 2936.28 332.938 2907.58 327.579 2904 327.365 2900.4 327.483 2896.84 327.932 2896.13 345.7 2895.49 362.552 2895 375.596 2906.59 381.096 2917.69 383.211 2923.84 389.697 2936.64 403.799 2949.01 417.901 2961.16 432.003 2963.92 435.176 2976.36 449.136 2989.79 465.001 3014.48 455.6 3035.15 447.044 3051.79 439.335 3063.38 433.906 3074.76 428.336 3086 422.625ZM3036.52 344.572C3035.88 346.123 3034.96 347.604 3034.19 349.084 3033.34 349.084 3032.63 349.084 3032.28 349.084 3020.12 340.412 3016.87 341.681 3014.11 356.77 3011.35 371.859 3006.55 408.453 3004.64 412.754 2997.99 394.633 2989.58 376.231 2983.43 360.084 2976.07 363.956 2966.98 361.748 2962.22 354.937 2958.12 347.886 2963.14 342.88 2966.47 337.662 2969.79 332.445 2977.92 338.297 2980.18 339.989 2984.39 343.926 2987.98 348.493 2990.78 353.526 2996.08 363.455 3000.59 373.781 3004.28 384.41 3006.41 372.07 3008.17 360.577 3010.36 349.155 3011.42 344.078 3012.99 339.117 3015.03 334.349 3017.15 329.342 3020.47 325.041 3027.05 327.862 3033.79 330.458 3037.71 337.486 3036.38 344.572Z" fill="#FFFFFF" fill-rule="evenodd"/><path d="M3249.7 393.421C3249.64 403.303 3248.56 413.152 3246.46 422.808 3244.91 430.437 3242.94 438.067 3241.04 444.001L3242.17 443.576C3282.98 425.206 3321.98 403.045 3358.68 377.385 3367.19 371.663 3371.77 367.919 3371.98 366.153 3372.01 365.895 3372.01 365.633 3371.98 365.375 3368.4 356.444 3361.93 348.981 3353.62 344.183 3342.29 335.918 3329.9 328.995 3317.73 321.86 3317.73 321.86 3311.75 318.398 3308.94 316.562 3304.43 313.806 3296.27 307.449 3296.27 307.449 3283.19 297.842 3258 271.421 3251.81 257.434 3251.81 256.728 3253.78 243.305 3255.18 234.193 3245.12 227.129 3235.2 220.064 3225 213 3229.41 239.326 3234.36 269.232 3239.85 302.716 3244.94 332.725 3248.23 363.015 3249.7 393.421Z" fill="#FFFFFF" fill-rule="evenodd"/><path d="M3089 450C3072.02 459.791 3054.22 468.076 3035.82 474.765 3035.47 474.765 3024.48 476.74 3003 480.339 3012.3 491.089 3020.42 502.822 3027.21 515.334 3034.08 533.698 3048.42 548.213 3066.61 555.198 3086.6 564.486 3102.94 580.26 3113 600 3106.83 580.436 3102.47 560.336 3099.98 539.958 3099 527.258 3094.46 493.109 3089 450Z" fill="#FFFFFF" fill-rule="evenodd"/><path d="M3146.24 388.427C3174.77 370.802 3189.03 359.716 3189.03 355.169 3189.03 354.185 3182.82 341.106 3170.25 316.215 3163.64 303.141 3157.82 289.687 3152.81 275.925 3153.25 270.77 3154.03 265.65 3155.14 260.596 3156.84 251.526 3158.25 246.956 3159.38 246.956 3165.44 257.245 3170.88 267.881 3175.69 278.808 3174.77 275.854 3180.63 290.902 3188.75 306.09 3194.95 316.12 3198.67 327.468 3199.62 339.207 3199.72 358.17 3192.92 376.527 3180.49 390.888 3180.49 396.021 3180.98 403.123 3180.98 411.982 3180.98 426.678 3183.53 438.842 3191.08 444.96 3198.78 450.371 3208.44 452.263 3217.63 450.163L3221.3 449.6C3225.96 448.624 3230.54 447.307 3235 445.663 3234.01 432.514 3232.32 412.264 3232.32 410.928 3228.46 371.083 3218.43 304.121 3202.24 210.041 3201.6 206.596 3200.97 203.009 3200.26 198.861 3182.56 188.495 3164.02 179.628 3144.83 172.353 3124.21 164.759 3098.3 156.321 3075 158.29 3079.59 193.095 3095.55 314.809 3107.9 410.154 3120.9 403.615 3133.75 396.232 3146.24 388.427Z" fill="#FFFFFF" fill-rule="evenodd"/><path d="M3700.77 558.561C3710.67 557.379 3712.58 552.859 3706.64 544.654 3695.19 529.496 3678.01 521.569 3663.8 511 3659.48 524.072 3655.38 536.589 3651 550.217 3666.84 554.876 3683.17 560.648 3700.77 558.561Z" fill="#FFFFFF" fill-rule="evenodd"/><path d="M3327.08 741C3380.52 740.403 3433.64 732.742 3485.05 718.208 3522.01 709.753 3557.52 695.911 3590.44 677.126 3600.94 670.768 3610.32 662.626 3618 653.068 3607.14 646.033 3536.37 628.588 3530.1 626.477 3525.94 625.07 3524.11 623.03 3525.45 617.684 3528.05 607.906 3528.9 603.615 3530.45 596.58 3532.21 588.209 3538.77 584.692 3545.54 581.667 3559.63 575.407 3568.73 569.568 3582.97 563.378 3585.86 562.182 3588.68 560.845 3591.21 559.649 3578.81 522.858 3591.21 492.821 3613.28 465.104 3611.02 458.274 3610.81 450.952 3612.64 444.001L3612.64 444.001C3612.64 444.001 3585.57 404.396 3572.04 384.98 3571.33 383.957 3571.1 382.672 3571.41 381.463 3579.93 362.188 3565.98 354.661 3553.64 344.954 3534.68 330.181 3514.45 315.831 3499.65 297.4 3488.79 283.823 3480.75 276.297 3463.27 281.502 3459.36 282.097 3455.36 281.432 3451.85 279.603 3450.46 278.937 3449.17 278.059 3448.05 277 3457.84 337.146 3475.68 454.693 3482.38 493.313 3488.67 525.11 3492.67 557.318 3494.36 589.687 3495.11 611.621 3489.26 633.278 3477.58 651.872 3466.83 670.006 3447.09 680.929 3425.98 680.433L3425.98 680.433C3405.45 680.433 3393.98 665.519 3391.58 635.692 3376.41 646.01 3352.32 655.764 3319.33 664.956 3314.54 666.293 3309.88 667.559 3305.23 668.685 3274.64 676.352 3205.42 680.081 3175.39 667.911 3160.69 662.635 3147.32 654.235 3136.2 643.29 3131.44 637.786 3127.34 631.742 3124 625.282 3126.26 632.316 3128.09 639.351 3129.71 646.385 3136.34 676.423 3145.36 706.461 3176.66 719.897 3178.42 720.67 3180.32 721.374 3182.23 722.007L3184.27 722.71C3192.86 725.313 3201.08 728.999 3208.73 733.684 3216.98 734.951 3225.22 735.935 3233.54 736.78 3264.63 739.453 3295.93 740.437 3327.08 741ZM3506.91 348.12C3527.49 369.223 3532.64 394.337 3527.49 422.053 3525.02 435.067 3520.44 447.589 3517.97 460.532 3516.63 468.132 3516.78 475.919 3518.4 483.465 3519.24 487.123 3524.88 489.796 3528.34 492.961 3530.87 489.791 3533.23 486.48 3535.38 483.043 3536.65 479.76 3537.62 476.37 3538.27 472.913 3541.98 484.037 3540.7 496.217 3534.75 506.327 3529.04 515.472 3517.2 513.362 3512.33 502.247 3506.62 489.725 3508.88 476.993 3511.56 464.331 3514.52 450.261 3518.04 436.615 3521.08 422.756 3524.68 405.105 3519.59 386.797 3507.4 373.515 3498.45 362.4 3498.38 362.47 3506.91 348.12Z" fill="#FFFFFF" fill-rule="evenodd"/><path d="M3815.63 519.351C3797.85 520.546 3779.65 518.789 3762.15 521.741 3746.63 524.664 3730.62 523.723 3715.59 519 3724.9 540.372 3720.6 565.198 3704.65 582.241 3694.71 592.781 3682.29 592.5 3670.37 589.9 3655.48 586.808 3641.23 581.257 3626.62 576.971 3624.23 575.977 3621.62 575.756 3619.08 576.338 3600.45 584.559 3581.97 593.132 3561.93 602.337 3571.45 604.656 3579.71 606.413 3587.82 608.661 3597.28 611.331 3606.73 614.072 3616.04 617.585 3627.96 621.762 3634.88 634.109 3632.2 646.395 3628.53 675.626 3609.69 693.404 3586.06 707.457 3549.82 728.186 3510.71 743.505 3470 752.92L3501.82 774.001 3517.2 750.04 3548.59 771.119C3549.79 768.871 3550.5 767.255 3550.22 766.974 3569.76 744.91 3597.28 731.84 3628.81 724.814 3696.4 709.776 3756.37 677.945 3816.34 645.622 3824.31 641.336 3833.91 632.833 3835.39 624.542 3840.32 598.688 3843.15 572.493 3843.99 546.194 3844.28 530.524 3836.02 517.946 3815.63 519.351Z" fill="#FFFFFF" fill-rule="evenodd"/><path d="M3627.34 541.966C3628.05 541.785 3628.69 541.499 3629.33 541.116 3651.59 531.484 3655.43 512.291 3638.43 495.153 3635.38 491.6 3631.25 489.119 3626.63 488.07 3615.75 486.725 3597.2 504.997 3597.05 516.399 3596.98 517.176 3596.98 517.958 3597.05 518.736 3599.04 527.943 3618.74 542.815 3627.34 541.966Z" fill="#FFFFFF" fill-rule="evenodd"/><path d="M3484 804.587 3450.68 782.261 3468.43 754 3451.59 757.956C3381.46 773.281 3309.3 776.906 3238 768.696 3258.08 811.935 3281.47 827.973 3307.88 871 3311.76 865.065 3336.77 871 3336.98 868.669L3382.98 827.832C3419.05 824.864 3455.05 821.755 3491.18 819.071 3495.06 818.943 3498.86 820.081 3502.03 822.321 3514.43 831.435 3521.97 826.56 3525.56 813.772 3526.82 809.363 3528.3 805.025 3530 800.771L3499.36 780.212Z" fill="#FFFFFF" fill-rule="evenodd"/><path d="M1691.79 670.739 1667.53 679.924C1644.91 693.326 1631.82 716.859 1636.45 740.375 1642.62 771.729 1677.95 791.179 1715.36 783.819L1719.82 782.941 1719.86 783.155 1654.63 795.99C1617.22 803.351 1581.89 783.901 1575.72 752.547 1569.55 721.192 1594.88 689.807 1632.29 682.446Z" fill="#06907C" fill-rule="evenodd"/><path d="M1549.92 440.666 1514.21 455.111C1481.1 476.679 1462.55 515.57 1470.33 555.113 1480.7 607.836 1533.96 641.751 1589.3 630.865L1595.9 629.566 1595.97 629.927 1499.49 648.91C1444.16 659.797 1390.89 625.882 1380.52 573.158 1370.15 520.435 1406.59 468.868 1461.92 457.981Z" fill="#06907C" fill-rule="evenodd"/><path d="M1681.41 242.835 1659.06 251.644C1638.3 264.682 1626.51 287.96 1631.13 311.475 1637.3 342.83 1670.32 362.734 1704.88 355.934L1709.01 355.123 1709.05 355.337 1648.79 367.195C1614.22 373.996 1581.2 354.091 1575.03 322.737 1568.86 291.382 1591.88 260.451 1626.44 253.651Z" fill="#06907C" fill-rule="evenodd"/><path d="M1707.73 125.6C1741.37 127.463 1774.18 133.468 1805.52 143.193 1843.12 154.862 1878.61 171.888 1910.85 193.538L1923.41 203.47 1613.78 264.394C1586.77 269.709 1569.18 295.918 1574.49 322.932 1579.81 349.946 1606.02 367.536 1633.03 362.221L2008.63 288.317 2036.18 329.984 2043.63 345.321 1461.16 460.437 1461.16 460.439 1458.53 460.958C1405.52 471.435 1370.85 521.975 1381.1 573.843 1391.36 625.711 1442.64 659.264 1495.65 648.787L1571.8 633.738 1571.79 633.739 2083.33 532.64 2081.63 559.981 2072.96 604.171 1614.72 694.335C1587.71 699.65 1570.12 725.859 1575.43 752.873 1580.75 779.887 1606.96 797.477 1633.97 792.162L1646.97 789.604 1650.12 789.452 1652.75 788.932 2028.39 714.693 2017.64 733.844C1960.08 819.949 1868.71 884.399 1757.86 906.307 1539.57 949.449 1328.39 811.282 1286.18 597.703 1243.96 384.122 1386.71 176.007 1605 132.865 1639.64 126.019 1674.1 123.738 1707.73 125.6Z" fill="#FFFFFF" fill-rule="evenodd"/></g></svg>