<svg xmlns="http://www.w3.org/2000/svg" viewBox="0 0 2367 801"><defs><linearGradient id="b" x1="3500.5" x2="3500.5" y1="914" y2="113" gradientUnits="userSpaceOnUse"><stop offset=".1" stop-color="#FC3F04"/><stop offset="1" stop-color="#FFC000"/></linearGradient></defs><g fill-rule="evenodd" clip-path="url(#a)" transform="translate(-1533 -113)"><path fill="#FFD966" d="M3391 745a51 51 0 1 1 102 0 51 51 0 0 1-102 0Zm-3-429c0-26.5 21.3-48 47.5-48a47.8 47.8 0 0 1 47.5 48c0 26.5-21.3 48-47.5 48a47.8 47.8 0 0 1-47.5-48Zm-197 241c0-55.8 45-101 100.5-101S3392 501.2 3392 557s-45 101-100.5 101A100.8 100.8 0 0 1 3191 557Z"/><path fill="url(#b)" d="M3501 113c82.8 0 159.8 25.2 223.6 68.4l29.2 21.9-314.7 61.7a47 47 0 0 0 18 92.4l371.7-73 3.8 5.2c10.8 16 20.5 32.8 28.9 50.3l1.5 3.8-12 1.2-577.7 114a97 97 0 0 0 37.5 190.4l577.6-114 11.6-3.5-1.1 22.6a415.8 415.8 0 0 1-5.6 37.4l-3 12.1-451.2 91.8a49.2 49.2 0 1 0 19.6 96.5l387.4-78.8-27.5 43.6A399.1 399.1 0 0 1 3501 914a400.2 400.2 0 0 1-400-400.5c0-221.2 179-400.5 400-400.5Z"/><path fill="#E0E0E0" d="M2562.5 729v1c0 69.8-50.8 121-133.3 121-66.6 0-112.6-26.4-144.4-64l56.1-53.3c25.4 28.5 51.8 44.4 89.4 44.4 30.7 0 52.3-17.4 52.3-45-.4-.6 6-48-72.4-48h-33.9l-12.7-51.8L2482.4 514l-47.6 30.6h-128.3v-69.7h250.2V536l-93.6 89.3c50.2 8.5 99.4 34.9 99.4 103.6m-232.2-423.3c0-33.4 24-60.4 57.8-60.4h38l-10 5c.5 91.7-1.8 103.3 4 116.7h-31.6c-33.7 0-58.2-27.4-58.2-60.8v-.5Zm57.8 76.7h33.7v-12.2c2.5 4.3 5.8 7.6 10.7 10 10.7 5 3 1.8 310.7 2.8V230H2727v136.8s-281.5 1-286.8-1.4c-4.7-2-6.3-6.8-7.1-12-1.3-8.2-.5-8.3-.7-123.5h-43.9a74.7 74.7 0 0 0-75.5 76.3v.4a74 74 0 0 0 75 75.8m475-168.7h-35.6c.8-11.7-4.6-33.7 19.3-33.7h11.5v11.3c-11.1.8-17.5-2.7-17.5 6.2v3.7h22.3v12.5Zm41.1 171c-4.3 0-8.7-.7-13.2-1.9l4.3-15.6c7.3 2 16.7 2.2 20.6-4.4 4.5-7.7 2.9-10.5 3.1-132.9h16.3c-.5 114.3 1 117.5-1.5 130.7-3.2 15.5-12.6 24-29.6 24m-471.6-170.9H2416v-16.2h16.3v16.2Zm357.3 56a45 45 0 0 1 40-23.3h26.2l-9.2 4.6v72.8c-12.8-.4-21.8 1.2-33.6-2.5-16.2-5.1-27.1-17.5-27.1-35.6 0-5.8 1.2-11.1 3.7-16m0 57.5c21.2 15 50 12.6 51.5 12.8l5.5-11.4c-1 11 3 26.6-7.3 34.3-8.8 6.6-24.4 6.4-34 4.1-4-1-8.6-2.6-13.8-4.9l-5 15.6a88.5 88.5 0 0 0 31 7c15.9 0 27.4-3.8 34.5-11.3A42 42 0 0 0 2863 343V229.9c-20 .7-35.1-2-53.4 4.3-48.8 16.8-49.8 71.6-19.8 93M2400 213.7h-16.3v-16.2h16.3v16.2Zm-168 16h16.7v152.4H2235l-108-137 9.5 22.2V382h-16.8V229.8h16.2l103 131-7-18.7V229.8Zm-633.3 153.5L1533 229.8h19.2l58.5 141.6-1.7-16.8 51.9-124.8h18.5l-65.6 153.4h-15.2ZM1889 229.8h17.2V382H1889V229.8Zm184.5 76.6c0 34.6-24.8 62.4-59.6 62.4-34.9 0-60.2-28.3-60.2-62.9v-.4c0-34.6 24.9-62.4 59.7-62.4 34.9 0 60.1 28.2 60.1 62.8v.5Zm-59.6-79.2c-46.4 0-78 36.7-78 78.7v.5c0 42 31.1 78.3 77.5 78.3s78-36.8 78-78.8v-.4c0-42-31.2-78.3-77.5-78.3m-153.3 113.5v.5c0 26-21.8 43-52 43-24.2 0-44-8-62.3-24.3l10.6-12.6a72.7 72.7 0 0 0 52.3 21.5c20.5 0 34-10.9 34-25.9v-.4c0-42.5-90.8-14.5-90.8-73v-.3c0-24 21-41.6 50-41.6 22.3 0 38.2 6.3 53.6 18.7l-10 13.3c-34.5-28.2-76.4-17.4-76.4 8v.5c0 14.3 7.8 22.4 41.3 29.6 34 7.4 49.7 19.8 49.7 43m-140.8 41.4h-17.2V229.8h17.2V382Zm1001.4 17.1h16.3v16.2h-16.3v-16.2Zm-32.5 0h16.3v16.2h-16.3v-16.2ZM1669.3 774.4h141.1v70.3h-274v-64.5c137-116.3 187.3-139 187.3-189.7 0-31.1-20.6-48-49.7-48-28.6 0-48.2 15.8-75.7 49.6l-57-46c36.4-49.6 71.8-76.5 138-76.5 76.6 0 127.4 44.9 127.4 114v1.1c0 86.8-65.6 114.8-178.2 205.6l-15.7 12.1 56.5-28ZM2892 660.8c0 63.4-45.5 115.2-111.1 115.2s-112.1-52.9-112.1-116.3v-1c0-63.4 45.5-115.2 111-115.2 65.6 0 112.2 52.9 112.2 116.2v1.1Zm-111.1-192.3c-114.3 0-197.3 86.1-197.3 191.2v1.1c0 105.1 82 190.2 196.2 190.2 114.3 0 197.3-86.1 197.3-191.3v-1c0-105.1-82-190.2-196.2-190.2"/><path fill="#29367B" d="m2031.1 444 18.9 18.1-18.1 18.9-18.9-18.1"/><path fill="#B1AEB3" d="m2074 462.9 18.9 18.1 18.1-18.9-18.9-18.1"/><path fill="#D0DA33" d="m2048 486.3 14.8 13.7 14.2-14.3-14.8-13.7"/><path fill="#71BA44" d="m2102 494.3 14.3 13.7 13.7-14.3-14.3-13.7"/><path fill="#D0DA33" d="m2024 508.8 14.8 14.2 14.2-14.8-14.8-14.2"/><path fill="#27B8BE" d="m2073 510.3 14.8 13.7 14.2-14.3-14.8-13.7"/><path fill="#71BA44" d="m2054 527.2 10.2 9.8 9.8-10.2-10.2-9.8"/><path fill="#58B75E" d="m2093 535.2 10.2 9.8 9.8-10.2-10.2-9.8"/><path fill="#3088C8" d="m2177.3 457 31.9-5.9 5.8 31.8-31.8 5.9Z"/><path fill="#1E3871" d="m2135.8 470.3 25.5-4.7 4.7 25.6-25.6 4.6Z"/><path fill="#27B8BE" d="m2185.2 505.9 25.5-4.7 4.7 25.5-25.6 4.7Z"/><path fill="#D0DA33" d="m2150 509.6 19.8-3.6 3.7 19.8-20 3.7Z"/><path fill="#B1AEB3" d="m2188.6 547.4 20-3.7 3.6 19.9-20 3.6Z"/><path fill="#27B8BE" d="m2120 517.7 20-3.7 3.6 20-19.9 3.6Z"/><path fill="#71BA44" d="m2156.2 543.7 20-3.6 3.6 19.8-20 3.7Z"/><path fill="#B1AEB3" d="m2130.8 546.1 14-2.5 2.6 14-14 2.5Z"/><path fill="#58B75E" d="m2157.8 575 14-2.5 2.5 14-14 2.5Z"/><path fill="#29367B" d="m2271.9 561-13.9 29.1 29.2 13.9 13.8-29.1"/><path fill="#27B8BE" d="m2230.3 548-11.3 23 23.7 11 11.3-23"/><path fill="#71BA44" d="m2250 605-11 23.7 23 11.3 11-23.7"/><path fill="#D0DA33" d="m2218.7 588-8.7 18.3 18.3 8.7 8.7-18.3m-8.3 44.3-8.7 18.3 18.3 8.7 8.7-18.3"/><path fill="#3088C8" d="m2189.7 577-8.7 18.3 18.3 8.7 8.7-18.3"/><path fill="#B1AEB3" d="m2203.7 619-8.7 18.3 18.3 8.7 8.7-18.3"/><path fill="#71BA44" d="m2182.1 606-6.1 12.9 12.9 6.1 6.1-12.9"/><path fill="#27B8BE" d="m2181 658.2 6-12.8 12.9 6.1-6.1 12.8Z"/><path fill="#3088C8" d="m2287.4 701-28.4 15.6 15.6 28.4 28.4-15.6"/><path fill="#27B8BE" d="m2262.3 666-23.3 12.4 12.8 22.6 23.2-12.4m-31.4 35.4-22.6 12.4 12.4 22.6 22.6-12.4"/><path fill="#29367B" d="m2229 692-18 9.6 10 17.4 18-9.6"/><path fill="#58B75E" d="m2205.4 740-17.4 10 9.6 18 17.4-10"/><path fill="#1E3871" d="m2212 666-18 9.6 10 17.4 18-9.6"/><path fill="#D0DA33" d="m2199 708-18 10 10 18 18-10"/><path fill="#B1AEB3" d="m2188.3 685-12.3 6.7 6.7 12.3 12.3-6.7"/><path fill="#27B8BE" d="m2169.3 720-12.3 6.7 6.7 12.3 12.3-6.7"/><path fill="#71BA44" d="m2182.5 851.7 4-32.1 32.2 4-4 32Z"/><path fill="#1E3871" d="m2189.5 802.6 3.2-25.7 25.8 3.2-3.2 25.7Z"/><path fill="#27B8BE" d="m2140.6 839 3.2-25.7 25.8 3.2-3.2 25.7Z"/><path fill="#71BA44" d="m2154 799.4 2.6-20 20 2.5-2.4 20Z"/><path fill="#B1AEB3" d="m2106.4 825 2.4-20 20.1 2.4-2.5 20Zm48.9-56.5 2.4-20 20.1 2.5-2.5 20Z"/><path fill="#71BA44" d="m2119.6 795.1 2.5-20 20 2.5-2.4 20Z"/><path fill="#B1AEB3" d="m2131.6 765.1 1.7-14.1 14.1 1.7-1.7 14.1Zm-35.7 16.9 1.7-14 14.1 1.7-1.7 14Z"/><path fill="#D0DA33" d="m2091 882.7-23.9-21.7-22.1 23.3 23.9 21.7"/><path fill="#71BA44" d="m2086 429.7-23.3-21.7-21.7 23.3 23.3 21.7"/><path fill="#27B8BE" d="m2116 847.3-19.2-17.3-17.8 18.7 19.2 17.3"/><path fill="#71BA44" d="m2055 848.3-19.2-17.3-17.8 18.7 19.2 17.3"/><path fill="#3088C8" d="m2081 824-14.5-14-13.5 15 14.5 14"/><path fill="#D0DA33" d="m2027 817-14.5-14-13.5 15 14.5 14m86.5-32-14.5-14-13.5 15 14.5 14"/><path fill="#B1AEB3" d="m2056 800.5-15-13.5-14 14.5 15 13.5"/><path fill="#1E3871" d="m2074 783.6-10.4-9.6-9.6 10.4 10.4 9.6"/><path fill="#B1AEB3" d="m2036 776.6-10.4-9.6-9.6 10.4 10.4 9.6"/><path fill="#3088C8" d="m1914.2 830.4 31.7-6.3 6.4 31.7-31.8 6.4Z"/><path fill="#27B8BE" d="m1963 821.4 25.5-5 5.2 25.4-25.5 5Z"/><path fill="#71BA44" d="m1913.1 786.7 25.5-5.1 5 25.4-25.4 5.1Z"/><path fill="#D0DA33" d="m1955 786.9 19.9-4 4 19.8-20 4Z"/><path fill="#29367B" d="m1984.7 778.3 19.8-4 4 19.8-19.8 4Z"/><path fill="#3088C8" d="m1948.1 752.9 19.9-4 4 19.8-19.9 4Z"/><path fill="#71BA44" d="m1980.5 754.8 14-2.8 2.8 14-14 2.7Z"/><path fill="#B1AEB3" d="m1953.2 726.3 14-2.8 2.7 14-14 2.8Z"/><path fill="#27B8BE" d="m1855.5 753 13.5-29.5-29.5-13.5-13.5 29.5"/><path fill="#D0DA33" d="m1897.4 766 10.6-23.4-23.3-10.6-10.7 23.4"/><path fill="#3088C8" d="m1877.3 709 10.7-24-23.4-11-10.6 24"/><path fill="#27B8BE" d="m1890 717.3 8.4-18.4 18.4 8.4-8.4 18.4Z"/><path fill="#B1AEB3" d="m1932.9 772 8.1-18.6-17.9-8.4-8.1 18.6"/><path fill="#29367B" d="m1879.9 664.2 8.4-18.4 18.4 8.4-8.4 18.4Z"/><path fill="#58B75E" d="m1919.2 727.7 8.3-18.4 18.5 8.4-8.4 18.4Z"/><path fill="#D0DA33" d="m1904.4 685.7 8.4-18.4 18.4 8.5-8.4 18.3Z"/><path fill="#1E3871" d="m1945 707 6-13-13-6-6 13"/><path fill="#71BA44" d="m1939.4 668 5.6-13-12.4-6-5.6 13"/><path fill="#27B8BE" d="m1838 614 28-16-16-28-28 16"/><path fill="#71BA44" d="m1864 648 23-12.7-13-22.3-23 12.7"/><path fill="#1E3871" d="m1881 590 23-12.7-13-22.3-23 12.7"/><path fill="#3088C8" d="m1896.8 622 17.2-10.2-9.8-17.8-17.2 10.2"/><path fill="#71BA44" d="m1919.2 573 17.8-9.8-10.2-17.2-17.8 9.8"/><path fill="#27B8BE" d="m1914.2 647 17.8-9.8-10.2-17.2-17.8 9.8"/><path fill="#D0DA33" d="m1926.8 605 17.2-10.2-9.8-17.8-17.2 10.2"/><path fill="#B1AEB3" d="m1937.3 628 12.7-6.9-7.3-12.1-12.7 6.9"/><path fill="#71BA44" d="m1955.9 593 12.1-6.9-6.9-12.1-12.1 6.9m-44.1-91 3.4-32.2 32.2 3.5-3.4 32.1Z"/><path fill="#B1AEB3" d="m1905.8 533.5 2.8-25.8 25.9 2.7-2.8 25.8Z"/><path fill="#27B8BE" d="m1954 496.3 2.8-25.8 25.9 2.7-2.8 25.8Z"/><path fill="#D0DA33" d="m1947.6 531 2.2-20 20.1 2.1-2.1 20.1Z"/><path fill="#3088C8" d="m1994.9 504.6 2.1-20 20.1 2.1-2.1 20.1Z"/><path fill="#27B8BE" d="m1947 561.9 2-20 20.2 2-2.2 20.2Z"/><path fill="#71BA44" d="m1982.2 534.7 2.1-20.1 20.2 2.2-2.2 20Z"/><path fill="#1E3871" d="m1977.3 559.7 1.5-14.2 14.2 1.5-1.5 14.2Z"/><path fill="#B1AEB3" d="m2012.7 542.1 1.5-14.1 14.2 1.5-1.5 14.1Z"/><path fill="#727A82" d="M2165.9 677.1a77.5 77.5 0 0 0-65.3-3.6c-10.7 4-21.4 11-30.5 18-5.7-34.5-2.9-66.6-1.6-82.3 0-.1.1-.2.2-.1 12.3 7.7 8.8 29.2 6.3 35.3 0 .2.1.2.2.1a37.9 37.9 0 0 0 4.7-42.9c-.6-.9 2.8 1.9 5.7 5.5 10.7 13.6 5.7 28.8 7 28.5a36 36 0 0 0-9.8-44.3c-.7-.6 2 .3 2.8.6 12.4 4.3 18.9 17 18.8 28.5 0 2.5 8.4-21.5-11.9-33.6a28.3 28.3 0 0 0-10.2-3.8c-2-.3 10.8-2.2 19.9 4 5.4 3.6 6.8 8 6.7 6.8-1.6-16-20.5-22.4-32-17.6-1.2.6 4.5-7.9 15.6-7.2 2.1.1 4.1.6 5.7 1.3.1 0 .2 0 .1-.2-8.3-9.5-22.1-9.7-29.4 1.3a56.2 56.2 0 0 1-6.3-17.3c-.2-1.5-.7 7.5-6.3 17.3 0 .1-.1.1-.2 0-7.3-11-21-10.8-29.4-1.3-.1.1 0 .3.1.2 5.6-2.6 16.1-1.8 21.4 5.7 0 .1 0 .3-.1.2-11.8-5-30.4 1.8-32 17.6 0 0 .2.2.3 0 .5-1 1.8-3 4.2-5.2 9.5-8.3 24.3-5.9 22.1-5.6-5.8.7-17.7 5.8-22 17.6-3.7 9.7-.2 22.4 0 19.2 0-10.7 6.2-25 21.4-28.7.1 0 .2.1 0 .2-23.5 20.7-9.2 46.2-9.5 44.2-.7-8.3-1.3-23 12.4-34a37.9 37.9 0 0 0 4.9 43c0 .1.2 0 .1 0-2.5-6.2-6-27.7 6.3-35.4h.2c1.3 15.8 4 47.9-1.6 82.4-19.4-14.8-38.5-24.5-63.1-23.4a73.7 73.7 0 0 0-32.7 9c-.3.2 0 .6.3.5 35.8-11.4 66.7 2.5 95.5 26.4-14.5 12.7-27.7 25.9-35.4 29.9a8 8 0 0 0-8.3-3.1c-6.4 1.4-7.9 9.4-4.4 12.8 12.5 12.5 32.2-12.3 55.7-33 22.6 19.9 43.2 45.5 55.7 33a9 9 0 0 0 1.6-6.9 8 8 0 0 0-14.3-2.8c-7.4-3.7-20.3-16.8-35.4-29.9 29-24.1 59.6-37.6 95.5-26.4.3.1.6-.3.3-.5"/></g></svg>
