<svg width="2682" height="839" xmlns="http://www.w3.org/2000/svg" xmlns:xlink="http://www.w3.org/1999/xlink" overflow="hidden"><defs><clipPath id="clip0"><rect x="1249" y="99" width="2682" height="839"/></clipPath></defs><g clip-path="url(#clip0)" transform="translate(-1249 -99)"><path d="M1249 520.5C1249 289.921 1435.92 103 1666.5 103L3513.5 103C3744.08 103 3931 289.921 3931 520.5L3931 520.5C3931 751.079 3744.08 938 3513.5 938L1666.5 938C1435.92 938 1249 751.079 1249 520.5Z" fill="#ADC659" fill-rule="evenodd" fill-opacity="0.941176"/><path d="M1666.17 103.562C1856.2 76.5487 2086.68 170.497 2389.18 358.699 2666.23 531.062 3011.36 815.057 3544 935.801L1666.17 938C1435.77 938 1249 751.205 1249 520.781 1249 290.358 1435.77 103.562 1666.17 103.562Z" fill="#4DAC5F" fill-rule="evenodd"/><path d="M3003 459 3018 459 3018 555.001 3003 555.001Z" fill="#FFFFFF" fill-rule="evenodd"/><path d="M2967 459 2982 459 2982 555.001 2967 555.001Z" fill="#FFFFFF" fill-rule="evenodd"/><path d="M2633 459 2648 459 2648 555.001 2633 555.001Z" fill="#FFFFFF" fill-rule="evenodd"/><path d="M2597 459 2612 459 2612 555.001 2597 555.001Z" fill="#FFFFFF" fill-rule="evenodd"/><path d="M2457 480 2472 480 2472 555 2457 555Z" fill="#FFFFFF" fill-rule="evenodd"/><path d="M2376 459 2391 459 2391 555.001 2376 555.001Z" fill="#FFFFFF" fill-rule="evenodd"/><path d="M2982 540 2982 555 2868 555 2868 540Z" fill="#FFFFFF" fill-rule="evenodd"/><path d="M2472 540 2472 555 2282 555 2282 540Z" fill="#FFFFFF" fill-rule="evenodd"/><path d="M2925 481 2940 481 2940 555 2925 555Z" fill="#FFFFFF" fill-rule="evenodd"/><path d="M2325 481 2340 481 2340 555 2325 555Z" fill="#FFFFFF" fill-rule="evenodd"/><path d="M2282 481 2297 481 2297 555 2282 555Z" fill="#FFFFFF" fill-rule="evenodd"/><path d="M2853 515 2868 515 2868 584.001 2853 584.001Z" fill="#FFFFFF" fill-rule="evenodd"/><path d="M2689 540 2704 540 2704 584 2689 584Z" fill="#FFFFFF" fill-rule="evenodd"/><path d="M2689 555 2689 540 2745 540 2745 555Z" fill="#FFFFFF" fill-rule="evenodd"/><path d="M2376 495 2376 480 2472 480 2472 495Z" fill="#FFFFFF" fill-rule="evenodd"/><path d="M2244 495 2244 480 2297 480 2297 495Z" fill="#FFFFFF" fill-rule="evenodd"/><path d="M2566 555 2566 540 2612 540 2612 555Z" fill="#FFFFFF" fill-rule="evenodd"/><path d="M2743.5 476C2721.68 476 2704 493.685 2704 515.5 2704 537.316 2721.68 555.001 2743.5 555.001 2765.32 555.001 2783 537.315 2783 515.5 2783 515.473 2783 515.444 2783 515.416 2783 493.647 2765.35 476 2743.58 476 2743.56 476 2743.53 476 2743.5 476ZM2743.5 539.873C2729.99 539.873 2719.04 528.923 2719.04 515.416 2719.04 501.909 2729.99 490.96 2743.5 490.96 2757.01 490.96 2767.96 501.909 2767.96 515.416 2768.1 528.876 2757.3 539.901 2743.84 540.04 2743.73 540.041 2743.61 540.041 2743.5 540.041Z" fill="#FFFFFF" fill-rule="evenodd"/><path d="M2868 515.917C2867.96 494.378 2850.46 476.954 2828.92 477 2807.38 477.046 2789.96 494.544 2790 516.084 2790.04 537.59 2807.5 555.001 2829 555.001L2868 555.001ZM2853.12 540.116 2829 540.116C2815.64 540.162 2804.77 529.366 2804.72 516 2804.68 502.637 2815.47 491.766 2828.83 491.719 2842.2 491.673 2853.07 502.47 2853.12 515.834 2853.12 515.862 2853.12 515.89 2853.12 515.917Z" fill="#FFFFFF" fill-rule="evenodd"/><path d="M2555 515 2570 515 2570 584.001 2555 584.001Z" fill="#FFFFFF" fill-rule="evenodd"/><path d="M2570 515.5C2570 493.685 2552.54 476 2531 476 2509.46 476 2492 493.685 2492 515.5 2492 537.315 2509.46 555.001 2531 555.001L2570 555.001ZM2555.15 539.957 2531.08 539.957C2517.75 540.003 2506.89 529.092 2506.85 515.585 2506.8 502.078 2517.58 491.091 2530.92 491.044 2544.25 490.998 2555.1 501.91 2555.15 515.416 2555.15 515.444 2555.15 515.473 2555.15 515.5Z" fill="#FFFFFF" fill-rule="evenodd"/><path d="M2342 462C2342 466.971 2337.75 471 2332.5 471 2327.25 471 2323 466.971 2323 462 2323 457.029 2327.25 453 2332.5 453 2337.75 453 2342 457.029 2342 462Z" fill="#FFFFFF" fill-rule="evenodd"/><path d="M2243 601.5C2243 606.747 2238.75 611 2233.5 611 2228.25 611 2224 606.747 2224 601.5 2224 596.253 2228.25 592 2233.5 592 2238.75 592 2243 596.253 2243 601.5Z" fill="#FFFFFF" fill-rule="evenodd"/><path d="M2218 601.5C2218 606.747 2213.97 611 2209 611 2204.03 611 2200 606.747 2200 601.5 2200 596.253 2204.03 592 2209 592 2213.97 592 2218 596.253 2218 601.5Z" fill="#FFFFFF" fill-rule="evenodd"/><path d="M2925 573.5C2925 578.747 2920.75 583 2915.5 583 2910.25 583 2906 578.747 2906 573.5 2906 568.253 2910.25 564 2915.5 564 2920.75 564 2925 568.253 2925 573.5Z" fill="#FFFFFF" fill-rule="evenodd"/><path d="M2900 573.5C2900 578.747 2895.97 583 2891 583 2886.03 583 2882 578.747 2882 573.5 2882 568.253 2886.03 564 2891 564 2895.97 564 2900 568.253 2900 573.5Z" fill="#FFFFFF" fill-rule="evenodd"/><path d="M2244.13 545.127C2243.35 558.561 2231.91 568.811 2218.59 568.022 2206.35 567.298 2196.58 557.459 2195.87 545.127L2195.87 509.458 2181 509.458 2181 545.461C2182 567.172 2200.26 583.961 2221.8 582.958 2241.95 582.02 2258.07 565.769 2259 545.461L2259 483 2244.13 483 2244.13 545.127Z" fill="#FFFFFF" fill-rule="evenodd"/><path d="M2377 775C2377 779.971 2372.75 784 2367.5 784 2362.25 784 2358 779.971 2358 775 2358 770.029 2362.25 766 2367.5 766 2372.75 766 2377 770.029 2377 775Z" fill="#FFFFFF" fill-rule="evenodd"/><path d="M2352 775C2352 779.971 2347.97 784 2343 784 2338.03 784 2334 779.971 2334 775 2334 770.029 2338.03 766 2343 766 2347.97 766 2352 770.029 2352 775Z" fill="#FFFFFF" fill-rule="evenodd"/><path d="M3003 633 3018 633 3018 728.001 3003 728.001Z" fill="#FFFFFF" fill-rule="evenodd"/><path d="M2967 633 2982 633 2982 728.001 2967 728.001Z" fill="#FFFFFF" fill-rule="evenodd"/><path d="M2915 655 2930 655 2930 728 2915 728Z" fill="#FFFFFF" fill-rule="evenodd"/><path d="M2866 655 2881 655 2881 728 2866 728Z" fill="#FFFFFF" fill-rule="evenodd"/><path d="M2817 655 2832 655 2832 728 2817 728Z" fill="#FFFFFF" fill-rule="evenodd"/><path d="M2982 713 2982 728 2591 728 2591 713Z" fill="#FFFFFF" fill-rule="evenodd"/><path d="M2448 672 2448 657 2505 657 2505 672Z" fill="#FFFFFF" fill-rule="evenodd"/><path d="M2384 672 2384 657 2432 657 2432 672Z" fill="#FFFFFF" fill-rule="evenodd"/><path d="M2448 728 2448 713 2505 713 2505 728Z" fill="#FFFFFF" fill-rule="evenodd"/><path d="M2505 728 2490 728 2490 656.999 2505 656.999Z" fill="#FFFFFF" fill-rule="evenodd"/><path d="M2432 728 2417 728 2417 656.999 2432 656.999Z" fill="#FFFFFF" fill-rule="evenodd"/><path d="M2747.68 653C2726.32 653 2709 670.5 2709 692.084L2709 715 2723.76 715 2723.76 692.084C2723.76 678.733 2734.47 667.917 2747.68 667.917L2765 667.917 2765 653Z" fill="#FFFFFF" fill-rule="evenodd"/><path d="M2379.13 718.714C2378.35 732.054 2366.91 742.243 2353.58 741.453 2341.35 740.738 2331.58 730.965 2330.87 718.714L2330.87 682.949 2316 682.949 2316 718.714C2317 740.28 2335.26 756.956 2356.8 755.958 2376.95 755.027 2393.07 738.883 2394 718.714L2394 657 2379.13 657 2379.13 718.714Z" fill="#FFFFFF" fill-rule="evenodd"/><path d="M2581 688 2596 688 2596 758.001 2581 758.001Z" fill="#FFFFFF" fill-rule="evenodd"/><path d="M2596 688.917C2595.95 667.38 2578.46 649.954 2556.92 650 2535.38 650.046 2517.95 667.546 2518 689.084 2518.04 710.588 2535.5 728.001 2557 728.001L2596 728.001ZM2581.12 713.116 2557 713.116C2543.64 713.166 2532.76 702.363 2532.72 689 2532.68 675.637 2543.47 664.769 2556.83 664.719 2570.2 664.677 2581.07 675.471 2581.12 688.834 2581.12 688.859 2581.12 688.892 2581.12 688.917Z" fill="#FFFFFF" fill-rule="evenodd"/><path d="M2263 633 2277 633 2277 728.001 2263 728.001Z" fill="#FFFFFF" fill-rule="evenodd"/><path d="M2225 665 2240 665 2240 728 2225 728Z" fill="#FFFFFF" fill-rule="evenodd"/><path d="M2240 662.5C2240 646.208 2226.79 633 2210.5 633 2194.21 633 2181 646.208 2181 662.5 2181 678.791 2194.21 692.001 2210.5 692.001L2240 692.001ZM2225.17 677.168 2210.5 677.168C2202.4 677.168 2195.83 670.605 2195.83 662.5 2195.83 654.396 2202.4 647.833 2210.5 647.833 2218.6 647.833 2225.17 654.396 2225.17 662.5Z" fill="#FFFFFF" fill-rule="evenodd"/><path d="M3366.06 275.631 3366.06 275.631 3382.24 285.179C3383.98 286.076 3387.32 288.127 3387.32 288.127 3393.08 291.294 3398.68 294.759 3404.08 298.509 3419.37 309.468 3427.59 322.477 3422.9 349.777L3422.51 352.661C3420.52 364.838 3417.31 371.887 3401.96 382.846 3367.54 406.504 3331.21 427.275 3293.35 444.945 3279.02 450.777 3262.63 448.318 3250.64 438.536 3237.8 425.719 3236.7 407.903 3236.64 396.176 3236.64 385.537 3237.35 376.95 3237.73 371.182 3220.74 384.514 3202.7 396.452 3183.78 406.878L3178 410.274C3180.06 426.168 3181.92 440.779 3183.52 453.276 3190.59 508.902 3197.65 543.444 3206.71 556.838 3218.31 573.702 3235.35 586.078 3255.01 591.893 3279.03 599.583 3338.5 595.674 3362.33 590.098 3386.35 585.29 3409.48 576.839 3430.93 565.041 3434.23 562.636 3437.89 560.775 3441.78 559.529 3443.84 559.529 3444.61 561.388 3444.22 565.105 3442.15 573.788 3443.8 582.94 3448.78 590.355 3454.66 596.852 3463.14 600.38 3471.9 599.967 3480.98 599.998 3489.89 597.465 3497.59 592.662 3505.44 588.654 3510.27 580.495 3509.99 571.706 3508.19 545.602 3502.03 501.767 3491.49 440.202 3487.06 415.786 3471.9 313.313 3462.59 249.676 3446.68 250.682 3430.84 252.522 3415.13 255.187 3397.8 258.685 3379.9 258.225 3362.78 253.841 3348.28 249.853 3334.53 243.486 3322.13 235 3328.55 243.011 3334.97 251.342 3337.28 253.328 3346.13 261.669 3355.77 269.137 3366.06 275.631ZM3393.48 548.058 3361.37 529.281 3376.78 501.596 3408.9 520.373ZM3450.13 425.783C3451.35 432.191 3448.72 435.268 3442.81 437.318 3381.66 457.954 3320.6 478.825 3259.63 499.93 3254.11 501.852 3248.91 504.736 3243.38 507.3 3246.21 514.734 3257.77 515.759 3253.27 525.436L3247.88 525.436C3245.89 523.129 3243.7 520.95 3241.84 518.515 3236.63 513.01 3236.87 504.331 3242.39 499.127 3243.39 498.185 3244.53 497.396 3245.76 496.79 3249.23 494.729 3252.91 493.032 3256.74 491.727L3445.63 427.257C3447.1 426.702 3448.61 426.232 3450.13 425.847Z" fill="#FFFFFF" fill-rule="evenodd"/><path d="M3155 396.426 3125.06 161C3101.16 169.857 3078.63 183.271 3054.54 194.889 3069.29 208.56 3082.43 220.562 3095.05 232.244 3084.74 250.793 3076.89 268.059 3055.7 272.551 3051.8 273.95 3048.69 276.938 3047.14 280.767 3037.28 306.44 3018.61 314.784 2992.46 309.906 2989.2 309.711 2985.92 309.818 2982.67 310.227 2982.03 326.402 2981.45 341.741 2981 353.615 2991.56 358.622 3001.67 360.547 3007.27 366.452 3018.93 379.289 3030.2 392.126 3041.28 404.962 3043.79 407.851 3055.12 420.559 3067.36 435 3089.85 426.443 3108.68 418.654 3123.83 411.637 3134.39 406.695 3144.76 401.624 3155 396.426ZM3109.92 325.374C3109.34 326.786 3108.51 328.134 3107.8 329.482 3107.02 329.482 3106.38 329.482 3106.06 329.482 3094.98 321.588 3092.02 322.743 3089.51 336.478 3087 350.213 3082.62 383.525 3080.88 387.44 3074.83 370.945 3067.16 354.193 3061.56 339.495 3054.86 343.02 3046.57 341.01 3042.24 334.809 3038.51 328.391 3043.08 323.834 3046.11 319.084 3049.13 314.335 3056.54 319.662 3058.6 321.203 3062.44 324.786 3065.7 328.944 3068.26 333.526 3073.09 342.563 3077.2 351.963 3080.56 361.638 3082.49 350.406 3084.1 339.944 3086.1 329.546 3087.06 324.924 3088.48 320.409 3090.35 316.068 3092.28 311.51 3095.3 307.595 3101.29 310.163 3107.44 312.526 3111.01 318.924 3109.79 325.374Z" fill="#FFFFFF" fill-rule="evenodd"/><path d="M3303.51 370.018C3303.46 379.002 3302.47 387.956 3300.56 396.734 3299.15 403.67 3297.35 410.606 3295.62 416L3296.65 415.615C3333.85 398.915 3369.41 378.768 3402.86 355.44 3410.62 350.238 3414.79 346.835 3414.98 345.229 3415.01 344.995 3415.01 344.757 3414.98 344.523 3411.72 336.404 3405.82 329.619 3398.24 325.257 3387.92 317.743 3376.63 311.45 3365.53 304.964 3365.53 304.964 3360.08 301.816 3357.51 300.147 3353.41 297.642 3345.97 291.862 3345.97 291.862 3334.04 283.129 3311.08 259.11 3305.44 246.394 3305.44 245.752 3307.23 233.55 3308.51 225.266 3299.34 218.844 3290.3 212.422 3281 206 3285.02 229.933 3289.53 257.12 3294.53 287.56 3299.18 314.84 3302.18 342.377 3303.51 370.018Z" fill="#FFFFFF" fill-rule="evenodd"/><path d="M3157.96 421C3142.37 429.942 3126.03 437.51 3109.13 443.619 3108.81 443.619 3098.72 445.423 3079 448.709 3087.54 458.528 3094.99 469.244 3101.23 480.672 3107.53 497.445 3120.7 510.701 3137.4 517.081 3155.76 525.564 3170.76 539.971 3180 558 3174.33 540.132 3170.33 521.773 3168.05 503.161 3167.15 491.562 3162.97 460.373 3157.96 421Z" fill="#FFFFFF" fill-rule="evenodd"/><path d="M3209.57 364.98C3235.42 348.919 3248.34 338.817 3248.34 334.673 3248.34 333.776 3242.71 321.858 3231.32 299.176 3225.33 287.261 3220.05 275.001 3215.52 262.461 3215.91 257.763 3216.62 253.098 3217.63 248.492 3219.16 240.227 3220.44 236.062 3221.47 236.062 3226.96 245.439 3231.89 255.131 3236.25 265.088 3235.42 262.396 3240.73 276.109 3248.09 289.949 3253.71 299.089 3257.08 309.43 3257.94 320.128 3258.03 337.407 3251.87 354.135 3240.6 367.223 3240.6 371.9 3241.05 378.371 3241.05 386.445 3241.05 399.836 3243.35 410.921 3250.2 416.496 3257.18 421.427 3265.93 423.151 3274.26 421.237L3277.59 420.725C3281.8 419.835 3285.96 418.635 3290 417.136 3289.1 405.155 3287.57 386.701 3287.57 385.484 3284.07 349.174 3274.98 288.155 3260.31 202.423 3259.73 199.283 3259.16 196.015 3258.52 192.235 3242.48 182.789 3225.68 174.709 3208.29 168.079 3189.6 161.159 3166.12 153.47 3145 155.264 3149.16 186.981 3163.62 297.894 3174.82 384.779 3186.59 378.82 3198.24 372.092 3209.57 364.98Z" fill="#FFFFFF" fill-rule="evenodd"/><path d="M3713.71 520.589C3722.6 519.481 3724.31 515.243 3718.98 507.551 3708.69 493.34 3693.26 485.909 3680.49 476 3676.62 488.255 3672.94 499.989 3669 512.766 3683.23 517.134 3697.9 522.545 3713.71 520.589Z" fill="#FFFFFF" fill-rule="evenodd"/><path d="M3373.58 686C3422.15 685.457 3470.43 678.489 3517.16 665.271 3550.76 657.581 3583.03 644.993 3612.95 627.908 3622.5 622.125 3631.02 614.72 3638 606.027 3628.13 599.63 3563.81 583.763 3558.11 581.844 3554.33 580.564 3552.66 578.708 3553.88 573.846 3556.25 564.953 3557.02 561.051 3558.43 554.653 3560.03 547.039 3565.99 543.841 3572.14 541.09 3584.95 535.396 3593.22 530.085 3606.16 524.455 3608.78 523.368 3611.35 522.152 3613.65 521.065 3602.38 487.604 3613.65 460.285 3633.71 435.078 3631.66 428.865 3631.47 422.207 3633.13 415.884L3633.13 415.884C3633.13 415.884 3608.53 379.865 3596.23 362.206 3595.58 361.275 3595.37 360.107 3595.65 359.008 3603.4 341.477 3590.72 334.632 3579.5 325.803 3562.27 312.368 3543.88 299.316 3530.43 282.554 3520.56 270.206 3513.26 263.36 3497.37 268.095 3493.81 268.635 3490.18 268.031 3486.99 266.367 3485.72 265.762 3484.55 264.963 3483.53 264 3492.43 318.701 3508.64 425.609 3514.73 460.733 3520.45 489.652 3524.09 518.944 3525.62 548.383 3526.3 568.332 3520.99 588.028 3510.37 604.94 3500.6 621.432 3482.66 631.366 3463.47 630.915L3463.47 630.915C3444.81 630.915 3434.39 617.351 3432.21 590.225 3418.41 599.609 3396.52 608.48 3366.54 616.84 3362.18 618.055 3357.95 619.207 3353.72 620.23 3325.92 627.204 3263 630.595 3235.71 619.527 3222.35 614.729 3210.19 607.088 3200.08 597.135 3195.76 592.129 3192.04 586.631 3189 580.756 3191.05 587.154 3192.72 593.552 3194.19 599.95 3200.21 627.268 3208.41 654.587 3236.86 666.807 3238.46 667.51 3240.19 668.15 3241.92 668.726L3243.78 669.366C3251.58 671.733 3259.06 675.085 3266.01 679.347 3273.51 680.498 3281 681.394 3288.56 682.162 3316.82 684.593 3345.27 685.488 3373.58 686ZM3537.03 328.682C3555.73 347.875 3560.41 370.716 3555.73 395.923 3553.49 407.759 3549.33 419.147 3547.09 430.919 3545.87 437.832 3546 444.913 3547.47 451.776 3548.24 455.103 3553.36 457.534 3556.5 460.413 3558.81 457.53 3560.95 454.519 3562.91 451.392 3564.06 448.407 3564.94 445.323 3565.54 442.18 3568.91 452.297 3567.74 463.374 3562.33 472.569 3557.14 480.886 3546.38 478.967 3541.96 468.858 3536.77 457.47 3538.82 445.89 3541.25 434.374 3543.95 421.578 3547.15 409.167 3549.9 396.563 3553.18 380.509 3548.56 363.859 3537.48 351.778 3529.34 341.669 3529.27 341.734 3537.03 328.682Z" fill="#FFFFFF" fill-rule="evenodd"/><path d="M3818.21 484.319C3802.05 485.407 3785.5 483.808 3769.59 486.493 3755.48 489.153 3740.92 488.297 3727.26 484 3735.73 503.444 3731.82 526.031 3717.32 541.537 3708.28 551.126 3696.99 550.87 3686.15 548.505 3672.62 545.692 3659.66 540.642 3646.39 536.742 3644.21 535.838 3641.83 535.637 3639.52 536.166 3622.59 543.646 3605.79 551.446 3587.57 559.82 3596.23 561.93 3603.73 563.529 3611.11 565.574 3619.7 568.003 3628.3 570.497 3636.76 573.693 3647.6 577.493 3653.89 588.727 3651.45 599.905 3648.12 626.499 3630.99 642.673 3609.51 655.459 3576.56 674.318 3541.01 688.255 3504 696.822L3532.93 716.001 3546.91 694.201 3575.45 713.379C3576.54 711.334 3577.18 709.863 3576.92 709.608 3594.69 689.534 3619.7 677.642 3648.37 671.25 3709.82 657.569 3764.33 628.609 3818.85 599.201 3826.1 595.302 3834.82 587.566 3836.17 580.022 3840.66 556.501 3843.22 532.668 3843.99 508.741 3844.25 494.485 3836.75 483.041 3818.21 484.319Z" fill="#FFFFFF" fill-rule="evenodd"/><path d="M3646.84 504.969C3647.47 504.805 3648.04 504.545 3648.6 504.197 3668.29 495.457 3671.69 478.042 3656.65 462.49 3653.95 459.267 3650.3 457.015 3646.21 456.064 3636.59 454.843 3620.17 471.423 3620.05 481.77 3619.98 482.475 3619.98 483.184 3620.05 483.89 3621.81 492.245 3639.23 505.739 3646.84 504.969Z" fill="#FFFFFF" fill-rule="evenodd"/><path d="M3517.1 743.831 3486.74 723.604 3502.91 698 3487.57 701.585C3423.69 715.468 3357.95 718.752 3293 711.314 3311.29 750.488 3332.6 765.018 3356.66 804 3360.19 798.623 3382.97 804 3383.16 801.888L3425.07 764.89C3457.93 762.202 3490.72 759.385 3523.64 756.953 3527.17 756.838 3530.64 757.868 3533.52 759.898 3544.82 768.155 3551.68 763.738 3554.96 752.152 3556.1 748.158 3557.45 744.228 3559 740.374L3531.08 721.748Z" fill="#FFFFFF" fill-rule="evenodd"/><path d="M1550.75 440.666 1515.03 455.111C1481.93 476.679 1463.37 515.57 1471.15 555.113 1481.53 607.836 1534.79 641.751 1590.12 630.865L1596.72 629.566 1596.79 629.927 1500.31 648.91C1444.98 659.797 1391.72 625.882 1381.35 573.158 1370.97 520.435 1407.42 468.868 1462.75 457.981Z" fill="#ADC659" fill-rule="evenodd"/><path d="M1664.33 684.459 1645.35 692.078C1627.74 703.423 1617.83 723.82 1621.9 744.521 1627.33 772.12 1655.56 789.806 1684.96 784.022L1688.46 783.332 1688.5 783.521 1637.25 793.606C1607.85 799.39 1579.62 781.704 1574.19 754.104 1568.76 726.505 1588.19 699.441 1617.58 693.658Z" fill="#ADC659" fill-rule="evenodd"/><path d="M1665.71 253.473 1646.72 261.091C1629.11 272.436 1619.2 292.834 1623.27 313.534 1628.71 341.134 1656.94 358.819 1686.33 353.036L1689.84 352.346 1689.88 352.535 1638.62 362.62C1609.23 368.403 1581 350.718 1575.56 323.118 1570.13 295.518 1589.56 268.455 1618.96 262.671Z" fill="#ADC659" fill-rule="evenodd"/><path d="M1709.93 125.6C1743.57 127.463 1776.38 133.468 1807.72 143.193 1845.32 154.862 1880.81 171.888 1913.05 193.538L1925.61 203.47 1615.98 264.394C1588.97 269.709 1571.38 295.918 1576.69 322.932 1582.01 349.946 1608.22 367.536 1635.23 362.221L2010.83 288.317 2038.38 329.984 2045.83 345.321 1463.36 460.437 1463.36 460.439 1460.73 460.958C1407.72 471.435 1373.05 521.975 1383.3 573.843 1393.56 625.711 1444.84 659.264 1497.85 648.787L1574 633.738 1573.99 633.739 2085.53 532.64 2083.83 559.981 2075.16 604.171 1616.92 694.335C1589.91 699.65 1572.32 725.859 1577.63 752.873 1582.95 779.887 1609.16 797.477 1636.17 792.162L1649.17 789.604 1652.32 789.452 1654.95 788.932 2030.59 714.693 2019.84 733.844C1962.28 819.949 1870.91 884.399 1760.06 906.307 1541.77 949.449 1330.59 811.282 1288.38 597.703 1246.16 384.122 1388.91 176.007 1607.2 132.865 1641.84 126.019 1676.3 123.738 1709.93 125.6Z" fill="#FFFFFF" fill-rule="evenodd"/></g></svg>