<svg xmlns="http://www.w3.org/2000/svg" xml:space="preserve" overflow="hidden" viewBox="0 0 4376 1286"><defs><linearGradient id="b" x1="3736.52" x2="3736.52" y1="1777.96" y2="492.965" gradientUnits="userSpaceOnUse" spreadMethod="reflect"><stop offset="0" stop-color="#FC3F04"/><stop offset=".1" stop-color="#FC3F04"/><stop offset="1" stop-color="#FFC000"/></linearGradient></defs><g transform="translate(-2 -492)"><path fill="#FFD966" d="M3561.05 1507.15c0-45.18 36.59-81.81 81.74-81.81 45.14 0 81.73 36.63 81.73 81.81 0 45.19-36.59 81.81-81.73 81.81-45.15 0-81.74-36.62-81.74-81.81Zm-4.81-688.185c0-42.51 34.14-77 76.13-77 42.25.265 76.3 34.714 76.13 77 0 42.51-34.14 77-76.13 77-42.25-.265-76.3-34.714-76.13-77Zm-315.72 386.605c0-89.51 72.12-162.02 161.07-162.02 88.95 0 161.07 72.51 161.07 162.02s-72.12 162.02-161.07 162.02c-89.16-.26-161.24-72.78-161.07-162.02Z"/><path fill="url(#b)" d="M3737.33 492.965c132.85 0 256.4 40.427 358.76 109.73l46.85 35.133-504.93 98.982c-40.95 7.975-67.67 47.62-59.69 88.554 7.97 40.934 47.62 67.653 88.57 59.678l596.39-117.11 6.1 8.343c17.33 25.667 32.89 52.619 46.37 80.693l2.41 6.096-19.26 1.925-926.92 182.881c-84.37 16.61-139.29 98.46-122.67 182.81 16.63 84.34 98.47 139.25 182.84 122.64l926.76-182.88 18.61-5.62-1.76 36.26c-2.09 20.12-5.09 40.14-8.99 60l-4.81 19.41-723.95 147.27c-42.76 8.68-70.38 50.37-61.7 93.12 8.68 42.75 50.38 70.37 93.14 61.69l621.59-126.42-44.12 69.95c-121.24 158.87-309.72 252.02-509.59 251.86-354.63-.17-641.98-287.76-641.81-642.34v-.16c0-354.854 287.21-642.495 641.81-642.495Z"/><path fill="#2E8062" d="M1970.34 741.473c10.84 7.225 21.68 12.643 30.72 18.062 3.61 1.806 9.03 5.419 9.03 5.419 12.65 7.224 23.49 14.449 30.72 19.868 28.9 21.674 45.16 46.961 36.13 97.535v5.418c-3.61 23.481-10.84 36.124-39.75 57.799-48.78 34.317-133.69 84.896-207.77 119.206-27.1 12.65-65.04 3.62-81.3-12.64-23.49-25.29-27.1-59.605-27.1-81.28 0-19.868 1.8-36.124 1.8-48.767-16.26 14.45-50.58 36.124-102.98 68.636-3.61 1.806-7.23 3.612-10.84 7.225 3.61 30.706 7.23 57.796 10.84 83.086 12.65 106.56 27.1 173.39 45.17 198.68 21.68 32.51 54.2 55.99 92.14 66.83 46.98 14.45 158.99 7.23 205.97-3.61 56.01-12.65 99.37-28.9 131.89-48.77 10.84-7.22 18.07-10.84 19.87-10.84 3.62 0 5.42 3.62 5.42 10.84-3.61 21.67 0 37.93 9.04 48.77 10.84 12.64 25.29 18.06 45.16 18.06 18.07 0 34.33-5.42 48.79-14.45 16.26-10.84 25.29-23.48 23.48-39.74-3.61-50.57-14.45-133.65-36.13-252.86-9.04-46.97-37.94-243.841-56.01-364.857-10.84 0-65.04 5.419-90.34 10.837-32.52 7.225-68.65 5.419-101.17-1.806-28.91-7.225-54.2-19.868-77.69-36.124 12.65 14.45 25.29 30.705 28.91 34.318 16.26 18.062 34.32 32.512 56 45.155Zm52.4 523.797-61.43-36.12 28.91-52.38 61.43 36.12-28.91 52.38Zm108.4-234.8c1.81 12.64-3.61 18.06-14.45 21.67-117.44 39.74-233.07 79.47-350.51 119.21-10.84 3.61-19.87 9.03-30.71 14.45 5.42 14.45 27.1 16.25 19.87 34.32h-10.84c-3.61-3.62-7.22-9.03-10.84-12.65-10.84-14.45-9.03-32.51 7.23-41.54 7.23-3.61 14.45-7.22 21.68-9.03 121.05-41.54 240.29-83.09 361.35-122.82 1.8-3.61 3.61-3.61 7.22-3.61Z"/><path fill="#FD7D0E" d="M1564 975.055c-19.92-164.548-47.08-374.302-57.95-452.055-45.27 16.274-88.73 43.397-135.81 65.096 28.98 25.315 52.52 48.822 77.87 72.329-19.92 36.164-34.41 68.712-76.06 77.753-7.24 1.808-14.48 9.041-16.29 16.274-18.11 48.822-54.33 65.096-105.03 56.055-5.43-1.809-10.87 0-18.11 0-1.81 30.74-1.81 59.671-3.62 83.178 19.92 9.041 39.84 12.658 50.7 25.315 21.73 23.507 43.46 48.822 65.19 74.137 5.43 5.425 27.16 30.743 50.7 57.863 43.46-16.27 79.68-30.74 108.65-45.21 21.73-12.653 39.84-21.694 59.76-30.735Zm-85.11-137.425c-1.81 3.617-1.81 5.425-3.62 7.233h-3.62c-21.73-14.466-27.16-12.658-30.78 12.658-5.44 25.315-12.68 90.411-16.3 97.643-10.87-30.739-25.35-63.287-36.22-92.219-16.3 7.233-30.78 1.808-36.21-9.041-7.25-12.657 1.81-21.699 7.24-30.74 5.43-9.041 19.92 1.809 23.54 3.617 7.24 5.424 14.49 16.274 18.11 23.507 10.86 16.274 14.48 34.356 23.54 54.246 3.62-21.698 7.24-41.589 10.86-61.479 1.81-9.041 3.62-18.082 7.25-25.315 3.62-9.042 9.05-16.274 21.73-10.849 9.05 7.232 18.1 21.698 14.48 30.739Z"/><path fill="#2C297B" d="M1849.3 922.449c0 16.264-1.8 34.336-5.41 50.601-1.81 12.65-5.41 27.11-9.02 37.95h1.8c68.56-28.915 155.16-79.515 203.88-115.659 14.43-10.843 23.45-16.264 23.45-19.879v-1.807c-3.61-14.458-16.24-25.301-32.48-37.951-19.84-14.457-41.49-27.107-63.14-39.758 0 0-10.83-5.421-16.24-9.035-7.22-5.422-21.65-16.265-21.65-16.265-23.45-16.265-66.76-63.251-77.58-86.745 0-1.807 3.61-25.3 5.41-39.757-18.04-12.651-34.28-25.301-52.32-36.144 7.22 45.18 16.24 97.588 25.26 155.417 12.63 79.516 18.04 131.924 18.04 159.032Z"/><path fill="#FFD323" d="M1570.51 1022c-39.68 21.68-70.34 36.14-93.79 43.37 0 0-19.84 3.61-57.72 9.03 19.84 25.3 37.88 48.79 43.29 61.43 14.43 36.14 36.07 54.21 68.54 68.67 37.88 18.07 63.13 45.17 81.17 79.5-9.02-28.91-18.04-63.24-23.45-104.8-1.8-21.68-9.02-81.31-18.04-157.2Z"/><path fill="#FB2D21" d="M1670.19 914.968c50.73-30.714 74.28-50.588 74.28-57.814 0-1.807-10.87-23.488-32.61-68.655-12.68-23.488-30.8-66.849-30.8-70.462 0-3.613 1.82-12.647 3.63-27.101 3.62-16.26 5.43-23.487 7.25-23.487 1.81 0 25.36 46.975 28.98 56.008-1.81-5.42 9.06 21.681 23.55 46.975 12.69 23.487 18.12 43.361 18.12 57.814 0 34.327-10.87 63.235-32.61 90.335v37.941c0 25.294 3.62 46.978 18.12 57.818 10.87 9.03 28.98 10.84 47.1 9.03l7.25-1.81c7.24-1.8 16.3-3.61 23.55-7.22-1.81-23.49-5.44-57.818-5.44-61.431-7.24-70.461-23.55-186.091-52.53-350.501-1.82-5.421-1.82-12.647-3.63-19.874-30.8-18.067-63.41-34.328-96.02-46.974-36.23-12.648-81.52-28.908-121.38-23.488 7.25 61.428 36.23 272.813 57.97 440.837l65.22-37.941Z"/><path fill="#98C543" d="M2636.86 1211.28c18.06-1.81 19.87-10.86 10.84-23.53-19.86-27.16-50.56-41.65-74.03-59.75-7.23 23.54-14.45 45.26-21.67 68.8 27.08 7.24 54.17 18.1 84.86 14.48Z"/><path fill="#4CA84D" d="M1984.39 1529.88c93.97 1.8 186.13-16.28 276.49-39.78 65.06-16.28 126.5-37.98 184.33-72.33 18.07-10.85 30.72-21.7 48.79-41.59-18.07-12.66-142.76-43.4-153.61-47.01-7.22-1.81-10.84-5.43-7.22-14.47 3.61-16.27 5.42-25.31 9.03-37.97 3.62-14.47 14.46-19.89 27.11-25.32 25.3-10.84 39.75-21.69 65.05-32.54 5.43-1.81 9.04-5.43 14.46-7.24-21.68-65.09 0-117.53 37.95-164.54-5.42-12.66-3.61-25.31-1.81-37.97 0 0-46.98-68.713-70.47-103.069-1.81-1.808-1.81-5.424-1.81-5.424 14.46-34.356-9.04-47.013-30.72-63.287-32.53-25.314-68.67-50.629-93.97-83.176-18.07-23.507-32.53-36.164-63.25-27.123-5.42 1.808-12.65 0-19.88-3.616-3.61-1.808-5.42-3.617-7.23-5.425 16.27 104.875 48.79 311.01 59.64 377.91 14.45 77.75 19.87 133.81 21.68 168.16 0 41.59-9.03 77.75-28.91 108.49-21.69 34.36-52.41 50.63-90.36 50.63-36.14 0-56.02-25.31-59.63-77.75-27.11 18.08-68.67 34.36-126.5 50.63-9.04 1.81-16.27 5.42-25.3 7.23-54.22 12.66-173.49 19.89-225.89-1.81-25.3-10.84-52.41-25.31-68.67-43.39-7.23-9.04-14.46-19.89-21.69-30.74 3.61 12.66 7.23 25.31 10.84 37.97 10.85 52.44 27.11 104.88 81.32 128.38 3.62 1.81 7.23 1.81 9.04 3.62 1.81 0 1.81 0 3.61 1.81 14.46 5.42 28.92 10.85 43.37 19.89 14.46 1.8 28.92 3.61 43.38 5.42 52.4 3.62 106.62 5.43 160.83 5.43Zm314.44-687.115c36.14 36.164 45.18 81.368 36.14 130.189-3.61 23.507-12.65 45.206-16.26 66.906-1.81 12.65-1.81 27.12 0 39.78 1.81 7.23 10.84 10.85 18.07 16.27 3.61-5.42 9.04-10.85 12.65-18.08 1.81-3.62 1.81-9.04 5.42-18.08 5.42 23.5 3.62 41.59-5.42 57.86-9.04 16.27-30.72 12.66-39.76-7.23-10.84-21.7-5.42-43.4-1.8-66.91 5.42-23.5 10.84-48.818 16.26-72.324 7.23-32.547-3.61-61.478-23.49-86.793-16.27-16.273-16.27-16.273-1.81-41.588Z"/><path fill="#98C543" d="M2837.43 1140.81c-30.7 1.81-63.21-1.81-93.92 3.62-30.7 5.43-57.79 3.62-81.27-5.43 16.25 36.19 10.83 79.63-19.87 112.2-18.06 18.1-39.73 18.1-59.6 12.67-25.29-5.43-50.57-14.48-75.86-23.53-3.61-1.81-9.03-3.62-12.64-1.81-32.51 14.48-65.02 28.96-99.33 45.25 16.25 3.62 30.7 7.24 45.15 10.86 16.25 5.42 32.51 9.04 48.76 16.28 21.68 9.05 30.71 27.15 28.9 50.68-7.22 50.67-39.73 83.24-79.47 106.77-63.21 38-131.84 61.53-202.28 79.63l55.99 38 27.09-41.62 54.18 36.19 3.62-7.24c34.31-38 81.27-61.53 137.26-74.2 117.39-27.14 222.15-81.43 326.9-139.34 14.45-7.24 30.71-21.72 32.51-36.2 9.03-45.24 12.64-92.29 14.45-137.54-1.81-25.33-14.45-47.05-50.57-45.24ZM2508.49 1180.91c1.8 0 1.8-1.81 3.61-1.81 37.87-16.24 45.08-50.52 16.23-79.39-5.41-5.42-12.63-10.83-19.84-12.63-18.03-1.81-50.49 28.87-50.49 50.52v3.61c1.8 16.24 36.07 41.5 50.49 39.7ZM2259.46 1639.46l-57.86-39.72 30.74-48.74c-9.04 1.81-19.89 5.42-28.93 7.22-119.31 27.08-251.29 32.5-372.41 18.05 34.35 75.83 75.93 102.91 121.12 178.73 7.24-10.83 50.62 0 50.62-3.61l79.55-70.41c63.27-5.41 126.55-10.83 189.82-14.44 5.42 0 14.46 1.8 18.08 5.42 21.69 16.24 34.35 7.22 41.58-14.45 1.81-7.22 5.42-16.24 7.23-23.47l-54.23-36.1-25.31 41.52Z"/><path fill="#2E8062" d="M276.846 1625.13c7.989 0 14.466 6.46 14.466 14.43 0 7.98-6.477 14.44-14.466 14.44-7.989 0-14.465-6.46-14.465-14.44 0-7.97 6.476-14.43 14.465-14.43Zm-36.164 0c7.989 0 14.466 6.46 14.466 14.43 0 7.98-6.477 14.44-14.466 14.44-7.989 0-14.465-6.46-14.465-14.44 0-7.97 6.476-14.43 14.465-14.43Zm314.627-147.96c-19.89 0-36.164 16.24-36.164 36.08 0 19.85 16.274 36.09 36.164 36.09h36.164v-36.09l-2.853-14.01c-5.51-12.94-18.393-22.07-33.311-22.07Zm-97.538-11.86h21.698v.48h.57v21.66h-.57v61.54h.38v21.65h-83.177v-21.65h61.099v-61.54h-60.909v-21.66h60.909Zm-106.653 0h21.698v104.66h-21.698v-82.56h-34.491v69.15c0 32.48-25.315 57.74-57.863 57.74-32.547 0-57.862-25.26-57.862-57.74v-52.33H222.6v52.33c0 19.85 16.274 36.09 36.164 36.09s36.164-16.24 36.164-36.09v-90.22h6.066v-.58h50.124Zm864.182-35.06h21.7V1571h-21.7Zm-52.44 0h21.7v117.95h.31v21.65h-.31v1.15h-21.7v-1.15h-56.05v1.15h-21.7v-1.15h-50.63v1.15h-21.7v-1.15h-48.818v1.15h-21.698v-1.15H614.98v1.15h-1.809v43.3h-21.698V1571h-34.356c-32.547 0-57.862-25.27-57.862-57.75 0-32.47 25.315-57.74 57.862-57.74 32.548 0 57.863 25.27 57.863 57.74v34.95h166.354v-29.53c0-32.48 25.315-57.74 57.862-57.74h25.315v21.65h-25.315c-19.89 0-36.164 16.24-36.164 36.09v29.53h139.232v-85.47h21.698v85.47h48.818v-85.47h21.7v85.47h50.63v-85.47h21.7v85.47h56.05ZM79.7527 1370.7c7.9889 0 14.4653 6.47 14.4653 14.44s-6.4764 14.44-14.4653 14.44c-7.9893 0-14.4657-6.47-14.4657-14.44s6.4764-14.44 14.4657-14.44Zm-36.1641 0c7.9889 0 14.4653 6.47 14.4653 14.44s-6.4764 14.44-14.4653 14.44c-7.9893 0-14.4657-6.47-14.4657-14.44s6.4764-14.44 14.4657-14.44Zm1041.5214-41.5c7.99 0 14.47 6.47 14.47 14.44s-6.48 14.43-14.47 14.43-14.46-6.46-14.46-14.43 6.47-14.44 14.46-14.44Zm-34.35 0c7.98 0 14.46 6.47 14.46 14.44s-6.48 14.43-14.46 14.43c-7.99 0-14.47-6.46-14.47-14.43s6.48-14.44 14.47-14.44Zm-739.557-101.61v66.09h97.642v-66.09Zm647.335-6.65c-19.89 0-36.164 16.24-36.164 36.09 0 19.84 16.274 36.08 36.164 36.08h36.163v-36.08h.001c0-19.85-16.274-36.09-36.164-36.09Zm-126.574 0c-19.891 0-36.165 16.24-36.165 36.09 0 19.84 16.274 36.08 36.165 36.08 19.89 0 36.164-16.24 36.164-36.08 0-19.85-16.274-36.09-36.164-36.09Zm-314.627 0c-19.89 0-36.164 16.24-36.164 36.09 0 19.84 16.274 36.08 36.164 36.08h36.164v-36.08c0-19.85-16.274-36.09-36.164-36.09Zm314.627-19.85c32.547 0 57.862 25.26 57.862 57.74 0 24.36-14.24 44.66-35.09 53.29l-20.562 4.02v.12h-.64l-1.57.31-1.571-.31h-56.292v41.81h-21.698v-64.96h21.698v1.5h13.2l-8.736-13.05c-2.882-6.94-4.464-14.61-4.464-22.73 0-32.48 25.315-57.74 57.863-57.74Zm383.336-27.07h21.7v140.75h-21.7Zm-52.44 0h21.7v140.75h-21.7v-.06h-41.58v1.86h-21.7v-1.86h-83.18v45.17h-21.699v-45.11h-36.163c-32.548 0-57.863-25.26-57.863-57.74 0-32.48 25.315-57.75 57.863-57.75 32.547 0 57.862 25.27 57.862 57.75v36.03h83.18v-84.75h21.7v84.75h41.58Zm-493.634 0h21.698v140.75h-21.698Zm-52.438 0h21.698v140.75h-.039v1.05h-63.248v44.06h-21.698v-45.11h-34.356c-32.547 0-57.862-25.26-57.862-57.74 0-32.48 25.315-57.75 57.862-57.75 32.548 0 57.863 25.27 57.863 57.75v37.14h39.78Zm-327.284 0h21.699v31.92h97.642v-1.24h21.698v1.24h1.017v21.65h-1.017v66.09h.532v21.65H237.066v1.24h-21.698v-1.24h-41.589v1.24h-21.698v-1.24h-1.277v-21.65h1.277v-65.91h-34.356v74.37c0 32.48-25.3149 57.74-57.8625 57.74-32.5475 0-57.86243-25.26-57.86243-57.74v-52.33H23.6985v52.33c0 19.85 16.2739 36.09 36.164 36.09 19.8902 0 36.1641-16.24 36.1641-36.09v-74.37h-.6078v-21.65h77.7522v2.19h.608v85.37h41.589v-85.37h21.698v85.37h52.438v-66.09h-.792v-21.65h.792Zm-63.287-9.02c7.989 0 14.465 6.46 14.465 14.44 0 7.97-6.476 14.43-14.465 14.43s-14.466-6.46-14.466-14.43c0-7.98 6.477-14.44 14.466-14.44Z"/><path fill="#4EAF57" d="M45.5464 1451.69c-12.701 0-21.7731 9.04-21.7731 21.69 0 12.66 9.0721 21.7 21.7731 21.7h21.7732v-21.7c0-12.65-9.0721-21.69-21.7732-21.69ZM152.598 1430H178v21.69h-25.402c-12.701 0-21.773 9.04-21.773 21.69h-.078v97.57h-21.773v-97.62h.089l3.475-16.64c6.72-15.5 22.369-26.69 40.06-26.69Zm-107.0516 0c23.5877 0 43.5464 19.88 43.5464 43.38V1571H67.3196v-54.23H45.5464c-23.5876 0-43.54633-19.89-43.54633-43.39S21.9588 1430 45.5464 1430Z"/></g></svg>
