<svg xmlns="http://www.w3.org/2000/svg" overflow="hidden" viewBox="0 0 1280 720"><defs><clipPath id="a"><path d="M0 0h1280v720H0z"/></clipPath><clipPath id="d"><path d="M-7-30h269v269H-7z"/></clipPath><clipPath id="f"><path d="M0 0h257v231H0z"/></clipPath><clipPath id="g"><path d="M-26-7h327v429H-26z"/></clipPath><clipPath id="i"><path d="M0 0h295v417H0z"/></clipPath><clipPath id="j"><path d="M-7-7h242v246H-7z"/></clipPath><clipPath id="l"><path d="M0 0h204v211H0z"/></clipPath><filter id="e" width="120%" height="120%" x="-10%" y="-10%" filterUnits="userSpaceOnUse" primitiveUnits="userSpaceOnUse"><feComponentTransfer color-interpolation-filters="sRGB"><feFuncR tableValues="0 0" type="discrete"/><feFuncG tableValues="0 0" type="discrete"/><feFuncB tableValues="0 0" type="discrete"/><feFuncA slope=".1" type="linear"/></feComponentTransfer><feGaussianBlur stdDeviation="7.55556 7.55556"/></filter><filter id="h" width="120%" height="120%" x="-10%" y="-10%" filterUnits="userSpaceOnUse" primitiveUnits="userSpaceOnUse"><feComponentTransfer color-interpolation-filters="sRGB"><feFuncR tableValues="0 0" type="discrete"/><feFuncG tableValues="0 0" type="discrete"/><feFuncB tableValues="0 0" type="discrete"/><feFuncA slope=".1" type="linear"/></feComponentTransfer><feGaussianBlur stdDeviation="7.55556 7.55556"/></filter><filter id="k" width="120%" height="120%" x="-10%" y="-10%" filterUnits="userSpaceOnUse" primitiveUnits="userSpaceOnUse"><feComponentTransfer color-interpolation-filters="sRGB"><feFuncR tableValues="0 0" type="discrete"/><feFuncG tableValues="0 0" type="discrete"/><feFuncB tableValues="0 0" type="discrete"/><feFuncA slope=".1" type="linear"/></feComponentTransfer><feGaussianBlur stdDeviation="7.55556 7.55556"/></filter><linearGradient id="b" x1="646.5" x2="596.6" y1="519.9" y2="267.8" gradientUnits="userSpaceOnUse" spreadMethod="reflect"><stop offset="0" stop-color="#FC3F04"/><stop offset=".1" stop-color="#FC3F04"/><stop offset="1" stop-color="#FFC000"/></linearGradient><linearGradient id="c" x1="529.9" x2="485.4" y1="379" y2="450.4" gradientUnits="userSpaceOnUse" spreadMethod="reflect"><stop offset="0" stop-color="#FFF" stop-opacity="0"/><stop offset="0" stop-color="#FFF" stop-opacity="0"/><stop offset="1" stop-color="#FFF" stop-opacity=".4"/></linearGradient></defs><g clip-path="url(#a)"><path fill="#F2F2F2" d="M0 0h1280v720H0z"/><path fill="#FFD966" fill-rule="evenodd" d="M574 369c-17 4-28 20-25 37 3 15 16 26 31 26l6-1-23 5c-18 3-34-8-38-25-2-13 3-25 14-32l11-5 24-5Zm138 93-99 20h-5c-5-1-10-3-12-7l-3-6v-7c2-6 7-11 13-12l29-6-8 4c-2 3-4 5-5 9v6l3 6c4 5 10 8 17 7l70-14Z"/><path fill="url(#b)" fill-rule="evenodd" d="M598 267a133 133 0 0 1 100 20l4 4-92 18h-3l-6 4c-3 2-4 5-5 9v6l3 7c2 3 4 5 7 6l3 1 121-24 9 14 2 5-189 37h-1c-18 4-29 20-26 37 4 17 21 28 38 25l25-5 166-33v9l-3 14-114 23-30 6c-7 1-12 6-13 12v7l2 6c4 5 10 8 17 6h1l122-24-3 6a132 132 0 0 1-238-44c-14-70 32-137 103-152Z"/><path fill="url(#c)" fill-rule="evenodd" d="m497 358 38 24v1c-8 7-11 18-9 28 2 9 7 16 14 20l2 2-23 38-4-5a131 131 0 0 1-21-98Z"/><path fill="#FFD966" fill-rule="evenodd" d="m710 322-99 20h-5c-5-1-9-3-12-7l-2-6v-7c1-6 6-11 13-12l29-6-8 5c-3 2-4 5-5 8v6l3 6c3 5 10 8 16 7l70-14Z"/><path fill="#FD873D" fill-rule="evenodd" d="M200-3A163 163 0 1 1-30 228 163 163 0 0 1 200-3Z"/><path fill="#FFAF01" fill-rule="evenodd" d="M1179-232A163 163 0 1 1 948-1a163 163 0 0 1 231-231Z"/><path fill="#FFF" fill-rule="evenodd" d="m75 181 12 7v-15Zm0-15 12 7v-14Zm0-15 12 8v-15Zm0-14 12 7v-14Zm12 36 13 7v-14Zm0-14 13 7v-15Zm0-15 13 7v-14Zm13 37 13 7v-15Zm0-15 13 7v-14Zm0-15 13 8v-15Zm0-14 13 7v-14Zm13 36 12 7v-14Zm0-14 12 7v-15Zm0-15 12 7v-14Z"/><path fill="#FD741E" fill-rule="evenodd" d="m811 108 13 7v-14Zm0-14 13 7V86Zm0-15 13 7V72Zm0-14 13 7V57Zm13 35 12 8V93Zm0-14 12 7V79Zm0-14 12 7V64Zm12 36 13 7v-14Zm0-14 13 7V86Zm0-15 13 7V72Zm0-14 13 7V57Zm13 35 12 8V93Zm0-14 12 7V79Zm0-14 12 7V64Z"/><path fill="#FEA301" fill-rule="evenodd" d="m116 668-13-7v14Zm0 15-13-8v15Zm0 14-13-7v14Zm0 15-13-8v15Zm-13-37-13-7v14Zm0 14-13-7v15Zm0 15-13-7v14Zm-13-36-12-7v14Zm0 15-12-8v15Zm0 14-12-7v14Zm0 15-12-8v15Zm-12-37-13-7v14Zm0 14-13-7v15Zm0 15-13-7v14Z"/><path fill="#3B3838" fill-rule="evenodd" d="m640 678 13 7v-14Zm0-15 13 8v-15Zm0-14 13 7v-14Zm0-14 13 7v-15Zm13 36 12 7v-14Zm0-14 12 7v-15Zm0-15 12 7v-14Zm12 36 13 7v-14Zm0-15 13 8v-15Zm0-14 13 7v-14Zm0-14 13 7v-15Zm13 36 13 7v-14Zm0-14 13 7v-15Zm0-15 13 7v-14Z"/><path fill="#FE8F08" fill-rule="evenodd" d="m914 768 247 171V597Z"/><path fill="#FD5B03" fill-rule="evenodd" d="m1161 518 189 130V388Z"/><g clip-path="url(#d)" filter="url(#e)" transform="translate(164 -23)"><g clip-path="url(#f)"><path fill="#F2F2F2" fill-rule="evenodd" d="M233 63 24-81v288Z"/></g></g><path fill="#F2F2F2" fill-rule="evenodd" d="M379 40 190-90v260Z"/><g clip-path="url(#g)" filter="url(#h)" transform="translate(-23 144)"><g clip-path="url(#i)"><path fill="#F2F2F2" fill-rule="evenodd" d="M271 209 4 24v369Z"/></g></g><path fill="#F2F2F2" fill-rule="evenodd" d="M227 353-14 186v333Z"/><g clip-path="url(#j)" filter="url(#k)" transform="translate(1099 532)"><g clip-path="url(#l)"><path fill="#F2F2F2" fill-rule="evenodd" d="M333 77A181 181 0 1 1 77 333 181 181 0 0 1 333 77Z"/></g></g><path fill="#F2F2F2" fill-rule="evenodd" d="M1412 621a163 163 0 1 1-231 231 163 163 0 0 1 231-231Z"/><path fill="#3B3838" fill-rule="evenodd" d="m1220 300-13-7v14Zm0 15-13-8v15Zm0 14-13-7v14Zm0 15-13-8v15Zm-13-37-13-7v15Zm0 15-13-7v14Zm0 14-13-7v14Zm-13-36-12-7v14Zm0 15-12-8v15Zm0 14-12-7v14Zm0 15-12-8v15Zm-12-37-13-7v15Zm0 15-13-7v14Zm0 14-13-7v14Z"/><path fill="#A3A3A3" fill-rule="evenodd" d="m70 383-2 1-2-1 2-2 2 2Zm25 0a2 2 0 1 1-3-1 2 2 0 0 1 3 1Zm26 0-2 1-2-1 2-2 2 2Zm25 0a1 1 0 1 1-3 0 1 1 0 0 1 3 0Zm26 0-2 1-2-1 2-2 2 2Zm-90 19-1 2-2-2 2-2 1 2Zm26 0-2 2-2-2 2-2 2 2Zm25 0-1 2-2-2 2-2 1 2Zm26 0-1 2-2-2 2-2 1 2Zm-89 20-2 1-2-1 2-2 2 2Zm25 0a2 2 0 1 1-3-1 2 2 0 0 1 3 1Zm26 0-2 1-2-1 2-2 2 2Zm25 0a1 1 0 1 1-3 0 1 1 0 0 1 3 0Zm26 0-2 1-2-1 2-2 2 2Zm-90 19-1 2-2-2 2-2 1 2Zm26 0-2 2-2-2 2-2 2 2Zm25 0-1 2-2-2 2-2 1 2Zm26 0-1 2-2-2 2-2 1 2Zm-89 20-2 1-2-1 2-2 2 2Zm25 0a2 2 0 1 1-3-1 2 2 0 0 1 3 1Zm26 0-2 1-2-1 2-2 2 2Zm25 0a1 1 0 1 1-3 0 1 1 0 0 1 3 0Zm26 0-2 1-2-1 2-2 2 2Zm-90 19-1 2-2-2 2-2 1 2Zm26 0a2 2 0 1 1-4 0 2 2 0 0 1 4 0Zm25 0-1 2-2-2 2-2 1 2Zm26 0-1 2-2-2 2-2 1 2Z"/><path fill="#AFABAB" fill-rule="evenodd" d="m538 12-1 1-2-1 2-2 1 2Zm25 0-1 1-2-1 2-2 1 2Zm26 0-1 1-2-1 2-2 1 2Zm25 0-1 1-2-1 2-2 1 2Zm26 0-1 1-2-1 2-2 1 2Zm-89 19a2 2 0 1 1-4 0 2 2 0 0 1 4 0Zm25 0-1 2-2-2 2-2 1 2Zm26 0a2 2 0 1 1-4 0 2 2 0 0 1 4 0Zm25 0-1 2-2-2 2-2 1 2Zm-89 20-1 1-2-1 2-2 1 2Zm25 0-1 1-2-1 2-2 1 2Zm26 0-1 1-2-1 2-2 1 2Zm25 0-1 1-2-1 2-2 1 2Zm26 0-1 1-2-1 2-2 1 2Zm-89 19a2 2 0 1 1-4 0 2 2 0 0 1 4 0Zm25 0-1 2-2-2 2-2 1 2Zm26 0a2 2 0 1 1-4 0 2 2 0 0 1 4 0Zm25 0-1 2-2-2 2-2 1 2Zm620 76-1 2-2-2 2-2 1 2Zm25 0-1 2-2-2 2-2 1 2Zm-12 20-2 1-2-1 2-2 2 2Zm-13 19-1 1-2-1 2-2 1 2Zm25 0-1 1-2-1 2-2 1 2Zm-12 20-2 1-2-1 2-2 2 2Zm-13 19-1 1-2-1 2-2 1 2Zm25 0-1 1-2-1 2-2 1 2Zm-12 20-2 1-2-1 2-2 2 2ZM977 625l-2 2-2-2 2-2 2 2Zm25 0-1 2-2-2 2-2 1 2Zm26 0a2 2 0 1 1-4 0 2 2 0 0 1 4 0Zm25 0-1 2-2-2 2-2 1 2Zm26 0-2 2-2-2 2-2 2 2Zm-90 20-1 1-2-1 2-2 1 2Zm26 0a1 1 0 1 1-3 0 1 1 0 0 1 3 0Zm25 0a1 1 0 1 1-3 0 1 1 0 0 1 3 0Zm26 0-1 1-2-1 2-2 1 2Zm-89 19-2 2-2-2 2-2 2 2Zm25 0-1 2-2-2 2-2 1 2Zm26 0a2 2 0 1 1-4 0 2 2 0 0 1 4 0Zm25 0-1 2-2-2 2-2 1 2Zm26 0-2 2-2-2 2-2 2 2Zm-90 20-1 1-2-1 2-2 1 2Zm26 0a1 1 0 1 1-3 0 1 1 0 0 1 3 0Zm25 0a1 1 0 1 1-3 0 1 1 0 0 1 3 0Zm26 0-1 1-2-1 2-2 1 2Zm-89 19-2 2-2-2 2-2 2 2Zm25 0-1 2-2-2 2-2 1 2Zm26 0a2 2 0 1 1-4 0 2 2 0 0 1 4 0Zm25 0-1 2-2-2 2-2 1 2Zm26 0-2 2-2-2 2-2 2 2Z"/><path fill="none" stroke="#3B3838" stroke-miterlimit="8" stroke-width=".4" d="M358 153h-90V63h90v90Zm-77-14h63V76h-63v63Z"/><path fill="none" stroke="#989898" stroke-miterlimit="8" stroke-width=".4" d="m458 750-58-32 32-57 58 31-32 58Zm-44-36 40 22 22-40-40-22-22 40Z"/><path fill="none" stroke="#A3A3A3" stroke-miterlimit="8" stroke-width=".4" d="M1326 620h-90v-91h90v91Zm-77-14h63v-64h-63v64Z"/><path fill="none" stroke="#989898" stroke-miterlimit="8" stroke-width=".4" d="M992 37h-91v-92h91v92Zm-78-15h64v-63h-64v63Z"/><path fill="none" stroke="#989898" stroke-miterlimit="8" stroke-width=".3" d="M434 198c12-6 18 7 30 1 13-5 8-18 21-23 12-6 18 7 30 1 13-5 8-18 21-23 12-6 18 7 31 1"/><path fill="none" stroke="#FFF" stroke-miterlimit="8" stroke-width=".3" d="M-54 95c13-6 19 7 32 1 12-6 7-18 20-24 13-5 18 7 31 2 13-6 8-18 20-24 13-6 19 7 32 1"/><path fill="none" stroke="#989898" stroke-miterlimit="8" stroke-width=".3" d="M994 179c12-6 18 7 31 1 12-6 7-18 20-24 13-5 18 7 31 2 13-6 8-18 20-24 13-6 19 7 32 1M924 501c12-6 18 7 30 1 13-6 8-18 21-24 12-5 18 7 30 2 13-6 8-18 21-24 12-6 18 7 31 1"/><path fill="none" stroke="#000" stroke-miterlimit="8" stroke-width=".3" d="M744 14c12-6 18 7 30 1 13-5 8-18 21-23 12-6 18 7 30 1 13-5 8-18 21-23 12-6 18 7 31 1"/><path fill="none" stroke="#989898" stroke-miterlimit="8" stroke-width=".3" d="M207 645c12-6 18 7 31 1 12-6 7-18 20-24 13-5 18 7 31 2 13-6 8-18 20-24 13-6 19 7 32 1"/><path fill="#FD5B03" fill-rule="evenodd" d="m286 279 9 5v-9Zm32 0-8-4v9Zm-15 16 4-8h-9Zm0-31-5 8h9Z"/><path fill="#FFB000" fill-rule="evenodd" d="m858 593 12 7v-14Zm46 0-12-7v14Zm-23 23 7-12h-14Zm0-46-7 12h14Z"/><path fill="#FFC248" fill-rule="evenodd" d="m1190 73 8 4v-9Zm32 0-9-5v9Zm-16 15 5-8h-10Zm0-31-5 8h10Z"/><path fill-rule="evenodd" d="m-8 576 8 4v-9Zm32 0-9-5v9ZM8 591l4-8H3Zm0-31-5 8h9ZM1264 32l8 5V27Zm16 16 5-9h-10Zm0-32-5 8h10Zm-840-5 8 5V7Zm31 0-8-4v9Zm-16 16 5-8h-9Zm0-31-4 8h9Z"/></g></svg>