<svg width="69" height="68" xmlns="http://www.w3.org/2000/svg" xmlns:xlink="http://www.w3.org/1999/xlink" overflow="hidden"><defs><clipPath id="clip0"><rect x="56" y="555" width="69" height="68"/></clipPath></defs><g clip-path="url(#clip0)" transform="translate(-56 -555)"><path d="M77.4474 582.968C72.9994 583.848 70.0909 588.088 70.951 592.44 71.7036 596.248 75.0922 598.88 78.9075 598.889L80.5615 598.729 74.3936 599.948C69.9456 600.827 65.6425 598.011 64.7824 593.659 64.1373 590.395 65.6121 587.194 68.2663 585.426L71.2785 584.188 77.4474 582.968Z" fill="#F2F2F2" fill-rule="evenodd"/><path d="M112.916 606.699 87.3544 611.75 86.0822 611.812C84.8402 611.687 83.723 611.025 83.0333 610.023L82.3938 608.505 82.4075 606.857C82.7501 605.273 84.025 603.956 85.7468 603.616L93.2622 602.131 91.0754 603.285C90.4987 603.854 90.0943 604.58 89.923 605.372L89.9092 607.019 90.5488 608.538C91.4684 609.873 93.1481 610.605 94.87 610.265L112.916 606.699Z" fill="#F2F2F2" fill-rule="evenodd"/><path d="M83.6741 556.813C89.4873 555.664 95.2404 556.048 100.499 557.68 103.654 558.659 106.632 560.088 109.337 561.904L110.432 562.77 86.7141 567.457 86.7142 567.457 85.8894 567.62 84.2097 568.545C83.6386 569.144 83.2423 569.909 83.0804 570.749L83.0871 572.5 83.747 574.122C84.2163 574.838 84.8741 575.395 85.6299 575.731L86.4587 575.96 117.518 569.821 119.853 573.353 120.478 574.64 71.6055 584.299 71.6052 584.299 71.3847 584.343C66.9367 585.222 64.0281 589.462 64.8882 593.814 65.7483 598.166 70.0514 600.982 74.4995 600.103L80.8888 598.84 80.8881 598.84 123.809 590.357 123.667 592.651 122.922 596.445 93.5889 602.242 93.589 602.242 85.8528 603.771C84.1309 604.111 82.856 605.428 82.5134 607.012L82.4996 608.66 83.1392 610.178C84.0588 611.513 85.7385 612.246 87.4604 611.905L87.6811 611.862 119.199 605.633 118.297 607.239C113.468 614.464 105.801 619.872 96.5001 621.71 78.1841 625.33 60.4648 613.737 56.923 595.816 53.3812 577.896 65.3581 560.433 83.6741 556.813Z" fill="#FFFFFF" fill-rule="evenodd"/><path d="M112.516 570.852 86.9546 575.904 85.6826 575.965C84.4406 575.84 83.3233 575.178 82.6336 574.177L81.9941 572.658 82.0079 571.01C82.3504 569.426 83.6253 568.11 85.3471 567.769L92.8625 566.284 90.6758 567.438C90.099 568.008 89.6947 568.733 89.5234 569.525L89.5096 571.173 90.1491 572.691C91.0687 574.026 92.7484 574.759 94.4703 574.418L112.516 570.852Z" fill="#F2F2F2" fill-rule="evenodd"/></g></svg>