<svg xmlns="http://www.w3.org/2000/svg" x="0" y="0" viewBox="0 0 2367 801">
  <style>
    .st1{fill-rule:evenodd;clip-rule:evenodd;fill:#ffd966}
  </style>
  <path d="M308.4 623.6h10.7c2 0 3 1 3 2.9v12.6c0 1.9-1 2.8-3 2.8h-10.7c-1.9 0-2.9-.9-2.9-2.8v-12.6c0-1.9 1-2.9 2.9-2.9zm-28.9 0h10.7c2 0 3 1 3 2.9v12.6c0 1.9-1 2.8-3 2.8h-10.7c-1.9 0-2.9-.9-2.9-2.8v-12.6c0-1.9 1-2.9 2.9-2.9zm500.2-1.4h10.7c1.8 0 2.8 1 2.8 2.9v12.6c0 1.9-.9 2.8-2.8 2.8h-10.7c-2 0-3-.9-3-2.8v-12.6c0-1.9 1-2.9 3-2.9zm-272.1 0h10.7c1.8 0 2.8 1 2.8 2.9v12.6c0 1.9-.9 2.8-2.8 2.8h-10.7c-2 0-3-.9-3-2.8v-12.6c0-1.9 1-2.9 3-2.9zm528.6-31.3c-8.7 8.1-19.1 12.2-31.2 12.2h-29.9v1.2c0 8.1 2.9 15.1 8.8 20.9 5.9 5.8 12.9 8.7 21.1 8.7 8.3 0 15.3-2.9 21.2-8.7 5.9-5.8 8.8-12.8 8.8-20.9v-9c0-1.6.4-3 1.2-4.4zm-31.2-79c-8.2 0-15.2 2.9-21.1 8.6-5.9 5.8-8.8 12.8-8.8 21v45.8h29.9c8.3 0 15.3-2.9 21.2-8.6 5.9-5.8 8.8-12.8 8.8-21v-16.1c0-8.2-2.9-15.2-8.8-21-5.8-5.8-12.9-8.7-21.2-8.7zm-329.3-.1c-8.3 0-15.3 2.9-21.2 8.7-5.9 5.8-8.8 12.7-8.8 20.9v16.2c0 8.1 2.9 15.1 8.8 20.9 5.9 5.8 12.9 8.7 21.2 8.7h29.9v-45.9c0-8.2-2.9-15.2-8.8-20.9-5.9-5.7-13-8.6-21.1-8.6zm-272.1 0c-8.3 0-15.3 2.9-21.2 8.7-5.9 5.8-8.8 12.7-8.8 20.9v16.2c0 8.1 2.9 15.1 8.8 20.9 5.9 5.8 12.9 8.7 21.2 8.7h29.9v-45.9c0-8.2-2.9-15.2-8.8-20.9-5.9-5.7-12.9-8.6-21.1-8.6zm855.6-11.5h10.3c1.9 0 2.9 1 2.9 2.8v108.2c0 11.5-3.2 20.5-9.7 26.9-6.6 6.5-15.6 9.8-27.2 9.8h-10.8c-1.9 0-2.9-1-2.9-2.9v-10c0-2 1-2.9 2.9-2.9h10.8c7.3 0 12.6-1.6 16-4.9 3.4-3.4 5.1-8.7 5.1-15.9V503.2c-.2-1.9.7-2.9 2.6-2.9zm-675.1 0h10.3c1.9 0 2.9 1 2.9 2.8v108.2c0 11.5-3.2 20.5-9.7 26.9-6.6 6.5-15.6 9.8-27.2 9.8h-10.8c-1.9 0-2.9-1-2.9-2.9v-10c0-2 1-2.9 2.9-2.9h10.8c7.3 0 12.6-1.6 16-4.9 3.4-3.4 5.1-8.7 5.1-15.9V503.2c-.2-1.9.8-2.9 2.6-2.9zm-430.9-.1h10.2c2 0 3 1 3 2.9v75.3c0 2.5.6 4.3 1.8 5.5 2.2 2.2 6.5 3.4 12.9 3.4h37.6c3.8 0 6.6-.9 8.5-2.8 1.9-1.8 2.9-4.8 2.9-8.9v-72.4c0-2 1-2.9 2.9-2.9h10c2 0 3 1 3 2.9v75.3c0 2.5.6 4.3 1.8 5.5 2.3 2.2 6.6 3.4 12.9 3.4h38.1c4-.1 6.8-1 8.6-2.8 1.9-1.9 2.9-4.8 2.9-8.8v-72.6c0-1.9 1-2.8 3-2.8h10.1c2 0 3 .9 3 2.8v72.6c0 8.4-2.5 15.1-7.6 20.1-5.1 4.9-11.8 7.4-20 7.4h-35.5c-10.6 0-18.5-2.6-23.8-7.9-.1-.1-.2-.3-.3-.4-.1.1-.2.3-.4.5-.1.2-.2.3-.3.4-4.9 4.9-11.7 7.4-20.1 7.4h-34.5c-10.6 0-18.5-2.6-23.8-7.9l-.2-.2c-.1-.1-.1-.1-.1-.2-.4.4-.6.7-.8.9-4.9 4.9-11.5 7.4-20 7.4H62.8c-13 0-24.1-4.5-33.2-13.6-9.2-9.2-13.8-20.2-13.8-33 0-8.9 2.4-17.2 7.1-24.9 4.8-7.8 11.2-13.7 19.2-17.7l4.3-2.3c.5-.2 1-.3 1.4-.3.3 0 .6.1 1 .2.8.2 1.3.7 1.7 1.4l4.6 8.9c.3.6.4 1.1.4 1.6 0 .9-.6 1.7-1.7 2.3l-4.6 2.3c-5.3 2.7-9.5 6.6-12.7 11.8-3.2 5.2-4.8 10.8-4.8 16.7 0 8.6 3 15.8 9.1 21.8s13.4 9 21.9 9h75.8c4 0 7-.9 8.9-2.8 2-1.9 3-4.9 3-8.9v-72.4c.1-2.2 1-3.2 2.8-3.2zm522.5-4.2c12.6 0 23.3 4.5 32.3 13.4 9 8.8 13.5 19.5 13.5 32.1v45.9H779.7c4-.1 7-1 8.9-2.7 1.9-2 2.9-4.9 2.9-8.9v-72.6c0-1.9 1-2.8 2.9-2.8h10.2c1.9 0 2.9.9 2.9 2.8v72.5c0 8.4-2.5 15.2-7.5 20.2-4.9 4.9-11.7 7.4-20.1 7.4h-58.2v2.5c0 11.4-4.2 21.4-12.7 29.8-8.4 8.4-18.4 12.6-30 12.6h-22.6c-1.8 0-2.8-.9-2.8-2.8v-10.1c0-1.9.9-2.8 2.8-2.8H679c7.3 0 13.6-2.6 18.9-7.9 5.3-5.3 7.9-11.6 7.9-18.7v-2.5h-29.9c-12.6 0-23.4-4.4-32.4-13.3S630 570.5 630 557.9v-16.2c0-12.6 4.5-23.3 13.5-32.1 8.7-9.1 19.5-13.6 32.2-13.6zm-272.1 0c12.6 0 23.3 4.5 32.3 13.4 9 8.8 13.5 19.5 13.5 32.1v45.9H507.6c4-.1 7-1 8.9-2.7 1.9-2 2.9-4.9 2.9-8.9v-72.6c0-1.9 1-2.8 2.9-2.8h10.2c1.9 0 2.9.9 2.9 2.8v72.5c0 8.4-2.5 15.2-7.5 20.2-4.9 4.9-11.7 7.4-20.1 7.4h-58.2v2.5c0 11.4-4.2 21.4-12.7 29.8-8.4 8.4-18.4 12.6-30 12.6h-22.6c-1.8 0-2.8-.9-2.8-2.8v-10.1c0-1.9.9-2.8 2.8-2.8h22.6c7.3 0 13.6-2.6 18.9-7.9 5.3-5.3 7.9-11.6 7.9-18.7v-2.5h-29.9c-12.6 0-23.5-4.4-32.4-13.3-9-8.9-13.5-19.6-13.5-32.2v-16.2c0-12.6 4.5-23.3 13.5-32.1 8.7-9.1 19.5-13.6 32.2-13.6zm944.2-.1c10.8 0 20.1 3.8 27.8 11.5 7.6 7.6 11.4 16.7 11.4 27.5v34.4c0 12.6-4.1 21.8-12.2 27.5-6.1 4.3-14.4 6.4-24.8 6.4h-46.5c-1.9 0-2.9-1-2.9-2.8v-10.1c0-1.9 1-2.8 2.9-2.8h46.5c8.3 0 14-1.6 17.2-4.7 2.6-2.7 3.9-7.1 3.9-13.4V535c0-6.4-2.3-11.8-6.8-16.3-4.6-4.5-10.1-6.7-16.5-6.7-9.2 0-16 1.6-20.6 4.7l-4.1 2.9c-.5.4-1.1.5-1.8.5h-.3c-.8-.1-1.4-.5-1.9-1.2l-5.9-8.2c-.4-.6-.5-1.1-.5-1.7v-.4c.2-.8.6-1.5 1.2-1.9l4.2-2.9c7.1-5.3 17-7.9 29.7-7.9zm-1237.2-21h10.7c1.9 0 2.9 1 2.9 2.9v12.6c0 1.9-1 2.8-2.9 2.8h-10.7c-2 0-3-.9-3-2.8v-12.6c.1-2 1.1-2.9 3-2.9zm-29 0h10.7c2 0 3 1 3 2.9v12.6c0 1.9-1 2.8-3 2.8H81.6c-1.8 0-2.8-.9-2.8-2.8v-12.6c0-2 1-2.9 2.8-2.9zm151-18.7h10.7c2 0 3 .9 3 2.8v12.7c0 1.9-1 2.8-3 2.8h-10.7c-1.9 0-2.9-.9-2.9-2.8V459c0-1.8 1-2.8 2.9-2.8zm1191.9-8.7h10.3c1.8 0 2.8.9 2.8 2.8v149.9c0 1.9-.9 2.8-2.8 2.8h-10.3c-1.9 0-2.9-1-2.9-2.8V450.3c.1-1.8 1-2.8 2.9-2.8zm-530.4 0h10.1c2 0 3 1 3 2.9v125.2c0 4 .9 6.9 2.8 8.8 2 1.9 4.8 2.8 8.6 2.8h40.8v-45.8c0-12.6 4.5-23.3 13.5-32.2 9-8.8 19.7-13.3 32.3-13.3 12.6 0 23.5 4.4 32.4 13.3 8.9 8.9 13.3 19.6 13.3 32.2v16.1c0 11.9-4.1 22.2-12.2 30.9 1.3-.8 2.7-1.3 4.2-1.3h141.3c4.1 0 7.1-.9 8.9-2.8 2-1.9 3-4.8 3-8.8v-20.4c0-9.8-3-17.7-8.9-23.8-5.9-6-13.7-9-23.3-9H1115c-2.2 0-4.1-.8-5.6-2.3-1.6-1.5-2.3-3.4-2.3-5.6 0-18.4 4.7-32.9 14.2-43.2 9.5-10.4 22.7-15.6 39.5-15.6h18c1.9 0 2.9.9 2.9 2.8v10.1c0 1.9-1 2.8-2.9 2.8h-18c-22.6 0-35.1 11.7-37.4 35h40.5c13.9 0 25.4 4.6 34.5 13.8 9 9.2 13.6 20.8 13.6 34.9v20.4c0 8.4-2.5 15.1-7.5 20.1-5 4.9-11.7 7.4-20.1 7.4h-133.5v1.2c0 12.5-4.5 23.2-13.3 32.1-9 8.9-19.8 13.4-32.4 13.4-12.6 0-23.3-4.5-32.3-13.4-9-8.9-13.5-19.6-13.5-32.1v-1.2h-40.6c-8.4 0-15.1-2.5-20-7.4-5-4.9-7.5-11.6-7.5-20.1V450.5c0-2 .9-3 2.8-3zm105-89.4h12.2c2.2 0 3.3 1.1 3.3 3.4v14.4c0 2.2-1.1 3.2-3.3 3.2h-12.2c-2.3 0-3.4-1.1-3.4-3.2v-14.4c.1-2.3 1.2-3.4 3.4-3.4zM1384 231.9c-9.4 0-17.5 3.3-24.1 10-6.7 6.6-10 14.6-10 23.9v52.4h34.1c9.4 0 17.5-3.3 24.2-10 6.7-6.7 10-14.6 10-23.9v-18.5c0-9.4-3.3-17.4-10-23.9-6.7-6.6-14.7-10-24.2-10zm-365.1-18c15.8 0 29.3 5.5 40.6 16.6 11.2 11.1 16.8 24.6 16.8 40.3v37.4c0 2.9.7 5 2.2 6.4 2.4 2.4 7.3 3.6 14.5 3.7h144.6c4.4 0 7.6-1.1 9.7-3.2 2.3-2.2 3.4-5.6 3.4-10.2v-82.7c0-2.2 1-3.4 3.1-3.4h11.6c2.2 0 3.3 1.1 3.3 3.4v86.1c0 2.8.7 4.9 2.2 6.3 2.5 2.6 7.4 3.8 14.7 3.8h46.2V266c0-14.4 5.1-26.6 15.3-36.7 10.3-10.2 22.6-15.3 37-15.3 14.5 0 26.8 5.1 37.1 15.3 10.3 10.1 15.4 22.3 15.4 36.7v18.5c0 14.3-5.1 26.5-15.4 36.7-10.3 10.2-22.6 15.3-37.1 15.3h-95.4c-12.2 0-21.3-3-27.4-9 0-.1 0-.2-.1-.2-.1-.1-.1-.2-.1-.2l-1.1 1.1h.1c-5.7 5.6-13.3 8.4-22.9 8.4h-141c-12.1 0-21.2-3-27.4-9.1-.6-.6-1.5-1.7-2.7-3.2-7.4 8.3-18.1 12.4-32.1 12.4H83.6v9.4c0 13.1-3.8 23.4-11.3 30.8-7.5 7.5-17.8 11.2-31 11.2H28.9c-2.2 0-3.3-1.1-3.3-3.2v-11.5c0-2.2 1.1-3.2 3.3-3.2h12.5c8.3 0 14.4-1.9 18.2-5.8 3.9-3.8 5.8-9.9 5.8-18.2v-124c0-2.2 1.1-3.4 3.4-3.4h11.6c2.2 0 3.3 1.1 3.3 3.4v96.1H1034c8.3-.1 14.4-2 18.3-5.7 3.9-3.9 5.8-10 5.8-18.2v-23.7c0-10.7-3.8-19.9-11.5-27.4-7.7-7.6-16.9-11.4-27.7-11.4-17.6 0-30.8 6.1-39.7 18.4l-3.4 4.7c-.7 1-1.6 1.6-2.5 1.6-.6 0-1.3-.3-2.1-.8l-9.4-6.6c-.7-.6-1.2-1.3-1.3-2.2v-.6c0-.6.2-1.3.6-1.9l3.4-4.7c12.3-17.3 30.5-25.9 54.4-25.9zm251.1-45.4h12.1c2.3 0 3.4 1.1 3.4 3.2v14.6c0 2.2-1.1 3.2-3.4 3.2H1270c-2.2 0-3.3-1.1-3.3-3.2v-14.6c.1-2.2 1.2-3.2 3.3-3.2zm-33 0h12.4c2.2 0 3.3 1.1 3.3 3.2v14.6c0 2.2-1.1 3.2-3.3 3.2H1237c-2.3 0-3.4-1.1-3.4-3.2v-14.6c0-2.2 1.1-3.2 3.4-3.2z" fill-rule="evenodd" clip-rule="evenodd"/>
  <path class="st1" d="M1857.5 630.8c0-27.5 22.3-49.8 49.9-49.8s49.9 22.3 49.9 49.8-22.3 49.8-49.9 49.8-49.9-22.2-49.9-49.8zM1854.1 202.8c0-26.6 21.6-48.1 48.2-48.1s48.2 21.5 48.2 48.1-21.6 48.1-48.2 48.1-48.2-21.5-48.2-48.1zM1657.9 443.5c0-55.1 44.7-99.7 99.8-99.7s99.8 44.6 99.8 99.7-44.7 99.7-99.8 99.7-99.8-44.7-99.8-99.7z"/>
  <linearGradient id="SVGID_1_" gradientUnits="userSpaceOnUse" x1="1965.9723" y1="0" x2="1965.9723" y2="801" gradientTransform="matrix(1 0 0 -1 0 801)">
    <stop offset="0" stop-color="#fc3f04"/>
    <stop offset=".15" stop-color="#fc3f04"/>
    <stop offset="1" stop-color="#ffc000"/>
  </linearGradient>
  <path d="M1966.4 0c83.2 0 160.4 25.2 224.5 68.4l29.3 21.9-315.8 61.7c-25.6 5-42.2 29.7-37.2 55.2 5 25.5 29.8 42.1 55.3 37.1l373-72.9 3.9 5.1c10.8 16 20.5 32.8 29 50.3l1.5 3.9-12.1 1.1L1738 345.9c-52.7 10.4-87 61.4-76.6 114 10.4 52.6 61.6 86.8 114.3 76.4l579.8-114.1 11.6-3.5-1.1 22.7c-1.3 12.6-3.2 25.1-5.6 37.3l-3 12.1-452.9 91.8c-26.7 5.4-44 31.4-38.5 58.1 5.4 26.7 31.5 43.9 58.2 38.5l388.8-78.9-27.6 43.5c-73.4 95.5-188.9 157-318.8 157-221.7 0-401.5-179.3-401.5-400.5-.2-221 179.6-400.3 401.3-400.3z" fill="url(#SVGID_1_)"/>
</svg>
