<svg width="1507" height="304" xmlns="http://www.w3.org/2000/svg" xmlns:xlink="http://www.w3.org/1999/xlink" overflow="hidden"><defs><clipPath id="clip0"><rect x="0" y="0" width="1507" height="304"/></clipPath><clipPath id="clip1"><rect x="603" y="4" width="301" height="296"/></clipPath><clipPath id="clip2"><rect x="603" y="4" width="301" height="296"/></clipPath><clipPath id="clip3"><rect x="-157" y="4" width="1061" height="296"/></clipPath><linearGradient x1="954.808" y1="309.765" x2="873.579" y2="26.4924" gradientUnits="userSpaceOnUse" spreadMethod="pad" id="fill4"><stop offset="0" stop-color="#FC3F04"/><stop offset="0.17" stop-color="#FC4304"/><stop offset="0.36" stop-color="#FC5003"/><stop offset="0.55" stop-color="#FD6603"/><stop offset="0.74" stop-color="#FE8402"/><stop offset="0.94" stop-color="#FFAA00"/><stop offset="1" stop-color="#FFB800"/></linearGradient><linearGradient x1="817.501" y1="250.492" x2="788.432" y2="142.049" gradientUnits="userSpaceOnUse" spreadMethod="pad" id="fill5"><stop offset="0" stop-color="#FFFFFF" stop-opacity="0.5"/><stop offset="0.74" stop-color="#FF9FC3" stop-opacity="0.14"/><stop offset="1" stop-color="#FF7BAC" stop-opacity="0"/></linearGradient></defs><g clip-path="url(#clip0)"><rect x="0" y="0" width="1507" height="303.6" fill="#FFFFFF"/><g clip-path="url(#clip1)"><g clip-path="url(#clip2)"><g clip-path="url(#clip3)"><path d="M909.658 233.947 1057.94 203.022C1059.91 194.915 1061.18 186.656 1061.76 178.334L876.207 213.743C853.374 221.526 830.181 207.043 826.418 187.611 822.655 168.18 838.839 145.863 863.013 144.677L1049.7 109.01C1046.63 101.989 1043.04 95.2169 1038.92 88.7546L926.769 112.206C916.672 114.715 906.436 108.62 903.833 98.5475 902.215 88.3206 909.096 78.686 919.296 76.9001L1012.07 57.5204C951.035 3.73429 857.951 9.61323 804.162 70.6512 750.379 131.689 756.254 224.773 817.295 278.559 878.331 332.345 971.415 326.467 1025.2 265.428 1031.24 258.576 1036.63 251.178 1041.29 243.328L916.873 269.099C907.287 271.913 897.231 266.424 894.417 256.837 891.603 247.25 897.092 237.196 906.679 234.382 907.606 234.111 908.549 233.914 909.503 233.793Z" fill="url(#fill4)" transform="matrix(1.00589 0 0 1 -166.475 -15.6233)"/><path d="M928.47 93.5995C926.852 83.3727 933.733 73.738 943.933 71.9521L944.294 71.9521C944.294 71.9521 944.294 71.9521 944.294 71.9521L919.347 77.1062C909.147 78.8921 902.267 88.5268 903.885 98.7537 906.488 108.826 916.724 114.921 926.821 112.412L949.087 107.773C939.603 109.014 930.707 102.9 928.47 93.5995Z" fill="#FFD966" transform="matrix(1.00589 0 0 1 -166.475 -15.6233)"/><path d="M918.677 250.698C917.059 240.471 923.94 230.837 934.14 229.051L935.944 228.69 935.944 228.69 909.606 234.205C899.695 235.461 892.675 244.514 893.932 254.426 895.19 264.339 904.241 271.356 914.152 270.1 915.111 269.98 916.054 269.782 916.977 269.511L939.242 264.872C929.774 266.085 920.914 259.977 918.677 250.698Z" fill="#FFD966" transform="matrix(1.00589 0 0 1 -166.475 -15.6233)"/><path d="M851.003 182.663C848.581 165.084 858.822 148.216 875.537 142.255L863.064 144.626C838.839 145.811 822.655 168.026 826.47 187.56 830.284 207.094 853.426 221.629 876.207 213.691L891.67 210.702C873.017 212.808 855.668 200.845 851.003 182.663Z" fill="#FFD966" transform="matrix(1.00589 0 0 1 -166.475 -15.6233)"/><path d="M788.586 142.049 767.97 173.489C769.057 203.301 779.216 232.07 797.091 255.956L833.17 201.321C829.907 197.312 827.66 192.573 826.624 187.508 825.459 181.127 826.217 174.546 828.789 168.593Z" fill="url(#fill5)" transform="matrix(1.00589 0 0 1 -166.475 -15.6233)"/><path d="M37.3161 178.643C33.4468 178.707 29.5803 178.396 25.7708 177.715 23.0849 177.269 20.532 176.23 18.2973 174.674 16.4502 173.299 15.0659 171.393 14.3286 169.211 13.4825 166.599 13.0818 163.864 13.1431 161.119L13.1431 142.564 23.4514 142.564 23.4514 157.563C23.3784 159.558 23.6755 161.55 24.3276 163.438 24.9157 164.895 26.0154 166.086 27.4201 166.789 29.2768 167.684 31.29 168.209 33.3474 168.335 35.8214 168.576 38.9654 168.696 42.7795 168.696L90.2493 168.696C91.5709 168.782 92.8965 168.782 94.218 168.696 95.3267 168.579 96.389 168.189 97.3105 167.562 98.2079 166.897 98.8893 165.983 99.2691 164.933 99.8005 163.411 100.045 161.803 99.9907 160.191L99.9907 132.513 110.299 132.513 110.299 155.501C110.287 157.33 110.425 159.157 110.711 160.964 110.916 162.452 111.444 163.877 112.258 165.139 113.038 166.293 114.128 167.204 115.402 167.768 117.033 168.445 118.791 168.761 120.556 168.696 121.859 168.603 123.148 169.008 124.164 169.83 125.016 170.851 125.441 172.162 125.349 173.489 125.527 174.943 125.119 176.408 124.215 177.561 123.179 178.377 121.869 178.764 120.556 178.643 119.284 178.64 118.019 178.467 116.793 178.128 115.602 177.821 114.457 177.352 113.392 176.736 112.39 176.157 111.472 175.447 110.66 174.623 109.885 173.837 109.241 172.932 108.753 171.943 108.019 173.327 106.979 174.526 105.712 175.448 104.496 176.323 103.159 177.018 101.743 177.509 100.326 178.007 98.8558 178.335 97.3621 178.489 95.9545 178.563 94.5433 178.563 93.1357 178.489ZM47.6244 119.473C47.6253 118.639 47.8009 117.814 48.1399 117.051 48.7453 115.429 49.9684 114.114 51.5416 113.392 52.3214 113.05 53.1641 112.875 54.0156 112.876 54.9366 112.843 55.8531 113.019 56.6958 113.392 58.2173 114.057 59.4321 115.272 60.0975 116.793 60.4351 117.557 60.6103 118.381 60.6129 119.216 60.6134 120.067 60.4377 120.909 60.0975 121.69 59.4321 123.211 58.2173 124.426 56.6958 125.091 55.9324 125.429 55.1078 125.604 54.2733 125.607 53.4218 125.61 52.5786 125.435 51.7993 125.091 50.2747 124.431 49.0586 123.214 48.3976 121.69 48.0343 121.001 47.8069 120.248 47.7275 119.473ZM63.0869 119.473C63.0879 118.639 63.2632 117.814 63.6023 117.051 64.2079 115.429 65.431 114.114 67.0041 113.392 67.7839 113.05 68.6266 112.875 69.4781 112.876 70.3991 112.843 71.3155 113.019 72.1582 113.392 73.6797 114.057 74.8946 115.272 75.56 116.793 75.8976 117.557 76.0728 118.381 76.0754 119.216 76.0759 120.067 75.9002 120.909 75.56 121.69 74.8946 123.211 73.6797 124.426 72.1582 125.091 71.3949 125.429 70.5702 125.604 69.7358 125.607 68.8843 125.61 68.0411 125.435 67.2618 125.091 65.7372 124.431 64.5213 123.214 63.86 121.69 63.5327 120.993 63.34 120.241 63.2931 119.473Z" transform="matrix(1.00589 0 0 1 -166.475 -15.6233)"/><path d="M120.762 178.643C119.459 178.736 118.169 178.331 117.154 177.509 116.302 176.488 115.877 175.177 115.969 173.85 115.796 172.396 116.204 170.934 117.103 169.778 118.139 168.962 119.449 168.575 120.762 168.696L129.782 168.696C131.103 168.782 132.429 168.782 133.75 168.696 134.859 168.577 135.92 168.187 136.843 167.562 137.74 166.897 138.422 165.983 138.802 164.933 139.333 163.411 139.578 161.803 139.523 160.191L139.523 132.513 149.831 132.513 149.831 155.501C149.819 157.335 149.991 159.165 150.347 160.964 150.599 162.464 151.18 163.89 152.048 165.139 152.894 166.293 154.033 167.201 155.346 167.768 156.981 168.432 158.737 168.748 160.501 168.696 161.803 168.603 163.093 169.008 164.108 169.83 164.961 170.851 165.386 172.162 165.294 173.489 165.466 174.942 165.058 176.405 164.16 177.561 163.123 178.377 161.814 178.764 160.501 178.643 159.195 178.635 157.897 178.462 156.635 178.128 155.395 177.818 154.2 177.35 153.079 176.736 152.026 176.164 151.056 175.453 150.192 174.623 149.389 173.85 148.726 172.943 148.234 171.943 147.514 173.321 146.493 174.52 145.244 175.448 144.028 176.323 142.691 177.018 141.276 177.509 139.859 178.006 138.388 178.335 136.894 178.489 135.487 178.562 134.076 178.562 132.668 178.489ZM138.75 112.309C138.753 111.475 138.928 110.65 139.265 109.887 139.931 108.365 141.146 107.15 142.667 106.485 143.448 106.146 144.29 105.971 145.141 105.97 145.976 105.972 146.8 106.147 147.564 106.485 149.088 107.146 150.304 108.362 150.965 109.887 151.304 110.649 151.48 111.475 151.481 112.309 151.484 113.161 151.309 114.004 150.965 114.783 150.304 116.308 149.088 117.524 147.564 118.185 146.801 118.524 145.976 118.699 145.141 118.7 144.29 118.701 143.447 118.525 142.667 118.185 141.146 117.519 139.931 116.305 139.265 114.783 138.925 114.003 138.749 113.161 138.75 112.309Z" transform="matrix(1.00589 0 0 1 -166.475 -15.6233)"/><path d="M160.604 178.643C159.301 178.736 158.011 178.331 156.996 177.509 156.143 176.488 155.719 175.177 155.81 173.85 155.638 172.396 156.046 170.934 156.944 169.778 157.981 168.962 159.29 168.575 160.604 168.696L178.901 168.696 178.901 132.617 189.209 132.617 189.209 178.746ZM165.345 198.126C165.349 197.291 165.525 196.467 165.861 195.703 166.196 194.953 166.669 194.272 167.252 193.693 167.829 193.107 168.511 192.635 169.263 192.302 170.043 191.963 170.886 191.787 171.737 191.786 172.571 191.789 173.396 191.964 174.159 192.302 174.912 192.633 175.594 193.105 176.169 193.693 176.755 194.27 177.227 194.952 177.561 195.703 177.9 196.466 178.075 197.291 178.076 198.126 178.079 198.977 177.904 199.821 177.561 200.6 176.904 202.128 175.687 203.345 174.159 204.002 173.396 204.339 172.571 204.514 171.737 204.517 170.886 204.516 170.043 204.34 169.263 204.002 167.738 203.34 166.522 202.124 165.861 200.6 165.519 199.82 165.344 198.977 165.345 198.126ZM180.808 198.126C180.812 197.291 180.987 196.467 181.323 195.703 181.659 194.953 182.131 194.272 182.715 193.693 183.292 193.107 183.974 192.635 184.725 192.302 185.506 191.963 186.348 191.787 187.199 191.786 188.034 191.789 188.858 191.964 189.622 192.302 190.374 192.633 191.056 193.105 191.632 193.693 192.218 194.27 192.69 194.952 193.023 195.703 193.362 196.466 193.538 197.291 193.539 198.126 193.542 198.977 193.367 199.821 193.023 200.6 192.367 202.128 191.149 203.345 189.622 204.002 188.858 204.339 188.034 204.514 187.199 204.517 186.348 204.516 185.506 204.34 184.725 204.002 183.2 203.34 181.985 202.124 181.323 200.6 181.017 199.812 180.876 198.97 180.911 198.126Z" transform="matrix(1.00589 0 0 1 -166.475 -15.6233)"/><path d="M250.441 178.643C250.254 182.783 249.365 186.861 247.812 190.704 246.467 193.867 244.295 196.609 241.524 198.641 238.433 200.799 234.92 202.274 231.216 202.971 226.275 203.928 221.249 204.377 216.217 204.311L211.063 204.311 211.063 194.57 214.774 194.57C218.787 194.614 222.799 194.39 226.783 193.899 229.564 193.597 232.26 192.756 234.72 191.425 236.678 190.303 238.23 188.589 239.153 186.529 240.181 184.027 240.706 181.348 240.699 178.643L227.092 178.643C224.042 178.668 221.004 178.251 218.072 177.406 215.42 176.645 212.96 175.327 210.857 173.541 208.781 171.673 207.174 169.342 206.166 166.737 204.951 163.548 204.373 160.15 204.465 156.738 204.489 153.453 205.063 150.194 206.166 147.1 207.191 144.073 208.764 141.26 210.805 138.802 212.863 136.36 215.408 134.376 218.279 132.977 221.392 131.466 224.817 130.707 228.278 130.761 231.942 130.652 235.58 131.411 238.895 132.977 241.629 134.422 243.938 136.553 245.596 139.162 247.485 142.175 248.796 145.513 249.461 149.007 250.294 153.233 250.692 157.533 250.647 161.841L250.647 168.489 259.1 168.489C260.403 168.397 261.692 168.802 262.708 169.623 263.56 170.644 263.985 171.956 263.893 173.283 264.065 174.736 263.657 176.199 262.759 177.355 261.723 178.171 260.413 178.558 259.1 178.437ZM213.898 155.759C213.701 159.278 214.992 162.719 217.454 165.242 220.298 167.713 224.004 168.955 227.762 168.696L240.596 168.696 240.596 159.779C240.612 157.099 240.37 154.424 239.875 151.79 239.496 149.625 238.728 147.547 237.607 145.657 236.602 144.01 235.18 142.658 233.483 141.739 231.57 140.768 229.444 140.29 227.298 140.348 225.22 140.297 223.162 140.776 221.32 141.739 219.686 142.607 218.262 143.821 217.145 145.296 216.013 146.849 215.174 148.595 214.671 150.45 214.168 152.175 213.907 153.962 213.898 155.759Z" transform="matrix(1.00589 0 0 1 -166.475 -15.6233)"/><path d="M259.1 178.643C257.797 178.736 256.507 178.331 255.492 177.509 254.639 176.488 254.214 175.177 254.306 173.85 254.134 172.396 254.542 170.934 255.44 169.778 256.477 168.962 257.786 168.575 259.1 168.696L277.397 168.696 277.397 132.617 287.705 132.617 287.705 178.746ZM274.562 197.765C274.563 196.931 274.738 196.105 275.077 195.343 275.411 194.591 275.883 193.909 276.469 193.333 277.044 192.744 277.727 192.272 278.479 191.941 279.259 191.599 280.102 191.424 280.953 191.425 281.788 191.429 282.612 191.605 283.376 191.941 284.127 192.274 284.809 192.747 285.386 193.333 285.97 193.911 286.442 194.592 286.777 195.343 287.113 196.106 287.289 196.931 287.293 197.765 287.294 198.617 287.119 199.459 286.777 200.239 286.116 201.764 284.9 202.98 283.376 203.641 282.612 203.977 281.788 204.153 280.953 204.156 280.102 204.158 279.259 203.983 278.479 203.641 276.952 202.984 275.734 201.767 275.077 200.239 274.645 199.479 274.381 198.636 274.304 197.765Z" transform="matrix(1.00589 0 0 1 -166.475 -15.6233)"/><path d="M313.991 132.513 324.3 132.513 324.3 172.716C324.353 177.647 324.026 182.576 323.32 187.457 322.782 190.969 321.499 194.325 319.558 197.301 317.916 199.82 315.515 201.751 312.703 202.816 309.127 204.06 305.354 204.636 301.57 204.517L298.013 204.517 298.013 194.57 301.982 194.57C304.276 194.687 306.562 194.226 308.631 193.229 310.266 192.294 311.524 190.818 312.187 189.055 313.025 186.754 313.495 184.336 313.579 181.89 313.579 178.969 313.665 175.534 313.837 171.582Z" transform="matrix(1.00589 0 0 1 -166.475 -15.6233)"/><path d="M385.531 178.643C385.344 182.783 384.455 186.861 382.903 190.704 381.558 193.867 379.386 196.609 376.614 198.641 373.524 200.799 370.01 202.274 366.306 202.971 361.365 203.928 356.34 204.377 351.308 204.311L346.153 204.311 346.153 194.57 349.864 194.57C353.861 194.611 357.855 194.388 361.822 193.899 364.603 193.597 367.299 192.756 369.759 191.425 371.717 190.303 373.269 188.589 374.192 186.529 375.22 184.027 375.745 181.348 375.738 178.643L362.183 178.643C359.132 178.668 356.094 178.251 353.163 177.406 350.511 176.645 348.051 175.327 345.947 173.541 343.833 171.684 342.191 169.352 341.154 166.737 339.938 163.548 339.36 160.15 339.453 156.738 339.443 153.458 339.983 150.2 341.051 147.1 342.075 144.073 343.648 141.26 345.689 138.802 347.747 136.36 350.293 134.376 353.163 132.977 356.277 131.466 359.702 130.707 363.162 130.761 366.827 130.652 370.465 131.411 373.78 132.977 376.588 134.392 378.971 136.526 380.686 139.162 382.575 142.175 383.886 145.513 384.552 149.007 385.385 153.233 385.782 157.533 385.737 161.841L385.737 168.489 394.19 168.489C395.493 168.397 396.783 168.802 397.798 169.623 398.651 170.644 399.075 171.956 398.984 173.283 399.156 174.736 398.748 176.199 397.85 177.355 396.813 178.171 395.503 178.558 394.19 178.437ZM348.988 155.759C348.792 159.278 350.082 162.719 352.545 165.242 355.388 167.713 359.095 168.955 362.853 168.696L375.687 168.696 375.687 159.779C375.703 157.099 375.461 154.424 374.965 151.79 374.587 149.625 373.818 147.547 372.697 145.657 371.693 144.01 370.27 142.658 368.574 141.739 366.66 140.768 364.534 140.29 362.389 140.348 360.31 140.297 358.253 140.776 356.41 141.739 354.777 142.607 353.352 143.821 352.235 145.296 351.103 146.849 350.265 148.595 349.761 150.45 349.258 152.175 348.998 153.962 348.988 155.759Z" transform="matrix(1.00589 0 0 1 -166.475 -15.6233)"/><path d="M394.19 178.643C392.887 178.736 391.598 178.331 390.582 177.509 389.73 176.488 389.305 175.177 389.397 173.85 389.225 172.396 389.632 170.934 390.531 169.778 391.567 168.962 392.877 168.575 394.19 168.696L412.333 168.696 412.333 132.617 422.641 132.617 422.641 178.746ZM409.653 197.765C409.654 196.931 409.829 196.105 410.168 195.343 410.501 194.591 410.974 193.909 411.56 193.333 412.135 192.744 412.817 192.272 413.57 191.941 414.35 191.599 415.192 191.424 416.044 191.425 416.878 191.429 417.703 191.605 418.466 191.941 419.218 192.274 419.9 192.747 420.476 193.333 421.06 193.911 421.532 194.592 421.868 195.343 422.204 196.106 422.38 196.931 422.383 197.765 422.385 198.617 422.21 199.459 421.868 200.239 421.207 201.764 419.991 202.98 418.466 203.641 417.702 203.977 416.878 204.153 416.044 204.156 415.192 204.158 414.35 203.983 413.57 203.641 412.042 202.984 410.825 201.767 410.168 200.239 409.736 199.479 409.472 198.636 409.395 197.765Z" transform="matrix(1.00589 0 0 1 -166.475 -15.6233)"/><path d="M496.088 173.489C496.249 174.941 495.843 176.401 494.954 177.561 493.904 178.39 492.574 178.778 491.243 178.643L489.645 178.643C487.303 178.668 484.967 178.408 482.687 177.87 480.668 177.439 478.779 176.539 477.172 175.241 475.596 173.839 474.392 172.068 473.667 170.087 472.768 167.541 472.349 164.85 472.43 162.15L472.43 95.1458 482.739 95.1458 482.739 159.573C482.715 161.005 482.819 162.436 483.048 163.851 483.2 164.905 483.627 165.9 484.285 166.737 484.964 167.516 485.862 168.073 486.862 168.335 488.29 168.715 489.765 168.889 491.243 168.85L491.243 168.85C492.546 168.757 493.836 169.163 494.851 169.984 495.685 170.958 496.125 172.208 496.088 173.489Z" transform="matrix(1.00589 0 0 1 -166.475 -15.6233)"/><path d="M541.702 178.643C542.223 179.363 542.656 180.141 542.991 180.963 543.331 181.816 543.609 182.695 543.815 183.591 544.027 184.439 544.181 185.3 544.279 186.168 544.326 186.975 544.326 187.784 544.279 188.591 544.279 190.659 543.877 192.707 543.094 194.621 542.31 196.585 541.094 198.348 539.537 199.775 537.831 201.321 535.832 202.513 533.662 203.28 531.028 204.186 528.255 204.622 525.467 204.569 522.286 204.624 519.127 204.1 516.138 203.022 513.524 202.072 511.163 200.538 509.231 198.538 507.334 196.413 505.927 193.896 505.108 191.168 504.098 187.986 503.611 184.661 503.664 181.323L503.664 178.643 491.294 178.643C489.992 178.736 488.702 178.331 487.687 177.509 486.834 176.488 486.409 175.177 486.501 173.85 486.329 172.396 486.737 170.934 487.635 169.778 488.672 168.962 489.981 168.575 491.294 168.696L503.716 168.696 503.716 161.738C503.669 157.326 504.189 152.925 505.262 148.646 506.122 145.25 507.589 142.037 509.592 139.162 511.393 136.622 513.78 134.554 516.55 133.132 519.452 131.712 522.647 131.006 525.879 131.07 528.961 130.971 532.023 131.626 534.796 132.977 537.069 134.126 539.053 135.763 540.62 137.771 542.047 139.655 543.114 141.786 543.764 144.059 544.377 146.117 544.707 148.25 544.743 150.398 544.764 152.286 544.573 154.171 544.176 156.016 543.815 157.666 543.279 159.273 542.578 160.81 541.914 162.264 541.104 163.646 540.156 164.933 539.233 166.194 538.218 167.382 537.115 168.489L537.115 168.953 553.454 168.953C554.758 168.861 556.046 169.266 557.062 170.087 557.912 171.108 558.34 172.42 558.247 173.747 558.422 175.201 558.015 176.666 557.113 177.819 556.077 178.634 554.768 179.021 553.454 178.901ZM513.56 168.696 518.715 168.696C521.395 168.788 524.054 168.203 526.446 166.995 528.461 165.947 530.219 164.469 531.6 162.665 532.858 161.012 533.801 159.143 534.383 157.15 534.888 155.477 535.167 153.743 535.208 151.996 535.275 150.245 535.012 148.496 534.435 146.842 533.971 145.544 533.255 144.353 532.322 143.337 531.476 142.428 530.435 141.724 529.281 141.276 524.503 139.445 519.101 141.398 516.601 145.863 514.213 150.486 513.109 155.666 513.406 160.861ZM513.56 178.643C513.523 180.958 513.713 183.272 514.127 185.55 514.457 187.399 515.177 189.156 516.241 190.704 517.251 192.109 518.622 193.214 520.209 193.899 522.152 194.705 524.24 195.091 526.343 195.033 528.812 195.214 531.265 194.501 533.249 193.023 534.77 191.605 535.579 189.584 535.466 187.508 535.466 186.433 535.347 185.361 535.105 184.313 534.816 183.199 534.208 182.194 533.352 181.426 532.224 180.434 530.884 179.711 529.435 179.313 527.152 178.694 524.791 178.416 522.426 178.489Z" transform="matrix(1.00589 0 0 1 -166.475 -15.6233)"/><path d="M553.402 178.643C552.098 178.736 550.81 178.331 549.794 177.509 548.944 176.488 548.516 175.177 548.609 173.85 548.439 172.396 548.846 170.934 549.743 169.778 550.779 168.962 552.088 168.575 553.402 168.696L582.008 168.696C583.389 168.701 584.77 168.581 586.131 168.335 587.301 168.142 588.419 167.722 589.43 167.098 590.337 166.521 591.079 165.723 591.594 164.778 592.156 163.643 592.419 162.384 592.368 161.119 592.254 158.454 591.378 155.878 589.842 153.697 587.956 150.838 585.683 148.253 583.09 146.017 580.039 143.364 576.766 140.984 573.297 138.905 569.633 136.665 565.788 134.733 561.803 133.132L561.803 122.824 600.717 97.5167 600.717 109.217 572.112 126.483C577.049 128.718 581.714 131.502 586.028 134.781 589.44 137.367 592.507 140.381 595.151 143.75 597.367 146.501 599.104 149.602 600.305 152.924 601.289 155.76 601.815 158.736 601.851 161.738 601.831 163.598 601.588 165.45 601.13 167.252 600.619 169.274 599.671 171.158 598.346 172.767 596.81 174.595 594.867 176.042 592.677 176.994 589.703 178.208 586.507 178.77 583.296 178.643Z" transform="matrix(1.00589 0 0 1 -166.475 -15.6233)"/><path d="M626.437 132.513 636.745 132.513 636.745 172.716C636.796 177.647 636.472 182.576 635.766 187.457 635.307 190.949 634.111 194.304 632.261 197.301 630.617 199.82 628.22 201.751 625.406 202.816 621.829 204.06 618.056 204.636 614.273 204.517L610.716 204.517 610.716 194.57 614.685 194.57C616.979 194.687 619.267 194.226 621.334 193.229 622.968 192.294 624.225 190.818 624.89 189.055 625.725 186.754 626.199 184.336 626.282 181.89 626.282 178.969 626.37 175.534 626.54 171.582Z" transform="matrix(1.00589 0 0 1 -166.475 -15.6233)"/><path d="M690.09 156.171C691.534 158.45 692.384 161.055 692.564 163.748 692.75 166.256 692.25 168.767 691.121 171.015 689.956 173.287 688.168 175.181 685.967 176.478 683.271 178.007 680.2 178.756 677.102 178.643L648.393 178.643 648.393 168.696 676.174 168.696C677.324 168.722 678.463 168.511 679.524 168.077 680.416 167.735 681.158 167.098 681.638 166.273 682.112 165.373 682.277 164.339 682.101 163.335 681.828 161.889 681.246 160.519 680.401 159.315L664.938 135.245 673.752 129.679Z" transform="matrix(1.00589 0 0 1 -166.475 -15.6233)"/><path d="M717.459 94.9912 717.459 178.643 707.151 178.643 707.151 94.9912Z" transform="matrix(1.00589 0 0 1 -166.475 -15.6233)"/><path d="M35.7183 248.894 35.7183 251.884 20.6166 251.884C18.342 251.921 16.1554 251.006 14.5863 249.358 12.9416 247.766 12.0277 245.565 12.0607 243.276L12.0607 240.235C12.0277 237.946 12.9416 235.746 14.5863 234.153 16.1554 232.506 18.342 231.59 20.6166 231.628 22.8901 231.597 25.0743 232.511 26.647 234.153 28.2676 235.758 29.1615 237.955 29.121 240.235L29.121 248.894ZM26.4408 240.235C26.4726 237.161 24.0063 234.644 20.9322 234.612 20.827 234.611 20.7217 234.613 20.6166 234.617 19.1345 234.578 17.7072 235.179 16.6995 236.267 15.6255 237.305 15.0286 238.742 15.0501 240.235L15.0501 243.276C15.0286 244.77 15.6255 246.206 16.6995 247.245 17.7072 248.333 19.1345 248.934 20.6166 248.894L26.4408 248.894ZM16.5449 227.608C16.2904 227.638 16.0597 227.456 16.0294 227.202 16.0251 227.165 16.0251 227.129 16.0294 227.092L16.0294 224.67C15.9992 224.415 16.1809 224.185 16.4353 224.154 16.4717 224.15 16.5085 224.15 16.5449 224.154L18.555 224.154C18.9158 224.154 19.1219 224.154 19.1219 224.67L19.1219 227.092C19.1574 227.346 18.9804 227.58 18.7267 227.616 18.6694 227.624 18.6112 227.621 18.555 227.608ZM21.699 227.608C21.4446 227.638 21.2139 227.456 21.1836 227.202 21.1793 227.165 21.1793 227.129 21.1836 227.092L21.1836 224.67C21.1533 224.415 21.335 224.185 21.5894 224.154 21.6258 224.15 21.6626 224.15 21.699 224.154L23.7091 224.154C24.0699 224.154 24.2761 224.154 24.2761 224.67L24.2761 227.092C24.3116 227.346 24.1346 227.58 23.8809 227.616 23.8236 227.624 23.7654 227.621 23.7091 227.608Z" fill="#999999" transform="matrix(1.00589 0 0 1 -166.475 -15.6233)"/><path d="M49.6346 251.884 48.2429 251.884C46.6245 252.002 45.0266 251.463 43.8104 250.389L43.8104 250.389 43.8104 250.389 43.8104 250.389C42.7956 251.342 41.4385 251.844 40.0478 251.781L33.7597 251.781 33.7597 248.791 39.8932 248.791C40.4741 248.847 41.0524 248.661 41.491 248.276 41.887 247.803 42.0731 247.188 42.0064 246.575L42.0064 233.02C42.0064 232.659 42.0064 232.453 42.5218 232.453L44.3773 232.453C44.6604 232.423 44.9142 232.628 44.9443 232.911 44.9481 232.947 44.9481 232.983 44.9443 233.02L44.9443 247.4C44.9049 247.771 45.0164 248.142 45.2535 248.43 45.9554 248.932 46.8196 249.153 47.676 249.049L49.5315 249.049ZM39.9447 255.749C40.2278 255.72 40.4816 255.925 40.5117 256.208 40.5156 256.244 40.5156 256.28 40.5117 256.316L40.5117 258.687C40.5472 258.941 40.3702 259.175 40.1165 259.211 40.0592 259.219 40.001 259.216 39.9447 259.203L37.9346 259.203C37.6802 259.233 37.4495 259.051 37.4192 258.797 37.4149 258.76 37.4149 258.724 37.4192 258.687L37.4192 256.316C37.4192 255.956 37.4192 255.749 37.9346 255.749ZM45.0989 255.749C45.382 255.72 45.6358 255.925 45.6659 256.208 45.6697 256.244 45.6697 256.28 45.6659 256.316L45.6659 258.687C45.7013 258.941 45.5244 259.175 45.2706 259.211 45.2134 259.219 45.1551 259.216 45.0989 259.203L43.3465 259.203C43.0973 259.262 42.8471 259.108 42.7877 258.859 42.7743 258.803 42.7715 258.744 42.7795 258.687L42.7795 256.316C42.7495 256.033 42.9546 255.779 43.2376 255.749 43.2738 255.746 43.3103 255.746 43.3465 255.749Z" fill="#999999" transform="matrix(1.00589 0 0 1 -166.475 -15.6233)"/><path d="M77.3124 251.884 74.8384 251.884C73.2633 251.934 71.7366 251.338 70.612 250.234L69.9935 249.513C68.4256 251.049 66.3129 251.902 64.1177 251.884L48.6553 251.884 48.6553 248.894 55.6649 248.894 55.6649 240.235C55.6319 237.946 56.5458 235.746 58.1905 234.153 61.4618 230.823 66.8134 230.775 70.144 234.046 70.1801 234.082 70.2156 234.117 70.2512 234.153 71.8959 235.746 72.8097 237.946 72.7767 240.235L72.7767 243.276C72.784 244.676 72.4479 246.057 71.7974 247.297 71.8696 247.625 72.0299 247.928 72.2613 248.173 72.8448 248.719 73.6287 248.999 74.4261 248.946L77.3124 248.946ZM64.1177 248.894C65.6176 248.948 67.067 248.346 68.0864 247.245 69.1606 246.206 69.7574 244.77 69.7358 243.276L69.7358 240.235C69.7641 237.161 67.2953 234.646 64.2213 234.617 64.1868 234.617 64.1523 234.617 64.1177 234.617 62.6354 234.578 61.2082 235.179 60.2006 236.267 59.1316 237.309 58.5358 238.743 58.5513 240.235L58.5513 248.894Z" fill="#999999" transform="matrix(1.00589 0 0 1 -166.475 -15.6233)"/><path d="M76.4362 251.884 76.4362 248.894 82.4666 248.894C83.0459 248.939 83.6201 248.754 84.0643 248.379 84.4473 247.919 84.6323 247.326 84.5798 246.73L84.5798 232.968C84.5442 232.714 84.7215 232.48 84.9751 232.444 85.0323 232.437 85.0905 232.439 85.1467 232.453L87.0022 232.453C87.2517 232.393 87.5016 232.547 87.5609 232.796 87.5743 232.853 87.5774 232.911 87.5692 232.968L87.5692 246.678C87.746 249.348 85.7245 251.655 83.0546 251.832 82.8418 251.846 82.6279 251.846 82.415 251.832ZM81.1265 255.749C81.4094 255.72 81.6635 255.925 81.6934 256.208 81.697 256.244 81.697 256.28 81.6934 256.316L81.6934 258.687C81.729 258.941 81.5517 259.175 81.2981 259.211 81.2409 259.219 81.1827 259.216 81.1265 259.203L79.1163 259.203C78.8617 259.233 78.6313 259.051 78.6009 258.797 78.5968 258.76 78.5968 258.724 78.6009 258.687L78.6009 256.316C78.6009 255.956 78.6009 255.749 79.1163 255.749ZM86.2806 255.749C86.5636 255.72 86.8177 255.925 86.8476 256.208 86.8512 256.244 86.8512 256.28 86.8476 256.316L86.8476 258.687C86.8831 258.941 86.7058 259.175 86.4523 259.211 86.3951 259.219 86.3368 259.216 86.2806 259.203L84.5282 259.203C84.2736 259.233 84.0432 259.051 84.0128 258.797 84.0087 258.76 84.0087 258.724 84.0128 258.687L84.0128 256.316C84.0128 255.956 84.0128 255.749 84.5282 255.749Z" fill="#999999" transform="matrix(1.00589 0 0 1 -166.475 -15.6233)"/><path d="M113.907 251.884 112.567 251.884C110.983 251.956 109.438 251.379 108.289 250.286L107.928 249.874C106.485 251.343 104.466 252.098 102.413 251.935L93.7026 251.935C93.448 251.966 93.2176 251.784 93.1872 251.53 93.1831 251.493 93.1831 251.457 93.1872 251.42L93.1872 249.461C93.1872 249.101 93.1872 248.894 93.7026 248.894L102.413 248.894C103.552 249.026 104.697 248.712 105.609 248.018 106.191 247.312 106.469 246.404 106.382 245.493L106.382 238.998C106.354 236.619 104.432 234.697 102.052 234.669 100.699 234.577 99.3506 234.9 98.1867 235.597L97.4136 236.112 97.1044 236.112 97.1044 236.112C96.9879 236.155 96.8601 236.155 96.7436 236.112L95.6612 234.566C95.621 234.467 95.621 234.356 95.6612 234.257L95.6612 234.257C95.6179 234.14 95.6179 234.012 95.6612 233.896L96.4343 233.38C98.1027 232.303 100.069 231.78 102.052 231.886 106.094 231.886 109.371 235.163 109.371 239.205L109.371 246.884C109.345 247.439 109.551 247.981 109.938 248.379 110.525 248.92 111.306 249.199 112.103 249.152L113.958 249.152Z" fill="#999999" transform="matrix(1.00589 0 0 1 -166.475 -15.6233)"/><path d="M142.873 248.894 142.873 251.884 112.928 251.884 112.928 248.894 121.69 248.894C120.318 247.346 119.565 245.345 119.577 243.276L119.577 240.235C119.577 235.51 123.407 231.679 128.132 231.679 132.858 231.679 136.688 235.51 136.688 240.235L136.688 248.894ZM122.617 243.276C122.617 246.359 125.101 248.866 128.184 248.894L134.008 248.894 134.008 240.235C134.008 237.161 131.516 234.669 128.442 234.669 125.367 234.669 122.875 237.161 122.875 240.235ZM124.37 227.814C124.115 227.844 123.885 227.662 123.854 227.408 123.85 227.372 123.85 227.335 123.854 227.298L123.854 224.876C123.824 224.621 124.006 224.391 124.26 224.361 124.297 224.356 124.333 224.356 124.37 224.361L126.38 224.361C126.741 224.361 126.947 224.361 126.947 224.876L126.947 227.298C126.983 227.552 126.805 227.787 126.552 227.822 126.494 227.83 126.436 227.827 126.38 227.814ZM129.782 227.814C129.532 227.873 129.282 227.72 129.223 227.47 129.21 227.414 129.207 227.356 129.215 227.298L129.215 224.876C129.215 224.515 129.215 224.361 129.782 224.361L131.74 224.361C132.101 224.361 132.307 224.361 132.307 224.876L132.307 227.298C132.343 227.552 132.166 227.787 131.912 227.822 131.855 227.83 131.796 227.827 131.74 227.814Z" fill="#999999" transform="matrix(1.00589 0 0 1 -166.475 -15.6233)"/><path d="M158.233 251.884 156.841 251.884C155.206 252.011 153.589 251.471 152.357 250.389L152.357 250.389 152.357 250.389 152.357 250.389C151.342 251.342 149.985 251.844 148.594 251.781L141.482 251.781 141.482 248.791 148.491 248.791C149.072 248.847 149.651 248.661 150.089 248.276 150.504 247.811 150.709 247.196 150.656 246.575L150.656 233.02C150.656 232.642 150.828 232.453 151.171 232.453L153.079 232.453C153.439 232.453 153.594 232.453 153.594 233.02L153.594 247.4C153.563 247.779 153.693 248.154 153.955 248.43 154.639 248.928 155.486 249.149 156.326 249.049L158.233 249.049ZM148.388 227.608C148.139 227.667 147.889 227.513 147.83 227.264 147.816 227.208 147.813 227.149 147.821 227.092L147.821 224.67C147.821 224.309 147.821 224.154 148.388 224.154L150.398 224.154C150.653 224.124 150.883 224.306 150.914 224.56 150.918 224.597 150.918 224.633 150.914 224.67L150.914 227.092C150.944 227.347 150.762 227.577 150.508 227.608 150.472 227.612 150.435 227.612 150.398 227.608ZM153.542 227.608C153.288 227.638 153.057 227.456 153.027 227.202 153.023 227.165 153.023 227.129 153.027 227.092L153.027 224.67C152.997 224.415 153.179 224.185 153.433 224.154 153.469 224.15 153.506 224.15 153.542 224.154L155.501 224.154C155.862 224.154 156.068 224.154 156.068 224.67L156.068 227.092C156.104 227.346 155.926 227.58 155.673 227.616 155.615 227.624 155.557 227.621 155.501 227.608Z" fill="#999999" transform="matrix(1.00589 0 0 1 -166.475 -15.6233)"/><path d="M166.531 222.505C166.875 222.505 167.046 222.694 167.046 223.072L167.046 246.73C167.254 249.369 165.283 251.677 162.643 251.884 162.393 251.903 162.142 251.903 161.892 251.884L157.202 251.884 157.202 248.894 161.944 248.894C162.523 248.939 163.097 248.754 163.541 248.379 163.919 247.916 164.104 247.325 164.057 246.73L164.057 223.02C164.057 222.66 164.057 222.454 164.572 222.454Z" fill="#999999" transform="matrix(1.00589 0 0 1 -166.475 -15.6233)"/><path d="M176.581 251.368C176.581 251.729 176.581 251.884 176.066 251.884L174.159 251.884C173.904 251.914 173.674 251.732 173.644 251.478 173.64 251.442 173.64 251.405 173.644 251.368L173.644 223.02C173.613 222.766 173.795 222.535 174.049 222.505 174.086 222.501 174.122 222.501 174.159 222.505L176.066 222.505C176.427 222.505 176.581 222.505 176.581 223.02Z" fill="#999999" transform="matrix(1.00589 0 0 1 -166.475 -15.6233)"/><path d="M219.722 231.628C222.016 231.542 224.228 232.488 225.752 234.205 227.317 236.135 228.107 238.579 227.968 241.06L227.968 244.977C228.101 246.87 227.448 248.734 226.165 250.131 224.786 251.45 222.913 252.124 221.01 251.987L209.156 251.987C208.368 256.125 204.761 259.127 200.548 259.151 198.219 259.187 195.979 258.254 194.363 256.574 192.681 254.94 191.749 252.683 191.786 250.338L191.786 240.648C191.756 240.393 191.938 240.163 192.192 240.132 192.229 240.128 192.265 240.128 192.302 240.132L194.209 240.132C194.463 240.102 194.694 240.284 194.724 240.538 194.728 240.575 194.728 240.611 194.724 240.648L194.724 250.234C194.422 253.437 196.773 256.278 199.975 256.58 203.177 256.882 206.019 254.531 206.321 251.329 206.356 250.965 206.356 250.598 206.321 250.234L206.321 233.535C206.321 233.174 206.321 233.02 206.888 233.02L208.743 233.02C209.104 233.02 209.31 233.02 209.31 233.535L209.31 237.091C212.007 234.072 215.705 232.132 219.722 231.628ZM224.876 241.008C224.9 239.707 224.618 238.418 224.051 237.246 223.216 235.528 221.422 234.488 219.516 234.617 217.627 234.834 215.839 235.585 214.361 236.782 212.432 238.035 210.696 239.563 209.207 241.318L209.207 248.894 221.113 248.894C222.966 249.205 224.72 247.954 225.031 246.102 225.093 245.729 225.093 245.349 225.031 244.977ZM216.99 227.556C216.735 227.587 216.505 227.405 216.475 227.151 216.471 227.114 216.471 227.077 216.475 227.041L216.475 224.824C216.444 224.57 216.626 224.339 216.88 224.309 216.917 224.305 216.954 224.305 216.99 224.309L219 224.309C219.25 224.25 219.5 224.403 219.559 224.653 219.572 224.709 219.575 224.767 219.567 224.824L219.567 227.041C219.603 227.294 219.425 227.529 219.172 227.564 219.115 227.572 219.056 227.57 219 227.556Z" fill="#999999" transform="matrix(1.00589 0 0 1 -166.475 -15.6233)"/><path d="M241.679 231.628C246.404 231.628 250.234 235.459 250.234 240.184 250.234 240.201 250.234 240.218 250.234 240.235L250.234 252.554C250.097 256.882 246.576 260.335 242.245 260.388L238.071 260.388C237.816 260.419 237.586 260.237 237.555 259.983 237.551 259.946 237.551 259.909 237.555 259.873L237.555 257.708C237.525 257.453 237.707 257.223 237.961 257.193 237.997 257.188 238.034 257.188 238.071 257.193L242.245 257.193C245.092 257.193 247.4 254.885 247.4 252.038L247.4 251.575 241.679 251.575C239.405 251.605 237.221 250.691 235.648 249.049 234.003 247.457 233.09 245.256 233.123 242.967L233.123 239.926C233.083 237.636 233.998 235.433 235.648 233.844 237.27 232.31 239.45 231.509 241.679 231.628ZM247.4 240.235C247.4 237.161 244.908 234.669 241.833 234.669 238.759 234.669 236.267 237.161 236.267 240.235L236.267 243.276C236.238 244.761 236.815 246.194 237.864 247.245 238.884 248.346 240.333 248.948 241.833 248.894L247.4 248.894Z" fill="#999999" transform="matrix(1.00589 0 0 1 -166.475 -15.6233)"/><path d="M268.016 251.884 261.831 251.884 261.831 253.43C262.157 256.945 259.572 260.058 256.058 260.384 255.681 260.419 255.301 260.42 254.925 260.388L252.554 260.388C252.299 260.419 252.069 260.237 252.038 259.983 252.034 259.946 252.034 259.909 252.038 259.873L252.038 257.708C252.008 257.453 252.19 257.223 252.444 257.193 252.481 257.188 252.517 257.188 252.554 257.193L254.615 257.193C255.696 257.3 256.775 256.965 257.605 256.265 258.295 255.429 258.629 254.355 258.533 253.275L258.533 232.659C258.503 232.376 258.708 232.122 258.991 232.092 259.027 232.088 259.064 232.088 259.1 232.092L261.007 232.092C261.26 232.056 261.495 232.234 261.53 232.487 261.538 232.544 261.535 232.603 261.522 232.659L261.522 248.534 268.016 248.534Z" fill="#999999" transform="matrix(1.00589 0 0 1 -166.475 -15.6233)"/><path d="M293.787 248.894 293.787 251.884 265.852 251.884 265.852 248.894 275.232 248.894 271.263 240.39C271.222 240.186 271.222 239.976 271.263 239.771 271.622 237.767 272.659 235.947 274.201 234.617 275.833 232.999 278.037 232.092 280.335 232.092 282.606 232.077 284.798 232.924 286.468 234.463 288.176 235.86 289.253 237.884 289.458 240.081L289.458 240.081C289.508 240.284 289.508 240.496 289.458 240.699L285.489 249.204ZM282.139 248.894 286.468 239.514C286.264 238.123 285.501 236.875 284.355 236.061 283.245 235.125 281.838 234.613 280.386 234.617 278.917 234.623 277.503 235.175 276.418 236.164 275.364 237.039 274.623 238.233 274.304 239.565L278.325 248.894Z" fill="#999999" transform="matrix(1.00589 0 0 1 -166.475 -15.6233)"/><path d="M301.725 222.505C302.068 222.505 302.24 222.694 302.24 223.072L302.24 246.73C302.447 249.369 300.476 251.677 297.837 251.884 297.587 251.903 297.336 251.903 297.086 251.884L292.395 251.884 292.395 248.894 297.137 248.894C297.717 248.939 298.291 248.754 298.735 248.379 299.113 247.916 299.297 247.325 299.251 246.73L299.251 223.02C299.251 222.66 299.251 222.454 299.766 222.454Z" fill="#999999" transform="matrix(1.00589 0 0 1 -166.475 -15.6233)"/><path d="M311.775 251.368C311.775 251.729 311.775 251.884 311.26 251.884L309.25 251.884C308.995 251.914 308.765 251.732 308.734 251.478 308.73 251.442 308.73 251.405 308.734 251.368L308.734 223.02C308.704 222.766 308.886 222.535 309.14 222.505 309.176 222.501 309.213 222.501 309.25 222.505L311.157 222.505C311.517 222.505 311.672 222.505 311.672 223.02Z" fill="#999999" transform="matrix(1.00589 0 0 1 -166.475 -15.6233)"/><path d="M355.998 251.884 353.369 251.884C351.777 251.948 350.228 251.351 349.091 250.234L348.473 249.513C346.905 251.049 344.792 251.902 342.597 251.884L332.649 251.884C331.141 251.884 329.918 253.107 329.918 254.615L329.918 260.079C329.948 260.333 329.766 260.564 329.512 260.594 329.476 260.598 329.439 260.598 329.402 260.594L327.495 260.594C327.241 260.625 327.01 260.443 326.98 260.189 326.976 260.152 326.976 260.115 326.98 260.079L326.98 254.615C327.008 251.467 329.553 248.922 332.701 248.894L334.144 248.894 334.144 240.235C334.111 237.946 335.025 235.746 336.67 234.153 339.941 230.823 345.293 230.775 348.623 234.046 348.659 234.082 348.695 234.117 348.73 234.153 350.375 235.746 351.289 237.946 351.256 240.235L351.256 243.276C351.263 244.676 350.927 246.057 350.277 247.297 350.353 247.609 350.513 247.894 350.741 248.121 351.327 248.662 352.108 248.941 352.905 248.894L356.101 248.894ZM342.649 248.894C345.722 248.923 348.238 246.454 348.267 243.38 348.267 243.345 348.267 243.311 348.267 243.276L348.267 240.235C348.267 237.133 345.751 234.617 342.649 234.617 341.166 234.578 339.739 235.179 338.731 236.267 337.657 237.305 337.06 238.742 337.082 240.235L337.082 248.894Z" fill="#999999" transform="matrix(1.00589 0 0 1 -166.475 -15.6233)"/><path d="M370.687 251.884 369.296 251.884C367.677 252.002 366.079 251.463 364.863 250.389L364.863 250.389 364.863 250.389 364.863 250.389C363.848 251.342 362.491 251.844 361.1 251.781L354.812 251.781 354.812 248.791 360.791 248.791C361.372 248.847 361.95 248.661 362.389 248.276 362.785 247.803 362.971 247.188 362.904 246.575L362.904 233.02C362.904 232.659 362.904 232.453 363.42 232.453L365.275 232.453C365.558 232.423 365.812 232.628 365.842 232.911 365.846 232.947 365.846 232.983 365.842 233.02L365.842 247.4C365.803 247.771 365.914 248.142 366.151 248.43 366.853 248.932 367.717 249.153 368.574 249.049L370.429 249.049ZM360.791 255.749C361.074 255.72 361.328 255.925 361.358 256.208 361.362 256.244 361.362 256.28 361.358 256.316L361.358 258.687C361.394 258.941 361.216 259.175 360.963 259.211 360.906 259.219 360.847 259.216 360.791 259.203L358.781 259.203C358.526 259.233 358.296 259.051 358.266 258.797 358.262 258.76 358.262 258.724 358.266 258.687L358.266 256.316C358.266 255.956 358.266 255.749 358.781 255.749ZM365.945 255.749C366.228 255.72 366.482 255.925 366.512 256.208 366.516 256.244 366.516 256.28 366.512 256.316L366.512 258.687C366.548 258.941 366.371 259.175 366.117 259.211 366.06 259.219 366.002 259.216 365.945 259.203L364.399 259.203C364.15 259.262 363.9 259.108 363.84 258.859 363.827 258.803 363.824 258.744 363.832 258.687L363.832 256.316C363.802 256.033 364.007 255.779 364.29 255.749 364.326 255.746 364.363 255.746 364.399 255.749Z" fill="#999999" transform="matrix(1.00589 0 0 1 -166.475 -15.6233)"/><path d="M398.468 251.884 395.994 251.884C394.419 251.934 392.892 251.338 391.768 250.234L391.149 249.513C389.581 251.049 387.469 251.902 385.273 251.884L369.811 251.884 369.811 248.894 376.872 248.894 376.872 240.235C376.839 237.946 377.753 235.746 379.398 234.153 382.669 230.823 388.021 230.775 391.351 234.046 391.387 234.082 391.423 234.117 391.458 234.153 393.103 235.746 394.017 237.946 393.984 240.235L393.984 243.276C393.991 244.676 393.655 246.057 393.005 247.297 393.077 247.625 393.237 247.928 393.469 248.173 394.052 248.719 394.836 248.999 395.633 248.946L398.623 248.946ZM385.273 248.894C386.773 248.948 388.223 248.346 389.242 247.245 390.316 246.206 390.913 244.77 390.891 243.276L390.891 240.235C390.92 237.161 388.451 234.646 385.377 234.617 385.342 234.617 385.308 234.617 385.273 234.617 383.791 234.578 382.364 235.179 381.356 236.267 380.287 237.309 379.691 238.743 379.707 240.235L379.707 248.894Z" fill="#999999" transform="matrix(1.00589 0 0 1 -166.475 -15.6233)"/><path d="M430.166 251.884 428.826 251.884C427.259 251.948 425.733 251.371 424.6 250.286L424.084 249.667C422.782 251.136 420.892 251.949 418.93 251.884L397.798 251.884 397.798 248.894 404.189 248.894 404.189 233.432C404.189 233.071 404.189 232.916 404.756 232.916L406.612 232.916C406.866 232.886 407.097 233.068 407.127 233.322 407.131 233.359 407.131 233.395 407.127 233.432L407.127 237.091C409.764 234.017 413.427 232.003 417.435 231.422 419.731 231.329 421.946 232.275 423.466 233.999 425.054 235.919 425.863 238.365 425.734 240.854L425.734 246.472C425.702 247.028 425.908 247.572 426.301 247.967 426.884 248.513 427.668 248.793 428.465 248.74L430.372 248.74ZM422.641 241.06C422.665 239.759 422.383 238.47 421.816 237.298 420.999 235.587 419.224 234.547 417.332 234.669 414.652 234.669 411.216 236.902 407.024 241.369L407.024 248.946 418.827 248.946C420.68 249.256 422.434 248.006 422.744 246.153 422.807 245.781 422.807 245.401 422.744 245.029Z" fill="#999999" transform="matrix(1.00589 0 0 1 -166.475 -15.6233)"/><path d="M440.732 232.453C441.093 232.453 441.248 232.453 441.248 232.968L441.248 246.678C441.455 249.317 439.484 251.625 436.844 251.832 436.594 251.852 436.343 251.852 436.093 251.832L429.187 251.832 429.187 248.843 436.197 248.843C436.775 248.881 437.347 248.697 437.794 248.327 438.191 247.872 438.394 247.281 438.361 246.678L438.361 232.968C438.361 232.607 438.361 232.453 438.877 232.453ZM436.093 227.608C435.844 227.667 435.594 227.513 435.535 227.264 435.521 227.208 435.519 227.149 435.526 227.092L435.526 224.67C435.526 224.309 435.526 224.154 436.093 224.154L438.104 224.154C438.464 224.154 438.671 224.154 438.671 224.67L438.671 227.092C438.706 227.346 438.529 227.58 438.275 227.616 438.218 227.624 438.16 227.621 438.104 227.608ZM443.258 224.154C443.618 224.154 443.825 224.154 443.825 224.67L443.825 227.092C443.86 227.346 443.683 227.58 443.429 227.616 443.372 227.624 443.314 227.621 443.258 227.608L441.299 227.608C441.05 227.667 440.8 227.513 440.74 227.264 440.727 227.208 440.724 227.149 440.732 227.092L440.732 224.67C440.732 224.309 440.732 224.154 441.299 224.154Z" fill="#999999" transform="matrix(1.00589 0 0 1 -166.475 -15.6233)"/><path d="M488.305 231.628C490.579 231.597 492.763 232.511 494.335 234.153 495.98 235.746 496.894 237.946 496.861 240.235L496.861 250.544C496.867 250.929 496.718 251.3 496.449 251.575 496.174 251.844 495.803 251.993 495.418 251.987L466.039 251.987C461.192 251.959 457.277 248.021 457.277 243.173 457.343 239.736 459.336 236.627 462.431 235.133L463.307 234.72 463.72 234.72C463.853 234.761 463.965 234.854 464.029 234.978L464.905 236.679C464.871 236.816 464.776 236.93 464.647 236.988L463.823 237.401C461.911 238.429 460.678 240.386 460.576 242.555 460.556 244.104 461.17 245.594 462.277 246.678 463.338 247.787 464.813 248.403 466.348 248.379L482.12 248.379C480.771 246.82 480.038 244.823 480.058 242.761L480.058 239.72C480.025 237.431 480.939 235.23 482.584 233.638 484.164 232.261 486.211 231.542 488.305 231.628ZM493.872 240.235C493.9 237.161 491.431 234.646 488.357 234.617 488.34 234.617 488.322 234.617 488.305 234.617 486.823 234.578 485.396 235.179 484.388 236.267 483.314 237.305 482.717 238.742 482.739 240.235L482.739 243.276C482.7 244.84 483.339 246.343 484.491 247.4 485.499 248.487 486.926 249.088 488.408 249.049L493.975 249.049ZM486.81 227.608C486.561 227.667 486.311 227.513 486.252 227.264 486.238 227.208 486.235 227.149 486.243 227.092L486.243 224.876C486.208 224.622 486.385 224.388 486.639 224.352 486.696 224.345 486.754 224.347 486.81 224.361L488.82 224.361C489.075 224.33 489.305 224.512 489.336 224.766 489.34 224.803 489.34 224.839 489.336 224.876L489.336 227.092C489.366 227.347 489.184 227.577 488.93 227.608 488.894 227.612 488.857 227.612 488.82 227.608Z" fill="#999999" transform="matrix(1.00589 0 0 1 -166.475 -15.6233)"/><path d="M506.345 251.368C506.345 251.729 506.345 251.884 505.829 251.884L503.922 251.884C503.668 251.914 503.437 251.732 503.407 251.478 503.403 251.442 503.403 251.405 503.407 251.368L503.407 223.02C503.376 222.766 503.558 222.535 503.812 222.505 503.849 222.501 503.886 222.501 503.922 222.505L505.829 222.505C506.19 222.505 506.345 222.505 506.345 223.02Z" fill="#999999" transform="matrix(1.00589 0 0 1 -166.475 -15.6233)"/><path d="M523.972 251.884 517.787 251.884 517.787 253.43C518.112 256.945 515.529 260.058 512.013 260.384 511.636 260.419 511.257 260.42 510.88 260.388L508.819 260.388C508.564 260.419 508.334 260.237 508.303 259.983 508.299 259.946 508.299 259.909 508.303 259.873L508.303 257.708C508.273 257.453 508.455 257.223 508.709 257.193 508.745 257.188 508.782 257.188 508.819 257.193L510.88 257.193C511.961 257.3 513.039 256.965 513.87 256.265 514.56 255.429 514.893 254.355 514.797 253.275L514.797 232.659C514.768 232.376 514.973 232.122 515.256 232.092 515.292 232.088 515.328 232.088 515.364 232.092L517.271 232.092C517.524 232.056 517.761 232.234 517.797 232.487 517.802 232.544 517.802 232.603 517.787 232.659L517.787 248.534 523.972 248.534Z" fill="#999999" transform="matrix(1.00589 0 0 1 -166.475 -15.6233)"/><path d="M538.764 251.884 537.373 251.884C535.739 252.011 534.12 251.471 532.889 250.389L532.889 250.389 532.889 250.389 532.889 250.389C531.873 251.342 530.518 251.844 529.126 251.781L522.168 251.781 522.168 248.791 529.178 248.791C529.76 248.847 530.337 248.661 530.775 248.276 531.188 247.811 531.394 247.196 531.342 246.575L531.342 233.02C531.342 232.642 531.512 232.453 531.858 232.453L533.765 232.453C534.126 232.453 534.28 232.453 534.28 233.02L534.28 247.4C534.249 247.779 534.378 248.154 534.641 248.43 535.326 248.928 536.172 249.149 537.012 249.049L538.919 249.049ZM528.92 227.608C528.672 227.667 528.42 227.513 528.363 227.264 528.348 227.208 528.343 227.149 528.353 227.092L528.353 224.67C528.353 224.309 528.353 224.154 528.92 224.154L530.878 224.154C531.131 224.124 531.363 224.306 531.394 224.56 531.399 224.597 531.399 224.633 531.394 224.67L531.394 227.092C531.425 227.347 531.244 227.577 530.987 227.608 530.951 227.612 530.915 227.612 530.878 227.608ZM534.074 227.608C533.821 227.638 533.59 227.456 533.559 227.202 533.553 227.165 533.553 227.129 533.559 227.092L533.559 224.67C533.528 224.415 533.708 224.185 533.966 224.154 534.002 224.15 534.038 224.15 534.074 224.154L536.033 224.154C536.393 224.154 536.6 224.154 536.6 224.67L536.6 227.092C536.636 227.346 536.46 227.58 536.203 227.616 536.146 227.624 536.089 227.621 536.033 227.608Z" fill="#999999" transform="matrix(1.00589 0 0 1 -166.475 -15.6233)"/><path d="M552.371 231.628C554.861 231.593 557.257 232.603 558.969 234.411 560.752 236.16 561.736 238.563 561.7 241.06L561.7 244.977C561.824 246.879 561.154 248.746 559.845 250.131 558.469 251.45 556.593 252.124 554.691 251.987L537.579 251.987 537.579 248.997 554.691 248.997C555.778 249.091 556.861 248.737 557.68 248.018 558.371 247.182 558.706 246.109 558.608 245.029L558.608 241.112C558.608 237.573 555.752 234.697 552.217 234.669 549.676 234.519 547.233 235.664 545.722 237.71L545.155 238.483C545.021 238.54 544.872 238.54 544.743 238.483L544.382 238.483 542.836 237.349C542.687 237.263 542.589 237.108 542.578 236.937 542.542 236.819 542.542 236.693 542.578 236.576L543.145 235.803C545.279 232.892 548.779 231.309 552.371 231.628Z" fill="#999999" transform="matrix(1.00589 0 0 1 -166.475 -15.6233)"/><path d="M585.719 222.505C586.002 222.475 586.255 222.68 586.286 222.963 586.291 222.999 586.291 223.036 586.286 223.072L586.286 244.977C586.409 246.879 585.739 248.746 584.43 250.131 583.054 251.45 581.178 252.124 579.276 251.987L567.318 251.987C566.958 251.987 566.803 251.987 566.803 251.42L566.803 249.461C566.772 249.207 566.952 248.976 567.21 248.946 567.246 248.942 567.282 248.942 567.318 248.946L579.276 248.946C580.364 249.033 581.441 248.68 582.265 247.967 582.951 247.128 583.281 246.056 583.193 244.977L583.193 223.02C583.162 222.738 583.368 222.483 583.652 222.454 583.688 222.45 583.724 222.45 583.76 222.454ZM573.555 245.544C573.194 245.544 573.039 245.544 573.039 244.977L573.039 226.268C573.009 226.013 573.189 225.783 573.447 225.752 573.483 225.748 573.519 225.748 573.555 225.752L575.462 225.752C575.714 225.722 575.946 225.904 575.977 226.158 575.982 226.194 575.982 226.231 575.977 226.268L575.977 244.977C575.977 245.338 575.977 245.544 575.462 245.544Z" fill="#999999" transform="matrix(1.00589 0 0 1 -166.475 -15.6233)"/><path d="M633.962 251.884 632.364 251.884C630.73 252.011 629.112 251.471 627.88 250.389L627.88 250.389 627.88 250.389C626.88 251.329 625.54 251.83 624.169 251.781L610.253 251.781C607.923 251.817 605.681 250.883 604.068 249.204 602.387 247.569 601.454 245.312 601.49 242.967 601.49 241.309 601.954 239.684 602.831 238.277 603.671 236.842 604.902 235.679 606.387 234.927L607.263 234.514 607.675 234.514C607.773 234.474 607.887 234.474 607.985 234.514L608.861 236.215C608.881 236.317 608.881 236.422 608.861 236.524 608.84 236.707 608.722 236.865 608.552 236.937L607.675 237.349C606.691 237.846 605.866 238.615 605.305 239.565 604.727 240.512 604.423 241.6 604.428 242.709 604.428 245.906 607.005 248.505 610.201 248.534L623.653 248.534C624.689 248.721 625.684 248.033 625.87 246.997 625.911 246.772 625.911 246.542 625.87 246.317L625.87 223.02C625.839 222.766 626.019 222.535 626.277 222.505 626.313 222.501 626.349 222.501 626.385 222.505L628.24 222.505C628.488 222.446 628.74 222.599 628.797 222.849 628.813 222.905 628.818 222.963 628.807 223.02L628.807 247.4C628.787 247.777 628.916 248.148 629.168 248.43 629.854 248.924 630.699 249.144 631.539 249.049L633.601 249.049ZM612.933 237.091C612.763 237.123 612.603 237.012 612.572 236.844 612.567 236.807 612.567 236.768 612.572 236.731L612.572 235.854C612.541 235.686 612.649 235.525 612.819 235.494 612.855 235.486 612.897 235.486 612.933 235.494L614.067 235.494 614.067 232.968C614.067 231.289 615.427 229.927 617.108 229.927 618.339 229.874 619.468 230.624 619.891 231.783L619.891 232.195 619.891 232.195 619.891 232.195 619.066 232.504 618.499 232.504 618.499 232.092C618.329 231.532 617.793 231.167 617.211 231.216 616.824 231.204 616.453 231.353 616.18 231.628 615.912 231.884 615.762 232.238 615.767 232.607L615.767 234.978 619.942 234.978C619.942 234.978 620.303 234.978 620.303 235.339L620.303 236.215C620.303 236.215 620.303 236.576 619.942 236.576Z" fill="#999999" transform="matrix(1.00589 0 0 1 -166.475 -15.6233)"/><path d="M662.619 248.894 662.619 251.884 632.673 251.884 632.673 248.894 641.435 248.894C639.982 247.38 639.157 245.374 639.116 243.276L639.116 240.235C639.116 235.51 642.945 231.679 647.672 231.679 652.398 231.679 656.228 235.51 656.228 240.235L656.228 248.894ZM642.363 243.276C642.342 244.77 642.94 246.206 644.012 247.245 645.022 248.333 646.445 248.934 647.929 248.894L653.496 248.894 653.496 240.235C653.553 238.736 652.95 237.286 651.847 236.267 649.718 234.089 646.223 234.05 644.048 236.18 644.017 236.208 643.992 236.237 643.961 236.267 642.889 237.305 642.291 238.742 642.311 240.235ZM644.115 227.814C643.863 227.844 643.631 227.662 643.6 227.408 643.595 227.372 643.595 227.335 643.6 227.298L643.6 224.876C643.569 224.621 643.749 224.391 644.007 224.361 644.043 224.356 644.079 224.356 644.115 224.361L646.125 224.361C646.486 224.361 646.692 224.361 646.692 224.876L646.692 227.298C646.728 227.552 646.553 227.787 646.296 227.822 646.239 227.83 646.182 227.827 646.125 227.814ZM649.527 227.814C649.28 227.873 649.027 227.72 648.971 227.47 648.955 227.414 648.95 227.356 648.96 227.298L648.96 224.876C648.96 224.515 648.96 224.361 649.527 224.361L651.486 224.361C651.847 224.361 652.053 224.361 652.053 224.876L652.053 227.298C652.053 227.659 652.053 227.814 651.486 227.814Z" fill="#999999" transform="matrix(1.00589 0 0 1 -166.475 -15.6233)"/><path d="M661.227 251.884 661.227 248.894 667.515 248.894C668.092 248.939 668.67 248.754 669.113 248.379 669.489 247.916 669.675 247.325 669.628 246.73L669.628 232.968C669.628 232.607 669.628 232.453 670.195 232.453L672.051 232.453C672.298 232.393 672.551 232.547 672.608 232.796 672.623 232.853 672.628 232.911 672.618 232.968L672.618 246.678C672.793 249.348 670.773 251.655 668.103 251.832 667.891 251.846 667.675 251.846 667.464 251.832ZM665.917 255.749C666.201 255.72 666.453 255.925 666.484 256.208 666.49 256.244 666.49 256.28 666.484 256.316L666.484 258.687C666.52 258.941 666.345 259.175 666.088 259.211 666.031 259.219 665.974 259.216 665.917 259.203L663.907 259.203C663.655 259.233 663.423 259.051 663.392 258.797 663.387 258.76 663.387 258.724 663.392 258.687L663.392 256.316C663.392 255.956 663.392 255.749 663.907 255.749ZM671.072 255.749C671.355 255.72 671.608 255.925 671.638 256.208 671.644 256.244 671.644 256.28 671.638 256.316L671.638 258.687C671.675 258.941 671.499 259.175 671.242 259.211 671.185 259.219 671.128 259.216 671.072 259.203L669.061 259.203C668.809 259.233 668.577 259.051 668.546 258.797 668.541 258.76 668.541 258.724 668.546 258.687L668.546 256.316C668.546 255.956 668.546 255.749 669.061 255.749Z" fill="#999999" transform="matrix(1.00589 0 0 1 -166.475 -15.6233)"/><path d="M690.297 251.884 684.112 251.884 684.112 253.43C684.436 256.945 681.854 260.058 678.339 260.384 677.963 260.419 677.581 260.42 677.205 260.388L675.195 260.388C674.942 260.419 674.71 260.237 674.679 259.983 674.674 259.946 674.674 259.909 674.679 259.873L674.679 257.708C674.649 257.453 674.829 257.223 675.087 257.193 675.123 257.188 675.159 257.188 675.195 257.193L677.257 257.193C678.339 257.3 679.416 256.965 680.246 256.265 680.937 255.429 681.272 254.355 681.174 253.275L681.174 232.659C681.107 232.411 681.256 232.157 681.504 232.092 681.581 232.071 681.663 232.071 681.741 232.092L683.648 232.092C684.009 232.092 684.163 232.092 684.163 232.659L684.163 248.534 690.348 248.534Z" fill="#999999" transform="matrix(1.00589 0 0 1 -166.475 -15.6233)"/><path d="M708.078 231.628C710.372 231.542 712.583 232.488 714.109 234.205 715.696 236.125 716.505 238.572 716.377 241.06L716.377 244.977C716.676 248.494 714.062 251.586 710.547 251.884 710.187 251.914 709.826 251.914 709.47 251.884L688.286 251.884 688.286 248.894 694.678 248.894 694.678 223.124C694.678 222.763 694.678 222.608 695.245 222.608L697.1 222.608C697.353 222.578 697.585 222.76 697.616 223.014 697.621 223.05 697.621 223.087 697.616 223.124L697.616 237.091C700.327 234.065 704.043 232.124 708.078 231.628ZM713.233 241.008C713.258 239.707 712.975 238.418 712.408 237.246 711.573 235.528 709.779 234.488 707.872 234.617 706.006 234.79 704.228 235.467 702.718 236.576 700.749 237.857 699.007 239.46 697.564 241.318L697.564 248.894 709.367 248.894C711.223 249.205 712.975 247.954 713.284 246.102 713.346 245.729 713.346 245.349 713.284 244.977Z" fill="#999999" transform="matrix(1.00589 0 0 1 -166.475 -15.6233)"/></g></g></g></g></svg>