<svg xmlns="http://www.w3.org/2000/svg" viewBox="0 0 2347 800">
  <defs>
    <linearGradient x1="3373.5" y1="923" x2="3373.5" y2="123" gradientUnits="userSpaceOnUse" spreadMethod="reflect" id="b">
      <stop offset="0" stop-color="#FC3F04"/>
      <stop offset=".15" stop-color="#FC3F04"/>
      <stop offset="1" stop-color="#FFC000"/>
    </linearGradient>
    <clipPath>
      <path d="M1426 123h2347v800H1426z"/>
    </clipPath>
  </defs>
  <g transform="translate(-1426 -123)">
    <path d="M1717.94 748.758h10.68c1.97 0 2.96.988 2.96 2.963v12.698c0 1.904-.99 2.857-2.96 2.857h-10.68c-1.91 0-2.86-.953-2.86-2.857v-12.698c0-1.975.95-2.963 2.86-2.963Zm-28.87 0h10.68c1.97 0 2.96.988 2.96 2.963v12.698c0 1.904-.99 2.857-2.96 2.857h-10.68c-1.91 0-2.86-.953-2.86-2.857v-12.698c0-1.975.95-2.963 2.86-2.963Zm499.26-1.481h10.68c1.84 0 2.75.987 2.75 2.962v12.698c0 1.905-.91 2.857-2.75 2.857h-10.68c-1.97 0-2.96-.952-2.96-2.857v-12.698c0-1.975.99-2.962 2.96-2.962Zm-271.58 0h10.68c1.83 0 2.75.987 2.75 2.962v12.698c0 1.905-.92 2.857-2.75 2.857h-10.68c-1.97 0-2.96-.952-2.96-2.857v-12.698c0-1.975.99-2.962 2.96-2.962Zm527.6-31.427c-8.67 8.183-19.04 12.274-31.09 12.274h-29.82v1.164c0 8.183 2.92 15.202 8.77 21.057 5.85 5.855 12.87 8.783 21.05 8.783 8.25 0 15.3-2.928 21.15-8.783 5.85-5.855 8.78-12.874 8.78-21.057v-9.1c0-1.552.38-2.998 1.16-4.338Zm-31.09-79.467c-8.18 0-15.2 2.892-21.05 8.677-5.85 5.855-8.77 12.909-8.77 21.163v46.029h29.82c8.25 0 15.3-2.892 21.15-8.677 5.85-5.855 8.78-12.909 8.78-21.163v-16.189c0-8.254-2.93-15.308-8.78-21.163-5.85-5.785-12.9-8.677-21.15-8.677Zm-328.75-.106c-8.25 0-15.3 2.928-21.15 8.783-5.86 5.785-8.78 12.804-8.78 21.057v16.295c0 8.183 2.92 15.202 8.78 21.057 5.85 5.856 12.9 8.783 21.15 8.783h29.82v-46.135c0-8.253-2.93-15.272-8.78-21.057-5.85-5.855-12.87-8.783-21.04-8.783Zm-271.59 0c-8.25 0-15.3 2.928-21.15 8.783-5.85 5.785-8.78 12.804-8.78 21.057v16.295c0 8.183 2.93 15.202 8.78 21.057 5.85 5.856 12.9 8.783 21.15 8.783h29.82v-46.135c0-8.253-2.92-15.272-8.77-21.057-5.86-5.855-12.87-8.783-21.05-8.783Zm854-11.533h10.26c1.91 0 2.86.952 2.86 2.857v108.777c0 11.569-3.25 20.598-9.73 27.088-6.56 6.561-15.62 9.841-27.18 9.841h-10.79c-1.9 0-2.85-.988-2.85-2.963v-10.052c0-1.976.95-2.963 2.85-2.963h10.79c7.26 0 12.58-1.658 15.97-4.973 3.38-3.386 5.07-8.712 5.07-15.978V627.601c0-1.905.92-2.857 2.75-2.857Zm-673.8 0h10.26c1.9 0 2.85.952 2.85 2.857v108.777c0 11.569-3.24 20.598-9.72 27.088-6.56 6.561-15.62 9.841-27.18 9.841h-10.79c-1.9 0-2.85-.988-2.85-2.963v-10.052c0-1.976.95-2.963 2.85-2.963h10.79c7.26 0 12.58-1.658 15.97-4.973 3.38-3.386 5.07-8.712 5.07-15.978V627.601c0-1.905.92-2.857 2.75-2.857Zm-430.07-.106h10.16c1.97 0 2.96.988 2.96 2.963v75.763c0 2.469.6 4.303 1.8 5.502 2.18 2.257 6.48 3.386 12.9 3.386h37.53c3.81 0 6.63-.952 8.46-2.857 1.9-1.834 2.86-4.832 2.86-8.994v-72.8c0-1.975.95-2.963 2.85-2.963h10.05c1.97 0 2.96.988 2.96 2.963v75.763c0 2.469.6 4.303 1.8 5.502 2.25 2.257 6.55 3.386 12.9 3.386h38.03c3.95-.07 6.81-1.023 8.57-2.857 1.9-1.905 2.86-4.867 2.86-8.888v-73.012c0-1.905.98-2.857 2.96-2.857h10.04c1.98 0 2.96.952 2.96 2.857v73.012c0 8.465-2.53 15.202-7.61 20.21-5.08 4.938-11.74 7.407-19.99 7.407h-35.18c-10.57 0-18.5-2.645-23.79-7.936-.14-.141-.25-.282-.32-.423-.07.141-.21.317-.42.529-.14.212-.25.352-.32.423-4.94 4.938-11.63 7.407-20.09 7.407h-34.47c-10.57 0-18.51-2.645-23.79-7.936-.07-.071-.14-.141-.22-.211-.07-.071-.1-.142-.1-.212-.35.423-.64.741-.85.952-4.86 4.938-11.52 7.407-19.98 7.407h-75.72c-12.97 0-24.01-4.55-33.1-13.65-9.17-9.241-13.75-20.316-13.75-33.225 0-8.959 2.36-17.319 7.09-25.079 4.79-7.83 11.17-13.755 19.14-17.776l4.33-2.328c.5-.212.95-.318 1.38-.318.28 0 .6.071.95.212.77.211 1.34.67 1.69 1.375l4.55 8.995c.28.564.42 1.093.42 1.587 0 .917-.56 1.693-1.69 2.328l-4.55 2.328c-5.29 2.68-9.52 6.631-12.69 11.851-3.17 5.22-4.76 10.828-4.76 16.825 0 8.606 3.03 15.907 9.1 21.903 6.06 6.067 13.36 9.1 21.89 9.1h75.61c4.02 0 6.98-.952 8.88-2.857 1.98-1.905 2.96-4.903 2.96-8.994v-72.8c0-1.975.92-2.963 2.75-2.963Zm521.46-4.233c12.54 0 23.3 4.48 32.25 13.439 8.95 8.888 13.43 19.646 13.43 32.273v46.135h58.14c4.02-.07 6.98-.987 8.89-2.751 1.9-1.975 2.85-4.973 2.85-8.994v-73.012c0-1.905.95-2.857 2.86-2.857h10.15c1.9 0 2.85.952 2.85 2.857v72.906c0 8.465-2.5 15.237-7.5 20.316-4.94 4.938-11.64 7.407-20.1 7.407h-58.14v2.54c0 11.498-4.23 21.48-12.69 29.945-8.39 8.465-18.37 12.698-29.93 12.698h-22.52c-1.84 0-2.75-.953-2.75-2.857v-10.158c0-1.905.91-2.857 2.75-2.857h22.52c7.26 0 13.54-2.646 18.83-7.936 5.28-5.361 7.93-11.64 7.93-18.835v-2.54h-29.82c-12.62 0-23.41-4.444-32.36-13.333-8.96-8.958-13.43-19.751-13.43-32.379v-16.295c0-12.627 4.47-23.385 13.43-32.273 8.95-8.959 19.74-13.439 32.36-13.439Zm-271.59 0c12.55 0 23.3 4.48 32.26 13.439 8.95 8.888 13.43 19.646 13.43 32.273v46.135h58.14c4.02-.07 6.98-.987 8.88-2.751 1.91-1.975 2.86-4.973 2.86-8.994v-73.012c0-1.905.95-2.857 2.85-2.857h10.16c1.9 0 2.85.952 2.85 2.857v72.906c0 8.465-2.5 15.237-7.51 20.316-4.93 4.938-11.63 7.407-20.09 7.407h-58.14v2.54c0 11.498-4.23 21.48-12.69 29.945-8.39 8.465-18.37 12.698-29.93 12.698h-22.53c-1.83 0-2.75-.953-2.75-2.857v-10.158c0-1.905.92-2.857 2.75-2.857h22.53c7.26 0 13.53-2.646 18.82-7.936 5.29-5.361 7.93-11.64 7.93-18.835v-2.54h-29.82c-12.62 0-23.4-4.444-32.36-13.333-8.95-8.958-13.43-19.751-13.43-32.379v-16.295c0-12.627 4.48-23.385 13.43-32.273 8.96-8.959 19.74-13.439 32.36-13.439Zm942.43-.105c10.78 0 20.02 3.844 27.7 11.533 7.62 7.619 11.43 16.825 11.43 27.618v34.601c0 12.698-4.06 21.903-12.17 27.618-6.13 4.303-14.38 6.454-24.74 6.454h-46.43c-1.9 0-2.85-.952-2.85-2.857v-10.158c0-1.905.95-2.857 2.85-2.857h46.43c8.25 0 13.96-1.587 17.13-4.762 2.61-2.68 3.91-7.16 3.91-13.438v-34.601c0-6.42-2.25-11.887-6.77-16.401-4.58-4.515-10.08-6.773-16.49-6.773-9.17 0-16.01 1.588-20.52 4.762l-4.12 2.963c-.5.353-1.1.529-1.8.529h-.32c-.77-.141-1.41-.529-1.9-1.164l-5.92-8.254c-.36-.564-.53-1.128-.53-1.693v-.423c.21-.846.6-1.481 1.16-1.905l4.23-2.962c7.19-5.221 17.1-7.83 29.72-7.83Zm-1234.81-21.163h10.68c1.91 0 2.86.987 2.86 2.962v12.698c0 1.905-.95 2.857-2.86 2.857h-10.68c-1.97 0-2.96-.952-2.96-2.857v-12.698c0-1.975.99-2.962 2.96-2.962Zm-28.97 0h10.68c1.97 0 2.96.987 2.96 2.962v12.698c0 1.905-.99 2.857-2.96 2.857h-10.68c-1.84 0-2.75-.952-2.75-2.857v-12.698c0-1.975.91-2.962 2.75-2.962Zm150.68-18.729h10.68c1.98 0 2.97.952 2.97 2.856v12.804c0 1.905-.99 2.857-2.97 2.857h-10.68c-1.9 0-2.85-.952-2.85-2.857v-12.804c0-1.904.95-2.856 2.85-2.856Zm1189.74-8.783h10.26c1.83 0 2.75.952 2.75 2.857v150.785c0 1.905-.92 2.857-2.75 2.857h-10.26c-1.9 0-2.85-.952-2.85-2.857V574.482c0-1.905.95-2.857 2.85-2.857Zm-529.41 0h10.04c1.98 0 2.96.987 2.96 2.963v125.919c0 4.021.92 6.983 2.75 8.888 1.98 1.905 4.83 2.857 8.57 2.857h40.67v-46.029c0-12.627 4.48-23.42 13.43-32.379 8.96-8.889 19.71-13.333 32.26-13.333 12.62 0 23.4 4.444 32.36 13.333 8.88 8.959 13.32 19.752 13.32 32.379v16.189c0 11.993-4.05 22.363-12.16 31.11 1.27-.847 2.68-1.27 4.23-1.27h141.06c4.09 0 7.05-.952 8.88-2.857 1.98-1.905 2.96-4.867 2.96-8.888v-20.528c0-9.877-2.96-17.848-8.88-23.915-5.92-6.066-13.68-9.099-23.27-9.099h-48.75c-2.18 0-4.05-.776-5.6-2.328-1.55-1.552-2.33-3.422-2.33-5.608 0-18.553 4.72-33.05 14.17-43.49 9.52-10.44 22.67-15.661 39.45-15.661h17.98c1.9 0 2.85.953 2.85 2.857v10.158c0 1.905-.95 2.857-2.85 2.857h-17.98c-22.56 0-35.01 11.746-37.33 35.237h40.39c13.89 0 25.38 4.62 34.48 13.861 9.02 9.241 13.54 20.952 13.54 35.131v20.528c0 8.465-2.51 15.202-7.51 20.21-5.01 4.938-11.71 7.407-20.1 7.407h-133.23v1.164c0 12.557-4.44 23.315-13.32 32.274-8.96 8.959-19.74 13.438-32.36 13.438-12.55 0-23.3-4.479-32.26-13.438-8.95-8.959-13.43-19.717-13.43-32.274v-1.164H2327.22c-8.39 0-15.06-2.469-19.99-7.407-5.01-4.938-7.51-11.675-7.51-20.21V574.588c0-1.976.95-2.963 2.86-2.963Zm104.8-89.917h12.21c2.17 0 3.26 1.129 3.26 3.386v14.512c0 2.176-1.09 3.265-3.26 3.265h-12.21c-2.25 0-3.38-1.089-3.38-3.265v-14.512c0-2.257 1.13-3.386 3.38-3.386Zm384.17-126.856c-9.42 0-17.44 3.345-24.05 10.037-6.69 6.611-10.03 14.632-10.03 24.065v52.726h34.08c9.43 0 17.49-3.346 24.18-10.037 6.68-6.692 10.03-14.714 10.03-24.066v-18.623c0-9.433-3.35-17.454-10.03-24.065-6.69-6.692-14.75-10.037-24.18-10.037Zm-364.47-18.14c15.79 0 29.29 5.563 40.49 16.688 11.2 11.207 16.8 24.71 16.8 40.512v37.61c0 2.902.72 5.038 2.18 6.409 2.41 2.418 7.25 3.668 14.5 3.749h144.33c4.35 0 7.57-1.089 9.67-3.265 2.26-2.177 3.38-5.603 3.38-10.279v-83.201c0-2.257 1.05-3.386 3.15-3.386h11.6c2.17 0 3.26 1.129 3.26 3.386v86.587c0 2.821.73 4.917 2.18 6.288 2.49 2.58 7.37 3.87 14.62 3.87h46.1v-52.726c0-14.431 5.08-26.726 15.23-36.884 10.23-10.239 22.56-15.358 36.98-15.358 14.43 0 26.75 5.119 36.99 15.358 10.23 10.158 15.35 22.453 15.35 36.884v18.623c0 14.351-5.12 26.645-15.35 36.884-10.24 10.239-22.56 15.358-36.99 15.358H2696.38c-12.16 0-21.27-3.023-27.31-9.07 0-.08-.04-.161-.12-.241-.08-.081-.12-.162-.12-.242l-1.09 1.088h.12c-5.64 5.644-13.25 8.465-22.84 8.465h-140.83c-12.09 0-21.19-3.063-27.31-9.191-.65-.644-1.53-1.733-2.66-3.265-7.42 8.304-18.09 12.456-32.03 12.456H1493.57v9.433c0 13.222-3.75 23.541-11.24 30.958-7.5 7.498-17.81 11.247-30.94 11.247h-12.45c-2.18 0-3.26-1.089-3.26-3.266v-11.609c0-2.176 1.08-3.265 3.26-3.265h12.45c8.3 0 14.34-1.935 18.13-5.804 3.86-3.87 5.8-9.957 5.8-18.261V345.056c0-2.257 1.13-3.386 3.38-3.386h11.6c2.18 0 3.27 1.129 3.27 3.386v96.624H2442.19c8.3-.081 14.38-1.976 18.25-5.684 3.87-3.95 5.8-10.037 5.8-18.26v-23.824c0-10.803-3.83-19.994-11.48-27.572-7.66-7.659-16.88-11.488-27.68-11.488-17.56 0-30.78 6.167-39.64 18.502l-3.38 4.716c-.73 1.048-1.57 1.572-2.54 1.572-.65 0-1.33-.282-2.06-.846l-9.42-6.651c-.73-.565-1.17-1.29-1.33-2.177v-.605c0-.645.2-1.29.6-1.935l3.39-4.716c12.4-17.333 30.53-26 54.38-26ZM2677.77 291h12.09c2.25 0 3.38 1.089 3.38 3.265v14.633c0 2.177-1.13 3.265-3.38 3.265h-12.09c-2.17 0-3.26-1.088-3.26-3.265v-14.633c0-2.176 1.09-3.265 3.26-3.265Zm-32.99 0h12.32c2.18 0 3.27 1.089 3.27 3.265v14.633c0 2.177-1.09 3.265-3.27 3.265h-12.32c-2.26 0-3.39-1.088-3.39-3.265v-14.633c0-2.176 1.13-3.265 3.39-3.265Z" fill="#E0E0E0"/>
    <path d="M3315.19 703.568c28.06 0 50.81 22.706 50.81 50.716S3343.25 805 3315.19 805c-28.07 0-50.82-22.706-50.82-50.716s22.75-50.716 50.82-50.716Zm-150.25-237.793c55.75 0 100.95 45.107 100.95 100.749 0 55.642-45.2 100.749-100.95 100.749S3064 622.166 3064 566.524c0-55.642 45.19-100.749 100.94-100.749ZM3309.16 278c26.34 0 47.68 21.306 47.68 47.589 0 26.283-21.34 47.589-47.68 47.589-26.33 0-47.68-21.306-47.68-47.589 0-26.283 21.35-47.589 47.68-47.589Z" fill="#FFD966"/>
    <path d="M3373.96 123c82.84 0 159.79 25.184 223.62 68.314l29.23 21.857-314.69 61.677c-25.46 4.99-42.05 29.679-37.06 55.144 4.99 25.464 29.67 42.062 55.13 37.072l371.59-72.831 3.83 5.123c10.79 15.96 20.45 32.74 28.87 50.228l1.52 3.848-12.06 1.14-577.6 113.913c-52.52 10.357-86.7 61.329-76.34 113.848 10.36 52.52 61.32 86.7 113.84 76.343l577.6-113.914 11.56-3.514-1.14 22.65c-1.28 12.606-3.15 25.04-5.57 37.272l-3 12.12-451.19 91.732c-26.62 5.411-43.81 31.379-38.4 57.999 5.41 26.62 31.37 43.813 57.99 38.402l387.37-78.755-27.5 43.491C3618.46 861.516 3503.39 923 3373.96 923 3153.07 923 2974 743.914 2974 523s179.07-400 399.96-400Z" fill="url(#b)"/>
  </g>
</svg>
