<svg width="239" height="235" xmlns="http://www.w3.org/2000/svg" xmlns:xlink="http://www.w3.org/1999/xlink" overflow="hidden"><defs><clipPath id="clip0"><rect x="2362" y="-469" width="239" height="235"/></clipPath><linearGradient x1="2502.63" y1="-236.77" x2="2457.31" y2="-466.084" gradientUnits="userSpaceOnUse" spreadMethod="reflect" id="fill1"><stop offset="0" stop-color="#FC3F04"/><stop offset="0.15" stop-color="#FC3F04"/><stop offset="1" stop-color="#FFC000"/></linearGradient><linearGradient x1="2396.59" y1="-364.984" x2="2356.09" y2="-300.047" gradientUnits="userSpaceOnUse" spreadMethod="reflect" id="fill2"><stop offset="0" stop-color="#FFFFFF" stop-opacity="0"/><stop offset="0.02" stop-color="#FFFFFF" stop-opacity="0"/><stop offset="1" stop-color="#FFFFFF" stop-opacity="0.4"/></linearGradient></defs><g clip-path="url(#clip0)" transform="translate(-2362 469)"><path d="M2436.93-373.985C2421.21-370.879 2410.94-355.894 2413.98-340.516 2416.64-327.061 2428.61-317.762 2442.09-317.729L2447.94-318.296 2426.14-313.989C2410.42-310.883 2395.22-320.831 2392.18-336.209 2389.9-347.742 2395.11-359.054 2404.49-365.3L2415.13-369.677 2436.93-373.985Z" fill="#FFD966" fill-rule="evenodd"/><path d="M2562.26-290.134 2471.94-272.283 2467.44-272.066C2463.05-272.508 2459.11-274.848 2456.67-278.386L2454.41-283.752 2454.46-289.574C2455.67-295.173 2460.17-299.824 2466.26-301.026L2492.81-306.275 2485.09-302.197C2483.05-300.184 2481.62-297.622 2481.01-294.823L2480.97-289 2483.23-283.635C2486.48-278.917 2492.41-276.329 2498.5-277.532L2562.26-290.134Z" fill="#FFD966" fill-rule="evenodd"/><path d="M2458.93-466.405C2479.48-470.464 2499.8-469.109 2518.39-463.343 2529.54-459.883 2540.06-454.835 2549.62-448.416L2553.48-445.357 2469.68-428.794 2469.68-428.794 2466.76-428.218 2460.83-424.949C2458.81-422.835 2457.41-420.13 2456.84-417.162L2456.86-410.974 2459.19-405.243C2460.85-402.716 2463.17-400.746 2465.84-399.559L2468.77-398.75 2578.52-420.441 2586.77-407.962 2588.98-403.415 2416.29-369.284 2416.29-369.284 2415.51-369.13C2399.79-366.024 2389.51-351.039 2392.55-335.661 2395.59-320.283 2410.8-310.335 2426.52-313.441L2449.09-317.903 2449.09-317.903 2600.75-347.877 2600.25-339.771 2597.62-326.367 2493.97-305.881 2493.97-305.882 2466.63-300.479C2460.55-299.276 2456.04-294.625 2454.83-289.027L2454.78-283.205 2457.04-277.839C2460.29-273.121 2466.23-270.534 2472.31-271.736L2473.09-271.89 2584.46-293.901 2581.28-288.223C2564.21-262.694 2537.12-243.586 2504.26-237.09 2439.54-224.299 2376.92-265.264 2364.41-328.587 2351.89-391.91 2394.21-453.614 2458.93-466.405Z" fill="url(#fill1)" fill-rule="evenodd"/><path d="M2366.38-383.823 2401.6-361.86 2400.78-361.195C2394.33-354.751 2391.17-345.288 2393.2-335.598 2394.82-327.847 2399.45-321.418 2405.62-317.29L2407.99-316.004 2386.29-281.208 2383.06-285.441C2374.29-298.173 2367.86-312.771 2364.53-328.731 2361.19-344.691 2361.27-360.501 2364.26-375.426Z" fill="url(#fill2)" fill-rule="evenodd"/><path d="M2560.85-416.8 2470.53-398.949 2466.03-398.732C2461.64-399.173 2457.69-401.513 2455.26-405.051L2453-410.417 2453.05-416.239C2454.26-421.838 2458.76-426.489 2464.85-427.691L2491.4-432.94 2483.67-428.862C2481.64-426.85 2480.21-424.287 2479.6-421.488L2479.55-415.666 2481.81-410.3C2485.06-405.582 2491-402.995 2497.08-404.197L2560.85-416.8Z" fill="#FFD966" fill-rule="evenodd"/></g></svg>