<svg width="1280" height="720" xmlns="http://www.w3.org/2000/svg" xmlns:xlink="http://www.w3.org/1999/xlink" overflow="hidden"><defs><filter id="fx0" x="-10%" y="-10%" width="120%" height="120%" filterUnits="userSpaceOnUse" primitiveUnits="userSpaceOnUse"><feComponentTransfer color-interpolation-filters="sRGB"><feFuncR type="discrete" tableValues="0 0"/><feFuncG type="discrete" tableValues="0 0"/><feFuncB type="discrete" tableValues="0 0"/><feFuncA type="linear" slope="0.101961" intercept="0"/></feComponentTransfer><feGaussianBlur stdDeviation="7.55556 7.55556"/></filter><filter id="fx1" x="-10%" y="-10%" width="120%" height="120%" filterUnits="userSpaceOnUse" primitiveUnits="userSpaceOnUse"><feComponentTransfer color-interpolation-filters="sRGB"><feFuncR type="discrete" tableValues="0 0"/><feFuncG type="discrete" tableValues="0 0"/><feFuncB type="discrete" tableValues="0 0"/><feFuncA type="linear" slope="0.101961" intercept="0"/></feComponentTransfer><feGaussianBlur stdDeviation="7.55556 7.55556"/></filter><filter id="fx2" x="-10%" y="-10%" width="120%" height="120%" filterUnits="userSpaceOnUse" primitiveUnits="userSpaceOnUse"><feComponentTransfer color-interpolation-filters="sRGB"><feFuncR type="discrete" tableValues="0 0"/><feFuncG type="discrete" tableValues="0 0"/><feFuncB type="discrete" tableValues="0 0"/><feFuncA type="linear" slope="0.101961" intercept="0"/></feComponentTransfer><feGaussianBlur stdDeviation="7.55556 7.55556"/></filter><clipPath id="clip3"><rect x="0" y="0" width="1280" height="720"/></clipPath><linearGradient x1="663.915" y1="539.122" x2="603.931" y2="235.616" gradientUnits="userSpaceOnUse" spreadMethod="reflect" id="fill4"><stop offset="0" stop-color="#FC3F04"/><stop offset="0.15" stop-color="#FC3F04"/><stop offset="1" stop-color="#FFC000"/></linearGradient><linearGradient x1="523.558" y1="369.426" x2="469.953" y2="455.371" gradientUnits="userSpaceOnUse" spreadMethod="reflect" id="fill5"><stop offset="0" stop-color="#FFFFFF" stop-opacity="0"/><stop offset="0.02" stop-color="#FFFFFF" stop-opacity="0"/><stop offset="1" stop-color="#FFFFFF" stop-opacity="0.4"/></linearGradient><clipPath id="clip6"><rect x="-7" y="-30" width="269" height="269"/></clipPath><clipPath id="clip7"><rect x="0" y="0" width="257" height="231"/></clipPath><clipPath id="clip8"><rect x="-26" y="-7" width="327" height="429"/></clipPath><clipPath id="clip9"><rect x="0" y="0" width="295" height="417"/></clipPath><clipPath id="clip10"><rect x="-7" y="-7" width="242" height="246"/></clipPath><clipPath id="clip11"><rect x="0" y="0" width="204" height="211"/></clipPath></defs><g clip-path="url(#clip3)"><rect x="0" y="0" width="1280" height="720" fill="#F2F2F2"/><path d="M576.956 357.512C556.154 361.623 542.593 381.668 546.668 402.284 550.233 420.323 566.118 432.821 583.97 432.909L591.707 432.168 562.862 437.869C542.06 441.98 521.893 428.601 517.819 407.986 514.763 392.524 521.627 377.383 534.026 369.045L548.106 363.214 576.956 357.512Z" fill="#FFD966" fill-rule="evenodd"/><path d="M742.602 469.354 623.058 492.98 617.106 493.255C611.293 492.647 606.057 489.492 602.816 484.734L599.804 477.525 599.847 469.712C601.43 462.202 607.378 455.977 615.431 454.385L650.579 447.439 640.361 452.883C637.669 455.576 635.786 459.01 634.995 462.765L634.952 470.578 637.964 477.788C642.285 484.131 650.154 487.625 658.207 486.034L742.602 469.354Z" fill="#FFD966" fill-rule="evenodd"/><path d="M606.077 235.192C633.264 229.819 660.169 231.612 684.763 239.244 699.52 243.824 713.444 250.505 726.098 259L731.217 263.049 620.294 284.971 620.295 284.971 616.437 285.733 608.582 290.059C605.911 292.857 604.057 296.439 603.3 300.367L603.331 308.556 606.418 316.142C608.612 319.487 611.689 322.093 615.224 323.665L619.099 324.735 764.358 296.027 775.277 312.543 778.201 318.561 549.635 363.734 549.633 363.735 548.602 363.939C527.8 368.05 514.197 387.882 518.22 408.236 522.242 428.589 542.367 441.756 563.169 437.645L593.051 431.739 593.047 431.739 793.779 392.067 793.115 402.796 789.631 420.537 652.446 447.65 652.446 447.65 616.266 454.8C608.213 456.392 602.251 462.548 600.649 469.958L600.584 477.664 603.575 484.766C607.876 491.009 615.732 494.434 623.784 492.843L624.817 492.639 772.219 463.506 768.001 471.022C745.414 504.81 709.56 530.101 666.061 538.698 580.402 555.627 497.533 501.409 480.969 417.598 464.405 333.788 520.418 252.121 606.077 235.192Z" fill="url(#fill4)" fill-rule="evenodd"/><path d="M483.579 344.491 530.187 373.561 529.111 374.441C520.567 382.97 516.395 395.494 519.075 408.319 521.219 418.578 527.343 427.087 535.51 432.55L538.656 434.253 509.931 480.306 505.66 474.704C494.049 457.852 485.538 438.531 481.124 417.408 476.71 396.284 476.81 375.359 480.771 355.605Z" fill="url(#fill5)" fill-rule="evenodd"/><path d="M740.963 300.846 621.419 324.472 615.469 324.752C609.657 324.154 604.426 321.024 601.192 316.299L598.189 309.135 598.241 301.367C599.832 293.9 605.786 287.705 613.839 286.113L648.986 279.167 638.765 284.59C636.071 287.272 634.184 290.687 633.389 294.421L633.337 302.188 636.34 309.352C640.652 315.652 648.515 319.117 656.568 317.526L740.963 300.846Z" fill="#FFD966" fill-rule="evenodd"/><path d="M200.431-2.58904C264.174 61.1547 264.175 164.503 200.432 228.246 136.689 291.989 33.3407 291.988-30.4031 228.245-94.1468 164.501-94.1474 61.1526-30.4044-2.59038 33.3385-66.3333 136.687-66.3327 200.431-2.58904Z" fill="#FFC248" fill-rule="evenodd"/><path d="M1178.84-231.872C1242.59-168.128 1242.59-64.7797 1178.84-1.03671 1115.1 62.7062 1011.75 62.7057 948.008-1.03805 884.264-64.7817 884.264-168.13 948.007-231.873 1011.75-295.616 1115.1-295.615 1178.84-231.872Z" fill="#FFC248" fill-rule="evenodd"/><path d="M75 180.5 87.0001 188 87.0001 173Z" fill-rule="evenodd"/><path d="M75 166 87.0001 173 87.0001 159Z" fill-rule="evenodd"/><path d="M75 151.491 87.0001 159 87.0001 144Z" fill-rule="evenodd"/><path d="M75 137 87.0001 144 87.0001 130Z" fill-rule="evenodd"/><path d="M87 173 100 180 100 166Z" fill-rule="evenodd"/><path d="M87 158.509 100 166 100 151Z" fill-rule="evenodd"/><path d="M87 144 100 151 100 137Z" fill-rule="evenodd"/><path d="M100 180.5 113 188 113 173Z" fill-rule="evenodd"/><path d="M100 166 113 173 113 159Z" fill-rule="evenodd"/><path d="M100 151.491 113 159 113 144Z" fill-rule="evenodd"/><path d="M100 137 113 144 113 130Z" fill-rule="evenodd"/><path d="M113 173 125 180 125 166Z" fill-rule="evenodd"/><path d="M113 158.509 125 166 125 151Z" fill-rule="evenodd"/><path d="M113 144 125 151 125 137Z" fill-rule="evenodd"/><path d="M811 108.008 824 115 824 101Z" fill="#FFC248" fill-rule="evenodd"/><path d="M811 93.5 824 101 824 86Z" fill="#FFC248" fill-rule="evenodd"/><path d="M811 79 824 86.0001 824 72Z" fill="#FFC248" fill-rule="evenodd"/><path d="M811 64.5089 824 72 824 57Z" fill="#FFC248" fill-rule="evenodd"/><path d="M824 100.491 836 108 836 93Z" fill="#FFC248" fill-rule="evenodd"/><path d="M824 86 836 93.0001 836 79Z" fill="#FFC248" fill-rule="evenodd"/><path d="M824 71.5 836 79.0001 836 64Z" fill="#FFC248" fill-rule="evenodd"/><path d="M836 108.008 849 115 849 101Z" fill="#FFC248" fill-rule="evenodd"/><path d="M836 93.5 849 101 849 86Z" fill="#FFC248" fill-rule="evenodd"/><path d="M836 79 849 86.0001 849 72Z" fill="#FFC248" fill-rule="evenodd"/><path d="M836 64.5089 849 72 849 57Z" fill="#FFC248" fill-rule="evenodd"/><path d="M849 100.491 861 108 861 93Z" fill="#FFC248" fill-rule="evenodd"/><path d="M849 86 861 93.0001 861 79Z" fill="#FFC248" fill-rule="evenodd"/><path d="M849 71.5 861 79.0001 861 64Z" fill="#FFC248" fill-rule="evenodd"/><path d="M116 668 103 661 103 675Z" fill="#FFC248" fill-rule="evenodd"/><path d="M116 682.5 103 675 103 690Z" fill="#FFC248" fill-rule="evenodd"/><path d="M116 697.008 103 690 103 704Z" fill="#FFC248" fill-rule="evenodd"/><path d="M116 711.5 103 704 103 719Z" fill="#FFC248" fill-rule="evenodd"/><path d="M103 675 90 668 90 682Z" fill="#FFC248" fill-rule="evenodd"/><path d="M103 689.491 90 682 90 697Z" fill="#FFC248" fill-rule="evenodd"/><path d="M103 704 90 697 90 711Z" fill="#FFC248" fill-rule="evenodd"/><path d="M90 668 78 661 78 675Z" fill="#FFC248" fill-rule="evenodd"/><path d="M90 682.5 78 675 78 690Z" fill="#FFC248" fill-rule="evenodd"/><path d="M90 697.008 78 690 78 704Z" fill="#FFC248" fill-rule="evenodd"/><path d="M90 711.5 78 704 78 719Z" fill="#FFC248" fill-rule="evenodd"/><path d="M78.0001 675 65 668 65 682Z" fill="#FFC248" fill-rule="evenodd"/><path d="M78.0001 689.491 65 682 65 697Z" fill="#FFC248" fill-rule="evenodd"/><path d="M78.0001 704 65 697 65 711Z" fill="#FFC248" fill-rule="evenodd"/><path d="M640 678 653 685 653 671Z" fill-rule="evenodd"/><path d="M640 663.491 653 671 653 656Z" fill-rule="evenodd"/><path d="M640 649 653 656 653 642Z" fill-rule="evenodd"/><path d="M640 634.5 653 642 653 627Z" fill-rule="evenodd"/><path d="M653 671.008 665 678 665 664Z" fill-rule="evenodd"/><path d="M653 656.5 665 664 665 649Z" fill-rule="evenodd"/><path d="M653 642 665 649 665 635Z" fill-rule="evenodd"/><path d="M665 678 678 685 678 671Z" fill-rule="evenodd"/><path d="M665 663.491 678 671 678 656Z" fill-rule="evenodd"/><path d="M665 649 678 656 678 642Z" fill-rule="evenodd"/><path d="M665 634.5 678 642 678 627Z" fill-rule="evenodd"/><path d="M678 671.008 691 678 691 664Z" fill-rule="evenodd"/><path d="M678 656.5 691 664 691 649Z" fill-rule="evenodd"/><path d="M678 642 691 649 691 635Z" fill-rule="evenodd"/><path d="M914 768 1161 939 1161 597Z" fill="#FFC248" fill-rule="evenodd"/><path d="M1161 518.008 1350 648 1350 388Z" fill="#FFC248" fill-rule="evenodd"/><g clip-path="url(#clip6)" filter="url(#fx0)" transform="translate(164 -23)"><g clip-path="url(#clip7)"><path d="M233.395 63 23.605-81.3 23.605 207.3Z" fill="#F2F2F2" fill-rule="evenodd"/></g></g><path d="M379 40 190-90 190 170Z" fill="#F2F2F2" fill-rule="evenodd"/><g clip-path="url(#clip8)" filter="url(#fx1)" transform="translate(-23 144)"><g clip-path="url(#clip9)"><path d="M271.255 208.509 3.745 23.685 3.745 393.315Z" fill="#F2F2F2" fill-rule="evenodd"/></g></g><path d="M227 352.509-14 186-14 519Z" fill="#F2F2F2" fill-rule="evenodd"/><g clip-path="url(#clip10)" filter="url(#fx2)" transform="translate(1099 532)"><g clip-path="url(#clip11)"><path d="M333.353 76.7198C404.108 147.475 404.109 262.192 333.354 332.947 262.6 403.701 147.883 403.701 77.1274 332.945 6.37188 262.19 6.37114 147.473 77.1258 76.7183 147.88 5.96359 262.597 5.96425 333.353 76.7198Z" fill="#F2F2F2" fill-rule="evenodd"/></g></g><path d="M1411.66 621.416C1475.4 685.159 1475.4 788.508 1411.66 852.251 1347.92 915.994 1244.57 915.993 1180.82 852.249 1117.08 788.506 1117.08 685.157 1180.82 621.414 1244.56 557.671 1347.91 557.672 1411.66 621.416Z" fill="#F2F2F2" fill-rule="evenodd"/><path d="M1220 300 1207 293 1207 307Z" fill-rule="evenodd"/><path d="M1220 314.509 1207 307 1207 322Z" fill-rule="evenodd"/><path d="M1220 329 1207 322 1207 336Z" fill-rule="evenodd"/><path d="M1220 343.5 1207 336 1207 351Z" fill-rule="evenodd"/><path d="M1207 307.491 1194 300 1194 315Z" fill-rule="evenodd"/><path d="M1207 322 1194 315 1194 329Z" fill-rule="evenodd"/><path d="M1207 336 1194 329 1194 343Z" fill-rule="evenodd"/><path d="M1194 300 1182 293 1182 307Z" fill-rule="evenodd"/><path d="M1194 314.509 1182 307 1182 322Z" fill-rule="evenodd"/><path d="M1194 329 1182 322 1182 336Z" fill-rule="evenodd"/><path d="M1194 343.5 1182 336 1182 351Z" fill-rule="evenodd"/><path d="M1182 307.491 1169 300 1169 315Z" fill-rule="evenodd"/><path d="M1182 322 1169 315 1169 329Z" fill-rule="evenodd"/><path d="M1182 336 1169 329 1169 343Z" fill-rule="evenodd"/><path d="M70.0001 382.5C70.0001 383.333 69.1112 384 68 384 66.889 384 66 383.333 66 382.5 66 381.667 66.889 381 68 381 69.1112 381 70.0001 381.667 70.0001 382.5Z" stroke="#989898" stroke-width="1.70667" stroke-miterlimit="8" fill-rule="evenodd"/><path d="M95.0001 382.5C95.0001 383.328 94.3285 384 93.5 384 92.6716 384 92 383.328 92 382.5 92 381.672 92.6716 381 93.5 381 94.3285 381 95.0001 381.672 95.0001 382.5Z" stroke="#989898" stroke-width="1.70667" stroke-miterlimit="8" fill-rule="evenodd"/><path d="M121 382.5C121 383.328 120.105 384 119 384 117.895 384 117 383.328 117 382.5 117 381.672 117.895 381 119 381 120.105 381 121 381.672 121 382.5Z" stroke="#989898" stroke-width="1.70667" stroke-miterlimit="8" fill-rule="evenodd"/><path d="M146 382.5C146 383.328 145.329 384 144.5 384 143.672 384 143 383.328 143 382.5 143 381.672 143.672 381 144.5 381 145.329 381 146 381.672 146 382.5Z" stroke="#989898" stroke-width="1.70667" stroke-miterlimit="8" fill-rule="evenodd"/><path d="M172 382.5C172 383.328 171.105 384 170 384 168.895 384 168 383.328 168 382.5 168 381.672 168.895 381 170 381 171.105 381 172 381.672 172 382.5Z" stroke="#989898" stroke-width="1.70667" stroke-miterlimit="8" fill-rule="evenodd"/><path d="M82.0001 402C82.0001 403.111 81.3334 404 80.5 404 79.6667 404 79 403.111 79 402 79 400.889 79.6667 400 80.5 400 81.3183 400 82.0001 400.889 82.0001 402Z" stroke="#989898" stroke-width="1.70667" stroke-miterlimit="8" fill-rule="evenodd"/><path d="M108 402C108 403.111 107.111 404 106 404 104.889 404 104 403.111 104 402 104 400.889 104.889 400 106 400 107.111 400 108 400.889 108 402Z" stroke="#989898" stroke-width="1.70667" stroke-miterlimit="8" fill-rule="evenodd"/><path d="M133 402C133 403.111 132.333 404 131.5 404 130.667 404 130 403.111 130 402 130 400.889 130.667 400 131.5 400 132.333 400 133 400.889 133 402Z" stroke="#989898" stroke-width="1.70667" stroke-miterlimit="8" fill-rule="evenodd"/><path d="M159 402C159 403.111 158.333 404 157.5 404 156.667 404 156 403.111 156 402 156 400.889 156.667 400 157.5 400 158.318 400 159 400.889 159 402Z" stroke="#989898" stroke-width="1.70667" stroke-miterlimit="8" fill-rule="evenodd"/><path d="M70.0001 421.5C70.0001 422.333 69.1112 423 68 423 66.889 423 66 422.333 66 421.5 66 420.667 66.889 420 68 420 69.1112 420 70.0001 420.667 70.0001 421.5Z" stroke="#989898" stroke-width="1.70667" stroke-miterlimit="8" fill-rule="evenodd"/><path d="M95.0001 421.5C95.0001 422.328 94.3285 423 93.5 423 92.6716 423 92 422.328 92 421.5 92 420.672 92.6716 420 93.5 420 94.3285 420 95.0001 420.672 95.0001 421.5Z" stroke="#989898" stroke-width="1.70667" stroke-miterlimit="8" fill-rule="evenodd"/><path d="M121 421.5C121 422.328 120.105 423 119 423 117.895 423 117 422.328 117 421.5 117 420.672 117.895 420 119 420 120.105 420 121 420.672 121 421.5Z" stroke="#989898" stroke-width="1.70667" stroke-miterlimit="8" fill-rule="evenodd"/><path d="M146 421.5C146 422.328 145.329 423 144.5 423 143.672 423 143 422.328 143 421.5 143 420.672 143.672 420 144.5 420 145.329 420 146 420.672 146 421.5Z" stroke="#989898" stroke-width="1.70667" stroke-miterlimit="8" fill-rule="evenodd"/><path d="M172 421.5C172 422.328 171.105 423 170 423 168.895 423 168 422.328 168 421.5 168 420.672 168.895 420 170 420 171.105 420 172 420.672 172 421.5Z" stroke="#989898" stroke-width="1.70667" stroke-miterlimit="8" fill-rule="evenodd"/><path d="M82.0001 441C82.0001 442.111 81.3334 443 80.5 443 79.6667 443 79 442.111 79 441 79 439.889 79.6667 439 80.5 439 81.3183 438.98 82.0001 439.889 82.0001 441Z" stroke="#989898" stroke-width="1.70667" stroke-miterlimit="8" fill-rule="evenodd"/><path d="M108 441C108 442.111 107.111 443 106 443 104.889 443 104 442.111 104 441 104 439.889 104.889 439 106 439 107.111 439 108 439.889 108 441Z" stroke="#989898" stroke-width="1.70667" stroke-miterlimit="8" fill-rule="evenodd"/><path d="M133 441C133 442.111 132.333 443 131.5 443 130.667 443 130 442.111 130 441 130 439.889 130.667 439 131.5 439 132.333 439 133 439.889 133 441Z" stroke="#989898" stroke-width="1.70667" stroke-miterlimit="8" fill-rule="evenodd"/><path d="M159 441C159 442.111 158.333 443 157.5 443 156.667 443 156 442.111 156 441 156 439.889 156.667 439 157.5 439 158.318 438.98 159 439.889 159 441Z" stroke="#989898" stroke-width="1.70667" stroke-miterlimit="8" fill-rule="evenodd"/><path d="M70.0001 460.5C70.0001 461.333 69.1112 462 68 462 66.889 462 66 461.333 66 460.5 66 459.667 66.889 459 68 459 69.1112 458.985 70.0001 459.667 70.0001 460.5Z" stroke="#989898" stroke-width="1.70667" stroke-miterlimit="8" fill-rule="evenodd"/><path d="M95.0001 460.5C95.0001 461.328 94.3285 462 93.5 462 92.6716 462 92 461.328 92 460.5 92 459.672 92.6716 459 93.5 459 94.3285 459 95.0001 459.672 95.0001 460.5Z" stroke="#989898" stroke-width="1.70667" stroke-miterlimit="8" fill-rule="evenodd"/><path d="M121 460.5C121 461.328 120.105 462 119 462 117.895 462 117 461.328 117 460.5 117 459.672 117.895 459 119 459 120.105 459 121 459.672 121 460.5Z" stroke="#989898" stroke-width="1.70667" stroke-miterlimit="8" fill-rule="evenodd"/><path d="M146 460.5C146 461.328 145.329 462 144.5 462 143.672 462 143 461.328 143 460.5 143 459.672 143.672 459 144.5 459 145.329 459 146 459.672 146 460.5Z" stroke="#989898" stroke-width="1.70667" stroke-miterlimit="8" fill-rule="evenodd"/><path d="M172 460.5C172 461.328 171.105 462 170 462 168.895 462 168 461.328 168 460.5 168 459.672 168.895 459 170 459 171.105 459 172 459.672 172 460.5Z" stroke="#989898" stroke-width="1.70667" stroke-miterlimit="8" fill-rule="evenodd"/><path d="M82.0001 480C82.0001 481.105 81.3285 482 80.5 482 79.6716 482 79 481.105 79 480 79 478.895 79.6716 478 80.5 478 81.3285 478 82.0001 478.895 82.0001 480Z" stroke="#989898" stroke-width="1.70667" stroke-miterlimit="8" fill-rule="evenodd"/><path d="M108 480C108 481.105 107.105 482 106 482 104.895 482 104 481.105 104 480 104 478.895 104.895 478 106 478 107.105 478 108 478.895 108 480Z" stroke="#989898" stroke-width="1.70667" stroke-miterlimit="8" fill-rule="evenodd"/><path d="M133 480C133 481.105 132.329 482 131.5 482 130.672 482 130 481.105 130 480 130 478.895 130.672 478 131.5 478 132.329 478 133 478.895 133 480Z" stroke="#989898" stroke-width="1.70667" stroke-miterlimit="8" fill-rule="evenodd"/><path d="M159 480C159 481.111 158.333 482 157.5 482 156.667 482 156 481.111 156 480 156 478.889 156.667 478 157.5 478 158.318 478 159 478.889 159 480Z" stroke="#989898" stroke-width="1.70667" stroke-miterlimit="8" fill-rule="evenodd"/><path d="M538 11.5C538 12.3334 537.333 13 536.5 13 535.667 13 535 12.3334 535 11.5 535 10.6667 535.667 10 536.5 10 537.318 10 538 10.6667 538 11.5Z" fill="#AFABAB" fill-rule="evenodd"/><path d="M563 11.5C563 12.3334 562.333 13 561.5 13 560.667 13 560 12.3334 560 11.5 560 10.6667 560.667 10 561.5 10 562.333 10 563 10.6667 563 11.5Z" fill="#AFABAB" fill-rule="evenodd"/><path d="M589 11.5C589 12.3334 588.333 13 587.5 13 586.667 13 586 12.3334 586 11.5 586 10.6667 586.667 10 587.5 10 588.318 10 589 10.6667 589 11.5Z" fill="#AFABAB" fill-rule="evenodd"/><path d="M614 11.5C614 12.3334 613.333 13 612.5 13 611.667 13 611 12.3334 611 11.5 611 10.6667 611.667 10 612.5 10 613.333 10 614 10.6667 614 11.5Z" fill="#AFABAB" fill-rule="evenodd"/><path d="M640 11.5C640 12.3334 639.333 13 638.5 13 637.667 13 637 12.3334 637 11.5 637 10.6667 637.667 10 638.5 10 639.333 10 640 10.6667 640 11.5Z" fill="#AFABAB" fill-rule="evenodd"/><path d="M551 31.0001C551 32.1046 550.105 33 549 33 547.895 33 547 32.1046 547 31.0001 547 29.8954 547.895 29 549 29 550.105 29 551 29.8954 551 31.0001Z" fill="#AFABAB" fill-rule="evenodd"/><path d="M576 31.0001C576 32.1112 575.333 33 574.5 33 573.667 33 573 32.1112 573 31.0001 573 29.8889 573.667 29 574.5 29 575.318 29 576 29.8889 576 31.0001Z" fill="#AFABAB" fill-rule="evenodd"/><path d="M602 31.0001C602 32.1046 601.105 33 600 33 598.896 33 598 32.1046 598 31.0001 598 29.8954 598.896 29 600 29 601.105 29 602 29.8954 602 31.0001Z" fill="#AFABAB" fill-rule="evenodd"/><path d="M627 31.0001C627 32.1046 626.328 33 625.5 33 624.672 33 624 32.1046 624 31.0001 624 29.8954 624.672 29 625.5 29 626.328 29 627 29.8954 627 31.0001Z" fill="#AFABAB" fill-rule="evenodd"/><path d="M538 50.5C538 51.3334 537.333 52 536.5 52 535.667 52 535 51.3334 535 50.5 535 49.6667 535.667 49 536.5 49 537.318 49 538 49.6667 538 50.5Z" fill="#AFABAB" fill-rule="evenodd"/><path d="M563 50.5C563 51.3334 562.333 52 561.5 52 560.667 52 560 51.3334 560 50.5 560 49.6667 560.667 49 561.5 49 562.333 49 563 49.6667 563 50.5Z" fill="#AFABAB" fill-rule="evenodd"/><path d="M589 50.5C589 51.3334 588.333 52 587.5 52 586.667 52 586 51.3334 586 50.5 586 49.6667 586.667 49 587.5 49 588.318 49 589 49.6667 589 50.5Z" fill="#AFABAB" fill-rule="evenodd"/><path d="M614 50.5C614 51.3334 613.333 52 612.5 52 611.667 52 611 51.3334 611 50.5 611 49.6667 611.667 49 612.5 49 613.333 49 614 49.6667 614 50.5Z" fill="#AFABAB" fill-rule="evenodd"/><path d="M640 50.5C640 51.3334 639.333 52 638.5 52 637.667 52 637 51.3334 637 50.5 637 49.6667 637.667 49 638.5 49 639.333 49 640 49.6667 640 50.5Z" fill="#AFABAB" fill-rule="evenodd"/><path d="M551 70.0001C551 71.1046 550.105 72 549 72 547.895 72 547 71.1046 547 70.0001 547 68.8954 547.895 68 549 68 550.105 68 551 68.8954 551 70.0001Z" fill="#AFABAB" fill-rule="evenodd"/><path d="M576 70.0001C576 71.1112 575.333 72 574.5 72 573.667 72 573 71.1112 573 70.0001 573 68.8889 573.667 68 574.5 68 575.318 68 576 68.9091 576 70.0001Z" fill="#AFABAB" fill-rule="evenodd"/><path d="M602 70.0001C602 71.1046 601.105 72 600 72 598.896 72 598 71.1046 598 70.0001 598 68.8954 598.896 68 600 68 601.105 68 602 68.8954 602 70.0001Z" fill="#AFABAB" fill-rule="evenodd"/><path d="M627 70.0001C627 71.1046 626.328 72 625.5 72 624.672 72 624 71.1046 624 70.0001 624 68.8954 624.672 68 625.5 68 626.328 68 627 68.8954 627 70.0001Z" fill="#AFABAB" fill-rule="evenodd"/><path d="M1247 146C1247 147.111 1246.33 148 1245.5 148 1244.67 148 1244 147.111 1244 146 1244 144.889 1244.67 144 1245.5 144 1246.33 143.98 1247 144.889 1247 146Z" fill="#AFABAB" fill-rule="evenodd"/><path d="M1272 146C1272 147.111 1271.33 148 1270.5 148 1269.67 148 1269 147.111 1269 146 1269 144.889 1269.67 144 1270.5 144 1271.32 143.98 1272 144.889 1272 146Z" fill="#AFABAB" fill-rule="evenodd"/><path d="M1260 165.5C1260 166.328 1259.1 167 1258 167 1256.9 167 1256 166.328 1256 165.5 1256 164.672 1256.9 164 1258 164 1259.1 164 1260 164.672 1260 165.5Z" fill="#AFABAB" fill-rule="evenodd"/><path d="M1247 184.5C1247 185.333 1246.33 186 1245.5 186 1244.67 186 1244 185.333 1244 184.5 1244 183.667 1244.67 183 1245.5 183 1246.33 183 1247 183.667 1247 184.5Z" fill="#AFABAB" fill-rule="evenodd"/><path d="M1272 184.5C1272 185.333 1271.33 186 1270.5 186 1269.67 186 1269 185.333 1269 184.5 1269 183.667 1269.67 183 1270.5 183 1271.32 183 1272 183.667 1272 184.5Z" fill="#AFABAB" fill-rule="evenodd"/><path d="M1260 204.5C1260 205.328 1259.1 206 1258 206 1256.9 206 1256 205.328 1256 204.5 1256 203.672 1256.9 203 1258 203 1259.1 203 1260 203.672 1260 204.5Z" fill="#AFABAB" fill-rule="evenodd"/><path d="M1247 223.5C1247 224.333 1246.33 225 1245.5 225 1244.67 225 1244 224.333 1244 223.5 1244 222.667 1244.67 222 1245.5 222 1246.33 222 1247 222.667 1247 223.5Z" fill="#AFABAB" fill-rule="evenodd"/><path d="M1272 223.5C1272 224.333 1271.33 225 1270.5 225 1269.67 225 1269 224.333 1269 223.5 1269 222.667 1269.67 222 1270.5 222 1271.32 222 1272 222.667 1272 223.5Z" fill="#AFABAB" fill-rule="evenodd"/><path d="M1260 243.5C1260 244.328 1259.1 245 1258 245 1256.9 245 1256 244.328 1256 243.5 1256 242.672 1256.9 242 1258 242 1259.1 242 1260 242.672 1260 243.5Z" fill="#AFABAB" fill-rule="evenodd"/><path d="M977 625C977 626.111 976.111 627 975 627 973.889 627 973 626.111 973 625 973 623.889 973.889 623 975 623 976.111 623 977 623.889 977 625Z" fill="#AFABAB" fill-rule="evenodd"/><path d="M1002 625C1002 626.105 1001.33 627 1000.5 627 999.672 627 999 626.105 999 625 999 623.895 999.672 623 1000.5 623 1001.33 623 1002 623.895 1002 625Z" fill="#AFABAB" fill-rule="evenodd"/><path d="M1028 625C1028 626.105 1027.1 627 1026 627 1024.9 627 1024 626.105 1024 625 1024 623.895 1024.9 623 1026 623 1027.1 623 1028 623.895 1028 625Z" fill="#AFABAB" fill-rule="evenodd"/><path d="M1053 625C1053 626.105 1052.33 627 1051.5 627 1050.67 627 1050 626.105 1050 625 1050 623.895 1050.67 623 1051.5 623 1052.33 623 1053 623.895 1053 625Z" fill="#AFABAB" fill-rule="evenodd"/><path d="M1079 625C1079 626.111 1078.11 627 1077 627 1075.89 627 1075 626.111 1075 625 1075 623.889 1075.89 623 1077 623 1078.09 623 1079 623.889 1079 625Z" fill="#AFABAB" fill-rule="evenodd"/><path d="M989 644.5C989 645.333 988.333 646 987.5 646 986.667 646 986 645.333 986 644.5 986 643.667 986.667 643 987.5 643 988.333 642.985 989 643.667 989 644.5Z" fill="#AFABAB" fill-rule="evenodd"/><path d="M1015 644.5C1015 645.328 1014.33 646 1013.5 646 1012.67 646 1012 645.328 1012 644.5 1012 643.672 1012.67 643 1013.5 643 1014.33 643 1015 643.672 1015 644.5Z" fill="#AFABAB" fill-rule="evenodd"/><path d="M1040 644.5C1040 645.328 1039.33 646 1038.5 646 1037.67 646 1037 645.328 1037 644.5 1037 643.672 1037.67 643 1038.5 643 1039.33 643 1040 643.672 1040 644.5Z" fill="#AFABAB" fill-rule="evenodd"/><path d="M1066 644.5C1066 645.333 1065.33 646 1064.5 646 1063.67 646 1063 645.333 1063 644.5 1063 643.667 1063.67 643 1064.5 643 1065.33 642.985 1066 643.667 1066 644.5Z" fill="#AFABAB" fill-rule="evenodd"/><path d="M977 664C977 665.111 976.111 666 975 666 973.889 666 973 665.111 973 664 973 662.889 973.889 662 975 662 976.111 661.98 977 662.889 977 664Z" fill="#AFABAB" fill-rule="evenodd"/><path d="M1002 664C1002 665.105 1001.33 666 1000.5 666 999.672 666 999 665.105 999 664 999 662.896 999.672 662 1000.5 662 1001.33 662 1002 662.896 1002 664Z" fill="#AFABAB" fill-rule="evenodd"/><path d="M1028 664C1028 665.105 1027.1 666 1026 666 1024.9 666 1024 665.105 1024 664 1024 662.896 1024.9 662 1026 662 1027.1 662 1028 662.896 1028 664Z" fill="#AFABAB" fill-rule="evenodd"/><path d="M1053 664C1053 665.105 1052.33 666 1051.5 666 1050.67 666 1050 665.105 1050 664 1050 662.896 1050.67 662 1051.5 662 1052.33 662 1053 662.896 1053 664Z" fill="#AFABAB" fill-rule="evenodd"/><path d="M1079 664C1079 665.111 1078.11 666 1077 666 1075.89 666 1075 665.111 1075 664 1075 662.889 1075.89 662 1077 662 1078.09 661.98 1079 662.889 1079 664Z" fill="#AFABAB" fill-rule="evenodd"/><path d="M989 683.5C989 684.333 988.333 685 987.5 685 986.667 685 986 684.333 986 683.5 986 682.667 986.667 682 987.5 682 988.333 682 989 682.667 989 683.5Z" fill="#AFABAB" fill-rule="evenodd"/><path d="M1015 683.5C1015 684.328 1014.33 685 1013.5 685 1012.67 685 1012 684.328 1012 683.5 1012 682.672 1012.67 682 1013.5 682 1014.33 682 1015 682.672 1015 683.5Z" fill="#AFABAB" fill-rule="evenodd"/><path d="M1040 683.5C1040 684.328 1039.33 685 1038.5 685 1037.67 685 1037 684.328 1037 683.5 1037 682.672 1037.67 682 1038.5 682 1039.33 682 1040 682.672 1040 683.5Z" fill="#AFABAB" fill-rule="evenodd"/><path d="M1066 683.5C1066 684.333 1065.33 685 1064.5 685 1063.67 685 1063 684.333 1063 683.5 1063 682.667 1063.67 682 1064.5 682 1065.33 682 1066 682.667 1066 683.5Z" fill="#AFABAB" fill-rule="evenodd"/><path d="M977 703C977 704.111 976.111 705 975 705 973.889 705 973 704.111 973 703 973 701.889 973.889 701 975 701 976.111 701 977 701.889 977 703Z" fill="#AFABAB" fill-rule="evenodd"/><path d="M1002 703C1002 704.105 1001.33 705 1000.5 705 999.672 705 999 704.105 999 703 999 701.895 999.672 701 1000.5 701 1001.33 701 1002 701.895 1002 703Z" fill="#AFABAB" fill-rule="evenodd"/><path d="M1028 703C1028 704.105 1027.1 705 1026 705 1024.9 705 1024 704.105 1024 703 1024 701.895 1024.9 701 1026 701 1027.1 701 1028 701.895 1028 703Z" fill="#AFABAB" fill-rule="evenodd"/><path d="M1053 703C1053 704.105 1052.33 705 1051.5 705 1050.67 705 1050 704.105 1050 703 1050 701.895 1050.67 701 1051.5 701 1052.33 701 1053 701.895 1053 703Z" fill="#AFABAB" fill-rule="evenodd"/><path d="M1079 703C1079 704.111 1078.11 705 1077 705 1075.89 705 1075 704.111 1075 703 1075 701.889 1075.89 701 1077 701 1078.09 701 1079 701.889 1079 703Z" fill="#AFABAB" fill-rule="evenodd"/><path d="M357.5 152.5 267.5 152.5 267.5 62.5001 357.5 62.5001 357.5 152.5ZM281.344 138.642 343.657 138.642 343.657 76.358 281.344 76.358 281.344 138.642Z" stroke="#000000" stroke-width="0.426667" stroke-miterlimit="8" fill="none" fill-rule="evenodd"/><path d="M457.85 749.96 400.301 718.266 431.995 660.716 489.544 692.41 457.85 749.96ZM414.028 714.289 453.873 736.232 475.817 696.387 435.972 674.443 414.028 714.289Z" stroke="#989898" stroke-width="0.426667" stroke-miterlimit="8" fill="none" fill-rule="evenodd"/><path d="M1325.5 619.5 1235.5 619.5 1235.5 528.5 1325.5 528.5 1325.5 619.5ZM1249.34 605.503 1311.66 605.503 1311.66 542.497 1249.34 542.497 1249.34 605.503Z" stroke="#000000" stroke-width="0.426667" stroke-miterlimit="8" fill="none" fill-rule="evenodd"/><path d="M991.5 36.5002 900.5 36.5002 900.5-54.5001 991.5-54.5001 991.5 36.5002ZM914.497 22.4856 977.503 22.4856 977.503-40.5199 914.497-40.5199 914.497 22.4856Z" stroke="#989898" stroke-width="0.426667" stroke-miterlimit="8" fill="none" fill-rule="evenodd"/><path d="M433.5 197.649C446.258 192.188 451.626 204.542 464.401 199.064 477.16 193.604 471.791 181.249 484.549 175.788 497.308 170.327 502.676 182.682 515.451 177.204 528.209 171.743 522.841 159.389 535.599 153.928 548.357 148.467 553.742 160.821 566.5 155.344" stroke="#989898" stroke-width="0.28378" stroke-miterlimit="8" fill="none" fill-rule="evenodd"/><path d="M-53.5001 94.5893C-40.646 89.0147-35.2374 101.626-22.3663 96.0346-9.51229 90.4599-14.9209 77.8481-2.06685 72.2735 10.7871 66.6988 16.2129 79.3106 29.0668 73.7188 41.9209 68.1442 36.5123 55.5323 49.3664 49.9577 62.2203 44.3829 67.6461 56.9948 80.5001 51.403" stroke="#000000" stroke-width="0.28378" stroke-miterlimit="8" fill="none" fill-rule="evenodd"/><path d="M993.5 178.589C1006.35 173.015 1011.76 185.626 1024.63 180.035 1037.49 174.46 1032.08 161.848 1044.93 156.273 1057.79 150.699 1063.2 163.311 1076.07 157.719 1088.92 152.144 1083.51 139.532 1096.37 133.958 1109.22 128.383 1114.65 140.995 1127.5 135.403" stroke="#989898" stroke-width="0.28378" stroke-miterlimit="8" fill="none" fill-rule="evenodd"/><path d="M929.5 525.589C942.354 520.015 947.763 532.626 960.634 527.035 973.488 521.46 968.079 508.848 980.933 503.273 993.787 497.699 999.196 510.311 1012.07 504.719 1024.92 499.144 1019.51 486.532 1032.37 480.958 1045.22 475.383 1050.65 487.995 1063.5 482.403" stroke="#989898" stroke-width="0.28378" stroke-miterlimit="8" fill="none" fill-rule="evenodd"/><path d="M743.5 13.6487C756.258 8.18781 761.626 20.5423 774.401 15.0645 787.16 9.60358 781.791-2.75088 794.549-8.21177 807.307-13.6727 812.676-1.31821 825.451-6.7959 838.209-12.2568 832.841-24.6113 845.599-30.0722 858.357-35.5332 863.742-23.1787 876.5-28.6564" stroke="#000000" stroke-width="0.28378" stroke-miterlimit="8" fill="none" fill-rule="evenodd"/><path d="M206.5 644.589C219.354 639.015 224.763 651.626 237.634 646.035 250.488 640.46 245.079 627.848 257.933 622.273 270.787 616.699 276.196 629.311 289.067 623.719 301.921 618.144 296.512 605.532 309.366 599.958 322.22 594.383 327.646 606.995 340.5 601.403" stroke="#989898" stroke-width="0.28378" stroke-miterlimit="8" fill="none" fill-rule="evenodd"/><path d="M270 253.991 279 259 279 249Z" fill="#FFC248" fill-rule="evenodd"/><path d="M302 253.991 294 249 294 259Z" fill="#FFC248" fill-rule="evenodd"/><path d="M286.508 270 291 261 282 261Z" fill="#FFC248" fill-rule="evenodd"/><path d="M286.508 238 282 246 291 246Z" fill="#FFC248" fill-rule="evenodd"/><path d="M794 716.508 802 721 802 712Z" fill="#FFC248" fill-rule="evenodd"/><path d="M825 716.508 817 712 817 721Z" fill="#FFC248" fill-rule="evenodd"/><path d="M809.508 701 805 709 814 709Z" fill="#FFC248" fill-rule="evenodd"/><path d="M1190 72.5082 1198 77.0001 1198 68Z" fill="#FFC248" fill-rule="evenodd"/><path d="M1222 72.5082 1213 68 1213 77.0001Z" fill="#FFC248" fill-rule="evenodd"/><path d="M1205.99 88 1211 80 1201 80Z" fill="#FFC248" fill-rule="evenodd"/><path d="M1205.99 57 1201 65 1211 65Z" fill="#FFC248" fill-rule="evenodd"/><path d="M-8 575.508 0.000102997 580 0.000102997 571Z" fill-rule="evenodd"/><path d="M24 575.508 15 571 15 580Z" fill-rule="evenodd"/><path d="M7.50824 591 12.0001 583 3 583Z" fill-rule="evenodd"/><path d="M7.50824 560 3 568 12.0001 568Z" fill-rule="evenodd"/><path d="M1264 31.991 1272 37.0001 1272 27Z" fill-rule="evenodd"/><path d="M1280 48.0001 1285 39 1275 39Z" fill-rule="evenodd"/><path d="M1280 16 1275 24 1285 24Z" fill-rule="evenodd"/><path d="M440 11.4919 448 16.0001 448 7Z" fill-rule="evenodd"/><path d="M471 11.4919 463 7 463 16.0001Z" fill-rule="evenodd"/><path d="M455.492 27.0001 460 19 451 19Z" fill-rule="evenodd"/><path d="M455.492-4 451 4 460 4Z" fill-rule="evenodd"/></g></svg>