<svg xmlns="http://www.w3.org/2000/svg" viewBox="0 0 404 404"><path d="M46.6 315.1A78.6 78.6 0 0 1 8 305a12.3 12.3 0 0 1-5-17.1 85.6 85.6 0 0 0 11.1-65.8C8.3 199 0 179.3.1 154.7.1 68.4 72-1.6 158.2 0c83.3 1.7 152 71.7 152 155 0 108.9-114 185.3-214.7 143.3a79.7 79.7 0 0 1-49 16.8zm-16.4-26.6c19 6 40.3 1.2 55-13a12 12 0 0 1 13.4-2.1C184.8 314.6 286.3 250 286.3 155c0-70.9-57.6-129.7-128.5-131A131.5 131.5 0 0 0 24 154.6c0 23.4 9 42.1 14 64.2a107 107 0 0 1-7.8 69.6z"/><path d="M357.4 404c-17.6 0-35-6-49-16.8a156.9 156.9 0 0 1-161.1-25.8 12 12 0 0 1 15.7-18.1c39 33.6 96 41.2 142.4 19a12 12 0 0 1 13.5 2.2 55.6 55.6 0 0 0 55 13 106.6 106.6 0 0 1-4.2-82.4 131.2 131.2 0 0 0 10.3-51.5 130 130 0 0 0-30.3-84.1 12 12 0 0 1 18.4-15.4A155.9 155.9 0 0 1 392 304a84.7 84.7 0 0 0 9 72.7 12 12 0 0 1-4.8 17 78.6 78.6 0 0 1-38.7 10.2z"/><circle cx="155.2" cy="155.7" r="19"/><circle cx="85.2" cy="155.7" r="19"/><circle cx="225.1" cy="155.7" r="19"/></svg>
