<svg xmlns="http://www.w3.org/2000/svg" x="0" y="0" viewBox="0 0 130 45" style="enable-background:new 0 0 130 45"><style>.st1{fill:#353535}</style><path class="st1" d="M22.2 8.7h-15C3.7 8.7.9 11.5.9 15v15c0 3.5 2.8 6.3 6.3 6.3h15c3.5 0 6.3-2.8 6.3-6.3V15c0-3.5-2.8-6.3-6.3-6.3zm-4.1 7.4c.7 0 1.2.6 1.2 1.2 0 .7-.6 1.2-1.2 1.2s-1.2-.6-1.2-1.2.6-1.2 1.2-1.2zm0 3.5c.7 0 1.2.6 1.2 1.2s-.6 1.2-1.2 1.2-1.2-.6-1.2-1.2.6-1.2 1.2-1.2zm-3.5-3.5c.7 0 1.2.6 1.2 1.2 0 .7-.6 1.2-1.2 1.2s-1.2-.6-1.2-1.2.6-1.2 1.2-1.2zm0 3.5c.7 0 1.2.6 1.2 1.2s-.6 1.2-1.2 1.2-1.2-.6-1.2-1.2.6-1.2 1.2-1.2zm-3.5-3.5c.7 0 1.2.6 1.2 1.2 0 .7-.6 1.2-1.2 1.2s-1.2-.6-1.2-1.2.5-1.2 1.2-1.2zm0 3.5c.7 0 1.2.6 1.2 1.2s-.6 1.2-1.2 1.2-1.2-.6-1.2-1.2.5-1.2 1.2-1.2zM7.8 32.8c-1.3 0-2.4-1.1-2.4-2.4 0-1.3 1.1-2.4 2.4-2.4 1.3 0 2.4 1.1 2.4 2.4-.1 1.3-1.1 2.4-2.4 2.4zm13.7.1c-1.3 0-2.4-1.1-2.4-2.4 0-1.3 1.1-2.4 2.4-2.4 1.3 0 2.4 1.1 2.4 2.4 0 1.3-1.1 2.4-2.4 2.4zm4.2-19.4-2.5 9.2c-.7 2.4-2.7 4-5.3 4h-1.6c-.5 0-1.3-.3-1.6-.6h-.2c-.3.3-1.1.6-1.6.6h-1.8c-2.5 0-4.3-1.4-5.1-3.7l-2-6.6c0-.1 0-.3.1-.4.1-.1.2-.2.3-.2h.4c1 0 1.8.6 2.1 1.5l1.5 4.8c.4 1.3 1.7 2.2 3.1 2.2h.6c.6 0 1-.3 1.3-.6.1-.1.3-.2.5-.2h1.3c.2 0 .4.1.5.2.3.3.7.6 1.3.6h.6c1.4 0 2.8-1 3.2-2.3l2-7.4c.3-1 1.1-1.6 2.1-1.6h.5c.2.1.3.3.3.5z"/><path class="st1" d="M21.5 29.7c-.5 0-.9.4-.9.9s.4.9.9.9.9-.4.9-.9c0-.6-.4-.9-.9-.9zM7.8 29.6c-.5 0-.9.4-.9.9s.4.9.9.9.9-.4.9-.9c-.1-.6-.5-.9-.9-.9z"/><path class="st1" d="M74.5 29.6c-.6 0-1.3 0-1.6.5-.9 1.7-3.1 2.2-4.9 2.2-3.5 0-6.2-2.9-6.2-6.4s2.7-6.4 6.2-6.4c1.6 0 3.6.3 4.8 2.1.3.5 1 .4 1.6.4.9 0 .7-1 .3-1.6-1.8-2.7-4.6-3.2-6.7-3.2-4.7 0-8.6 3.9-8.6 8.6s3.9 8.6 8.6 8.6c3.1 0 5.7-1.3 6.9-3.5.3-.4.5-1.3-.4-1.3zM106.8 17.8c-.6 0-1.1.3-1.1.9v14.8c0 .6.5.8 1.1.8.6 0 1.1-.2 1.1-.8V18.7c.1-.6-.5-.9-1.1-.9zM106.8 10.5c-.8 0-1.4.6-1.4 1.4s.6 1.4 1.4 1.4c.8 0 1.4-.6 1.4-1.4.1-.7-.6-1.4-1.4-1.4zM100.5 17.9s-.1 0 0 0c-.1 0-1.1 0-1.4.8-.3.8-2 6.1-3.8 11.2-.1.2-.1.3-.2.5l-3.8-9.6c-.2-.4-.4-.7-.8-.9-.2-.1-.4-.2-.7-.2-.3 0-.5.1-.7.2-.3.2-.6.5-.8.9l-3.8 9.6c-.1-.2-.1-.3-.2-.5-1.8-5.2-3.5-10.5-3.8-11.2-.3-.8-1.4-.8-1.4-.8-.6 0-.8.2-.8.5v.3c.1.3 2.8 8.5 4.9 14.7.1.4.4 1 1.2 1 .5 0 .8-.3 1-.6l4.1-10.4c0-.1.1-.1.2-.1s.2 0 .2.1L94 33.8c.1.3.5.6 1 .6.7 0 1-.6 1.2-1 2-6.2 4.9-14.4 4.9-14.7v-.3c.2-.4 0-.5-.6-.5zM56.2 32H41.5c-.2 0-.4-.2-.4-.4v-8.3h12.8c.6 0 .9-.5.9-1.2s-.3-1.2-.9-1.2H41.1v-7.5c0-.3.2-.5.5-.5h14.7c.6 0 .9-.5.9-1.2s-.3-1.2-.9-1.2H39.7c-.6 0-1.1.6-1.1 1.6V33c0 .6.4 1.2.9 1.2h16.7c.6 0 .9-.5.9-1.2 0-.5-.3-1-.9-1zM128 10.5c-.6 0-1.1.3-1.1.9v8.8c-1.3-2.1-3.7-2.8-5.9-2.8-4.7 0-8.6 3.9-8.6 8.6s3.9 8.6 8.6 8.6c1.8 0 4.7-.9 5.9-2.9v1.9c0 .6.5.8 1.1.8.6 0 1.1-.2 1.1-.8V11.4c0-.6-.5-.9-1.1-.9zm-7.1 21.8c-3.5 0-6.1-2.8-6.1-6.3s2.6-6.3 6.1-6.3c2 0 5.9 1.2 5.9 5.8v1c0 4.4-4 5.8-5.9 5.8z"/></svg>