<svg width="150" height="30" viewBox="0 0 202 40" fill="none" xmlns="http://www.w3.org/2000/svg">
<path fill-rule="evenodd" clip-rule="evenodd" d="M4.11348 39.4326H12.1986V19.7163H17.7305L18.4397 12.9078H12.1986V9.50355C12.1986 7.80142 12.3404 6.80851 14.8936 6.80851H18.2979V0H12.9078C6.38298 0 4.11348 3.26241 4.11348 8.79433V12.9078H0V19.7163H4.11348V39.4326ZM77.1631 18.7234C74.3262 18.7234 73.7589 20.2837 73.7589 22.1277V23.1206H80.5674V22.1277C80.5674 20.1418 80 18.7234 77.1631 18.7234ZM103.688 19.2908C102.108 19.2908 101.017 19.7796 99.8475 20.3035L99.8464 20.304L99.8453 20.3045L99.7291 20.3566L99.5745 20.4255V33.0496C100.709 33.1915 101.418 33.1915 102.553 33.1915C106.525 33.1915 107.092 31.3475 107.092 28.7943V22.695C107.092 20.8511 106.525 19.2908 103.688 19.2908ZM28.0851 34.0426C26.5248 34.0426 25.8156 33.1915 25.8156 31.773C25.8156 30.2128 26.5248 29.9291 28.3688 29.9291H31.9149V32.9078C31.8334 32.9485 31.7527 32.9893 31.6724 33.0298C30.6339 33.5537 29.665 34.0426 28.0851 34.0426ZM129.504 19.2908C126.667 19.2908 125.816 20.8511 125.816 22.695V29.6454C125.816 31.4894 126.809 33.0496 129.504 33.0496C132.199 33.0496 133.191 31.4894 133.191 29.6454V22.695C133.191 20.8511 132.199 19.2908 129.504 19.2908ZM40.1418 39.5745H33.3333L33.0496 37.8723C30.6383 39.1489 28.0851 39.8582 25.3901 39.8582C20.4255 39.8582 17.7305 36.5957 17.7305 31.9149C17.7305 26.5248 20.8511 24.539 26.383 24.539H32.0567V23.4043C32.0567 20.5674 31.7731 19.8582 27.5177 19.8582H20.5674L21.2766 13.0496H28.9362C38.2979 13.0496 40.2837 16.0284 40.2837 23.5461C40.1418 23.4043 40.1418 39.5745 40.1418 39.5745ZM55.7447 19.4326C57.8723 19.4326 59.0071 19.5745 63.2624 20.2837V13.7589C59.4326 13.0496 57.0213 12.766 55.0355 12.766C46.383 12.766 42.8369 17.305 42.8369 23.9716V28.7943C42.8369 35.461 46.2411 40 55.0355 40C57.1631 40 59.5745 39.8582 63.2624 39.0071V32.3404C59.0071 33.0496 57.7305 33.1915 55.7447 33.1915C52.0567 33.1915 50.922 32.3404 50.922 29.2199V23.4043C50.922 20.2837 52.0567 19.4326 55.7447 19.4326ZM88.7943 28.6525H73.7589V29.2199C73.7589 32.3404 74.8936 33.1915 78.5816 33.1915C81.844 33.1915 83.8298 33.0496 88.0851 32.3404V39.0071C83.9716 39.8582 81.844 40 77.8723 40C69.078 40 65.6738 35.461 65.6738 28.7943V23.4043C65.6738 17.5887 68.227 12.766 77.1631 12.766C86.0993 12.766 88.6525 17.4468 88.6525 23.4043C88.7943 23.1206 88.7943 28.6525 88.7943 28.6525ZM102.27 39.7163C113.333 39.7163 115.177 35.0355 115.177 28.6525V21.9858C115.177 16.1702 113.759 12.4823 105.674 12.4823C103.546 12.4823 101.277 12.766 99.5745 13.4752V0.567376L91.4894 1.98582V38.7234C95.8865 39.4326 98.2979 39.7163 102.27 39.7163ZM141.418 28.7943C141.418 34.3262 139.149 39.7163 129.504 39.7163C119.858 39.7163 117.589 34.3262 117.589 28.7943V23.4043C117.589 17.8723 119.858 12.4823 129.504 12.4823C139.149 12.4823 141.418 17.8723 141.418 23.4043V28.7943ZM155.603 39.7163C165.248 39.7163 167.518 34.3262 167.518 28.7943V23.4043C167.518 17.8723 165.248 12.4823 155.603 12.4823C145.957 12.4823 143.688 17.8723 143.688 23.4043V28.7943C143.688 34.3262 145.957 39.7163 155.603 39.7163ZM194.326 39.4326H185.532L178.014 26.9504V39.4326H169.787V1.98582L178.014 0.567376V24.6809L185.532 12.766H194.326L186.099 25.6738L194.326 39.4326ZM151.915 22.695C151.915 20.8511 152.766 19.2908 155.603 19.2908C158.298 19.2908 159.291 20.8511 159.291 22.695V29.6454C159.291 31.4894 158.298 33.0496 155.603 33.0496C152.908 33.0496 151.915 31.4894 151.915 29.6454V22.695ZM199.007 34.7518C200.426 34.7518 201.418 35.8865 201.418 37.305C201.418 38.7234 200.284 39.8582 199.007 39.8582C197.589 39.8582 196.454 38.7234 196.454 37.305C196.454 35.8865 197.589 34.7518 199.007 34.7518ZM197.021 37.305C197.021 36.1702 197.872 35.1773 199.007 35.1773C200 35.1773 200.993 36.1702 200.993 37.305C200.993 38.4397 200.142 39.4326 199.007 39.4326C197.872 39.4326 197.021 38.4397 197.021 37.305ZM198.44 38.8652H198.014V36.0284H198.865C199.135 36.0284 199.348 36.0854 199.504 36.1271C199.593 36.1512 199.664 36.1702 199.716 36.1702C199.858 36.3121 200 36.4539 200 36.7376C200 37.1631 199.716 37.305 199.433 37.4468C199.716 37.4468 199.858 37.7305 199.858 38.156C199.858 38.4258 199.915 38.5816 199.957 38.6956C199.981 38.7614 200 38.8133 200 38.8652H199.574C199.574 38.8134 199.555 38.7615 199.531 38.6957L199.531 38.6956C199.49 38.5816 199.433 38.4258 199.433 38.156C199.433 37.7305 199.149 37.7305 198.865 37.7305H198.582L198.44 38.8652ZM198.723 37.305H198.44V36.4539H198.723C199.291 36.4539 199.433 36.5957 199.433 36.8794C199.433 37.1631 199.149 37.305 198.723 37.305Z" fill="#333333"/>
</svg>