<svg data-name="Layer 1" xmlns="http://www.w3.org/2000/svg" viewBox="0 0 104.16 35.18"><defs><clipPath id="a" transform="translate(-22.92)"><path style="fill:#353535" d="M108.39 1.26h.98v2.63h-.98z"/></clipPath><clipPath id="b" transform="translate(-22.92)"><path data-name="SVGID" style="fill:#353535" d="M108.39 17.01h.98v2.63h-.98z"/></clipPath><clipPath id="c" transform="translate(-22.92)"><path data-name="SVGID" style="fill:#353535" d="M120.92 1.26h.98v2.63h-.98z"/></clipPath><clipPath id="d" transform="translate(-22.92)"><path data-name="SVGID" style="fill:#353535" d="M120.92 17.01h.98v2.63h-.98z"/></clipPath><clipPath id="e" transform="translate(-22.92)"><path data-name="SVGID" style="fill:#353535" d="M112.35 4.16h1.17v12.6h-1.17z"/></clipPath><clipPath id="f" transform="translate(-22.92)"><path data-name="SVGID" style="fill:#353535" d="M108.39 6.32h.98v3.52h-.98z"/></clipPath><clipPath id="g" transform="translate(-22.92)"><path data-name="SVGID" style="fill:#353535" d="M110.32 2.63h1.08v15.64h-1.08z"/></clipPath><clipPath id="h" transform="translate(-22.92)"><path data-name="SVGID" style="fill:#353535" d="M106.55 5.8h.89v3.01h-.89z"/></clipPath><clipPath id="i" transform="translate(-22.92)"><path data-name="SVGID" style="fill:#353535" d="M104.8 5.26h.79v2.38h-.79z"/></clipPath><clipPath id="j" transform="translate(-22.92)"><path data-name="SVGID" style="fill:#353535" d="M108.39 11.07h.98v3.52h-.98z"/></clipPath><clipPath id="k" transform="translate(-22.92)"><path data-name="SVGID" style="fill:#353535" d="M106.55 12.09h.89v3.01h-.89z"/></clipPath><clipPath id="l" transform="translate(-22.92)"><path data-name="SVGID" style="fill:#353535" d="M104.8 13.26h.79v2.38h-.79z"/></clipPath><clipPath id="m" transform="translate(-22.92)"><path data-name="SVGID" style="fill:#353535" d="M116.75 4.16h1.17v12.6h-1.17z"/></clipPath><clipPath id="n" transform="translate(-22.92)"><path data-name="SVGID" style="fill:#353535" d="M120.92 6.32h.98v3.52h-.98z"/></clipPath><clipPath id="o" transform="translate(-22.92)"><path data-name="SVGID" style="fill:#353535" d="M118.89 2.63h1.08v15.64h-1.08z"/></clipPath><clipPath id="p" transform="translate(-22.92)"><path data-name="SVGID" style="fill:#353535" d="M122.85 5.8h.89v3.01h-.89z"/></clipPath><clipPath id="q" transform="translate(-22.92)"><path data-name="SVGID" style="fill:#353535" d="M124.7 5.26h.79v2.38h-.79z"/></clipPath><clipPath id="r" transform="translate(-22.92)"><path data-name="SVGID" style="fill:#353535" d="M120.92 11.07h.98v3.52h-.98z"/></clipPath><clipPath id="s" transform="translate(-22.92)"><path data-name="SVGID" style="fill:#353535" d="M122.85 12.09h.89v3.01h-.89z"/></clipPath><clipPath id="t" transform="translate(-22.92)"><path data-name="SVGID" style="fill:#353535" d="M124.7 13.26h.79v2.38h-.79z"/></clipPath><clipPath id="u" transform="translate(-22.92)"><path data-name="SVGID" style="fill:#353535" d="M114.55 0h1.17v25.43h-1.17z"/></clipPath></defs><path d="M23.1 26.38h2.38a.15.15 0 0 0 .15-.15V26a.15.15 0 0 0-.15-.14h-1.34v-.51a.84.84 0 0 1 .18-.55.73.73 0 0 1 .51-.18 1.34 1.34 0 0 1 .51.11h.05a.12.12 0 0 0 .13-.11l.07-.23a.14.14 0 0 0-.08-.17 1.45 1.45 0 0 0-.65-.13 1.78 1.78 0 0 0-.72.14 1.08 1.08 0 0 0-.45.42 1.16 1.16 0 0 0-.16.61v.62h-.44a.15.15 0 0 0-.15.14v.25a.18.18 0 0 0 .16.13M82.63 22l.06-.24v-.05a.79.79 0 0 0-.38-.09.84.84 0 0 0-.37.08.49.49 0 0 0-.23.22.65.65 0 0 0-.08.31v.19h-.22s-.07 0-.07.06v.22a.07.07 0 0 0 .07.07h1.24s.06 0 .06-.07v-.22a.05.05 0 0 0-.06-.06H82v-.13a.33.33 0 0 1 .07-.24.3.3 0 0 1 .21-.08.63.63 0 0 1 .29.08s0 0 .08-.05M43.33 27.33l.06-.24v-.05a.85.85 0 0 0-.74 0 .43.43 0 0 0-.24.22.62.62 0 0 0-.08.31v.18h-.22s-.06 0-.06.07V28s0 .07.06.07h1.24s.06 0 .06-.07v-.22s0-.07-.06-.07h-.65v-.13a.28.28 0 0 1 .08-.23.26.26 0 0 1 .2-.08.6.6 0 0 1 .29.08s.07 0 .08-.05M39.49 24.62a2.45 2.45 0 0 0-.24-.81 1.09 1.09 0 0 0-1-.55 2.2 2.2 0 0 0-1.09.25.15.15 0 0 0 0 .2l.11.22a.14.14 0 0 0 .13.08.07.07 0 0 0 .06 0 1.76 1.76 0 0 1 .74-.19.63.63 0 0 1 .55.21 1.5 1.5 0 0 1 .26.74 2 2 0 0 0 .55 1.11H35.7v-1a1.63 1.63 0 0 0-.37-1.2 1.35 1.35 0 0 0-1-.39h-.07a2.48 2.48 0 0 0-1 .23 2.83 2.83 0 0 0-1.27 1.08v-.94a.14.14 0 0 0-.14-.14h-.29a.15.15 0 0 0-.14.14v2.19h-4.19v-4.08a.15.15 0 0 0-.14-.15h-.32a.15.15 0 0 0-.14.15v4.59H40.1a.12.12 0 0 0 .12-.11v-.39a2 2 0 0 1-.71-1.24m-7.57 1.22a2.21 2.21 0 0 1 .4-1.12 2.29 2.29 0 0 1 1.79-.92 1 1 0 0 1 .74.26 1.13 1.13 0 0 1 .25.82v1ZM41 26.38h5.45a.12.12 0 0 0 .11-.12v-4.48a.14.14 0 0 0-.14-.14h-.31a.15.15 0 0 0-.15.14v4.08h-1.5v-4.08a.14.14 0 0 0-.14-.14H44a.15.15 0 0 0-.15.14v4.08h-.79l-.78-3.27a.15.15 0 0 0-.15-.11h-.32a.26.26 0 0 0-.12.05.14.14 0 0 0 0 .12l.77 3.21H41a.14.14 0 0 0-.14.14v.23a.15.15 0 0 0 .14.15M70.83 26.26v-4.48a.15.15 0 0 0-.15-.14h-.31a.14.14 0 0 0-.14.14v4.08h-3.78a1.91 1.91 0 0 1-.65-.12 2.48 2.48 0 0 0 .79-.91 2.64 2.64 0 0 0 .3-1.12.18.18 0 0 0-.09-.17 2.32 2.32 0 0 0-.7-.3 2.77 2.77 0 0 0-.78-.11 2.86 2.86 0 0 0-.8.11 3.43 3.43 0 0 0-.7.3.21.21 0 0 0-.09.17 2.5 2.5 0 0 0 .3 1.12 2.69 2.69 0 0 0 .8.91 2.21 2.21 0 0 1-.7.1h-3.46v-4.07a.15.15 0 0 0-.15-.15h-.31a.15.15 0 0 0-.14.15v4.48a.11.11 0 0 0 .11.11h4a2.22 2.22 0 0 0 1.16-.31 2.44 2.44 0 0 0 1.17.31h4.25s.11 0 .11-.1m-6.22-1.51a2.06 2.06 0 0 1-.26-.87 2 2 0 0 1 .91-.23h.11a2 2 0 0 1 .91.23 2 2 0 0 1-.26.87 2.54 2.54 0 0 1-.69.7 2.41 2.41 0 0 1-.72-.7M72.81 21.64h-.32a.14.14 0 0 0-.14.14v4.45a.15.15 0 0 0 .14.15h.32a.15.15 0 0 0 .14-.15v-4.45a.14.14 0 0 0-.14-.14M95.47 26.38a.13.13 0 0 0 .12-.12v-4.48a.15.15 0 0 0-.15-.14h-.31a.14.14 0 0 0-.14.14v4.08h-2.66v-1a2 2 0 0 0-.56-1.55 2.15 2.15 0 0 0-1.59-.55 4 4 0 0 0-1.18.14.33.33 0 0 0-.1.06.25.25 0 0 0 0 .12l.07.22a.13.13 0 0 0 .14.11 4.37 4.37 0 0 1 1.05-.13 1.62 1.62 0 0 1 1.2.39 1.71 1.71 0 0 1 .38 1.22v1h-.64v-.8c0-.9-.42-1.35-1.24-1.35a1.4 1.4 0 0 0-.64.15 1.14 1.14 0 0 0-.5.54 1.25 1.25 0 0 0-.14.61 1.91 1.91 0 0 0 .12.51 1 1 0 0 0 .26.32H86v-2.4a.14.14 0 0 0-.14-.14h-.31a.15.15 0 0 0-.15.14v2.37h-3.07v-2.37a.15.15 0 0 0-.15-.14h-.31a.14.14 0 0 0-.14.14v2.37h-3.47v-2.38a.14.14 0 0 0-.14-.14h-.82a1.78 1.78 0 0 0-1.26.43 1.43 1.43 0 0 0-.47 1.14A1.39 1.39 0 0 0 76 26a1.75 1.75 0 0 0 1.18.37h18.29Zm-5.61-2.09c.45 0 .69.29.69.86v.71h-.5a.81.81 0 0 1-.61-.24.79.79 0 0 1-.24-.62.76.76 0 0 1 .17-.54.63.63 0 0 1 .49-.2m-12.17-.44v2h-.52a1.11 1.11 0 0 1-.74-.23 1 1 0 0 1-.26-.72 1 1 0 0 1 .3-.75 1.17 1.17 0 0 1 .86-.28h.36ZM97.41 21.64h-.31a.15.15 0 0 0-.15.14v4.45a.15.15 0 0 0 .15.15h.31a.15.15 0 0 0 .14-.15v-4.45a.14.14 0 0 0-.14-.14M55.52 26.38a.85.85 0 0 0 .81-.46c.21.33.6.46 1.3.46h1.25a.12.12 0 0 0 .12-.12v-1.43c0-1-.47-1.49-1.4-1.49A1.5 1.5 0 0 0 56.05 25c0 .77-.24.88-.53.88H51.8v-2.4a.15.15 0 0 0-.15-.14h-.82a1.78 1.78 0 0 0-1.26.43 1.5 1.5 0 0 0-.47 1.15 1.37 1.37 0 0 0 .43 1.08 1.74 1.74 0 0 0 1.18.38h4.81m-4.31-2.53v2h-.52a1.11 1.11 0 0 1-.74-.23 1 1 0 0 1-.26-.72 1 1 0 0 1 .29-.75 1.2 1.2 0 0 1 .86-.28h.37Zm6.33 0c.57 0 .83.34.83 1.08v.92h-.69c-.73 0-1-.27-1-.92s.36-1.08.89-1.08M86.43 27h-.3a.16.16 0 0 0-.13 0 .22.22 0 0 0-.05.12v.47a.13.13 0 0 0 .05.11.17.17 0 0 0 .12.06h.3a.17.17 0 0 0 .12-.06.16.16 0 0 0 0-.11v-.48a.16.16 0 0 0 0-.12.19.19 0 0 0-.12 0M85.3 27H85a.16.16 0 0 0-.12.05.17.17 0 0 0 0 .12v.47a.13.13 0 0 0 0 .11.16.16 0 0 0 .12.06h.3a.15.15 0 0 0 .11-.06.14.14 0 0 0 .06-.11v-.48a.17.17 0 0 0-.06-.12.12.12 0 0 0-.11 0M77.77 22.91h.3a.13.13 0 0 0 .11-.05.17.17 0 0 0 .06-.12v-.47a.15.15 0 0 0-.06-.11.14.14 0 0 0-.11-.06h-.3a.17.17 0 0 0-.12.06.13.13 0 0 0-.05.11v.47a.16.16 0 0 0 .05.12.21.21 0 0 0 .12.05M76.65 22.91H77a.13.13 0 0 0 .11-.05.17.17 0 0 0 .06-.12v-.47a.15.15 0 0 0-.06-.11.14.14 0 0 0-.11-.06h-.3a.17.17 0 0 0-.12.06.13.13 0 0 0 0 .11v.47a.16.16 0 0 0 0 .12.21.21 0 0 0 .12.05M51.37 22.91h.3a.15.15 0 0 0 .11-.05.17.17 0 0 0 0-.12v-.47a.14.14 0 0 0 0-.11.14.14 0 0 0-.11-.06h-.3a.17.17 0 0 0-.12.06.13.13 0 0 0 0 .11v.47a.16.16 0 0 0 0 .12.17.17 0 0 0 .12.05M50.23 22.91h.3a.16.16 0 0 0 .12-.05.17.17 0 0 0 .05-.12v-.47a.14.14 0 0 0-.05-.11.17.17 0 0 0-.12-.06h-.3a.14.14 0 0 0-.11.06.14.14 0 0 0-.06.11v.47a.17.17 0 0 0 .06.12.16.16 0 0 0 .11.05M25.6 31.78h-.31a.1.1 0 0 0-.09 0 .14.14 0 0 0 0 .09v1.63h-.7a1 1 0 0 1-.37-.07.71.71 0 0 1-.3-.22 1 1 0 0 1-.21-.4 2.13 2.13 0 0 1-.08-.6v-.77a2.32 2.32 0 0 1 .08-.64 1 1 0 0 1 .22-.4.81.81 0 0 1 .32-.21 1.1 1.1 0 0 1 .37-.06h1.1c.1 0 .1 0 .1-.07v-.37h-.08l-.43-.06h-.67a1.85 1.85 0 0 0-.56.08 1.14 1.14 0 0 0-.5.3 1.44 1.44 0 0 0-.37.56 2.4 2.4 0 0 0-.14.87v.77a2.35 2.35 0 0 0 .13.84 1.54 1.54 0 0 0 .35.56 1.27 1.27 0 0 0 .48.32 1.76 1.76 0 0 0 .55.09h.68c.19 0 .34 0 .48-.06a.15.15 0 0 0 .12-.16v-1.87a.18.18 0 0 0 0-.1s0 0-.07 0M28.62 31.18a1 1 0 0 0-.4-.27 1.4 1.4 0 0 0-.56-.09 1.27 1.27 0 0 0-1 .36 1.44 1.44 0 0 0-.34 1v.52a1.84 1.84 0 0 0 .11.67 1.21 1.21 0 0 0 .3.43 1.07 1.07 0 0 0 .43.24 2.07 2.07 0 0 0 .5.06h.53a4.33 4.33 0 0 0 .5-.08.15.15 0 0 0 .1 0 .35.35 0 0 0 0-.11v-.19a.09.09 0 0 0 0-.08s-.05 0-.08 0l-.48.06h-.53a.77.77 0 0 1-.59-.21 1 1 0 0 1-.19-.7v-.06h1.9c.05 0 .13 0 .13-.14v-.39a1.94 1.94 0 0 0-.08-.56 1 1 0 0 0-.25-.46m-1.7 1a.93.93 0 0 1 .19-.66.85.85 0 0 1 1.11 0 1 1 0 0 1 .18.67h-1.48ZM31 30.8a1.66 1.66 0 0 0-.47.07 2.05 2.05 0 0 0-.41.18V31a.18.18 0 0 0 0-.09.18.18 0 0 0-.1 0h-.28a.13.13 0 0 0-.09 0 .14.14 0 0 0 0 .09v2.9a.13.13 0 0 0 0 .1.13.13 0 0 0 .09 0H30a.18.18 0 0 0 .1 0 .21.21 0 0 0 0-.1v-2.4a2.76 2.76 0 0 1 .37-.16 1.27 1.27 0 0 1 .38-.07 1 1 0 0 1 .27 0 .44.44 0 0 1 .19.12.38.38 0 0 1 .1.22 1.26 1.26 0 0 1 0 .37v1.92a.13.13 0 0 0 0 .1.15.15 0 0 0 .09 0h.27a.13.13 0 0 0 .09 0 .14.14 0 0 0 0-.1V32a1.4 1.4 0 0 0-.24-.9.83.83 0 0 0-.62-.3M34.86 31.18a1.13 1.13 0 0 0-.4-.27 1.4 1.4 0 0 0-.56-.09 1.31 1.31 0 0 0-1 .36 1.48 1.48 0 0 0-.33 1v.52a1.84 1.84 0 0 0 .11.67 1.21 1.21 0 0 0 .3.43 1.07 1.07 0 0 0 .43.24 2.07 2.07 0 0 0 .5.06h.53A4.33 4.33 0 0 0 35 34a.15.15 0 0 0 .1 0 .35.35 0 0 0 0-.11v-.19a.1.1 0 0 0 0-.08s-.05 0-.08 0l-.48.06h-.53a.77.77 0 0 1-.59-.21 1 1 0 0 1-.19-.72h1.9s.13 0 .13-.14v-.31a1.89 1.89 0 0 0-.08-.56.94.94 0 0 0-.25-.45m-1.7 1a.93.93 0 0 1 .19-.66.85.85 0 0 1 1.11 0 1 1 0 0 1 .18.67h-1.55ZM37.1 30.8a1.46 1.46 0 0 0-.4.07 1.45 1.45 0 0 0-.39.2V31a.1.1 0 0 0 0-.09.11.11 0 0 0-.09 0h-.32a.12.12 0 0 0-.09 0 .15.15 0 0 0 0 .09v2.93a.15.15 0 0 0 0 .09.12.12 0 0 0 .09 0h.29a.1.1 0 0 0 .09 0 .14.14 0 0 0 0-.09v-2.4a1.55 1.55 0 0 1 .4-.18 1.2 1.2 0 0 1 .38-.05c.13 0 .14-.08.14-.12V31c0-.11 0-.15-.13-.15M38.81 30.8h-.51l-.39.05c-.12 0-.14.08-.14.13V31.27h.07a2.38 2.38 0 0 1 .39 0h.5a.59.59 0 0 1 .45.14.71.71 0 0 1 .13.5v.2H39a2.93 2.93 0 0 0-.65.06 1.09 1.09 0 0 0-.45.18.7.7 0 0 0-.24.3.88.88 0 0 0-.08.41v.07a1.05 1.05 0 0 0 .08.46.9.9 0 0 0 .21.29.62.62 0 0 0 .31.16 1.42 1.42 0 0 0 .36 0A1.4 1.4 0 0 0 39 34l.39-.18v.09a.13.13 0 0 0 0 .09.14.14 0 0 0 .09 0h.26a.1.1 0 0 0 .09 0 .11.11 0 0 0 0-.09v-2a1.15 1.15 0 0 0-.27-.81.91.91 0 0 0-.82-.32m-.67 2.26a.82.82 0 0 1 0-.25.4.4 0 0 1 .13-.16 1.31 1.31 0 0 1 .26-.09 2.82 2.82 0 0 1 .43 0h.41v.88a1.78 1.78 0 0 1-.38.17 1.2 1.2 0 0 1-.38 0 .56.56 0 0 1-.37-.1c-.1-.06-.14-.2-.14-.4v-.08ZM41.1 29.68h-.3a.15.15 0 0 0-.09 0 .13.13 0 0 0 0 .1v4.1a.14.14 0 0 0 .13.13h.3a.1.1 0 0 0 .09 0 .14.14 0 0 0 0-.09v-4.1a.13.13 0 0 0 0-.1.13.13 0 0 0-.09 0M45.5 30.14a.56.56 0 0 0-.1-.22 1.07 1.07 0 0 0-.16-.14.36.36 0 0 0-.17-.07h-.33a.77.77 0 0 0-.19.08.71.71 0 0 0-.15.15.46.46 0 0 0-.11.22l-1.07 3.74v.06c0 .06 0 .11.12.11H43.76V34l.36-1.3h1.46L46 34v.07a.1.1 0 0 0 .07 0h.34a.11.11 0 0 0 .12-.12Zm-1.21 2 .52-1.87c0-.07.07-.09.09-.09s.07 0 .1.09l.52 1.87ZM49.35 30.84h-.29a.13.13 0 0 0-.09 0 .14.14 0 0 0 0 .09v2.41a2.39 2.39 0 0 1-.38.16 1.27 1.27 0 0 1-.38.07 1 1 0 0 1-.27 0 .41.41 0 0 1-.18-.12.46.46 0 0 1-.11-.22 1.83 1.83 0 0 1 0-.37V31a.18.18 0 0 0 0-.09.21.21 0 0 0-.1 0h-.27a.15.15 0 0 0-.09 0A.14.14 0 0 0 47 31v1.89a1.4 1.4 0 0 0 .25.9.93.93 0 0 0 .78.33 1.66 1.66 0 0 0 .47-.07 2.41 2.41 0 0 0 .42-.18v.08A.14.14 0 0 0 49 34a.13.13 0 0 0 .1 0h.28a.1.1 0 0 0 .09 0 .14.14 0 0 0 0-.09V31a.1.1 0 0 0 0-.09.24.24 0 0 0-.11-.06M51.43 33.63h-.32a.34.34 0 0 1-.23-.05.46.46 0 0 1-.06-.29v-2h.6a.11.11 0 0 0 .09 0 .15.15 0 0 0 0-.09V31a.13.13 0 0 0 0-.09.14.14 0 0 0-.09 0h-.6v-.6a.12.12 0 0 0 0-.09s0 0-.09 0l-.3.05a.14.14 0 0 0-.12.15v3a1.07 1.07 0 0 0 .06.39.53.53 0 0 0 .15.25.49.49 0 0 0 .25.12 1.89 1.89 0 0 0 .35 0h.18a.69.69 0 0 0 .2 0c.1 0 .12-.07.12-.11v-.21a.15.15 0 0 0-.16-.12M54.23 31.09a.87.87 0 0 0-.34-.22 1.18 1.18 0 0 0-.43-.07 4 4 0 0 0-.43 0 2.7 2.7 0 0 0-.43.12v-1.1a.13.13 0 0 0 0-.1.13.13 0 0 0-.09 0h-.28a.18.18 0 0 0-.1 0 .19.19 0 0 0 0 .1v4.1a.14.14 0 0 0 0 .09.13.13 0 0 0 .1 0h.28a.1.1 0 0 0 .09 0 .14.14 0 0 0 0-.09v-2.48a1.06 1.06 0 0 1 .19-.06.79.79 0 0 1 .22-.05.76.76 0 0 1 .21 0h.15a.59.59 0 0 1 .43.15.81.81 0 0 1 .2.52v1.9a.13.13 0 0 0 0 .1.15.15 0 0 0 .09 0h.27a.13.13 0 0 0 .09 0 .14.14 0 0 0 0-.1V32a1.55 1.55 0 0 0-.08-.55.71.71 0 0 0-.18-.38M57.4 31.2a1 1 0 0 0-.42-.29 1.43 1.43 0 0 0-.56-.11 1.4 1.4 0 0 0-.56.11 1 1 0 0 0-.4.29 1.17 1.17 0 0 0-.25.45 2.1 2.1 0 0 0-.08.59v.44a2.27 2.27 0 0 0 .08.59 1.24 1.24 0 0 0 .25.45 1 1 0 0 0 .4.29A1.62 1.62 0 0 0 57 34a1.26 1.26 0 0 0 .42-.29 1.29 1.29 0 0 0 .24-.45 1.79 1.79 0 0 0 .08-.59v-.44a1.87 1.87 0 0 0-.08-.59 1.48 1.48 0 0 0-.24-.45m-1 2.41a.67.67 0 0 1-.58-.25 1.28 1.28 0 0 1-.18-.69v-.45a1.26 1.26 0 0 1 .18-.69.69.69 0 0 1 .58-.24.67.67 0 0 1 .57.24 1.2 1.2 0 0 1 .18.69v.45a1.16 1.16 0 0 1-.18.69.65.65 0 0 1-.57.25M59.64 30.8a1.6 1.6 0 0 0-.41.07 1.81 1.81 0 0 0-.39.2V31a.14.14 0 0 0-.13-.13h-.27a.1.1 0 0 0-.09 0 .11.11 0 0 0 0 .09v2.93a.11.11 0 0 0 0 .09.1.1 0 0 0 .09 0h.28a.13.13 0 0 0 .1 0 .23.23 0 0 0 0-.09V31.5a1.77 1.77 0 0 1 .41-.18 1.11 1.11 0 0 1 .37-.05c.13 0 .15-.08.15-.12V31c0-.11 0-.15-.13-.15M60.72 30.84h-.28a.18.18 0 0 0-.09 0 .23.23 0 0 0 0 .09v2.97a.18.18 0 0 0 0 .1h.37a.15.15 0 0 0 .09 0 .21.21 0 0 0 0-.1V31a.18.18 0 0 0 0-.09.15.15 0 0 0-.09 0M60.73 29.65h-.3a.14.14 0 0 0-.09 0 .14.14 0 0 0 0 .1v.45a.1.1 0 0 0 0 .09.14.14 0 0 0 .09 0h.3a.1.1 0 0 0 .09 0 .11.11 0 0 0 0-.09v-.45a.13.13 0 0 0 0-.1.12.12 0 0 0-.09 0M62.83 33.63h-.33a.33.33 0 0 1-.22-.05s-.06-.09-.06-.29v-2h.59a.13.13 0 0 0 .1 0 .15.15 0 0 0 0-.09V31a.13.13 0 0 0 0-.09.14.14 0 0 0-.1 0h-.59v-.6a.19.19 0 0 0 0-.09.1.1 0 0 0-.09 0l-.3.05a.14.14 0 0 0-.12.15v3a1.09 1.09 0 0 0 0 .39.62.62 0 0 0 .15.25.42.42 0 0 0 .24.12 2.06 2.06 0 0 0 .36 0h.18a.63.63 0 0 0 .19 0C63 34.06 63 34 63 34v-.21s0-.12-.14-.12M65.91 30.84h-.32a.15.15 0 0 0-.08 0 .15.15 0 0 0-.05.07l-.7 2.61h-.12v-.09L63.92 31a.16.16 0 0 0 0-.07.12.12 0 0 0-.08 0h-.31c-.08 0-.13 0-.13.12v.05l.77 2.63a1.85 1.85 0 0 0 .09.23.47.47 0 0 0 .11.13.29.29 0 0 0 .13 0h.18l-.05.21a1.49 1.49 0 0 1-.08.23.33.33 0 0 1-.1.15.25.25 0 0 1-.15.06.64.64 0 0 1-.2 0H63.53c-.12 0-.13.06-.13.12V35s0 .07.05.07H64a1.27 1.27 0 0 0 .42 0 .67.67 0 0 0 .3-.16.73.73 0 0 0 .2-.27 1.68 1.68 0 0 0 .15-.4l1-3.31a.18.18 0 0 0-.16-.1M69.38 29.66h-.33a1.06 1.06 0 0 0-.33 0 .49.49 0 0 0-.27.13.68.68 0 0 0-.16.26 1.07 1.07 0 0 0-.06.39v.39h-.53a.1.1 0 0 0-.09 0 .11.11 0 0 0 0 .09v.16c0 .05 0 .11.13.13l.53.06v2.61a.15.15 0 0 0 0 .09.14.14 0 0 0 .09 0h.29a.1.1 0 0 0 .09 0 .14.14 0 0 0 0-.09v-2.57h.59c.09 0 .13 0 .13-.11V31a.18.18 0 0 0 0-.09.15.15 0 0 0-.09 0h-.59v-.39a.52.52 0 0 1 .07-.3s.13-.07.26-.07h.27a.12.12 0 0 0 .13-.11v-.19c0-.06-.05-.1-.13-.12M72.09 31.2a1 1 0 0 0-.42-.29 1.45 1.45 0 0 0-.57-.11 1.4 1.4 0 0 0-.56.11 1 1 0 0 0-.4.29 1.17 1.17 0 0 0-.25.45 2.1 2.1 0 0 0-.08.59v.44a2.27 2.27 0 0 0 .08.59 1.24 1.24 0 0 0 .25.45 1 1 0 0 0 .4.29 1.6 1.6 0 0 0 .56.1 1.7 1.7 0 0 0 .57-.1 1.26 1.26 0 0 0 .42-.29 1.5 1.5 0 0 0 .25-.45 2.12 2.12 0 0 0 .07-.59v-.44a2.22 2.22 0 0 0-.07-.59 1.5 1.5 0 0 0-.25-.45m-1 2.41a.65.65 0 0 1-.57-.25 1.2 1.2 0 0 1-.18-.69v-.45a1.18 1.18 0 0 1 .18-.69.67.67 0 0 1 .57-.24.69.69 0 0 1 .58.24 1.28 1.28 0 0 1 .18.69v.45a1.23 1.23 0 0 1-.18.69.69.69 0 0 1-.58.25M74.34 30.8a1.46 1.46 0 0 0-.4.07 1.45 1.45 0 0 0-.39.2V31a.13.13 0 0 0 0-.09.11.11 0 0 0-.09 0h-.28a.11.11 0 0 0-.09 0A.15.15 0 0 0 73 31v2.93a.15.15 0 0 0 0 .09.11.11 0 0 0 .09 0h.29a.1.1 0 0 0 .09 0 .14.14 0 0 0 0-.09v-2.4a1.55 1.55 0 0 1 .4-.18 1.2 1.2 0 0 1 .38-.05c.13 0 .14-.08.14-.12V31c0-.11 0-.15-.13-.15M78.51 32.3a1.92 1.92 0 0 0-.29-.27 3.64 3.64 0 0 0-.41-.29l-.54-.31a2.89 2.89 0 0 1-.47-.34.52.52 0 0 1 0-.75 1.27 1.27 0 0 1 .64-.12h1.04a.11.11 0 0 0 .12-.12v-.25s0-.1-.12-.11a.84.84 0 0 0-.19 0h-.81a1.78 1.78 0 0 0-1 .25.88.88 0 0 0-.36.79.82.82 0 0 0 .21.6 2.26 2.26 0 0 0 .6.5l.56.34a2.21 2.21 0 0 1 .32.22.76.76 0 0 1 .21.18.61.61 0 0 1 .14.36.86.86 0 0 1 0 .28.43.43 0 0 1-.13.21.63.63 0 0 1-.26.13 2.08 2.08 0 0 1-.41 0h-.95a.15.15 0 0 0-.08 0 .1.1 0 0 0 0 .09v.23a.13.13 0 0 0 0 .08.12.12 0 0 0 .11 0h.41a4.39 4.39 0 0 0 .54 0 2.21 2.21 0 0 0 .61 0 1.19 1.19 0 0 0 .45-.28 1 1 0 0 0 .22-.38 1.51 1.51 0 0 0 .06-.41.91.91 0 0 0 0-.33 1.08 1.08 0 0 0-.17-.34M80.45 33.63h-.32a.34.34 0 0 1-.23-.05.46.46 0 0 1-.06-.29v-2h.6a.14.14 0 0 0 .13-.13V31a.1.1 0 0 0 0-.09.14.14 0 0 0-.09 0h-.6v-.6a.12.12 0 0 0 0-.09s0 0-.09 0l-.3.05a.14.14 0 0 0-.12.15v3a1.07 1.07 0 0 0 .06.39.62.62 0 0 0 .15.25.49.49 0 0 0 .25.12 1.89 1.89 0 0 0 .35 0h.18a.64.64 0 0 0 .2 0c.1 0 .12-.07.12-.11v-.21a.15.15 0 0 0-.16-.12M82.26 30.8h-.51l-.39.05c-.11 0-.14.08-.14.13V31.27a.19.19 0 0 0 .08 0 2.38 2.38 0 0 1 .39 0h.5a.57.57 0 0 1 .45.14.67.67 0 0 1 .13.5v.2h-.4a2.93 2.93 0 0 0-.65.06 1 1 0 0 0-.44.18.65.65 0 0 0-.25.3 1 1 0 0 0-.08.41v.07a1.22 1.22 0 0 0 .08.46.9.9 0 0 0 .21.29.62.62 0 0 0 .31.16 1.45 1.45 0 0 0 .37 0 1.39 1.39 0 0 0 .46-.08l.39-.18v.09a.13.13 0 0 0 0 .09.14.14 0 0 0 .09 0h.27a.12.12 0 0 0 .09 0 .15.15 0 0 0 0-.09v-2a1.15 1.15 0 0 0-.28-.81.89.89 0 0 0-.82-.32M81.46 33a.6.6 0 0 1 0-.25.28.28 0 0 1 .13-.16 1 1 0 0 1 .26-.09 2.69 2.69 0 0 1 .43 0h.4v.88a1.78 1.78 0 0 1-.38.17 1.11 1.11 0 0 1-.37 0 .59.59 0 0 1-.38-.1c-.09-.06-.13-.2-.13-.4v-.08ZM85.27 33.63h-.33a.33.33 0 0 1-.22-.05.46.46 0 0 1-.06-.29v-2h.6a.11.11 0 0 0 .09 0 .15.15 0 0 0 0-.09V31a.13.13 0 0 0 0-.09.14.14 0 0 0-.09 0h-.6v-.6a.12.12 0 0 0 0-.09s0 0-.09 0l-.3.05a.14.14 0 0 0-.12.15v3a1.07 1.07 0 0 0 .06.39.61.61 0 0 0 .14.25.45.45 0 0 0 .25.12 1.89 1.89 0 0 0 .35 0h.18a.69.69 0 0 0 .2 0c.1 0 .11-.07.11-.11v-.21s0-.12-.14-.12M86.35 29.65h-.3a.14.14 0 0 0-.09 0 .14.14 0 0 0 0 .1v.45a.1.1 0 0 0 0 .09.14.14 0 0 0 .09 0h.3a.1.1 0 0 0 .09 0 .11.11 0 0 0 0-.09v-.45a.13.13 0 0 0 0-.1.12.12 0 0 0-.09 0M86.34 30.84h-.27a.18.18 0 0 0-.1 0 .23.23 0 0 0 0 .09v2.97a.18.18 0 0 0 0 .1.21.21 0 0 0 .1 0h.27a.15.15 0 0 0 .09 0 .14.14 0 0 0 0-.1V31a.12.12 0 0 0 0-.09.15.15 0 0 0-.09 0M88.58 32.35 88 32a1.85 1.85 0 0 1-.3-.21.27.27 0 0 1-.09-.21c0-.14 0-.22.13-.26a1 1 0 0 1 .37-.05H89.02a.11.11 0 0 0 .12-.12V31c0-.05 0-.11-.13-.13l-.43-.05h-.47a2.71 2.71 0 0 0-.41 0 1 1 0 0 0-.34.13.75.75 0 0 0-.22.25.79.79 0 0 0-.08.38.67.67 0 0 0 .17.48 1.62 1.62 0 0 0 .43.37l.58.33a3 3 0 0 1 .34.25.36.36 0 0 1 .09.21c0 .16 0 .25-.13.3a.87.87 0 0 1-.41.08H87.23a.19.19 0 0 0-.09 0s0 .05 0 .08v.19s0 .11.14.13a.8.8 0 0 0 .24 0 2 2 0 0 0 .24 0h.43a1.59 1.59 0 0 0 .45-.05 1.11 1.11 0 0 0 .35-.16.6.6 0 0 0 .22-.27.9.9 0 0 0 .08-.39.8.8 0 0 0-.15-.47 2.75 2.75 0 0 0-.49-.37M91 33.63h-.33a.33.33 0 0 1-.22-.05s-.07-.09-.07-.29v-2H91a.1.1 0 0 0 .09 0 .11.11 0 0 0 0-.09V31a.1.1 0 0 0 0-.09.11.11 0 0 0-.09 0h-.6v-.6a.2.2 0 0 0 0-.09.1.1 0 0 0-.09 0l-.3.05a.14.14 0 0 0-.12.15v3a1.09 1.09 0 0 0 0 .39.74.74 0 0 0 .11.19.49.49 0 0 0 .25.12 1.94 1.94 0 0 0 .35 0h.19a.63.63 0 0 0 .19 0c.11 0 .12-.07.12-.11v-.21s0-.12-.14-.12M92 30.84h-.27a.15.15 0 0 0-.09 0 .14.14 0 0 0 0 .09v2.97a.13.13 0 0 0 0 .1.18.18 0 0 0 .09 0H92a.13.13 0 0 0 .09 0 .14.14 0 0 0 0-.1V31a.12.12 0 0 0 0-.09.13.13 0 0 0-.09 0M92.06 29.65h-.3a.12.12 0 0 0-.09 0 .14.14 0 0 0 0 .1v.45a.1.1 0 0 0 0 .09.11.11 0 0 0 .09 0h.3a.11.11 0 0 0 .09 0 .15.15 0 0 0 0-.09v-.45a.18.18 0 0 0 0-.1.24.24 0 0 0-.09 0M94.79 30.87a1.63 1.63 0 0 0-.34-.05 2.55 2.55 0 0 0-.39 0 1.29 1.29 0 0 0-.53.11 1 1 0 0 0-.39.29 1.16 1.16 0 0 0-.24.44 2 2 0 0 0-.07.58v.45a2.15 2.15 0 0 0 .07.58 1.17 1.17 0 0 0 .25.45 1.21 1.21 0 0 0 .39.28 1.3 1.3 0 0 0 .54.11 2.55 2.55 0 0 0 .39 0 1.74 1.74 0 0 0 .34 0s.09 0 .1-.05a.24.24 0 0 0 0-.1v-.21a.08.08 0 0 0 0-.08h-.78a.65.65 0 0 1-.52-.22 1.15 1.15 0 0 1-.18-.7v-.45a1.09 1.09 0 0 1 .18-.7.62.62 0 0 1 .52-.22H94.93a.12.12 0 0 0 0-.08V31a.16.16 0 0 0 0-.11l-.13-.05M96.92 32.35l-.58-.35a2.45 2.45 0 0 1-.3-.21.3.3 0 0 1-.04-.19c0-.14 0-.22.13-.26a1 1 0 0 1 .38-.05H97.42a.11.11 0 0 0 .12-.12V31c0-.05 0-.11-.13-.13l-.43-.05h-.47a2.85 2.85 0 0 0-.42 0 1 1 0 0 0-.34.13.75.75 0 0 0-.22.25.92.92 0 0 0-.08.38.72.72 0 0 0 .17.48 2 2 0 0 0 .43.37l.59.33.34.25a.36.36 0 0 1 .09.21c0 .16 0 .25-.13.3a.92.92 0 0 1-.42.08H95.53a.1.1 0 0 0 0 .08v.19s0 .11.15.13a.73.73 0 0 0 .23 0 2.13 2.13 0 0 0 .25 0h.43a1.52 1.52 0 0 0 .31 0 1 1 0 0 0 .35-.16.69.69 0 0 0 .23-.27.91.91 0 0 0 .07-.39.86.86 0 0 0-.14-.47 4.26 4.26 0 0 0-.49-.37M110.87 29.79a.49.49 0 0 0-.5.49v2.45a.5.5 0 1 0 1 0v-2.45a.5.5 0 0 0-.49-.49M108.89 31.6a.41.41 0 0 0-.42.42v1.7a.42.42 0 1 0 .83 0V32a.41.41 0 0 0-.41-.42M113 26a.58.58 0 0 0-.59.59v5.18a.58.58 0 0 0 .59.59.59.59 0 0 0 .59-.59v-5.22A.6.6 0 0 0 113 26M108.89 24.07a.5.5 0 0 0-.5.5v2.48a.5.5 0 1 0 1 0v-2.48a.51.51 0 0 0-.49-.5M110.87 25a.25.25 0 0 0-.12 0h-.09a.54.54 0 0 0-.33.5v3a.53.53 0 0 0 .35.5s0 0 .06 0h.14a.53.53 0 0 0 .53-.53v-3a.56.56 0 0 0-.54-.55M107 23.19a.44.44 0 0 0-.45.44v2a.45.45 0 1 0 .89 0v-2a.44.44 0 0 0-.44-.44M105.2 22.35a.39.39 0 0 0-.39.39v1.54a.39.39 0 0 0 .78 0v-1.54a.39.39 0 0 0-.39-.39M103.53 21.58a.32.32 0 0 0-.32.33v1.18a.32.32 0 0 0 .32.33.33.33 0 0 0 .33-.33V21.9a.33.33 0 0 0-.33-.32M115.15 27a.58.58 0 0 0-.59.58V31a.59.59 0 1 0 1.18 0v-3.43a.58.58 0 0 0-.59-.58M119.44 29.79a.49.49 0 0 1 .49.49v2.45a.5.5 0 1 1-1 0v-2.45a.49.49 0 0 1 .5-.49M121.42 31.6a.41.41 0 0 1 .41.42v1.7a.42.42 0 1 1-.83 0V32a.41.41 0 0 1 .42-.42M117.35 26a.58.58 0 0 1 .59.59v5.18a.59.59 0 1 1-1.17 0v-5.22a.59.59 0 0 1 .58-.59M121.42 24.07a.49.49 0 0 1 .49.5v2.48a.5.5 0 1 1-1 0v-2.48a.5.5 0 0 1 .5-.5M119.44 25a.22.22 0 0 1 .11 0h.09a.54.54 0 0 1 .33.5v3a.53.53 0 0 1-.35.5h-.2a.53.53 0 0 1-.53-.53v-3a.56.56 0 0 1 .55-.55M123.3 23.19a.44.44 0 0 1 .45.44v2a.45.45 0 1 1-.89 0v-2a.44.44 0 0 1 .44-.44M125.1 22.35a.39.39 0 0 1 .39.39v1.54a.39.39 0 0 1-.78 0v-1.54a.39.39 0 0 1 .39-.39M126.76 21.58a.32.32 0 0 1 .32.33v1.18a.33.33 0 1 1-.65 0V21.9a.35.35 0 0 1 .33-.32" transform="translate(-22.92)" style="fill:#353535"/><path data-name="SVGID" style="fill:#353535" d="M85.47 1.26h.98v2.63h-.98z"/><g style="clip-path:url(#a)"><path style="fill:#353535" d="M85.47 1.26h.98v2.63h-.98z"/></g><path data-name="SVGID" style="fill:#353535" d="M85.47 17.01h.98v2.63h-.98z"/><g style="clip-path:url(#b)"><path style="fill:#353535" d="M85.47 17.01h.98v2.63h-.98z"/></g><path data-name="SVGID" style="fill:#353535" d="M98 1.26h.98v2.63H98z"/><g style="clip-path:url(#c)"><path style="fill:#353535" d="M98 1.26h.98v2.63H98z"/></g><path data-name="SVGID" style="fill:#353535" d="M98 17.01h.98v2.63H98z"/><g style="clip-path:url(#d)"><path style="fill:#353535" d="M98 17.01h.98v2.63H98z"/></g><path data-name="SVGID" style="fill:#353535" d="M89.43 4.16h1.17v12.6h-1.17z"/><g style="clip-path:url(#e)"><path style="fill:#353535" d="M89.43 4.16h1.17v12.6h-1.17z"/></g><path data-name="SVGID" style="fill:#353535" d="M85.47 6.32h.98v3.52h-.98z"/><g style="clip-path:url(#f)"><path style="fill:#353535" d="M85.47 6.32h.98v3.52h-.98z"/></g><path data-name="SVGID" style="fill:#353535" d="M87.4 2.63h1.08v15.64H87.4z"/><g style="clip-path:url(#g)"><path style="fill:#353535" d="M87.4 2.63h1.08v15.64H87.4z"/></g><path data-name="SVGID" style="fill:#353535" d="M83.64 5.8h.89v3.01h-.89z"/><g style="clip-path:url(#h)"><path style="fill:#353535" d="M83.64 5.8h.89v3.01h-.89z"/></g><path data-name="SVGID" style="fill:#353535" d="M81.88 5.26h.79v2.38h-.79z"/><g style="clip-path:url(#i)"><path style="fill:#353535" d="M81.88 5.26h.79v2.38h-.79z"/></g><path data-name="SVGID" style="fill:#353535" d="M89.43 4.16h1.17v12.6h-1.17z"/><g style="clip-path:url(#e)"><path style="fill:#353535" d="M89.43 4.16h1.17v12.6h-1.17z"/></g><path data-name="SVGID" style="fill:#353535" d="M85.47 11.07h.98v3.52h-.98z"/><g style="clip-path:url(#j)"><path style="fill:#353535" d="M85.47 11.07h.98v3.52h-.98z"/></g><path data-name="SVGID" style="fill:#353535" d="M83.64 12.09h.89v3.01h-.89z"/><g style="clip-path:url(#k)"><path style="fill:#353535" d="M83.64 12.09h.89v3.01h-.89z"/></g><path data-name="SVGID" style="fill:#353535" d="M81.88 13.26h.79v2.38h-.79z"/><g style="clip-path:url(#l)"><path style="fill:#353535" d="M81.88 13.26h.79v2.38h-.79z"/></g><path data-name="SVGID" style="fill:#353535" d="M93.83 4.16H95v12.6h-1.17z"/><g style="clip-path:url(#m)"><path style="fill:#353535" d="M93.83 4.16H95v12.6h-1.17z"/></g><path data-name="SVGID" style="fill:#353535" d="M98 6.32h.98v3.52H98z"/><g style="clip-path:url(#n)"><path style="fill:#353535" d="M98 6.32h.98v3.52H98z"/></g><path data-name="SVGID" style="fill:#353535" d="M95.97 2.63h1.08v15.64h-1.08z"/><g style="clip-path:url(#o)"><path style="fill:#353535" d="M95.97 2.63h1.08v15.64h-1.08z"/></g><path data-name="SVGID" style="fill:#353535" d="M99.93 5.8h.89v3.01h-.89z"/><g style="clip-path:url(#p)"><path style="fill:#353535" d="M99.93 5.8h.89v3.01h-.89z"/></g><path data-name="SVGID" style="fill:#353535" d="M101.78 5.26h.79v2.38h-.79z"/><g style="clip-path:url(#q)"><path style="fill:#353535" d="M101.78 5.26h.79v2.38h-.79z"/></g><path data-name="SVGID" style="fill:#353535" d="M93.83 4.16H95v12.6h-1.17z"/><g style="clip-path:url(#m)"><path style="fill:#353535" d="M93.83 4.16H95v12.6h-1.17z"/></g><path data-name="SVGID" style="fill:#353535" d="M98 11.07h.98v3.52H98z"/><g style="clip-path:url(#r)"><path style="fill:#353535" d="M98 11.07h.98v3.52H98z"/></g><path data-name="SVGID" style="fill:#353535" d="M99.93 12.09h.89v3.01h-.89z"/><g style="clip-path:url(#s)"><path style="fill:#353535" d="M99.93 12.09h.89v3.01h-.89z"/></g><path data-name="SVGID" style="fill:#353535" d="M101.78 13.26h.79v2.38h-.79z"/><g style="clip-path:url(#t)"><path style="fill:#353535" d="M101.78 13.26h.79v2.38h-.79z"/></g><path data-name="SVGID" style="fill:#353535" d="M91.63 0h1.17v25.43h-1.17z"/><g style="clip-path:url(#u)"><path style="fill:#353535" d="M91.63 0h1.17v25.43h-1.17z"/></g></svg>