<svg xmlns="http://www.w3.org/2000/svg" overflow="hidden" viewBox="0 0 69 23"><defs><clipPath id="a"><path d="M-102 18h69v23h-69z"/></clipPath></defs><g clip-path="url(#a)" transform="translate(102 -18)"><path fill="#4285F4" d="M-97.1 28.4v1.3h3c0 .7-.3 1.2-.7 1.6a3 3 0 0 1-2.3.9 3.3 3.3 0 0 1-3.3-3.4 3.3 3.3 0 0 1 5.6-2.4l.9-.9a4.4 4.4 0 0 0-3.2-1.3 4.7 4.7 0 0 0-4.7 4.6c0 2.6 2.1 4.6 4.7 4.6 1.4 0 2.4-.4 3.2-1.2a4 4 0 0 0 1.1-3v-.8h-4.3Z"/><path fill="#EA4335" d="M-89 27.4a3 3 0 0 0-3 3 3 3 0 0 0 3 3 3 3 0 0 0 3-3 3 3 0 0 0-3-3Zm0 4.8c-1 0-1.7-.8-1.7-1.8 0-1.1.8-1.8 1.7-1.8.9 0 1.7.7 1.7 1.8 0 1-.8 1.8-1.7 1.8Z"/><path fill="#4285F4" d="M-74.3 28a2 2 0 0 0-1.6-.6c-1.5 0-2.8 1.3-2.8 3 0 1.6 1.3 3 2.8 3a2 2 0 0 0 1.5-.7v.4c0 1.1-.5 1.7-1.5 1.7-.8 0-1.3-.5-1.5-1l-1.2.4c.4.8 1.2 1.8 2.7 1.8 1.5 0 2.8-1 2.8-3.1v-5.3h-1.2v.5Zm-1.5 4.2c-1 0-1.6-.8-1.6-1.8s.7-1.8 1.6-1.8c.9 0 1.6.7 1.6 1.8 0 1-.7 1.8-1.6 1.8Z"/><path fill="#FBBC05" d="M-82.3 27.4a3 3 0 0 0-3 3 3 3 0 0 0 3 3 3 3 0 0 0 3-3 3 3 0 0 0-3-3Zm0 4.8c-1 0-1.7-.8-1.7-1.8 0-1.1.8-1.8 1.7-1.8.9 0 1.7.7 1.7 1.8 0 1-.8 1.8-1.7 1.8Z"/><path fill="#34A853" d="M-72 24.4h1.2v9H-72Z"/><path fill="#EA4335" d="M-66.8 32.2c-.7 0-1.1-.3-1.4-1l4-1.6-.2-.3c-.2-.7-1-1.9-2.5-1.9-1.6 0-2.8 1.2-2.8 3a3 3 0 0 0 3 3 3 3 0 0 0 2.4-1.4l-1-.6c-.4.4-.8.8-1.5.8Zm0-3.7c.4 0 .9.3 1 .7l-2.6 1c0-1.2.8-1.7 1.5-1.7Z"/><path fill="#5F6368" d="M-60.5 33.4v-8.1h1.3l4 6.3v-6.3h1v8.1h-1.1l-4.2-6.6v6.6h-1Zm10.3.2c-.9 0-1.6-.3-2-.8a3 3 0 0 1-.9-2.2c0-.8.3-1.5.8-2 .5-.7 1.2-1 2-1s1.5.3 2 .9c.5.5.7 1.2.7 2.1v.2H-52a1.7 1.7 0 0 0 1.8 1.8c.7 0 1.2-.3 1.5-1l1 .5c-.3.4-.6.8-1 1-.4.3-1 .5-1.5.5Zm1.5-3.6c0-.4-.2-.7-.4-1-.3-.2-.7-.4-1.3-.4-.3 0-.7.1-1 .4-.3.2-.4.5-.6 1h3.3Zm8.2 3.4h-1l-1.5-4.3-1.4 4.3h-1l-1.8-5.6h1l1.3 4.2 1.4-4.2h1.1L-41 32l1.2-4.2h1.1l-1.8 5.6Zm4.6.2a2.5 2.5 0 0 1-2.5-1.6l1-.4c.3.7.8 1 1.5 1 .3 0 .6 0 .8-.2.2-.1.3-.3.3-.5 0-.4-.3-.6-.8-.8l-1.1-.2a2 2 0 0 1-1-.6c-.3-.2-.5-.6-.5-1 0-.5.2-.9.7-1.2.4-.3 1-.4 1.5-.4s1 0 1.3.3c.4.2.7.5.9 1l-1 .3c-.1-.5-.6-.7-1.2-.7-.3 0-.6 0-.8.2-.2.1-.3.3-.3.5 0 .3.2.5.7.7l1.1.2c.6.1 1 .3 1.2.6.2.3.4.7.4 1 0 .5-.2 1-.6 1.3a3 3 0 0 1-1.6.5Z"/></g></svg>
