<svg width="69" height="23" xmlns="http://www.w3.org/2000/svg" xmlns:xlink="http://www.w3.org/1999/xlink" overflow="hidden"><defs><clipPath id="clip0"><rect x="-102" y="18" width="69" height="23"/></clipPath></defs><g clip-path="url(#clip0)" transform="translate(102 -18)"><path d="M4.72906 4.19167 4.72906 5.4507 7.73846 5.4507C7.64634 6.15699 7.41091 6.67391 7.05264 7.03729 6.61249 7.47744 5.92668 7.95854 4.72906 7.95854 2.87633 7.95854 1.42793 6.46407 1.42793 4.61134 1.42793 2.75862 2.87633 1.26415 4.72906 1.26415 5.72707 1.26415 6.45895 1.65824 6.99635 2.16493L7.88176 1.27951C7.13453 0.552747 6.1314 0 4.72906 0 2.19052 0 0.0562983 2.06768 0.0562983 4.60623 0.0562983 7.14477 2.19052 9.21245 4.72906 9.21245 6.10069 9.21245 7.13453 8.76207 7.94318 7.92271 8.7723 7.09359 9.03332 5.92156 9.03332 4.97984 9.03332 4.68811 9.01285 4.41686 8.96679 4.19167L4.72906 4.19167Z" fill="#4285F4" transform="matrix(1.00367 0 0 1 -101.853 24.2292)"/><path d="M12.7951 3.16806C11.1522 3.16806 9.81126 4.41686 9.81126 6.14163 9.81126 7.85106 11.1522 9.11521 12.7951 9.11521 14.438 9.11521 15.7789 7.85617 15.7789 6.14163 15.7789 4.41686 14.438 3.16806 12.7951 3.16806ZM12.7951 7.94318C11.8943 7.94318 11.1164 7.20107 11.1164 6.14163 11.1164 5.07197 11.8943 4.34009 12.7951 4.34009 13.6958 4.34009 14.4738 5.07197 14.4738 6.14163 14.4738 7.20107 13.6958 7.94318 12.7951 7.94318Z" fill="#EA4335" transform="matrix(1.00367 0 0 1 -101.853 24.2292)"/><path d="M27.4224 3.8334 27.3763 3.8334C27.0846 3.48538 26.5216 3.16806 25.8102 3.16806 24.326 3.16806 23.0311 4.46292 23.0311 6.14163 23.0311 7.81011 24.326 9.11521 25.8102 9.11521 26.5216 9.11521 27.0846 8.79789 27.3763 8.43963L27.4224 8.43963 27.4224 8.85419C27.4224 9.99039 26.8134 10.5994 25.8358 10.5994 25.0374 10.5994 24.541 10.0262 24.3362 9.54001L23.2 10.0109C23.5276 10.799 24.3925 11.7663 25.8358 11.7663 27.3661 11.7663 28.661 10.8656 28.661 8.66994L28.661 3.3216 27.4224 3.3216 27.4224 3.8334ZM25.9228 7.94318C25.022 7.94318 24.3362 7.17548 24.3362 6.14163 24.3362 5.09244 25.022 4.34009 25.9228 4.34009 26.8134 4.34009 27.5094 5.10779 27.5094 6.15187 27.5145 7.19083 26.8134 7.94318 25.9228 7.94318Z" fill="#4285F4" transform="matrix(1.00367 0 0 1 -101.853 24.2292)"/><path d="M19.4485 3.16806C17.8056 3.16806 16.4647 4.41686 16.4647 6.14163 16.4647 7.85106 17.8056 9.11521 19.4485 9.11521 21.0914 9.11521 22.4323 7.85617 22.4323 6.14163 22.4323 4.41686 21.0914 3.16806 19.4485 3.16806ZM19.4485 7.94318C18.5477 7.94318 17.7698 7.20107 17.7698 6.14163 17.7698 5.07197 18.5477 4.34009 19.4485 4.34009 20.3493 4.34009 21.1272 5.07197 21.1272 6.14163 21.1272 7.20107 20.3493 7.94318 19.4485 7.94318Z" fill="#FBBC05" transform="matrix(1.00367 0 0 1 -101.853 24.2292)"/><path d="M29.6846 0.122833 30.9692 0.122833 30.9692 9.11521 29.6846 9.11521Z" fill="#34A853" transform="matrix(1.00367 0 0 1 -101.853 24.2292)"/><path d="M34.9357 7.94318C34.2703 7.94318 33.7995 7.64122 33.4924 7.04241L37.4691 5.39952 37.336 5.06173C37.0904 4.39639 36.3329 3.16806 34.7924 3.16806 33.2621 3.16806 31.9877 4.3708 31.9877 6.14163 31.9877 7.81011 33.2467 9.11521 34.9357 9.11521 36.2971 9.11521 37.0852 8.28097 37.4128 7.79988L36.3994 7.1243C36.0616 7.61563 35.601 7.94318 34.9357 7.94318ZM34.8435 4.28379C35.3707 4.28379 35.8211 4.55505 35.9695 4.9389L33.2825 6.04951C33.2825 4.80071 34.168 4.28379 34.8435 4.28379L34.8435 4.28379Z" fill="#EA4335" transform="matrix(1.00367 0 0 1 -101.853 24.2292)"/><path d="M41.1789 9.18433 41.1789 1.03382 42.4539 1.03382 46.4153 7.37437 46.4608 7.37437 46.4153 5.80346 46.4153 1.03382 47.4626 1.03382 47.4626 9.18433 46.3697 9.18433 42.2262 2.53643 42.1807 2.53643 42.2262 4.10734 42.2262 9.18433 41.1789 9.18433ZM51.4467 9.36647C50.6044 9.36647 49.9195 9.08568 49.392 8.52409 48.8646 7.96251 48.6009 7.25295 48.6009 6.3954 48.6009 5.58338 48.857 4.8852 49.3693 4.30085 49.8815 3.7165 50.5361 3.42433 51.3329 3.42433 52.1601 3.42433 52.8222 3.69374 53.3193 4.23255 53.8164 4.77137 54.0649 5.49231 54.0649 6.3954L54.0535 6.58892 49.6482 6.58892C49.6785 7.1505 49.8663 7.59445 50.2116 7.92077 50.5569 8.2471 50.961 8.41026 51.424 8.41026 52.1753 8.41026 52.6837 8.09153 52.9494 7.45405L53.8828 7.84109C53.7007 8.27366 53.4009 8.63603 52.9835 8.92821 52.5661 9.22038 52.0539 9.36647 51.4467 9.36647ZM52.9494 5.72378C52.9266 5.40504 52.7805 5.10149 52.5111 4.81311 52.2417 4.52473 51.8414 4.38054 51.3101 4.38054 50.9231 4.38054 50.5873 4.50196 50.3027 4.74481 50.0181 4.98765 49.8227 5.31397 49.7165 5.72378L52.9494 5.72378ZM61.1226 9.18433 60.0526 9.18433 58.6638 4.90417 57.2864 9.18433 56.2278 9.18433 54.4292 3.60647 55.522 3.60647 56.7628 7.81832 56.7742 7.81832 58.1516 3.60647 59.233 3.60647 60.6104 7.81832 60.6218 7.81832 61.8512 3.60647 62.9212 3.60647 61.1226 9.18433ZM65.676 9.36647C65.0537 9.36647 64.5396 9.21469 64.1335 8.91113 63.7275 8.60757 63.4297 8.22813 63.2399 7.77279L64.1734 7.38575C64.4694 8.08394 64.974 8.43303 65.6874 8.43303 66.0137 8.43303 66.2812 8.36093 66.4899 8.21674 66.6986 8.07255 66.8029 7.88283 66.8029 7.64757 66.8029 7.2833 66.5487 7.03666 66.0403 6.90765L64.9133 6.63445C64.5566 6.54338 64.2189 6.37074 63.9002 6.11651 63.5814 5.86228 63.4221 5.51888 63.4221 5.08631 63.4221 4.59303 63.6403 4.19271 64.0766 3.88536 64.513 3.57801 65.0309 3.42433 65.6305 3.42433 66.1237 3.42433 66.5639 3.53627 66.9509 3.76014 67.338 3.98402 67.615 4.30465 67.7819 4.72204L66.8712 5.09769C66.6663 4.60441 66.2414 4.35777 65.5963 4.35777 65.2852 4.35777 65.0233 4.42228 64.8109 4.55129 64.5984 4.6803 64.4921 4.85484 64.4921 5.07492 64.4921 5.39366 64.7388 5.60994 65.232 5.72378L66.3362 5.9856C66.8599 6.10702 67.2469 6.31571 67.4973 6.61168 67.7478 6.90765 67.873 7.24156 67.873 7.61342 67.873 8.11429 67.6681 8.53168 67.2583 8.8656 66.8485 9.19951 66.3211 9.36647 65.676 9.36647Z" fill="#5F6368" transform="matrix(1.00367 0 0 1 -101.853 24.2292)"/></g></svg>