<svg width="130" height="35" viewBox="0 0 152 50" fill="none" xmlns="http://www.w3.org/2000/svg">
<path fill-rule="evenodd" clip-rule="evenodd" d="M19.6203 17.7215V23.038L32.2785 22.9114C31.8987 25.8228 30.8861 27.9747 29.3671 29.4937C27.5949 31.3924 24.6835 33.4177 19.6203 33.4177C11.7722 33.4177 5.6962 27.2152 5.6962 19.3671C5.6962 11.6456 11.7722 5.31646 19.6203 5.31646C23.7975 5.31646 26.8354 6.96203 29.1139 9.11392L32.9114 5.31646C29.7468 2.27848 25.5696 0 19.6203 0C8.98734 0 0 8.73418 0 19.3671C0 30.1266 8.98734 38.7342 19.6203 38.7342C25.443 38.7342 29.7468 36.8354 33.1646 33.2911C36.5823 29.7468 37.7215 24.8101 37.7215 20.8861C37.7215 19.7468 37.5949 18.6076 37.4684 17.7215H19.6203ZM126.456 37.9747V1.39241H121.139V37.9747H126.456ZM52.4051 38.8608C59.3671 38.8608 64.9367 33.5443 64.9367 26.3291C64.9367 19.1139 59.3671 13.7975 52.4051 13.7975C45.443 13.7975 39.8734 19.1139 39.8734 26.3291C39.8734 33.5443 45.443 38.8608 52.4051 38.8608ZM79.4937 38.8608C86.4557 38.8608 92.0253 33.5443 92.0253 26.3291C91.8987 19.1139 86.3291 13.7975 79.4937 13.7975C72.5316 13.7975 66.962 19.1139 66.962 26.3291C66.962 33.5443 72.5316 38.8608 79.4937 38.8608ZM117.848 14.557V36.962C117.848 46.2025 112.405 50 105.949 50C99.8734 50 96.2025 45.9494 94.9367 42.6582L99.7468 40.6329C100.633 42.6582 102.658 45.0633 106.076 45.0633C110.127 45.0633 112.785 42.5316 112.785 37.7215V35.9494H112.532C111.266 37.4684 108.987 38.7342 105.949 38.7342C99.7468 38.7342 94.0506 33.2911 94.0506 26.3291C94.0506 19.2405 99.7468 13.7975 105.949 13.7975C108.987 13.7975 111.266 15.0633 112.532 16.5823H112.658V14.557H117.848ZM147.215 30.3797L151.519 33.1646C150.127 35.1899 146.835 38.7342 141.139 38.7342C134.051 38.7342 128.734 33.2911 128.734 26.2025C128.734 18.7342 134.051 13.6709 140.506 13.6709C146.962 13.6709 150.127 18.8608 151.139 21.6456L151.646 23.038L134.937 30C136.203 32.5316 138.228 33.7975 141.013 33.7975C143.924 33.7975 145.823 32.5316 147.215 30.3797ZM59.4937 26.3291C59.4937 21.8987 56.2025 18.7342 52.4051 18.7342C48.6076 18.7342 45.3165 21.7722 45.3165 26.3291C45.3165 30.7595 48.6076 33.924 52.4051 33.924C56.2025 33.924 59.4937 30.7595 59.4937 26.3291ZM79.3671 18.7342C83.1646 18.7342 86.4557 21.8987 86.4557 26.3291C86.4557 30.7595 83.1646 33.7975 79.3671 33.924C75.5696 33.924 72.2785 30.7595 72.2785 26.3291C72.2785 21.7722 75.5696 18.7342 79.3671 18.7342ZM113.038 26.3291C113.038 21.8987 110.127 18.7342 106.329 18.7342C102.532 18.7342 99.3671 21.8987 99.3671 26.3291C99.3671 30.6329 102.532 33.7975 106.329 33.7975C110.127 33.7975 113.038 30.6329 113.038 26.3291ZM145.316 21.2658L134.177 25.9494C134.051 21.1392 137.975 18.6076 140.633 18.6076C142.911 18.6076 144.684 19.7468 145.316 21.2658Z" fill="#333333"/>
</svg>
