<svg width="48" height="66" viewBox="0 0 48 66" xmlns="http://www.w3.org/2000/svg" xmlns:xlink="http://www.w3.org/1999/xlink" overflow="hidden"><defs><linearGradient x1="50.0054%" y1="8.58611%" x2="50.0054%" y2="100.014%" id="linearGradient-7"><stop offset="0" stop-color="#BF360C" stop-opacity="0.2"/><stop offset="1" stop-color="#BF360C" stop-opacity="0.02"/></linearGradient><radialGradient cx="3.16805%" cy="2.71744%" r="161.249%" fx="3.16805%" fy="2.71744%" id="radialGradient-18" gradientTransform="matrix(1 0 0 0.727273 0 0.00741108)"><stop offset="0" stop-color="#FFFFFF" stop-opacity="0.1"/><stop offset="1" stop-color="#FFFFFF" stop-opacity="0"/></radialGradient><path d="M29.5833 0 4.4375 0C1.99688 0 0 1.99688 0 4.4375L0 60.6458C0 63.0865 1.99688 65.0833 4.4375 65.0833L42.8958 65.0833C45.3365 65.0833 47.3333 63.0865 47.3333 60.6458L47.3333 17.75 29.5833 0Z" id="path-1"/><path d="M29.5833 0 4.4375 0C1.99688 0 0 1.99688 0 4.4375L0 60.6458C0 63.0865 1.99688 65.0833 4.4375 65.0833L42.8958 65.0833C45.3365 65.0833 47.3333 63.0865 47.3333 60.6458L47.3333 17.75 29.5833 0Z" id="path-3"/><path d="M29.5833 0 4.4375 0C1.99688 0 0 1.99688 0 4.4375L0 60.6458C0 63.0865 1.99688 65.0833 4.4375 65.0833L42.8958 65.0833C45.3365 65.0833 47.3333 63.0865 47.3333 60.6458L47.3333 17.75 29.5833 0Z" id="path-5"/><path d="M29.5833 0 4.4375 0C1.99688 0 0 1.99688 0 4.4375L0 60.6458C0 63.0865 1.99688 65.0833 4.4375 65.0833L42.8958 65.0833C45.3365 65.0833 47.3333 63.0865 47.3333 60.6458L47.3333 17.75 29.5833 0Z" id="path-8"/><path d="M29.5833 0 4.4375 0C1.99688 0 0 1.99688 0 4.4375L0 60.6458C0 63.0865 1.99688 65.0833 4.4375 65.0833L42.8958 65.0833C45.3365 65.0833 47.3333 63.0865 47.3333 60.6458L47.3333 17.75 29.5833 0Z" id="path-10"/><path d="M29.5833 0 4.4375 0C1.99688 0 0 1.99688 0 4.4375L0 60.6458C0 63.0865 1.99688 65.0833 4.4375 65.0833L42.8958 65.0833C45.3365 65.0833 47.3333 63.0865 47.3333 60.6458L47.3333 17.75 29.5833 0Z" id="path-12"/><path d="M29.5833 0 4.4375 0C1.99688 0 0 1.99688 0 4.4375L0 60.6458C0 63.0865 1.99688 65.0833 4.4375 65.0833L42.8958 65.0833C45.3365 65.0833 47.3333 63.0865 47.3333 60.6458L47.3333 17.75 29.5833 0Z" id="path-14"/><path d="M29.5833 0 4.4375 0C1.99688 0 0 1.99688 0 4.4375L0 60.6458C0 63.0865 1.99688 65.0833 4.4375 65.0833L42.8958 65.0833C45.3365 65.0833 47.3333 63.0865 47.3333 60.6458L47.3333 17.75 29.5833 0Z" id="path-16"/></defs><g id="Page-1" fill="none" fill-rule="evenodd"><g id="Consumer-Apps-Slides-Large-VD-R8" transform="translate(-449 -452)"><g id="Hero" transform="matrix(1 0 0 1 0 63)"><g id="Personal" transform="translate(277 299)"><g id="Slides-icon" transform="translate(172 90)"><g id="Group"><g id="Clipped"><mask id="mask-2" fill="#FFFFFF"><use width="100%" height="100%" xlink:href="#path-1"></use></mask><g id="SVGID_1_"></g><path d="M29.5833 0 4.4375 0C1.99688 0 0 1.99688 0 4.4375L0 60.6458C0 63.0865 1.99688 65.0833 4.4375 65.0833L42.8958 65.0833C45.3365 65.0833 47.3333 63.0865 47.3333 60.6458L47.3333 17.75 36.9792 10.3542 29.5833 0Z" id="Path" fill="#F4B400" fill-rule="nonzero" mask="url(#mask-2)"/></g><g id="Clipped"><mask id="mask-4" fill="#FFFFFF"><use width="100%" height="100%" xlink:href="#path-3"></use></mask><g id="SVGID_1_"></g><path d="M33.2812 29.5833 14.0521 29.5833C12.8318 29.5833 11.8333 30.5818 11.8333 31.8021L11.8333 51.0312C11.8333 52.2516 12.8318 53.25 14.0521 53.25L33.2812 53.25C34.5016 53.25 35.5 52.2516 35.5 51.0312L35.5 31.8021C35.5 30.5818 34.5016 29.5833 33.2812 29.5833ZM32.5417 46.5938 14.7917 46.5938 14.7917 36.2396 32.5417 36.2396 32.5417 46.5938Z" id="Shape" fill="#F1F1F1" fill-rule="nonzero" mask="url(#mask-4)"/></g><g id="Clipped"><mask id="mask-6" fill="#FFFFFF"><use width="100%" height="100%" xlink:href="#path-5"></use></mask><g id="SVGID_1_"></g><path d="M30.8813 16.452 47.3333 32.9004 47.3333 17.75Z" id="Path" fill="url(#linearGradient-7)" fill-rule="nonzero" mask="url(#mask-6)"/></g><g id="Clipped"><mask id="mask-9" fill="#FFFFFF"><use width="100%" height="100%" xlink:href="#path-8"></use></mask><g id="SVGID_1_"></g><g id="Group" mask="url(#mask-9)"><g transform="translate(26.625 -2.95833)"><path d="M2.95833 2.95833 2.95833 16.2708C2.95833 18.7226 4.94411 20.7083 7.39583 20.7083L20.7083 20.7083 2.95833 2.95833Z" id="Path" fill="#FADA80" fill-rule="nonzero"/></g></g></g><g id="Clipped"><mask id="mask-11" fill="#FFFFFF"><use width="100%" height="100%" xlink:href="#path-10"></use></mask><g id="SVGID_1_"></g><path d="M29.5833 0 29.5833 0.369792 46.9635 17.75 47.3333 17.75Z" id="Path" fill="#FFFFFF" fill-rule="nonzero" fill-opacity="0.1" mask="url(#mask-11)"/></g><g id="Clipped"><mask id="mask-13" fill="#FFFFFF"><use width="100%" height="100%" xlink:href="#path-12"></use></mask><g id="SVGID_1_"></g><path d="M4.4375 0C1.99688 0 0 1.99688 0 4.4375L0 4.80729C0 2.36667 1.99688 0.369792 4.4375 0.369792L29.5833 0.369792 29.5833 0 4.4375 0Z" id="Path" fill="#FFFFFF" fill-rule="nonzero" fill-opacity="0.2" mask="url(#mask-13)"/></g><g id="Clipped"><mask id="mask-15" fill="#FFFFFF"><use width="100%" height="100%" xlink:href="#path-14"></use></mask><g id="SVGID_1_"></g><path d="M42.8958 64.7135 4.4375 64.7135C1.99688 64.7135 0 62.7167 0 60.276L0 60.6458C0 63.0865 1.99688 65.0833 4.4375 65.0833L42.8958 65.0833C45.3365 65.0833 47.3333 63.0865 47.3333 60.6458L47.3333 60.276C47.3333 62.7167 45.3365 64.7135 42.8958 64.7135Z" id="Path" fill="#BF360C" fill-rule="nonzero" fill-opacity="0.2" mask="url(#mask-15)"/></g><g id="Clipped"><mask id="mask-17" fill="#FFFFFF"><use width="100%" height="100%" xlink:href="#path-16"></use></mask><g id="SVGID_1_"></g><path d="M34.0208 17.75C31.5691 17.75 29.5833 15.7642 29.5833 13.3125L29.5833 13.6823C29.5833 16.134 31.5691 18.1198 34.0208 18.1198L47.3333 18.1198 47.3333 17.75 34.0208 17.75Z" id="Path" fill="#BF360C" fill-rule="nonzero" fill-opacity="0.1" mask="url(#mask-17)"/></g></g><path d="M29.5833 0 4.4375 0C1.99688 0 0 1.99688 0 4.4375L0 60.6458C0 63.0865 1.99688 65.0833 4.4375 65.0833L42.8958 65.0833C45.3365 65.0833 47.3333 63.0865 47.3333 60.6458L47.3333 17.75 29.5833 0Z" id="Path" fill="url(#radialGradient-18)" fill-rule="nonzero"/></g></g></g></g></g></svg>