<svg width="80" height="84" xmlns="http://www.w3.org/2000/svg" xmlns:xlink="http://www.w3.org/1999/xlink" overflow="hidden"><defs><clipPath id="clip0"><rect x="558" y="447" width="80" height="84"/></clipPath></defs><g clip-path="url(#clip0)" transform="translate(-558 -447)"><path d="M579.734 448 614.622 448 637 470.442 637 525.266C637 527.881 634.881 530 632.266 530L579.734 530C577.119 530 575 527.881 575 525.266L575 452.734C575 450.119 577.119 448 579.734 448Z" fill="#4F8DF5" fill-rule="evenodd"/><rect x="590" y="489" width="32" height="4" fill="#FFFFFF"/><rect x="590" y="497" width="32" height="4" fill="#FFFFFF"/><rect x="590" y="505" width="32" height="4" fill="#FFFFFF"/><rect x="590" y="513" width="23" height="3" fill="#FFFFFF"/><path d="M637.391 470.095 614.88 470.088 614.873 447.577Z" fill="#A7C6FA" fill-rule="evenodd"/><path d="M637 493 615 470 637 470Z" fill="#437BE1" fill-rule="evenodd" fill-opacity="0.431373"/></g></svg>