<svg width="81" height="85" xmlns="http://www.w3.org/2000/svg" xmlns:xlink="http://www.w3.org/1999/xlink" overflow="hidden"><defs><clipPath id="clip0"><rect x="589" y="439" width="81" height="85"/></clipPath></defs><g clip-path="url(#clip0)" transform="translate(-589 -439)"><path d="M606.202 516.164 606.1 510.338 601.546 509.813 596.993 509.287 596.993 489.811 596.993 470.335 601.546 469.808 606.1 469.283 606.197 455.136 606.295 440.989 628.132 440.989 649.97 440.989 658.981 449.961 667.993 458.932 667.993 490.461 667.993 521.989 637.149 521.989 606.305 521.989Z" fill="#FFFFFF" fill-rule="evenodd"/><path d="M613.995 513.365C613.995 511.929 613.998 511.672 613.998 511.672L617.321 511.668 617.352 514.987 615.674 514.987 613.995 514.987ZM620.71 513.51C620.71 512.698 620.741 511.491 620.741 511.491L623.09 511.584 627.884 511.598C627.884 511.598 630.284 511.664 645.515 511.664L660.995 511.664 660.995 513.326 660.995 514.987 640.853 514.987 620.71 514.987ZM630.035 505.569 630.035 503.908 645.515 503.908 660.995 503.908 660.995 505.569 660.995 507.231 645.515 507.231 630.035 507.231ZM630.035 497.813 630.035 496.15 645.515 496.15 660.995 496.15 660.995 497.813 660.995 499.476 645.515 499.476 630.035 499.476ZM630.035 490.057 630.035 488.395 645.515 488.395 660.995 488.395 660.995 490.057 660.995 491.718 645.515 491.718 630.035 491.718ZM639.733 458.056 639.733 450.987 641.773 451.065C644.056 451.412 646.813 452.043 648.077 453.219 649.437 454.427 650.261 454.911 649.432 457.25L650.736 459.116 652.621 458.881C653.131 459.665 653.554 460.719 653.554 460.719 653.857 462.088 653.961 462.68 653.999 463.88L654.012 465.125 646.873 465.125 639.733 465.125Z" fill="#F3B79A" fill-rule="evenodd"/><path d="M606.515 516.551C606.515 514.035 606.459 510.574 606.536 509.719 606.613 508.864 606.754 508.636 607.008 508.636 607.758 507.772 607.64 509.788 607.64 515.995L607.64 521.374 638.005 521.374 668.371 521.374 668.371 490.578 668.371 459.782 659.186 459.782 650.002 459.782 650.002 450.691 650.002 441.601 628.82 441.601 607.64 441.601 607.64 455.33C607.64 473.066 607.515 481.062 607.025 481.062 606.535 481.062 606.515 472.97 606.515 454.773L606.515 440.487 628.73 440.487 650.944 440.487 660.22 449.674 669.495 458.86 669.495 490.673 669.495 522.487 638.005 522.487 606.515 522.487ZM667.996 458.572C667.996 458.52 664.2 454.723 659.561 450.134L651.126 441.793 651.126 450.231 651.126 458.669 659.561 458.669C664.2 458.669 667.996 458.626 667.996 458.572ZM637.919 481.506C631.208 481.382 623.681 475.821 623.786 467.648 623.815 460.599 630.913 453.651 638.005 453.378L638.005 453.378 638.005 460.477 638.005 467.574 645.176 467.574 652.347 467.574 652.347 467.574C652.271 476.239 645.753 481.446 637.919 481.506Z" stroke="#979593" stroke-miterlimit="8" fill="#9A9999" fill-rule="evenodd"/><path d="M601.992 467.98 629.992 467.98 629.992 511.98 601.992 511.98Z" fill="#FFFFFF" fill-rule="evenodd"/><path d="M589.989 487.483 589.989 467.983 606.929 467.983 623.869 467.983 629.989 467.989 629.951 478.369 629.951 492.676 629.951 506.983 609.97 506.983 589.989 506.983ZM626.953 487.483 626.988 470.908 609.97 470.908 592.988 470.908 592.986 487.483 592.988 504.064 609.97 504.058 626.988 504.064ZM596.982 487.483 596.982 476.757 609.97 476.757 622.957 476.757 622.957 487.483 622.957 498.208 609.97 498.208 596.982 498.208ZM610.581 490.398C610.581 490.398 610.546 490.408 607.971 490.408L605.306 490.408 605.306 487.809C605.306 485.296 605.306 485.283 605.306 485.283 602.376 485.291 600.222 487.666 600.266 490.473 600.272 493.254 602.376 495.635 605.306 495.609 608.094 495.592 610.619 493.638 610.581 490.4ZM614.269 491.424 612.993 491.422 612.992 492.682 614.264 492.682ZM619.971 492.671 619.964 491.426 614.967 491.43 614.972 492.686ZM614.267 489.725 614.268 488.467 612.994 488.469 612.993 489.724ZM619.951 488.462 614.963 488.464 614.955 489.719 619.956 489.726ZM614.273 486.813 614.268 485.536 613.004 485.535 612.999 486.818ZM619.953 485.538 614.975 485.545 614.974 486.813 619.952 486.82ZM620.959 480.17 620.959 478.708 609.97 478.708 598.979 478.708 598.979 480.17 598.979 481.633 609.97 481.633 620.959 481.633Z" fill="#CE4525" fill-rule="evenodd"/></g></svg>