<svg width="81" height="85" xmlns="http://www.w3.org/2000/svg" xmlns:xlink="http://www.w3.org/1999/xlink" overflow="hidden"><defs><clipPath id="clip0"><rect x="589" y="316" width="81" height="85"/></clipPath></defs><g clip-path="url(#clip0)" transform="translate(-589 -316)"><path d="M649.172 317 609 317C607.895 317 607 317.895 607 319L607 397C607 398.105 607.895 399 609 399L667 399C668.105 399 669 398.105 669 397L669 336.828C669 336.298 668.789 335.789 668.414 335.414L650.586 317.586C650.211 317.211 649.702 317 649.172 317Z" stroke="#979593" stroke-width="2" stroke-miterlimit="8" fill="#FFFFFF" fill-rule="evenodd"/><path d="M649 317 649 335C649 336.105 649.895 337 651 337L669 337" stroke="#979593" stroke-width="2" stroke-miterlimit="8" fill="none" fill-rule="evenodd"/><path d="M644 344C652.284 344 659 350.716 659 359L644 359 644 344Z" fill="#F5BA9D" fill-rule="evenodd"/><path d="M659 361C659 371.026 650.32 379.026 640.064 377.893 632.269 377.032 625.968 370.731 625.107 362.936 623.974 352.68 631.974 344 642 344L642 361 659 361ZM661 386 647 386 630 386 616 386C615.448 386 615 386.448 615 387 615 387.552 615.448 388 616 388L630 388 647 388 661 388C661.552 388 662 387.552 662 387 662 386.448 661.552 386 661 386ZM661 381 647 381 630 381 616 381C615.448 381 615 381.448 615 382 615 382.552 615.448 383 616 383L630 383 647 383 661 383C661.552 383 662 382.552 662 382 662 381.448 661.552 381 661 381Z" fill="#C8C6C4" fill-rule="evenodd"/><path d="M594 384 626 384C628.209 384 630 382.209 630 380L630 348C630 345.791 628.209 344 626 344L594 344C591.791 344 590 345.791 590 348L590 380C590 382.209 591.791 384 594 384Z" fill="#C43E1C" fill-rule="evenodd"/><path d="M611.854 352C614.81 352 617.074 352.663 618.644 353.985 620.214 355.308 621 357.225 621 359.733 621 361.344 620.611 362.776 619.835 364.03 619.058 365.285 617.953 366.26 616.521 366.957 615.089 367.652 613.429 368 611.543 368L606.999 368 606.999 377 602 377 602 352 611.854 352ZM606.999 364 610.966 364C612.512 364 613.68 363.651 614.471 362.955 615.26 362.258 615.655 361.24 615.655 359.901 615.655 357.301 614.142 356 611.113 356L606.999 356 606.999 364Z" fill="#FFFFFF" fill-rule="evenodd"/></g></svg>