<svg xmlns="http://www.w3.org/2000/svg" xml:space="preserve" width="2367" height="800" overflow="hidden"><defs><linearGradient id="b" x1="3373.5" x2="3373.5" y1="923" y2="123" gradientUnits="userSpaceOnUse" spreadMethod="reflect"><stop offset="0" stop-color="#FC3F04"/><stop offset=".15" stop-color="#FC3F04"/><stop offset="1" stop-color="#FFC000"/></linearGradient><clipPath id="a"><path d="M1406 123h2367v800H1406z"/></clipPath></defs><g fill-rule="evenodd" clip-path="url(#a)" transform="translate(-1406 -123)"><path fill="#FFD966" d="M3264 754.5c0-27.89 22.83-50.5 51-50.5s51 22.61 51 50.5-22.83 50.5-51 50.5-51-22.61-51-50.5ZM3261 325.5c0-26.233 21.27-47.5 47.5-47.5s47.5 21.267 47.5 47.5c0 26.234-21.27 47.5-47.5 47.5s-47.5-21.266-47.5-47.5ZM3064 567c0-55.781 45.22-101 101-101s101 45.219 101 101-45.22 101-101 101-101-45.219-101-101Z"/><path fill="url(#b)" d="M3373.96 123c82.84 0 159.79 25.184 223.62 68.314l29.23 21.857-314.69 61.677c-25.46 4.99-42.05 29.679-37.06 55.144 4.99 25.464 29.67 42.062 55.13 37.072l371.59-72.831 3.83 5.123a397.79 397.79 0 0 1 28.87 50.228l1.52 3.848-12.06 1.14-577.6 113.913c-52.52 10.357-86.7 61.329-76.34 113.848 10.36 52.52 61.32 86.7 113.84 76.343l577.6-113.914 11.56-3.514-1.14 22.65a400.474 400.474 0 0 1-5.57 37.272l-3 12.12-451.19 91.732c-26.62 5.411-43.81 31.379-38.4 57.999 5.41 26.62 31.37 43.813 57.99 38.402l387.37-78.755-27.5 43.491C3618.46 861.516 3503.39 923 3373.96 923 3153.07 923 2974 743.914 2974 523s179.07-400 399.96-400Z"/><path fill="#00823F" d="M2302 380.066h-12.19c-14.69 14.669-23.12 23.096-37.81 37.765v64.294h-49.69v-50.249l-49.7-49.626h-199.38V283h-12.19l-37.82 37.765v161.36h-50V380.066h-12.19c-14.69 14.669-23.13 23.096-37.81 37.765v64.294H1650.7V432.5h103.14v-49.938H1650.7a232638.94 232638.94 0 0 1-49.69 49.626v49.625h-46.25v-99.251h-12.19c-14.69 14.67-23.12 23.096-37.81 37.766v61.173H1456V283h-12.19c-14.68 14.669-22.81 22.784-37.81 37.765v171.972l38.75 38.701h78.45v.625h380.02V582h13.13c14.37-14.357 22.5-22.472 36.88-36.829v-13.108H2302V380.066Zm-348.77 102.059v-50.249h199.38v50.561h-199.38ZM2550.69 379.894h-12.13l-37.64 37.699v63.558h-49.15V283h-12.13L2402 320.698V531h149V379.894ZM2601 382h12.19c14.69-14.687 23.12-22.812 37.81-37.812V332h-50v50ZM2302 594.188V582h-50v50h12.19c15-14.687 23.12-23.125 37.81-37.812ZM1853 594.188V582h-50v50h12.19c14.69-14.687 23.12-23.125 37.81-37.812Z"/><path fill="#00823F" d="M2551 333h-50v50h12.19c14.69-14.687 23.12-22.812 37.81-37.812V333ZM2850 481.937h-99.72v-49.812H2850V382h-99.72c-19.33 19.424-30.23 30.388-49.55 49.812v49.812h-49.87V382h-12.15c-14.65 14.724-23.06 23.183-37.71 37.907v212.094h13.09c14.33-14.412 22.44-22.557 36.77-36.968v-62.97H2850v-50.126ZM1505 382h12.19c14.69-14.687 23.12-22.812 37.81-37.812V332h-50v50Z"/><path fill="#00823F" d="M2750 565h100v16h-100ZM2601 282V307.001H2651V282h-12.81v12.5h-5.63V282h-12.81v12.5h-5.94V282ZM1443.38 664.372c-2.3-2.992-6-4.372-11.07-4.372-4.39 0-8.54 1.151-12.46 3.221-3.93 2.301-7.16 4.832-9.47 8.053-2.3 3.221-3.46 6.213-3.46 8.974 0 1.84.46 3.451 1.16 4.832.69 1.61 1.84 2.761 3 3.911 1.38 1.151 3.23 2.071 5.3 2.531 2.08.69 4.16.921 6.47.921 1.61 0 3.46-.231 5.07-.691.93-.23 2.31-.69 3.7-1.61 1.61-.921 3-1.841 4.38-2.992.23 2.071.23 4.142 0 6.443-.23 4.372-.69 6.903-1.62 7.823-.69.69-2.3 1.15-5.07 1.15-4.39 0-8.54-1.61-12.23-5.061-.23-.231-.7-.461-1.16-.461-.92 0-2.3.461-3.92 1.611-1.62.92-3 2.301-4.15 3.451-1.16 1.381-1.85 2.301-1.85 2.761 0 .46.46 1.151 1.62 2.071 1.84 1.611 4.15 2.761 6.92 3.682 2.77.92 5.54 1.38 8.08 1.38 4.38 0 8.3-.92 12.23-2.761 3.92-1.841 7.15-4.832 9.46-8.743 2.54-3.912 3.69-8.514 3.69-14.036 0-4.832-.23-8.973-.69-12.655-.23-3.221-1.62-6.442-3.93-9.433Zm-8.3 17.716c-.7.231-2.31.461-4.85.461-3.23 0-6-.461-8.08-1.381-2.07-.92-3.23-2.531-3.23-4.832 0-2.07.7-3.681 2.31-4.832 1.62-1.38 3.46-1.84 5.54-1.84 1.85 0 3.46.69 5.08 2.071 1.38.92 2.3 2.531 2.77 4.371.46 1.841.69 3.451.69 5.062.46.46.23.691-.23.92ZM1492.67 704.437c2.13-2.546 3.31-5.323 3.31-8.564 0-5.786-2.13-9.951-6.39-12.497-4.26-2.546-10.17-4.166-17.5-4.629l.47-6.712h19.87c.95 0 1.89-.695 2.84-1.851.95-1.158 2.13-3.01 3.31-5.092.95-1.852 1.42-3.009 1.42-3.935 0-.694-.24-1.157-.95-1.157s-2.12.232-3.78.232c-1.66.231-4.02.231-6.62.231h-22.71c-.95 0-1.42.463-1.42 1.157l-2.13 25.922c0 .694.23.925.94.925 6.39 0 11.36.926 14.91 2.546 3.31 1.62 4.96 4.166 4.96 7.406 0 1.852-.23 3.009-.94 3.703-.95.463-2.13.926-3.79.926-2.36 0-4.73-.694-6.86-1.852-2.36-1.157-4.02-2.777-5.2-4.397-.24-.463-.71-.694-1.18-.694-.71 0-1.66.463-3.32 1.157-1.42.926-2.83 1.852-4.02 3.009-1.18 1.157-1.89 2.314-1.89 3.24 0 .926.95 2.314 2.6 3.934 1.66 1.621 4.02 2.778 6.86 3.935 2.84 1.157 5.68 1.62 8.76 1.62 3.54 0 7.09-.694 10.64-2.314 2.84-1.62 5.68-3.704 7.81-6.249ZM1599.37 679.124c-2.33-1.649-5.35-3.062-9.31-4.24-3.95-1.177-7.91-1.884-11.86-1.884-4.66 0-9.08.942-13.5 2.826-4.42 1.884-7.91 4.475-10.47 8.008-2.56 3.533-3.96 7.301-3.96 11.541 0 5.652 2.33 9.656 6.75 12.718 4.42 2.826 10.24 4.239 17.22 4.239h10v.942c0 3.533-1.62 6.359-5.11 8.008-3.49 1.884-7.68 2.827-13.04 2.827-8.14 0-14.42-1.885-18.84-5.889-4.43-4.004-6.52-9.656-6.52-16.957l.23-5.417c0-.707-.23-.942-.7-.942-1.16 0-2.56.471-4.65 1.177-2.09.707-3.96 1.649-5.59 2.826-1.62.942-2.55 2.12-2.79 3.062 0 .471-.23 1.884-.23 4.24 0 9.185 3.26 16.015 9.54 20.726 6.28 4.71 14.89 7.065 25.37 7.065 6.98 0 13.26-1.177 18.84-3.533 5.59-2.355 9.78-5.652 13.04-9.891 3.02-4.24 4.65-8.95 4.65-14.132 0-1.413-.23-2.355-.7-2.826-.46-.707-1.39-.942-2.56-.942h-10.7c-6.28 0-11.17-.942-14.66-3.062-3.49-1.884-5.12-5.181-5.12-9.185 0-3.062.7-5.182 2.33-6.124.93-.471 1.62-.942 2.79-1.177.93-.236 2.09-.236 3.49-.236 2.33 0 5.12.471 7.91 1.413 2.79.942 5.82 2.591 8.38 4.475.46.236.7.471.93.471.93 0 2.33-.471 3.95-1.648 1.63-1.178 3.26-2.356 4.43-3.769 1.39-1.413 2.09-2.355 2.09-3.062-.47-.706-.93-1.177-1.63-1.648ZM1676.72 682.758c-4.19-3.544-10.7-5.434-19.08-5.434h-24.65c-1.87 0-3.03-.472-3.73-1.417-.69-.946-.93-2.599-.93-5.198 0-.473-.23-.709-.7-.709-1.16 0-2.79.473-4.88 1.417-2.09.945-3.96 2.127-5.58 3.308-1.63 1.182-2.56 2.363-2.56 3.308 0 2.599.46 4.489 1.39 5.907.93 1.417 2.33 2.126 4.19 2.598 1.86.473 4.65.709 8.38.709h20.93c6.28 0 11.17 1.181 14.19 3.544 3.03 2.363 4.89 6.379 5.12 12.05h-53.97c-.93 0-2.09.708-3.49 1.89-1.4 1.181-2.56 2.599-3.72 4.016-1.16 1.418-1.63 2.599-1.63 3.544 0 .473.23.709.93.709h62.35c3.48 0 6.51-.945 9.07-2.599 2.56-1.654 3.95-3.78 4.42-5.907.23-.708.23-1.417.23-2.126 0-9.687-2.09-16.066-6.28-19.61ZM2021.34 648c-1.17 0-2.8.468-4.9 1.403-2.1.936-3.97 2.106-5.6 3.275-1.63 1.17-2.57 2.34-2.57 3.275v46.316h-8.63c-2.8 0-4.9-.234-6.77-.702-1.63-.467-2.57-1.637-2.57-3.274v-11.462c0-3.509-.23-6.316-.46-8.421a12.204 12.204 0 0 0-1.64-4.913c-.23-.234-.46-.468-.93-.468-1.4 0-3.73.702-6.53 2.106-2.81 1.403-4.91 2.806-6.31 4.21-.23.234-.46.702-.46 1.17 0 .234 0 .468.23.468.93.935 1.63 2.339 1.87 3.976.23 1.638.46 3.509.46 5.614v11.93c-3.73 0-6.3-.234-8.16-.702-1.87-.468-2.8-1.637-2.8-3.274v-20.586c0-.467-.24-.701-.7-.701-1.17 0-2.8.468-4.9 1.404-2.1.935-3.97 2.105-5.84 3.274-1.63 1.17-2.56 2.34-2.56 3.275v17.31c-3.74 0-6.31-.234-8.17-.702-1.87-.468-2.8-1.637-2.8-3.274v-20.586c0-.467-.24-.701-.7-.701-1.17 0-2.8.468-4.9 1.404-2.1.935-3.97 2.105-5.84 3.274-1.63 1.17-2.56 2.34-2.56 3.275v17.31h-11.21c-7 0-12.83-.702-17.5-2.105 3.74-2.807 7-5.614 9.1-8.421 2.34-2.807 3.5-5.38 3.5-7.719 0-7.486-8.86-11.229-26.83-11.229-3.74 0-7.47.234-11.2.702-3.74.468-6.54.702-8.64 1.17-.93.935-1.87 2.573-3.27 4.444s-2.56 3.743-3.73 5.38c-.23.234-.47.702-.47.936 0 .234.24.468.94.936 2.8 1.403 5.6 3.04 8.4 5.38 2.57 2.105 5.6 4.678 9.1 7.719l2.1 1.871c-2.33.468-4.67.702-7 .702s-5.6.234-9.8.234H1746.67v-6.784c0-4.21-.93-8.187-2.8-11.461-1.86-3.509-4.43-6.083-7.93-7.954-3.5-1.871-7.23-2.807-11.67-2.807-4.67 0-9.1.936-13.07 3.041-4.2 2.106-7.46 4.912-9.8 8.421-2.56 3.509-3.73 7.486-3.73 11.696 0 5.614 2.1 9.591 6.3 12.164 4.2 2.573 9.57 3.977 15.87 3.977h12.6c-.23.935-.93 1.871-1.87 2.806-1.16.936-3.03 1.638-5.6 2.106-2.57.468-5.13.702-7.7.702-4.67 0-9.8-.468-15.4-1.638-1.4-.234-2.8-.467-3.97-.702-1.17-.234-1.87-.468-2.1-.468-.93 0-2.1.468-3.73 1.638-1.64.936-3.04 2.339-4.2 3.509-1.17 1.403-1.87 2.339-1.87 2.807 0 .702 1.17 1.403 3.5 2.105 4.67 1.637 11.2 2.339 19.37 2.339 5.6 0 10.5-.468 14.7-1.403 4.2-.936 8.17-2.807 11.9-5.38 3.5-2.339 6.3-5.147 8.4-8.421h109.22c6.3 0 10.96 0 14-.234 3.03-.234 6.07-.468 9.1-1.17 3.03-.702 6.07-1.638 9.1-3.041 3.73 1.872 8.17 3.041 12.6 3.743 4.67.468 10.27.936 17.04.936h13.77c2.33 0 4.43-.702 6.3-2.106 2.1 1.404 4.66 2.106 7.7 2.106h10.97c2.33 0 4.43-.702 6.3-2.106 2.1 1.404 4.66 2.106 7.7 2.106h10.97c1.63 0 3.73-.468 5.6-1.638 2.8 1.17 6.76 1.638 12.13 1.638h14.24c2.56 0 4.9-.936 7-2.573 2.1-1.872 3.5-3.743 3.96-5.615.24-.701.24-2.339.24-5.146v-50.059c.46-1.403 0-1.637-.47-1.637Zm-293.8 54.503c-4.67 0-8.4-.936-11.2-2.807-2.8-1.871-4.2-4.912-4.2-8.655 0-2.573.46-4.444 1.16-5.614 1.17-1.638 3.27-2.339 6.07-2.339 4.2 0 7.47 1.871 10.04 5.38 2.56 3.509 3.96 8.187 3.96 14.035h-5.83Zm162.88-5.614c-1.63-.936-3.5-2.339-4.9-3.743-1.63-1.403-3.73-3.041-6.3-4.912a69.574 69.574 0 0 0-7.7-4.912c4.2-.234 7.94-.468 11.2-.468 4.67 0 8.4.468 10.97 1.169 2.57.702 3.74 2.34 3.97 4.445-.23 3.041-2.57 5.848-7.24 8.421ZM2049.07 648c-1.17 0-2.8.469-4.9 1.408-2.1.938-3.97 2.112-5.6 3.285-1.64 1.173-2.57 2.347-2.57 3.285v56.084c0 .469.23.938.93.938.94 0 2.57-.469 4.67-1.407 2.1-.939 3.97-2.113 5.83-3.286 1.64-1.408 2.57-2.347 2.57-3.52v-56.083c0-.469-.23-.704-.93-.704ZM2118.62 751.385c.94.461 1.64 1.154 2.35 2.077.7.692 1.17 1.384 1.64 1.846.47.461.7.692.94.692.7 0 1.64-.461 3.05-1.154 1.41-.692 2.58-1.615 3.76-2.538 1.17-.923 1.64-1.847 1.64-2.539 0-.923-.94-2.077-2.58-3.692-1.65-1.385-3.05-2.077-3.99-2.077-.71 0-1.65.461-3.29 1.384-1.64.924-2.82 1.847-3.52 2.77-.71-.923-1.65-1.846-2.82-2.77-1.17-.923-2.11-1.384-2.82-1.384-.47 0-1.41.461-2.81 1.154-1.41.692-2.59 1.615-3.53 2.538-.94.923-1.64 1.846-1.64 2.539 0 .23.24.461.7.923.94.692 1.88 1.385 2.59 2.077.7.692 1.17 1.384 1.64 1.846.47.462.71.692 1.17.692.71 0 2.12-.461 3.76-1.384 1.41-.923 2.82-1.846 3.76-3ZM2154.49 670.071c.24.465.72.929 1.2.929.71 0 1.67-.464 3.34-1.16 1.43-.697 2.87-1.858 4.06-2.786 1.19-1.161 1.91-2.09 1.91-2.786 0-.929-.95-2.322-2.87-3.947-1.91-1.625-3.34-2.321-4.29-2.321-.72 0-1.68.464-3.11 1.161-1.43.696-2.86 1.625-4.06 2.785-1.19.929-1.67 1.858-1.67 2.786 0 .232.24.697.72 1.161 1.19.696 2.15 1.393 2.86 2.321.96.465 1.44 1.161 1.91 1.857ZM2349.77 704.005c.23-.703.23-1.64.23-3.046 0-8.904-2.1-14.997-6.53-18.512-4.43-3.515-10.96-5.155-19.82-5.155h-36.84c-1.17 0-2.1-.235-2.57-.703-.47-.469-.7-1.641-.7-3.281l-.23-24.605c0-.469-.23-.703-.93-.703-1.17 0-2.8.468-4.9 1.406-2.1.937-3.97 2.109-5.6 3.28-1.63 1.172-2.56 2.344-2.56 3.281v46.632h-90.25c-3.73 0-6.29-1.874-7.69-5.623-1.4-3.75-2.1-7.968-2.1-12.654 0-2.578.23-4.687.47-6.328 0-.234-.24-.468-.47-.702-4.66-.938-10.03-1.406-16.09-1.406h-.23c-10.96 0-19.12 2.108-25.19 6.092-5.83 3.984-8.86 9.373-8.86 16.169 0 4.452 1.87 7.968 5.83 10.311s9.1 3.515 15.62 3.983v.938c0 3.515-1.63 6.327-5.13 7.967-3.49 1.875-7.69 2.812-13.05 2.812-8.17 0-14.46-1.874-18.89-5.858-4.43-3.984-6.53-9.608-6.53-16.872l.23-5.39c0-.703-.23-.937-.7-.937-1.16 0-2.56.468-4.66 1.172-2.1.703-3.97 1.64-5.6 2.811-1.63.938-2.56 2.11-2.8 3.047 0 .468-.23 1.874-.23 4.218 0 9.139 3.26 15.935 9.56 20.621 6.3 4.687 14.93 7.03 25.42 7.03 6.99 0 13.06-1.172 18.65-3.749 5.6-2.578 10.03-5.859 13.06-10.077 3.27-4.218 4.67-8.67 4.67-13.356 0-1.172-.24-2.578-.47-4.219-.7 0-2.1-.234-4.9-.234-5.59 0-9.79-.703-13.06-2.343-3.26-1.64-4.89-3.984-4.89-7.264 0-1.407.23-2.813.93-4.687 1.4-.469 3.73-.938 7-1.406 3.03-.469 5.82-.469 8.16-.469 2.1 0 3.96 0 5.13.234 1.63.235 4.19.469 7.69.938l-.23 4.218c.23 13.826 6.3 20.855 17.95 20.855h160.2c2.8 0 5.13-.937 7.23-2.577 2.8-1.875 4.2-3.984 4.67-5.859Zm-66-1.406v-15.466h31.72c7.23 0 12.59 1.172 15.86 3.515 3.26 2.344 4.89 6.328 4.89 11.951h-52.47ZM2442.23 648c-1.18 0-2.82.469-4.94 1.407-2.12.939-4.01 2.112-5.65 3.285-1.65 1.173-2.59 2.346-2.59 3.284v46.452h-14.84v-6.803c0-4.223-.94-8.211-2.82-11.496-1.88-3.519-4.47-6.1-8.01-7.976-3.53-1.877-7.29-2.816-11.77-2.816-4.71 0-9.18.939-13.18 3.05-4.24 2.112-7.54 4.927-9.89 8.446-2.59 3.519-3.77 7.507-3.77 11.73 0 5.631 2.12 9.619 6.36 12.2 4.24 2.581 9.65 3.988 16.01 3.988h12.71c-.23.939-.94 1.877-1.88 2.815-1.18.939-3.06 1.643-5.65 2.112-2.59.469-5.18.703-7.77.703-4.71 0-9.89-.469-15.54-1.642-1.41-.234-2.83-.469-4-.704-1.18-.234-1.89-.469-2.12-.469-.94 0-2.12.469-3.77 1.643-1.65.938-3.06 2.346-4.24 3.519-1.17 1.407-1.88 2.346-1.88 2.815 0 .704 1.18 1.408 3.53 2.111 4.71 1.643 11.3 2.346 19.54 2.346 5.65 0 10.6-.469 14.84-1.407 4.23-.939 8.24-2.815 12-5.396 3.53-2.346 6.36-5.162 8.48-8.446h20.25c2.59 0 4.94-.938 7.06-2.581 2.12-1.877 3.53-3.753 4-5.63.24-.704.24-2.346.24-5.161v-50.206c.23-.938-.24-1.173-.71-1.173Zm-48.03 54.663c-4.71 0-8.47-.938-11.3-2.815-2.82-1.877-4.24-4.927-4.24-8.681 0-2.58.47-4.457 1.18-5.63 1.18-1.643 3.3-2.346 6.12-2.346 4.24 0 7.54 1.877 10.13 5.396 2.59 3.519 4 8.211 4 14.076h-5.89ZM2470 648.704c0-.469-.23-.704-.93-.704-1.17 0-2.8.469-4.9 1.408-2.1.938-3.97 2.112-5.6 3.285-1.64 1.173-2.57 2.347-2.57 3.285v56.084c0 .469.23.938.93.938.94 0 2.57-.469 4.67-1.407 2.1-.939 3.97-2.113 5.83-3.286 1.64-1.408 2.57-2.347 2.57-3.52v-56.083ZM2560.84 679.113c-3.5-1.409-7.48-2.113-11.92-2.113-9.35 0-17.3.704-23.61 2.113-6.54 1.409-11.69 3.757-15.89 7.28-3.04 2.348-5.15 5.166-6.32 8.218-1.16 3.053-1.87 6.34-1.87 9.862l-.23 17.847c0 3.053.23 5.401.47 7.279.23 1.879.93 3.288 1.87 4.462.7.704 1.4.939 1.87.939.93 0 2.57-.47 4.67-1.644 2.11-.939 3.98-2.348 5.61-3.522 1.64-1.409 2.58-2.348 2.58-2.818 0-.235-.24-.47-.47-.704-.24-.235-.7-.705-.94-.939-.93-.705-1.4-1.644-1.4-2.818-.23-.94-.23-2.818-.23-5.636l.23-15.498c0-3.287.23-5.871.47-7.514.23-1.644 1.17-2.818 2.34-3.992 1.63-1.409 3.97-2.349 7.24-2.818l3.04-.469c-2.57 3.756-3.97 7.514-3.97 11.506 0 3.756 1.17 7.279 3.27 10.097 2.34 2.818 5.14 5.166 8.88 6.575 3.74 1.408 7.48 2.348 11.69 2.348 4.44 0 8.42-.94 12.39-2.818 3.74-1.879 6.78-4.462 9.12-7.749 2.1-3.287 3.27-6.81 3.27-10.802s-1.17-7.279-3.27-10.332c-2.34-2.818-5.15-4.931-8.89-6.34Zm-2.33 24.656c-.24 1.174-.7 2.114-1.41 2.583-.46.47-1.4.704-2.57.704-2.33 0-4.67-.469-7.24-1.408-2.58-.94-4.68-2.583-6.55-4.697-1.64-2.113-2.57-4.931-2.57-8.218 0-2.818.47-4.462 1.64-5.401.7-.47 1.87-.939 3.74-.939 4.9 0 8.65 1.408 11.45 3.991 2.81 2.583 4.21 5.871 4.21 9.393-.24 1.644-.47 2.818-.7 3.992ZM2794.21 724.25c-1.63-1.5-3.03-2.25-3.96-2.25-.7 0-1.63.5-3.26 1.5s-2.79 2-3.49 3c-.7-1-1.63-2-2.79-3-1.17-1-2.1-1.5-2.8-1.5-.46 0-1.39.5-2.79 1.25-1.4.75-2.56 1.75-3.49 2.75-.93 1-1.63 2-1.63 2.75 0 .25.23.5.7 1 .93.75 1.86 1.5 2.56 2.25s1.16 1.5 1.63 2c.46.5.7.75 1.16.75.7 0 2.1-.5 3.73-1.5s3.02-2.25 3.95-3.25c.93.5 1.63 1.25 2.33 2.25.7.75 1.16 1.5 1.63 2s.7.75.93.75c.7 0 1.63-.5 3.03-1.25 1.39-.75 2.56-1.75 3.72-2.75 1.16-1 1.63-2 1.63-2.75-.23-1-1.16-2.25-2.79-4ZM2821.44 648c-1.16 0-2.8.47-4.9 1.412-2.09.941-3.96 2.117-5.59 3.294-1.64 1.176-2.57 2.353-2.57 3.294v46.588h-8.63c-2.1 0-3.73 0-5.13-.235-1.4 0-2.33-.235-2.8-.706-.46-.235-.7-.941-.7-1.882V692.471c0-4-.23-7.294-.46-9.647a16.584 16.584 0 0 0-1.63-5.648c-.24-.235-.47-.47-.94-.47-1.63 0-3.73.706-6.53 2.353-2.8 1.647-4.9 3.059-6.06 4.706-.23.235-.47.706-.47 1.176 0 .236 0 .471.24.471 1.39 2.117 2.33 5.647 2.33 10.823v6.118h-142.96v-6.823c0-4.236-.94-8.236-2.8-11.53-1.87-3.529-4.43-6.117-7.93-8-3.5-1.882-7.23-2.824-11.66-2.824-4.67 0-9.1.942-13.06 3.059-4.2 2.118-7.47 4.942-9.8 8.471-2.56 3.529-3.73 7.529-3.73 11.765 0 5.647 2.1 9.647 6.3 12.235 4.2 2.588 9.56 4 15.86 4h12.59c-.23.941-.93 1.882-1.87 2.824-1.16.941-3.03 1.647-5.59 2.117-2.57.471-5.13.706-7.7.706-4.66 0-9.79-.471-15.39-1.647-1.4-.235-2.8-.471-3.97-.706-1.16-.235-1.86-.47-2.1-.47-.93 0-2.09.47-3.73 1.647-1.63.941-3.03 2.352-4.19 3.529-1.17 1.412-1.87 2.353-1.87 2.824 0 .706 1.17 1.411 3.5 2.117 4.66 1.647 11.19 2.353 19.36 2.353 5.59 0 10.49-.47 14.69-1.412 4.2-.941 8.16-2.823 11.89-5.412 3.5-2.352 6.3-5.176 8.4-8.47h147.62c1.4 0 2.8-.235 4.2-.941l1.4.47c2.8.471 7.46.706 14.23.706h11.42c2.57 0 4.9-.941 7-2.588 2.1-1.882 3.5-3.764 3.97-5.647.23-.706.23-2.353.23-5.177v-50.352c.23-.942 0-1.177-.47-1.177Zm-206.63 54.824c-4.66 0-8.39-.942-11.19-2.824-2.8-1.882-4.2-4.941-4.2-8.706 0-2.588.47-4.47 1.17-5.647 1.16-1.647 3.26-2.353 6.06-2.353 4.2 0 7.46 1.883 10.03 5.412 2.56 3.529 3.96 8.235 3.96 14.118h-5.83ZM2849.07 648c-1.17 0-2.8.469-4.9 1.408-2.1.938-3.97 2.112-5.6 3.285-1.64 1.173-2.57 2.347-2.57 3.285v56.084c0 .469.23.938.93.938.94 0 2.57-.469 4.67-1.407 2.1-.939 3.97-2.113 5.83-3.286 1.64-1.408 2.57-2.347 2.57-3.52v-56.083c0-.469-.47-.704-.93-.704Z"/></g></svg>