<svg xmlns="http://www.w3.org/2000/svg" xml:space="preserve" overflow="hidden" viewBox="0 0 4227 527"><g transform="translate(1 -974)"><path fill="#F36B2B" d="M301.174 1038.72h227v403h-227Z"/><path fill="#EE252F" d="M315.78 1238.79c0-78.87 36.02-153.63 97.395-202.1-111.296-87.907-271.697-68.191-359.2415 43.54-87.5748 111.73-67.9326 272.75 43.3637 360.66 92.4698 73.11 223.4078 73.11 315.8778 0-61.375-48.47-97.395-123.23-97.395-202.1"/><path fill="#F99E30" d="M828.173 1238.69c0 142.06-114.836 257.03-256.724 257.03-57.404 0-113.172-19.7-158.276-55.02 111.535-87.86 130.407-248.82 42.651-360.51-12.298-16.42-27.082-30.38-42.651-43.52 111.535-87.874 272.294-68.164 360.051 43.52 35.259 45.17 54.949 101.01 54.949 158.5"/><path fill="#1A1F71" d="M2631.9 1493.3c-38.07 0-76.18-.15-114.29.15-6.38 0-8.77-1.64-9.95-7.98-3.81-20.73-8.58-41.28-12.39-61.89-.94-4.92-2.39-6.72-7.72-6.68-52.5.2-105.03.2-157.53 0-5.17 0-6.84 2.04-8.38 6.37-7.53 21.41-15.51 42.73-23.14 64.06-1.17 3.24-1.87 6.18-6.89 6.18-43.82-.24-87.58-.15-131.41-.21-.75-.2-1.51-.48-2.2-.87 1.99-4.92 3.96-9.87 6.01-14.79 62.85-149.26 125.6-298.54 188.33-447.86 4.62-13.87 13.7-25.84 25.79-34.04 12.13-8.208 26.62-12.201 41.26-11.36 32.93 0 65.83 0 98.77-.248 5.9 0 7.83 1.856 8.98 7.303 15.79 76.335 31.7 152.535 47.72 228.625 18.63 88.89 37.26 177.79 55.86 266.71 0 .65.94 1.15 1.45 1.7l-.27 4.83Zm-199.54-371.09-70.25 190.71h104.85c5.32 0 4.56-2.13 3.78-5.85-7.14-33.85-14.06-67.7-21.05-101.59-5.66-27.11-11.43-54.34-17.33-83.27Zm-337.69-147.331c12.97 2.167 25.98 4.117 38.89 6.529 16 3.032 31.72 7.388 47 13.026 3.11 1.146 5.86 1.735 5.05 6.496-5.69 33.33-11.01 66.72-16.55 100.05-.27 1.58-.81 3.09-1.39 5.17-18.11-8.8-37.19-15.42-56.88-19.71-30.34-6.97-61.88-6.78-92.12.52-10.62 2.67-20.24 8.32-27.74 16.28-2.9 2.85-5.23 6.26-6.83 10.02-1.6 3.75-2.45 7.79-2.48 11.87-.03 4.08.76 8.13 2.3 11.91 1.54 3.78 3.81 7.21 6.71 10.11 10.56 10.58 22.84 19.33 36.29 25.87 25.65 12.45 50.6 26.24 74.76 41.31 30.52 18.15 52.63 47.56 61.55 81.85 6.35 27.11 5.02 55.44-3.84 81.83-8.89 26.4-24.92 49.81-46.37 67.63-32.51 27.6-72.43 45.07-114.83 50.23-67.23 10.41-135.97 4.03-200.14-18.57-6.99-2.38-8.78-5.16-7.44-12.66 5.89-33.02 11.22-66.12 16.21-99.3.93-6.19 2.9-5.32 7.07-3.34 27.7 14.49 57.58 24.42 88.46 29.4 27.92 5.1 56.59 4.33 84.17-2.26 11.37-2.96 21.8-8.76 30.27-16.87 3.69-3.42 6.69-7.55 8.74-12.14 2.06-4.59 3.18-9.56 3.3-14.59.09-5.03-.82-10.03-2.69-14.71-1.88-4.67-4.69-8.92-8.23-12.49-13.46-13.1-29.15-23.69-46.33-31.26-23.62-11-46.24-24.05-67.59-38.99-29.22-18.62-49.84-48.04-57.35-81.82-4.2-22.91-2.66-46.5 4.45-68.68 7.14-22.17 19.66-42.25 36.47-58.44 31.12-30.32 70.74-50.532 113.63-57.99 11.7-1.384 23.28-3.534 34.72-6.436l58.76.155ZM1317.3 1252.92c7.71 24.75 10.47 50.56 16.76 75.88 3.08-2.17 3.08-5.57 4.26-8.39 40.98-109.63 81.87-219.29 122.64-328.975.48-2.3 1.81-4.335 3.72-5.695 1.9-1.36 4.29-1.947 6.62-1.638 41.34.278 82.68 0 124.12 0h8.19c-7.07 17.418-13.73 34.038-20.47 50.378-61.36 150.14-122.7 300.3-184.03 450.46-.6 2.55-2.15 4.78-4.32 6.26-2.15 1.48-4.78 2.11-7.41 1.76-41.07-.37-82.17-.37-123.24 0-1.21.23-2.45.2-3.66-.08-1.18-.28-2.33-.8-3.3-1.54-1-.74-1.81-1.68-2.39-2.76-.6-1.07-.97-2.26-1.09-3.48-38.23-144.2-76.57-288.37-115.04-432.49 0-.52-.3-1.02-.49-1.55 2.15 1.09 4.42 1.99 6.48 3.1 29.6 17.7 56.97 38.8 81.62 62.88 39.41 38.56 70.38 84.82 91.03 135.88Zm323.03 240.35c-19.33 0-38.62-.31-57.95.15-6.83.16-8.01-1.95-6.95-8.11 6.92-41.34 13.58-82.71 20.32-124.08 11.16-68.6 22.29-137.19 33.45-205.79 8.89-54.71 17.72-109.44 26.49-164.189.82-4.985 2.33-7.213 8.11-7.183 39.43.29 78.9.29 118.34 0 5.83 0 7.04 1.055 6.05 7.183-19.84 120.599-39.5 241.289-58.95 362.049-7.23 44.59-14.51 89.16-21.44 133.78-.85 5.26-2.9 6.47-7.86 6.41-19.84-.38-39.71-.22-59.61-.22Z"/><path fill="#F8920F" d="M1315.85 1252.72c-20.59-51.03-51.44-97.26-90.66-135.79-24.57-24.12-51.86-45.25-81.36-62.97-2.05-1.24-4.29-2.17-6.46-3.09-20.56-13.03-42.36-23.97-65.06-32.66-22.04-9.03-44.62-16.6-67.65-22.649-2.57-.68-6.402-.372-5.285-5.238.905-3.932 1.665-6.628 7.065-6.598 70.73.342 141.41 0 212.14.65 13.64-.907 27.08 3.608 37.4 12.564 10.33 8.951 16.73 21.631 17.79 35.271 13.67 70.37 27.68 140.7 41.54 211.04.93 3.06 1.11 6.32.54 9.47Z"/><path fill="#84B740" d="M2836 1299h588v196h-588Z"/><path fill="#259BD6" d="M2836 1032h588v196h-588Z"/><path fill="#27292D" d="M4153.79 1424.72c-21.98 0-25.3 12.38-25.3 19.71 0 11.33 8.03 17.96 21.46 17.96 5.58 0 12.91-1.22 21.1-3.31l8.73-2.27 2.44-.7v-31.39Zm-339.1 0c-21.81 0-25.12 12.38-25.12 19.71 0 11.33 8.02 17.96 21.46 17.96 5.75 0 12.9-1.22 21.1-3.31l8.72-2.27 2.45-.7-.18-31.39Zm174.08-55.98c-28.61 0-31.74 25.29-31.74 44.3 0 36.97 18.14 44.82 33.49 44.82 6.62 0 9.94-.7 19.01-2.45l2.62-.52v-81.44l-2.27-.7c-10.47-3.14-16.05-3.66-20.93-4.01Zm-422.12-35.75c19.18 0 32.96 3.49 42.38 10.29l1.57 1.22 1.75-.87c6.8-3.14 25.11-10.46 47.27-10.46 40.47 0 60 17.61 60 54.06v102.89h-45.52v-98.36c0-17.44-10.99-21.1-20.24-21.1-8.02 0-15.7 1.57-22.67 4.71l-3.14 1.39 1.57 2.97c.17.7 1.39 4.18 1.39 10.11v100.28h-45.7v-98.36c0-13.95-6.8-21.1-20.23-21.1-5.41 0-10.99.52-20.41 3.66l-2.27.7v114.92H3496V1365.6c0-13.42 5.76-20.57 20.58-25.11 17.27-5.05 33.15-7.5 50.07-7.5Zm595.51-.17c41.86 0 63.14 17.96 63.14 53.19v108.82c-13.78-2.62-27.91-5.06-41.51-7.5l-4.36-.7-.7-.18-.7.18c-12.91 3.14-27.91 5.23-38.72 5.23-34.89 0-55.65-17.09-55.65-45.51 0-33.31 22.51-48.83 71.17-48.83h26.69v-9.07c0-20.75-19.19-20.75-25.47-20.75-13.95 0-32.62 3.14-47.62 8.02l-14.3 4.71-4.88-33.14 14.65-4.36c22.5-6.97 40.64-10.11 58.26-10.11Zm-338.75 0c41.86 0 63.14 17.79 62.97 53.36V1495c-13.78-2.79-27.73-5.23-41.51-7.67l-4.19-.7-.7-.18-.7.18c-12.9 3.14-27.91 5.23-38.72 5.23-35.06 0-55.82-17.09-55.82-45.51 0-33.31 22.68-48.83 71.34-48.83h26.69v-9.07c0-20.75-19.19-20.75-25.47-20.75-13.95 0-32.61 3.14-47.62 8.02l-14.3 4.71-4.88-33.14 14.65-4.36c22.5-6.97 40.47-10.11 58.26-10.11Zm234.96-69.41v196.19c0 13.78-5.06 20.23-19.19 24.76-15.35 5.06-30.52 7.15-51.11 7.15-48.66 0-76.57-28.6-76.57-78.3 0-36.27 12.03-79.52 69.25-79.52 10.46 0 21.28 3.14 25.99 4.54l1.22.34 4.19 1.22v-68.36l4.71-.87c13.78-2.26 27.9-4.71 41.51-7.15Zm91.4-192.87c-4.18.35-13.6 0-23.89 2.79-.35 0-.7.17-1.23.35-1.04.35-2.09.7-3.13 1.04l-.53.35c-.87.35-1.57.53-2.27.88l-2.96 1.22 1.39 2.79c.18.52 1.23 4.01 1.23 9.59v67.14l2.61.52c8.9 1.74 20.24 2.44 27.04 2.44 15.17 0 33.49-7.85 33.66-44.82 0-19-3.31-44.29-31.74-44.29Zm-416.89-36.62h101.87c-1.92 12.73-2.97 20.75-5.06 33.48h-98.03c-21.98 0-25.29 10.81-25.29 19.53 0 12.91 8.02 20.58 21.45 20.58h44.83c34.89 0 55.64 22.67 55.64 51.1 0 39.58-22.67 55.63-71.34 55.63h-66.28l-77.8-.18h-42.39c-43.43 0-73.43-24.24-74.48-74.99v-22.67c1.05-50.74 31.05-79.87 74.48-79.87h58.09c-1.75 12.21-2.97 20.41-4.89 33.31h-42.56c-25.64 0-37.67 18.84-37.67 49.18v20.05c0 29.13 15.52 41.68 37.67 41.68h26.17l143.56.35h7.5c21.8 0 25.11-15.17 25.11-22.49 0-11.17-8.02-21.8-21.45-21.8h-44.83c-34.89 0-55.64-17.09-55.64-49.88 0-33.13 23.89-53.01 71.34-53.01Zm413.75-1.92h1.22c47.45 1.05 77.98 33.66 78.15 83.36 0 50.22-31.57 82.83-80.24 82.83-14.48 0-35.58-2.96-46.92-8.54-7.68 1.22-16.57 2.61-24.25 4.18h-224.14c1.92-12.03 3.66-24.06 5.06-33.31h72.91c5.75 0 9.42 1.22 9.94 1.4l2.97 1.57v-48.48c0-28.95-11.69-47.78-33.84-47.78h-42.22c1.75-12.39 3.14-21.1 4.89-33.49H3912.54c43.44 0 73.44 27.91 74.49 78.65h.17v48.13h84.25l1.57-2.96c.18-.52 1.4-2.79 1.4-8.72v-69.23c.17-10.29 3.14-19.01 8.37-25.99 9.77-14.3 37.16-21.62 63.84-21.62Z"/></g></svg>
