<?xml version="1.0" encoding="UTF-8"?>
<svg xmlns="http://www.w3.org/2000/svg" xmlns:xlink="http://www.w3.org/1999/xlink" version="1.1" id="Capa_1" x="0px" y="0px" viewBox="0 0 512.002 512.002" style="enable-background:new 0 0 512.002 512.002;" xml:space="preserve" width="512" height="512">
<g>
	<g>
		
			<path style="fill-rule:evenodd;clip-rule:evenodd;fill:none;stroke:#000000;stroke-width:20.0001;stroke-linecap:round;stroke-linejoin:round;stroke-miterlimit:22.9256;" d="&#10;&#9;&#9;&#9;M319.67,493.619c-20.766,5.564-42.171,8.382-63.669,8.382C120.138,502.002,10,391.863,10,256.001S120.138,10,256.001,10&#10;&#9;&#9;&#9;s246.001,110.138,246.001,246.001c0,40.923-10.209,81.199-29.702,117.18"/>
		
			<polyline style="fill-rule:evenodd;clip-rule:evenodd;fill:none;stroke:#000000;stroke-width:20.0001;stroke-linecap:round;stroke-linejoin:round;stroke-miterlimit:22.9256;" points="&#10;&#9;&#9;&#9;455.452,347.092 466.864,382.229 502.002,370.817 &#9;&#9;"/>
		
			<path style="fill-rule:evenodd;clip-rule:evenodd;fill:none;stroke:#000000;stroke-width:20.0001;stroke-linecap:round;stroke-linejoin:round;stroke-miterlimit:22.9256;" d="&#10;&#9;&#9;&#9;M359.948,439.165c9.182-35.197,57.262-9.652,32.694,17.648c-10.512,11.681-29.045,31.582-32.694,45.188h40"/>
		
			<path style="fill-rule:evenodd;clip-rule:evenodd;fill:none;stroke:#000000;stroke-width:20.0001;stroke-linecap:round;stroke-linejoin:round;stroke-miterlimit:22.9256;" d="&#10;&#9;&#9;&#9;M464.955,466.999h-35.006l4.995-44.997 M469.951,422.002v80"/>
		
			<path style="fill-rule:evenodd;clip-rule:evenodd;fill:none;stroke:#000000;stroke-width:20.0001;stroke-linecap:round;stroke-linejoin:round;stroke-miterlimit:22.9256;" d="&#10;&#9;&#9;&#9;M210.997,151.868h-87.29c-9.778,0-17.706,7.928-17.706,17.706v172.854c0,9.779,7.927,17.706,17.706,17.706h264.588&#10;&#9;&#9;&#9;c9.778,0,17.706-7.928,17.706-17.706V169.574c0-9.779-7.927-17.706-17.706-17.706h-87.298"/>
		
			<path style="fill-rule:evenodd;clip-rule:evenodd;fill:none;stroke:#000000;stroke-width:20.0001;stroke-linecap:round;stroke-linejoin:round;stroke-miterlimit:22.9256;" d="&#10;&#9;&#9;&#9;M404.849,193.773L270.591,295.284c-4.373,3.301-9.503,4.893-14.59,4.889c-5.087,0.004-10.217-1.587-14.59-4.889L107.153,193.773"/>
		
			<line style="fill-rule:evenodd;clip-rule:evenodd;fill:none;stroke:#000000;stroke-width:20.0001;stroke-linecap:round;stroke-linejoin:round;stroke-miterlimit:22.9256;" x1="405.551" y1="317.697" x2="323.699" y2="255.809"/>
		
			<line style="fill-rule:evenodd;clip-rule:evenodd;fill:none;stroke:#000000;stroke-width:20.0001;stroke-linecap:round;stroke-linejoin:round;stroke-miterlimit:22.9256;" x1="106.45" y1="317.697" x2="188.303" y2="255.809"/>
		
			<line style="fill-rule:evenodd;clip-rule:evenodd;fill:none;stroke:#000000;stroke-width:19.9998;stroke-linecap:round;stroke-linejoin:round;stroke-miterlimit:2.6131;" x1="255.993" y1="151.868" x2="256.001" y2="151.868"/>
	</g>
</g>















</svg>
