<svg xmlns="http://www.w3.org/2000/svg" xml:space="preserve" viewBox="0 0 512 512"><g fill="none" stroke="#000" stroke-linecap="round" stroke-linejoin="round" stroke-width="20" clip-rule="evenodd"><path stroke-miterlimit="22.9" d="M319.7 493.6a246 246 0 1 1 152.6-120.4"/><path stroke-miterlimit="22.9" d="m455.5 347.1 11.4 35.1 35.1-11.4m-142 68.4c9.1-35.2 57.2-9.7 32.6 17.6-10.5 11.7-29 31.6-32.7 45.2h40m65.1-35h-35l5-45m35 0v80M211 151.9h-87.3c-9.8 0-17.7 7.9-17.7 17.7v172.8c0 9.8 8 17.7 17.7 17.7h264.6c9.8 0 17.7-7.9 17.7-17.7V169.6c0-9.8-8-17.7-17.7-17.7H301"/><path stroke-miterlimit="22.9" d="M404.8 193.8 270.6 295.3a24.1 24.1 0 0 1-29.2 0L107.2 193.8m298.4 123.9-81.9-61.9m-217.2 61.9 81.8-61.9"/><path stroke-miterlimit="2.6" d="M256 151.9h0"/></g></svg>
