<svg xmlns="http://www.w3.org/2000/svg" id="Layer_1" viewBox="0 0 1000 1000"><defs><style>.st1{fill:#9e925e;fill-rule:evenodd}.st3{fill:#008556}</style></defs><path d="m290 688-15-30h-7v38h3v-31l16 31h1l16-31v31h7v-38h-7zm29-20v28h6v-30h-1zm6-15-1-1h-3l-1 1-1 1v2l1 1h1l1 1 2-1h1v-1l1-1zm30 16-2-2-3-1-6 2-6 4v-5h-6v30h6v-22l2-2 3-2h2l2-1 3 2 1 4v20h6v-24zm15-16-2-1h-2l-1 1-1 1v2l1 1h1l1 1 1-1h2v-1l1-1zm-6 15v28h6v-30h-2zm31 14-2-1-4-2-3-1-3-2-1-2-1-2v-1l1-2 2-1h3l4 2 4 4 2-2-3-3-2-2-3-1h-2l-4 1-4 2-2 2v3l2 6 3 2 2 2 3 1 3 1 2 2v4l-1 2-2 1h-5l-2-1-4-5-2 2 2 3 3 2 6 1 5-1 3-2 3-6-1-3zm22 11h-4l-1-1v-23h7v-2h-7v-10h-2l-1 4-1 4-3 2-4 1v1h5v21l1 3 1 2 1 2h3l5-1 3-3-1-1zm24-26h-2l-1-1-3 1-2 1-4 4v-5h-6v29h6v-20l1-2 2-1 1-1 1-1 1 1h1l1 1h2l2-1 1-2v-1zm20 21-11-21h-7l15 28-2 5-1 1-1 2-1 1-2 1h-1l-1-1h-4l-1 1-1 1v1l2 2 1 1h5l3-2 4-6 15-35h-3zm58-17a16 16 0 0 0-17-4l-5 4-3 5-1 6 1 6q1 2 3 5l5 3 6 1a16 16 0 0 0 11-5 16 16 0 0 0 4-17zm-2 17-2 4-3 2-3 1-4-1-3-4-2-5-1-6 1-4 1-3 3-3 3-1 5 2 3 3 2 5v10m33-35-3-1-7 1-4 2-2 4-1 4v4h-6v2h6v27h6v-27h8v-2h-8v-7l1-4 1-2h4l1 1v2l1 1 1 1 1 1 2-1q1 0 0 0l1-1v-3zm45 23h-19v-18h-6v38h6v-18h19v18h7v-38h-7zm39 12-2 2-4 2-3 1a9 9 0 0 1-8-4l-2-5-1-5h22l-1-5a12 12 0 0 0-7-7l-5-1-6 2q-3 1-4 3-2 3-3 5l-1 7 1 5 3 5 4 3 6 1 5-1 4-2 3-4 2-4-1-1zm-19-15 4-4h5l3 2 1 2 1 3h-15zm47-5-3-1-5-1-8 2-3 2-1 4 1 2h1l1 1 2-1v-1l1-1v-3l1-2 1-1h5l2 2 1 2 1 3v2l-4 1-8 3-3 2-2 3-1 4v2l2 3 2 1 3 1 6-2 2-1 3-2v4h5v-25zm-3 22-2 2-2 1h-2l-1 1-2-1-2-1-1-2v-4l2-2 2-1 5-3 3-1zm14-37v43h5v-44h-1zm25 40h-4v-24h6v-2h-6v-10h-2l-1 4-2 4-2 2-4 1v1h5v24l1 2 2 2h3l4-1 3-3-1-1zm31-21-2-3-2-2-3-1-6 2-5 4v-20h-2l-4 1v44h6v-22l2-2 2-2h2l2-1 3 2 2 4v20h6v-21z" style="fill:#9e925e"/><path d="m585 423-26 18q-41 31-72 65h-46s114-99 167-107c47-6 65 28 61 64a47 47 0 0 0-12-37 46 46 0 0 0-39-16c0 1-14 1-33 13" class="st1"/><path d="m412 423 27 18q40 31 71 65h47s-115-99-168-107c-46-6-65 28-61 64a47 47 0 0 1 12-37 46 46 0 0 1 40-16c0 1 13 1 32 13" class="st1"/><path d="M496 616h-20v-2l1-9c0-13-6-28-22-28q-8 0-15 6-7 5-13 12l-10 19-1 2v-25h-6v25h-19v-3c0-26-19-35-35-35h-25v5h24q28 1 29 31v2h-80v-42h-7c-11 0-29 8-29 26q0 10 6 15 7 5 15 5h2l5-4h-5q-15-1-16-16 1-12 8-16 7-6 12-5h2v41h206v-74h-7zm-27-1zh-46v-2c4-18 20-32 31-32 4 0 16 2 16 24zm54 5h7v-74h-7zm-238-57q5 0 5-4 0-5-5-5-6 0-5 5 1 6 5 4m294 1q5-1 5-5 0-6-5-5-6 1-5 5 0 4 5 5m-279-1a5 5 0 1 0 0-9 5 5 0 0 0 0 9m346 57h6v-74h-6zm-84-19q1 18 21 19h15v-46h-7c-16 0-29 12-29 27m29 15h-6c-11 0-16-8-16-16 0-14 10-21 20-21h2zm87-62a5 5 0 1 0 5 5q-1-5-5-5m48 21c-17 0-31 12-31 26s13 19 21 19h2l4-3 1-1h-4c-8 0-17-5-17-15s9-20 20-20h2v40q2 14-12 15h-4l-1 5h6c5 0 17-1 17-17v-48zm-52 49q1 13-11 12h-3l-1 5 6 1c4 0 16-2 16-16v-45h-6zm-80-70q-5 0-5 5 0 6 5 5 6-2 5-5-1-5-5-5m26 70q0 13-12 12h-3l-1 5 6 1c5 0 16-2 16-16v-45h-6zM402 447l-16-16-14 14-14-14-16 16 16 16 14-14 14 14zM572 328l-4-8a57 57 0 0 0-66-23l-3-8-3 8a57 57 0 0 0-70 31q16-17 38-18a57 57 0 0 0-21 54q5-25 27-39a57 57 0 0 0 8 64c-9-22-4-47 13-64v14c0 27 8 49 8 49s8-22 8-49v-14c17 17 22 42 13 64l5-8c12-17 12-39 3-56q22 14 27 39a57 57 0 0 0-21-54q22 1 38 18" class="st3"/><path d="M442 421s40-58 112 18c68 72 93 60 112 37l-3 5-2 4a49 49 0 0 1-40 21q-32 2-78-46c-66-73-101-39-101-39" style="fill-rule:evenodd;fill:#008556"/></svg>
