<svg xmlns="http://www.w3.org/2000/svg" xml:space="preserve" width="2052" height="567" overflow="hidden"><defs><clipPath id="a"><path d="M2212 1283h2052v567H2212z"/></clipPath></defs><g fill-rule="evenodd" clip-path="url(#a)" transform="translate(-2212 -1283)"><path fill="#9e925e" d="M2266 1794zl-37-73h-16v95h7v-78h1l40 78h3l39-78v78h16v-95h-16zm73-49v71h15v-75h-4zm13-38-2-1-3-1-4 1-2 1-2 2-1 3 1 3 2 3 2 1 4 1 3-1 2-1 2-3 1-3-1-3zm75 41q-1-3-6-5l-7-2q-8 0-14 4-8 3-14 11v-13h-15v73h15v-54l5-5 6-3 5-2 5-1q5 0 8 4 3 3 3 11v50h15v-53l-2-8zm36-41-2-1-4-1-3 1-3 1-1 2-1 3 1 3 1 3 3 1 3 1 4-1 2-1 2-3 1-3-1-3zm-13 38v71h15v-75h-4zm77 36-7-4-8-4-7-4-7-3-5-5-2-5 1-4 3-3 5-2 5-1q6 0 11 3 6 4 10 10l5-4-6-7a25 25 0 0 0-13-7h-7l-10 1-8 5-5 6-2 8a18 18 0 0 0 7 15l6 4 7 4 7 3 7 4 4 5 2 5-1 4-3 4-5 2-5 1-6-1-5-2-5-4-5-7-6 5 6 7 7 5 14 2q6 0 12-2l9-4 5-7 2-9-2-8zm53 26-4 1h-3l-3-2-1-2-1-3v-52h17v-6h-17v-25h-4l-2 10-4 9-7 6-10 2v4h13v51l1 7a13 13 0 0 0 7 9l6 2q8 0 12-3 6-3 8-8l-3-3zm60-63-4-2-4-1-6 1-6 4-9 10v-13h-15v73h15v-51l3-4 3-4 3-2 3-1h3l2 1 3 2h4q4 1 6-2l2-5-1-3zm50 52-29-53h-16l37 70-4 11-2 4-3 4-3 3-4 2-3-1-3-1-2-1-4-1-3 1-3 2-2 3v3l3 6 4 1 4 1 7-1a30 30 0 0 0 14-10l5-10 37-86h-7zm144-44a41 41 0 0 0-43-8q-8 3-12 8-5 6-8 13a40 40 0 0 0 0 30q3 6 8 12 5 5 12 7l15 3q9 0 16-3a40 40 0 0 0 20-51zm-7 43q-1 6-4 9l-6 6-8 2q-6 0-11-3l-8-8-5-12-1-16a33 33 0 0 1 5-19l7-5q3-3 7-2 7-1 12 3 5 3 8 8l4 12 2 15zm83-86-6-3a32 32 0 0 0-20 1l-8 6-6 9-2 12v8h-15v6h15v68h14v-68h20v-6h-20v-17l3-10 3-3 5-2 4 2 2 2 2 3 1 4 2 2 4 1h3l2-2 2-2 1-3-2-4zm112 55h-48v-43h-16v95h16v-46h48v46h16v-95h-16zm96 31-6 6-8 4-9 1a23 23 0 0 1-19-9l-5-11q-3-6-2-14h54l-2-12a31 31 0 0 0-17-16q-6-3-13-3-9 0-15 3-7 3-11 9l-8 13-2 16q0 7 3 14a35 35 0 0 0 19 19q6 2 14 3l11-3a41 41 0 0 0 18-14q4-5 5-11l-4-1zm-47-37a21 21 0 0 1 9-10l6-1 8 1 6 4q2 3 3 7l2 7h-36zm116-12-8-4-12-1a46 46 0 0 0-21 5q-4 2-6 5a11 11 0 0 0-2 10l2 3 2 2 3 1 4-1 2-2 1-3v-4l1-4 2-4 3-2 6-1 6 1q3 0 5 3l2 5 1 9v4l-10 3-19 7-7 6q-4 2-6 6l-1 9 1 7 4 6 6 4 7 1a27 27 0 0 0 15-4l5-3 5-4v10h15v-56l-2-8q-1-3-4-6m-9 55-4 3-4 2-4 2-5 1-5-1-3-3-3-5-1-5 1-5 4-4 5-4 13-6 6-3zm35-92v107h14v-111h-4zm64 98-4 1h-3l-3-2-2-2v-55h16v-6h-16v-25h-4l-3 10q-1 6-4 9-2 4-6 6l-10 2v4h12v51l1 7 3 6 4 3 7 2q7 0 12-3l8-8-4-3zm76-52-4-7-6-5-7-2q-7 0-15 4-7 3-14 11v-51h-4l-10 4v107h14v-54l5-5 6-3 5-2 5-1q5 0 8 4 3 3 3 11v50h15v-53zM4056 1614a529 529 0 0 0-66 46c-65 48-128 105-177 160h-116s284-245 414-264c116-17 161 67 152 158a115 115 0 0 0-30-92 115 115 0 0 0-97-38s-34 1-80 30"/><path fill="#9e925e" d="M3625 1614a529 529 0 0 1 66 46c65 48 128 105 177 160h116s-284-245-414-264c-116-17-161 67-152 158a115 115 0 0 1 30-92 115 115 0 0 1 97-38s34 1 80 30"/><path fill="#008556" d="M2777 1616h-52l1-3 2-24c0-32-14-69-53-69q-21 2-38 14-18 13-31 32-14 22-25 45l-2 5h-1v-61h-16v61h-47v-6c0-65-46-88-86-88h-62v14h60c44 0 71 28 71 77v3h-197v-103l-17-1c-29 0-72 21-72 66q0 23 16 37 15 13 37 13h5l10-11 1-1h-12c-23 0-40-16-40-39 0-21 11-33 19-40 11-8 24-11 31-11h6v102h508v-183h-16zm-68-2v2h-115l1-3c10-45 50-79 78-79 9 0 38 4 38 58 0 3 0 15-2 22m135 14h15v-183h-15zm-589-141q11-1 12-12-1-11-12-12-12 1-13 12 1 11 13 12m726 0q12-1 13-12-1-11-13-12-10 1-12 12 2 11 12 12m-690 0a12 12 0 1 0-12-12q1 11 12 12m856 141h16v-183h-16zm-208-49c0 28 23 49 53 49h36v-115l-16-1c-41 0-73 30-73 67m73 37h-15c-28 0-41-20-41-39 0-33 26-52 50-52h6zm214-153a12 12 0 1 0 12 12q-1-11-12-12m118 53c-42 0-74 28-74 65 0 36 30 47 50 47l6-1 8-8 4-3h-11c-20 0-40-12-40-37 0-23 21-49 49-49h3v100c0 19-4 37-30 37l-8-1-2 12 15 1c12 0 41-4 41-42v-120zm-126 122q1 30-29 29l-8-1-2 13 14 1c12 0 41-4 41-38v-113h-16zm-200-175q-11 1-12 12 1 11 12 12 11-1 12-12-2-11-12-12m64 175q1 30-29 29l-8-1-2 13 15 1c12 0 40-4 40-38v-113h-16zM3601 1675l-40-40-34 35-35-35-40 40 40 39 35-35 34 35zM4023 1380l-11-21c-36-55-104-77-164-56l-7-20-6 20a141 141 0 0 0-175 77c25-28 60-43 96-45a140 140 0 0 0-53 134c7-41 31-76 66-97a140 140 0 0 0 21 158c-23-54-10-117 33-157a385 385 0 0 0 18 156s21-55 21-123l-2-33c43 40 56 103 33 157l14-18c28-44 29-97 7-140 35 21 59 56 66 97a140 140 0 0 0-53-134c36 2 71 17 96 45M3699 1611s101-146 279 43c167 178 229 148 277 91 0 0-2 8-7 14l-6 9c-23 32-57 52-99 52-53 1-119-31-193-113-164-182-251-96-251-96"/></g></svg>
