<svg xmlns="http://www.w3.org/2000/svg" viewBox="0 0 130 35"><style>.st0{fill:#353535}</style><path d="M104.4 14.6c-.8 0-1.6-.7-1.5-1.5 0-.8.7-1.6 1.5-1.5.9 0 1.5.7 1.5 1.5.1.8-.6 1.5-1.5 1.5zM93 15.2c-.6-.3-.8-1-.5-1.6.3-.6 1-.8 1.6-.5.6.3.8 1 .5 1.6 0 .1-.1.2-.2.3-.4.4-.9.5-1.4.2zM98.2 14.2c-.6-.5-.8-1.4-.3-2 .5-.6 1.4-.7 2-.2.6.5.8 1.4.3 2 0 .1-.1.1-.1.1-.5.5-1.3.6-1.9.1zM88 16.7c-.2-.2-.2-.4-.2-.6 0-.7.9-1.1 1.4-.6.2.2.2.4.2.6.1.7-.8 1.2-1.4.6zM51 14.3c1-1 .2-2.6-1.1-2.6-.8 0-1.6.7-1.5 1.5 0 .9.7 1.5 1.5 1.5.4 0 .8-.1 1.1-.4zM61.7 15.2c-.1.1-.2.2-.3.2-.6.3-1.3.1-1.6-.5-.3-.6-.1-1.3.5-1.6.6-.3 1.3-.1 1.6.5.2.4.1 1-.2 1.4zM56.5 14.2l-.1.1c-.6.5-1.6.4-2-.3-.5-.6-.4-1.5.2-2 .6-.5 1.5-.4 2 .3.5.6.4 1.4-.1 1.9zM89.1 11.3c-.6-.3-.9-1-.6-1.6.3-.6 1-.9 1.6-.6.6.3.9 1 .6 1.6-.1.1-.1.3-.3.4-.4.3-.9.4-1.3.2zM102.7 3.4c-.4-.4-.6-.9-.6-1.4 0-1 .9-1.9 1.9-1.9 1 0 1.9.8 1.9 1.9.1 1.8-2 2.6-3.2 1.4zM80.2 8.7c.1-.5.6-.9 1.2-.7.5.1.9.7.7 1.2 0 .2-.1.3-.3.5-.7.6-1.8-.1-1.6-1zM85 7.5c-.6-.2-.9-.9-.7-1.5.2-.6.9-.9 1.5-.7.6.2.9.9.7 1.5-.1.2-.2.3-.3.4-.3.4-.8.5-1.2.3zM89.2 6c-.7-.4-1-1.3-.7-2 .4-.7 1.3-1 2-.7.7.4 1 1.3.7 2-.1.1-.2.3-.3.4-.4.5-1.1.6-1.7.3zM93.5 4.9c-.8-.5-1-1.6-.5-2.4.5-.8 1.6-1 2.4-.5.8.6 1 1.6.5 2.5 0 .1-.1.2-.2.3-.5.5-1.5.6-2.2.1zM98.1 3.9c-.7-.6-.8-1.7-.2-2.5.6-.7 1.7-.8 2.5-.2.7.6.8 1.7.2 2.5l-.1.1c-.7.7-1.7.7-2.4.1zM104.3 9.5c-1 0-1.7-.8-1.7-1.7 0-.9.8-1.7 1.7-1.7.9 0 1.7.8 1.7 1.7 0 .9-.7 1.7-1.7 1.7zM80 14.9c.1-.5.5-.8 1-.8.5.1.8.5.8 1 0 .2-.1.4-.2.5-.6.7-1.7.2-1.6-.7zM84 12c.2-.6.8-.9 1.3-.7.6.2.9.8.8 1.3-.1.2-.2.3-.3.5-.8.8-2.1 0-1.8-1.1zM93.5 9.9c-.7-.4-.9-1.3-.5-2s1.3-.9 1.9-.5c.7.4.9 1.3.5 2-.1.1-.1.2-.2.3-.4.5-1.1.6-1.7.2zM98.1 9.1c-.7-.5-.7-1.5-.2-2.2.5-.7 1.5-.7 2.2-.2.7.5.8 1.5.2 2.1l-.1.1c-.6.6-1.5.7-2.1.2zM51.7.7c-.4-.4-.9-.6-1.4-.6-1 0-1.9.9-1.9 1.9 0 1 .8 1.9 1.9 1.9 1.1.1 2.6-2 1.4-3.2zM73.9 9.7c-.1.1-.3.2-.5.3-.5.1-1.1-.2-1.2-.7-.1-.5.2-1.1.7-1.2 1.1-.2 1.8.9 1 1.6zM69.8 7.4c-.1.1-.3.2-.4.3-.6.2-1.3-.1-1.5-.7-.2-.6.1-1.3.7-1.5.6-.2 1.3.1 1.5.7.2.4 0 .9-.3 1.2zM65.6 5.9c-.1.1-.2.2-.4.3-.7.4-1.6.1-2-.7-.4-.8-.1-1.6.7-2 .7-.4 1.6-.1 2 .7.3.5.2 1.2-.3 1.7zM61.1 4.8c0 .1-.1.2-.2.2-.8.5-1.9.3-2.5-.5-.5-.8-.3-1.9.5-2.4s1.9-.3 2.4.5c.6.7.4 1.6-.2 2.2zM56.4 4s-.1.1 0 0c-.8.7-2 .6-2.6-.1-.6-.7-.5-1.9.2-2.5.7-.6 1.8-.5 2.5.2.6.7.5 1.8-.1 2.4zM51.3 6.7c-.3-.3-.7-.5-1.2-.5-.9 0-1.7.8-1.7 1.7 0 .9.8 1.7 1.7 1.7 1.5 0 2.3-1.8 1.2-2.9zM74.1 15.8c-.1.1-.3.2-.5.2-.5.1-.9-.3-1-.8-.1-.5.3-1 .8-1 .8-.1 1.3 1 .7 1.6zM70.1 13.2c-.1.1-.3.2-.5.3-.6.2-1.2-.2-1.3-.8-.2-.6.2-1.2.7-1.3 1.1-.3 1.9 1 1.1 1.8zM65.7 11.2c-.1.1-.2.2-.4.3-.6.3-1.3 0-1.6-.6-.3-.6 0-1.3.6-1.6.7-.3 1.4 0 1.7.6.2.4 0 .9-.3 1.3zM61.2 9.9c-.1.1-.2.1-.3.2-.7.4-1.5.2-2-.5-.4-.7-.2-1.5.5-1.9.7-.4 1.5-.2 2 .5.3.5.2 1.2-.2 1.7zM56.2 9.1l-.1.1c-.6.6-1.6.5-2.1-.2s-.4-1.6.2-2.2c.7-.5 1.6-.4 2.2.2.4.7.4 1.6-.2 2.1zM66.6 16.3c0-.5-.4-.8-.8-.8-.7 0-1.1.9-.6 1.4.2.2.4.2.6.2.4 0 .8-.4.8-.8zM77.2 12.8c-.5 0-.9-.4-.9-.9 0-.8 1-1.2 1.6-.6.5.5.1 1.5-.7 1.5zM77.2 19.3c-.4 0-.8-.4-.8-.8 0-.7.9-1.1 1.4-.6.5.5.1 1.4-.6 1.4z" class="st0"/><circle class="st0" cx="60.5" cy="27.6" r=".5"/><path class="st0" d="M70 29.1V33c0 .2 0 .5-.1.6 0 .2-.1.3-.2.4-.1.1-.2.2-.3.2-.1 0-.3.1-.4.1v.5c.3 0 .6 0 .8-.1.2-.1.4-.2.6-.4.3-.3.4-.7.5-1.2v-4H70zM67.6 27.1h.9v5.8h-.9v-5.8zM65.2 29.1V33c0 .2 0 .5-.1.6 0 .2-.1.3-.2.4-.1.1-.2.2-.3.2-.1 0-.3.1-.4.1v.5c.3 0 .6 0 .8-.1.2-.1.4-.2.6-.4.3-.3.4-.7.5-1.2v-4h-.9zM58.4 31.1v1.8h5.1v-3.7h-3.2c-1-.1-1.9.8-1.9 1.9zm4.3-1.2v2.2h-3.3V31c0-.6.5-1.1 1.1-1.1h2.2z"/><circle class="st0" cx="48.3" cy="27.6" r=".5"/><circle class="st0" cx="26.2" cy="34.4" r=".5"/><circle class="st0" cx="27.6" cy="34.4" r=".5"/><circle class="st0" cx="49.8" cy="27.6" r=".5"/><circle class="st0" cx="61.9" cy="27.6" r=".5"/><circle class="st0" cx="70.4" cy="27.6" r=".5"/><path d="M52.1 32.1h-2.2v-2.9H49v2.9h-9v-1c0-.6.5-1.2 1.2-1.2H45v-.7h-3.9c-1.1 0-2 .9-2 2v1h-7.2v-5H31v5h-2.5v-2.9h-.9v2.9h-1.7v-.9c0-.6-.2-1.1-.6-1.5-.3-.3-.8-.5-1.5-.5h-3.6v3.8c0 .2 0 .5-.1.6 0 .2-.1.3-.2.4-.1.1-.2.2-.3.2h-.1v.5c.2 0 .4-.1.5-.1.2-.1.4-.2.6-.4.3-.3.4-.7.5-1.2V33H53v-5.8h-.9v4.9zm-30.9-2.2H24c.5.1.9.6.9 1.1v1.1h-3.8l.1-2.2zM77.2 29.1H74c-1.1 0-2 .9-2 2v1.8h4.2v.2c0 .2 0 .5-.1.6 0 .2-.1.3-.2.4-.1.1-.2.2-.3.2h-.2v.5c.2 0 .4-.1.6-.1.2-.1.4-.2.6-.4.3-.3.4-.7.5-1.2l.1-4zm-3.1.8h2.2v2.2H73V31c0-.6.5-1.1 1.1-1.1zM54.4 27.1v5.7h.9v-5.7h-.9z" class="st0"/></svg>
