<svg xmlns="http://www.w3.org/2000/svg" xml:space="preserve" overflow="hidden" viewBox="0 0 1866 132"><defs><clipPath id="a"><path d="M15 1108h1866v132H15z"/></clipPath></defs><g clip-path="url(#a)" transform="translate(-15 -1108)"><path fill="none" stroke="#D9D9D9" stroke-miterlimit="8" stroke-width="2.29167" d="M16.0002 1130.17c0-11.69 9.4768-21.17 21.167-21.17H172.833c11.69 0 21.167 9.48 21.167 21.17v84.66c0 11.69-9.477 21.17-21.167 21.17H37.1672c-11.6902 0-21.167-9.48-21.167-21.17Z"/><path fill="#F36B2B" fill-rule="evenodd" d="M84.8506 1136.95h41.0004v72H84.8506Z"/><path fill="#EE252F" fill-rule="evenodd" d="M87.4436 1172.96c0-14.11 6.4384-27.5 17.4084-36.17-19.8931-15.74-48.5638-12.21-64.2118 7.79-15.6534 20-12.1425 48.82 7.751 64.56 16.5284 13.08 39.9328 13.08 56.4608 0-10.97-8.68-17.4084-22.06-17.4084-36.18"/><path fill="#F99E30" fill-rule="evenodd" d="M178.853 1172.94c0 25.43-20.477 46.01-45.778 46.01-10.236 0-20.18-3.53-28.223-9.85 19.889-15.72 23.254-44.53 7.606-64.52-2.193-2.94-4.829-5.44-7.606-7.8 19.889-15.72 48.554-12.2 64.202 7.8 6.288 8.08 9.799 18.07 9.799 28.36"/><path fill="none" stroke="#D9D9D9" stroke-miterlimit="8" stroke-width="2.29167" d="M228 1130.17c0-11.69 9.477-21.17 21.167-21.17h281.666c11.69 0 21.167 9.48 21.167 21.17v84.66c0 11.69-9.477 21.17-21.167 21.17H249.167c-11.69 0-21.167-9.48-21.167-21.17Z"/><path fill="#1A1F71" fill-rule="evenodd" d="M535.803 1219.62c-6.83 0-13.666-.02-20.501.03-1.145 0-1.574-.29-1.785-1.43-.684-3.7-1.541-7.37-2.224-11.06-.169-.87-.429-1.2-1.384-1.19-9.418.04-18.841.04-28.259 0-.928 0-1.226.36-1.503 1.14-1.351 3.83-2.783 7.64-4.15 11.45-.212.58-.337 1.1-1.237 1.1-7.861-.04-15.711-.03-23.572-.04-.136-.03-.271-.08-.396-.15.358-.88.71-1.77 1.079-2.65 11.274-26.67 22.531-53.35 33.783-80.03.829-2.48 2.457-4.62 4.627-6.08 2.175-1.47 4.774-2.18 7.4-2.03 5.908 0 11.81 0 17.718-.05 1.058 0 1.405.33 1.611 1.31 2.832 13.64 5.686 27.26 8.561 40.85 3.342 15.89 6.684 31.78 10.02 47.67 0 .11.169.2.261.3l-.049.86Zm-35.795-66.31-12.602 34.08h18.809c.954 0 .819-.38.678-1.05-1.281-6.05-2.523-12.1-3.776-18.15-1.015-4.85-2.051-9.71-3.109-14.88Zm-60.576-26.33c2.327.39 4.66.73 6.976 1.17 2.87.54 5.691 1.32 8.431 2.32.559.21 1.052.31.906 1.16-1.02 5.96-1.975 11.93-2.968 17.88-.049.29-.146.56-.249.93-3.25-1.58-6.673-2.76-10.205-3.53-5.441-1.24-11.1-1.21-16.525.1-1.904.48-3.629 1.49-4.974 2.91-.521.51-.939 1.12-1.226 1.79-.288.67-.44 1.39-.445 2.12-.006.73.135 1.45.412 2.13.277.67.683 1.29 1.204 1.8 1.894 1.9 4.096 3.46 6.51 4.63 4.601 2.22 9.077 4.69 13.411 7.38 5.474 3.24 9.44 8.5 11.04 14.63 1.14 4.84.901 9.9-.689 14.62-1.595 4.72-4.47 8.9-8.316 12.09-5.832 4.93-12.993 8.05-20.599 8.97-12.06 1.86-24.392.72-35.904-3.32-1.253-.42-1.573-.92-1.334-2.26 1.058-5.9 2.012-11.81 2.908-17.74.168-1.11.52-.95 1.269-.6 4.969 2.59 10.329 4.36 15.868 5.25 5.008.92 10.151.78 15.098-.4 2.04-.53 3.912-1.57 5.431-3.01.662-.62 1.199-1.35 1.568-2.17.369-.83.57-1.71.591-2.61.016-.9-.146-1.8-.483-2.63-.336-.84-.841-1.6-1.475-2.23-2.414-2.34-5.23-4.24-8.312-5.59-4.237-1.97-8.295-4.3-12.125-6.97-5.24-3.32-8.94-8.58-10.286-14.62-.754-4.09-.477-8.31.798-12.27 1.28-3.96 3.526-7.55 6.542-10.45 5.583-5.41 12.69-9.03 20.383-10.36 2.099-.25 4.177-.63 6.228-1.15l10.541.03Zm-139.447 49.69c1.383 4.42 1.877 9.03 3.005 13.56.554-.39.554-1 .765-1.5 7.351-19.59 14.686-39.19 21.999-58.79.087-.41.326-.78.667-1.02.342-.24.771-.35 1.188-.29 7.417.05 14.833 0 22.265 0h1.47c-1.269 3.11-2.463 6.08-3.672 9-11.008 26.83-22.01 53.66-33.012 80.5-.109.46-.385.85-.776 1.12-.385.26-.857.38-1.329.31-7.367-.06-14.74-.06-22.107 0-.217.04-.44.04-.657-.01-.211-.05-.418-.14-.591-.28-.179-.13-.326-.3-.429-.49-.108-.19-.173-.4-.195-.62-6.857-25.77-13.736-51.53-20.637-77.29 0-.09-.054-.18-.087-.28.385.2.792.36 1.161.56 5.311 3.16 10.221 6.93 14.642 11.23 7.069 6.9 12.625 15.16 16.33 24.29Zm57.945 42.95c-3.466 0-6.928-.06-10.394.03-1.226.02-1.438-.35-1.248-1.45 1.242-7.39 2.436-14.78 3.646-22.18 2.002-12.26 3.998-24.52 6-36.77 1.595-9.78 3.179-19.56 4.752-29.35.147-.89.418-1.28 1.454-1.28 7.075.05 14.154.05 21.229 0 1.047 0 1.264.19 1.085 1.28-3.559 21.56-7.086 43.12-10.574 64.71-1.297 7.96-2.604 15.93-3.846 23.9-.152.94-.521 1.16-1.411 1.15-3.559-.07-7.123-.04-10.693-.04Z"/><path fill="#F8920F" fill-rule="evenodd" d="M299.793 1175.95c-3.702-9.11-9.25-17.35-16.301-24.23-4.419-4.3-9.326-8.07-14.63-11.24-.369-.22-.771-.38-1.161-.55-3.697-2.32-7.616-4.27-11.698-5.83-3.963-1.61-8.024-2.96-12.165-4.04-.462-.12-1.151-.06-.95-.93.162-.7.298-1.18 1.27-1.18 12.718.06 25.426 0 38.145.12 2.454-.17 4.869.64 6.726 2.24 1.856 1.6 3.007 3.86 3.197 6.29 2.459 12.56 4.978 25.11 7.469 37.66.169.55.201 1.13.098 1.69Z"/><path fill="none" stroke="#D9D9D9" stroke-miterlimit="8" stroke-width="2.29167" d="M585 1130.17c0-11.69 9.477-21.17 21.167-21.17h266.666c11.69 0 21.167 9.48 21.167 21.17v84.66c0 11.69-9.477 21.17-21.167 21.17H606.167c-11.69 0-21.167-9.48-21.167-21.17Z"/><path fill="#84B740" fill-rule="evenodd" d="M602 1180h116v39H602Z"/><path fill="#259BD6" fill-rule="evenodd" d="M602 1127h116v39H602Z"/><path fill="#27292D" fill-rule="evenodd" d="M861.755 1205.04c-4.336 0-4.99 2.46-4.99 3.91 0 2.25 1.583 3.57 4.233 3.57 1.101 0 2.546-.24 4.163-.66l1.721-.45.481-.14v-6.23Zm-66.891 0c-4.301 0-4.954 2.46-4.954 3.91 0 2.25 1.582 3.57 4.232 3.57 1.135 0 2.546-.24 4.163-.66l1.721-.45.481-.14-.034-6.23Zm34.34-11.13c-5.643 0-6.262 5.03-6.262 8.8 0 7.35 3.578 8.91 6.606 8.91 1.308 0 1.962-.14 3.751-.49l.516-.1v-16.18l-.447-.14c-2.065-.62-3.166-.73-4.129-.8Zm-83.269-7.1c3.785 0 6.504.69 8.362 2.04l.309.25.344-.18c1.342-.62 4.955-2.08 9.325-2.08 7.983 0 11.837 3.5 11.837 10.75v20.44h-8.981v-19.54c0-3.47-2.168-4.2-3.991-4.2-1.583 0-3.097.32-4.473.94l-.62.28.31.59c.034.13.275.83.275 2v19.93h-9.015v-19.54c0-2.78-1.342-4.2-3.991-4.2-1.067 0-2.168.11-4.026.73l-.447.14v22.83H732v-24.7c0-2.67 1.135-4.09 4.06-4.99 3.406-1.01 6.538-1.49 9.875-1.49Zm117.471-.04c8.258 0 12.456 3.57 12.456 10.57v21.63c-2.718-.52-5.505-1.01-8.189-1.49l-.86-.14-.138-.04-.138.04c-2.546.62-5.505 1.04-7.638 1.04-6.882 0-10.977-3.4-10.977-9.05 0-6.62 4.439-9.7 14.039-9.7h5.265v-1.8c0-4.13-3.785-4.13-5.024-4.13-2.753 0-6.434.63-9.394 1.6l-2.821.93-.964-6.58 2.891-.87c4.439-1.38 8.017-2.01 11.492-2.01Zm-66.821 0c8.258 0 12.456 3.54 12.421 10.61V1219c-2.718-.55-5.471-1.04-8.189-1.52l-.826-.14-.137-.04-.138.04c-2.546.62-5.505 1.04-7.639 1.04-6.916 0-11.01-3.4-11.01-9.05 0-6.62 4.473-9.7 14.073-9.7h5.264v-1.8c0-4.13-3.785-4.13-5.024-4.13-2.752 0-6.434.63-9.393 1.6l-2.822.93-.963-6.58 2.89-.87c4.439-1.38 7.983-2.01 11.493-2.01Zm46.348-13.79v38.99c0 2.73-.998 4.02-3.785 4.92-3.028 1-6.021 1.42-10.081 1.42-9.601 0-15.106-5.69-15.106-15.56 0-7.21 2.374-15.8 13.66-15.8 2.065 0 4.198.62 5.127.9l.241.07.826.24v-13.58l.929-.18c2.718-.45 5.505-.93 8.189-1.42Zm18.03-38.32c-.825.07-2.684 0-4.714.55-.069 0-.137.04-.241.07-.206.07-.412.14-.619.21l-.103.07c-.172.07-.31.1-.447.17l-.585.24.275.56c.034.1.241.8.241 1.91v13.34l.516.1c1.755.35 3.991.48 5.333.48 2.994 0 6.607-1.55 6.641-8.9 0-3.78-.654-8.8-6.262-8.8Zm-82.236-7.28h20.094c-.378 2.53-.585 4.12-.998 6.65h-19.337c-4.336 0-4.989 2.15-4.989 3.89 0 2.56 1.582 4.08 4.232 4.08h8.843c6.882 0 10.976 4.51 10.976 10.16 0 7.86-4.473 11.05-14.073 11.05H770.4l-15.346-.03h-8.362c-8.567 0-14.486-4.82-14.692-14.9v-4.51c.206-10.08 6.125-15.87 14.692-15.87h11.458c-.344 2.43-.585 4.06-.963 6.62h-8.396c-5.058 0-7.432 3.74-7.432 9.77v3.99c0 5.78 3.062 8.28 7.432 8.28h5.162l28.318.07h1.479c4.301 0 4.955-3.02 4.955-4.47 0-2.22-1.583-4.33-4.232-4.33h-8.843c-6.882 0-10.976-3.4-10.976-9.91 0-6.59 4.714-10.54 14.073-10.54Zm81.617-.38h.241c9.359.21 15.38 6.69 15.415 16.56 0 9.98-6.228 16.46-15.828 16.46-2.856 0-7.019-.59-9.256-1.69-1.514.24-3.269.51-4.783.83h-44.215c.379-2.39.723-4.79.998-6.62h14.383c1.135 0 1.858.24 1.961.28l.585.31v-9.64c0-5.75-2.305-9.49-6.675-9.49h-8.327c.344-2.46.619-4.19.963-6.65h8.362c8.567 0 14.486 5.54 14.692 15.62h.034v9.57h16.62l.309-.59c.035-.1.276-.56.276-1.73v-13.76c.034-2.04.619-3.78 1.651-5.16 1.927-2.84 7.329-4.3 12.594-4.3Z"/><path fill="none" stroke="#D9D9D9" stroke-miterlimit="8" stroke-width="2.29167" d="M927 1130.17c0-11.69 9.477-21.17 21.167-21.17h292.663c11.69 0 21.17 9.48 21.17 21.17v84.66c0 11.69-9.48 21.17-21.17 21.17H948.167c-11.69 0-21.167-9.48-21.167-21.17Z"/><path fill="#4F008C" fill-rule="evenodd" d="M971.286 1218.97c8.215.3 16.228-2.59 22.368-8.05 1.992-1.96 3.565-4.3 4.626-6.89 1.062-2.58 1.588-5.35 1.548-8.14.024-2.61-.469-5.19-1.452-7.6-.983-2.41-2.436-4.61-4.274-6.45-4.351-4.1-9.841-6.78-15.747-7.69l-11.05-2.15c-4.474-.9-7.158-3.18-7.158-6.31 0-4.16 4.026-7.02 10.468-7.02 3.596-.14 7.101 1.15 9.753 3.58 1.488 1.62 2.428 3.67 2.684 5.86l15.926-3.58c-.508-4.54-2.599-8.75-5.905-11.9-6.075-5.61-14.101-8.63-22.368-8.41-7.705-.24-15.221 2.41-21.071 7.43-2.133 1.97-3.832 4.36-4.987 7.03-1.156 2.66-1.743 5.54-1.724 8.44-.079 2.43.336 4.85 1.22 7.11.885 2.26 2.22 4.32 3.925 6.04 4.194 3.89 9.381 6.54 14.987 7.65l10.871 2.6c5.458 1.25 7.873 3.26 7.873 6.84 0 4.47-3.981 7.02-10.558 7.02-2.028.1-4.055-.22-5.956-.93-1.9-.72-3.634-1.81-5.093-3.23-1.744-1.75-2.766-4.1-2.864-6.57L941 1197.23c.5 4.8 2.687 9.27 6.173 12.61 3.211 3.02 6.995 5.37 11.129 6.91 4.134 1.54 8.534 2.23 12.939 2.04l.045.18Zm120.744-.18c4.47.12 8.93-.64 13.1-2.24 4.18-1.61 8-4.02 11.24-7.11 4.14-3.94 7.12-8.94 8.63-14.45l-16.78-5.59c-.78 2.85-2.33 5.43-4.47 7.47-3.15 2.97-7.35 4.57-11.68 4.47-2.36.03-4.7-.41-6.88-1.3-2.19-.88-4.18-2.19-5.87-3.84-3.52-4.04-5.36-9.27-5.14-14.63-.24-5.42 1.65-10.72 5.28-14.76 3.38-3.26 7.91-5.06 12.61-5.01 2.1-.06 4.18.3 6.13 1.07 1.94.77 3.71 1.93 5.19 3.4 2.09 2.13 3.63 4.75 4.48 7.61l17.04-5.73c-1.42-5.33-4.18-10.2-8.01-14.18-3.34-3.17-7.28-5.65-11.59-7.29-4.31-1.65-8.9-2.42-13.5-2.28-4.8-.06-9.55.84-14 2.62-4.44 1.79-8.49 4.44-11.91 7.8-6.8 7.3-10.56 16.92-10.51 26.89.05 9.98 3.9 19.56 10.78 26.79 6.93 6.74 16.23 10.5 25.9 10.47l-.04-.18Zm-57.8.18c5.37.21 10.66-1.36 15.03-4.48v-15.29c-2.81 1.92-6.16 2.92-9.57 2.86-1.29.24-2.61.15-3.86-.24s-2.38-1.08-3.3-2.01c-.91-.94-1.59-2.08-1.97-3.33-.37-1.25-.43-2.58-.18-3.86V1127h-18.83v19.37h37.8v18.29h-37.8v32.52c-.26 5.74 1.75 11.35 5.59 15.61 2.31 2.12 5.02 3.76 7.97 4.82 2.95 1.06 6.08 1.52 9.21 1.36"/><path fill="#03BB86" fill-rule="evenodd" d="m1184.28 1169.87.01.05-.01.08Zm24.66-5.62-11.09 1.45c-3.08.38-4.6 1.87-4.6 4.26 0 2.38 2.16 4.25 5.98 4.25l-.18-.08c2.06.04 4.08-.47 5.84-1.47 1.75-.99 3.16-2.43 4.05-4.15Zm-47.59-10.41c-1.98-.03-3.93.54-5.58 1.64-1.65 1.09-2.92 2.66-3.66 4.5V1168.72c.76 1.82 2.04 3.38 3.68 4.48 1.65 1.1 3.58 1.69 5.56 1.7 5.4 0 8.97-4.05 8.97-10.57 0-6.53-3.57-10.49-8.97-10.49Zm1.39-7.83c9.33 0 16.04 7.44 16.04 18.1s-6.49 18.32-16.04 18.32c-2.03.07-4.04-.33-5.89-1.17-1.84-.83-3.47-2.09-4.74-3.66v17.4l-8.11-.17v-47.86h8.11v3.78c1.28-1.55 2.91-2.79 4.76-3.61 1.84-.83 3.85-1.21 5.87-1.13Zm59.97-.01h7.74l7.1 24.52 6.83-24.52h7.62l-12.57 40.47c-1.71 5.58-3.99 8.53-9.5 8.53h-5.82v-7.59h5.43c.84.09 1.68-.18 2.35-.75.67-.57 1.13-1.4 1.28-2.34l.99-3.08Zm-35.35 0h18.41c7.36 0 11.45 3.32 11.45 9.28v24.29h-8.28v-4.25c-1.39 1.7-3.22 3.05-5.31 3.94-2.1.89-4.4 1.29-6.7 1.16-1.59.16-3.21 0-4.74-.46-1.53-.46-2.93-1.21-4.12-2.21-1.2-.99-2.15-2.21-2.8-3.57l-.98-4.26.62-3.72c.46-1.21 1.19-2.33 2.13-3.3 1.9-1.93 4.54-3.1 7.36-3.24l14.54-1.7v-1.71c.07-.4.03-.81-.1-1.2-.14-.4-.37-.75-.67-1.05-.31-.29-.69-.52-1.1-.66-.42-.14-.86-.19-1.3-.15h-18.41Z"/><path fill-rule="evenodd" d="M1346.56 1138.73c-2.6 3.08-6.76 5.5-10.92 5.15-.52-4.15 1.51-8.57 3.9-11.3 2.6-3.16 7.15-5.41 10.84-5.58.43 4.33-1.26 8.57-3.82 11.73m3.78 5.98c-6.03-.35-11.19 3.42-14.05 3.42-2.91 0-7.29-3.25-12.06-3.16-6.2.08-11.97 3.59-15.13 9.17-6.51 11.17-1.69 27.71 4.59 36.8 3.08 4.5 6.77 9.44 11.62 9.27 4.6-.18 6.42-2.99 11.97-2.99 5.6 0 7.2 2.99 12.06 2.9 5.03-.09 8.19-4.5 11.27-9 3.52-5.11 4.95-10.09 5.03-10.35-.08-.09-9.71-3.77-9.8-14.85-.08-9.26 7.59-13.68 7.94-13.94-4.34-6.41-11.1-7.1-13.44-7.27m34.82-12.56v67.49h10.49v-23.07h14.53c13.27 0 22.59-9.09 22.59-22.25s-9.15-22.17-22.24-22.17h-25.37Zm10.49 8.83h12.1c9.11 0 14.31 4.85 14.31 13.38 0 8.53-5.2 13.42-14.35 13.42h-12.06v-26.8Zm56.29 59.18c6.59 0 12.7-3.33 15.48-8.61h.22v8.09h9.71v-33.59c0-9.74-7.81-16.02-19.82-16.02-11.14 0-19.38 6.37-19.68 15.11h9.45c.78-4.16 4.64-6.88 9.93-6.88 6.42 0 10.02 2.98 10.02 8.48v3.73l-13.1.77c-12.18.74-18.78 5.72-18.78 14.38 0 8.74 6.81 14.54 16.57 14.54Zm2.82-8.01c-5.6 0-9.15-2.68-9.15-6.79 0-4.24 3.42-6.71 9.97-7.1l11.67-.74v3.81c0 6.32-5.38 10.82-12.49 10.82Zm35.56 25.85c10.23 0 15.04-3.9 19.25-15.72l18.43-51.6h-10.67l-12.36 39.87h-.21l-12.36-39.87h-10.97l17.78 49.14-.96 2.98c-1.6 5.07-4.2 7.02-8.84 7.02-.83 0-2.43-.09-3.08-.18v8.1c.6.17 3.21.26 3.99.26Z"/><path fill="none" stroke="#D9D9D9" stroke-miterlimit="8" stroke-width="2.29167" d="M1295 1130.17c0-11.69 9.48-21.17 21.17-21.17h199.66c11.69 0 21.17 9.48 21.17 21.17v84.66c0 11.69-9.48 21.17-21.17 21.17h-199.66c-11.69 0-21.17-9.48-21.17-21.17Z"/><path fill="#510B76" fill-rule="evenodd" d="M1830.6 1198.02c-8.4 5.02-19.79 4.03-25.82-2.31-3.62 1.73-6.92 4.08-10.57 4.84-3.65.77-7.64-.05-11.75-.19-.19 2.79-.48 6.08-.64 9.37-.22 4.61-2.78 7.18-7.34 7.21-2.12.02-4.23.01-6.82.01 1.62-23.8 3.21-47.23 4.82-70.93 2.71 0 5.22-.18 7.69.05 3.58.33 5.7 2.75 5.51 6.4-.34 6.54-1.05 13.07-1.3 19.61-.12 3.08-.05 6.34.84 9.25 1.75 5.73 8.07 8.58 13.71 6.57.75-.27 1.74-1.26 1.76-1.95.2-6.07.04-12.16.33-18.23.33-6.73 1.01-13.44 1.54-20.15.04-.45.12-.88.21-1.53 2.6 0 5.12-.2 7.58.05 3.72.38 5.81 3.27 5.51 7.03-.56 6.99-1.26 13.98-1.49 20.99-.09 3.11.38 6.22 1.41 9.16 1.43 4.04 5.45 5.76 9.17 4.84.94-13.96 1.86-27.84 2.8-41.85.66-.13 1.33-.21 1.99-.25 7.72.13 15.48-.21 23.14.55 7.72.77 12.59 7.95 11.91 15.73-.61 7.09-1.07 14.18-1.36 21.29-.37 9.21-7.06 16.29-16.3 16.82-2.6.14-5.26.32-7.81-.05-2.76-.4-5.43-1.42-8.72-2.33Zm9.73-38.3c-.5 6.78-.98 13.2-1.43 19.62-.56 7.88-.56 7.82 7.37 7.69 2.48-.04 3.6-1.17 3.77-3.46.16-2.2.26-4.41.39-6.62.27-4.79.55-9.58.83-14.37.12-1.96-.74-2.92-2.78-2.88-2.59.05-5.18.02-8.15.02Zm-72.66-13.75c-.21 3.72-.35 7.12-.6 10.52-.69 9.59-1.33 19.2-2.19 28.78-.71 7.95-8.05 14.45-16.13 14.57-2.62.04-5.24.04-7.86 0-7.76-.13-14.28-6.39-14.03-14.02.28-8.6.84-17.2 1.71-25.76.74-7.39 8.03-13.44 16.2-14.07.84-.07 1.69-.02 2.53-.02h20.37Zm-14.38 13.75c-3.11 0-5.62.05-8.13-.02-2.39-.06-3.26 1.06-3.4 3.36-.38 6.54-.9 13.07-1.44 19.6-.16 1.91.13 3.31 2.33 3.66 5.02.79 8.29.06 8.83-2 .04-.27.07-.55.06-.83l1.11-15.75c.19-2.54.4-5.09.64-8.02Z"/><path fill="#FC6719" fill-rule="evenodd" d="M1861.85 1204.28c-.16 2.7-.17 5.45-.52 8.16-.39 2.98-3.02 5.47-5.92 5.48-12.54.07-25.08 0-37.62-.02-.16 0-.33-.14-.94-.39.26-2.84.32-5.86.83-8.8.45-2.61 3.06-4.7 5.98-4.72 12.54-.08 25.09-.01 37.63.02.17 0 .33.15.56.27Z"/><path fill="#510B76" fill-rule="evenodd" d="M1804.26 1131.13c-.16 2.5-.38 4.9-.48 7.31-.14 3.66-.31 3.83-4.26 3.08.17-2.52.3-5.09.54-7.64.26-2.65-.68-3.61-3.35-2.69-.21 2.82-.53 5.68-.58 8.55-.04 1.91-.92 2.18-2.42 2.21-1.74.04-1.95-.95-1.83-2.39.26-3.18.64-6.35.71-9.53.05-2.19 1.17-2.81 2.86-2.99.73-.08 1.46-.08 2.19-.09 3.15 0 6.29-.01 9.44.01 3.87.02 5.16 1.7 4.68 5.86-.21 1.82-.25 3.67-.32 5.5-.13 3.71-.25 3.82-4.32 3.31.19-2.53.36-5.09.57-7.64.21-2.54-.65-3.7-3.43-2.86Z"/><path fill="#FC6719" fill-rule="evenodd" d="M1773.54 1127.95c3.39 0 6.62 0 9.84.01.27-.01.54.05.78.18 3.56 2.2 2.6 5.8 2.54 9.07-.04 2.47-1.51 4.1-3.71 4.5-1.96.33-3.96.32-5.92-.02-2.38-.39-4.29-3.28-4.21-6.13.07-2.42.42-4.82.68-7.61Z"/><path fill="#510B76" fill-rule="evenodd" d="M1798.67 1203.57c-.18 3.19-.22 5.96-.51 8.7-.45 4.12-3.97 6.2-9.14 5.57-3.33-.41-5.14-3.07-4.81-6.93.47-5.48 3.02-7.8 8.36-7.36 1.96.16 3.94.02 6.1.02Zm15.57.01c-.19 3.23-.16 6.19-.59 9.08-.58 3.91-4.27 5.86-9.21 5.15-3.28-.48-5-3.2-4.65-7.04.5-5.56 3.25-7.65 8.48-7.22 1.94.16 3.93.03 5.97.03Zm-64.42-76.09c-.26 3.56-.28 6.65-.74 9.68-.54 3.57-4.25 5.35-9 4.6-3.08-.48-4.49-2.64-4.19-6.38.53-6.58 1.92-7.9 8.31-7.9h5.62Zm16.1 0c-.28 3.6-.27 6.78-.82 9.87-.62 3.48-4.34 5.11-9.23 4.43-3.13-.44-4.51-2.32-4.44-6.06.1-6.5 1.92-8.24 8.57-8.24h5.92Zm74.08 8h-9.24c2.24 3.58 5.31 1.35 7.6 2.53.97 1.46.55 2.73-2.11 3.17-1.2.18-2.4.24-3.61.2-4.34-.06-5.66-1.47-5.51-5.77.02-.47.09-.93.11-1.4.31-6.02 2.23-7.69 8.28-7.18 3.23.27 4.43 1.55 4.48 4.79.01 1.02 0 2.03 0 3.66Zm-4.54-2.6c.36-.08.69-.52.59-.77-.2-.47-1.32-1.28-1.95-1.25-.89.03-2.37.61-2.64 1.1-.08.33-.04.88.33.92Zm-9.95 2.61h-9.24c2.24 3.58 5.31 1.34 7.59 2.53.98 1.46.16 3.03-2.11 3.17-1.2.08-2.41.22-3.6.2-4.34-.06-5.66-1.47-5.51-5.78.02-.46.08-.93.11-1.39.31-6.03 2.22-7.7 8.27-7.19 3.23.27 4.44 1.55 4.49 4.79.01 1.02 0 2.04 0 3.67Zm-4.55-2.61c.36-.07.7-.52.6-.77-.2-.47-1.32-1.28-1.95-1.25-.9.03-2.37.62-2.65 1.11-.08.33-.03.87.33.91Zm35.08-2.46c-.88-2.24.04-3.05 1.85-3.27.28-.04.55-.07.83-.09 7.19-.62 8.84 1.12 7.89 8.25-.23 1.74-.36 3.5-.59 5.73-2.83.13-5.67.42-8.5.34-2.38-.06-3.71-1.37-3.54-3.99.17-2.43.91-4.2 3.7-4.27.84.03 1.67-.02 2.5-.17.77-.2 1.6-.16 2.34-.5.35-2.14-1.13-1.6-2.26-1.61-1.45-.02-2.9-.31-4.22-.42Zm5.85 5.6s-3.62-.15-3.67.66c.11.92.93 1.57 1.84 1.46.02 0 .04 0 .06-.01 1.76-.2 2.52-.05 1.77-2.12Zm-20.28-9.08h11.27v3.75h-11.27Zm-.54 10.71h11.28v3.75h-11.28Z"/><path fill="#510B76" fill-rule="evenodd" d="m1840.85 1137.41 9.39-9.46 2.61 2.54-9.38 9.46Z"/><path fill="#002C8A" fill-rule="evenodd" d="m1655.86 1154.73-48.99 53.22h-17.99c-1.25 0-2.24-1.24-1.99-2.49l11.99-75.53c.24-1.74 1.74-2.98 3.49-2.98h30.45c20.96.74 26.71 11.43 22.97 27.83Z"/><path fill="#009BE1" fill-rule="evenodd" d="M1657.02 1149.95c7.52 3.99 9.27 11.46 6.76 21.43-3.25 14.69-13.03 20.91-27.31 21.16l-4.01.25c-1.51 0-2.51 1-2.75 2.49l-3.26 19.68c-.26 1.75-1.77 2.99-3.51 2.99h-15.05c-1.24 0-2.25-1.24-2-2.49l5.52-35.62c.25-1.24 45.61-29.89 45.61-29.89Z"/><path fill="#001F6B" fill-rule="evenodd" d="m1610.85 1180.95 5.04-31.29c.33-1.52 1.67-2.63 3.26-2.71h24.14c5.77 0 10.05.98 13.56 2.71-1.25 10.84-6.53 28.34-32.17 28.83h-11.06c-1.26 0-2.51.98-2.77 2.46Z"/><path fill="none" stroke="#D9D9D9" stroke-miterlimit="8" stroke-width="2.29167" d="M1571 1127.83c0-9.85 7.98-17.83 17.83-17.83h71.34c9.85 0 17.83 7.98 17.83 17.83v91.34c0 9.85-7.98 17.83-17.83 17.83h-71.34c-9.85 0-17.83-7.98-17.83-17.83ZM1711 1133.17c0-11.69 9.48-21.17 21.17-21.17h126.66c11.69 0 21.17 9.48 21.17 21.17v84.66c0 11.69-9.48 21.17-21.17 21.17h-126.66c-11.69 0-21.17-9.48-21.17-21.17Z"/></g></svg>