<svg xmlns="http://www.w3.org/2000/svg" viewBox="0 0 1455 175">
  <defs>
    <clipPath>
      <path d="M2288 764h1455v175H2288z"/>
    </clipPath>
  </defs>
  <g transform="translate(-2288 -764)">
    <path d="M2388 786h75v133h-75Z" fill="#F36B2B"/>
    <path d="M2392.77 852.021c0-26.085 11.92-50.811 32.23-66.842-36.83-29.074-89.91-22.553-118.88 14.401-28.98 36.953-22.48 90.21 14.35 119.283 30.6 24.183 73.93 24.183 104.53 0-20.31-16.031-32.23-40.757-32.23-66.842" fill="#EE252F"/>
    <path d="M2562 851.987c0 46.988-37.91 85.013-84.75 85.013-18.95 0-37.36-6.518-52.25-18.198 36.82-29.061 43.05-82.297 14.08-119.235-4.06-5.433-8.94-10.05-14.08-14.396 36.82-29.062 89.89-22.543 118.86 14.396 11.64 14.938 18.14 33.407 18.14 52.42" fill="#F99E30"/>
    <path d="M3674.27 900.537c-15.64 9.415-36.85 7.56-48.08-4.322-6.73 3.245-12.89 7.647-19.67 9.073-6.8 1.431-14.23-.106-21.89-.357-.36 5.214-.9 11.376-1.19 17.55-.41 8.629-5.17 13.441-13.67 13.509-3.94.032-7.88.005-12.7.005 3.01-44.577 5.98-88.471 8.98-132.857 5.05 0 9.72-.348 14.31.083 6.68.627 10.62 5.154 10.26 11.994-.63 12.257-1.95 24.482-2.41 36.742-.22 5.766-.09 11.869 1.56 17.313 3.25 10.745 15.02 16.081 25.54 12.314 1.39-.501 3.23-2.368 3.27-3.655.38-11.375.08-22.777.62-34.14.6-12.604 1.87-25.178 2.86-37.76.07-.826.22-1.645.39-2.854 4.84 0 9.53-.384 14.12.09 6.93.715 10.81 6.129 10.25 13.17-1.04 13.098-2.34 26.192-2.76 39.312-.18 5.836.71 11.656 2.62 17.174 2.66 7.552 10.15 10.79 17.07 9.06 1.75-26.146 3.48-52.146 5.23-78.397 1.22-.239 2.46-.393 3.7-.463 14.37.231 28.83-.396 43.08 1.026 14.39 1.436 23.45 14.899 22.19 29.473-1.14 13.268-1.99 26.561-2.54 39.88-.68 17.247-13.15 30.509-30.35 31.494-4.84.276-9.79.604-14.54-.087-5.14-.753-10.11-2.663-16.25-4.37Zm18.13-71.748c-.93 12.703-1.82 24.733-2.67 36.766-1.04 14.754-1.03 14.643 13.73 14.398 4.61-.077 6.7-2.186 7.02-6.472.3-4.133.48-8.275.72-12.413.51-8.97 1.03-17.939 1.55-26.908.22-3.675-1.38-5.47-5.17-5.395-4.83.096-9.66.024-15.18.024ZM3557.08 803.034c-.39 6.98-.65 13.35-1.11 19.706-1.29 17.98-2.47 35.971-4.07 53.924-1.33 14.889-15 27.064-30.04 27.288-4.88.073-9.76.071-14.65-.004-14.44-.236-26.58-11.958-26.12-26.264.52-16.105 1.57-32.223 3.18-48.256 1.39-13.831 14.96-25.167 30.18-26.358 1.56-.122 3.14-.034 4.71-.034 12.36-.002 24.72-.002 37.92-.002Zm-26.78 25.762c-5.78 0-10.46.098-15.14-.029-4.44-.12-6.07 1.984-6.32 6.28-.71 12.254-1.67 24.495-2.69 36.729-.3 3.567.24 6.196 4.34 6.845 9.36 1.479 15.44.121 16.45-3.743.08-.514.12-1.033.11-1.553l2.07-29.499c.35-4.77.75-9.536 1.18-15.03Z" fill="#510B76"/>
    <path d="M3733.06 911.596c-.3 5.02-.33 10.132-.98 15.157-.73 5.534-5.64 10.165-11.04 10.191-23.41.116-46.82 0-70.23-.051-.31 0-.62-.247-1.75-.727.47-5.27.59-10.875 1.54-16.332.85-4.847 5.71-8.731 11.17-8.767 23.41-.157 46.83-.02 70.24.032.31.002.61.284 1.05.497Z" fill="#FC6719"/>
    <path d="M3625.03 774.54c-.31 4.496-.72 8.822-.89 13.157-.26 6.577-.58 6.886-7.89 5.534.32-4.531.56-9.154 1.01-13.752.47-4.77-1.26-6.494-6.21-4.829-.38 5.06-.97 10.215-1.07 15.384-.07 3.432-1.7 3.914-4.47 3.973-3.23.067-3.61-1.705-3.39-4.306.49-5.712 1.19-11.422 1.32-17.144.08-3.951 2.16-5.064 5.29-5.393 1.34-.139 2.7-.142 4.05-.145 5.82-.011 11.63-.018 17.45.009 7.16.034 9.55 3.056 8.66 10.55-.39 3.276-.45 6.598-.58 9.903-.24 6.669-.46 6.876-7.99 5.956.34-4.556.65-9.163 1.05-13.761.39-4.558-1.2-6.659-6.34-5.136Z" fill="#510B76"/>
    <path d="M3567.38 768.01c6.55 0 12.77-.008 18.98.015.52-.019 1.04.096 1.51.333 6.85 4.08 5 10.767 4.89 16.843-.08 4.592-2.9 7.611-7.15 8.364-3.78.606-7.63.592-11.41-.041-4.59-.719-8.28-6.089-8.12-11.392.13-4.48.8-8.947 1.3-14.122Z" fill="#FC6719"/>
    <path d="M3615.07 910.14c-.34 5.954-.41 11.124-.96 16.244-.83 7.69-7.39 11.586-17.01 10.401-6.21-.764-9.58-5.729-8.96-12.944.88-10.235 5.63-14.567 15.57-13.75 3.64.3 7.33.049 11.36.049ZM3644.07 910.145c-.36 6.047-.3 11.568-1.1 16.965-1.08 7.312-7.95 10.94-17.15 9.615-6.12-.882-9.32-5.969-8.67-13.144.94-10.385 6.05-14.296 15.79-13.483 3.63.302 7.32.047 11.13.047ZM3524.08 768.01c-.47 6.66-.52 12.435-1.37 18.084-1 6.674-7.91 9.993-16.76 8.603-5.73-.899-8.36-4.934-7.8-11.934.99-12.285 3.57-14.745 15.48-14.752 3.2-.003 6.4-.001 10.45-.001ZM3554.08 768.01c-.52 6.722-.51 12.669-1.53 18.438-1.16 6.512-8.09 9.554-17.19 8.274-5.84-.821-8.4-4.325-8.28-11.323.2-12.127 3.58-15.381 15.97-15.389 3.34-.002 6.69 0 11.03 0ZM3692.05 782.964h-17.21c4.17 6.688 9.88 2.509 14.14 4.72 1.82 2.737 1.04 5.097-3.93 5.929-2.23.325-4.47.451-6.72.375-8.07-.112-10.53-2.749-10.25-10.795.03-.869.16-1.733.2-2.601.57-11.258 4.15-14.373 15.42-13.422 6.01.508 8.25 2.906 8.34 8.952.03 1.898.01 3.798.01 6.842Zm-8.46-4.869c.67-.137 1.29-.965 1.1-1.431-.37-.88-2.46-2.389-3.64-2.342-1.66.066-4.4 1.151-4.91 2.066-.15.617-.07 1.632.61 1.707ZM3665.05 782.975h-17.21c4.17 6.693 9.89 2.511 14.14 4.723 1.82 2.739.31 5.671-3.93 5.934-2.24.139-4.48.405-6.71.375-8.07-.112-10.54-2.751-10.26-10.803.04-.869.16-1.734.21-2.603.57-11.265 4.14-14.383 15.41-13.431 6.01.508 8.26 2.908 8.35 8.958.03 1.9 0 3.801 0 6.847Zm-8.46-4.872c.67-.137 1.29-.966 1.11-1.433-.38-.88-2.46-2.39-3.64-2.343-1.67.066-4.41 1.152-4.92 2.067-.15.618-.07 1.633.61 1.709ZM3721.92 773.501c-1.65-4.182.08-5.685 3.44-6.103.52-.067 1.03-.125 1.55-.17 13.38-1.164 16.46 2.087 14.69 15.405-.43 3.261-.67 6.547-1.09 10.716-5.28.242-10.57.773-15.83.639-4.44-.113-6.92-2.571-6.6-7.463.31-4.534 1.7-7.836 6.9-7.97 1.56.06 3.11-.05 4.65-.326 1.44-.363 2.98-.287 4.35-.939.66-3.991-2.1-2.988-4.2-3.003-2.7-.025-5.4-.566-7.86-.786Zm10.89 10.458s-6.74-.267-6.83 1.246c.2 1.707 1.73 2.927 3.43 2.725.04-.004.07-.009.11-.014 3.27-.385 4.68-.094 3.29-3.958ZM3695.04 767.014h21v7h-21ZM3694.04 787.016h21v7h-21Z" fill="#510B76"/>
    <path d="m3693.88 787.119 17.32-17.665 4.83 4.734-17.32 17.665Z" fill="#510B76"/>
    <path d="M3158.55 936.331c-12.59 0-25.19-.051-37.79.05-2.11 0-2.9-.542-3.29-2.64-1.26-6.858-2.84-13.656-4.1-20.473-.31-1.628-.79-2.222-2.55-2.211-17.36.068-34.73.068-52.09 0-1.71 0-2.26.675-2.77 2.108-2.49 7.084-5.13 14.137-7.65 21.19-.39 1.074-.62 2.047-2.28 2.047-14.49-.081-28.96-.051-43.45-.071-.25-.065-.5-.16-.73-.286.66-1.628 1.31-3.267 1.99-4.895 20.78-49.373 41.53-98.757 62.27-148.152 1.53-4.587 4.53-8.545 8.53-11.259 4.01-2.715 8.8-4.036 13.64-3.758 10.89 0 21.77 0 32.66-.082 1.95 0 2.59.614 2.97 2.416 5.22 25.25 10.48 50.459 15.78 75.628 6.16 29.406 12.32 58.815 18.47 88.227 0 .215.31.38.48.565l-.09 1.596Zm-65.98-122.757-23.23 63.088h34.67c1.76 0 1.51-.706 1.25-1.934-2.36-11.199-4.65-22.398-6.96-33.607-1.87-8.967-3.78-17.975-5.73-27.547Zm-111.66-48.736c4.29.717 8.59 1.362 12.86 2.16 5.29 1.003 10.49 2.444 15.54 4.309 1.03.379 1.94.574 1.67 2.15-1.88 11.025-3.64 22.07-5.47 33.095-.09.522-.27 1.024-.46 1.71-5.99-2.912-12.3-5.101-18.81-6.521-10.03-2.303-20.46-2.243-30.46.174-3.51.883-6.69 2.752-9.17 5.385-.96.944-1.73 2.07-2.26 3.313-.53 1.243-.81 2.578-.82 3.928-.01 1.35.25 2.688.76 3.939.51 1.25 1.26 2.386 2.22 3.345 3.49 3.5 7.55 6.393 12 8.557 8.48 4.119 16.73 8.681 24.72 13.666 10.09 6.004 17.4 15.732 20.35 27.076 2.1 8.967 1.66 18.339-1.27 27.07-2.94 8.732-8.24 16.478-15.33 22.372-10.75 9.131-23.95 14.909-37.97 16.614-22.23 3.444-44.96 1.334-66.18-6.142-2.31-.788-2.9-1.708-2.46-4.187 1.95-10.922 3.71-21.874 5.36-32.848.31-2.048.96-1.761 2.34-1.106 9.16 4.793 19.04 8.077 29.25 9.725 9.23 1.688 18.71 1.434 27.83-.747 3.76-.978 7.21-2.899 10.01-5.579 1.22-1.132 2.21-2.498 2.89-4.018.68-1.519 1.05-3.16 1.09-4.825.03-1.665-.27-3.32-.89-4.866-.62-1.547-1.55-2.952-2.72-4.133-4.45-4.333-9.64-7.835-15.32-10.339-7.81-3.641-15.29-7.957-22.35-12.899-9.66-6.159-16.48-15.893-18.96-27.065-1.39-7.578-.88-15.383 1.47-22.719 2.36-7.336 6.5-13.978 12.06-19.333 10.29-10.029 23.39-16.716 37.57-19.183 3.87-.458 7.7-1.169 11.48-2.129l19.43.051Zm-257.04 91.976c2.55 8.188 3.46 16.726 5.54 25.1 1.02-.717 1.02-1.843 1.41-2.774 13.55-36.265 27.07-72.54 40.55-108.825.16-.761.6-1.434 1.23-1.884.63-.45 1.42-.644 2.19-.542 13.67.092 27.34 0 41.04 0h2.71c-2.34 5.763-4.54 11.26-6.77 16.665-20.29 49.667-40.57 99.338-60.85 149.013-.2.842-.71 1.579-1.43 2.069-.71.489-1.58.698-2.45.583-13.58-.124-27.17-.124-40.75 0-.4.075-.81.067-1.21-.026-.39-.092-.77-.266-1.09-.511-.33-.245-.6-.555-.79-.911-.2-.356-.32-.748-.36-1.153-12.64-47.702-25.32-95.391-38.04-143.066 0-.174-.1-.338-.16-.512.71.359 1.46.656 2.14 1.025 9.79 5.853 18.84 12.834 26.99 20.8 13.03 12.757 23.27 28.059 30.1 44.949Zm106.81 79.506c-6.39 0-12.77-.101-19.16.052-2.26.051-2.65-.645-2.3-2.683 2.29-13.676 4.49-27.361 6.72-41.047 3.69-22.692 7.37-45.383 11.06-68.074 2.94-18.098 5.86-36.203 8.76-54.314.27-1.649.77-2.386 2.68-2.376 13.04.096 26.09.096 39.13 0 1.93 0 2.33.349 2 2.376-6.56 39.895-13.06 79.817-19.49 119.767-2.39 14.75-4.8 29.491-7.09 44.252-.28 1.74-.96 2.14-2.6 2.12-6.56-.124-13.13-.073-19.71-.073Z" fill="#1A1F71"/>
    <path d="M2723.53 856.787c-6.82-16.885-17.04-32.18-30.03-44.93-8.14-7.977-17.18-14.968-26.95-20.831-.68-.41-1.42-.718-2.14-1.025-6.81-4.31-14.03-7.929-21.55-10.804-7.3-2.989-14.78-5.493-22.41-7.494-.85-.225-2.12-.123-1.75-1.733.3-1.301.55-2.193 2.34-2.183 23.43.113 46.84 0 70.27.215 4.52-.3 8.97 1.194 12.39 4.157 3.42 2.962 5.54 7.156 5.89 11.671 4.53 23.28 9.17 46.55 13.76 69.821.31 1.015.37 2.091.18 3.136Z" fill="#F8920F"/>
    <path d="m3374.8 818.569-90.28 99.216h-33.14c-2.3 0-4.13-2.309-3.67-4.636l22.09-140.804c.45-3.251 3.21-5.56 6.43-5.56h56.12c38.63 1.386 49.21 21.3 42.32 51.873Z" fill="#002C8A"/>
    <path d="M3377.16 809.785c13.89 7.383 17.12 21.225 12.49 39.699-6 27.223-24.07 38.758-50.46 39.22l-7.4.461c-2.79 0-4.64 1.846-5.09 4.614l-6.02 36.469c-.47 3.23-3.26 5.537-6.49 5.537h-27.79c-2.3 0-4.16-2.307-3.7-4.614l10.19-65.999c.46-2.307 84.27-55.387 84.27-55.387Z" fill="#009BE1"/>
    <path d="m3291.63 867.785 9.3-58.898c.62-2.862 3.1-4.96 6.04-5.102h44.59c10.68 0 18.58 1.849 25.07 5.102-2.32 20.409-12.07 53.333-59.44 54.258h-20.44c-2.33 0-4.65 1.849-5.12 4.64Z" fill="#001F6B"/>
  </g>
</svg>
