<svg xmlns="http://www.w3.org/2000/svg" xml:space="preserve" overflow="hidden" viewBox="0 0 2855 225"><g fill-rule="evenodd"><path fill="#F36B2B" d="M129 28h96v171h-96Z"/><path fill="#EE252F" d="M135 112c0-33 15-65 41-86C129-11 60-3 23 45S-5 161 42 199c39 31 95 31 134 0-26-21-41-53-41-87"/><path fill="#F99E30" d="M352 113a109 109 0 0 1-176 86 110 110 0 0 0 0-173 108 108 0 0 1 176 87"/><path fill="#1A1F71" d="M1120 221h-49c-2 0-4 0-5-3l-5-27c0-1 0-2-3-2l-70 2-11 27c0 2 0 3-2 3h-57l3-6 79-191c5-12 16-20 29-19h42c3 0 4 1 4 2l44 211 1 2v1Zm-85-157-31 81h45c3 0 3-1 2-3l-9-43-7-35ZM891 1l17 2 19 6 3 2-7 44-1 1c-8-4-15-6-24-8-13-3-26-3-39 0-5 2-9 4-11 7-5 3-6 9-4 14l4 5c3 4 9 8 15 11l31 18c24 14 34 43 24 69-4 12-10 22-19 30a97 97 0 0 1-49 20c-28 5-58 3-85-7-2-2-4-3-4-6l11-43c11 6 24 10 37 13 13 1 24 1 36-2 5-1 9-4 13-8a15 15 0 0 0 1-23l-20-13-29-16c-13-8-22-21-24-35-4-20 2-40 17-54 14-13 30-22 48-25l15-2h25ZM561 119l6 32 3-3L626 5h57l-9 22-81 194h-3l-56-1v-2L485 34v-1l3 1c33 20 59 49 73 85Zm137 102h-24c-4 0-4 0-4-3l9-52 14-88 14-73 54 2-25 155-9 56c0 3-2 3-4 3h-25Z"/><path fill="#F8920F" d="M561 119c-14-36-40-65-74-85l-3-1-28-14-29-9c0-1-3 0-2-2 0-2 0-3 3-3h90c12-1 23 7 25 19v1l17 90 1 4Z"/><path fill="#002C8A" d="m1398 70-116 128h-44c-2 0-5-4-4-7l29-182c0-4 4-6 8-6h72c50 1 65 27 55 67Z"/><path fill="#009BE1" d="M1400 59c18 9 22 27 17 50-8 36-31 50-66 51h-9c-3 0-6 3-6 7l-8 46c-1 4-5 8-9 8h-36c-2 0-5-4-4-7l13-84c0-3 108-71 108-71Z"/><path fill="#001F6B" d="m1291 133 12-75c1-4 4-6 7-6h59c13 0 23 2 32 6-4 26-15 67-78 68h-25c-4 0-7 3-7 7Z"/><path fill="#26292C" d="m2854 47-1 6c-4 17-18 27-36 27l-21-3h-8l-10 1h-99l3-16h39c0 2 0 0 0 0l-1-29-1-5c-3-7-8-9-14-9h-20l3-15 1-1h27c13 3 23 13 26 27v17l1 15h36c3 0 4-1 4-2V26c0-11 5-18 16-22l14-2h10c16 2 26 11 30 26l1 7v12Zm-50-25v8l2 31 12 1c8 0 13-3 14-11 3-7 3-14 0-21 0-4-2-8-6-9-8-2-16-1-22 1ZM2671 3l-2 16h-49c-7 1-9 3-9 10 0 5 4 8 9 9h29c12 2 20 12 20 23l-2 9c-2 10-9 14-18 16l-14 1h-90c-19 0-31-12-32-31-1-9-1-18 1-27 4-16 16-25 32-25h29l-3 16h-22c-6 0-10 2-13 9l-2 10 1 20c0 7 5 12 13 12h90c5-1 9-5 8-10 0-6-4-10-11-10h-25c-9 0-17-7-20-16s0-20 7-25c6-4 13-7 20-7h53Z"/><path fill="#008BCF" d="M2480 2h-275v91h275V2Z"/><path fill="#80AA2C" d="M2480 127h-275v91h275v-91Z"/><path fill="#26292C" d="m2854 219-19-4-7 1c-7 2-16 3-24 0-10-2-16-10-16-19-1-10 4-18 15-21 6-2 11-2 18-2h12c3-9-1-14-10-14-9-2-18 1-27 4l-2 1-3-16c14-3 28-9 44-5 11 2 18 9 19 20v55Zm-28-34-12 2c-4 1-5 5-5 9s3 6 6 7l12-1c8-1 8-1 8-8l-2-7-7-2Zm-209 31h-20v-2l-2-47c0-3-2-6-6-6-5-1-9 0-14 3l1 16v36h-22v-43c0-11-4-13-14-12-6 1-6 1-6 8v47h-21v-55c0-9 1-13 10-15 11-3 22-4 32-2l10 3h3c11-4 21-5 33-3 10 3 15 9 16 20v52Zm138-70v-30l1-3 20-2v90c0 8-2 10-9 13-11 4-22 4-33 2-15-2-25-14-27-29l2-21c3-14 14-22 28-23l14 3h4Zm0 34v-10c0-9 0-9-10-10-8-2-13 2-16 10v21c3 7 8 11 16 10h6c3 0 4-1 4-4v-17Zm-80-6c0-12-2-16-13-14-9 0-16 1-25 4l-3 1-1-14v-2c13-5 28-7 42-6 14 3 21 10 21 24v52l-8-1c-8-3-17-3-26-2-6 2-13 2-19-1-9-3-13-9-14-18 0-10 4-17 13-21 6-2 11-2 18-2h15Zm0 13h-17c-5 0-9 4-9 9 2 5 4 7 9 7l16-2 1-1v-13Z"/><path fill="#3B3E40" d="m1972 220-3-1v-19h6a20 20 0 0 0 22-14 22 22 0 0 0 0-17l-39-107-1-3h25l2 2 14 46 14 45 1 3 1-3a129214 129214 0 0 0 31-93h23v2l-45 125c-3 7-6 14-11 21a35 35 0 0 1-25 12l-3 1h-12ZM1676 62a39 39 0 0 0 5 69l-4 10c-4 10-10 19-18 27a23 23 0 0 1-29 6c-8-4-17-5-25-3l-11 4a21 21 0 0 1-24-4c-9-10-17-21-22-34-7-14-10-29-9-45a48 48 0 0 1 22-40 37 37 0 0 1 34-4l10 4h12l17-6a40 40 0 0 1 42 16Zm77 59v55h-25V15h63a49 49 0 0 1 38 18c8 10 13 23 12 37a51 51 0 0 1-52 51h-36Zm0-21h33c7 0 13-2 18-6a30 30 0 0 0 11-25 29 29 0 0 0-28-33h-33l-1 1v63Zm122-6h-22a33 33 0 0 1 11-24 63 63 0 0 1 60-8 35 35 0 0 1 23 35v79h-23v-19l-11 11a46 46 0 0 1-54 0 32 32 0 0 1 6-53c8-4 18-6 28-7l28-1 2-2-1-12a17 17 0 0 0-12-14c-6-2-13-2-19 0a20 20 0 0 0-16 15Zm48 29-28 2-14 3a13 13 0 0 0-9 14 14 14 0 0 0 9 14 32 32 0 0 0 32-4 28 28 0 0 0 10-29Zm-313-80c-3-17 16-39 35-40 3 18-14 42-35 40Z"/></g></svg>
