<svg xmlns="http://www.w3.org/2000/svg" viewBox="0 0 1222 176">
  <defs>
    <clipPath>
      <path d="M2288 1149h1222v176H2288z"/>
    </clipPath>
  </defs>
  <g transform="translate(-2288 -1149)">
    <path d="M2388 1171h75v134h-75Z" fill="#F36B2B"/>
    <path d="M2392.77 1237.52c0-25.93 11.92-50.51 32.23-66.45-36.83-28.9-89.91-22.42-118.88 14.32-28.98 36.73-22.48 89.68 14.35 118.58 30.6 24.04 73.93 24.04 104.53 0-20.31-15.94-32.23-40.52-32.23-66.45" fill="#EE252F"/>
    <path d="M2562 1237.99c0 46.99-37.91 85.01-84.75 85.01-18.95 0-37.36-6.52-52.25-18.2 36.82-29.06 43.05-82.29 14.08-119.23-4.06-5.44-8.94-10.05-14.08-14.4 36.82-29.06 89.89-22.54 118.86 14.4 11.64 14.93 18.14 33.4 18.14 52.42" fill="#F99E30"/>
    <path d="M3441.27 1285.54c-15.64 9.41-36.85 7.56-48.08-4.32-6.73 3.24-12.89 7.64-19.67 9.07-6.8 1.43-14.23-.11-21.89-.36-.36 5.22-.9 11.38-1.19 17.55-.41 8.63-5.17 13.44-13.67 13.51-3.94.03-7.88.01-12.7.01 3.01-44.58 5.98-88.48 8.98-132.86 5.05 0 9.72-.35 14.31.08 6.68.63 10.62 5.16 10.26 12-.63 12.25-1.95 24.48-2.41 36.74-.23 5.76-.09 11.87 1.56 17.31 3.25 10.75 15.02 16.08 25.54 12.31 1.39-.5 3.23-2.36 3.27-3.65.38-11.38.08-22.78.62-34.14.6-12.61 1.87-25.18 2.86-37.76.06-.83.22-1.65.39-2.86 4.84 0 9.52-.38 14.12.09 6.93.72 10.81 6.13 10.25 13.18-1.04 13.09-2.34 26.19-2.76 39.31-.18 5.83.71 11.65 2.62 17.17 2.66 7.55 10.15 10.79 17.07 9.06 1.75-26.15 3.48-52.15 5.23-78.4 1.22-.23 2.46-.39 3.7-.46 14.37.23 28.83-.4 43.08 1.03 14.39 1.43 23.45 14.9 22.19 29.47-1.14 13.27-1.99 26.56-2.54 39.88-.68 17.25-13.15 30.51-30.35 31.49-4.84.28-9.79.61-14.54-.08-5.14-.76-10.11-2.67-16.25-4.37Zm18.13-71.75c-.93 12.7-1.82 24.73-2.67 36.76-1.04 14.76-1.03 14.65 13.73 14.4 4.61-.07 6.7-2.18 7.02-6.47.3-4.13.48-8.27.72-12.41.51-8.97 1.03-17.94 1.55-26.91.22-3.68-1.38-5.47-5.17-5.4-4.83.1-9.66.03-15.18.03ZM3324.08 1188.03c-.39 6.98-.65 13.35-1.11 19.71-1.29 17.98-2.47 35.97-4.07 53.92-1.33 14.89-15 27.07-30.04 27.29-4.88.07-9.77.07-14.65 0-14.44-.24-26.58-11.96-26.12-26.27.52-16.1 1.57-32.22 3.18-48.25 1.39-13.83 14.96-25.17 30.18-26.36 1.56-.12 3.14-.03 4.71-.03 12.36-.01 24.72-.01 37.92-.01Zm-26.78 25.77c-5.78 0-10.46.09-15.14-.03-4.45-.12-6.07 1.98-6.32 6.28-.71 12.25-1.67 24.49-2.69 36.73-.3 3.56.24 6.19 4.34 6.84 9.35 1.48 15.44.12 16.45-3.74.08-.52.12-1.04.11-1.55.68-9.84 1.38-19.67 2.07-29.5.35-4.77.75-9.54 1.18-15.03Z" fill="#510B76"/>
    <path d="M3500.06 1297.57c-.3 4.83-.33 9.75-.98 14.58-.73 5.32-5.64 9.77-11.04 9.8-23.41.11-46.82 0-70.23-.05-.31 0-.62-.24-1.75-.7.47-5.07.59-10.46 1.54-15.71.85-4.66 5.71-8.39 11.17-8.43 23.41-.15 46.83-.01 70.24.04.31 0 .61.27 1.05.47Z" fill="#FC6719"/>
    <path d="M3392.65 1160.54c-.32 4.5-.74 8.82-.91 13.16-.27 6.57-.6 6.88-8.11 5.53.34-4.53.58-9.15 1.04-13.75.49-4.77-1.29-6.49-6.38-4.83-.38 5.06-.99 10.22-1.1 15.38-.07 3.44-1.74 3.92-4.59 3.98-3.31.06-3.71-1.71-3.48-4.31.5-5.71 1.23-11.42 1.36-17.14.09-3.95 2.22-5.07 5.43-5.4 1.38-.13 2.77-.14 4.16-.14 5.97-.01 11.95-.02 17.92.01 7.35.03 9.81 3.05 8.89 10.55-.39 3.27-.46 6.6-.59 9.9-.25 6.67-.47 6.88-8.21 5.96.36-4.56.67-9.17 1.08-13.76.41-4.56-1.23-6.66-6.51-5.14Z" fill="#510B76"/>
    <path d="M3334.38 1154.01c6.55 0 12.77-.01 18.98.02.52-.02 1.04.09 1.51.33 6.85 4.08 5.01 10.77 4.9 16.84-.09 4.59-2.91 7.61-7.16 8.36-3.78.61-7.63.6-11.41-.04-4.59-.71-8.28-6.09-8.12-11.39.13-4.48.8-8.95 1.3-14.12Z" fill="#FC6719"/>
    <path d="M3382.07 1295.14c-.34 5.95-.41 11.12-.96 16.24-.83 7.69-7.39 11.59-17.01 10.4-6.21-.76-9.58-5.72-8.96-12.94.88-10.23 5.63-14.57 15.57-13.75 3.64.3 7.33.05 11.36.05ZM3411.07 1295.15c-.36 6.04-.3 11.56-1.1 16.96-1.08 7.31-7.95 10.94-17.15 9.62-6.12-.89-9.32-5.97-8.67-13.15.94-10.38 6.05-14.3 15.79-13.48 3.63.3 7.32.05 11.13.05ZM3292.08 1154.01c-.49 6.41-.54 11.97-1.42 17.41-1.04 6.43-8.21 9.63-17.4 8.29-5.95-.87-8.69-4.75-8.1-11.49 1.02-11.83 3.7-14.2 16.07-14.21h10.85ZM3321.08 1154.01c-.52 6.47-.51 12.2-1.53 17.75-1.16 6.28-8.09 9.2-17.19 7.97-5.84-.79-8.4-4.16-8.28-10.9.2-11.68 3.58-14.81 15.97-14.82h11.03ZM3459.05 1168.96h-17.21c4.17 6.69 9.88 2.51 14.14 4.72 1.82 2.74 1.04 5.1-3.93 5.93-2.23.33-4.47.45-6.72.38-8.07-.11-10.53-2.75-10.25-10.8.03-.87.16-1.73.2-2.6.57-11.26 4.15-14.37 15.42-13.42 6.01.51 8.25 2.91 8.34 8.95.03 1.9.01 3.8.01 6.84Zm-8.46-4.86c.67-.14 1.29-.97 1.1-1.44-.37-.88-2.46-2.39-3.64-2.34-1.66.07-4.4 1.15-4.91 2.07-.15.62-.07 1.63.61 1.71ZM3432.05 1168.98h-17.21c4.17 6.69 9.89 2.51 14.14 4.72 1.82 2.74.31 5.67-3.93 5.93-2.24.14-4.48.41-6.71.38-8.07-.11-10.54-2.75-10.26-10.81.04-.87.16-1.73.21-2.6.57-11.26 4.14-14.38 15.41-13.43 6.01.51 8.26 2.91 8.35 8.96.03 1.9 0 3.8 0 6.85Zm-8.46-4.88c.67-.13 1.29-.96 1.11-1.43-.38-.88-2.46-2.39-3.64-2.34-1.67.06-4.41 1.15-4.92 2.06-.15.62-.07 1.64.61 1.71ZM3488.92 1159.5c-1.65-4.18.08-5.68 3.44-6.1.52-.07 1.03-.13 1.55-.17 13.38-1.17 16.46 2.09 14.69 15.4-.43 3.26-.67 6.55-1.09 10.72-5.28.24-10.57.77-15.83.64-4.44-.11-6.92-2.57-6.6-7.47.31-4.53 1.7-7.83 6.9-7.97 1.56.06 3.11-.04 4.65-.32 1.44-.36 2.98-.29 4.35-.94.66-3.99-2.1-2.99-4.2-3-2.7-.03-5.4-.57-7.86-.79Zm10.89 10.46s-6.74-.27-6.83 1.25c.2 1.7 1.73 2.92 3.43 2.72.04 0 .07-.01.11-.01 3.27-.39 4.68-.1 3.29-3.96ZM3462.04 1153.01h21v7h-21ZM3461.04 1173.01h21v6h-21Z" fill="#510B76"/>
    <path d="m3460.95 1172.7 17.31-17.66 4.83 4.73-17.31 17.67Z" fill="#510B76"/>
    <path d="M3158.55 1322.32c-12.59 0-25.19-.06-37.79.05-2.11 0-2.9-.55-3.29-2.66-1.26-6.9-2.84-13.73-4.1-20.59-.31-1.64-.79-2.23-2.55-2.22-17.36.06-34.73.06-52.09 0-1.71 0-2.26.68-2.77 2.12-2.49 7.12-5.13 14.21-7.65 21.31-.39 1.08-.62 2.06-2.28 2.06-14.49-.08-28.96-.05-43.45-.07-.25-.07-.5-.17-.73-.29.66-1.64 1.31-3.29 1.99-4.92 20.78-49.66 41.53-99.33 62.27-149.01 1.53-4.61 4.53-8.59 8.53-11.32 4.01-2.73 8.8-4.06 13.64-3.78 10.89 0 21.77 0 32.66-.08 1.95 0 2.59.61 2.97 2.43 5.22 25.39 10.48 50.74 15.78 76.06 6.16 29.57 12.32 59.15 18.47 88.73 0 .22.31.38.48.57l-.09 1.61Zm-65.98-123.47-23.23 63.45h34.67c1.76 0 1.51-.71 1.25-1.94-2.36-11.26-4.65-22.53-6.96-33.8-1.87-9.02-3.78-18.08-5.73-27.71Zm-111.66-49.01c4.29.72 8.59 1.37 12.86 2.17 5.29 1.01 10.49 2.46 15.54 4.33 1.03.38 1.94.58 1.67 2.17-1.88 11.08-3.64 22.19-5.47 33.28-.09.53-.27 1.03-.46 1.72-5.99-2.93-12.3-5.13-18.81-6.56-10.03-2.31-20.46-2.25-30.46.18-3.51.89-6.69 2.76-9.17 5.41-.96.95-1.73 2.08-2.26 3.34-.53 1.24-.81 2.59-.82 3.95-.01 1.35.25 2.7.76 3.96.51 1.25 1.26 2.4 2.22 3.36 3.49 3.52 7.55 6.43 12 8.61 8.48 4.14 16.73 8.73 24.72 13.74 10.09 6.04 17.4 15.83 20.35 27.23 2.1 9.02 1.66 18.45-1.27 27.23-2.94 8.78-8.24 16.57-15.33 22.5-10.75 9.18-23.95 14.99-37.97 16.71-22.23 3.46-44.96 1.34-66.18-6.18-2.31-.79-2.9-1.72-2.46-4.21 1.95-10.98 3.71-22 5.36-33.04.31-2.05.96-1.77 2.34-1.11 9.16 4.82 19.04 8.13 29.25 9.78 9.23 1.7 18.71 1.45 27.83-.75 3.76-.98 7.21-2.91 10.01-5.61 1.22-1.14 2.21-2.51 2.89-4.04.68-1.53 1.05-3.18 1.09-4.85.03-1.68-.27-3.34-.89-4.9-.62-1.55-1.55-2.97-2.72-4.15-4.45-4.36-9.64-7.88-15.32-10.4-7.81-3.66-15.29-8.01-22.35-12.98-9.66-6.19-16.48-15.98-18.96-27.22-1.39-7.62-.88-15.47 1.47-22.85 2.36-7.37 6.5-14.05 12.06-19.44 10.29-10.09 23.39-16.81 37.57-19.29 3.87-.46 7.7-1.18 11.48-2.14l19.43.05Zm-257.04 92.5c2.55 8.24 3.46 16.82 5.54 25.25 1.02-.73 1.02-1.86 1.41-2.79 13.55-36.48 27.07-72.96 40.55-109.45.16-.77.6-1.45 1.23-1.9.63-.45 1.42-.65 2.19-.54 13.67.09 27.34 0 41.04 0h2.71c-2.34 5.79-4.54 11.32-6.77 16.76-20.29 49.95-40.57 99.91-60.85 149.87-.2.84-.71 1.58-1.43 2.08-.71.49-1.58.7-2.45.58-13.58-.12-27.17-.12-40.75 0-.4.08-.81.07-1.21-.02-.39-.1-.77-.27-1.09-.52-.33-.24-.6-.56-.79-.91-.2-.36-.32-.76-.36-1.16-12.64-47.98-25.32-95.94-38.04-143.89 0-.18-.1-.34-.16-.52.71.36 1.46.66 2.14 1.03 9.79 5.89 18.84 12.91 26.99 20.92 13.03 12.83 23.27 28.22 30.1 45.21Zm106.81 79.96c-6.39 0-12.77-.1-19.16.06-2.26.05-2.65-.65-2.3-2.7 2.29-13.76 4.49-27.52 6.72-41.28 3.69-22.83 7.37-45.65 11.06-68.47 2.94-18.2 5.86-36.41 8.76-54.63.27-1.65.77-2.4 2.68-2.39 13.04.1 26.09.1 39.13 0 1.93 0 2.33.36 2 2.39-6.56 40.13-13.06 80.28-19.49 120.46-2.39 14.83-4.8 29.66-7.09 44.51-.28 1.75-.96 2.15-2.6 2.13-6.56-.13-13.13-.08-19.71-.08Z" fill="#1A1F71"/>
    <path d="M2723.53 1242.79c-6.82-16.89-17.04-32.18-30.03-44.93-8.14-7.98-17.18-14.97-26.95-20.83-.68-.41-1.42-.72-2.14-1.03-6.81-4.31-14.03-7.93-21.55-10.8-7.3-2.99-14.78-5.5-22.41-7.5-.85-.22-2.12-.12-1.75-1.73.3-1.3.55-2.19 2.34-2.18 23.43.11 46.84 0 70.27.21 4.52-.3 8.97 1.2 12.39 4.16s5.54 7.15 5.89 11.67c4.53 23.28 9.17 46.55 13.76 69.82.31 1.02.37 2.09.18 3.14Z" fill="#F8920F"/>
  </g>
</svg>
