<svg xmlns="http://www.w3.org/2000/svg" xml:space="preserve" overflow="hidden" viewBox="0 0 1004 99">
  <defs>
    <clipPath id="a">
      <path d="M1964 1153h1004v99H1964z"/>
    </clipPath>
    <clipPath id="b">
      <path d="M2180 1152h308v100h-308z"/>
    </clipPath>
    <clipPath id="c">
      <path d="M2180 1152h308v100h-308z"/>
    </clipPath>
    <clipPath id="d">
      <path d="M2180 1152h308v100h-308z"/>
    </clipPath>
    <clipPath id="e">
      <path d="M1963 1155h158v97h-158z"/>
    </clipPath>
    <clipPath id="f">
      <path d="M1963 1155h158v97h-158z"/>
    </clipPath>
    <clipPath id="g">
      <path d="M1963 1155h158v97h-158z"/>
    </clipPath>
    <clipPath id="h">
      <path d="M1963 1155h158v97h-158z"/>
    </clipPath>
    <clipPath id="i">
      <path d="M2546 1157h283v94h-283z"/>
    </clipPath>
    <clipPath id="j">
      <path d="M2546 1157h283v94h-283z"/>
    </clipPath>
    <clipPath id="k">
      <path d="M2546 1157h283v94h-283z"/>
    </clipPath>
  </defs>
  <g clip-path="url(#a)" transform="translate(-1964 -1153)">
    <g clip-path="url(#b)">
      <g clip-path="url(#c)">
        <g clip-path="url(#d)">
          <path d="M2486.51611695 1250.6023c-7.15436016 0-14.30371867-.0288-21.45907916.0288-1.19939567 0-1.64854384-.3087-1.8706171-1.5021-.71623628-3.9024-1.61353229-7.7698-2.32976857-11.6487-.17505775-.9261-.44814784-1.264-1.44547685-1.2581-9.86125314.0389-19.72050562.0389-29.57775744 0-.97332109 0-1.28842504.3844-1.57351909 1.1998-1.41546695 4.0304-2.91396129 8.0431-4.34743418 12.0562-.22107293.6111-.34911517 1.1646-1.29242636 1.1646-8.22671392-.0459-16.44742586-.0288-24.67413978-.0405-.14404752-.0369-.28209306-.0909-.41213596-.1629.37212276-.9261.73924387-1.8585 1.12837224-2.7846 11.79689169-28.0918 23.58378008-56.1895 35.36066517-84.2934.86528545-2.60996 2.56884744-4.86157 4.84459819-6.40615 2.27675108-1.54459 4.99764868-2.29623 7.74355453-2.13823 6.18303973 0 12.3640788.00002 18.54511787-.04658 1.10736531 0 1.46948477.34959 1.68455572 1.37465 2.96797911 14.36651 5.95596482 28.70961 8.96495746 43.02941 3.49615335 16.7311 6.9923067 33.4638 10.48846005 50.1984 0 .1224.17505775.216.26908877.3213l-.04701551.9081Zm-37.46936081-69.844-13.18935105 35.8946h19.68549407c1.00233066 0 .85728281-.4017.71123463-1.1006-1.3404422-6.3717-2.63887054-12.7435-3.95530482-19.1211-1.06135013-5.102-2.14470752-10.2271-3.25207283-15.6729ZM2385.64083909 1153.0291496c2.43580355.4076964 4.87760908.7746144 7.30140867 1.2289104 3.00499132.57044 5.95796548 1.39039 8.82691192 2.45176.58219206.21549 1.100363.32628.94831284 1.22321-1.06635178 6.27267-2.06768211 12.55687-3.10502432 18.82957-.05301749.297-.15705181.5828-.26108613.973-3.40212233-1.6566-6.98930571-2.9022-10.68552506-3.7103-5.69387836-1.3101-11.6138313-1.276-17.29270471.0992-1.99265736.5023-3.801254 1.5655-5.20771798 3.0636-.54918117.5375-.98632538 1.178-1.28642438 1.8852-.300099.7071-.45815114 1.4667-.46415312 2.2348-.00500165.7682.14104653 1.5298.43114223 2.2411.2900957.7112.71823694 1.358 1.2604158 1.9032 1.98465472 1.9916 4.28841471 3.6373 6.81624862 4.869 4.81258763 2.3432 9.49713302 4.9387 14.03563023 7.7755 5.72888991 3.4161 9.87925908 8.951 11.5538115 15.4052 1.19239336 5.1016.94331119 10.4342-.72123793 15.402-1.66554945 4.9678-4.67854341 9.375-8.70587199 12.7288-6.10301333 5.1948-13.59948635 8.4825-21.55611117 9.4527-12.62316427 1.9594-25.53442358.7587-37.58039744-3.4947-1.31543395-.4482-1.64754351-.972-1.39746101-2.3823 1.10736531-6.2141 2.10269366-12.4458 3.0410032-18.6894.17505775-1.1649.54718051-1.0016 1.32843824-.6289 5.20271633 2.7268 10.81156664 4.5949 16.61047965 5.5327 5.24072887.9608 10.62450493.816 15.80621433-.4251 2.13370389-.5563 4.08934904-1.6489 5.68087407-3.1742.69522935-.644 1.25341349-1.4212 1.6405412-2.2857.38912837-.8643.600198-1.7981.6202046-2.7453.01900627-.9474-.15305049-1.8892-.50516665-2.7689-.35211616-.8797-.87929007-1.6793-1.54651018-2.3515-2.52383259-2.4652-5.46980444-4.4576-8.69786935-5.8826-4.43646355-2.0715-8.68186407-4.5271-12.68918605-7.3386-5.48781038-3.5042-9.36008781-9.0427-10.76655179-15.3991-.7902607-4.3118-.50416632-8.7523.83527555-12.9264 1.33944187-4.1741 3.69021737-7.9528 6.84325753-10.9997 5.84792918-5.7065 13.28538273-9.51109 21.33603857-10.91442 2.19672468-.260819 4.37444309-.66555 6.51815028-1.21148l11.03464023.0291496ZM2239.67888754 1205.3597c1.4507786 4.6594 1.96364779 9.517 3.14633795 14.2813.58269222-.4078.58229209-1.0484.80366512-1.5784 7.69443832-20.6333 15.36887005-41.2727 23.02439554-61.91764.08902937-.4326.33841164-.81533.6984304-1.07142.35991874-.2561.80376516-.36656 1.24170964-.30892 7.76626202.05242 15.52692219 0 23.30448794 0h1.53950787c-1.32843824 3.27904-2.57685008 6.4066-3.84026687 9.48178-11.52510203 28.2592-23.04240148 56.5203-34.55489936 84.7836-.11533804.4788-.40393325.8982-.81076746 1.1772-.40673418.2781-.9023977.3969-1.3910589.3312-7.71384473-.0702-15.42868979-.0702-23.14253452 0-.2270749.0432-.46035186.0387-.68552614-.0144-.22517429-.0522-.43724425-.1512-.62160507-.2907-.18446085-.1395-.33751134-.3159-.4495483-.5184-.11193693-.2025-.18015943-.4257-.20056616-.6561-7.17776788-27.1408-14.37894349-54.274-21.60332675-81.3994 0-.099-.05751897-.1922-.0924305-.2912.40783455.2039.8329748.373 1.21750165.5827 5.55623295 3.3303 10.70022991 7.3024 15.3277565 11.8347 7.39633998 7.2581 13.2143593 15.9645 17.08873742 25.5741ZM2300.33469735 1250.596c-3.62919724 0-7.25439316-.0576-10.8835904.0297-1.28242306.0288-1.50249566-.3672-1.30443032-1.5264 1.29842834-7.781 2.5508415-15.5677 3.81625895-23.3546 2.09269036-12.9105 4.18638105-25.821 6.27907141-38.7314 1.6705511-10.2971 3.32909824-20.5981 4.97664175-30.90312.15104983-.9377.43614388-1.35737 1.5205016-1.35154 7.40644332.05436 14.81288664.05436 22.22033029 0 1.09536135 0 1.32343659.19835 1.13637488 1.35154-3.72522892 22.69892-7.41444596 45.41312-11.06865145 68.14322-1.35744781 8.3927-2.72289826 16.7796-4.02732858 25.178-.15705181.99-.54217886 1.2177-1.47348609 1.206-3.72923024-.0702-7.45746015-.0414-11.19169204-.0414Z" fill="#1A1F71"/>
          <path d="M2239.67858744 1205.3596c-3.87987994-9.5931-9.69629873-18.2834-17.08733696-25.5276-4.62782668-4.532-9.7732241-8.5041-15.32915696-11.8348-.3904288-.2329-.80976713-.4078-1.21760167-.5825-3.87357786-2.4489-7.98193317-4.50507-12.26394577-6.13855-4.1507893-1.6981-8.40923413-3.12046-12.7475353-4.25761-.48357453-.12814-1.20542566-.06993-.99568417-.98433.16895844-.73969.30894562-1.24647 1.32852397-1.24065 13.33019752.06408 26.65349275-.00001 39.98369027.1223 2.56834727-.17034 5.10128287.67812 7.04802508 2.36146 1.94664218 1.68335 3.15113953 4.06595 3.352606 6.63118 2.57504948 13.2268 5.21442018 26.4481 7.82458125 39.6691.17835884.5768.2133704 1.1882.10383426 1.782Z" fill="#F8920F"/>
        </g>
      </g>
    </g>
    <g clip-path="url(#e)">
      <g clip-path="url(#f)">
        <g clip-path="url(#g)">
          <g clip-path="url(#h)">
            <path d="M2009.3783 1155h6.2552c.0567.15857557.1958.11406036.3157.1204033 2.1201.14499993 4.228.4344981 6.3092.86605545 7.341 1.49907185 14.2322 4.70059387 20.1256 9.34965195-.9748.86271658-1.9772 1.69677983-2.9205 2.59116588-1.3606 1.29221491-2.6537 2.65460535-3.8738 4.08164172-2.3806 2.78872305-4.4401 5.83884489-6.1389 9.09265672-1.5338 2.94757309-2.7606 6.04685801-3.6598 9.24828955-1.052 3.73679638-1.6542 7.58689909-1.7944 11.46806804-.0922 2.78751659.0619 5.57784824.4605 8.33791796.3546 2.57859862.9158 5.12422078 1.6782 7.61183251 1.1007 3.59111683 2.6165 7.03987184 4.5169 10.27568737 1.8288 3.1116511 3.9937 6.0108654 6.4547 8.6454637 1.6647 1.7371961 3.4344 3.36953107 5.2995 4.88735325-.0416.04403565-.0858.08555784-.1326.12386282-5.8289 4.62243562-12.6511 7.81280798-19.9231 9.31715807-7.2719 1.5035458-14.7928 1.27864229-21.9633-.65601045-6.0338-1.46644727-11.7193-4.11894132-16.7284-7.80516709-5.0092-3.68622577-9.2429-8.3329916-12.45728-13.67216262-3.73541-5.96240609-6.08298-12.69624025-6.867473-19.69851088-.040727-.94807334-.15237-1.89152193-.334247-2.82270489v-5.75921879c.160882-.09189173.104519-.25044016.113983-.383653.176646-3.01513463.657033-6.00463206 1.434797-8.92184266 1.59269-6.21737046 4.40981-12.05008253 8.28451-17.15339141 3.87471-5.10330888 8.72881-9.37333871 14.27411-12.55720626 5.712-3.3757242 12.0674-5.50256538 18.6523-6.2416162.8819-.03000154 1.759-.14580222 2.6186-.34572404Z" fill="#DA0018"/>
            <path d="M2069.362 1155h5.886c.117.16809049.298.10159767.448.11111259 2.507.15002481 4.997.50861671 7.445 1.0720186 10.07 2.18732483 19.154 7.62323352 25.867 15.48013747 4.852 5.41507722 8.386 11.88841742 10.326 18.91029296 1.939 7.02197607 2.23 14.4007615.851 21.5553472-1.761 10.48540963-7.045 20.04637235-14.972 27.08765172-8.651 7.99920543-19.928 12.51848907-31.68 12.69573757-4.335.12074613-8.664-.36686317-12.8648-1.44975796-6.5896-1.6472146-12.7555-4.6850708-18.0883-8.91158779.8738-.7326204 1.7854-1.4242213 2.615-2.20439618 2.8394-2.60664873 5.3724-5.53190238 7.5487-8.71855483 2.0963-3.11225432 3.8277-6.45685197 5.1609-9.96794054 1.8059-4.78118513 2.8453-9.81984808 3.0821-14.92848547.128-2.70728727.0228-5.42060681-.3158-8.10959616-.3859-3.16915883-1.0779-6.29277396-2.0655-9.32711133-1.0815-3.27572912-2.5094-6.42528305-4.2592-9.39427072-1.8287-3.11336025-3.9942-6.01408263-6.4572-8.64878145-1.6639-1.7401117-3.4259-3.38219886-5.2775-4.91882165 1.9635-1.5686341 4.0552-2.96830402 6.2525-4.18351688 5.5164-3.0985309 11.5833-5.07773202 17.8581-5.8258202.888-.01572615 1.773-.12430015 2.64-.32365695Z" fill="#F68A0D"/>
            <path d="M2042.3749 1165.33590963h.2395c1.8518 1.53632118 3.6139 3.17881048 5.2775 4.91912326 2.4631 2.63469883 4.629 5.5354212 6.4577 8.64888199 1.7507 2.96888714 3.1795 6.1185416 4.2618 9.39417018.9885 3.03433738 1.6797 6.1579525 2.0656 9.32721188.3385 2.6888888.4447 5.40230889.3157 8.10959615-.2368 5.10853686-1.277 10.1471998-3.0821 14.92848547-1.3332 3.51098804-3.0654 6.85548514-5.1608 9.96794055-2.1761 3.18685352-4.7088 6.1122077-7.5484 8.71855482-.8296.7770582-1.7416 1.47177578-2.6155 2.20439619h-.1922c-1.8652-1.51752057-3.6353-3.149755-5.2997-4.88735326-2.461-2.63459829-4.6256-5.5341142-6.4543-8.64586585-1.9004-3.23581553-3.4166-6.68457054-4.5173-10.27568736-.7614-2.48761174-1.3216-5.0332339-1.6752-7.61173198-.399-2.76006972-.5531-5.54999922-.4604-8.33761634.1397-3.88016357.7426-7.72936144 1.7951-11.46495137.8996-3.20123046 2.1256-6.30061592 3.6591-9.248189 1.6989-3.25381184 3.7584-6.30433583 6.1388-9.09305888 1.2204-1.4268353 2.5135-2.78922573 3.8739-4.08164172.9432-.87538437 1.9433-1.70954815 2.9212-2.57226473Z" fill="#E54911"/>
          </g>
        </g>
      </g>
    </g>
    <g clip-path="url(#i)">
      <g clip-path="url(#j)">
        <g clip-path="url(#k)">
          <path d="M2827.677 1176.7336c-.189.7886-.371 1.5794-.574 2.3658-1.892 7.3673-7.943 11.8207-15.864 11.6191-3.014-.0554-6.003-.5537-8.872-1.4791-.978-.3211-2.209.1101-3.321.207-1.475.128-2.948.3784-4.422.3813-13.857.0297-27.713.0356-41.57.0176h-1.514c.347-2.2877.672-4.4409.987-6.5228h17.402c-.109.1312-.021.075-.022.0202-.072-4.2584-.118-8.5168-.258-12.7752-.027-.7921-.368-1.5993-.678-2.3522-1.116-2.70673-3.156-4.09466-6.1-4.10538-2.31-.00851-4.619-.00284-6.927-.00347h-1.381c.305-2.14496.565-4.11391.892-6.0715.107-.298265.359-.521137.668-.590816 3.908.07318 7.863-.156142 11.71.38767 5.759.814456 9.916 5.418556 10.92 11.555096.37 2.2635.398 4.5908.478 6.8928.076 2.2222.016 4.4477.016 6.7592.416.0315.753.0785 1.089.0789 5.012.0047 10.022-.0275 15.031.0287 1.033.0116 1.425-.4416 1.531-1.3186.064-.6228.092-1.2488.083-1.8749.007-4.1881-.002-8.3764.005-12.5647.009-4.8748 2-7.69668 6.662-9.14769 1.851-.576618 3.801-.836537 5.705-1.24061h3.994c.294.0949039.593.171803.896.230268 6.379.854512 11.036 4.923952 12.734 11.156932.265.9725.468 1.9617.7 2.9431v5.4033Zm-22.098-10.69321c.098 1.22571.245 2.26261.252 3.30071.028 3.9486.048 7.8985-.014 11.8462-.015.9718.332 1.3296 1.221 1.3879 1.559.1041 3.114.3089 4.674.3391 3.375.0653 5.584-1.5456 6.494-4.7861.817-2.9168.826-6.0007.026-8.9224-.469-1.7722-1.434-3.31461-3.245-3.90101-3.267-1.05576-6.442-.44855-9.408.73688v-.00128ZM2748.259 1157.571579c-.336 2.197951-.66 4.319891-1.01 6.594501h-1.402c-5.872 0-11.746.00168-17.618.00504-.821-.01218-1.643.02564-2.46.11324-2.401.29935-3.673 1.79799-3.565 4.12464.11 2.3027 1.546 3.8288 3.866 3.8928 2.973.0823 5.951-.0044 8.925.0603 1.329.0099 2.654.1453 3.958.404 4.923 1.0552 8.049 4.9931 7.976 10.0356-.008 1.2901-.162 2.5751-.461 3.8304-.999 4.0306-3.948 5.9731-7.767 6.7244-1.957.3808-3.946.5736-5.94.5759-13.036.0272-26.074.055-39.109-.0709-8.131-.0785-13.51-5.3596-13.971-13.4621-.228-3.9849-.413-7.9844.697-11.8958 1.836-6.46482 6.887-10.40241 13.619-10.521644 4.104-.072858 8.211-.013561 12.405-.013561-.33 2.249685-.646 4.405065-.983 6.709945-1.58 0-3.136-.00315-4.691 0-1.527.0041-3.056-.02775-4.58.03407-2.76.1123-4.819 1.43779-5.863 3.97449-.608 1.4379-.958 2.9716-1.034 4.5309-.092 2.8405-.127 5.7315.298 8.5278.492 3.2329 2.712 5.1514 5.961 5.3473 3.823.2306 7.665.1687 11.501.1823 8.417.0301 16.833.0411 25.251.0332.625.0147 1.251-.0282 1.868-.1281 2.546-.476 4.006-2.3551 3.794-4.83-.209-2.4522-1.961-4.0375-4.581-4.0817-3.678-.0631-7.362.0195-11.034-.171-4.357-.2259-7.513-2.6771-8.648-6.4087-1.315-4.3215-.113-8.87351 3.032-11.32414 2.509-1.9557 5.48-2.764792 8.559-2.820309 7.514-.135952 15.031-.073181 22.548-.086114.156.023134.31.061051.459.113242Z" fill="#26292C"/>
          <path d="M2665.107 1157H2546v39.4676h119.107V1157Z" fill="#008BCF"/>
          <path d="M2665.107 1210.8004H2546v39.4679h119.107v-39.4679Z" fill="#80AA2C"/>
          <path d="M2827.677 1250.9699c-2.921-.5281-5.836-1.1066-8.77-1.5544-.814-.1256-1.7.0803-2.534.2342-3.56.658-7.114 1.0818-10.692.1375-4.248-1.122-6.662-4.1103-6.806-8.4372-.15-4.4861 1.921-7.6992 6.256-8.9108 2.564-.7163 5.292-.8999 7.964-1.1472 1.817-.1684 3.662-.0315 5.473-.0315.878-3.7222-.838-6.0476-4.537-6.1126-4.074-.0713-7.987.8467-11.817 2.1649-.364.1261-.734.2296-1.212.3785-.329-2.2279-.646-4.3738-.975-6.6024 6.33-2.0298 12.621-3.8565 19.325-2.5178 4.893.9778 7.49 3.7944 8.116 8.7092.054.3043.123.6057.209.9028v22.7868Zm-12.348-14.3234-.029-.1435c-1.688.2365-3.423.3018-5.049.7571-1.686.4715-2.468 2.056-2.315 3.8946.13 1.574 1.067 2.8507 2.767 3.0079 1.774.1393 3.559.0419 5.306-.2905 2.908-.5179 2.908-.6187 2.881-3.5996-.011-1.1533.289-2.6775-.314-3.3468-.531-.5896-2.123-.2233-3.247-.2792ZM2724.919 1249.9436h-9.213v-1.4424c0-5.8725-.002-11.7455-.004-17.6183.012-.6263-.013-1.2528-.076-1.8762-.213-1.7769-1.364-2.9841-3.097-3.1717-1.987-.2431-4.002.1024-5.794.9936.06 2.5866.154 5.0255.167 7.4658.027 4.7766.008 9.5529.008 14.3298v1.3211h-9.193v-1.351c0-5.8733-.055-11.7468.018-17.6187.057-4.5722-1.992-5.7608-6.274-5.0088-2.567.4511-2.555.5174-2.555 3.0856v20.8502h-9.352V1225.7006c.003-3.8515.98-5.1524 4.713-6.174 4.614-1.2618 9.291-1.8806 14.039-.9341 1.29.3002 2.534.7708 3.7 1.3994.513.3266 1.157.3689 1.709.1119 4.524-1.9046 9.197-2.4901 14.001-1.316 4.217 1.0302 6.857 3.995 7.013 8.3218.216 6.0217.143 12.0538.189 18.0811.012 1.5595.001 3.1182.001 4.7529ZM2784.371 1219.5112v-1.371c0-3.835.009-7.6701-.008-11.5051-.003-.6136.077-1.0366.805-1.153 2.776-.4448 5.546-.9283 8.492-1.427v1.3211c0 12.601-.001 25.202-.003 37.8029 0 3.6087-.791 4.7111-4.23 5.7681-4.428 1.3699-9.109 1.7202-13.692 1.0246-6.682-.9947-11.149-6.0245-11.683-13.0417-.229-3.0136-.135-6.0132.648-8.9691 1.571-5.9302 5.795-9.4504 11.916-9.5748 2.078-.0422 4.169.4556 6.252.7319.508.1018 1.01.233 1.503.3931Zm0 15.0147v-4.5738c0-4.1928 0-4.1928-4.24-4.5688-3.277-.2905-5.664 1.2984-6.498 4.4685-.77 2.8869-.763 5.9261.021 8.8095.872 3.2442 3.093 4.8826 6.452 4.8194 1.009-.0179 2.012-.2418 3.022-.3187.952-.0735 1.306-.4692 1.27-1.4827-.084-2.3831-.027-4.77-.027-7.1547v.0013ZM2749.892 1231.2703c.303-4.7-1.146-6.2482-5.628-6.1226-3.707.1038-7.28.9375-10.774 2.1449-.364.1262-.734.2357-1.271.4072-.301-2.1008-.607-4.1321-.856-6.1715.047-.2748.228-.5083.482-.622 5.041-1.6182 10.125-3.036 15.503-2.7585.821.0397 1.639.1284 2.45.2656 6.053 1.0482 8.919 4.3685 8.968 10.5532.056 7.0475.015 14.0954.014 21.1428 0 .2324-.024.464-.045.8289-1.031-.176-2.028-.2769-2.989-.5213-3.7-.9972-7.583-1.1074-11.335-.323-2.779.5837-5.666.3931-8.345-.552-3.81-1.3152-5.872-4.1514-5.991-8.221-.123-4.1499 1.683-7.0673 5.394-8.6316 2.53-1.0668 5.217-1.3422 7.926-1.4077 2.143-.053 4.287-.0114 6.497-.0114Zm.189 5.6103c-2.681 0-5.151-.1609-7.588.0473-2.224.1893-3.495 1.9242-3.387 4.0563.1 1.9761 1.531 3.4698 3.769 3.3605 2.239-.1094 4.457-.6717 6.677-1.0828.264-.1102.454-.346.506-.628.041-1.9103.025-3.8219.025-5.7536l-.002.0003Z" fill="#26292C"/>
        </g>
      </g>
    </g>
    <path d="m2958.96 1184.15-51.09 55.85h-18.75c-1.3 0-2.34-1.3-2.08-2.61l12.5-79.26c.26-1.83 1.82-3.13 3.64-3.13h31.76c21.86.78 27.85 11.99 23.95 29.2Z" fill="#002C8A" fill-rule="evenodd"/>
    <path d="M2959.9 1179c7.77 4.16 9.58 11.96 6.99 22.37-3.36 15.34-13.47 21.84-28.24 22.1l-4.14.26c-1.56 0-2.6 1.04-2.85 2.6l-3.37 20.55c-.26 1.82-1.82 3.12-3.63 3.12h-15.55c-1.29 0-2.33-1.3-2.07-2.6l5.7-37.19c.26-1.3 47.16-31.21 47.16-31.21Z" fill="#009BE1" fill-rule="evenodd"/>
    <path d="m2912 1212 5.25-33.13c.35-1.61 1.75-2.79 3.41-2.87h25.18c6.03 0 10.49 1.04 14.16 2.87-1.31 11.48-6.82 30-33.57 30.52h-11.54c-1.32 0-2.63 1.04-2.89 2.61Z" fill="#001F6B" fill-rule="evenodd"/>
  </g>
</svg>
