<svg xmlns:xlink="http://www.w3.org/1999/xlink" xmlns="http://www.w3.org/2000/svg"><g transform="translate(-2685 -406)"><path d="M2785 428 2860 428 2860 561 2785 561Z" fill="#F36B2B"/><path d="M2789.77 494.021C2789.77 467.936 2801.69 443.21 2822 427.179 2785.17 398.105 2732.09 404.626 2703.12 441.58 2674.14 478.533 2680.64 531.789 2717.47 560.863 2748.07 585.046 2791.4 585.046 2822 560.863 2801.69 544.832 2789.77 520.106 2789.77 494.021" fill="#EE252F"/><path d="M2959 493.987C2959 540.975 2921.09 579 2874.25 579 2855.3 579 2836.89 572.482 2822 560.802 2858.82 531.74 2865.05 478.505 2836.08 441.567 2832.02 436.135 2827.14 431.517 2822 427.171 2858.82 398.11 2911.89 404.628 2940.86 441.567 2952.5 456.505 2959 474.974 2959 493.987" fill="#F99E30"/><path d="M3555.55 578.331C3542.96 578.331 3530.36 578.28 3517.76 578.381 3515.65 578.381 3514.86 577.839 3514.47 575.741 3513.21 568.882 3511.63 562.085 3510.37 555.268 3510.06 553.64 3509.58 553.046 3507.82 553.056 3490.46 553.125 3473.09 553.125 3455.73 553.056 3454.02 553.056 3453.47 553.732 3452.96 555.165 3450.47 562.249 3447.83 569.302 3445.31 576.355 3444.92 577.429 3444.69 578.402 3443.03 578.402 3428.54 578.321 3414.07 578.351 3399.58 578.331 3399.33 578.266 3399.08 578.171 3398.85 578.044 3399.51 576.417 3400.16 574.778 3400.84 573.15 3421.62 523.777 3442.37 474.393 3463.11 424.998 3464.64 420.411 3467.64 416.454 3471.64 413.739 3475.65 411.024 3480.44 409.703 3485.28 409.981 3496.17 409.981 3507.05 409.981 3517.94 409.899 3519.89 409.899 3520.53 410.513 3520.91 412.315 3526.13 437.565 3531.39 462.774 3536.69 487.943 3542.85 517.349 3549.01 546.758 3555.16 576.17 3555.16 576.385 3555.47 576.549 3555.64 576.734L3555.55 578.331ZM3489.57 455.575 3466.34 518.662 3501.01 518.662C3502.77 518.662 3502.52 517.956 3502.26 516.727 3499.9 505.529 3497.61 494.33 3495.3 483.121 3493.43 474.154 3491.52 465.146 3489.57 455.575ZM3377.91 406.839C3382.2 407.555 3386.5 408.2 3390.77 408.998 3396.06 410.001 3401.26 411.442 3406.31 413.308 3407.34 413.686 3408.25 413.881 3407.98 415.457 3406.1 426.482 3404.34 437.527 3402.51 448.552 3402.42 449.074 3402.24 449.576 3402.05 450.262 3396.06 447.35 3389.75 445.161 3383.24 443.741 3373.21 441.438 3362.79 441.498 3352.78 443.915 3349.28 444.798 3346.09 446.667 3343.61 449.3 3342.65 450.244 3341.88 451.37 3341.35 452.613 3340.82 453.856 3340.54 455.191 3340.53 456.541 3340.52 457.891 3340.78 459.23 3341.29 460.48 3341.8 461.73 3342.55 462.867 3343.51 463.825 3347 467.325 3351.06 470.218 3355.51 472.382 3363.99 476.501 3372.24 481.063 3380.23 486.048 3390.32 492.052 3397.63 501.78 3400.58 513.124 3402.68 522.091 3402.24 531.463 3399.31 540.194 3396.37 548.926 3391.07 556.672 3383.98 562.566 3373.23 571.697 3360.03 577.475 3346.01 579.18 3323.79 582.624 3301.05 580.514 3279.83 573.038 3277.52 572.25 3276.93 571.329 3277.37 568.851 3279.32 557.929 3281.08 546.976 3282.73 536.003 3283.04 533.955 3283.69 534.242 3285.07 534.897 3294.23 539.69 3304.11 542.973 3314.32 544.622 3323.55 546.31 3333.03 546.056 3342.16 543.874 3345.91 542.897 3349.36 540.976 3352.16 538.296 3353.38 537.164 3354.37 535.798 3355.05 534.278 3355.73 532.759 3356.11 531.118 3356.14 529.453 3356.17 527.788 3355.87 526.133 3355.25 524.587 3354.63 523.04 3353.7 521.635 3352.53 520.454 3348.08 516.121 3342.9 512.619 3337.21 510.115 3329.4 506.474 3321.92 502.158 3314.86 497.216 3305.2 491.057 3298.38 481.323 3295.9 470.151 3294.51 462.573 3295.02 454.768 3297.37 447.432 3299.73 440.096 3303.87 433.455 3309.43 428.099 3319.72 418.07 3332.82 411.383 3347 408.916 3350.87 408.458 3354.7 407.747 3358.48 406.787L3377.91 406.839ZM3120.87 498.814C3123.42 507.002 3124.33 515.54 3126.41 523.914 3127.43 523.197 3127.43 522.071 3127.82 521.14 3141.37 484.875 3154.89 448.6 3168.37 412.315 3168.53 411.555 3168.97 410.882 3169.6 410.432 3170.23 409.982 3171.02 409.787 3171.79 409.889 3185.46 409.981 3199.13 409.889 3212.83 409.889L3215.54 409.889C3213.2 415.652 3211 421.149 3208.77 426.554 3188.48 476.221 3168.2 525.892 3147.92 575.567 3147.72 576.409 3147.21 577.146 3146.49 577.636 3145.78 578.125 3144.91 578.334 3144.04 578.218 3130.46 578.095 3116.87 578.095 3103.29 578.218 3102.89 578.294 3102.48 578.286 3102.08 578.193 3101.69 578.101 3101.31 577.927 3100.99 577.682 3100.66 577.437 3100.39 577.127 3100.2 576.771 3100 576.415 3099.88 576.023 3099.84 575.618 3087.2 527.916 3074.52 480.227 3061.8 432.552 3061.8 432.378 3061.7 432.214 3061.64 432.04 3062.35 432.399 3063.1 432.696 3063.78 433.065 3073.57 438.918 3082.62 445.899 3090.77 453.865 3103.8 466.622 3114.04 481.924 3120.87 498.814ZM3227.68 578.319C3221.29 578.319 3214.91 578.218 3208.52 578.372 3206.26 578.423 3205.87 577.727 3206.22 575.689 3208.51 562.013 3210.71 548.328 3212.94 534.642 3216.63 511.95 3220.31 489.259 3224 466.568 3226.94 448.47 3229.86 430.365 3232.76 412.254 3233.03 410.606 3233.53 409.868 3235.44 409.878 3248.48 409.974 3261.53 409.974 3274.57 409.878 3276.5 409.878 3276.9 410.227 3276.57 412.254 3270.01 452.149 3263.51 492.071 3257.08 532.021 3254.69 546.771 3252.28 561.512 3249.99 576.273 3249.71 578.013 3249.03 578.413 3247.39 578.392 3240.83 578.269 3234.26 578.319 3227.68 578.319Z" fill="#1A1F71"/><path d="M3120.53 498.787C3113.71 481.902 3103.49 466.607 3090.5 453.857 3082.36 445.88 3073.32 438.889 3063.55 433.026 3062.87 432.616 3062.13 432.309 3061.41 432.001 3054.6 427.691 3047.38 424.072 3039.86 421.197 3032.56 418.208 3025.08 415.705 3017.45 413.703 3016.6 413.478 3015.33 413.58 3015.7 411.971 3016 410.669 3016.25 409.777 3018.04 409.787 3041.47 409.9 3064.88 409.787 3088.31 410.003 3092.83 409.702 3097.28 411.196 3100.7 414.159 3104.12 417.122 3106.24 421.315 3106.59 425.83 3111.12 449.11 3115.76 472.381 3120.35 495.651 3120.66 496.666 3120.72 497.742 3120.53 498.787Z" fill="#F8920F"/><path d="M3771.8 460.569 3681.52 559.785 3648.38 559.785C3646.09 559.785 3644.25 557.475 3644.71 555.148L3666.8 414.345C3667.25 411.095 3670.01 408.785 3673.23 408.785L3729.35 408.785C3767.98 410.171 3778.56 430.085 3771.67 460.658Z" fill="#002C8A"/><path d="M3774.16 451.785C3788.05 459.168 3791.28 473.01 3786.65 491.484 3780.65 518.707 3762.58 530.242 3736.19 530.704L3728.79 531.165C3726 531.165 3724.15 533.011 3723.7 535.779L3717.68 572.248C3717.21 575.478 3714.42 577.785 3711.19 577.785L3683.4 577.785C3681.1 577.785 3679.24 575.478 3679.7 573.171L3689.89 507.172C3690.35 504.865 3774.16 451.785 3774.16 451.785Z" fill="#009BE1"/><path d="M3688.64 509.788 3697.93 451.811C3698.55 448.993 3701.03 446.928 3703.97 446.788L3748.56 446.788C3759.24 446.788 3767.14 448.608 3773.64 451.811 3771.32 471.901 3761.56 504.311 3714.19 505.221L3693.75 505.221C3691.42 505.221 3689.1 507.041 3688.64 509.788Z" fill="#001F6B"/><g clip-path="url(#clip1)"><g clip-path="url(#clip2)"><g clip-path="url(#clip3)"><path d="M505.42 35.4087C505.082 36.8236 504.755 38.2426 504.392 39.6537 500.997 52.873 490.139 60.8638 475.927 60.5021 470.519 60.4028 465.155 59.5085 460.006 57.8481 458.252 57.272 456.044 58.0457 454.048 58.2194 451.401 58.4493 448.758 58.8986 446.113 58.9038 421.25 58.957 396.387 58.9676 371.524 58.9354L368.807 58.9354C369.429 54.8303 370.012 50.9668 370.578 47.2313L401.802 47.2313C401.608 47.4666 401.764 47.3659 401.762 47.2675 401.634 39.6265 401.551 31.9855 401.299 24.3446 401.252 22.9233 400.64 21.4749 400.083 20.1239 398.081 15.2672 394.421 12.7768 389.139 12.7575 384.994 12.7423 380.851 12.7524 376.708 12.7513L374.23 12.7513C374.779 8.90255 375.245 5.3696 375.831 1.85704 376.022 1.32186 376.475 0.92195 377.03 0.796922 384.042 0.928232 391.14 0.516753 398.041 1.49253 408.376 2.95394 415.834 11.2152 417.636 22.2261 418.299 26.2876 418.35 30.4635 418.493 34.5941 418.629 38.5816 418.522 42.5747 418.522 46.7224 419.269 46.7789 419.873 46.8633 420.477 46.8639 429.468 46.8723 438.458 46.8147 447.447 46.9154 449.3 46.9363 450.004 46.123 450.193 44.5495 450.308 43.432 450.358 42.3087 450.343 41.1852 450.355 33.6705 450.338 26.1553 450.352 18.64 450.368 9.89304 453.94 4.82965 462.305 2.22606 465.626 1.19142 469.125 0.72504 472.543 0L479.708 0C480.235 0.170289 480.772 0.308271 481.316 0.413177 492.763 1.94646 501.118 9.24836 504.165 20.4324 504.64 22.1774 505.005 23.9524 505.422 25.7132L505.42 35.4087ZM465.77 16.2214C465.946 18.4209 466.21 20.2812 466.222 22.1439 466.273 29.2292 466.308 36.3165 466.198 43.3999 466.17 45.1438 466.793 45.7856 468.389 45.8904 471.186 46.0771 473.976 46.4445 476.775 46.4988 482.831 46.6159 486.793 43.7255 488.426 37.9109 489.892 32.6773 489.909 27.1437 488.474 21.9012 487.632 18.7214 485.901 15.9537 482.652 14.9015 476.79 13.0071 471.092 14.0967 465.77 16.2237L465.77 16.2214Z" fill="#26292C" transform="matrix(1 0 0 1.00198 3878 408)"/><path d="M362.919 1.0256C362.316 4.96946 361.735 8.77691 361.108 12.8583L358.591 12.8583C348.054 12.8583 337.516 12.8613 326.979 12.8674 325.505 12.8455 324.03 12.9134 322.564 13.0705 318.257 13.6077 315.974 16.2967 316.169 20.4715 316.365 24.6033 318.943 27.3416 323.106 27.4565 328.44 27.6041 333.784 27.4485 339.12 27.5646 341.504 27.5825 343.881 27.8254 346.221 28.2895 355.054 30.1829 360.663 37.2488 360.533 46.2967 360.519 48.6116 360.241 50.9174 359.706 53.1697 357.912 60.402 352.622 63.8874 345.77 65.2355 342.258 65.9188 338.689 66.2648 335.11 66.269 311.719 66.3177 288.325 66.3676 264.935 66.1417 250.347 66.0008 240.695 56.5248 239.867 41.9862 239.459 34.836 239.126 27.6596 241.118 20.6413 244.413 9.04122 253.475 1.9759 265.555 1.76195 272.92 1.63122 280.289 1.73762 287.814 1.73762 287.222 5.7743 286.655 9.64175 286.049 13.7775 283.216 13.7775 280.424 13.7718 277.633 13.7775 274.893 13.7848 272.15 13.7277 269.414 13.8386 264.463 14.0401 260.768 16.4185 258.894 20.9702 257.804 23.5502 257.175 26.3022 257.039 29.1001 256.875 34.1969 256.812 39.3843 257.574 44.4018 258.457 50.2027 262.441 53.645 268.27 53.9965 275.131 54.4103 282.024 54.2993 288.906 54.3237 304.009 54.3777 319.111 54.3975 334.215 54.3832 335.337 54.4096 336.459 54.3326 337.566 54.1533 342.136 53.2993 344.755 49.9276 344.374 45.4868 344 41.0867 340.855 38.2421 336.156 38.1628 329.556 38.0497 322.945 38.1979 316.356 37.856 308.539 37.4507 302.875 33.0525 300.838 26.3568 298.48 18.6026 300.636 10.4347 306.279 6.03748 310.781 2.52831 316.112 1.07654 321.637 0.976925 335.119 0.732981 348.608 0.845613 362.095 0.822408 362.376 0.863917 362.652 0.931952 362.919 1.0256Z" fill="#26292C" transform="matrix(1 0 0 1.00198 3878 408)"/><path d="M213.718 0 0 0 0 70.8179 213.718 70.8179 213.718 0Z" fill="#008BCF" transform="matrix(1 0 0 1.00198 3878 408)"/><path d="M213.718 96.5356 0 96.5356 0 167.354 213.718 167.354 213.718 96.5356Z" fill="#80AA2C" transform="matrix(1 0 0 1.00198 3878 408)"/><path d="M505.42 168.613C500.179 167.665 494.949 166.627 489.685 165.824 488.224 165.598 486.636 165.968 485.139 166.244 478.751 167.425 472.372 168.185 465.952 166.491 458.33 164.478 454 159.116 453.741 151.352 453.471 143.302 457.188 137.537 464.966 135.363 469.566 134.077 474.462 133.748 479.256 133.304 482.517 133.002 485.827 133.248 489.077 133.248 490.653 126.569 487.574 122.396 480.936 122.28 473.625 122.152 466.604 123.799 459.732 126.164 459.08 126.391 458.416 126.576 457.557 126.843 456.967 122.846 456.398 118.995 455.808 114.997 467.167 111.354 478.454 108.077 490.484 110.479 499.264 112.233 503.922 117.287 505.046 126.106 505.143 126.652 505.267 127.193 505.42 127.726L505.42 168.613ZM483.265 142.912 483.213 142.655C480.185 143.079 477.071 143.196 474.153 144.013 471.129 144.859 469.724 147.702 469.999 151.001 470.233 153.826 471.914 156.116 474.964 156.398 478.147 156.648 481.35 156.474 484.486 155.877 489.702 154.948 489.704 154.767 489.655 149.418 489.635 147.349 490.173 144.614 489.092 143.413 488.138 142.355 485.282 143.012 483.265 142.912Z" fill="#26292C" transform="matrix(1 0 0 1.00198 3878 408)"/><path d="M321.04 166.771 304.508 166.771 304.508 164.183C304.508 153.646 304.505 143.108 304.502 132.57 304.523 131.446 304.477 130.322 304.365 129.204 303.983 126.015 301.918 123.849 298.808 123.513 295.243 123.077 291.628 123.696 288.411 125.295 288.52 129.937 288.688 134.313 288.711 138.692 288.759 147.262 288.725 155.833 288.725 164.404L288.725 166.775 272.231 166.775 272.231 164.35C272.231 153.812 272.131 143.273 272.262 132.737 272.364 124.533 268.688 122.4 261.006 123.749 256.399 124.558 256.421 124.677 256.421 129.286L256.421 166.698 239.64 166.698 239.64 164.159C239.64 150.529 239.64 136.9 239.64 123.272 239.645 116.361 241.399 114.026 248.096 112.193 256.375 109.929 264.768 108.819 273.288 110.517 275.601 111.056 277.834 111.9 279.927 113.028 280.847 113.614 282.003 113.69 282.992 113.229 291.109 109.812 299.495 108.761 308.116 110.868 315.681 112.716 320.419 118.036 320.698 125.8 321.086 136.605 320.956 147.428 321.037 158.243 321.059 161.041 321.04 163.838 321.04 166.771Z" fill="#26292C" transform="matrix(1 0 0 1.00198 3878 408)"/><path d="M427.716 112.166 427.716 109.706C427.716 102.824 427.733 95.943 427.702 89.0617 427.696 87.9607 427.84 87.2017 429.146 86.9929 434.127 86.1948 439.098 85.3272 444.383 84.4324L444.383 86.8028C444.383 109.413 444.381 132.024 444.378 154.634 444.378 161.109 442.958 163.087 436.788 164.984 428.843 167.442 420.443 168.07 412.22 166.822 400.231 165.037 392.214 156.012 391.258 143.421 390.847 138.013 391.015 132.631 392.42 127.327 395.238 116.687 402.817 110.37 413.801 110.147 417.53 110.071 421.282 110.965 425.019 111.46 425.931 111.643 426.831 111.878 427.716 112.166ZM427.716 139.107 427.716 130.9C427.716 123.377 427.716 123.377 420.109 122.702 414.228 122.181 409.944 125.032 408.449 130.72 407.068 135.9 407.08 141.354 408.486 146.527 410.05 152.348 414.037 155.288 420.063 155.175 421.874 155.143 423.674 154.741 425.486 154.603 427.194 154.471 427.829 153.761 427.765 151.943 427.613 147.666 427.716 143.384 427.716 139.105L427.716 139.107Z" fill="#26292C" transform="matrix(1 0 0 1.00198 3878 408)"/><path d="M365.849 133.265C366.393 124.832 363.793 122.054 355.75 122.279 349.1 122.466 342.688 123.962 336.419 126.128 335.766 126.354 335.102 126.551 334.138 126.859 333.598 123.089 333.049 119.444 332.601 115.785 332.686 115.292 333.011 114.873 333.466 114.669 342.513 111.765 351.635 109.221 361.284 109.719 362.758 109.79 364.225 109.95 365.68 110.196 376.542 112.077 381.683 118.034 381.772 129.132 381.874 141.777 381.798 154.424 381.797 167.069 381.797 167.486 381.754 167.902 381.717 168.556 379.866 168.24 378.077 168.059 376.354 167.621 369.714 165.832 362.747 165.634 356.015 167.041 351.028 168.089 345.848 167.747 341.041 166.051 334.205 163.691 330.505 158.602 330.291 151.3 330.07 143.853 333.311 138.619 339.969 135.812 344.509 133.898 349.332 133.403 354.191 133.286 358.036 133.191 361.884 133.265 365.849 133.265ZM366.189 143.332C361.378 143.332 356.946 143.043 352.573 143.417 348.582 143.757 346.302 146.87 346.495 150.695 346.676 154.241 349.243 156.921 353.259 156.725 357.276 156.529 361.256 155.52 365.238 154.782 365.712 154.585 366.054 154.161 366.148 153.655 366.221 150.228 366.192 146.798 366.192 143.332L366.189 143.332Z" fill="#26292C" transform="matrix(1 0 0 1.00198 3878 408)"/></g></g></g></g></svg>
