<svg xmlns="http://www.w3.org/2000/svg" viewBox="0 0 1841 176">
  <defs>
    <clipPath>
      <path d="M2685 328h1841v176H2685z"/>
    </clipPath>
  </defs>
  <g transform="translate(-2685 -328)">
    <path d="M4294.61 397.583c1.33 0 2.43.451 3.31 1.352.89.901 1.33 2.015 1.33 3.343 0 1.328-.44 2.434-1.33 3.32-.88.885-1.98 1.328-3.31 1.328-1.32 0-2.42-.443-3.31-1.328-.88-.886-1.32-1.992-1.32-3.32 0-1.328.44-2.442 1.32-3.343.89-.901 1.99-1.352 3.31-1.352Zm-13.05 0c1.32 0 2.44.451 3.33 1.352.9.901 1.35 2.015 1.35 3.343 0 1.328-.45 2.434-1.35 3.32-.89.885-2.01 1.328-3.33 1.328-1.32 0-2.43-.443-3.31-1.328-.88-.886-1.33-1.992-1.33-3.32 0-1.328.45-2.442 1.33-3.343.88-.901 1.99-1.352 3.31-1.352Zm46.46-40.832c-1.39 0-2.7.277-3.93.83-1.23.553-2.31 1.289-3.24 2.205-.93.917-1.65 2-2.17 3.249s-.78 2.553-.78 3.912l.04 12.046c1.14.253 2.13.451 2.98.593.86.142 1.64.245 2.37.308.72.063 1.42.103 2.08.118.66.016 1.37.024 2.13.024h.52c1.7 0 3.41-.087 5.13-.261 1.72-.173 3.44-.434 5.18-.782.06-1.043.11-2.245.14-3.604.03-1.36.05-2.577.05-3.652 0-2.087-.03-4.229-.1-6.426-.06-2.197-.12-4.244-.19-6.141v-.474c0-.222 0-.451-.02-.688-.02-.237-.02-.467-.02-.688v-.521Zm0-8.489h12.91c.79 0 1.53.15 2.22.451.7.3 1.29.703 1.8 1.209.5.506.91 1.115 1.21 1.826.29.711.44 1.462.44 2.253 0 1.201.02 2.474.05 3.817.03 1.344.08 2.727.14 4.15.07 1.644.13 3.328.19 5.05.07 1.724.1 3.502.1 5.335 0 1.961-.05 3.937-.14 5.929l-.05 1.185H4391.06c-.19-3.667-.75-6.774-1.68-9.319-.93-2.545-2.1-4.639-3.52-6.283-1.42-1.644-3.03-2.925-4.83-3.842-1.79-.916-3.65-1.588-5.58-2.015-1.92-.427-3.84-.688-5.77-.783-1.92-.094-3.72-.142-5.39-.142-.5 0-1.01.008-1.51.024-.51.015-.98.008-1.42-.024l.71-8.489c.85.063 1.58.103 2.2.119.61.016 1.41.039 2.39.071 2.24.095 4.58.229 7.04.403 2.46.174 4.89.585 7.29 1.233 2.39.648 4.68 1.604 6.85 2.869 2.18 1.265 4.11 3.019 5.8 5.264 1.69 2.245 3.06 5.067 4.11 8.465 1.06 3.399 1.67 7.549 1.82 12.449h20.31v-29.592h8.46v33.434c.04.126.05.268.05.426 0 1.202-.41 2.213-1.23 3.035-.82.822-1.83 1.233-3.02 1.233h-78.39c-.69 3.257-1.67 6.324-2.93 9.201-1.26 2.877-2.91 5.39-4.94 7.54-2.03 2.15-4.49 3.873-7.38 5.169-2.88 1.296-6.3 1.992-10.24 2.087v-8.536c2.59-.095 4.79-.553 6.62-1.375 1.83-.823 3.4-1.921 4.71-3.297 1.31-1.375 2.4-2.987 3.29-4.837.88-1.849 1.67-3.849 2.36-5.999-1.7.19-3.33.34-4.87.451-1.55.11-3 .166-4.35.166-1.36 0-2.69-.048-4-.143-1.31-.094-2.62-.221-3.95-.379h.05c-.25-.063-.54-.111-.85-.142-.32-.032-.62-.079-.9-.143-1.04-.158-2.1-.34-3.17-.545-1.07-.205-2.03-.498-2.88-.877-.86-.38-1.55-.87-2.08-1.471-.54-.6-.81-1.406-.81-2.418v-15.508c0-2.561.48-4.979 1.44-7.255.97-2.277 2.29-4.261 3.98-5.952 1.68-1.692 3.65-3.028 5.91-4.008 2.25-.98 4.67-1.47 7.26-1.47Zm97.3-16.836c.66 0 1.27.119 1.84.356.57.237 1.07.569 1.49.996.43.427.76.925 1 1.494.23.569.35 1.185.35 1.849 0 .664-.12 1.273-.35 1.826-.24.554-.57 1.043-1 1.47-.42.427-.92.759-1.49.996s-1.18.356-1.84.356c-1.3 0-2.38-.443-3.27-1.328-.88-.885-1.32-1.992-1.32-3.32 0-1.327.44-2.442 1.32-3.343.89-.901 1.97-1.352 3.27-1.352Zm-13.01 0c1.33 0 2.43.451 3.31 1.352.89.901 1.33 2.016 1.33 3.343 0 1.328-.44 2.435-1.33 3.32-.88.885-1.98 1.328-3.31 1.328-1.32 0-2.43-.443-3.31-1.328-.88-.885-1.32-1.992-1.32-3.32 0-1.327.44-2.442 1.32-3.343.88-.901 1.99-1.352 3.31-1.352ZM4259.98 331h8.56v48.467H4293.05v-29.592h8.47v33.434c.03.126.04.268.04.426 0 .601-.11 1.162-.33 1.684-.22.522-.52.972-.92 1.351-.39.38-.85.68-1.37.902-.52.221-1.08.331-1.68.331h-28.86c-.38 2.688-1.2 5.051-2.46 7.091-1.26 2.038-2.79 3.746-4.59 5.121-1.8 1.376-3.78 2.419-5.96 3.13-2.18.711-4.4 1.067-6.67 1.067-2.49 0-4.92-.403-7.28-1.209-2.37-.806-4.47-1.992-6.32-3.557-1.84-1.565-3.32-3.509-4.44-5.833-1.12-2.324-1.68-5.003-1.68-8.038v-17.026h8.51v17.026c0 1.738.32 3.24.95 4.505.63 1.265 1.47 2.316 2.53 3.154 1.06.837 2.25 1.454 3.59 1.849 1.34.395 2.72.593 4.14.593 1.45 0 2.86-.198 4.21-.593 1.36-.395 2.55-1.012 3.6-1.849 1.04-.838 1.87-1.889 2.5-3.154.63-1.265.95-2.767.95-4.505ZM4260.55 484.744c.66 0 1.26.118 1.82.353.55.236 1.04.565 1.46.989.43.424.76.918 1 1.483.23.565.35 1.177.35 1.837 0 1.287-.44 2.37-1.32 3.249-.89.878-1.99 1.318-3.31 1.318-1.33 0-2.43-.44-3.31-1.318-.89-.879-1.33-1.962-1.33-3.249 0-.66.12-1.272.36-1.837.23-.565.56-1.059.99-1.483.43-.424.91-.753 1.47-.989.55-.235 1.15-.353 1.82-.353Zm-13.05 0c.66 0 1.27.118 1.84.353.57.236 1.06.565 1.49.989.42.424.76.918.99 1.483.24.565.36 1.177.36 1.837 0 1.287-.45 2.37-1.35 3.249-.9.878-2.01 1.318-3.33 1.318-1.33 0-2.43-.44-3.31-1.318-.89-.879-1.33-1.962-1.33-3.249 0-.66.12-1.272.36-1.837.23-.565.56-1.059.99-1.483.42-.424.91-.753 1.46-.989.56-.235 1.16-.353 1.83-.353Zm97.9-39.552c-1.7 0-3.17.329-4.4.988-1.23.659-2.24 1.523-3.05 2.59-.8 1.067-1.39 2.276-1.77 3.626-.38 1.35-.57 2.715-.57 4.096 0 .817.07 1.64.19 2.472.13.832.35 1.64.66 2.425.32.879.75 1.703 1.28 2.472.54.769 1.18 1.436 1.92 2.001s1.59 1.013 2.55 1.343c.96.329 2.02.494 3.19.494h9.98v-22.507Zm161.4-.048c-1.23 0-2.42.283-3.59.848s-2.21 1.295-3.12 2.19c-.92.894-1.65 1.922-2.2 3.084-.55 1.161-.83 2.354-.83 3.578v12.855h20.43v-22.413c-.85 0-1.71-.008-2.58-.024-.87-.016-1.69-.031-2.48-.047s-1.53-.023-2.22-.023h-1.61c-.82-.032-1.31-.048-1.47-.048h-.33Zm-55.23 0c-1.92 0-3.78.244-5.58.73-1.79.487-3.39 1.232-4.8 2.237-1.4 1.004-2.54 2.276-3.42 3.814-.89 1.538-1.36 3.343-1.42 5.415v10.359h30.35v-22.413c-4.85-.063-8.55-.102-11.08-.118-2.54-.016-3.89-.024-4.05-.024Zm.29-8.428c3.18.031 6.36.063 9.55.094 3.18.032 6.38.078 9.6.141.56 0 1.11.11 1.63.33.52.22.97.518 1.35.895.37.376.67.816.89 1.318.23.502.34 1.036.34 1.601v26.604h13.33v-12.808c0-2.134.48-4.3 1.44-6.498.96-2.197 2.27-4.175 3.93-5.932 1.65-1.758 3.61-3.179 5.86-4.262 2.25-1.083 4.66-1.577 7.21-1.483 2.46.031 4.93.063 7.4.094 2.48.032 4.94.078 7.4.141.57 0 1.11.11 1.63.33.52.22.97.518 1.35.895.38.376.68.816.9 1.318.22.502.33 1.036.33 1.601v30.371c0 1.318-.37 2.432-1.11 3.343-.74.91-1.77 1.365-3.1 1.365h-128.96c-.69 3.265-1.67 6.318-2.93 9.159-1.26 2.84-2.91 5.336-4.94 7.486-2.04 2.151-4.5 3.861-7.38 5.133-2.89 1.271-6.3 1.954-10.24 2.048v-8.523c2.78-.125 5.15-.643 7.12-1.553 1.97-.911 3.63-2.119 4.99-3.626 1.35-1.507 2.43-3.265 3.24-5.274.8-2.009 1.42-4.151 1.86-6.427.44-2.276.73-4.638.85-7.087.13-2.448.19-4.881.19-7.298 0-1.727-.01-3.445-.04-5.156-.03-1.711-.08-3.367-.15-4.968-.06-1.192-.11-2.354-.14-3.484-.03-1.13-.04-2.213-.04-3.249h8.46c0 .251.01.809.02 1.672.02.863.05 1.875.1 3.037.05 1.161.08 2.417.12 3.767.03 1.349.07 2.621.11 3.814.05 1.192.08 2.244.1 3.154.01.911.02 1.523.02 1.837 0 .502-.01 1.059-.02 1.671-.02.612-.03 1.233-.05 1.86-.01.628-.03 1.248-.05 1.86-.01.612-.03 1.17-.07 1.672h33.92v-30.465h8.47l.04 9.37c.35-1.161 1.03-2.331 2.04-3.508s2.22-2.236 3.64-3.178c1.42-.942 2.98-1.711 4.68-2.307 1.7-.597 3.4-.895 5.11-.895Zm-172.92 0c1.51.031 3 .063 4.47.094 1.46.032 2.95.078 4.47.141 1.19.032 2.18.471 2.95 1.319.77.847 1.16 1.852 1.16 3.013v26.416h38c-.98-1.978-1.7-3.908-2.16-5.792-.45-1.883-.68-3.688-.68-5.415 0-2.511.39-4.952 1.18-7.322.79-2.37 1.95-4.481 3.48-6.333 1.53-1.852 3.42-3.335 5.69-4.45 2.27-1.114 4.91-1.671 7.9-1.671h12.82c.78 0 1.52.157 2.22.471.69.314 1.29.738 1.8 1.271.5.534.89 1.146 1.18 1.836.28.691.42 1.429.42 2.213l.05 29.43c0 1.192-.41 2.197-1.23 3.013-.82.816-1.81 1.224-2.98 1.224h-40.08v.001h-20.24v-.001h-11.58c-1.2 0-2.2-.408-3.02-1.224-.82-.816-1.23-1.821-1.23-3.013v-26.699l-4.78-.094c-1.45 0-2.65.134-3.62.401-.96.266-1.72.698-2.29 1.294-.57.597-.97 1.382-1.21 2.355-.23.973-.35 2.166-.35 3.578l.05 18.694c0 1.318-.38 2.432-1.14 3.343-.75.91-1.81 1.365-3.17 1.365h-18.06c-3.5 0-6.46-.517-8.89-1.554-2.43-1.036-4.38-2.401-5.86-4.096-1.48-1.695-2.56-3.626-3.22-5.792-.66-2.166-.99-4.379-.99-6.639 0-2.448.28-4.819.83-7.11.55-2.291 1.23-4.285 2.05-5.98l7.52 3.955c-.53 1.193-.99 2.614-1.37 4.262-.38 1.648-.57 3.335-.57 5.061.04 1.287.19 2.504.45 3.65.27 1.145.78 2.15 1.52 3.013s1.79 1.546 3.14 2.048c1.36.503 3.15.754 5.39.754l13.86-.047v-14.927c0-5.148 1.39-9.111 4.18-11.889 2.79-2.778 6.77-4.167 11.94-4.167ZM4348.1 420c1.32 0 2.43.448 3.33 1.342.9.895 1.35 2.002 1.35 3.32s-.45 2.417-1.35 3.296c-.9.879-2.01 1.318-3.33 1.318-1.33 0-2.43-.439-3.31-1.318-.89-.879-1.33-1.978-1.33-3.296 0-1.318.44-2.425 1.33-3.32.88-.894 1.98-1.342 3.31-1.342Z" fill="#510B76"/>
    <path fill="#FC6719" d="M4453 362h63v36.0001h-63z"/>
    <path d="M4448.68 356.456h73.64v3.637h-73.64v-3.637Zm58.91 7.27h7.37v32.73h-7.37v-32.73Zm-11.05 0h7.37v32.73h-7.37v-32.73Zm-18.4 0h14.73v32.73h-14.73v-32.73Zm-11.05 0h7.37v32.73h-7.37v-32.73Zm-11.05 0h7.37v32.73h-7.37v-32.73Zm63.11 36.367 2.45 7.27h-72.2l2.45-7.27h67.3Zm-33.65-65.182 31.73 17.908h-63.46l31.73-17.908Zm38.66 28.815c1.02 0 1.84-.811 1.84-1.819v-7.27c0-.674-.39-1.241-.94-1.552l.01-.026-38.65-21.818-.02.026c-.27-.156-.57-.267-.9-.267-.33 0-.63.111-.9.267l-.02-.026-38.65 21.818.01.026c-.55.311-.94.878-.94 1.552v7.27c0 1.008.83 1.819 1.84 1.819h5.53v32.73h-1.85c-.81 0-1.48.529-1.72 1.248l-.02-.004-3.69 10.908.03.003c-.07.185-.12.371-.12.571 0 1.007.83 1.818 1.84 1.818h77.32c1.02 0 1.84-.811 1.84-1.818 0-.2-.05-.386-.12-.571l.03-.003-3.69-10.908-.02.004c-.24-.719-.91-1.248-1.72-1.248h-1.84v-32.73h5.52Z" fill="#510B76"/>
    <path d="M2785 350h75v134h-75Z" fill="#F36B2B" fill-rule="evenodd"/>
    <path d="M2789.77 416.521c0-25.932 11.92-50.512 32.23-66.449-36.83-28.903-89.91-22.42-118.88 14.316-28.98 36.736-22.48 89.679 14.35 118.582 30.6 24.04 73.93 24.04 104.53 0-20.31-15.937-32.23-40.518-32.23-66.449" fill="#EE252F"/>
    <path d="M2959 416.487c0 46.712-37.91 84.513-84.75 84.513-18.95 0-37.36-6.48-52.25-18.091 36.82-28.891 43.05-81.813 14.08-118.534-4.06-5.4-8.94-9.99-14.08-14.311 36.82-28.89 89.89-22.41 118.86 14.311 11.64 14.851 18.14 33.211 18.14 52.112" fill="#F99E30"/>
    <path d="M4071.27 464.537c-15.64 9.415-36.85 7.561-48.08-4.322-6.73 3.245-12.89 7.647-19.67 9.073-6.8 1.431-14.23-.105-21.89-.357-.36 5.214-.9 11.377-1.19 17.551-.41 8.628-5.17 13.44-13.67 13.508-3.94.032-7.88.005-12.7.005 3.01-44.577 5.98-88.471 8.98-132.857 5.05 0 9.72-.348 14.31.083 6.68.627 10.62 5.154 10.26 11.995-.63 12.256-1.95 24.482-2.41 36.741-.22 5.766-.09 11.869 1.56 17.314 3.25 10.744 15.02 16.081 25.54 12.313 1.39-.501 3.23-2.368 3.27-3.655.38-11.375.08-22.777.62-34.14.6-12.604 1.87-25.177 2.86-37.76.07-.826.22-1.645.39-2.854 4.84 0 9.53-.384 14.12.09 6.93.715 10.81 6.129 10.25 13.17-1.04 13.098-2.34 26.192-2.76 39.312-.18 5.836.71 11.656 2.62 17.175 2.66 7.551 10.15 10.789 17.07 9.059 1.75-26.146 3.48-52.146 5.23-78.397 1.22-.238 2.46-.393 3.7-.463 14.37.232 28.83-.396 43.08 1.027 14.39 1.435 23.45 14.898 22.2 29.472-1.15 13.268-2 26.562-2.55 39.88-.68 17.247-13.15 30.509-30.35 31.494-4.84.277-9.79.604-14.54-.087-5.14-.753-10.11-2.663-16.25-4.37Zm18.13-71.748c-.93 12.703-1.82 24.733-2.67 36.766-1.04 14.754-1.03 14.643 13.73 14.398 4.61-.076 6.7-2.186 7.02-6.472.3-4.133.48-8.275.72-12.413.51-8.97 1.03-17.939 1.55-26.908.22-3.675-1.38-5.47-5.17-5.395-4.83.096-9.66.024-15.18.024ZM3954.08 367.035c-.39 6.979-.65 13.349-1.11 19.705-1.29 17.98-2.47 35.971-4.07 53.924-1.33 14.889-15 27.063-30.04 27.288-4.88.072-9.77.071-14.65-.004-14.44-.236-26.58-11.958-26.12-26.264.52-16.105 1.57-32.223 3.18-48.256 1.39-13.831 14.96-25.167 30.18-26.358 1.56-.122 3.14-.034 4.71-.034 12.36-.002 24.72-.001 37.92-.001Zm-26.78 25.761c-5.78 0-10.46.098-15.14-.029-4.45-.12-6.07 1.984-6.32 6.28-.71 12.254-1.67 24.495-2.69 36.729-.3 3.567.24 6.196 4.34 6.845 9.35 1.479 15.44.121 16.45-3.744.08-.513.12-1.032.11-1.552.68-9.833 1.38-19.666 2.07-29.499.35-4.77.75-9.536 1.18-15.03Z" fill="#510B76"/>
    <path d="M4130.06 476.574c-.3 4.826-.33 9.741-.98 14.573-.73 5.321-5.64 9.774-11.04 9.799-23.41.112-46.82 0-70.23-.049-.31 0-.62-.237-1.75-.699.47-5.067.59-10.457 1.54-15.704.85-4.66 5.71-8.395 11.17-8.43 23.41-.15 46.83-.019 70.24.031.31.002.61.273 1.05.479Z" fill="#FC6719"/>
    <path d="M4022.03 339.54c-.31 4.496-.72 8.822-.89 13.157-.26 6.577-.58 6.886-7.89 5.533.32-4.53.56-9.153 1.01-13.751.47-4.769-1.26-6.494-6.21-4.829-.38 5.06-.97 10.215-1.07 15.384-.07 3.431-1.7 3.913-4.47 3.973-3.23.067-3.61-1.705-3.39-4.306.49-5.712 1.19-11.422 1.32-17.144.08-3.951 2.16-5.064 5.29-5.392 1.34-.14 2.7-.143 4.05-.146 5.82-.011 11.63-.018 17.45.009 7.16.034 9.55 3.056 8.66 10.55-.39 3.277-.45 6.598-.58 9.903-.24 6.669-.46 6.876-7.99 5.956.34-4.556.65-9.163 1.05-13.761.39-4.558-1.2-6.659-6.34-5.136Z" fill="#510B76"/>
    <path d="M3964.38 333.011c6.55 0 12.77-.008 18.98.014.52-.019 1.04.096 1.51.333 6.85 4.08 5 10.767 4.89 16.843-.08 4.592-2.9 7.611-7.15 8.363-3.78.607-7.63.593-11.41-.04-4.59-.719-8.28-6.09-8.12-11.392.13-4.48.8-8.947 1.3-14.121Z" fill="#FC6719"/>
    <path d="M4012.07 474.14c-.34 5.954-.41 11.124-.96 16.244-.83 7.69-7.39 11.585-17.01 10.401-6.21-.764-9.58-5.73-8.96-12.944.88-10.235 5.63-14.567 15.57-13.75 3.64.3 7.33.049 11.36.049ZM4041.07 474.145c-.36 6.047-.3 11.568-1.1 16.965-1.08 7.311-7.95 10.94-17.15 9.615-6.12-.883-9.32-5.97-8.67-13.145.94-10.384 6.05-14.295 15.79-13.482 3.63.302 7.32.047 11.13.047ZM3921.08 333.009c-.47 6.414-.52 11.975-1.37 17.414-1 6.427-7.91 9.624-16.76 8.285-5.73-.866-8.36-4.751-7.8-11.492.99-11.83 3.57-14.199 15.48-14.205 3.2-.003 6.4-.002 10.45-.002ZM3951.08 333.01c-.52 6.472-.51 12.2-1.53 17.754-1.16 6.272-8.09 9.2-17.19 7.968-5.84-.79-8.4-4.165-8.28-10.904.2-11.677 3.58-14.81 15.97-14.818 3.34-.002 6.69 0 11.03 0ZM4089.05 347.964h-17.21c4.17 6.688 9.88 2.509 14.14 4.72 1.82 2.737 1.04 5.097-3.93 5.929-2.23.325-4.47.45-6.72.375-8.07-.112-10.53-2.75-10.25-10.795.03-.869.16-1.733.2-2.601.57-11.258 4.15-14.373 15.41-13.422 6.02.508 8.26 2.906 8.35 8.952.03 1.898.01 3.798.01 6.842Zm-8.46-4.868c.67-.138 1.29-.966 1.1-1.432-.37-.88-2.46-2.389-3.64-2.342-1.66.066-4.4 1.151-4.91 2.066-.15.617-.07 1.632.61 1.708ZM4062.05 347.975h-17.21c4.17 6.693 9.89 2.511 14.14 4.723 1.82 2.739.31 5.671-3.93 5.934-2.24.139-4.48.405-6.71.375-8.07-.112-10.54-2.752-10.26-10.803.04-.869.16-1.734.21-2.603.57-11.265 4.14-14.383 15.41-13.431 6.01.508 8.26 2.908 8.35 8.958.03 1.9 0 3.801 0 6.847Zm-8.46-4.872c.67-.137 1.29-.966 1.11-1.432-.38-.881-2.46-2.391-3.64-2.344-1.67.067-4.41 1.152-4.92 2.067-.15.618-.07 1.633.61 1.709ZM4118.92 338.26c-1.65-4.026.08-5.474 3.44-5.877.52-.064 1.03-.12 1.55-.164 13.38-1.12 16.46 2.011 14.69 14.835-.43 3.14-.67 6.305-1.09 10.318-5.28.234-10.57.745-15.83.616-4.44-.108-6.92-2.476-6.6-7.187.31-4.365 1.7-7.545 6.9-7.674 1.56.058 3.12-.048 4.65-.314 1.44-.349 2.98-.276 4.35-.904.66-3.843-2.1-2.877-4.2-2.892-2.7-.024-5.4-.545-7.86-.757Zm10.89 10.071s-6.74-.257-6.83 1.2c.2 1.644 1.73 2.818 3.43 2.624.03-.004.07-.009.11-.014 3.27-.371 4.68-.09 3.29-3.811ZM4092.04 332.014h21v7h-21ZM4091.04 352.014h21v6h-21Z" fill="#510B76"/>
    <path d="m4090.88 351.624 17.31-17.666 4.83 4.735-17.31 17.665Z" fill="#510B76" fill-rule="evenodd"/>
    <path d="M3555.55 501.315c-12.59 0-25.19-.051-37.79.051-2.11 0-2.9-.545-3.29-2.655-1.26-6.898-2.84-13.734-4.1-20.591-.31-1.637-.79-2.235-2.55-2.224-17.36.069-34.73.069-52.09 0-1.71 0-2.26.679-2.77 2.121-2.49 7.124-5.13 14.217-7.65 21.311-.39 1.081-.62 2.059-2.28 2.059-14.49-.081-28.96-.051-43.45-.072-.25-.065-.5-.16-.73-.288.66-1.637 1.31-3.285 1.99-4.922 20.78-49.657 41.53-99.325 62.27-149.003 1.53-4.614 4.53-8.594 8.53-11.325 4.01-2.73 8.8-4.058 13.64-3.779 10.89 0 21.77 0 32.66-.083 1.95 0 2.59.618 2.97 2.43 5.22 25.396 10.48 50.75 15.78 76.063 6.16 29.575 12.32 59.153 18.47 88.734 0 .216.31.382.48.568l-.09 1.605Zm-65.98-123.461-23.23 63.45h34.67c1.76 0 1.51-.71 1.25-1.946-2.36-11.263-4.65-22.526-6.96-33.8-1.87-9.018-3.78-18.078-5.73-27.704Zm-111.66-49.016c4.29.72 8.59 1.369 12.86 2.172 5.29 1.008 10.49 2.457 15.54 4.334 1.03.381 1.94.577 1.67 2.162-1.88 11.088-3.64 22.196-5.47 33.285-.09.524-.27 1.03-.46 1.72-5.99-2.929-12.3-5.131-18.81-6.559-10.03-2.316-20.45-2.256-30.46.175-3.5.888-6.69 2.768-9.17 5.416-.96.95-1.73 2.082-2.26 3.332-.53 1.25-.81 2.593-.82 3.951-.01 1.358.25 2.704.76 3.961.51 1.257 1.26 2.401 2.22 3.364 3.49 3.521 7.55 6.43 12 8.607 8.48 4.142 16.73 8.73 24.72 13.745 10.09 6.038 17.4 15.822 20.35 27.231 2.1 9.018 1.66 18.444-1.27 27.226-2.94 8.781-8.24 16.572-15.33 22.5-10.75 9.183-23.95 14.995-37.97 16.71-22.22 3.463-44.96 1.341-66.18-6.178-2.31-.792-2.9-1.718-2.46-4.211 1.95-10.984 3.71-22 5.36-33.037.31-2.059.96-1.77 2.34-1.112 9.16 4.821 19.04 8.123 29.25 9.78 9.23 1.699 18.71 1.443 27.84-.751 3.75-.983 7.2-2.915 10-5.611 1.22-1.138 2.21-2.512 2.89-4.04.68-1.528 1.06-3.179 1.09-4.853.03-1.675-.27-3.34-.89-4.895-.62-1.555-1.55-2.968-2.72-4.156-4.45-4.358-9.63-7.88-15.32-10.399-7.81-3.662-15.29-8.002-22.35-12.972-9.66-6.194-16.48-15.985-18.96-27.221-1.39-7.621-.88-15.471 1.47-22.849 2.36-7.379 6.5-14.058 12.06-19.444 10.29-10.088 23.39-16.813 37.57-19.294 3.87-.461 7.7-1.176 11.48-2.141l19.43.052Zm-257.04 92.503c2.55 8.236 3.46 16.823 5.54 25.245 1.02-.721 1.02-1.853 1.41-2.79 13.55-36.473 27.07-72.957 40.55-109.451.16-.764.6-1.441 1.23-1.894.63-.452 1.42-.648 2.19-.546 13.67.093 27.34 0 41.04 0h2.71c-2.34 5.797-4.54 11.325-6.77 16.761-20.29 49.953-40.57 99.91-60.85 149.87-.2.846-.71 1.588-1.43 2.081-.71.492-1.58.701-2.45.585-13.58-.124-27.17-.124-40.75 0-.4.077-.81.069-1.21-.025-.39-.092-.77-.267-1.09-.514-.33-.247-.6-.558-.79-.916-.2-.358-.32-.753-.36-1.16-12.64-47.976-25.32-95.939-38.04-143.888 0-.175-.1-.34-.16-.515.71.361 1.46.66 2.14 1.03 9.79 5.887 18.84 12.909 26.99 20.92 13.03 12.83 23.27 28.22 30.1 45.207Zm106.81 79.963c-6.39 0-12.77-.102-19.16.053-2.26.051-2.65-.649-2.3-2.699 2.29-13.754 4.49-27.518 6.72-41.283 3.69-22.821 7.37-45.643 11.06-68.464 2.94-18.202 5.86-36.411 8.76-54.627.27-1.658.77-2.4 2.68-2.389 13.04.096 26.09.096 39.13 0 1.93 0 2.33.35 2 2.389-6.56 40.124-13.06 80.276-19.49 120.455-2.39 14.836-4.8 29.661-7.09 44.506-.28 1.751-.96 2.153-2.6 2.132-6.56-.124-13.13-.073-19.71-.073Z" fill="#1A1F71"/>
    <path d="M3120.53 420.787c-6.82-16.885-17.04-32.18-30.03-44.93-8.14-7.977-17.18-14.968-26.95-20.831-.68-.41-1.42-.717-2.14-1.025-6.81-4.31-14.03-7.929-21.55-10.804-7.3-2.989-14.78-5.492-22.41-7.494-.85-.225-2.12-.123-1.75-1.732.3-1.302.55-2.194 2.34-2.184 23.43.113 46.84 0 70.27.215 4.52-.3 8.97 1.194 12.39 4.157 3.42 2.962 5.54 7.156 5.89 11.671 4.53 23.28 9.17 46.551 13.76 69.821.31 1.015.37 2.091.18 3.136Z" fill="#F8920F"/>
    <path d="m3771.8 383.228-90.28 98.558h-33.14c-2.29 0-4.13-2.294-3.67-4.606l22.09-139.87c.45-3.229 3.21-5.524 6.43-5.524h56.12c38.63 1.377 49.21 21.159 42.32 51.53Z" fill="#002C8A"/>
    <path d="M3774.16 373.785c13.89 7.383 17.12 21.225 12.49 39.699-6 27.223-24.07 38.758-50.46 39.22l-7.4.461c-2.79 0-4.64 1.846-5.09 4.614l-6.02 36.469c-.47 3.23-3.26 5.537-6.49 5.537h-27.79c-2.3 0-4.16-2.307-3.7-4.614l10.19-65.999c.46-2.307 84.27-55.387 84.27-55.387Z" fill="#009BE1"/>
    <path d="m3688.64 432.785 9.29-58.898c.62-2.862 3.1-4.96 6.04-5.102h44.59c10.68 0 18.58 1.849 25.08 5.102-2.32 20.409-12.08 53.334-59.45 54.258h-20.44c-2.33 0-4.65 1.849-5.11 4.64Z" fill="#001F6B"/>
  </g>
</svg>
