<svg viewBox="0 0 130 35" xmlns="http://www.w3.org/2000/svg" width="130" height="45">
<style>.st1{fill:#353535;}</style>
<g>
	<defs>
		<rect id="SVGID_1_" x="22.6" y="4.3" width="84.8" height="36.4"/>
	</defs>
	
	<g class="st0">
		<path class="st1" d="M85.1,35.6c0.3,0,0.6-0.1,1-0.2c0.3-0.1,0.6-0.3,0.9-0.5c0.3-0.2,0.4-0.4,0.5-0.7c0.1-0.2,0-0.8-0.3-1.6    c-0.3-0.8-0.6-1.7-1.1-2.6c-0.4-0.9-0.9-1.7-1.3-2.5c-0.4-0.8-0.8-1.2-1-1.4c-0.2-0.2-0.6-0.3-1-0.4c-0.4-0.1-0.8,0-1.2,0    c-0.4,0.1-0.8,0.2-1.1,0.3c-0.3,0.2-0.5,0.4-0.5,0.6c0,0.3,0.1,0.8,0.5,1.3c0.4,0.6,0.7,1.1,1.2,1.7c0.4,0.6,0.8,1,1.1,1.5    c0.3,0.4,0.4,0.6,0.3,0.6c-0.1,0-0.3-0.2-0.7-0.5c-0.3-0.3-0.7-0.8-1.1-1.3c-0.4-0.5-0.9-1.1-1.4-1.7c-0.5-0.6-1-1.2-1.4-1.7    c-0.5-0.5-0.9-1-1.2-1.4c-0.4-0.4-0.6-0.6-0.7-0.7c-0.3-0.1-0.7-0.2-1-0.2c-0.4,0-0.7,0.1-1.1,0.2s-0.6,0.3-0.9,0.5    c-0.2,0.2-0.4,0.4-0.5,0.6c-0.1,0.5,0.1,1.2,0.6,2.1c0.5,0.9,1.1,2,1.9,3.3c-0.9-1.2-1.8-2.4-2.6-3.4c-0.7-0.9-5.1-6.4-5.4-6.6    c-0.2-0.2-0.6-0.3-1-0.3c-0.4,0-0.9,0.1-1.3,0.3c-0.4,0.2-0.8,0.5-1.1,0.8c-0.3,0.3-0.5,0.7-0.5,1.1c0,0.2,0.1,0.5,0.4,0.9    c0.2,0.4,3.7,5,4.1,5.6c0.4,0.5,0.7,1,1,1.5c0.3,0.4,0.5,0.8,0.6,1c0.1,0.2,0,0.4-0.2,0.3c-0.1,0-0.4-0.3-0.9-0.7    c-2.2-2.6-4.3-5.2-6.2-7.7c-2-2.5-9.4-13.1-9.7-13.5c-0.3-0.4-0.5-0.7-0.7-1c-0.2-0.2-0.3-0.4-0.5-0.5c-0.1-0.1-0.4-0.2-0.7-0.1    c-0.3,0.1-0.6,0.2-1,0.4C49.5,9.5,49.2,9.7,49,10c-0.2,0.3-0.3,0.6-0.3,1c0,0.2,0.2,0.6,0.7,1.3c0.5,0.7,6.4,8.5,7.5,9.9    c1.1,1.4,1.7,2.3,2.8,3.7c1.1,1.4,2.1,2.6,3.1,3.7c0.9,1.1,1.7,2.1,2.4,2.9c0.7,0.8,0.9,0.9,1.2,1.2c0.7,0.6,1.7,0.9,2.2,0.9    c0.3,0,0.5,0.1,0.8,0c0.6,0,1.2-0.1,1.7-0.3c0.5-0.2,1-0.5,1.4-0.8c0.4-0.3,0.6-0.7,0.7-1c0-0.2,0-0.4-0.1-0.8    c-0.1-0.3-0.2-0.7-0.4-1c-0.2-0.4-0.3-0.7-0.5-1c-0.1-0.3-0.2-0.5-0.3-0.6c0.3,0.4,0.7,0.9,1.1,1.5c0.4,0.6,0.9,1.2,1.4,1.7    c0.5,0.6,0.9,1.1,1.4,1.5c0.4,0.4,0.8,0.7,1.1,0.7c0.5,0.2,1,0.1,1.5-0.2c0.6-0.3,0.9-0.6,0.9-1c0-0.1,0-0.4-0.2-0.9    c-0.1-0.4-0.3-0.9-0.5-1.3c-0.2-0.5-0.4-0.9-0.5-1.4c-0.2-0.4-0.3-0.7-0.3-0.9c1,1.2,2,2.3,2.8,3.2c0.7,0.8,1.5,1.6,2.1,2.2    c0.7,0.7,1.1,1,1.3,1.1C84.5,35.6,84.8,35.7,85.1,35.6z"/>
		<path class="st1" d="M58.1,26.5c-1.9-2.6-6.3-8-6.8-8.7c-0.5-0.7-0.9-1.1-1.1-1.3c-0.2-0.2-0.6-0.2-1-0.3c-0.4,0-0.8,0-1.2,0.1    c-0.4,0.1-0.8,0.2-1.1,0.4c-0.3,0.2-0.4,0.4-0.4,0.7c0,0.3,0.2,0.8,0.6,1.3c0.4,0.5,8.7,10.7,9.2,11.2c0.5,0.5,0.9,1,1.2,1.4    c0.4,0.4,0.5,0.6,0.4,0.6s-0.3-0.2-0.7-0.5c-0.4-0.3-0.8-0.7-1.2-1.2c-0.5-0.5-1-1-1.5-1.5c-0.5-0.6-1.1-1.1-1.6-1.6    c-0.5-0.5-0.9-0.9-1.3-1.3c-0.4-0.4-0.7-0.6-0.8-0.6c-0.3-0.1-0.7-0.1-1-0.1c-0.4,0.1-0.7,0.2-1.1,0.3c-0.3,0.1-0.6,0.3-0.9,0.6    c-0.2,0.2-0.4,0.5-0.4,0.7c-0.1,0.5,0.2,1.1,0.8,2c0.6,0.9,1.3,1.9,2.1,3.1c-1-1.2-2-2.2-2.9-3.2c-0.5-0.5-2.3-2.4-3.8-4    c-1.1-1.1-2-2.1-2.1-2.2c-0.2-0.2-0.6-0.3-1-0.2c-0.4,0.1-0.8,0.2-1.2,0.4c-0.4,0.2-0.7,0.5-1,0.9c-0.3,0.4-0.4,0.7-0.4,1.1    c0,0.2,0.2,0.5,0.5,0.9c0.3,0.4,4.1,4.7,4.5,5.2c0.4,0.5,0.8,1,1.1,1.4c0.3,0.4,0.5,0.7,0.6,1c0.1,0.2,0.1,0.3-0.1,0.3    c-0.1,0-0.4-0.2-0.9-0.6C41,30.1,38.9,27.5,37,25c-1.9-2.5-3.6-4.7-4.9-6.4l-2.8-3.8c-0.7-1-1.2-1.9-1.7-2.5    c-0.5-0.7-0.8-1.2-1.1-1.6c-0.3-0.4-0.5-0.7-0.7-1c-0.2-0.2-0.3-0.4-0.5-0.5c-0.1-0.1-0.4-0.2-0.7-0.1c-0.3,0.1-0.6,0.2-1,0.4    c-0.3,0.2-0.6,0.4-0.9,0.7c-0.2,0.3-0.3,0.6-0.3,1c0,0.2,0.2,0.6,0.7,1.3c0.5,0.7,1.1,1.6,1.9,2.7c0.8,1.1,1.7,2.3,2.7,3.6    c1,1.3,2.1,2.7,3.2,4.1c1.1,1.4,2.2,2.8,3.3,4.1c1.1,1.4,2.1,2.6,3,3.7c0.9,1.1,1.7,2.1,2.4,2.9c0.7,0.8,0.9,0.9,1.2,1.2    c0.6,0.6,1.6,0.9,2.1,0.9c0.4,0.1,0.8,0.1,1.2,0c0.6-0.1,1.2-0.2,1.7-0.5c0.5-0.2,1-0.5,1.3-0.9c0.4-0.4,0.6-0.7,0.6-1.1    c0-0.2,0-0.4-0.2-0.7c-0.1-0.3-0.3-0.6-0.5-1c-0.2-0.3-0.4-0.7-0.5-0.9c-0.2-0.3-0.3-0.5-0.4-0.5c0.4,0.4,0.8,0.9,1.3,1.4    c0.5,0.6,1,1.1,1.5,1.6c0.5,0.5,1,1,1.5,1.4s0.9,0.6,1.2,0.7c0.5,0.1,1,0,1.5-0.3c0.5-0.3,0.8-0.7,0.8-1.1c0-0.1-0.1-0.4-0.2-0.8    c-0.2-0.4-0.4-0.9-0.6-1.3c-0.2-0.5-0.4-0.9-0.6-1.3c-0.2-0.4-0.3-0.7-0.3-0.9c1.1,1.1,2.1,2.1,3.1,3c0.8,0.8,1.6,1.5,2.3,2.1    c0.7,0.6,1.2,1,1.4,1c0.2,0.1,0.4,0.1,0.7,0c0.3-0.1,0.6-0.2,0.9-0.3c0.3-0.1,0.6-0.3,0.8-0.6c0.2-0.2,0.4-0.5,0.5-0.7    c0.1-0.2,0-0.8-0.4-1.6C61.5,31.4,58.7,27.3,58.1,26.5z"/>
		<path class="st1" d="M37.4,19.1c-0.6,0.5-1.7,1.7-0.9,2.6c1.4,1.4,2.6-0.5,3.2-1c2.1-2.1,3.9-4.2,5.5-6.4c1.2-1.7,2-3.3,2.3-4.7    c0.3-1.4,0.2-2.6-0.2-3.5c-0.5-0.9-1.3-1.5-2.5-1.7c-1.2-0.2-2.6-0.1-4.4,0.6c-1.1,0.4-2,0.9-2.6,1.7c-0.6,0.7-1,1.5-1.3,2.1    c-0.2,0.7-0.3,1.3-0.2,1.8c0.1,0.5,0.2,0.7,0.5,0.6c0.5-0.3,1.3-0.6,2.3-1c1-0.4,1.9-0.7,2.9-0.8c1.9-0.2,2.9,0.1,3.2,0.9    c0.3,0.8-0.2,1.9-1.5,3.4c-0.9,1.1-3.6,3.3-6,5.3C37.6,18.9,37.5,19,37.4,19.1z"/>
		<path class="st1" d="M106.8,4.9c-0.5-0.2-1-0.4-1.7-0.5c-0.7-0.1-1.4-0.1-2.2-0.1c-0.8,0-1.4,0.1-2,0.3c-0.3,0.1-1,0.4-2.2,0.9    C97.6,6,96,6.6,94.2,7.4c-1.8,0.7-17,6.5-18.9,7.1c-1.9,0.6-3.6,1.2-5.3,1.7L65,17.9c-1.8,0.7-2.7,1.2-2.9,1.4    c-0.3,0.4,1.3,1,2.3,0.6l5.9-2c2.6-1,5.3-2,8.2-2.9c2.8-0.9,13.7-4.3,16.2-5.1c2.4-0.7,4.6-1.4,6.5-2c1.9-0.6,3.4-1.1,4.5-1.4    c1.1-0.4,1.7-0.7,1.8-0.9C107.5,5.3,107.3,5.1,106.8,4.9z"/>
		<path class="st1" d="M87.3,37c-0.3-0.2-0.5-0.3-0.9-0.4c-0.3-0.1-0.5-0.1-0.8-0.1c-0.2,0.1-0.4,0.2-0.6,0.4    c-0.2,0.2-0.4,0.5-0.6,0.7c-0.2,0.3-0.3,0.6-0.5,0.9c-0.1,0.3-0.2,0.5-0.2,0.7c0,0.2,0,0.4,0.2,0.6c0.1,0.2,0.3,0.4,0.5,0.5    c0.2,0.1,0.5,0.3,0.7,0.4c0.3,0.1,0.5,0.1,0.7,0.1c0.2,0,0.4-0.1,0.7-0.4s0.5-0.4,0.8-0.7c0.2-0.3,0.4-0.5,0.6-0.8    c0.2-0.3,0.3-0.5,0.3-0.7c0-0.1,0-0.3-0.2-0.6C87.8,37.4,87.6,37.2,87.3,37z"/>
		<path class="st1" d="M80.8,37c-0.3-0.2-0.5-0.3-0.9-0.4c-0.3-0.1-0.5-0.1-0.8-0.1c-0.2,0.1-0.4,0.2-0.6,0.4    c-0.2,0.2-0.4,0.5-0.6,0.7c0,0,0,0,0,0.1c0,0,0,0,0,0c-0.2-0.2-0.4-0.4-0.6-0.6c-0.3-0.2-0.5-0.3-0.9-0.4    c-0.3-0.1-0.5-0.1-0.8-0.1c-0.2,0.1-0.4,0.2-0.6,0.4c-0.2,0.2-0.4,0.5-0.6,0.7s-0.3,0.6-0.5,0.9c-0.1,0.3-0.2,0.5-0.2,0.7    c0,0.2,0,0.4,0.2,0.6c0.1,0.2,0.3,0.4,0.5,0.5c0.2,0.1,0.5,0.3,0.7,0.4c0.3,0.1,0.5,0.1,0.7,0.1c0.2,0,0.4-0.1,0.7-0.4    c0.3-0.2,0.5-0.4,0.8-0.7c0,0,0.1-0.1,0.1-0.1c0,0.1,0.1,0.1,0.1,0.2c0.1,0.2,0.3,0.4,0.5,0.5c0.2,0.1,0.5,0.3,0.7,0.4    c0.3,0.1,0.5,0.1,0.7,0.1c0.2,0,0.4-0.1,0.7-0.4c0.3-0.2,0.5-0.4,0.8-0.7c0.2-0.3,0.4-0.5,0.6-0.8c0.2-0.3,0.3-0.5,0.3-0.7    c0-0.1,0-0.3-0.2-0.6C81.3,37.4,81.1,37.2,80.8,37z"/>
		<path class="st1" d="M56.7,37c-0.3-0.2-0.5-0.3-0.9-0.4c-0.3-0.1-0.5-0.1-0.8-0.1c-0.2,0.1-0.4,0.2-0.6,0.4    c-0.2,0.2-0.4,0.5-0.6,0.7c0,0,0,0,0,0.1c0,0,0,0,0,0c-0.2-0.2-0.4-0.4-0.6-0.6c-0.3-0.2-0.5-0.3-0.9-0.4    c-0.3-0.1-0.5-0.1-0.8-0.1c-0.2,0.1-0.4,0.2-0.6,0.4c-0.2,0.2-0.4,0.5-0.6,0.7s-0.3,0.6-0.5,0.9c-0.1,0.3-0.2,0.5-0.2,0.7    c0,0.2,0,0.4,0.2,0.6c0.1,0.2,0.3,0.4,0.5,0.5c0.2,0.1,0.5,0.3,0.7,0.4c0.3,0.1,0.5,0.1,0.7,0.1c0.2,0,0.4-0.1,0.7-0.4    s0.5-0.4,0.8-0.7c0,0,0.1-0.1,0.1-0.1c0,0.1,0.1,0.1,0.1,0.2c0.1,0.2,0.3,0.4,0.5,0.5c0.2,0.1,0.5,0.3,0.7,0.4    c0.3,0.1,0.5,0.1,0.7,0.1c0.2,0,0.4-0.1,0.7-0.4c0.3-0.2,0.5-0.4,0.8-0.7c0.2-0.3,0.4-0.5,0.6-0.8c0.2-0.3,0.3-0.5,0.3-0.7    c0-0.1,0-0.3-0.2-0.6C57.2,37.4,57,37.2,56.7,37z"/>
	</g>
</g>
</svg>