<?xml version="1.0" encoding="UTF-8" standalone="no"?>
<!-- Created with Inkscape (http://www.inkscape.org/) -->

<svg
   xmlns:dc="http://purl.org/dc/elements/1.1/"
   xmlns:cc="http://creativecommons.org/ns#"
   xmlns:rdf="http://www.w3.org/1999/02/22-rdf-syntax-ns#"
   xmlns:svg="http://www.w3.org/2000/svg"
   xmlns="http://www.w3.org/2000/svg"
   xmlns:sodipodi="http://sodipodi.sourceforge.net/DTD/sodipodi-0.dtd"
   xmlns:inkscape="http://www.inkscape.org/namespaces/inkscape"
   width="26.458334mm"
   height="26.190769mm"
   viewBox="0 0 26.458334 26.190769"
   version="1.1"
   id="svg8"
   inkscape:version="0.92.3 (2405546, 2018-03-11)"
   sodipodi:docname="Noice.svg">
  <defs
     id="defs2" />
  <sodipodi:namedview
     id="base"
     pagecolor="#ffffff"
     bordercolor="#666666"
     borderopacity="1.0"
     inkscape:pageopacity="0.0"
     inkscape:pageshadow="2"
     inkscape:zoom="3.7447566"
     inkscape:cx="42.4128"
     inkscape:cy="61.327918"
     inkscape:document-units="mm"
     inkscape:current-layer="layer1"
     showgrid="false"
     fit-margin-top="0"
     fit-margin-left="0"
     fit-margin-right="0"
     fit-margin-bottom="0"
     inkscape:pagecheckerboard="true"
     inkscape:window-width="692"
     inkscape:window-height="718"
     inkscape:window-x="573"
     inkscape:window-y="166"
     inkscape:window-maximized="0" />
  <metadata
     id="metadata5">
    <rdf:RDF>
      <cc:Work
         rdf:about="">
        <dc:format>image/svg+xml</dc:format>
        <dc:type
           rdf:resource="http://purl.org/dc/dcmitype/StillImage" />
        <dc:title></dc:title>
      </cc:Work>
    </rdf:RDF>
  </metadata>
  <g
     inkscape:label="Layer 1"
     inkscape:groupmode="layer"
     id="layer1"
     transform="translate(-94.611613,-138.86891)">
    <g
       transform="translate(-36.459599,-64.434962)"
       id="layer1-3"
       inkscape:label="Layer 1">
      <g
         inkscape:label="Layer 1"
         id="layer1-89"
         transform="matrix(0.86447181,0,0,0.86447181,22.552717,31.362978)">
        <g
           transform="translate(109.09878,70.022917)"
           id="layer1-7"
           inkscape:label="Layer 1">
          <g
             inkscape:label="Layer 1"
             id="layer1-4"
             transform="matrix(0.51813474,0,0,0.51813474,-19.077806,69.132892)">
            <path
               style="fill:#ffffff;stroke-width:0.26458332"
               d="m 83.311973,169.32515 -0.0729,-4.16719 -3.24115,-0.37618 -3.24114,-0.37619 v -13.932 -13.932 l 3.24114,-0.37619 3.24115,-0.37619 0.0693,-10.12031 0.0693,-10.12032 h 15.54314 15.543157 l 6.41412,6.41814 6.41412,6.41813 v 22.55374 22.55375 H 105.33852 83.384813 Z"
               id="path35"
               inkscape:connector-curvature="0" />
            <g
               transform="translate(37.320089,52.220558)"
               id="layer1-2"
               inkscape:label="Layer 1">
              <g
                 transform="translate(-2.076516,-67.581158)"
                 id="g65">
                <path
                   sodipodi:nodetypes="scccccsscccscccccsccccccccccccccccccccccccccccccccscsccccc"
                   inkscape:connector-curvature="0"
                   id="path71"
                   d="m 53.468375,182.94508 c 0,-1.02894 0.0018,-1.21345 0.0018,-1.21345 l 2.35684,-0.003 0.0226,2.37819 H 54.659 53.468375 Z m 4.762499,0.1036 c 0,-0.58208 0.02213,-1.4464 0.02213,-1.4464 l 1.66605,0.0672 3.400963,0.01 c 0,0 1.701831,0.0467 12.505649,0.0467 h 10.980208 v 1.19062 1.19063 H 72.51837 58.23087 Z m 6.614583,-5.68854 v -1.19062 h 10.980208 10.980208 v 1.19062 1.19063 H 75.825665 64.845457 Z m 0,-5.55625 v -1.19062 h 10.980208 10.980208 v 1.19062 1.19063 H 75.825665 64.845457 Z m 0,-5.55625 v -1.19062 h 10.980208 10.980208 v 1.19062 1.19063 H 75.825665 64.845457 Z m 6.879167,-22.92331 v -5.06394 l 1.446948,0.0555 c 1.618719,0.24852 3.574705,0.70048 4.471206,1.5427 0.964444,0.8653 1.549454,1.21285 0.961012,2.88727 l 0.924695,1.33742 1.337279,-0.16813 c 0.36181,0.56042 0.6621,1.31604 0.6621,1.31604 0.214898,0.98053 0.288831,1.40524 0.315096,2.26459 l 0.0095,0.8925 h -5.063937 -5.063937 z"
                   style="fill:#f3b79a;stroke-width:0.26458332" />
                <path
                   sodipodi:nodetypes="cscscccccccccccsssccccccccccsccccssscccccccccc"
                   inkscape:connector-curvature="0"
                   id="path69"
                   d="m 47.912125,184.90077 c 0,-1.79329 -0.0392,-4.26209 0.01513,-4.8721 0.05433,-0.61001 0.153546,-0.7717 0.333111,-0.7717 0.528921,-0.61557 0.445512,0.82104 0.445512,5.24692 v 3.83646 H 70.137124 91.568373 V 166.37993 144.41952 H 85.086081 78.60379 v -6.48229 -6.48229 H 63.654832 48.705875 v 9.78958 c 0,12.64742 -0.08773,18.34963 -0.433352,18.34963 -0.345905,0 -0.360398,-5.77063 -0.360398,-18.74651 v -10.18645 h 15.678546 15.678546 l 6.546453,6.55038 6.546453,6.55038 v 22.68608 22.68607 H 70.137124 47.912125 Z m 43.391664,-41.34335 c 0,-0.0376 -2.678906,-2.74527 -5.953124,-6.01707 l -5.953125,-5.94871 v 6.01706 6.01707 h 5.953125 c 3.274218,0 5.953124,-0.0308 5.953124,-0.0683 z m -21.22773,16.35369 c -4.735895,-0.0893 -10.048894,-4.05416 -9.974509,-9.88198 0.02049,-5.02755 5.029807,-9.98118 10.035574,-10.1757 v 0 5.06117 5.06117 h 5.061169 5.06117 v 0 c -0.05415,6.17881 -4.65394,9.89218 -10.183404,9.93534 z"
                   style="fill:#9a9999;stroke-width:0.26458332" />
              </g>
            </g>
          </g>
        </g>
        <g
           transform="matrix(0.62055907,0,0,0.62055907,47.673427,62.552353)"
           id="layer1-8"
           inkscape:label="Layer 1">
          <g
             inkscape:label="Layer 1"
             id="layer1-35"
             transform="translate(-8.9886288,2.1288233)">
            <g
               transform="matrix(0.83253335,0,0,0.8332052,18.971121,43.874887)"
               id="layer1-8-3"
               inkscape:label="Layer 1">
              <rect
                 y="227.93559"
                 x="138.71161"
                 height="31.74988"
                 width="31.74996"
                 id="rect25"
                 style="fill:#ffffff;fill-opacity:1;stroke-width:0.26458332" />
              <path
                 sodipodi:nodetypes="ccccccccccccccccccccccccccccccscssccccccccccccccccccccccccccccccccccccccccccc"
                 inkscape:connector-curvature="0"
                 id="path21"
                 d="m 138.71161,243.81059 v -15.875 h 13.45933 13.45932 l 4.86181,0.005 -0.0305,8.45079 v 11.64704 11.64705 h -15.875 -15.875 z m 29.36875,0 0.0276,-13.49339 -13.52139,-3.6e-4 -13.49204,3.6e-4 -0.002,13.49339 0.002,13.49826 13.49204,-0.005 13.52139,0.005 z m -23.8125,0 v -8.73125 h 10.31875 10.31875 v 8.73125 8.73125 h -10.31875 -10.31875 z m 10.80498,2.37374 c 0,0 -0.0279,0.008 -2.07373,0.008 h -2.11667 v -2.11667 c 0,-2.0459 2e-5,-2.05595 2e-5,-2.05595 -2.32853,0.006 -4.0401,1.94065 -4.00571,4.22537 0.005,2.26405 1.67774,4.20163 4.00569,4.18058 2.21475,-0.0134 4.22036,-1.6051 4.1904,-4.24084 z m 2.93005,0.83453 -1.01384,-0.002 -0.001,1.02663 1.01069,-3.1e-4 z m 4.52993,1.01498 -0.006,-1.01306 -3.97011,0.003 0.004,1.02246 z m -4.53189,-2.39762 10e-4,-1.0243 -1.01168,0.001 -0.001,1.02179 z m 4.5156,-1.02818 -3.96243,0.001 -0.006,1.02178 3.97253,0.006 z m -4.51055,-1.34296 -0.004,-1.03946 -1.00411,-0.001 -0.004,1.04453 z m 4.51308,-1.03829 -3.95486,0.006 -0.001,1.03189 3.95484,0.006 z m 0.7988,-4.36933 v -1.19062 h -8.73125 -8.73125 v 1.19062 1.19063 h 8.73125 8.73125 z"
                 style="fill:#ce4525;stroke-width:0.26458332" />
            </g>
          </g>
        </g>
      </g>
    </g>
  </g>
</svg>
