<svg width="756" height="514" xmlns="http://www.w3.org/2000/svg" xmlns:xlink="http://www.w3.org/1999/xlink" overflow="hidden"><defs><clipPath id="clip0"><rect x="278" y="104" width="756" height="514"/></clipPath></defs><g clip-path="url(#clip0)" transform="translate(-278 -104)"><path d="M827.26 544.219C830.958 539.518 836.755 536.817 842.752 537.017 850.947 555.022 846.949 579.128 833.657 591.631 826.061 598.833 816.266 602.034 806.572 604.334 743.207 619.138 677.344 598.233 612.38 595.732 523.93 592.131 436.978 622.739 348.628 616.037 336.534 615.037 323.941 613.237 313.747 605.135 305.852 598.733 300.155 589.13 295.557 579.228 275.768 536.417 273.57 483.403 289.76 439.692 305.951 395.981 340.232 362.372 380.01 351.27 405.596 344.068 432.281 345.768 458.666 347.569 495.546 349.969 533.924 352.97 566.206 374.676 587.494 388.879 604.485 410.185 622.575 429.59 660.653 470.4 704.729 503.609 752.102 527.315 779.887 541.218 812.069 551.621 838.954 537.117" fill="#F2F2F2" fill-rule="evenodd"/><path d="M743 289.019 743 338.081C742.9 354.036 729.924 367 713.954 367L501.046 367C484.976 367 472 354.036 472 338.081L472 289.019 472 289.019C472 272.964 484.976 260 501.046 260L713.954 260C729.924 260 742.9 272.964 743 289.019Z" fill="#E9F8FF" fill-rule="evenodd"/><path d="M537.5 294.5 716.5 294.5" stroke="#000000" stroke-width="3" stroke-miterlimit="8" fill="none" fill-rule="evenodd"/><path d="M503.5 311.5 717.5 312.5" stroke="#000000" stroke-width="3" stroke-miterlimit="8" fill="none" fill-rule="evenodd"/><path d="M502.5 335.5 716.5 336.5" stroke="#000000" stroke-width="3" stroke-miterlimit="8" fill="none" fill-rule="evenodd"/><path d="M433.797 405.57 443.805 331.716C446.206 313.903 462.618 301.394 480.431 303.795L554.285 313.803C572.097 316.205 584.606 332.617 582.205 350.43L572.198 424.284C569.796 442.097 553.384 454.607 535.571 452.205L461.718 442.197C443.805 439.796 431.396 423.383 433.797 405.57L433.797 405.57Z" stroke="#000000" stroke-width="3" stroke-miterlimit="8" fill="#829DAD" fill-rule="evenodd"/><path d="M448.714 407.648 460.541 319.797C462.446 305.757 475.276 295.829 489.409 297.734 489.409 297.734 489.409 297.734 489.509 297.734L577.214 309.568C591.247 311.474 601.17 324.41 599.266 338.451L599.266 338.451 587.438 426.301C585.534 440.341 572.604 450.169 558.571 448.264L558.571 448.264 470.865 436.43C456.732 434.725 446.909 421.788 448.714 407.648 448.714 407.748 448.714 407.648 448.714 407.648Z" stroke="#000000" stroke-width="3" stroke-miterlimit="8" fill="#829DAD" fill-rule="evenodd"/><path d="M552.776 326.119 509.279 320.133C500.899 319.036 493.316 324.822 492.119 333.203L486.133 376.7C485.036 385.08 490.822 392.762 499.203 393.86L499.203 393.86 542.7 399.845C551.08 401.043 558.762 395.156 559.859 386.876L559.859 386.876 565.845 343.379C567.043 334.998 561.156 327.316 552.776 326.119ZM555.57 386.277C554.672 392.263 549.284 396.354 543.299 395.555L499.801 389.57C493.815 388.672 489.725 383.185 490.523 377.299L496.509 333.801C497.407 327.915 502.794 323.725 508.78 324.523L552.277 330.509C558.263 331.307 562.453 336.794 561.655 342.78L555.57 386.277Z" fill="#FFFFFF" fill-rule="evenodd"/><path d="M546.254 364.1 546.76 353.3C546.963 349.9 544.432 346.9 540.99 346.5L518.616 343.5 519.122 339.9C519.223 339.5 519.527 339.2 519.932 339.3L523.576 339.8 523.374 341.2 532.182 342.4 533.194 335.2 524.386 334 524.184 335.4 520.539 334.9C517.705 334.5 515.174 336.5 514.769 339.3L514.769 339.3 514.262 343C511.225 343 508.593 345.1 507.884 348.1L505.455 358.6 501.607 358.1 501 362.4 549.393 369 550 364.7 546.254 364.1ZM509.808 359.1 512.136 349C512.339 347.9 513.453 347.2 514.566 347.3L540.382 350.8C541.496 351 542.306 351.9 542.306 353.1L541.8 363.5 509.808 359.1Z" fill="#FFFFFF" fill-rule="evenodd"/><path d="M525.024 381.536 526.539 370.506 522.096 370 520.582 380.929 512.606 379.816 512 384.167 532.394 387 533 382.649Z" fill="#FFFFFF" fill-rule="evenodd"/><text fill="#FFFFFF" font-family="Arial,Arial_MSFontService,sans-serif" font-weight="400" font-size="24" direction="rtl" writing-mode="rl-tb" transform="matrix(0.995036 0.0995111 -0.0995111 0.995036 493.424 422)" x="6.63358" y="-0.663407">.</text><path d="M507.421 417.154 505.316 418.713 505 421.928 501 421.539 502.895 404 506.895 404.39 505.842 414.328 512.263 409.749 517 410.236 510.684 415.108 516.158 423 511.316 422.513 507.421 417.154Z" fill="#FFFFFF" fill-rule="evenodd"/><path d="M529.759 419.079 519.772 418.122C519.974 419.749 521.285 420.801 523.303 420.993 524.715 421.088 525.724 420.801 526.732 420.131L528.548 422.428C527.136 423.672 525.219 424.151 522.899 423.959 518.359 423.481 515.636 420.514 516.039 416.782 516.443 413.05 519.772 410.657 523.807 411.04 527.64 411.423 530.364 414.198 529.96 418.217 529.96 418.409 529.86 418.792 529.759 419.079ZM519.974 416.016 526.43 416.591C526.329 414.964 525.219 413.815 523.504 413.72 521.789 413.528 520.377 414.389 519.974 416.016Z" fill="#FFFFFF" fill-rule="evenodd"/><path d="M546 412.547 538.964 426.259C537.422 429.352 535.59 430.176 533.374 429.97 532.12 429.867 530.675 429.249 530 428.321L531.638 425.64C532.12 426.259 532.892 426.671 533.663 426.671 534.627 426.774 535.301 426.362 535.88 425.228L535.976 425.125 531.831 411 535.59 411.412 538.289 420.898 542.723 412.134 546 412.547Z" fill="#FFFFFF" fill-rule="evenodd"/><path d="M498.734 462.106 571.022 442.641C588.391 437.925 606.363 448.26 610.981 465.718L610.981 465.718 630.359 537.96C635.077 555.318 624.736 573.279 607.266 577.894L607.266 577.894 534.978 597.359C517.609 602.075 499.637 591.74 495.019 574.282L495.019 574.282 475.642 502.04C470.923 484.682 481.264 466.721 498.734 462.106Z" stroke="#000000" stroke-width="3" stroke-miterlimit="8" fill="#F7C148" fill-rule="evenodd"/><path d="M504.55 453.457 590.065 430.398C603.8 426.688 617.835 434.809 621.544 448.544L621.544 448.544 644.602 534.063C648.312 547.798 640.191 561.833 626.457 565.543L626.457 565.543 540.942 588.602C527.207 592.311 513.172 584.191 509.463 570.556 509.463 570.556 509.463 570.556 509.463 570.455L486.405 484.937C482.695 471.302 490.716 457.166 504.55 453.457 504.45 453.557 504.45 453.457 504.55 453.457Z" stroke="#000000" stroke-width="3" stroke-miterlimit="8" fill="#F7C148" fill-rule="evenodd"/><path d="M578.163 473.878 559.097 463.166C558.798 462.966 558.398 462.966 558.099 463.066L529.65 471.075C526.256 472.076 524.259 475.579 525.258 478.883L539.033 528.337C540.031 531.741 543.525 533.743 546.819 532.742L585.35 522.03C588.744 521.029 590.741 517.525 589.742 514.122L578.762 474.678C578.662 474.378 578.463 474.078 578.163 473.878ZM560.594 466.97 560.594 466.97 574.17 474.578 567.183 476.581C565.186 477.081 563.19 475.98 562.591 473.978L560.594 466.97ZM587.247 514.822C587.746 516.824 586.648 518.827 584.652 519.427L546.12 530.139C544.124 530.64 542.127 529.538 541.528 527.536L527.753 478.082C527.254 476.08 528.352 474.078 530.348 473.477L557.6 465.869 560.095 474.678C560.994 478.082 564.487 479.984 567.881 479.083L576.666 476.581 587.247 514.822Z" fill="#FFFFFF" fill-rule="evenodd"/><path d="M570.031 487.577 565.082 488.984 563.696 483.957C563.498 483.253 562.805 482.851 562.113 483.052L562.113 483.052 539.942 489.386C539.249 489.588 538.853 490.291 539.051 490.995L539.051 490.995 545.287 513.519C545.484 514.222 546.177 514.625 546.87 514.423L546.87 514.423 551.918 513.016 553.304 518.043C553.502 518.747 554.195 519.149 554.887 518.948L554.887 518.948 577.058 512.614C577.751 512.412 578.147 511.709 577.949 511.005L577.949 511.005 571.713 488.481C571.417 487.778 570.625 487.375 570.031 487.577ZM547.266 511.407 541.822 491.397 561.519 485.867 566.963 505.877 547.266 511.407ZM574.881 510.401 555.184 515.932 554.095 512.111 568.744 507.988C569.437 507.787 569.833 507.083 569.635 506.379L569.635 506.379 565.577 491.498 569.338 490.392 574.881 510.401Z" fill="#FFFFFF" fill-rule="evenodd"/><path d="M555.408 480.017 554.83 480.131C554.155 480.359 553.866 481.27 554.059 482.067 554.251 482.751 554.83 483.092 555.505 482.978L556.083 482.865C556.758 482.637 557.143 481.84 556.95 481.042 556.758 480.359 556.083 479.904 555.408 480.017L555.408 480.017Z" fill="#FFFFFF" fill-rule="evenodd"/><path d="M550.438 481.015 538.9 484.434C538.238 484.635 537.859 485.339 538.049 486.043 538.238 486.747 538.9 487.149 539.562 486.948L539.562 486.948 539.562 486.948 551.1 483.529C551.762 483.328 552.141 482.624 551.951 481.92 551.762 481.317 551.1 480.915 550.438 481.015Z" fill="#FFFFFF" fill-rule="evenodd"/><path d="M549.669 540 551.714 547.432C552.634 550.781 551.305 552.77 548.136 553.608 546.5 554.131 544.762 554.131 543.536 553.608L544.047 551.514C544.967 551.933 546.296 551.933 547.42 551.619 549.158 551.095 549.772 550.049 549.261 548.479L549.158 548.06C548.749 549.002 547.829 549.63 546.705 549.944 544.251 550.677 541.9 549.525 541.185 546.908 540.469 544.292 541.9 542.093 544.354 541.361 545.58 541.047 546.705 541.151 547.625 541.779L547.318 540.628 549.669 540ZM548.341 544.92C548.034 543.664 546.807 543.035 545.478 543.35 544.149 543.768 543.434 544.92 543.74 546.176 544.047 547.432 545.274 548.06 546.603 547.746 547.932 547.327 548.647 546.176 548.341 544.92Z" fill="#FFFFFF" fill-rule="evenodd"/><path d="M552.185 544.403C551.461 541.598 552.91 539.116 555.706 538.253 558.501 537.39 561.09 538.792 561.815 541.598 562.54 544.403 561.09 546.884 558.294 547.747 555.499 548.61 553.014 547.208 552.185 544.403ZM559.33 542.353C558.916 540.734 557.673 540.087 556.43 540.519 555.188 540.95 554.463 542.137 554.877 543.755 555.292 545.374 556.534 546.021 557.777 545.589 559.019 545.158 559.744 543.863 559.33 542.353Z" fill="#FFFFFF" fill-rule="evenodd"/><path d="M563.167 541.429C562.514 538.612 563.819 536.121 566.335 535.254 568.851 534.387 571.181 535.796 571.833 538.612 572.486 541.429 571.181 543.92 568.665 544.787 566.149 545.545 563.819 544.245 563.167 541.429ZM569.504 539.37C569.131 537.745 568.013 537.096 566.894 537.529 565.776 537.854 565.124 539.154 565.496 540.779 565.869 542.404 566.987 543.054 568.106 542.62 569.224 542.187 569.876 540.995 569.504 539.37Z" fill="#FFFFFF" fill-rule="evenodd"/><path d="M581.669 532 583.714 538.901C584.634 542.011 583.305 543.858 580.136 544.636 578.5 545.122 576.762 545.122 575.536 544.636L576.047 542.692C576.967 543.08 578.296 543.08 579.42 542.789 581.158 542.303 581.772 541.331 581.261 539.873L581.158 539.484C580.749 540.359 579.829 540.942 578.705 541.234 576.251 541.914 573.9 540.845 573.185 538.415 572.469 535.985 573.9 533.944 576.354 533.263 577.58 532.972 578.705 533.069 579.625 533.652L579.318 532.583 581.669 532ZM580.341 536.568C580.034 535.402 578.807 534.819 577.478 535.11 576.149 535.499 575.434 536.568 575.74 537.735 576.047 538.901 577.274 539.484 578.603 539.193 580.034 538.804 580.647 537.735 580.341 536.568Z" fill="#FFFFFF" fill-rule="evenodd"/><path d="M583 527.677 585.155 527 588 538.323 585.845 539 583 527.677Z" fill="#FFFFFF" fill-rule="evenodd"/><path d="M597.904 531.888 591.763 533.68C592.243 534.675 593.298 535.073 594.546 534.675 595.409 534.377 595.985 533.978 596.369 533.281L598 534.377C597.52 535.472 596.465 536.268 595.025 536.766 592.243 537.562 589.844 536.268 589.172 533.779 588.5 531.29 589.844 528.901 592.339 528.204 594.738 527.507 597.041 528.602 597.808 531.39 597.808 531.39 597.904 531.688 597.904 531.888ZM591.379 532.186 595.409 530.992C594.93 529.996 593.97 529.498 592.914 529.797 591.763 530.195 591.187 531.091 591.379 532.186Z" fill="#FFFFFF" fill-rule="evenodd"/><path d="M552.462 568.761 552.772 566.64C553.704 566.958 554.947 566.958 556.086 566.64 557.225 566.322 557.639 565.898 557.432 565.368 557.018 563.883 552.151 566.958 551.116 563.353 550.598 561.656 551.84 559.959 554.429 559.322 555.672 559.004 557.018 558.898 558.053 559.11L557.743 561.231C556.707 561.019 555.879 561.019 555.05 561.338 553.911 561.656 553.497 562.186 553.601 562.61 554.015 564.201 558.882 561.125 559.917 564.731 560.331 566.428 559.192 568.019 556.5 568.761 555.05 569.08 553.394 569.08 552.462 568.761Z" fill="#FFFFFF" fill-rule="evenodd"/><path d="M559 554.734 561.586 554 565 566.266 562.414 567 559 554.734Z" fill="#FFFFFF" fill-rule="evenodd"/><path d="M563.051 553.914C562.849 553.108 563.253 552.403 564.16 552.1 565.068 551.798 565.874 552.201 566.076 553.007 566.278 553.814 565.874 554.62 564.967 554.821 564.059 555.124 563.253 554.721 563.051 553.914ZM564.059 556.434 566.58 555.728 569 564.295 566.479 565 564.059 556.434Z" fill="#FFFFFF" fill-rule="evenodd"/><path d="M576.913 550 580 561.354 577.755 562.033 577.474 561.063C577.1 561.936 576.351 562.519 575.322 562.81 573.077 563.489 570.925 562.325 570.177 559.704 569.522 557.084 570.738 554.949 572.983 554.27 573.919 553.979 574.854 554.076 575.603 554.561L574.48 550.582 576.913 550ZM576.632 557.861C576.258 556.405 575.135 555.823 574.012 556.211 572.89 556.502 572.235 557.667 572.609 559.122 572.983 560.578 574.106 561.16 575.229 560.772 576.351 560.481 577.006 559.316 576.632 557.861Z" fill="#FFFFFF" fill-rule="evenodd"/><path d="M589.904 554.888 583.763 556.68C584.243 557.675 585.298 558.073 586.546 557.675 587.409 557.377 587.985 556.978 588.369 556.281L590 557.377C589.52 558.472 588.465 559.268 587.025 559.766 584.243 560.562 581.844 559.268 581.172 556.779 580.5 554.29 581.844 551.901 584.339 551.204 586.738 550.507 589.041 551.602 589.808 554.39 589.808 554.39 589.808 554.688 589.904 554.888ZM583.283 555.286 587.313 554.091C586.833 553.096 585.874 552.598 584.818 552.896 583.763 553.195 583.187 554.091 583.283 555.286Z" fill="#FFFFFF" fill-rule="evenodd"/><path d="M591.462 557.761 591.772 555.64C592.704 555.958 593.947 555.958 595.086 555.64 596.225 555.322 596.639 554.898 596.432 554.368 596.018 552.883 591.151 555.958 590.116 552.353 589.598 550.656 590.84 548.959 593.429 548.322 594.672 548.004 596.018 547.898 597.053 548.11L596.743 550.231C595.707 550.019 594.879 550.019 594.05 550.338 592.911 550.656 592.497 551.186 592.601 551.61 593.015 553.201 597.882 550.125 598.917 553.731 599.331 555.428 598.192 557.019 595.5 557.761 594.05 558.08 592.394 558.08 591.462 557.761Z" fill="#FFFFFF" fill-rule="evenodd"/><path d="M349.493 478.848 368.969 406.685C373.587 389.321 391.457 378.983 408.926 383.6 408.926 383.6 408.926 383.6 409.026 383.6L481.309 403.071C498.677 407.688 509.018 425.654 504.4 443.017L504.4 443.017 485.024 515.281C480.406 532.645 462.435 543.083 445.067 538.366L445.067 538.366 372.784 518.895C355.416 514.278 344.975 496.412 349.593 479.049 349.393 478.949 349.393 478.848 349.493 478.848Z" stroke="#000000" stroke-width="3" stroke-miterlimit="8" fill="#C77172" fill-rule="evenodd"/><path d="M335.393 475.063 358.312 389.544C361.999 375.809 375.95 367.688 389.603 371.398L474.605 394.457C488.257 398.166 496.229 412.202 492.642 425.937L469.722 511.456C466.035 525.191 452.084 533.312 438.432 529.602L353.429 506.543C339.777 502.834 331.705 488.798 335.393 475.063Z" stroke="#000000" stroke-width="3" stroke-miterlimit="8" fill="#C77172" fill-rule="evenodd"/><path d="M429.627 410.89C429.228 410.392 428.729 409.994 428.031 409.894L392.438 406.011C391.341 405.911 390.444 406.509 390.045 407.504L376.087 453.706C375.788 454.702 376.286 455.797 377.184 456.295L408.889 472.824C408.989 472.924 409.188 472.924 409.288 472.924 410.484 473.223 411.68 472.625 411.98 471.43L429.826 412.583C430.125 412.184 430.026 411.487 429.627 410.89ZM408.689 467.647 380.972 453.308 393.934 410.591 425.04 413.977 408.689 467.647Z" fill="#FFFFFF" fill-rule="evenodd"/><path d="M455.414 427.058 425.724 418.123C424.617 417.726 423.309 418.322 422.907 419.414 422.504 420.506 423.108 421.797 424.215 422.194 424.316 422.194 424.416 422.293 424.517 422.293L452.092 430.533 440.519 468.159 412.943 459.919C411.836 459.522 410.528 460.117 410.125 461.209 409.723 462.302 410.326 463.592 411.433 463.989L411.534 463.989 411.635 463.989 441.324 472.924C442.531 473.222 443.739 472.626 444.041 471.435L456.923 429.54C457.225 428.647 456.621 427.455 455.414 427.058L455.414 427.058Z" fill="#FFFFFF" fill-rule="evenodd"/><path d="M436.399 458.591 415.605 452.065C414.423 451.759 413.24 452.574 413.043 453.798 412.846 454.92 413.338 455.939 414.324 456.347L435.118 462.873C436.202 463.281 437.483 462.669 437.878 461.548 438.272 460.426 437.68 459.1 436.596 458.693 436.596 458.693 436.498 458.591 436.399 458.591Z" fill="#FFFFFF" fill-rule="evenodd"/><path d="M400.408 424.114C399.191 423.711 397.975 424.416 397.671 425.626L391.181 446.897C390.674 448.006 391.282 449.316 392.398 449.82 393.513 450.324 394.831 449.72 395.338 448.611 395.338 448.51 395.44 448.51 395.44 448.409 395.44 448.409 395.44 448.308 395.44 448.207L401.929 426.937C402.234 425.727 401.524 424.517 400.408 424.114Z" fill="#FFFFFF" fill-rule="evenodd"/><path d="M407.195 425.972 400.838 424.076C399.627 423.777 398.417 424.376 398.013 425.573 397.71 426.67 398.316 427.867 399.426 428.266L399.526 428.266 405.883 430.161C408.204 430.859 409.516 433.353 408.81 435.647 408.103 437.942 405.581 439.238 403.26 438.54L396.802 436.645C395.591 436.346 394.38 437.044 394.078 438.241 393.775 439.338 394.38 440.435 395.49 440.834L401.847 442.73C406.59 443.927 411.433 441.034 412.644 436.346 413.956 432.056 411.534 427.468 407.195 425.972L407.195 425.972Z" fill="#FFFFFF" fill-rule="evenodd"/><path d="M435.122 430.447C429.332 428.747 423.143 432.047 421.446 437.846 419.749 443.646 423.043 449.846 428.833 451.546 434.623 453.245 440.713 450.046 442.51 444.146L442.51 444.146C444.307 438.346 441.012 432.246 435.122 430.447 435.222 430.447 435.122 430.447 435.122 430.447ZM430.031 447.346C426.537 446.246 424.541 442.646 425.639 439.146 426.737 435.646 430.331 433.646 433.825 434.746 437.319 435.846 439.315 439.446 438.217 442.946 437.219 446.346 433.525 448.346 430.031 447.346L430.031 447.346Z" fill="#FFFFFF" fill-rule="evenodd"/><path d="M441.452 440.866 434.997 438.985 436.944 432.749C437.251 431.561 436.534 430.373 435.406 430.076L435.406 430.076C434.279 429.779 433.152 430.373 432.742 431.462L430.078 439.777C429.771 440.965 430.386 442.153 431.615 442.45L440.222 444.924C441.452 445.221 442.682 444.627 442.989 443.44L442.989 443.44C443.091 442.351 442.477 441.262 441.452 440.866L441.452 440.866Z" fill="#FFFFFF" fill-rule="evenodd"/><path d="M373.118 488.371C373.537 487.272 374.898 486.766 376.26 487.104 377.621 487.441 378.354 488.455 377.83 489.553 377.411 490.652 376.05 491.243 374.689 490.905 373.432 490.567 372.699 489.469 373.118 488.371Z" fill="#FFFFFF" fill-rule="evenodd"/><path d="M394.597 490.442C393.418 494.32 389.981 496.011 386.544 494.917 384.973 494.42 383.892 493.525 383.303 492.232L381.535 498 378 496.906 383.303 480 386.74 481.094 386.249 482.486C387.428 481.691 388.999 481.591 390.57 482.088 394.008 483.182 395.874 486.564 394.597 490.442ZM391.061 489.348C391.749 487.16 390.767 485.47 388.999 484.873 387.231 484.276 385.464 485.171 384.776 487.359 384.089 489.547 385.071 491.238 386.839 491.834 388.606 492.332 390.374 491.437 391.061 489.348Z" fill="#FFFFFF" fill-rule="evenodd"/><path d="M410.597 495.442C409.418 499.32 405.981 501.011 402.544 499.917 400.973 499.42 399.892 498.525 399.303 497.232L397.535 503 394 501.906 399.303 485 402.74 486.094 402.249 487.486C403.428 486.691 404.999 486.591 406.57 487.088 410.008 488.182 411.874 491.464 410.597 495.442ZM407.061 494.249C407.749 492.061 406.767 490.37 404.999 489.773 403.231 489.177 401.464 490.072 400.776 492.26 400.089 494.448 401.071 496.138 402.839 496.735 404.606 497.332 406.374 496.437 407.061 494.249Z" fill="#FFFFFF" fill-rule="evenodd"/><path d="M419.357 504.82C418.507 505.118 417.374 505.019 416.336 504.72 413.598 503.824 412.371 501.735 413.315 498.848L414.825 493.772 413.032 493.175 413.881 490.389 415.675 490.986 416.619 488 420.018 489.095 419.074 492.081 422 493.076 421.15 495.862 418.224 494.867 416.713 499.943C416.43 501.038 416.808 501.735 417.657 502.033 418.13 502.232 418.696 502.232 419.168 502.033L419.357 504.82Z" fill="#FFFFFF" fill-rule="evenodd"/><path d="M745.071 394.895C745.874 394.693 745.874 393.277 744.87 393.48L741.858 393.884C733.826 395.198 725.995 397.524 718.666 400.962 716.859 401.872 715.051 402.782 713.244 403.793 712.541 404.197 711.638 404.804 710.734 404.703 710.031 404.5 709.429 403.995 709.027 403.388 708.124 401.973 707.321 400.456 706.718 398.838 706.015 397.119 705.413 395.299 704.911 393.48 704.108 390.042 703.907 386.503 706.015 383.369 708.124 380.234 711.939 378.617 715.051 376.999 718.666 374.977 722.481 373.258 726.296 371.741 728.204 371.033 730.212 370.427 732.22 369.921 733.726 369.618 735.533 369.213 737.039 369.921 738.645 370.629 739.047 372.651 739.449 374.269L741.155 380.841 744.669 393.985 745.372 393.075 741.958 393.277C741.055 393.277 741.055 394.693 741.958 394.693L745.372 394.491 745.473 394.491C745.874 394.389 746.075 393.985 745.974 393.581L745.071 390.143 741.356 376.19 740.453 372.853C740.252 371.943 739.951 371.033 739.449 370.224 738.445 368.809 736.738 368 735.031 368 733.123 368.101 731.216 368.506 729.409 369.112 727.3 369.719 725.292 370.427 723.284 371.337 719.369 373.055 715.453 375.078 711.638 377.1 708.325 378.92 705.112 381.043 703.706 384.784 702.401 388.323 703.104 392.266 704.208 395.805 704.811 397.625 705.614 399.445 706.417 401.265 707.019 402.984 708.023 404.399 709.329 405.511 711.136 406.624 712.843 405.613 714.449 404.703 716.256 403.692 718.264 402.782 720.172 401.872 728.103 398.333 736.437 396.007 745.071 394.895L745.071 394.895Z" fill-rule="evenodd"/><path d="M705.651 402.351C706.442 401.852 705.749 400.556 704.958 401.155 703.869 401.952 702.88 402.65 701.89 403.448 693.677 410.028 688.234 419.201 684.375 428.872 680.416 438.942 678.14 449.61 676.161 460.279 673.588 474.337 671.015 488.495 668.541 502.653 665.87 517.01 663.297 531.467 660.724 545.824 658.151 560.182 655.578 574.638 653.005 589.095 652.906 589.993 654.292 590.392 654.391 589.494L655.38 584.11C657.953 569.853 660.526 555.595 663.099 541.338L670.718 498.565C673.192 484.905 675.567 471.246 678.14 457.587 680.119 447.018 682.593 436.45 686.849 426.579 691.005 417.008 697.041 408.233 705.651 402.351L705.651 402.351Z" fill-rule="evenodd"/><path d="M702.647 393.343C703.447 392.945 702.747 391.748 701.946 392.048 700.545 392.646 699.344 393.243 698.044 393.941 687.737 399.623 679.932 408.992 674.629 419.259 668.325 431.419 665.323 444.975 662.821 458.331 660.019 473.083 657.318 487.835 654.616 502.587L646.31 547.441C643.509 562.293 640.807 577.244 638.005 592.096 637.905 592.993 639.306 593.391 639.406 592.494L640.407 587.012C643.208 572.26 645.81 557.508 648.612 542.756 651.414 528.005 654.115 513.253 656.817 498.501 659.519 483.948 662.021 469.396 664.922 454.943 667.524 441.785 670.926 428.529 677.631 416.867 683.434 406.899 691.84 398.028 702.647 393.343L702.647 393.343Z" fill-rule="evenodd"/><path d="M326.5 486.5 665.5 455.5" stroke="#000000" stroke-width="3" stroke-miterlimit="8" fill="none" fill-rule="evenodd"/><path d="M352.5 589.5 326.5 486.5" stroke="#000000" stroke-width="3" stroke-miterlimit="8" fill="none" fill-rule="evenodd"/><path d="M599.5 589.5 614.5 461.5" stroke="#000000" stroke-width="3" stroke-miterlimit="8" fill="none" fill-rule="evenodd"/><path d="M557.5 588.5 566.5 464.5" stroke="#000000" stroke-width="3" stroke-miterlimit="8" fill="none" fill-rule="evenodd"/><path d="M510.5 585.5 513.5 469.5" stroke="#000000" stroke-width="3" stroke-miterlimit="8" fill="none" fill-rule="evenodd"/><path d="M471.5 584.5 466.5 474.5" stroke="#000000" stroke-width="3" stroke-miterlimit="8" fill="none" fill-rule="evenodd"/><path d="M424.5 582.5 414.5 478.5" stroke="#000000" stroke-width="3" stroke-miterlimit="8" fill="none" fill-rule="evenodd"/><path d="M387.5 587.5 371.5 482.5" stroke="#000000" stroke-width="3" stroke-miterlimit="8" fill="none" fill-rule="evenodd"/><path d="M340.5 538.5 652.5 525.5" stroke="#000000" stroke-width="3" stroke-miterlimit="8" fill="none" fill-rule="evenodd"/><path d="M780.847 382.407C787.242 381.601 793.136 378.174 799.631 378.376 810.021 378.678 818.514 390.671 815.317 400.75 815.017 401.758 814.517 402.665 813.818 403.37 812.819 404.378 811.32 404.58 809.822 404.781L769.457 409.921C756.868 411.534 742.481 412.542 733.289 403.774 729.593 400.246 727.295 395.61 724.597 391.276 721.899 386.942 718.602 382.71 713.906 380.795 709.211 378.88 702.916 380.392 700.918 385.028 699.819 387.648 700.219 390.873 699.12 393.494 698.021 396.114 693.924 397.827 692.425 395.308 691.626 394.098 692.126 392.586 692.525 391.175L695.822 380.694C696.522 378.376 697.321 375.856 699.02 374.042 700.718 372.429 702.716 371.119 704.914 370.313L724.197 361.444C728.294 359.529 733.289 357.715 737.086 360.234 739.784 361.948 740.783 365.374 741.682 368.499 742.781 372.53 743.88 376.562 745.079 380.593 745.678 382.508 746.378 384.624 747.876 385.733 749.375 386.842 751.473 386.842 753.372 386.842 765.361 386.338 777.25 384.725 788.94 382.105" fill="#FCE7C2" fill-rule="evenodd"/><path d="M789.524 383.462C790.428 383.262 790.026 381.86 788.822 381.86 785.71 382.561 782.497 383.262 779.385 383.762 772.96 384.863 766.535 385.664 760.009 386.165L754.99 386.465C753.585 386.565 752.179 386.565 750.774 386.465 749.469 386.365 748.163 385.764 747.36 384.763 746.658 383.662 746.156 382.461 745.854 381.26 744.951 378.157 744.047 374.954 743.144 371.75 742.542 369.048 741.638 366.445 740.534 363.943 739.53 361.64 737.522 359.938 735.113 359.238 732.402 358.737 729.691 359.038 727.182 360.039 724.271 361.14 721.56 362.441 718.749 363.742L709.613 367.846C706.702 369.048 703.891 370.349 701.181 371.75 699.976 372.451 698.872 373.352 697.968 374.353 697.165 375.354 696.462 376.555 695.96 377.756 694.755 380.559 693.953 383.662 693.049 386.565 692.547 388.067 692.045 389.668 691.543 391.27 691.041 392.571 690.84 393.973 691.142 395.374 691.142 395.474 691.142 395.574 691.242 395.674 692.145 397.476 694.153 398.177 695.96 397.376 698.068 396.575 699.574 394.773 699.976 392.571 700.578 389.969 700.378 387.066 701.883 384.763 703.088 383.062 704.895 381.86 707.003 381.46 711.922 380.259 716.44 382.861 719.753 386.465 723.568 390.569 725.776 395.774 728.989 400.279 730.595 402.481 732.503 404.483 734.611 406.185 736.518 407.686 738.727 408.888 741.036 409.688 745.754 411.39 750.774 412.091 755.793 411.991 761.114 411.791 766.435 411.39 771.655 410.589L791.733 408.087 801.672 406.786C804.784 406.385 807.996 406.085 811.209 405.584 812.614 405.384 813.819 404.884 814.823 403.983 815.626 402.982 816.228 401.78 816.529 400.579 817.031 398.477 817.132 396.275 816.831 394.073 816.028 389.668 813.919 385.664 810.607 382.661 807.294 379.558 802.876 377.856 798.258 378.057 792.235 378.357 786.814 381.26 780.891 382.061 779.987 382.161 779.987 383.562 780.891 383.462 783.601 383.062 786.312 382.461 789.022 381.56 793.942 380.059 799.162 378.457 804.282 380.359 808.197 381.961 811.41 384.863 813.417 388.667 815.526 392.471 816.028 396.876 814.722 400.98 814.421 402.281 813.518 403.282 812.313 403.783 811.008 404.183 809.703 404.383 808.297 404.483L798.56 405.785 779.385 408.287C773.663 408.988 767.94 409.889 762.118 410.289 752.681 410.99 741.939 410.689 734.41 404.083 730.294 400.379 727.884 395.174 724.873 390.569 722.162 386.365 718.749 382.161 713.83 380.459 709.915 379.058 704.995 379.658 701.984 382.661 700.177 384.463 699.574 386.765 699.273 389.168 698.972 391.57 698.872 394.173 696.663 395.574 695.86 396.075 695.057 396.275 694.153 396.275 693.25 396.175 692.547 395.274 692.647 394.373 692.748 392.972 693.049 391.57 693.651 390.269L695.157 385.664C695.659 384.163 696.161 382.661 696.663 381.16 696.964 379.858 697.466 378.557 698.068 377.356 698.671 376.155 699.574 375.154 700.578 374.253 701.682 373.452 702.887 372.751 704.092 372.251 709.915 369.548 715.737 366.946 721.56 364.343 724.17 363.042 726.78 361.94 729.591 361.04 732 360.339 734.711 360.339 736.819 361.64 738.927 362.941 739.931 365.344 740.634 367.646 741.538 370.549 742.341 373.552 743.144 376.455L744.449 381.06C744.75 382.261 745.252 383.462 745.754 384.563 746.356 385.664 747.16 386.665 748.264 387.266 749.469 387.866 750.774 388.167 752.079 388.167 755.09 388.267 758.203 388.067 761.315 387.766 764.427 387.466 767.539 387.166 770.651 386.765 776.976 385.965 783.3 384.863 789.524 383.462L789.524 383.462Z" fill="#4E2F22" fill-rule="evenodd"/><path d="M945.141 418.633C950.136 416.535 954.533 422.528 956.531 427.522 966.222 451.692 974.115 476.561 980.11 501.93 981.708 508.722 983.207 515.813 981.209 522.505 979.91 526.799 977.312 530.595 976.413 534.989 975.514 539.584 976.513 544.278 977.612 548.872 981.109 563.155 985.605 577.137 991 590.82 969.319 596.813 946.74 598.012 924.359 598.811 915.767 599.21 906.875 599.31 899.182 595.615 891.489 591.919 885.594 582.93 888.292 574.84 886.593 589.123 868.01 593.517 853.623 593.417 842.432 593.317 831.242 592.618 820.152 591.32 814.557 590.721 807.664 588.623 807.064 583.03 806.764 580.833 807.564 578.735 808.463 576.738L842.932 494.839C851.025 475.663 859.318 455.188 856.92 434.413 856.22 428.421 855.221 420.93 860.317 417.534 862.814 415.936 866.111 415.936 869.109 416.036L953.933 418.932" fill="#44546A" fill-rule="evenodd"/><path d="M932.377 215.605 931.878 209 899.176 223.011C898.578 223.211 898.08 223.611 897.781 224.112 897.581 224.912 897.781 225.713 898.279 226.314 902.865 234.119 906.255 242.526 908.149 251.433 908.748 253.835 909.047 256.537 907.651 258.539 902.666 265.344 898.279 272.65 894.69 280.356 892.995 284.058 891.3 288.061 892.297 291.964 894.69 301.072 938.658 286.861 947.831 286.06 950.522 285.86 953.613 285.459 955.607 283.558 957.9 281.256 958 277.653 958 274.451 957.9 269.047 957.601 262.942 953.713 259.139 951.918 257.538 949.725 256.437 947.831 254.936 944.441 252.133 942.646 247.83 941.051 243.627 937.262 233.519 934.171 223.111 931.779 212.603" fill="#FCE7C2" fill-rule="evenodd"/><path d="M932.648 213.067C932.447 212.07 931.045 212.469 930.945 213.067 931.546 215.758 932.247 218.45 932.948 221.141 934.45 226.623 936.152 232.105 937.954 237.388 938.855 240.079 939.757 242.571 940.758 245.162 941.559 247.455 942.66 249.548 943.862 251.641 945.063 253.635 946.766 255.429 948.768 256.724 950.771 258.12 952.974 259.216 954.376 261.21 956.979 264.898 957.279 269.582 957.279 273.868 957.479 276.061 957.279 278.254 956.779 280.347 956.178 282.54 954.476 284.135 952.273 284.733 950.571 285.132 948.868 285.431 947.166 285.53 946.265 285.63 945.464 285.829 944.563 285.929 939.356 286.826 934.25 288.221 929.143 289.418 922.935 290.813 916.727 292.308 910.319 293.305 907.615 293.803 904.812 294.102 902.008 294.302 899.905 294.501 897.803 294.401 895.8 294.003 895.099 293.803 894.398 293.604 893.797 293.205L893.597 293.105C893.397 293.006 893.597 293.205 893.497 293.105 893.397 293.006 893.197 292.906 893.197 292.806 893.197 292.707 892.996 292.607 893.096 292.707 893.096 292.607 893.096 292.607 892.996 292.507 892.896 292.408 892.896 292.308 892.796 292.208 892.896 292.408 892.796 292.208 892.796 292.109 892.796 292.009 892.796 291.81 892.696 291.61 892.596 291.012 892.496 290.315 892.496 289.716 892.596 288.321 892.796 287.025 893.197 285.829 894.098 283.238 895.199 280.646 896.501 278.254 898.704 273.769 901.207 269.383 904.011 265.197 904.712 264.2 905.412 263.104 906.113 262.107 906.814 261.11 907.615 260.113 908.216 259.017 909.418 257.023 909.117 254.532 908.717 252.239 907.715 247.056 906.113 241.973 904.011 237.089 903.009 234.696 901.908 232.304 900.606 229.912 900.005 228.816 899.405 227.62 898.704 226.523 898.504 226.025 898.003 225.227 898.403 224.729 898.804 224.43 899.305 224.131 899.805 224.031L932.347 210.276 931.246 209.678 931.746 216.257C931.746 217.154 933.248 217.154 933.148 216.257L932.648 209.678C932.648 209.579 932.648 209.479 932.547 209.379 932.347 209.08 931.947 208.881 931.546 209.08L923.235 212.469 906.714 219.446C904.011 220.642 901.307 221.739 898.504 222.935 897.402 223.334 896.601 224.33 896.701 225.526 897.002 226.723 897.602 227.919 898.403 228.915 901.107 233.7 903.31 238.683 905.012 243.866 905.913 246.358 906.614 248.95 907.215 251.641 907.715 253.934 908.216 256.525 906.814 258.618 903.911 262.904 901.107 267.091 898.504 271.476 897.102 273.769 895.9 276.061 894.699 278.553 893.397 281.045 892.296 283.537 891.495 286.228 890.994 288.321 890.693 290.813 891.495 292.806 891.795 293.504 892.296 294.102 892.896 294.501 894.498 295.398 896.201 295.896 898.003 295.896 900.506 296.096 903.009 295.996 905.513 295.697 908.617 295.398 911.721 294.9 914.724 294.302 921.133 293.105 927.441 291.61 933.849 290.115 936.452 289.517 939.156 288.819 941.859 288.221 942.961 287.922 943.962 287.723 945.063 287.524 945.564 287.424 946.065 287.424 946.465 287.324L947.066 287.225 947.266 287.225 947.467 287.125C949.369 287.025 951.271 286.726 953.074 286.228 955.277 285.53 957.079 284.035 957.98 281.942 958.781 279.849 959.082 277.556 958.982 275.264 958.982 272.971 958.881 270.778 958.581 268.486 958.381 266.293 957.68 264.1 956.678 262.107 955.477 260.113 953.775 258.319 951.772 257.123 950.671 256.425 949.569 255.728 948.568 254.93 947.567 254.133 946.766 253.336 946.065 252.339 944.663 250.345 943.562 248.252 942.66 245.96 940.658 240.777 938.855 235.494 937.153 229.912 935.451 224.33 933.949 218.749 932.648 213.067L932.648 213.067Z" fill-rule="evenodd"/><path d="M945 118.437C950.594 121.632 953.79 127.921 955.888 134.111 961.182 149.686 961.382 166.558 956.387 182.232 951.293 197.707 941.104 211.085 927.419 220.07 921.026 224.063 914.234 227.158 907.042 229.255 901.348 230.952 894.955 232.05 889.661 229.455 883.768 226.559 880.671 220.07 878.074 214.08 873.479 203.797 868.884 193.114 869.084 181.833 869.084 178.039 869.683 174.345 869.583 170.651 869.483 166.258 868.385 162.065 868.085 157.772 867.785 152.581 868.285 147.389 869.483 142.298 871.381 133.712 874.678 125.226 880.771 119.036 888.662 111.149 899.95 108.154 910.937 107.255 918.629 106.656 926.52 106.956 933.612 109.851 938.906 112.047 943.501 115.542 946.997 120.134" fill="#FCE7C2" fill-rule="evenodd"/><path d="M946.396 120.296C946.597 120.698 947.1 120.899 947.604 120.598 947.905 120.397 948.006 119.895 947.805 119.594 946.094 117.486 944.182 115.478 942.069 113.772 937.54 110.158 932.106 107.649 926.37 106.745 920.332 105.842 914.294 105.741 908.256 106.545 897.589 107.749 886.519 111.062 879.073 119.192 875.45 123.408 872.632 128.227 870.821 133.547 868.808 139.268 867.5 145.291 867.097 151.314 866.896 154.626 866.997 157.939 867.5 161.251 868.104 164.564 868.405 167.876 868.607 171.189 868.707 174.401 868.204 177.714 868.104 180.926 868.003 184.138 868.305 187.25 868.808 190.362 870.016 196.485 871.928 202.508 874.443 208.229 875.55 210.939 876.758 213.75 878.066 216.46 879.073 218.869 880.28 221.078 881.689 223.286 882.997 225.394 884.708 227.301 886.721 228.807 888.935 230.413 891.551 231.517 894.268 231.818 900.105 232.621 906.143 230.614 911.577 228.707 933.112 221.379 949.918 204.515 957.063 183.034 960.887 171.289 961.994 158.842 960.082 146.696 959.176 140.874 957.667 135.153 955.352 129.632 953.239 124.814 950.22 120.196 945.591 117.386 945.49 117.386 945.49 117.386 945.49 117.386 945.188 117.185 944.786 117.386 944.585 117.687 944.383 117.988 944.484 118.49 944.786 118.69 946.899 119.995 948.811 121.601 950.22 123.609 953.44 127.825 955.352 133.045 956.761 138.265 958.371 144.087 959.277 150.009 959.478 156.032 959.881 167.676 957.667 179.119 952.836 189.659 948.509 199.195 942.069 207.627 934.119 214.453 929.892 218.066 925.263 221.078 920.231 223.587 914.898 226.197 909.262 228.305 903.526 229.71 898.092 230.915 892.255 231.216 887.626 227.803 883.5 224.892 881.186 220.174 879.173 215.758 876.657 210.337 874.343 204.816 872.431 199.095 870.418 193.373 869.311 187.35 869.412 181.227 869.512 178.015 869.915 174.803 869.915 171.591 869.814 168.479 869.412 165.367 868.909 162.255 868.405 159.043 868.204 155.731 868.305 152.518 868.506 149.306 868.909 146.094 869.613 142.982 871.827 132.342 876.255 121.802 885.513 115.478 894.369 109.455 905.64 107.548 916.105 107.448 922.043 107.348 928.181 108.05 933.716 110.459 938.647 112.567 943.075 115.98 946.396 120.296L946.396 120.296Z" fill-rule="evenodd"/><path d="M940.688 182.088C940.489 182.992 941.883 183.394 942.082 182.289 942.58 179.576 945.169 178.069 947.858 178.27 950.547 178.471 952.439 180.882 953.136 183.293 953.933 186.207 953.435 189.322 951.941 191.833 950.248 194.747 947.958 197.259 945.368 199.268 942.779 201.478 939.792 202.986 936.505 203.588 935.609 203.689 936.007 205.095 936.904 204.995 940.987 204.191 944.771 202.081 947.759 199.168 950.647 196.857 952.838 193.742 954.232 190.326 955.427 187.212 955.228 183.796 953.634 180.882 952.24 178.169 949.352 176.662 946.364 177.064 943.675 177.466 941.086 179.275 940.688 182.088L940.688 182.088Z" fill-rule="evenodd"/><path d="M925.816 166.764C920.922 162.123 913.531 161.719 908.238 165.856 907.538 166.461 908.537 167.47 909.236 166.865 913.931 163.334 920.523 163.636 924.718 167.773 925.417 168.479 926.416 167.369 925.816 166.764Z" fill-rule="evenodd"/><path d="M887.607 164.338C887.607 164.838 887.905 165.137 888.303 164.937 888.701 164.937 889 164.638 889 164.238 889 163.138 888.602 162.039 887.905 161.04L887.905 161.04C885.716 157.841 881.437 157.042 878.352 159.241 877.555 159.84 878.252 161.04 879.048 160.54 879.745 159.94 880.64 159.64 881.536 159.54 884.522 159.241 887.209 161.339 887.607 164.338 887.607 164.438 887.607 164.438 887.607 164.338Z" fill-rule="evenodd"/><path d="M918 177C918 178.657 916.881 180 915.5 180 914.119 180 913 178.657 913 177 913 175.343 914.119 174 915.5 174 916.881 174 918 175.343 918 177Z" fill-rule="evenodd"/><path d="M888 174C888 175.657 886.657 177 885 177 883.343 177 882 175.657 882 174 882 172.343 883.343 171 885 171 886.657 171 888 172.343 888 174Z" fill-rule="evenodd"/><path d="M887.025 203.599C886.926 203.998 887.125 204.397 887.523 204.497 891.704 205.495 895.884 206.293 900.065 206.592 903.847 206.892 907.53 206.892 911.213 206.592 911.512 206.592 912.308 206.493 912.407 206.592 912.507 206.692 912.507 206.493 912.407 206.792 912.308 206.892 912.208 207.091 912.009 207.191 911.512 207.69 911.014 208.189 910.417 208.688 909.123 209.786 907.829 210.784 906.336 211.682 903.847 213.278 900.861 213.877 897.974 213.478 895.387 213.079 892.998 211.482 891.803 209.087 891.405 208.189 890.111 208.987 890.509 209.786 892.002 212.979 895.287 214.576 898.671 214.975 902.055 215.175 905.44 214.177 908.227 212.181 909.72 211.083 911.213 209.985 912.507 208.688 913.104 208.089 914 207.391 914 206.493 914 205.794 913.403 205.195 912.606 205.096 911.711 204.996 910.715 205.096 909.819 205.195 908.824 205.395 907.729 205.395 906.734 205.395 904.544 205.395 902.454 205.295 900.363 205.195 896.183 204.796 892.102 204.098 888.021 203 887.623 203 887.324 203.2 887.025 203.599Z" fill-rule="evenodd"/><path d="M895.414 179.837C895.414 179.734 895.414 179.631 895.414 179.631 895.414 179.527 895.414 179.527 895.414 179.527 895.712 178.39 896.906 177.769 898 178.08L896.607 189.35C896.607 190.073 896.408 190.797 895.911 191.418 895.016 192.245 893.723 192.038 892.628 191.728 890.838 191.314 888.649 190.177 889.047 188.316 889.246 187.695 889.545 187.178 889.943 186.765L896.309 179.01" fill="#D96C6D" fill-rule="evenodd"/><path d="M1025.1 264.156C1030.4 262.062 1031 254.585 1028.8 249.401 1026.6 244.217 1022.5 239.731 1021.3 234.248 1019.6 226.671 1023.6 218.895 1023.1 211.119 1022.5 202.246 1016.09 194.968 1009.79 188.688 1003.49 182.407 996.587 176.126 994.186 167.652 991.985 160.076 993.686 151.901 992.185 144.125 989.784 131.663 979.38 122.092 968.076 116.21 966.475 115.313 964.674 114.615 962.774 114.216 959.172 113.718 955.471 115.114 951.669 115.114 946.267 115.114 941.465 111.924 936.463 109.631 912.354 98.3652 883.542 108.335 871.637 132.161 869.536 136.348 868.036 141.233 869.737 145.52 875.139 134.355 887.244 127.276 899.649 126.678 902.75 126.479 905.851 126.977 908.652 128.174 915.055 131.264 917.356 138.94 920.257 145.321 923.558 152.499 928.46 158.879 934.462 163.964 937.263 166.257 940.465 168.649 940.865 172.238 941.065 173.235 940.865 174.332 941.465 175.229 942.566 176.924 945.167 176.425 947.267 176.525 951.869 176.724 955.571 181.211 955.871 185.697 956.171 190.183 953.77 194.669 950.269 197.66 946.767 200.651 942.466 202.545 938.264 204.24L936.763 213.412 951.969 204.738C952.97 210.82 952.47 217.001 950.669 222.883 948.668 229.163 945.067 235.344 946.167 241.725 946.767 245.314 948.668 248.404 949.468 251.893 950.269 255.383 949.468 259.769 946.167 261.165 950.369 262.96 955.171 261.464 959.572 260.467 963.974 259.47 969.376 259.171 972.478 262.461 973.678 263.757 974.578 265.552 976.279 266.05 977.48 266.249 978.68 266.15 979.88 265.851 985.183 265.352 989.384 270.337 994.686 270.935 1000.69 271.633 1005.59 266.548 1011.19 264.056 1016.2 261.863 1021.9 261.963 1026.9 264.156" fill="#ED7D31" fill-rule="evenodd"/><path d="M903.128 128.455C903.993 128.554 904.378 127.167 903.512 127.067 899.955 126.572 896.494 128.852 895.437 132.42 895.245 133.61 895.148 134.799 895.341 135.988 895.437 137.178 895.629 138.566 894.764 139.557 893.995 140.251 893.034 140.746 892.072 141.143 891.688 141.341 891.303 141.539 891.015 141.738L891.015 141.738C887.842 143.918 887.073 148.379 889.188 151.65 889.765 152.443 890.919 151.749 890.438 150.956 889.284 149.172 889.092 146.991 889.957 145.108 890.246 144.315 890.822 143.522 891.591 143.026 892.457 142.63 893.322 142.134 894.187 141.738 895.148 141.341 895.918 140.647 896.398 139.755 896.879 138.665 896.975 137.574 896.783 136.385 896.494 135.295 896.494 134.204 896.687 133.114 896.879 132.123 897.36 131.231 898.033 130.537 899.282 129.05 901.205 128.257 903.128 128.455L903.128 128.455Z" fill-rule="evenodd"/><path d="M912.632 128.395C913.545 128.296 913.545 126.906 912.835 127.005 909.489 127.303 906.751 129.686 906.143 132.963 905.839 134.354 906.042 135.843 906.549 137.134 907.157 138.525 908.171 139.716 909.388 140.61 910.604 141.504 912.024 142.298 913.139 143.291 914.356 144.185 915.167 145.575 915.268 147.065 915.167 148.555 914.052 149.647 913.646 151.037 913.24 152.427 913.443 153.917 914.254 155.208 915.877 158.088 919.121 159.081 922.163 159.975L922.163 159.975C922.467 160.074 922.873 159.875 922.974 159.478 923.076 159.081 922.873 158.684 922.467 158.584 919.425 157.79 915.775 156.598 914.863 153.321 914.457 151.832 915.066 150.839 915.775 149.548 916.485 148.356 916.789 146.966 916.485 145.675 915.775 142.894 913.139 141.305 910.908 139.816 909.692 139.12 908.678 138.127 907.968 136.936 907.36 135.744 907.157 134.453 907.36 133.162 907.867 130.58 909.996 128.693 912.632 128.395L912.632 128.395Z" fill-rule="evenodd"/><path d="M942.998 177.977C943.782 178.473 944.468 177.284 943.586 176.689 941.038 174.708 937.902 177.383 936.922 179.86 935.746 183.03 937.216 186.597 935.746 189.668 935.158 190.956 934.178 192.046 933.002 192.739 931.826 193.334 930.65 193.829 929.376 194.126 927.219 194.721 924.573 195.711 924.083 198.386 923.495 201.458 926.141 204.133 928.297 205.817 928.984 206.411 929.964 205.421 929.277 204.826 927.317 203.34 923.985 200.269 925.945 197.594 927.219 195.81 929.865 195.513 931.728 194.919 934.178 194.225 936.138 192.442 937.216 190.064 937.804 188.677 938 187.191 938 185.705 937.804 184.021 937.902 182.336 938.196 180.751 938.686 178.968 941.038 176.491 942.998 177.977L942.998 177.977Z" fill-rule="evenodd"/><path d="M869.403 176.365C868.899 175.546 867.592 176.262 868.396 176.979L868.396 176.979C869.101 178.208 868.698 179.641 867.592 180.357 866.284 181.381 864.372 181.381 862.863 181.586 860.147 181.893 857.33 183.019 856.827 185.988 856.425 188.649 857.833 191.721 856.726 194.178 855.62 196.634 852.803 197.863 850.791 199.296 848.577 200.934 846.364 203.493 847.169 206.462L847.169 206.462C847.27 206.872 847.571 207.076 847.974 206.974 848.376 206.872 848.577 206.462 848.477 206.053 847.471 202.674 851.595 200.422 853.809 198.989 856.022 197.556 858.034 195.713 858.336 192.847 858.336 191.413 858.235 189.98 858.034 188.547 857.732 187.216 858.034 185.885 858.738 184.759 859.644 183.838 860.952 183.224 862.26 183.121 863.769 183.121 865.278 182.814 866.686 182.405 867.994 181.995 869 181.074 869.604 179.846 870.207 178.719 870.107 177.389 869.403 176.365L869.403 176.365Z" fill-rule="evenodd"/><path d="M893.869 126.047C891.214 127.626 888.264 129.303 886.691 132.067 885.511 134.238 885.118 136.803 884.626 138.974 884.135 141.145 883.348 143.316 881.185 144.303 879.907 144.698 878.629 145.389 877.449 146.178 876.662 146.968 875.974 147.856 875.58 148.941 874.696 151.112 874.794 153.579 876.072 155.651 876.662 156.441 877.842 155.75 877.35 154.961 876.072 152.79 876.171 150.125 877.645 148.152 878.235 147.264 879.12 146.573 880.202 146.178 881.48 145.783 882.66 145.191 883.643 144.303 885.118 142.823 885.61 140.849 886.2 138.58 886.79 136.31 887.085 134.04 888.363 132.165 889.838 129.896 892.296 128.613 894.656 127.33 895.442 126.935 894.754 125.751 893.869 126.047Z" fill-rule="evenodd"/><path d="M919.802 136.563C919.013 136.262 918.619 137.669 919.506 137.971 922.364 138.976 925.321 139.68 928.277 139.881 933.106 140.384 937.935 139.278 942.075 136.865 945.82 134.653 948.579 131.135 949.959 126.912 950.254 126.007 948.875 125.605 948.579 126.51 947.889 128.621 946.707 130.632 945.228 132.341 942.37 135.458 938.527 137.468 934.388 138.172 929.46 138.976 924.434 138.373 919.802 136.563L919.802 136.563Z" fill-rule="evenodd"/><path d="M930.599 153.533C930.2 153.533 930 153.931 930 154.329 930 154.727 930.399 154.925 930.799 154.925 931.896 155.025 932.895 155.025 933.992 154.925 948.166 153.931 958.846 141.796 957.947 127.671 957.947 126.776 956.45 126.776 956.55 127.671 956.75 130.655 956.35 133.739 955.452 136.623 953.855 141.796 950.561 146.172 946.169 149.256 941.678 152.339 936.288 153.831 930.898 153.533 930.799 153.533 930.799 153.533 930.599 153.533Z" fill-rule="evenodd"/><path d="M943.595 170.614C943.595 170.614 943.595 170.714 943.595 170.614 943.079 170.714 942.873 171.117 943.079 171.519 943.182 171.921 943.595 172.122 944.008 171.921 946.071 171.318 948.032 170.413 949.786 169.206 956.079 165.083 959.897 158.145 960 150.704L960 150.704C960 150.302 959.691 150 959.278 150 958.865 150 958.556 150.302 958.556 150.704 958.556 152.614 958.246 154.626 957.73 156.436 955.667 163.173 950.405 168.402 943.595 170.614L943.595 170.614Z" fill-rule="evenodd"/><path d="M957.656 174.68C957.55 174.68 957.55 174.68 957.656 174.68 957.233 174.879 956.915 175.278 957.021 175.477L957.021 175.477C957.127 175.875 957.55 176.074 957.974 175.975 959.564 175.775 960.941 174.979 961.895 173.784 963.909 171.494 964.651 168.308 965.18 165.421 965.922 161.538 966.134 157.655 965.922 153.672 965.922 152.776 964.439 152.776 964.439 153.672 964.756 158.352 964.333 163.031 963.273 167.611 962.637 170.499 961.153 174.182 957.656 174.68L957.656 174.68Z" fill-rule="evenodd"/><path d="M881.424 134.967C880.802 130.325 882.046 125.682 884.8 122.306 885.422 121.567 884.444 120.512 883.911 121.251 880.891 125.049 879.469 130.219 880.18 135.389 880.269 136.444 881.513 136.022 881.424 134.967Z" fill-rule="evenodd"/><path d="M871.404 142.473C871.507 142.874 871.92 143.075 872.229 142.974 872.642 142.874 872.848 142.473 872.745 142.072 871.714 137.061 873.261 131.949 876.768 128.241 877.49 127.539 876.355 126.537 875.736 127.238 871.817 131.348 870.166 137.061 871.404 142.473L871.404 142.473Z" fill-rule="evenodd"/><path d="M923.008 108.164C923.304 108.361 923.699 108.262 923.897 107.868 924.095 107.573 923.996 107.08 923.699 106.883 922.019 105.996 920.141 105.799 918.263 106.194 914.804 106.785 911.444 107.77 908.281 109.247 905.118 110.627 902.054 112.498 899.287 114.567 898.595 115.158 899.287 116.439 899.978 115.848 903.339 113.188 907.095 111.119 911.048 109.642 913.025 108.952 915.002 108.361 917.077 107.868 919.054 107.474 921.229 107.08 923.008 108.164L923.008 108.164Z" fill-rule="evenodd"/><path d="M921.689 105.014C920.77 105.099 920.77 106.286 921.689 106.286 927.407 106.116 933.023 107.388 937.925 109.932 938.741 110.271 939.456 109.254 938.639 108.83 933.636 106.201 927.714 104.845 921.689 105.014L921.689 105.014Z" fill-rule="evenodd"/><path d="M966.887 155.32C967.746 146.762 963.56 138.706 959.481 131.356 958.945 130.55 957.657 131.255 958.086 132.061 962.057 139.21 966.028 147.064 965.17 155.32 965.063 156.227 966.672 156.227 966.887 155.32Z" fill-rule="evenodd"/><path d="M937.391 212.644C936.5 213.241 937.292 214.434 938.183 213.837 940.065 212.346 942.342 211.848 944.521 210.953 946.501 210.157 948.284 209.163 950.066 207.969 956.305 203.693 960.662 197.029 963.237 189.967 966.307 181.314 966.802 171.866 967 162.616 967 162.318 966.703 162.019 966.406 162.019 966.01 161.92 965.614 162.218 965.614 162.616 965.614 167.688 965.317 172.86 964.623 177.933 963.534 185.989 960.959 193.946 955.909 200.41 953.73 203.295 950.958 205.781 947.888 207.671 946.303 208.666 944.62 209.461 942.936 210.058 940.956 210.655 939.074 211.55 937.391 212.644L937.391 212.644Z" fill-rule="evenodd"/><path d="M960.294 130.354C959.393 130.045 959.092 131.487 959.793 131.899 960.795 132.311 961.596 131.384 961.896 130.457 962.096 129.427 961.996 128.294 961.696 127.264 960.795 123.143 958.492 119.537 955.188 116.962 953.586 115.623 951.784 114.696 949.881 114.18 948.179 113.768 946.077 113.974 945.076 115.726 944.675 116.55 945.977 117.271 946.377 116.447 947.078 114.902 949.281 115.417 950.582 115.932 953.686 117.168 956.289 119.331 958.091 122.216 958.992 123.658 959.693 125.1 960.194 126.749 960.494 127.47 960.594 128.294 960.694 129.118 960.694 129.427 960.694 129.736 960.594 130.045 960.494 130.148 960.494 130.354 960.394 130.354 960.294 130.354 960.394 130.354 960.294 130.354L960.294 130.354Z" fill-rule="evenodd"/><path d="M958.691 131.662C958.892 131.962 959.295 132.063 959.597 131.962 960 131.762 960.101 131.261 959.899 130.96 956.174 124.341 951.139 118.525 944.997 114.113 944.292 113.611 943.587 114.915 944.292 115.416 950.233 119.728 955.167 125.244 958.691 131.662L958.691 131.662Z" fill-rule="evenodd"/><path d="M951.511 114.038C950.616 114.238 951.013 115.639 951.809 115.539 953.201 115.039 954.593 114.739 956.085 114.638 961.952 114.138 967.719 115.539 972.692 118.642 977.962 121.844 982.238 126.448 985.121 131.852 988.105 137.457 990.093 143.562 990.988 149.867 991.983 156.373 991.983 163.078 993.375 169.483 994.071 172.586 995.264 175.588 996.855 178.29 998.446 180.793 1000.34 183.094 1002.42 185.196 1006.8 189.6 1011.97 193.002 1016.15 197.506 1020.32 202.01 1024.1 207.815 1023.9 214.22 1023.8 217.623 1022.31 220.525 1021.02 223.527 1019.83 226.33 1019.33 229.432 1019.73 232.535 1020.12 235.537 1021.22 238.44 1022.71 241.042 1024.3 243.644 1026.29 246.046 1028.48 248.248 1030.57 250.549 1032.16 253.252 1031.46 256.454 1030.76 259.657 1028.58 262.359 1026.39 264.761 1025.69 265.462 1026.79 266.463 1027.38 265.762 1028.48 264.561 1029.47 263.36 1030.37 262.059 1032.16 259.457 1033.45 256.154 1032.85 253.052 1032.26 249.949 1029.97 247.747 1027.88 245.545 1023.6 241.042 1020.22 234.837 1020.92 228.431 1021.32 225.029 1023.11 222.126 1024.3 218.924 1025.3 215.921 1025.49 212.719 1024.8 209.716 1023.51 203.411 1019.23 198.107 1014.56 193.903 1009.88 189.7 1004.81 186.097 1000.73 181.293 998.645 178.891 996.955 175.989 995.861 172.986 994.767 169.784 994.071 166.481 993.773 163.078 992.977 156.473 992.778 149.867 991.088 143.362 989.596 137.157 986.812 131.252 983.033 126.048 975.774 116.64 963.245 110.435 951.511 114.038L951.511 114.038Z" fill-rule="evenodd"/><path d="M976.061 155.119C975.28 154.62 974.598 155.817 975.28 156.415 976.061 157.013 976.841 157.612 977.426 158.41 979.962 161.701 980.743 166.089 981.035 170.078 981.328 174.865 981.133 179.851 982.596 184.438 983.279 186.632 984.449 188.627 985.815 190.322 987.181 192.017 988.741 193.613 990.107 195.209 991.57 196.705 992.643 198.5 993.423 200.494 994.009 202.19 994.204 203.985 994.106 205.78 993.813 209.669 992.253 213.259 990.79 216.75 989.131 220.34 987.766 224.03 986.79 227.819 986.4 229.714 986.303 231.609 986.4 233.504 986.595 235.498 987.083 237.393 987.961 239.188 989.619 242.878 992.253 245.97 994.009 249.659 994.887 251.355 995.472 253.25 995.569 255.145 995.569 257.338 995.179 259.433 994.301 261.328 992.936 265.217 990.692 269.306 992.058 273.494 992.35 274.392 993.716 273.993 993.423 273.095 993.033 272.098 992.936 271.101 993.033 270.103 993.326 268.009 993.911 265.915 994.789 264.02 995.667 262.026 996.35 259.931 996.837 257.737 997.52 253.549 995.959 249.859 993.911 246.369 991.863 242.878 989.327 239.587 988.254 235.598 987.278 231.808 988.059 227.919 989.327 224.329 990.595 220.539 992.448 216.949 993.813 213.16 995.082 209.669 995.959 205.979 995.374 202.19 994.691 198.001 991.765 194.81 989.034 191.718 987.571 190.123 986.205 188.427 985.132 186.533 983.962 184.339 983.279 181.945 983.084 179.552 982.011 171.374 983.669 160.604 976.061 155.119L976.061 155.119Z" fill-rule="evenodd"/><path d="M968.555 180.348C968.148 179.553 966.929 180.249 967.336 181.144 968.961 184.623 969.469 188.4 968.961 192.178 968.352 195.359 967.336 198.54 965.812 201.523 963.577 206.692 960.632 212.06 961.038 217.925 961.444 223.791 965.304 228.264 967.641 233.434 968.859 236.018 969.266 239.001 968.656 241.784 968.047 244.965 966.422 247.848 965.507 251.029 964.288 255.204 965.101 261.467 970.078 262.958 970.993 263.257 971.399 261.865 970.485 261.567 968.047 260.771 966.828 258.286 966.625 255.9 966.218 252.719 967.437 249.936 968.555 246.953 969.672 243.971 970.789 240.889 970.485 237.708 969.977 235.024 969.063 232.439 967.742 230.153 966.218 227.668 964.898 225.182 963.679 222.598 962.562 220.113 962.257 217.329 962.562 214.645 963.374 208.879 966.625 203.809 968.656 198.54 969.774 195.757 970.383 192.874 970.586 189.991 970.688 186.711 969.977 183.331 968.555 180.348L968.555 180.348Z" fill-rule="evenodd"/><path d="M953.782 207.671C953.677 206.776 952.106 206.776 952.106 207.671 952.734 212.54 952.001 217.41 950.22 221.981 948.754 225.857 946.03 229.236 944.668 233.112 944.04 235 943.83 236.988 944.144 238.876 944.563 240.565 945.297 242.155 946.24 243.646 947.915 246.528 950.22 249.609 948.963 253.087 947.811 256.168 944.668 258.752 945.087 262.329 945.087 263.224 946.659 263.224 946.554 262.329 946.344 260.441 947.392 258.752 948.439 257.162 949.592 255.571 950.43 253.783 950.849 251.894 951.268 248.416 948.963 245.335 947.287 242.354 945.192 239.174 944.982 235.099 946.973 231.72 947.811 229.932 948.858 228.143 949.906 226.354 950.953 224.466 951.896 222.578 952.525 220.491 953.886 216.317 954.306 211.944 953.782 207.671L953.782 207.671Z" fill-rule="evenodd"/><path d="M940.907 246.496C948.838 241.603 957.571 251.589 960.783 260.576 971.123 289.435 968.212 321.389 965.1 352.045L958.776 414.455C929.263 418.449 899.549 419.049 869.936 416.352 867.828 416.352 865.82 415.853 864.114 414.755 859.396 411.459 861.303 403.97 863.411 398.578 865.519 393.186 866.623 385.397 861.504 382.9 853.975 385.497 852.67 395.782 848.153 402.572 839.319 415.853 820.145 413.656 804.987 409.962 802.076 409.263 798.864 408.364 796.756 405.967 793.845 402.572 794.246 397.48 792.439 393.385 790.03 387.793 783.505 383.1 785.312 377.209 787.621 369.819 799.466 372.515 804.485 366.824 805.991 365.226 806.694 362.829 808.3 361.232 810.308 359.135 813.219 358.635 815.829 357.537 823.157 354.441 827.674 346.852 831.69 339.762 839.118 326.781 849.156 328.279 856.585 315.198 862.909 304.014 876.461 284.043 886.499 276.254 895.835 268.964 897.541 259.378 908.784 256.083L950.243 244" fill="#FCB330" fill-rule="evenodd"/><path d="M725.489 367.489C726.385 367.179 725.987 365.733 725.191 366.043 720.514 367.593 716.733 371.311 715.042 376.063 714.743 376.993 716.136 377.406 716.435 376.476 717.927 372.241 721.31 368.936 725.489 367.489L725.489 367.489Z" fill="#4E2F22" fill-rule="evenodd"/><path d="M714.482 373.437C715.401 373.235 714.993 371.817 714.073 372.02L698.537 375.563C698.128 375.664 697.924 376.069 698.026 376.373 698.026 376.778 698.435 377.082 698.844 376.98L714.482 373.437 714.482 373.437Z" fill="#4E2F22" fill-rule="evenodd"/><path d="M776.165 380.735C776.964 380.836 777.364 379.424 776.564 379.323 772.668 378.315 768.771 379.121 764.875 379.424 761.578 379.726 758.181 379.726 755.184 378.012 752.886 376.601 750.887 374.483 749.589 372.064 748.09 369.543 746.991 366.821 746.092 363.997 744.793 360.368 743.694 356.637 742.495 352.906 742.395 352.604 742.195 352.503 741.995 352.402 734.802 350.89 727.409 353.713 723.112 359.662 722.613 360.368 723.912 361.174 724.411 360.368 728.408 354.923 735.202 352.402 741.696 353.713L741.196 353.209C742.495 357.343 743.694 361.578 745.193 365.711 747.091 371.156 749.888 377.206 755.283 379.726 761.977 382.852 769.271 379.021 776.165 380.735L776.165 380.735Z" fill="#4E2F22" fill-rule="evenodd"/><path d="M949 429.505C948.902 429.121 948.508 428.928 948.115 429.025 942.806 430.562 937.3 430.947 931.892 430.274 931.007 430.178 930.614 431.523 931.499 431.619 937.103 432.388 942.904 432.004 948.41 430.37 948.803 430.274 949 429.889 949 429.505Z" fill-rule="evenodd"/><path d="M925.024 426.347C925.152 426.678 925.408 427.009 925.792 427.23 926.304 427.23 926.816 426.899 926.816 426.457L926.816 425.684C926.816 425.353 926.432 425.021 926.048 425.021 925.536 424.911 925.024 425.242 925.024 425.684 924.896 428.003 925.28 430.211 926.176 432.42L926.176 432.42C926.304 432.861 926.816 433.082 927.328 432.972L927.328 432.972C927.84 432.751 928.096 432.42 927.967 431.978 927.072 429.99 926.688 427.782 926.816 425.684L925.024 425.684 925.024 426.347 925.024 426.347Z" fill-rule="evenodd"/><path d="M920.731 425.464C920.641 425.076 920.281 424.882 919.922 425.076 919.562 425.173 919.383 425.561 919.472 425.95 919.832 428.667 919.742 431.482 919.023 434.199L919.023 434.199C918.933 434.49 919.113 434.878 919.472 434.975 919.832 435.072 920.192 434.878 920.281 434.49 921.091 431.579 921.18 428.473 920.731 425.464L920.731 425.464Z" fill-rule="evenodd"/><path d="M913.334 436.648C914.238 436.522 914.238 434.756 913.234 434.883 909.718 435.387 906.203 435.639 902.587 435.891 889.932 436.774 877.177 436.017 864.622 434 864.321 434 864.02 434.378 864.02 434.756 863.919 435.261 864.22 435.765 864.622 435.765 868.137 436.269 871.753 436.774 875.268 437.152 887.923 438.413 900.679 438.287 913.334 436.648L913.334 436.648Z" fill-rule="evenodd"/><path d="M865.926 422.092C866.317 421.296 865.046 420.5 864.753 421.395 862.212 427.064 861.43 433.33 862.407 439.495 862.505 440.391 863.873 439.993 863.776 439.098 862.798 433.33 863.58 427.462 865.926 422.092L865.926 422.092Z" fill-rule="evenodd"/><path d="M864.586 449.801C864.586 449.401 864.289 449.2 863.793 449 863.396 449 863 449.3 863 449.701 863 454.309 863.198 458.817 863.496 463.324 863.991 471.338 864.883 479.252 866.073 487.165 866.37 489.169 866.767 491.172 867.064 493.176 867.361 494.979 867.659 496.782 868.154 498.585 868.848 500.889 870.831 503.994 873.606 502.692 874.498 502.291 873.705 500.989 872.912 501.39 871.624 501.991 870.632 500.588 870.137 499.687 869.443 498.184 869.046 496.481 868.848 494.778 866.271 479.953 864.784 464.927 864.586 449.801L864.586 449.801Z" fill-rule="evenodd"/><path d="M869.46 455.518C869.358 455.219 868.948 454.92 868.538 455.02L868.538 455.02C868.128 455.119 867.924 455.518 868.026 455.917L871.918 482.242 878.678 528.709 885.54 575.476 885.54 575.476C885.745 575.875 886.052 576.074 886.462 575.975 886.872 575.875 887.076 575.476 886.974 575.077L883.082 548.752 876.322 502.285 869.46 455.518 869.46 455.518Z" fill-rule="evenodd"/><path d="M971.926 536.033C972.11 535.651 971.926 535.268 971.65 535.077L971.65 535.077C971.282 534.886 970.915 535.077 970.731 535.364 968.892 537.849 966.409 539.666 963.466 540.622 962.639 540.908 963.007 542.247 963.834 541.96 967.053 540.908 969.903 538.805 971.926 536.033 971.926 536.033 971.926 535.937 971.926 536.033Z" fill-rule="evenodd"/><path d="M968.624 534.361C968.718 534.361 968.718 534.361 968.624 534.361 969 534.048 969.094 533.63 968.906 533.317L968.906 533.317C968.718 533.004 968.247 532.9 967.965 533.109L961.286 538.639C961.004 538.848 960.91 539.37 961.098 539.683 961.286 539.996 961.756 540.1 962.039 539.891L968.624 534.361 968.624 534.361Z" fill-rule="evenodd"/><path d="M927.648 438.54C927.2 437.634 925.632 437.936 926.08 438.943 927.312 442.268 928.208 445.794 928.432 449.32 928.432 450.227 930 450.227 930 449.32 929.776 445.592 928.992 441.966 927.648 438.54L927.648 438.54Z" fill-rule="evenodd"/><path d="M930.319 458.513C930.122 457.614 928.746 458.014 929.041 458.813 930.614 469.099 932.088 479.385 933.563 489.672 936.217 508.147 938.674 526.523 941.033 544.999 943.392 563.475 945.555 581.85 947.619 600.326 947.619 601.225 949.094 601.225 948.995 600.326 947.816 589.94 946.636 579.553 945.358 569.067 943.098 550.691 940.837 532.316 938.281 513.94 935.725 495.464 933.071 476.989 930.319 458.513L930.319 458.513Z" fill-rule="evenodd"/><path d="M922.347 442.503C922.245 441.6 920.816 442.001 921.02 443.004 922.858 454.134 924.696 465.365 926.432 476.595 929.495 496.55 932.456 516.604 935.111 536.759 937.868 556.914 940.319 577.068 942.565 597.323 942.565 598.226 944.097 598.226 943.995 597.323 942.77 585.992 941.442 574.561 940.013 563.231 937.562 543.176 934.805 523.021 931.844 502.867 928.883 482.712 925.717 462.557 922.347 442.503L922.347 442.503Z" fill-rule="evenodd"/><path d="M876.887 538.099C877.385 537.291 876.091 536.583 875.792 537.291 873.801 540.424 871.81 543.658 869.819 546.892 862.851 558.313 856.281 570.038 850.108 581.863 849.909 582.166 850.009 582.57 850.208 582.773L850.208 582.773C850.507 583.076 850.905 583.076 851.204 582.773L852.199 581.863C852.896 581.257 851.9 580.246 851.204 580.852L850.208 581.762 851.303 582.672C852.995 579.336 854.787 576.001 856.579 572.665 862.95 560.84 869.72 549.419 876.887 538.099L876.887 538.099Z" fill-rule="evenodd"/><path d="M872.575 532.425C870.164 535.92 867.954 539.414 865.644 543.009 857.709 555.589 850.577 568.569 844.048 581.948 843.746 582.747 844.952 583.446 845.354 582.647 847.162 578.753 849.07 575.059 851.079 571.265 857.91 558.085 865.543 545.305 873.88 532.925 874.383 532.226 873.177 531.527 872.575 532.425Z" fill-rule="evenodd"/><path d="M986.633 588.491C986.932 589.394 988.328 588.993 987.929 588.089 987.43 586.584 986.832 585.178 986.334 583.673 984.339 577.751 982.445 571.829 980.75 565.806 978.855 559.884 977.359 553.761 976.362 547.638 975.864 544.527 975.864 541.415 976.163 538.304 976.662 535.292 977.459 532.281 978.456 529.471 980.351 523.749 981.348 517.827 981.448 511.905 981.547 499.76 978.257 487.915 974.667 476.372 970.878 464.227 966.89 451.981 963.101 439.836 962.104 436.825 961.206 433.813 960.209 430.802 959.511 428.293 958.514 425.984 957.118 423.776 954.625 420.062 949.44 417.352 945.352 420.162 944.555 420.765 945.253 421.969 946.05 421.467 946.948 420.865 948.044 420.564 949.141 420.564 954.526 420.664 957.118 426.185 958.614 430.601 960.508 436.524 962.303 442.345 964.198 448.267 967.987 460.011 971.975 471.755 975.365 483.7 978.656 494.942 981.149 506.886 979.653 518.73 979.254 521.641 978.656 524.552 977.758 527.363 976.861 530.173 975.864 532.984 975.266 535.794 973.969 541.616 974.767 547.638 976.063 553.36 978.855 565.304 982.345 577.048 986.633 588.491L986.633 588.491Z" fill-rule="evenodd"/><path d="M863.825 415.342C864.424 414.539 863.326 413.435 862.927 414.338 862.029 415.342 861.231 416.347 860.633 417.552 857.939 422.472 857.241 428.195 856.742 433.617 856.343 439.943 855.544 446.169 854.447 452.394 851.753 465.548 847.064 478.2 842.176 490.752 837.088 504.107 832 517.461 826.812 530.716L811.348 570.579C808.255 578.512 804.963 590.762 813.144 596.887 813.842 597.389 814.54 596.084 813.842 595.582 812.844 594.879 812.046 594.076 811.448 593.072 808.954 589.155 809.153 584.034 810.051 579.717 811.148 574.094 813.443 568.872 815.538 563.55L830.603 524.591C835.491 511.738 840.58 498.885 845.468 485.932 850.157 473.682 854.547 461.231 856.642 448.177 857.54 442.353 857.739 436.529 858.438 430.705 859.036 425.283 860.234 419.66 863.825 415.342L863.825 415.342Z" fill-rule="evenodd"/><path d="M886.181 580.34C885.999 580.038 885.636 579.937 885.363 580.038 885 580.239 884.909 580.743 885.091 581.046 886.635 583.868 887.452 587.094 887.724 590.32 887.724 591.227 889.087 591.227 888.996 590.32 888.723 586.792 887.724 583.364 886.181 580.34L886.181 580.34Z" fill-rule="evenodd"/><path d="M960.778 443.581C960.678 442.791 959.264 442.791 959.264 443.68 959.466 445.458 957.245 446.15 955.831 446.249 954.014 446.446 952.197 446.051 950.38 446.842 948.663 447.533 947.755 449.312 948.058 451.09 948.36 453.363 948.764 455.537 949.37 457.809 950.279 462.552 951.288 467.196 952.399 471.84 954.519 481.128 956.942 490.317 959.567 499.506 959.668 499.802 959.971 500 960.375 500 960.778 499.901 961.081 499.506 960.98 499.111 959.466 494.072 958.154 488.934 956.841 483.697 954.519 474.508 952.399 465.319 950.481 456.031 950.279 454.845 949.976 453.659 949.774 452.474 949.572 451.486 949.471 450.399 949.673 449.411 950.178 447.731 952.197 447.533 953.61 447.533 955.226 447.632 956.942 447.336 958.456 446.842 959.87 446.446 960.778 445.063 960.778 443.581L960.778 443.581Z" fill-rule="evenodd"/><path d="M974.672 509.61 961.016 500.11C960.328 499.62 959.542 500.894 960.328 501.383L973.984 510.884C974.672 511.373 975.458 510.198 974.672 509.61Z" fill-rule="evenodd"/><path d="M910.658 332.612C910.867 333 911.287 333.097 911.601 332.903 911.916 332.806 912.125 332.418 911.916 332.03 910.133 328.633 907.512 325.624 904.367 323.295 904.262 323.198 904.262 323.198 904.157 323.101 903.843 322.907 903.319 323.004 903.109 323.295 902.899 323.586 903.004 324.071 903.319 324.266 906.359 326.498 908.875 329.409 910.658 332.612L910.658 332.612Z" fill-rule="evenodd"/><path d="M906.551 319.29 893.115 338.939C892.603 339.745 893.936 340.45 894.449 339.644L907.885 320.096C908.398 319.29 907.064 318.584 906.551 319.29Z" fill-rule="evenodd"/><path d="M902 336.32C902 336.7 902.214 337.08 902.5 336.985 902.786 336.985 903 336.7 903 336.32L903 329.665 903 329.665C903 329.285 902.786 329 902.5 329 902.214 329 902 329.285 902 329.665L902 336.32 902 336.32Z" fill-rule="evenodd"/><path d="M890.692 344.081C890.387 343.88 889.88 344.081 889.677 344.383 888.359 346.496 886.939 348.609 885.519 350.723 880.447 358.069 875.071 365.113 869.188 371.754 868.579 372.459 869.593 373.465 870.202 372.761 871.926 370.849 873.549 368.937 875.172 366.924 880.853 359.981 886.127 352.735 890.894 345.188 891.097 344.886 890.996 344.282 890.692 344.081Z" fill-rule="evenodd"/><path d="M819.597 404.468C819.783 405.361 821.089 405.063 820.995 404.071 819.41 396.035 816.519 388.296 812.323 381.351 811.764 380.557 810.645 381.251 811.111 382.045 815.214 388.891 818.105 396.531 819.597 404.468L819.597 404.468Z" fill-rule="evenodd"/><path d="M827.923 368.946C826.187 365.585 823.391 362.801 820.016 361.072 819.244 360.688 818.569 361.937 819.341 362.321 822.426 363.953 825.03 366.45 826.669 369.618 827.151 370.482 828.308 369.714 827.923 368.946Z" fill-rule="evenodd"/><path d="M830.851 361.902 830.851 361.902C831.276 362.098 831.702 362 831.914 361.606L831.914 361.606C832.127 361.213 831.914 360.819 831.595 360.622L824.149 357.079 824.149 357.079C823.724 356.882 823.298 357.079 823.086 357.374 823.086 357.473 823.086 357.473 823.086 357.473 822.873 357.768 823.086 358.162 823.405 358.359L830.851 361.902 830.851 361.902Z" fill-rule="evenodd"/><path d="M946.808 406.593 946.808 406.593C946.497 406.593 946.185 406.761 946.081 407.098 945.874 407.35 946.081 407.772 946.497 407.856 948.26 408.192 950.128 407.94 951.685 407.098 951.996 406.93 952.1 406.509 951.892 406.256L951.892 406.256C951.685 406.003 951.166 405.919 950.854 406.088L950.336 406.34C950.336 406.34 950.232 406.424 950.128 406.424L950.024 406.424 950.024 406.424C949.609 406.593 949.298 406.677 948.883 406.677 948.883 406.677 948.675 406.677 948.779 406.677L947.638 406.677C947.534 406.677 947.327 406.677 947.43 406.677L946.808 406.593 946.808 406.593Z" fill-rule="evenodd"/><path d="M934.266 410.325C935.261 410.231 935.261 408.91 934.166 409.005 929.788 409.382 925.311 409.759 920.933 409.948 905.212 410.797 889.392 410.891 873.672 410.231 872.776 410.137 872.776 411.552 873.672 411.552 878.149 411.74 882.527 411.835 887.004 411.929 902.825 412.212 918.545 411.646 934.266 410.325L934.266 410.325Z" fill-rule="evenodd"/><path d="M958.853 371.226C959.049 370.927 959.049 370.529 958.853 370.33 958.657 369.932 958.167 369.932 957.873 370.131 955.816 372.421 953.758 374.513 951.505 376.604 943.569 384.073 934.849 390.447 925.346 395.625 924.562 396.123 925.248 397.318 926.032 396.92 928.775 395.426 931.42 393.833 933.968 392.14 943.177 386.264 951.505 379.293 958.853 371.226L958.853 371.226Z" fill-rule="evenodd"/><path d="M922.657 319.084C922.657 319.084 922.657 319.186 922.657 319.084 922.454 319.388 922.657 319.793 922.961 319.895 923.266 320.097 923.773 319.996 923.976 319.692 927.021 314.324 929.152 308.551 930.167 302.474 931.08 297.208 931.283 291.941 930.573 286.674 930.065 281.914 928.34 277.255 925.6 273.204 923.063 269.558 919.206 266.823 914.842 265.608 910.579 264.392 906.012 265 902.359 267.431 901.547 268.038 902.257 269.254 903.069 268.747 906.926 266.114 911.899 266.013 916.161 267.633 924.991 270.976 928.645 280.699 929.355 289.409 930.065 299.74 927.731 310.07 922.657 319.084L922.657 319.084Z" fill-rule="evenodd"/></g></svg>