<svg xmlns="http://www.w3.org/2000/svg" xmlns:xlink="http://www.w3.org/1999/xlink" id="Layer_1" x="0px" y="0px" viewBox="0 0 846 524.8" style="enable-background:new 0 0 846 524.8;" xml:space="preserve">
<style type="text/css">
	.st0{fill:#F2F2F2;}
	.st1{fill:#E9F8FF;}
	.st2{fill:none;stroke:#000000;stroke-width:3;stroke-miterlimit:10;}
	.st3{fill:#829DAD;stroke:#000000;stroke-width:3;stroke-miterlimit:10;}
	.st4{fill:#FFFFFF;}
	.st5{font-family:'ArialMT';}
	.st6{font-size:24.4303px;}
	.st7{enable-background:new    ;}
	.st8{fill:#F7C148;stroke:#000000;stroke-width:3;stroke-miterlimit:10;}
	.st9{fill:#E69B59;stroke:#000000;stroke-width:3;stroke-miterlimit:10;}
	.st10{fill:#FCE7C2;}
	.st11{fill:#4E2F22;}
	.st12{fill:#8F6E67;}
	.st13{fill:#D96C6D;}
	.st14{fill:#C77172;}
	.st15{fill:#FCB330;}
</style>
<g>
	<path class="st0" d="M610.5,446.6c3.7-4.7,9.5-7.4,15.5-7.2c8.2,18,4.2,42.1-9.1,54.6c-7.6,7.2-17.4,10.4-27.1,12.7   c-63.4,14.8-129.3-6.1-194.3-8.6c-88.5-3.6-175.5,27-263.9,20.3c-12.1-1-24.7-2.8-34.9-10.9c-7.9-6.4-13.6-16-18.2-25.9   c-19.8-42.8-22-95.8-5.8-139.5s50.5-77.3,90.3-88.4c25.6-7.2,52.3-5.5,78.7-3.7c36.9,2.4,75.3,5.4,107.6,27.1   c21.3,14.2,38.3,35.5,56.4,54.9c38.1,40.8,82.2,74,129.6,97.7c27.8,13.9,60,24.3,86.9,9.8"></path>
	<path class="st1" d="M526.1,191.8V241c-0.1,16-13.1,29-29.1,29H283.7c-16.1,0-29.1-13-29.1-29v-49.2l0,0c0-16.1,13-29.1,29.1-29.1   H497C513,162.7,526,175.7,526.1,191.8z"></path>
	<line class="st2" x1="319.8" y1="196.1" x2="499.3" y2="196.1"></line>
	<line class="st2" x1="286.1" y1="213.5" x2="499.6" y2="214.4"></line>
	<line class="st2" x1="285.2" y1="237.1" x2="498.7" y2="238.1"></line>
</g>
<g>
	<path class="st3" d="M216.3,307.6l10-73.8c2.4-17.8,18.8-30.3,36.6-27.9l73.8,10c17.8,2.4,30.3,18.8,27.9,36.6l-10,73.8   c-2.4,17.8-18.8,30.3-36.6,27.9l-73.8-10C226.3,341.8,213.9,325.4,216.3,307.6L216.3,307.6z"></path>
	<path class="st3" d="M231.1,309.8l11.8-87.6c1.9-14,14.7-23.9,28.8-22c0,0,0,0,0.1,0l87.5,11.8c14,1.9,23.9,14.8,22,28.8l0,0   l-11.8,87.6c-1.9,14-14.8,23.8-28.8,21.9l0,0l-87.5-11.8C239.1,336.8,229.3,323.9,231.1,309.8C231.1,309.9,231.1,309.8,231.1,309.8   z"></path>
	<path class="st4" d="M335.9,228.7l-43.6-6c-8.4-1.1-16,4.7-17.2,13.1l-6,43.6c-1.1,8.4,4.7,16.1,13.1,17.2l0,0l43.6,6   c8.4,1.2,16.1-4.7,17.2-13l0,0l6-43.6C350.2,237.6,344.3,229.9,335.9,228.7z M338.7,289c-0.9,6-6.3,10.1-12.3,9.3l-43.6-6   c-6-0.9-10.1-6.4-9.3-12.3l6-43.6c0.9-5.9,6.3-10.1,12.3-9.3l43.6,6c6,0.8,10.2,6.3,9.4,12.3L338.7,289z"></path>
	<path class="st4" d="M329,266.9l0.5-10.8c0.2-3.4-2.3-6.4-5.7-6.8l-22.1-3l0.5-3.6c0.1-0.4,0.4-0.7,0.8-0.6l3.6,0.5l-0.2,1.4   l8.7,1.2l1-7.2l-8.7-1.2l-0.2,1.4l-3.6-0.5c-2.8-0.4-5.3,1.6-5.7,4.4l0,0l-0.5,3.7c-3,0-5.6,2.1-6.3,5.1l-2.4,10.5l-3.8-0.5   l-0.6,4.3l47.8,6.6l0.6-4.3L329,266.9z M293,261.9l2.3-10.1c0.2-1.1,1.3-1.8,2.4-1.7l25.5,3.5c1.1,0.2,1.9,1.1,1.9,2.3l-0.5,10.4   L293,261.9z"></path>
	<polygon class="st4" points="308.4,283.9 309.9,273 305.5,272.5 304,283.3 296.1,282.2 295.5,286.5 315.7,289.3 316.3,285  "></polygon>
	<text transform="matrix(0.995 9.950740e-02 -9.950740e-02 0.995 276.3583 323.3411)" class="st4 st5 st6">.</text>
	<g class="st7">
		<path class="st4" d="M290.6,319.6l-2,1.6l-0.3,3.3l-3.8-0.4l1.8-18l3.8,0.4l-1,10.2l6.1-4.7l4.5,0.5l-6,5l5.2,8.1l-4.6-0.5    L290.6,319.6z"></path>
	</g>
	<g class="st7">
		<path class="st4" d="M313.1,321.5l-9.9-1c0.2,1.7,1.5,2.8,3.5,3c1.4,0.1,2.4-0.2,3.4-0.9l1.8,2.4c-1.4,1.3-3.3,1.8-5.6,1.6    c-4.5-0.5-7.2-3.6-6.8-7.5s3.7-6.4,7.7-6c3.8,0.4,6.5,3.3,6.1,7.5C313.3,320.8,313.2,321.2,313.1,321.5z M303.4,318.3l6.4,0.6    c-0.1-1.7-1.2-2.9-2.9-3C305.2,315.7,303.8,316.6,303.4,318.3z"></path>
	</g>
	<g class="st7">
		<path class="st4" d="M329.2,315.4l-7.3,13.3c-1.6,3-3.5,3.8-5.8,3.6c-1.3-0.1-2.8-0.7-3.5-1.6l1.7-2.6c0.5,0.6,1.3,1,2.1,1    c1,0.1,1.7-0.3,2.3-1.4l0.1-0.1l-4.3-13.7l3.9,0.4l2.8,9.2l4.6-8.5L329.2,315.4z"></path>
	</g>
	<path class="st8" d="M281.4,364.3l72-19.4c17.3-4.7,35.2,5.6,39.8,23l0,0l19.3,72c4.7,17.3-5.6,35.2-23,39.8l0,0l-72,19.4   c-17.3,4.7-35.2-5.6-39.8-23l0,0l-19.3-72C253.7,386.8,264,368.9,281.4,364.3z"></path>
	<path class="st8" d="M287.5,355.7l85.3-23c13.7-3.7,27.7,4.4,31.4,18.1l0,0l23,85.3c3.7,13.7-4.4,27.7-18.1,31.4l0,0l-85.3,23   c-13.7,3.7-27.7-4.4-31.4-18c0,0,0,0,0-0.1l-23-85.3C265.7,373.5,273.7,359.4,287.5,355.7C287.4,355.8,287.4,355.7,287.5,355.7z"></path>
	<path class="st4" d="M361.1,376.8L342,366.1c-0.3-0.2-0.7-0.2-1-0.1l-28.5,8c-3.4,1-5.4,4.5-4.4,7.8l13.8,49.4   c1,3.4,4.5,5.4,7.8,4.4l38.6-10.7c3.4-1,5.4-4.5,4.4-7.9l-11-39.4C361.6,377.3,361.4,377,361.1,376.8z M343.5,369.9L343.5,369.9   l13.6,7.6l-7,2c-2,0.5-4-0.6-4.6-2.6L343.5,369.9z M370.2,417.7c0.5,2-0.6,4-2.6,4.6L329,433c-2,0.5-4-0.6-4.6-2.6L310.6,381   c-0.5-2,0.6-4,2.6-4.6l27.3-7.6l2.5,8.8c0.9,3.4,4.4,5.3,7.8,4.4l8.8-2.5L370.2,417.7z"></path>
	<path class="st4" d="M353.4,390.4l-5,1.4l-1.4-5c-0.2-0.7-0.9-1.1-1.6-0.9l0,0l-22.4,6.3c-0.7,0.2-1.1,0.9-0.9,1.6l0,0l6.3,22.4   c0.2,0.7,0.9,1.1,1.6,0.9l0,0l5.1-1.4l1.4,5c0.2,0.7,0.9,1.1,1.6,0.9l0,0l22.4-6.3c0.7-0.2,1.1-0.9,0.9-1.6l0,0l-6.3-22.4   C354.8,390.6,354,390.2,353.4,390.4z M330.4,414.1l-5.5-19.9l19.9-5.5l5.5,19.9L330.4,414.1z M358.3,413.1l-19.9,5.5l-1.1-3.8   l14.8-4.1c0.7-0.2,1.1-0.9,0.9-1.6l0,0l-4.1-14.8l3.8-1.1L358.3,413.1z"></path>
	<path class="st4" d="M338.4,382.7l-0.6,0.1c-0.7,0.2-1,1-0.8,1.7c0.2,0.6,0.8,0.9,1.5,0.8l0.6-0.1c0.7-0.2,1.1-0.9,0.9-1.6   C339.8,383,339.1,382.6,338.4,382.7L338.4,382.7z"></path>
	<path class="st4" d="M333.8,384l-12.2,3.4c-0.7,0.2-1.1,0.9-0.9,1.6c0.2,0.7,0.9,1.1,1.6,0.9l0,0l0,0l12.2-3.4   c0.7-0.2,1.1-0.9,0.9-1.6C335.2,384.3,334.5,383.9,333.8,384z"></path>
	<g class="st7">
		<path class="st4" d="M332.6,443l2,7.1c0.9,3.2-0.4,5.1-3.5,5.9c-1.6,0.5-3.3,0.5-4.5,0l0.5-2c0.9,0.4,2.2,0.4,3.3,0.1    c1.7-0.5,2.3-1.5,1.8-3l-0.1-0.4c-0.4,0.9-1.3,1.5-2.4,1.8c-2.4,0.7-4.7-0.4-5.4-2.9s0.7-4.6,3.1-5.3c1.2-0.3,2.3-0.2,3.2,0.4    l-0.3-1.1L332.6,443z M331.3,447.7c-0.3-1.2-1.5-1.8-2.8-1.5c-1.3,0.4-2,1.5-1.7,2.7s1.5,1.8,2.8,1.5    C330.9,450,331.6,448.9,331.3,447.7z"></path>
		<path class="st4" d="M335.4,446.8c-0.7-2.6,0.7-4.9,3.4-5.7c2.7-0.8,5.2,0.5,5.9,3.1s-0.7,4.9-3.4,5.7S336.2,449.4,335.4,446.8z     M342.3,444.9c-0.4-1.5-1.6-2.1-2.8-1.7s-1.9,1.5-1.5,3s1.6,2.1,2.8,1.7S342.7,446.3,342.3,444.9z"></path>
		<path class="st4" d="M345.8,443.9c-0.7-2.6,0.7-4.9,3.4-5.7c2.7-0.8,5.2,0.5,5.9,3.1s-0.7,4.9-3.4,5.7    C349,447.7,346.5,446.5,345.8,443.9z M352.6,442c-0.4-1.5-1.6-2.1-2.8-1.7c-1.2,0.3-1.9,1.5-1.5,3s1.6,2.1,2.8,1.7    C352.3,444.6,353,443.5,352.6,442z"></path>
		<path class="st4" d="M364.3,434.1l2,7.1c0.9,3.2-0.4,5.1-3.5,5.9c-1.6,0.5-3.3,0.5-4.5,0l0.5-2c0.9,0.4,2.2,0.4,3.3,0.1    c1.7-0.5,2.3-1.5,1.8-3l-0.1-0.4c-0.4,0.9-1.3,1.5-2.4,1.8c-2.4,0.7-4.7-0.4-5.4-2.9s0.7-4.6,3.1-5.3c1.2-0.3,2.3-0.2,3.2,0.4    l-0.3-1.1L364.3,434.1z M363,438.8c-0.3-1.2-1.5-1.8-2.8-1.5c-1.3,0.4-2,1.5-1.7,2.7s1.5,1.8,2.8,1.5    C362.7,441.1,363.3,440,363,438.8z"></path>
		<path class="st4" d="M365.7,430.3l2.5-0.7l3.3,11.7L369,442L365.7,430.3z"></path>
		<path class="st4" d="M381,434.8l-6.4,1.8c0.5,1,1.6,1.4,2.9,1c0.9-0.3,1.5-0.7,1.9-1.4l1.7,1.1c-0.5,1.1-1.6,1.9-3.1,2.4    c-2.9,0.8-5.4-0.5-6.1-3c-0.7-2.5,0.7-4.9,3.3-5.6c2.5-0.7,4.9,0.4,5.7,3.2C380.9,434.3,381,434.6,381,434.8z M374.2,435.1    l4.2-1.2c-0.5-1-1.5-1.5-2.6-1.2C374.6,433.1,374,434,374.2,435.1z"></path>
	</g>
	<g class="st7">
		<path class="st4" d="M335.7,470.9l0.3-2c0.9,0.3,2.1,0.3,3.2,0c1.1-0.3,1.5-0.7,1.3-1.2c-0.4-1.4-5.1,1.5-6.1-1.9    c-0.5-1.6,0.7-3.2,3.2-3.8c1.2-0.3,2.5-0.4,3.5-0.2l-0.3,2c-1-0.2-1.8-0.2-2.6,0.1c-1.1,0.3-1.5,0.8-1.4,1.2    c0.4,1.5,5.1-1.4,6.1,2c0.4,1.6-0.7,3.1-3.3,3.8C338.2,471.2,336.6,471.2,335.7,470.9z"></path>
		<path class="st4" d="M341.8,457.4l2.5-0.7l3.3,11.7l-2.5,0.7L341.8,457.4z"></path>
		<path class="st4" d="M346.4,456.8c-0.2-0.8,0.2-1.5,1.1-1.8c0.9-0.3,1.7,0.1,1.9,0.9s-0.2,1.6-1.1,1.8    C347.4,458,346.6,457.6,346.4,456.8z M347.4,459.3l2.5-0.7l2.4,8.5l-2.5,0.7L347.4,459.3z"></path>
		<path class="st4" d="M359.9,452.3l3.3,11.7l-2.4,0.7l-0.3-1c-0.4,0.9-1.2,1.5-2.3,1.8c-2.4,0.7-4.7-0.5-5.5-3.2    c-0.7-2.7,0.6-4.9,3-5.6c1-0.3,2-0.2,2.8,0.3l-1.2-4.1L359.9,452.3z M359.6,460.4c-0.4-1.5-1.6-2.1-2.8-1.7    c-1.2,0.3-1.9,1.5-1.5,3s1.6,2.1,2.8,1.7C359.3,463.1,360,461.9,359.6,460.4z"></path>
		<path class="st4" d="M372.8,457.5l-6.4,1.8c0.5,1,1.6,1.4,2.9,1c0.9-0.3,1.5-0.7,1.9-1.4l1.7,1.1c-0.5,1.1-1.6,1.9-3.1,2.4    c-2.9,0.8-5.4-0.5-6.1-3c-0.7-2.5,0.7-4.9,3.3-5.6c2.5-0.7,4.9,0.4,5.7,3.2C372.7,457,372.7,457.3,372.8,457.5z M365.9,457.9    l4.2-1.2c-0.5-1-1.5-1.5-2.6-1.2C366.4,455.8,365.8,456.7,365.9,457.9z"></path>
		<path class="st4" d="M374.4,460l0.3-2c0.9,0.3,2.1,0.3,3.2,0c1.1-0.3,1.5-0.7,1.3-1.2c-0.4-1.4-5.1,1.5-6.1-1.9    c-0.5-1.6,0.7-3.2,3.2-3.8c1.2-0.3,2.5-0.4,3.5-0.2l-0.3,2c-1-0.2-1.8-0.2-2.6,0.1c-1.1,0.3-1.5,0.8-1.4,1.2    c0.4,1.5,5.1-1.4,6.1,2c0.4,1.6-0.7,3.1-3.3,3.8C376.9,460.3,375.3,460.3,374.4,460z"></path>
	</g>
	<path class="st9" d="M132.2,380.9l19.4-71.9c4.6-17.3,22.4-27.6,39.8-23c0,0,0,0,0.1,0l72,19.4c17.3,4.6,27.6,22.5,23,39.8l0,0   l-19.3,72c-4.6,17.3-22.5,27.7-39.8,23l0,0l-72-19.4c-17.3-4.6-27.7-22.4-23.1-39.7C132.1,381,132.1,380.9,132.2,380.9z"></path>
	<path class="st9" d="M117.6,377.2l23-85.3c3.7-13.7,17.7-21.8,31.4-18.1l85.3,23c13.7,3.7,21.7,17.7,18.1,31.4l-23,85.3   c-3.7,13.7-17.7,21.8-31.4,18.1l-85.3-23C122,404.9,113.9,390.9,117.6,377.2z"></path>
	<path class="st4" d="M212.3,313c-0.4-0.5-0.9-0.9-1.6-1l-35.7-3.9c-1.1-0.1-2,0.5-2.4,1.5l-14,46.4c-0.3,1,0.2,2.1,1.1,2.6   l31.8,16.6c0.1,0.1,0.3,0.1,0.4,0.1c1.2,0.3,2.4-0.3,2.7-1.5l17.9-59.1C212.8,314.3,212.7,313.6,212.3,313z M191.3,370l-27.8-14.4   l13-42.9l31.2,3.4L191.3,370z"></path>
	<path class="st4" d="M238.1,329.5l-29.5-9c-1.1-0.4-2.4,0.2-2.8,1.3c-0.4,1.1,0.2,2.4,1.3,2.8c0.1,0,0.2,0.1,0.3,0.1l27.4,8.3   l-11.5,37.9l-27.4-8.3c-1.1-0.4-2.4,0.2-2.8,1.3c-0.4,1.1,0.2,2.4,1.3,2.8h0.1h0.1l29.5,9c1.2,0.3,2.4-0.3,2.7-1.5l12.8-42.2   C239.9,331.1,239.3,329.9,238.1,329.5L238.1,329.5z"></path>
	<path class="st4" d="M219.4,360.7l-21.1-6.4c-1.2-0.3-2.4,0.5-2.6,1.7c-0.2,1.1,0.3,2.1,1.3,2.5l21.1,6.4c1.1,0.4,2.4-0.2,2.8-1.3   c0.4-1.1-0.2-2.4-1.3-2.8C219.6,360.8,219.5,360.7,219.4,360.7z"></path>
	<path class="st4" d="M183.7,326.8c-1.2-0.4-2.4,0.3-2.7,1.5l-6.4,21.1c-0.5,1.1,0.1,2.4,1.2,2.9s2.4-0.1,2.9-1.2   c0-0.1,0.1-0.1,0.1-0.2c0,0,0-0.1,0-0.2l6.4-21.1C185.5,328.4,184.8,327.2,183.7,326.8z"></path>
	<path class="st4" d="M190,328.7l-6.3-1.9c-1.2-0.3-2.4,0.3-2.8,1.5c-0.3,1.1,0.3,2.3,1.4,2.7h0.1l6.3,1.9c2.3,0.7,3.6,3.2,2.9,5.5   s-3.2,3.6-5.5,2.9l-6.4-1.9c-1.2-0.3-2.4,0.4-2.7,1.6c-0.3,1.1,0.3,2.2,1.4,2.6l6.3,1.9c4.7,1.2,9.5-1.7,10.7-6.4   C196.7,334.8,194.3,330.2,190,328.7L190,328.7z"></path>
	<path class="st4" d="M218.6,332.8c-5.8-1.7-12,1.6-13.7,7.4s1.6,12,7.4,13.7c5.8,1.7,11.9-1.5,13.7-7.4l0,0   C227.8,340.7,224.5,334.6,218.6,332.8C218.7,332.8,218.6,332.8,218.6,332.8z M213.5,349.7c-3.5-1.1-5.5-4.7-4.4-8.2   s4.7-5.5,8.2-4.4s5.5,4.7,4.4,8.2C220.7,348.7,217,350.7,213.5,349.7L213.5,349.7z"></path>
	<path class="st4" d="M224.6,343.8l-6.3-1.9l1.9-6.3c0.3-1.2-0.4-2.4-1.5-2.7l0,0c-1.1-0.3-2.2,0.3-2.6,1.4l-2.6,8.4   c-0.3,1.2,0.3,2.4,1.5,2.7l8.4,2.5c1.2,0.3,2.4-0.3,2.7-1.5l0,0C226.2,345.3,225.6,344.2,224.6,343.8L224.6,343.8z"></path>
	<g class="st7">
		<path class="st4" d="M156,390.8c0.4-1.3,1.7-1.9,3-1.5s2,1.6,1.5,2.9c-0.4,1.3-1.7,2-3,1.6C156.3,393.4,155.6,392.1,156,390.8z"></path>
		<path class="st4" d="M177.8,393.1c-1.2,3.9-4.7,5.6-8.2,4.5c-1.6-0.5-2.7-1.4-3.3-2.7l-1.8,5.8l-3.6-1.1l5.4-17l3.5,1.1l-0.5,1.4    c1.2-0.8,2.8-0.9,4.4-0.4C177.2,385.8,179.1,389.2,177.8,393.1z M174.2,392c0.7-2.2-0.3-3.9-2.1-4.5s-3.6,0.3-4.3,2.5    c-0.7,2.2,0.3,3.9,2.1,4.5C171.7,395,173.5,394.1,174.2,392z"></path>
		<path class="st4" d="M193.8,398.2c-1.2,3.9-4.7,5.6-8.2,4.5c-1.6-0.5-2.7-1.4-3.3-2.7l-1.8,5.8l-3.6-1.1l5.4-17l3.5,1.1l-0.5,1.4    c1.2-0.8,2.8-0.9,4.4-0.4C193.2,390.9,195.1,394.2,193.8,398.2z M190.2,397c0.7-2.2-0.3-3.9-2.1-4.5c-1.8-0.6-3.6,0.3-4.3,2.5    c-0.7,2.2,0.3,3.9,2.1,4.5S189.5,399.2,190.2,397z"></path>
		<path class="st4" d="M202.5,407.1c-0.9,0.3-2.1,0.2-3.2-0.1c-2.9-0.9-4.2-3-3.2-5.9l1.6-5.1l-1.9-0.6l0.9-2.8l1.9,0.6l1-3l3.6,1.1    l-1,3l3.1,1l-0.9,2.8l-3.1-1l-1.6,5.1c-0.3,1.1,0.1,1.8,1,2.1c0.5,0.2,1.1,0.2,1.6,0L202.5,407.1z"></path>
	</g>
</g>
<title>rrgraph market</title>
<path d="M528.3,297.3c0.8-0.2,0.8-1.6-0.2-1.4l-3,0.4c-8,1.3-15.8,3.6-23.1,7c-1.8,0.9-3.6,1.8-5.4,2.8c-0.7,0.4-1.6,1-2.5,0.9  c-0.7-0.2-1.3-0.7-1.7-1.3c-0.9-1.4-1.7-2.9-2.3-4.5c-0.7-1.7-1.3-3.5-1.8-5.3c-0.8-3.4-1-6.9,1.1-10s5.9-4.7,9-6.3  c3.6-2,7.4-3.7,11.2-5.2c1.9-0.7,3.9-1.3,5.9-1.8c1.5-0.3,3.3-0.7,4.8,0c1.6,0.7,2,2.7,2.4,4.3l1.7,6.5l3.5,13l0.7-0.9l-3.4,0.2  c-0.9,0-0.9,1.4,0,1.4l3.4-0.2h0.1c0.4-0.1,0.6-0.5,0.5-0.9l-0.9-3.4l-3.7-13.8l-0.9-3.3c-0.2-0.9-0.5-1.8-1-2.6  c-1-1.4-2.7-2.2-4.4-2.2c-1.9,0.1-3.8,0.5-5.6,1.1c-2.1,0.6-4.1,1.3-6.1,2.2c-3.9,1.7-7.8,3.7-11.6,5.7c-3.3,1.8-6.5,3.9-7.9,7.6  c-1.3,3.5-0.6,7.4,0.5,10.9c0.6,1.8,1.4,3.6,2.2,5.4c0.6,1.7,1.6,3.1,2.9,4.2c1.8,1.1,3.5,0.1,5.1-0.8c1.8-1,3.8-1.9,5.7-2.8  C511.4,300.7,519.7,298.4,528.3,297.3L528.3,297.3z"></path>
<path d="M489,304.4c0.8-0.5,0.1-1.8-0.7-1.2c-1.1,0.8-2.1,1.5-3.1,2.3c-8.3,6.6-13.8,15.8-17.7,25.5c-4,10.1-6.3,20.8-8.3,31.5  c-2.6,14.1-5.2,28.3-7.7,42.5c-2.7,14.4-5.3,28.9-7.9,43.3c-2.6,14.4-5.2,28.9-7.8,43.4c-0.1,0.9,1.3,1.3,1.4,0.4l1-5.4  c2.6-14.3,5.2-28.6,7.8-42.9l7.7-42.9c2.5-13.7,4.9-27.4,7.5-41.1c2-10.6,4.5-21.2,8.8-31.1C474.2,319.1,480.3,310.3,489,304.4  L489,304.4z"></path>
<path d="M485.6,295.4c0.8-0.4,0.1-1.6-0.7-1.3c-1.4,0.6-2.6,1.2-3.9,1.9c-10.3,5.7-18.1,15.1-23.4,25.4  c-6.3,12.2-9.3,25.8-11.8,39.2c-2.8,14.8-5.5,29.6-8.2,44.4l-8.3,45c-2.8,14.9-5.5,29.9-8.3,44.8c-0.1,0.9,1.3,1.3,1.4,0.4l1-5.5  c2.8-14.8,5.4-29.6,8.2-44.4s5.5-29.6,8.2-44.4c2.7-14.6,5.2-29.2,8.1-43.7c2.6-13.2,6-26.5,12.7-38.2  C466.4,309,474.8,300.1,485.6,295.4L485.6,295.4z"></path>
<line class="st2" x1="109.2" y1="389" x2="448.5" y2="357.3"></line>
<line class="st2" x1="135.2" y1="491.6" x2="109.2" y2="389"></line>
<line class="st2" x1="381.6" y1="491.6" x2="397" y2="363.5"></line>
<line class="st2" x1="339.7" y1="490.1" x2="348.9" y2="366.9"></line>
<line class="st2" x1="293.5" y1="487.7" x2="295.9" y2="371.7"></line>
<line class="st2" x1="253.6" y1="486.8" x2="249.2" y2="376.1"></line>
<line class="st2" x1="206.9" y1="484.4" x2="197.3" y2="380.9"></line>
<line class="st2" x1="170.3" y1="489.2" x2="153.9" y2="384.7"></line>
<line class="st2" x1="123.1" y1="441" x2="434.6" y2="428"></line>
<path class="st10" d="M563.9,285.1c6.4-0.8,12.3-4.2,18.8-4c10.4,0.3,18.9,12.2,15.7,22.2c-0.3,1-0.8,1.9-1.5,2.6  c-1,1-2.5,1.2-4,1.4l-40.4,5.1c-12.6,1.6-27,2.6-36.2-6.1c-3.7-3.5-6-8.1-8.7-12.4s-6-8.5-10.7-10.4s-11-0.4-13,4.2  c-1.1,2.6-0.7,5.8-1.8,8.4s-5.2,4.3-6.7,1.8c-0.8-1.2-0.3-2.7,0.1-4.1l3.3-10.4c0.7-2.3,1.5-4.8,3.2-6.6c1.7-1.6,3.7-2.9,5.9-3.7  l19.3-8.8c4.1-1.9,9.1-3.7,12.9-1.2c2.7,1.7,3.7,5.1,4.6,8.2c1.1,4,2.2,8,3.4,12c0.6,1.9,1.3,4,2.8,5.1s3.6,1.1,5.5,1.1  c12-0.5,23.9-2.1,35.6-4.7"></path>
<path class="st11" d="M572.2,285.5c0.9-0.2,0.5-1.6-0.7-1.6c-3.1,0.7-6.3,1.4-9.4,1.9c-6.4,1.1-12.8,1.9-19.3,2.4l-5,0.3  c-1.4,0.1-2.8,0.1-4.2,0c-1.3-0.1-2.6-0.7-3.4-1.7c-0.7-1.1-1.2-2.3-1.5-3.5c-0.9-3.1-1.8-6.3-2.7-9.5c-0.6-2.7-1.5-5.3-2.6-7.8  c-1-2.3-3-4-5.4-4.7c-2.7-0.5-5.4-0.2-7.9,0.8c-2.9,1.1-5.6,2.4-8.4,3.7l-9.1,4.1c-2.9,1.2-5.7,2.5-8.4,3.9  c-1.2,0.7-2.3,1.6-3.2,2.6c-0.8,1-1.5,2.2-2,3.4c-1.2,2.8-2,5.9-2.9,8.8c-0.5,1.5-1,3.1-1.5,4.7c-0.5,1.3-0.7,2.7-0.4,4.1  c0,0.1,0,0.2,0.1,0.3c0.9,1.8,2.9,2.5,4.7,1.7c2.1-0.8,3.6-2.6,4-4.8c0.6-2.6,0.4-5.5,1.9-7.8c1.2-1.7,3-2.9,5.1-3.3  c4.9-1.2,9.4,1.4,12.7,5c3.8,4.1,6,9.3,9.2,13.8c1.6,2.2,3.5,4.2,5.6,5.9c1.9,1.5,4.1,2.7,6.4,3.5c4.7,1.7,9.7,2.4,14.7,2.3  c5.3-0.2,10.6-0.6,15.8-1.4l20-2.5l9.9-1.3c3.1-0.4,6.3-0.7,9.5-1.2c1.4-0.2,2.6-0.7,3.6-1.6c0.8-1,1.4-2.2,1.7-3.4  c0.5-2.1,0.6-4.3,0.3-6.5c-0.8-4.4-2.9-8.4-6.2-11.4c-3.3-3.1-7.7-4.8-12.3-4.6c-6,0.3-11.4,3.2-17.3,4c-0.9,0.1-0.9,1.5,0,1.4  c2.7-0.4,5.4-1,8.1-1.9c4.9-1.5,10.1-3.1,15.2-1.2c3.9,1.6,7.1,4.5,9.1,8.3c2.1,3.8,2.6,8.2,1.3,12.3c-0.3,1.3-1.2,2.3-2.4,2.8  c-1.3,0.4-2.6,0.6-4,0.7l-9.7,1.3l-19.1,2.5c-5.7,0.7-11.4,1.6-17.2,2c-9.4,0.7-20.1,0.4-27.6-6.2c-4.1-3.7-6.5-8.9-9.5-13.5  c-2.7-4.2-6.1-8.4-11-10.1c-3.9-1.4-8.8-0.8-11.8,2.2c-1.8,1.8-2.4,4.1-2.7,6.5s-0.4,5-2.6,6.4c-0.8,0.5-1.6,0.7-2.5,0.7  c-0.9-0.1-1.6-1-1.5-1.9c0.1-1.4,0.4-2.8,1-4.1l1.5-4.6c0.5-1.5,1-3,1.5-4.5c0.3-1.3,0.8-2.6,1.4-3.8s1.5-2.2,2.5-3.1  c1.1-0.8,2.3-1.5,3.5-2c5.8-2.7,11.6-5.3,17.4-7.9c2.6-1.3,5.2-2.4,8-3.3c2.4-0.7,5.1-0.7,7.2,0.6s3.1,3.7,3.8,6  c0.9,2.9,1.7,5.9,2.5,8.8l1.3,4.6c0.3,1.2,0.8,2.4,1.3,3.5c0.6,1.1,1.4,2.1,2.5,2.7c1.2,0.6,2.5,0.9,3.8,0.9c3,0.1,6.1-0.1,9.2-0.4  c3.1-0.3,6.2-0.6,9.3-1C559.7,288,566,286.9,572.2,285.5L572.2,285.5z"></path>
<path class="st12" d="M727.8,321c5-2.1,9.4,3.9,11.4,8.9c9.7,24.2,17.6,49.1,23.6,74.5c1.6,6.8,3.1,13.9,1.1,20.6  c-1.3,4.3-3.9,8.1-4.8,12.5c-0.9,4.6,0.1,9.3,1.2,13.9c3.5,14.3,8,28.3,13.4,42c-21.7,6-44.3,7.2-66.7,8c-8.6,0.4-17.5,0.5-25.2-3.2  s-13.6-12.7-10.9-20.8c-1.7,14.3-20.3,18.7-34.7,18.6c-11.2-0.1-22.4-0.8-33.5-2.1c-5.6-0.6-12.5-2.7-13.1-8.3  c-0.3-2.2,0.5-4.3,1.4-6.3l34.5-82c8.1-19.2,16.4-39.7,14-60.5c-0.7-6-1.7-13.5,3.4-16.9c2.5-1.6,5.8-1.6,8.8-1.5l84.9,2.9"></path>
<path class="st10" d="M715.5,118.4l-0.5-6.6l-32.8,14c-0.6,0.2-1.1,0.6-1.4,1.1c-0.2,0.8,0,1.6,0.5,2.2c4.6,7.8,8,16.2,9.9,25.1  c0.6,2.4,0.9,5.1-0.5,7.1c-5,6.8-9.4,14.1-13,21.8c-1.7,3.7-3.4,7.7-2.4,11.6c2.4,9.1,46.5-5.1,55.7-5.9c2.7-0.2,5.8-0.6,7.8-2.5  c2.3-2.3,2.4-5.9,2.4-9.1c-0.1-5.4-0.4-11.5-4.3-15.3c-1.8-1.6-4-2.7-5.9-4.2c-3.4-2.8-5.2-7.1-6.8-11.3c-3.8-10.1-6.9-20.5-9.3-31"></path>
<path d="M715.6,115.2c-0.2-1-1.6-0.6-1.7,0c0.6,2.7,1.3,5.4,2,8.1c1.5,5.5,3.2,11,5,16.3c0.9,2.7,1.8,5.2,2.8,7.8  c0.8,2.3,1.9,4.4,3.1,6.5c1.2,2,2.9,3.8,4.9,5.1c2,1.4,4.2,2.5,5.6,4.5c2.6,3.7,2.9,8.4,2.9,12.7c0.2,2.2,0,4.4-0.5,6.5  c-0.6,2.2-2.3,3.8-4.5,4.4c-1.7,0.4-3.4,0.7-5.1,0.8c-0.9,0.1-1.7,0.3-2.6,0.4c-5.2,0.9-10.3,2.3-15.4,3.5  c-6.2,1.4-12.4,2.9-18.8,3.9c-2.7,0.5-5.5,0.8-8.3,1c-2.1,0.2-4.2,0.1-6.2-0.3c-0.7-0.2-1.4-0.4-2-0.8l-0.2-0.1  c-0.2-0.1,0,0.1-0.1,0c-0.1-0.1-0.3-0.2-0.3-0.3s-0.2-0.2-0.1-0.1c0-0.1,0-0.1-0.1-0.2c-0.1-0.1-0.1-0.2-0.2-0.3c0.1,0.2,0,0,0-0.1  s0-0.3-0.1-0.5c-0.1-0.6-0.2-1.3-0.2-1.9c0.1-1.4,0.3-2.7,0.7-3.9c0.9-2.6,2-5.2,3.3-7.6c2.2-4.5,4.7-8.9,7.5-13.1  c0.7-1,1.4-2.1,2.1-3.1s1.5-2,2.1-3.1c1.2-2,0.9-4.5,0.5-6.8c-1-5.2-2.6-10.3-4.7-15.2c-1-2.4-2.1-4.8-3.4-7.2  c-0.6-1.1-1.2-2.3-1.9-3.4c-0.2-0.5-0.7-1.3-0.3-1.8c0.4-0.3,0.9-0.6,1.4-0.7l32.5-13.8l-1.1-0.6l0.5,6.6c0,0.9,1.5,0.9,1.4,0  l-0.5-6.6c0-0.1,0-0.2-0.1-0.3c-0.2-0.3-0.6-0.5-1-0.3l-8.3,3.4l-16.5,7c-2.7,1.2-5.4,2.3-8.2,3.5c-1.1,0.4-1.9,1.4-1.8,2.6  c0.3,1.2,0.9,2.4,1.7,3.4c2.7,4.8,4.9,9.8,6.6,15c0.9,2.5,1.6,5.1,2.2,7.8c0.5,2.3,1,4.9-0.4,7c-2.9,4.3-5.7,8.5-8.3,12.9  c-1.4,2.3-2.6,4.6-3.8,7.1c-1.3,2.5-2.4,5-3.2,7.7c-0.5,2.1-0.8,4.6,0,6.6c0.3,0.7,0.8,1.3,1.4,1.7c1.6,0.9,3.3,1.4,5.1,1.4  c2.5,0.2,5,0.1,7.5-0.2c3.1-0.3,6.2-0.8,9.2-1.4c6.4-1.2,12.7-2.7,19.1-4.2c2.6-0.6,5.3-1.3,8-1.9c1.1-0.3,2.1-0.5,3.2-0.7  c0.5-0.1,1-0.1,1.4-0.2l0.6-0.1h0.2l0.2-0.1c1.9-0.1,3.8-0.4,5.6-0.9c2.2-0.7,4-2.2,4.9-4.3c0.8-2.1,1.1-4.4,1-6.7  c0-2.3-0.1-4.5-0.4-6.8c-0.2-2.2-0.9-4.4-1.9-6.4c-1.2-2-2.9-3.8-4.9-5c-1.1-0.7-2.2-1.4-3.2-2.2s-1.8-1.6-2.5-2.6  c-1.4-2-2.5-4.1-3.4-6.4c-2-5.2-3.8-10.5-5.5-16.1C718.4,126.5,716.9,120.9,715.6,115.2L715.6,115.2z"></path>
<path class="st10" d="M727.9,20.8c5.6,3.2,8.8,9.5,10.9,15.7c5.3,15.6,5.5,32.5,0.5,48.2c-5.1,15.5-15.3,28.9-29,37.9  c-6.4,4-13.2,7.1-20.4,9.2c-5.7,1.7-12.1,2.8-17.4,0.2c-5.9-2.9-9-9.4-11.6-15.4c-4.6-10.3-9.2-21-9-32.3c0-3.8,0.6-7.5,0.5-11.2  c-0.1-4.4-1.2-8.6-1.5-12.9c-0.3-5.2,0.2-10.4,1.4-15.5c1.9-8.6,5.2-17.1,11.3-23.3c7.9-7.9,19.2-10.9,30.2-11.8  c7.7-0.6,15.6-0.3,22.7,2.6c5.3,2.2,9.9,5.7,13.4,10.3"></path>
<path d="M729.3,22.8c0.2,0.4,0.7,0.6,1.2,0.3c0.3-0.2,0.4-0.7,0.2-1c-1.7-2.1-3.6-4.1-5.7-5.8c-4.5-3.6-9.9-6.1-15.6-7  c-6-0.9-12-1-18-0.2c-10.6,1.2-21.6,4.5-29,12.6c-3.6,4.2-6.4,9-8.2,14.3c-2,5.7-3.3,11.7-3.7,17.7c-0.2,3.3-0.1,6.6,0.4,9.9  c0.6,3.3,0.9,6.6,1.1,9.9c0.1,3.2-0.4,6.5-0.5,9.7c-0.1,3.2,0.2,6.3,0.7,9.4c1.2,6.1,3.1,12.1,5.6,17.8c1.1,2.7,2.3,5.5,3.6,8.2  c1,2.4,2.2,4.6,3.6,6.8c1.3,2.1,3,4,5,5.5c2.2,1.6,4.8,2.7,7.5,3c5.8,0.8,11.8-1.2,17.2-3.1c21.4-7.3,38.1-24.1,45.2-45.5  c3.8-11.7,4.9-24.1,3-36.2c-0.9-5.8-2.4-11.5-4.7-17c-2.1-4.8-5.1-9.4-9.7-12.2c-0.1,0-0.1,0-0.1,0c-0.3-0.2-0.7,0-0.9,0.3  c-0.2,0.3-0.1,0.8,0.2,1c2.1,1.3,4,2.9,5.4,4.9c3.2,4.2,5.1,9.4,6.5,14.6c1.6,5.8,2.5,11.7,2.7,17.7c0.4,11.6-1.8,23-6.6,33.5  c-4.3,9.5-10.7,17.9-18.6,24.7c-4.2,3.6-8.8,6.6-13.8,9.1c-5.3,2.6-10.9,4.7-16.6,6.1c-5.4,1.2-11.2,1.5-15.8-1.9  c-4.1-2.9-6.4-7.6-8.4-12c-2.5-5.4-4.8-10.9-6.7-16.6c-2-5.7-3.1-11.7-3-17.8c0.1-3.2,0.5-6.4,0.5-9.6c-0.1-3.1-0.5-6.2-1-9.3  c-0.5-3.2-0.7-6.5-0.6-9.7c0.2-3.2,0.6-6.4,1.3-9.5c2.2-10.6,6.6-21.1,15.8-27.4c8.8-6,20-7.9,30.4-8c5.9-0.1,12,0.6,17.5,3  C721.6,15.1,726,18.5,729.3,22.8L729.3,22.8z"></path>
<path d="M723.4,84.2c-0.2,0.9,1.2,1.3,1.4,0.2c0.5-2.7,3.1-4.2,5.8-4c2.7,0.2,4.6,2.6,5.3,5c0.8,2.9,0.3,6-1.2,8.5  c-1.7,2.9-4,5.4-6.6,7.4c-2.6,2.2-5.6,3.7-8.9,4.3c-0.9,0.1-0.5,1.5,0.4,1.4c4.1-0.8,7.9-2.9,10.9-5.8c2.9-2.3,5.1-5.4,6.5-8.8  c1.2-3.1,1-6.5-0.6-9.4c-1.4-2.7-4.3-4.2-7.3-3.8C726.4,79.6,723.8,81.4,723.4,84.2L723.4,84.2z"></path>
<path d="M709.1,69.4c-4.9-4.6-12.3-5-17.6-0.9c-0.7,0.6,0.3,1.6,1,1c4.7-3.5,11.3-3.2,15.5,0.9C708.7,71.1,709.7,70,709.1,69.4z"></path>
<path d="M670.6,67.3c0,0.5,0.3,0.8,0.7,0.6c0.4,0,0.7-0.3,0.7-0.7c0-1.1-0.4-2.2-1.1-3.2l0,0c-2.2-3.2-6.5-4-9.6-1.8  c-0.8,0.6-0.1,1.8,0.7,1.3c0.7-0.6,1.6-0.9,2.5-1C667.5,62.2,670.2,64.3,670.6,67.3C670.6,67.4,670.6,67.4,670.6,67.3z"></path>
<circle cx="698.5" cy="79.5" r="2.8"></circle>
<circle cx="668.1" cy="76.7" r="2.8"></circle>
<path d="M670.3,106.4c-0.1,0.4,0.1,0.8,0.5,0.9c4.2,1,8.4,1.8,12.6,2.1c3.8,0.3,7.5,0.3,11.2,0c0.3,0,1.1-0.1,1.2,0  c0.1,0.1,0.1-0.1,0,0.2c-0.1,0.1-0.2,0.3-0.4,0.4c-0.5,0.5-1,1-1.6,1.5c-1.3,1.1-2.6,2.1-4.1,3c-2.5,1.6-5.5,2.2-8.4,1.8  c-2.6-0.4-5-2-6.2-4.4c-0.4-0.9-1.7-0.1-1.3,0.7c1.5,3.2,4.8,4.8,8.2,5.2c3.4,0.2,6.8-0.8,9.6-2.8c1.5-1.1,3-2.2,4.3-3.5  c0.6-0.6,1.5-1.3,1.5-2.2c0-0.7-0.6-1.3-1.4-1.4c-0.9-0.1-1.9,0-2.8,0.1c-1,0.2-2.1,0.2-3.1,0.2c-2.2,0-4.3-0.1-6.4-0.2  c-4.2-0.4-8.3-1.1-12.4-2.2C670.9,105.8,670.6,106,670.3,106.4z"></path>
<path class="st13" d="M678.6,82.4c0-0.1,0-0.2,0-0.2c0-0.1,0-0.1,0-0.1c0.3-1.1,1.5-1.7,2.6-1.4l-1.4,10.9c0,0.7-0.2,1.4-0.7,2  c-0.9,0.8-2.2,0.6-3.3,0.3c-1.8-0.4-4-1.5-3.6-3.3c0.2-0.6,0.5-1.1,0.9-1.5l6.4-7.5"></path>
<path class="st14" d="M808.3,166.7c5.3-2.1,5.9-9.6,3.7-14.8s-6.3-9.7-7.5-15.2c-1.7-7.6,2.3-15.4,1.8-23.2  c-0.6-8.9-7-16.2-13.3-22.5s-13.2-12.6-15.6-21.1c-2.2-7.6-0.5-15.8-2-23.6c-2.4-12.5-12.8-22.1-24.1-28c-1.6-0.9-3.4-1.6-5.3-2  c-3.6-0.5-7.3,0.9-11.1,0.9c-5.4,0-10.2-3.2-15.2-5.5c-24.1-11.3-52.9-1.3-64.8,22.6c-2.1,4.2-3.6,9.1-1.9,13.4  c5.4-11.2,17.5-18.3,29.9-18.9c3.1-0.2,6.2,0.3,9,1.5c6.4,3.1,8.7,10.8,11.6,17.2c3.3,7.2,8.2,13.6,14.2,18.7c2.8,2.3,6,4.7,6.4,8.3  c0.2,1,0,2.1,0.6,3c1.1,1.7,3.7,1.2,5.8,1.3c4.6,0.2,8.3,4.7,8.6,9.2s-2.1,9-5.6,12s-7.8,4.9-12,6.6l-1.5,9.2l15.2-8.7  c1,6.1,0.5,12.3-1.3,18.2c-2,6.3-5.6,12.5-4.5,18.9c0.6,3.6,2.5,6.7,3.3,10.2s0,7.9-3.3,9.3c4.2,1.8,9,0.3,13.4-0.7  c4.4-1,9.8-1.3,12.9,2c1.2,1.3,2.1,3.1,3.8,3.6c1.2,0.2,2.4,0.1,3.6-0.2c5.3-0.5,9.5,4.5,14.8,5.1c6,0.7,10.9-4.4,16.5-6.9  c5-2.2,10.7-2.1,15.7,0.1"></path>
<path d="M686.4,30.7c0.9,0.1,1.3-1.3,0.4-1.4c-3.7-0.5-7.3,1.8-8.4,5.4c-0.2,1.2-0.3,2.4-0.1,3.6c0.1,1.2,0.3,2.6-0.6,3.6  c-0.8,0.7-1.8,1.2-2.8,1.6c-0.4,0.2-0.8,0.4-1.1,0.6l0,0c-3.3,2.2-4.1,6.7-1.9,10c0.6,0.8,1.8,0.1,1.3-0.7c-1.2-1.8-1.4-4-0.5-5.9  c0.3-0.8,0.9-1.6,1.7-2.1c0.9-0.4,1.8-0.9,2.7-1.3c1-0.4,1.8-1.1,2.3-2c0.5-1.1,0.6-2.2,0.4-3.4c-0.3-1.1-0.3-2.2-0.1-3.3  c0.2-1,0.7-1.9,1.4-2.6C682.4,31.3,684.4,30.5,686.4,30.7L686.4,30.7z"></path>
<path d="M695.5,31c0.9-0.1,0.9-1.5,0.2-1.4c-3.3,0.3-6,2.7-6.6,6c-0.3,1.4-0.1,2.9,0.4,4.2c0.6,1.4,1.6,2.6,2.8,3.5s2.6,1.7,3.7,2.7  c1.2,0.9,2,2.3,2.1,3.8c-0.1,1.5-1.2,2.6-1.6,4c-0.4,1.4-0.2,2.9,0.6,4.2c1.6,2.9,4.8,3.9,7.8,4.8l0,0c0.3,0.1,0.7-0.1,0.8-0.5  c0.1-0.4-0.1-0.8-0.5-0.9c-3-0.8-6.6-2-7.5-5.3c-0.4-1.5,0.2-2.5,0.9-3.8c0.7-1.2,1-2.6,0.7-3.9c-0.7-2.8-3.3-4.4-5.5-5.9  c-1.2-0.7-2.2-1.7-2.9-2.9c-0.6-1.2-0.8-2.5-0.6-3.8C690.8,33.2,692.9,31.3,695.5,31L695.5,31z"></path>
<path d="M726,80.1c0.8,0.5,1.5-0.7,0.6-1.3c-2.6-2-5.8,0.7-6.8,3.2c-1.2,3.2,0.3,6.8-1.2,9.9c-0.6,1.3-1.6,2.4-2.8,3.1  c-1.2,0.6-2.4,1.1-3.7,1.4c-2.2,0.6-4.9,1.6-5.4,4.3c-0.6,3.1,2.1,5.8,4.3,7.5c0.7,0.6,1.7-0.4,1-1c-2-1.5-5.4-4.6-3.4-7.3  c1.3-1.8,4-2.1,5.9-2.7c2.5-0.7,4.5-2.5,5.6-4.9c0.6-1.4,0.8-2.9,0.8-4.4c-0.2-1.7-0.1-3.4,0.2-5C721.6,81.1,724,78.6,726,80.1  L726,80.1z"></path>
<path d="M652.3,79.1c-0.5-0.8-1.8-0.1-1,0.6l0,0c0.7,1.2,0.3,2.6-0.8,3.3c-1.3,1-3.2,1-4.7,1.2c-2.7,0.3-5.5,1.4-6,4.3  c-0.4,2.6,1,5.6-0.1,8s-3.9,3.6-5.9,5c-2.2,1.6-4.4,4.1-3.6,7l0,0c0.1,0.4,0.4,0.6,0.8,0.5c0.4-0.1,0.6-0.5,0.5-0.9  c-1-3.3,3.1-5.5,5.3-6.9c2.2-1.4,4.2-3.2,4.5-6c0-1.4-0.1-2.8-0.3-4.2c-0.3-1.3,0-2.6,0.7-3.7c0.9-0.9,2.2-1.5,3.5-1.6  c1.5,0,3-0.3,4.4-0.7c1.3-0.4,2.3-1.3,2.9-2.5C653.1,81.4,653,80.1,652.3,79.1L652.3,79.1z"></path>
<path d="M676.9,28.6c-2.7,1.6-5.7,3.3-7.3,6.1c-1.2,2.2-1.6,4.8-2.1,7s-1.3,4.4-3.5,5.4c-1.3,0.4-2.6,1.1-3.8,1.9  c-0.8,0.8-1.5,1.7-1.9,2.8c-0.9,2.2-0.8,4.7,0.5,6.8c0.6,0.8,1.8,0.1,1.3-0.7c-1.3-2.2-1.2-4.9,0.3-6.9c0.6-0.9,1.5-1.6,2.6-2  c1.3-0.4,2.5-1,3.5-1.9c1.5-1.5,2-3.5,2.6-5.8c0.6-2.3,0.9-4.6,2.2-6.5c1.5-2.3,4-3.6,6.4-4.9C678.5,29.5,677.8,28.3,676.9,28.6z"></path>
<path d="M702.6,38.9c-0.8-0.3-1.2,1.1-0.3,1.4c2.9,1,5.9,1.7,8.9,1.9c4.9,0.5,9.8-0.6,14-3c3.8-2.2,6.6-5.7,8-9.9  c0.3-0.9-1.1-1.3-1.4-0.4c-0.7,2.1-1.9,4.1-3.4,5.8c-2.9,3.1-6.8,5.1-11,5.8C712.4,41.3,707.3,40.7,702.6,38.9L702.6,38.9z"></path>
<path d="M713.4,56.2c-0.4,0-0.6,0.4-0.6,0.8c0,0.4,0.4,0.6,0.8,0.6c1.1,0.1,2.1,0.1,3.2,0c14.2-1,24.9-13.2,24-27.4  c0-0.9-1.5-0.9-1.4,0c0.2,3-0.2,6.1-1.1,9c-1.6,5.2-4.9,9.6-9.3,12.7c-4.5,3.1-9.9,4.6-15.3,4.3C713.6,56.2,713.6,56.2,713.4,56.2z"></path>
<path d="M726.9,72.9C726.9,72.9,726.9,73,726.9,72.9c-0.5,0.1-0.7,0.5-0.5,0.9c0.1,0.4,0.5,0.6,0.9,0.4c2-0.6,3.9-1.5,5.6-2.7  c6.1-4.1,9.8-11,9.9-18.4l0,0c0-0.4-0.3-0.7-0.7-0.7c-0.4,0-0.7,0.3-0.7,0.7c0,1.9-0.3,3.9-0.8,5.7  C738.6,65.5,733.5,70.7,726.9,72.9L726.9,72.9z"></path>
<path d="M741.1,77.2C741,77.2,741,77.2,741.1,77.2c-0.4,0.2-0.7,0.6-0.6,0.8l0,0c0.1,0.4,0.5,0.6,0.9,0.5c1.5-0.2,2.8-1,3.7-2.2  c1.9-2.3,2.6-5.5,3.1-8.4c0.7-3.9,0.9-7.8,0.7-11.8c0-0.9-1.4-0.9-1.4,0c0.3,4.7-0.1,9.4-1.1,14C745.8,73,744.4,76.7,741.1,77.2  L741.1,77.2z"></path>
<path d="M664.2,37.1c-0.7-4.4,0.7-8.8,3.8-12c0.7-0.7-0.4-1.7-1-1c-3.4,3.6-5,8.5-4.2,13.4C662.9,38.5,664.3,38.1,664.2,37.1z"></path>
<path d="M654.4,44.6c0.1,0.4,0.5,0.6,0.8,0.5c0.4-0.1,0.6-0.5,0.5-0.9c-1-5,0.5-10.1,3.9-13.8c0.7-0.7-0.4-1.7-1-1  C654.8,33.5,653.2,39.2,654.4,44.6L654.4,44.6z"></path>
<path d="M706.3,10.6c0.3,0.2,0.7,0.1,0.9-0.3c0.2-0.3,0.1-0.8-0.2-1c-1.7-0.9-3.6-1.1-5.5-0.7c-3.5,0.6-6.9,1.6-10.1,3.1  c-3.2,1.4-6.3,3.3-9.1,5.4c-0.7,0.6,0,1.9,0.7,1.3c3.4-2.7,7.2-4.8,11.2-6.3c2-0.7,4-1.3,6.1-1.8C702.3,9.9,704.5,9.5,706.3,10.6  L706.3,10.6z"></path>
<path d="M704.8,7.1c-0.9,0.1-0.9,1.5,0,1.5c5.6-0.2,11.1,1.3,15.9,4.3c0.8,0.4,1.5-0.8,0.7-1.3C716.5,8.5,710.7,6.9,704.8,7.1  L704.8,7.1z"></path>
<path d="M749.6,57.8c0.8-8.5-3.1-16.5-6.9-23.8c-0.5-0.8-1.7-0.1-1.3,0.7c3.7,7.1,7.4,14.9,6.6,23.1  C747.9,58.7,749.4,58.7,749.6,57.8z"></path>
<path d="M720.2,115.4c-0.9,0.6-0.1,1.8,0.8,1.2c1.9-1.5,4.2-2,6.4-2.9c2-0.8,3.8-1.8,5.6-3c6.3-4.3,10.7-11,13.3-18.1  c3.1-8.7,3.6-18.2,3.8-27.5c0-0.3-0.3-0.6-0.6-0.6c-0.4-0.1-0.8,0.2-0.8,0.6c0,5.1-0.3,10.3-1,15.4c-1.1,8.1-3.7,16.1-8.8,22.6  c-2.2,2.9-5,5.4-8.1,7.3c-1.6,1-3.3,1.8-5,2.4C723.8,113.4,721.9,114.3,720.2,115.4L720.2,115.4z"></path>
<path d="M743.4,32.7c-0.9-0.3-1.2,1.1-0.5,1.5c1,0.4,1.8-0.5,2.1-1.4c0.2-1,0.1-2.1-0.2-3.1c-0.9-4-3.2-7.5-6.5-10  c-1.6-1.3-3.4-2.2-5.3-2.7c-1.7-0.4-3.8-0.2-4.8,1.5c-0.4,0.8,0.9,1.5,1.3,0.7c0.7-1.5,2.9-1,4.2-0.5c3.1,1.2,5.7,3.3,7.5,6.1  c0.9,1.4,1.6,2.8,2.1,4.4c0.3,0.7,0.4,1.5,0.5,2.3c0,0.3,0,0.6-0.1,0.9c-0.1,0.1-0.1,0.3-0.2,0.3C743.4,32.7,743.5,32.7,743.4,32.7  L743.4,32.7z"></path>
<path d="M741.4,34.6c0.2,0.3,0.6,0.4,0.9,0.3c0.4-0.2,0.5-0.7,0.3-1c-3.7-6.6-8.7-12.4-14.8-16.8c-0.7-0.5-1.4,0.8-0.7,1.3  C733,22.7,737.9,28.2,741.4,34.6L741.4,34.6z"></path>
<path d="M734.1,16.3c-0.9,0.2-0.5,1.6,0.3,1.5c1.4-0.5,2.8-0.8,4.3-0.9c5.9-0.5,11.7,0.9,16.7,4c5.3,3.2,9.6,7.8,12.5,13.2  c3,5.6,5,11.7,5.9,18c1,6.5,1,13.2,2.4,19.6c0.7,3.1,1.9,6.1,3.5,8.8c1.6,2.5,3.5,4.8,5.6,6.9c4.4,4.4,9.6,7.8,13.8,12.3  s8,10.3,7.8,16.7c-0.1,3.4-1.6,6.3-2.9,9.3c-1.2,2.8-1.7,5.9-1.3,9c0.4,3,1.5,5.9,3,8.5c1.6,2.6,3.6,5,5.8,7.2c2.1,2.3,3.7,5,3,8.2  s-2.9,5.9-5.1,8.3c-0.7,0.7,0.4,1.7,1,1c1.1-1.2,2.1-2.4,3-3.7c1.8-2.6,3.1-5.9,2.5-9c-0.6-3.1-2.9-5.3-5-7.5  c-4.3-4.5-7.7-10.7-7-17.1c0.4-3.4,2.2-6.3,3.4-9.5c1-3,1.2-6.2,0.5-9.2c-1.3-6.3-5.6-11.6-10.3-15.8s-9.8-7.8-13.9-12.6  c-2.1-2.4-3.8-5.3-4.9-8.3c-1.1-3.2-1.8-6.5-2.1-9.9c-0.8-6.6-1-13.2-2.7-19.7c-1.5-6.2-4.3-12.1-8.1-17.3  C758.5,18.9,745.9,12.7,734.1,16.3L734.1,16.3z"></path>
<path d="M758.7,57.4c-0.8-0.5-1.5,0.7-0.8,1.3c0.8,0.6,1.6,1.2,2.2,2c2.6,3.3,3.4,7.7,3.7,11.7c0.3,4.8,0.1,9.8,1.6,14.4  c0.7,2.2,1.9,4.2,3.3,5.9c1.4,1.7,3,3.3,4.4,4.9c1.5,1.5,2.6,3.3,3.4,5.3c0.6,1.7,0.8,3.5,0.7,5.3c-0.3,3.9-1.9,7.5-3.4,11  c-1.7,3.6-3.1,7.3-4.1,11.1c-0.4,1.9-0.5,3.8-0.4,5.7c0.2,2,0.7,3.9,1.6,5.7c1.7,3.7,4.4,6.8,6.2,10.5c0.9,1.7,1.5,3.6,1.6,5.5  c0,2.2-0.4,4.3-1.3,6.2c-1.4,3.9-3.7,8-2.3,12.2c0.3,0.9,1.7,0.5,1.4-0.4c-0.4-1-0.5-2-0.4-3c0.3-2.1,0.9-4.2,1.8-6.1  c0.9-2,1.6-4.1,2.1-6.3c0.7-4.2-0.9-7.9-3-11.4c-2.1-3.5-4.7-6.8-5.8-10.8c-1-3.8-0.2-7.7,1.1-11.3c1.3-3.8,3.2-7.4,4.6-11.2  c1.3-3.5,2.2-7.2,1.6-11c-0.7-4.2-3.7-7.4-6.5-10.5c-1.5-1.6-2.9-3.3-4-5.2c-1.2-2.2-1.9-4.6-2.1-7  C764.8,73.7,766.5,62.9,758.7,57.4L758.7,57.4z"></path>
<path d="M751.8,82.8c-0.4-0.8-1.6-0.1-1.2,0.8c1.6,3.5,2.1,7.3,1.6,11.1c-0.6,3.2-1.6,6.4-3.1,9.4c-2.2,5.2-5.1,10.6-4.7,16.5  c0.4,5.9,4.2,10.4,6.5,15.6c1.2,2.6,1.6,5.6,1,8.4c-0.6,3.2-2.2,6.1-3.1,9.3c-1.2,4.2-0.4,10.5,4.5,12c0.9,0.3,1.3-1.1,0.4-1.4  c-2.4-0.8-3.6-3.3-3.8-5.7c-0.4-3.2,0.8-6,1.9-9s2.2-6.1,1.9-9.3c-0.5-2.7-1.4-5.3-2.7-7.6c-1.5-2.5-2.8-5-4-7.6  c-1.1-2.5-1.4-5.3-1.1-8c0.8-5.8,4-10.9,6-16.2c1.1-2.8,1.7-5.7,1.9-8.6C753.9,89.2,753.2,85.8,751.8,82.8L751.8,82.8z"></path>
<path d="M736.7,109.7c-0.1-0.9-1.6-0.9-1.6,0c0.6,4.9-0.1,9.8-1.8,14.4c-1.4,3.9-4,7.3-5.3,11.2c-0.6,1.9-0.8,3.9-0.5,5.8  c0.4,1.7,1.1,3.3,2,4.8c1.6,2.9,3.8,6,2.6,9.5c-1.1,3.1-4.1,5.7-3.7,9.3c0,0.9,1.5,0.9,1.4,0c-0.2-1.9,0.8-3.6,1.8-5.2  c1.1-1.6,1.9-3.4,2.3-5.3c0.4-3.5-1.8-6.6-3.4-9.6c-2-3.2-2.2-7.3-0.3-10.7c0.8-1.8,1.8-3.6,2.8-5.4c1-1.9,1.9-3.8,2.5-5.9  C736.8,118.4,737.2,114,736.7,109.7L736.7,109.7z"></path>
<path class="st15" d="M723.8,149.2c7.9-4.9,16.6,5.1,19.8,14.1c10.3,28.9,7.4,60.9,4.3,91.6l-6.3,62.5c-29.4,4-59,4.6-88.5,1.9  c-2.1,0-4.1-0.5-5.8-1.6c-4.7-3.3-2.8-10.8-0.7-16.2c2.1-5.4,3.2-13.2-1.9-15.7c-7.5,2.6-8.8,12.9-13.3,19.7  c-8.8,13.3-27.9,11.1-43,7.4c-2.9-0.7-6.1-1.6-8.2-4c-2.9-3.4-2.5-8.5-4.3-12.6c-2.4-5.6-8.9-10.3-7.1-16.2  c2.3-7.4,14.1-4.7,19.1-10.4c1.5-1.6,2.2-4,3.8-5.6c2-2.1,4.9-2.6,7.5-3.7c7.3-3.1,11.8-10.7,15.8-17.8c7.4-13,17.4-11.5,24.8-24.6  c6.3-11.2,19.8-31.2,29.8-39c9.3-7.3,11-16.9,22.2-20.2l41.3-12.1"></path>
<path class="st11" d="M508.9,270.2c0.9-0.3,0.5-1.7-0.3-1.4c-4.7,1.5-8.5,5.1-10.2,9.7c-0.3,0.9,1.1,1.3,1.4,0.4  C501.3,274.8,504.7,271.6,508.9,270.2L508.9,270.2z"></path>
<path class="st11" d="M497.1,276c0.9-0.2,0.5-1.6-0.4-1.4l-15.2,3.5c-0.4,0.1-0.6,0.5-0.5,0.8c0,0.4,0.4,0.7,0.8,0.6L497.1,276  L497.1,276z"></path>
<path class="st11" d="M559,283.1c0.8,0.1,1.2-1.3,0.4-1.4c-3.9-1-7.8-0.2-11.7,0.1c-3.3,0.3-6.7,0.3-9.7-1.4  c-2.3-1.4-4.3-3.5-5.6-5.9c-1.5-2.5-2.6-5.2-3.5-8c-1.3-3.6-2.4-7.3-3.6-11c-0.1-0.3-0.3-0.4-0.5-0.5c-7.2-1.5-14.6,1.3-18.9,7.2  c-0.5,0.7,0.8,1.5,1.3,0.7c4-5.4,10.8-7.9,17.3-6.6l-0.5-0.5c1.3,4.1,2.5,8.3,4,12.4c1.9,5.4,4.7,11.4,10.1,13.9  C544.8,285.2,552.1,281.4,559,283.1L559,283.1z"></path>
<path d="M732.2,331.8c-0.1-0.4-0.5-0.6-0.9-0.5c-5.4,1.6-11,2-16.5,1.3c-0.9-0.1-1.3,1.3-0.4,1.4c5.7,0.8,11.6,0.4,17.2-1.3  C732,332.6,732.2,332.2,732.2,331.8z"></path>
<path d="M708.5,329c0.1,0.3,0.3,0.6,0.6,0.8c0.4,0,0.8-0.3,0.8-0.7v-0.7c0-0.3-0.3-0.6-0.6-0.6c-0.4-0.1-0.8,0.2-0.8,0.6  c-0.1,2.1,0.2,4.1,0.9,6.1l0,0c0.1,0.4,0.5,0.6,0.9,0.5l0,0c0.4-0.2,0.6-0.5,0.5-0.9c-0.7-1.8-1-3.8-0.9-5.7h-1.4V329L708.5,329z"></path>
<path d="M703.7,328c-0.1-0.4-0.5-0.6-0.9-0.4c-0.4,0.1-0.6,0.5-0.5,0.9c0.4,2.8,0.3,5.7-0.5,8.5l0,0c-0.1,0.3,0.1,0.7,0.5,0.8  c0.4,0.1,0.8-0.1,0.9-0.5C704.1,334.3,704.2,331.1,703.7,328L703.7,328z"></path>
<path d="M696.1,339c0.9-0.1,0.9-1.5-0.1-1.4c-3.5,0.4-7,0.6-10.6,0.8c-12.6,0.7-25.3,0.1-37.8-1.5c-0.3,0-0.6,0.3-0.6,0.6  c-0.1,0.4,0.2,0.8,0.6,0.8c3.5,0.4,7.1,0.8,10.6,1.1C670.8,340.4,683.5,340.3,696.1,339L696.1,339z"></path>
<path d="M648.9,324.9c0.4-0.8-0.9-1.6-1.2-0.7c-2.6,5.7-3.4,12-2.4,18.2c0.1,0.9,1.5,0.5,1.4-0.4  C645.7,336.2,646.5,330.3,648.9,324.9L648.9,324.9z"></path>
<path d="M647.2,351.9c0-0.4-0.3-0.6-0.8-0.8c-0.4,0-0.8,0.3-0.8,0.7c0,4.6,0.2,9.1,0.5,13.6c0.5,8,1.4,15.9,2.6,23.8  c0.3,2,0.7,4,1,6c0.3,1.8,0.6,3.6,1.1,5.4c0.7,2.3,2.7,5.4,5.5,4.1c0.9-0.4,0.1-1.7-0.7-1.3c-1.3,0.6-2.3-0.8-2.8-1.7  c-0.7-1.5-1.1-3.2-1.3-4.9C648.9,382,647.4,367,647.2,351.9L647.2,351.9z"></path>
<path d="M652.5,357.9c-0.1-0.3-0.5-0.6-0.9-0.5l0,0c-0.4,0.1-0.6,0.5-0.5,0.9l3.8,26.4l6.6,46.6l6.7,46.9l0,0  c0.2,0.4,0.5,0.6,0.9,0.5c0.4-0.1,0.6-0.5,0.5-0.9l-3.8-26.4l-6.6-46.6L652.5,357.9L652.5,357.9z"></path>
<path d="M755.3,438.1c0.2-0.4,0-0.8-0.3-1l0,0c-0.4-0.2-0.8,0-1,0.3c-2,2.6-4.7,4.5-7.9,5.5c-0.9,0.3-0.5,1.7,0.4,1.4  C750,443.2,753.1,441,755.3,438.1C755.3,438.1,755.3,438,755.3,438.1z"></path>
<path d="M751.8,437C751.9,437,751.9,437,751.8,437c0.4-0.3,0.5-0.7,0.3-1l0,0c-0.2-0.3-0.7-0.4-1-0.2l-7.1,5.3  c-0.3,0.2-0.4,0.7-0.2,1c0.2,0.3,0.7,0.4,1,0.2L751.8,437L751.8,437z"></path>
<path d="M710.6,341.3c-0.4-0.9-1.8-0.6-1.4,0.4c1.1,3.3,1.9,6.8,2.1,10.3c0,0.9,1.4,0.9,1.4,0C712.5,348.3,711.8,344.7,710.6,341.3  L710.6,341.3z"></path>
<path d="M713,360.6c-0.2-0.9-1.6-0.5-1.3,0.3c1.6,10.3,3.1,20.6,4.6,30.9c2.7,18.5,5.2,36.9,7.6,55.4c2.4,18.5,4.6,36.9,6.7,55.4  c0,0.9,1.5,0.9,1.4,0c-1.2-10.4-2.4-20.8-3.7-31.3c-2.3-18.4-4.6-36.8-7.2-55.2C718.5,397.6,715.8,379.1,713,360.6L713,360.6z"></path>
<path d="M705.7,345.5c-0.1-0.9-1.5-0.5-1.3,0.5c1.8,11.1,3.6,22.3,5.3,33.5c3,19.9,5.9,39.9,8.5,60c2.7,20.1,5.1,40.2,7.3,60.4  c0,0.9,1.5,0.9,1.4,0c-1.2-11.3-2.5-22.7-3.9-34c-2.4-20-5.1-40.1-8-60.2S709,365.5,705.7,345.5L705.7,345.5z"></path>
<path d="M659.9,440.6c0.5-0.8-0.8-1.5-1.1-0.8c-2,3.1-4,6.3-6,9.5c-7,11.3-13.6,22.9-19.8,34.6c-0.2,0.3-0.1,0.7,0.1,0.9l0,0  c0.3,0.3,0.7,0.3,1,0l1-0.9c0.7-0.6-0.3-1.6-1-1l-1,0.9l1.1,0.9c1.7-3.3,3.5-6.6,5.3-9.9C645.9,463.1,652.7,451.8,659.9,440.6  L659.9,440.6z"></path>
<path d="M655.5,435.3c-2.4,3.5-4.6,7-6.9,10.6c-7.9,12.6-15,25.6-21.5,39c-0.3,0.8,0.9,1.5,1.3,0.7c1.8-3.9,3.7-7.6,5.7-11.4  c6.8-13.2,14.4-26,22.7-38.4C657.3,435.1,656.1,434.4,655.5,435.3z"></path>
<path d="M769.8,490.5c0.3,0.9,1.7,0.5,1.3-0.4c-0.5-1.5-1.1-2.9-1.6-4.4c-2-5.9-3.9-11.8-5.6-17.8c-1.9-5.9-3.4-12-4.4-18.1  c-0.5-3.1-0.5-6.2-0.2-9.3c0.5-3,1.3-6,2.3-8.8c1.9-5.7,2.9-11.6,3-17.5c0.1-12.1-3.2-23.9-6.8-35.4c-3.8-12.1-7.8-24.3-11.6-36.4  c-1-3-1.9-6-2.9-9c-0.7-2.5-1.7-4.8-3.1-7c-2.5-3.7-7.7-6.4-11.8-3.6c-0.8,0.6-0.1,1.8,0.7,1.3c0.9-0.6,2-0.9,3.1-0.9  c5.4,0.1,8,5.6,9.5,10c1.9,5.9,3.7,11.7,5.6,17.6c3.8,11.7,7.8,23.4,11.2,35.3c3.3,11.2,5.8,23.1,4.3,34.9c-0.4,2.9-1,5.8-1.9,8.6  c-0.9,2.8-1.9,5.6-2.5,8.4c-1.3,5.8-0.5,11.8,0.8,17.5C762,467.4,765.5,479.1,769.8,490.5L769.8,490.5z"></path>
<path d="M646.5,318.3c0.6-0.8-0.5-1.9-0.9-1c-0.9,1-1.7,2-2.3,3.2c-2.7,4.9-3.4,10.6-3.9,16c-0.4,6.3-1.2,12.5-2.3,18.7  c-2.7,13.1-7.4,25.7-12.3,38.2c-5.1,13.3-10.2,26.6-15.4,39.8l-15.5,39.7c-3.1,7.9-6.4,20.1,1.8,26.2c0.7,0.5,1.4-0.8,0.7-1.3  c-1-0.7-1.8-1.5-2.4-2.5c-2.5-3.9-2.3-9-1.4-13.3c1.1-5.6,3.4-10.8,5.5-16.1l15.1-38.8c4.9-12.8,10-25.6,14.9-38.5  c4.7-12.2,9.1-24.6,11.2-37.6c0.9-5.8,1.1-11.6,1.8-17.4C641.7,328.2,642.9,322.6,646.5,318.3L646.5,318.3z"></path>
<path d="M669.2,482.7c-0.2-0.3-0.6-0.4-0.9-0.3c-0.4,0.2-0.5,0.7-0.3,1c1.7,2.8,2.6,6,2.9,9.2c0,0.9,1.5,0.9,1.4,0  C672,489.1,670.9,485.7,669.2,482.7L669.2,482.7z"></path>
<path d="M744.1,345.8c-0.1-0.8-1.5-0.8-1.5,0.1c0.2,1.8-2,2.5-3.4,2.6c-1.8,0.2-3.6-0.2-5.4,0.6c-1.7,0.7-2.6,2.5-2.3,4.3  c0.3,2.3,0.7,4.5,1.3,6.8c0.9,4.8,1.9,9.5,3,14.2c2.1,9.4,4.5,18.7,7.1,28c0.1,0.3,0.4,0.5,0.8,0.5c0.4-0.1,0.7-0.5,0.6-0.9  c-1.5-5.1-2.8-10.3-4.1-15.6c-2.3-9.3-4.4-18.6-6.3-28c-0.2-1.2-0.5-2.4-0.7-3.6c-0.2-1-0.3-2.1-0.1-3.1c0.5-1.7,2.5-1.9,3.9-1.9  c1.6,0.1,3.3-0.2,4.8-0.7C743.2,348.7,744.1,347.3,744.1,345.8L744.1,345.8z"></path>
<path d="M757.9,412.2l-13.9-9.7c-0.7-0.5-1.5,0.8-0.7,1.3l13.9,9.7C757.9,414,758.7,412.8,757.9,412.2z"></path>
<path d="M693.7,235.1c0.2,0.4,0.6,0.5,0.9,0.3c0.3-0.1,0.5-0.5,0.3-0.9c-1.7-3.5-4.2-6.6-7.2-9c-0.1-0.1-0.1-0.1-0.2-0.2  c-0.3-0.2-0.8-0.1-1,0.2s-0.1,0.8,0.2,1C689.6,228.8,692,231.8,693.7,235.1L693.7,235.1z"></path>
<path d="M689.2,222l-13.1,19.5c-0.5,0.8,0.8,1.5,1.3,0.7l13.1-19.4C691,222,689.7,221.3,689.2,222z"></path>
<path d="M684.7,239.1c0,0.4,0.3,0.8,0.7,0.7c0.4,0,0.7-0.3,0.7-0.7v-7l0,0c0-0.4-0.3-0.7-0.7-0.7c-0.4,0-0.7,0.3-0.7,0.7V239.1  L684.7,239.1z"></path>
<path d="M673.6,246.3c-0.3-0.2-0.8,0-1,0.3c-1.3,2.1-2.7,4.2-4.1,6.3c-5,7.3-10.3,14.3-16.1,20.9c-0.6,0.7,0.4,1.7,1,1  c1.7-1.9,3.3-3.8,4.9-5.8c5.6-6.9,10.8-14.1,15.5-21.6C674,247.1,673.9,246.5,673.6,246.3z"></path>
<path d="M602.8,307.1c0.2,0.9,1.6,0.6,1.5-0.4c-1.7-8.1-4.8-15.9-9.3-22.9c-0.6-0.8-1.8-0.1-1.3,0.7  C598.1,291.4,601.2,299.1,602.8,307.1L602.8,307.1z"></path>
<path d="M611.2,271.4c-1.8-3.5-4.7-6.4-8.2-8.2c-0.8-0.4-1.5,0.9-0.7,1.3c3.2,1.7,5.9,4.3,7.6,7.6  C610.4,273,611.6,272.2,611.2,271.4z"></path>
<path d="M613.7,264.4L613.7,264.4c0.4,0.2,0.8,0.1,1-0.3l0,0c0.2-0.4,0-0.8-0.3-1l-7-3.6l0,0c-0.4-0.2-0.8,0-1,0.3  c0,0.1,0,0.1,0,0.1c-0.2,0.3,0,0.7,0.3,0.9L613.7,264.4L613.7,264.4z"></path>
<path d="M729.7,308.9L729.7,308.9c-0.3,0-0.6,0.2-0.7,0.6c-0.2,0.3,0,0.8,0.4,0.9c1.7,0.4,3.5,0.1,5-0.9c0.3-0.2,0.4-0.7,0.2-1l0,0  c-0.2-0.3-0.7-0.4-1-0.2l-0.5,0.3c0,0-0.1,0.1-0.2,0.1h-0.1l0,0c-0.4,0.2-0.7,0.3-1.1,0.3c0,0-0.2,0-0.1,0h-1.1c-0.1,0-0.3,0-0.2,0  L729.7,308.9L729.7,308.9z"></path>
<path d="M717.2,313.2c1-0.1,1-1.5-0.1-1.4c-4.4,0.4-8.9,0.8-13.3,1c-15.8,0.9-31.7,1-47.5,0.3c-0.9-0.1-0.9,1.4,0,1.4  c4.5,0.2,8.9,0.3,13.4,0.4C685.6,315.2,701.4,314.6,717.2,313.2L717.2,313.2z"></path>
<path d="M742.2,273.9c0.2-0.3,0.2-0.7,0-0.9c-0.2-0.4-0.7-0.4-1-0.2c-2.1,2.3-4.2,4.4-6.5,6.5c-8.1,7.5-17,13.9-26.7,19.1  c-0.8,0.5-0.1,1.7,0.7,1.3c2.8-1.5,5.5-3.1,8.1-4.8C726.2,289,734.7,282,742.2,273.9L742.2,273.9z"></path>
<path d="M705.8,221.1C705.8,221.1,705.8,221.2,705.8,221.1c-0.2,0.3,0,0.7,0.3,0.8c0.3,0.2,0.8,0.1,1-0.2c3-5.3,5.1-11,6.1-17  c0.9-5.2,1.1-10.4,0.4-15.6c-0.5-4.7-2.2-9.3-4.9-13.3c-2.5-3.6-6.3-6.3-10.6-7.5c-4.2-1.2-8.7-0.6-12.3,1.8  c-0.8,0.6-0.1,1.8,0.7,1.3c3.8-2.6,8.7-2.7,12.9-1.1c8.7,3.3,12.3,12.9,13,21.5C713.1,202,710.8,212.2,705.8,221.1L705.8,221.1z"></path>
</svg>