<svg xmlns="http://www.w3.org/2000/svg" xml:space="preserve" viewBox="0 0 557 615"><g transform="translate(-1924 -669)"><path fill="#FFC000" d="m2038.83 998.057-16.54-15.973s-20.39-121.732 109.13-207.109c129.51-85.928 224.31-49.573 258.48-2.754 34.17 46.82 18.19-2.203 18.19-2.203l-33.62-37.456-59.52-36.905-24.25-9.914-19.85-7.161-27.55-6.059s-113.54-26.44-223.76 65.547c-110.23 91.987-98.11 203.804-91.49 221.981 6.06 18.177 83.77 49.569 83.77 49.569l27.01-11.563Z"/><path fill="#FC3F04" d="M2241.7 672s120.74 18.189 141.68 148.814c20.95 130.625-144.98 209.446-212.79 234.246-67.81 24.25-124.59 31.41-124.59 31.41s44.65 36.38 67.26 49.06c22.6 12.67 31.42 14.88 31.42 14.88s153.26-26.46 267.37-130.08c114.67-103.062 60.64-213.846 9.37-263.451-51.27-49.605-111.36-76.06-179.72-84.879Z"/><path fill="#FFC000" d="M2253.48 1283.36s-14.3 0-48.95-18.74c-34.65-18.74-51.15-46.31-51.15-46.31s-50.6-186.86-32.45-280.567c18.15-93.155 59.95-108.59 59.95-108.59s23.65-5.512 37.95 1.103c14.3 7.165 20.9 13.78 22.55 23.151 1.65 9.371-31.9 116.307-31.9 116.307s-7.15 165.366 44 313.646Z"/><path fill="#FC3F04" d="M2181.34 828.628s30.29-6.646 36.35 22.708c6.06 29.354-71.59 102.462-166.32 125.723C1956.64 999.766 1928 959.89 1928 959.89s35.8 68.68 115.11 79.75c79.3 11.08 208.18-40.981 247.83-99.689 39.1-58.708-47.36-135.692-109.6-111.323Z"/></g></svg>
