<svg xmlns="http://www.w3.org/2000/svg" xml:space="preserve" overflow="hidden" viewBox="0 0 2044 1798"><defs><linearGradient id="b" x1="3007.78" x2="3053.56" y1="837.671" y2="1009.49" gradientUnits="userSpaceOnUse" spreadMethod="reflect"><stop offset="0" stop-color="#ECA30E"/><stop offset=".1" stop-color="#ECA40D" stop-opacity=".996078"/><stop offset=".2" stop-color="#EDA60D" stop-opacity=".992157"/><stop offset=".3" stop-color="#EDA80D" stop-opacity=".992157"/><stop offset=".4" stop-color="#EEA90D" stop-opacity=".992157"/><stop offset=".5" stop-color="#EEAB0C" stop-opacity=".988235"/><stop offset=".6" stop-color="#EFAC0C" stop-opacity=".984314"/><stop offset=".7" stop-color="#EFAC0B" stop-opacity=".984314"/><stop offset=".8" stop-color="#EFAD0A" stop-opacity=".984314"/><stop offset=".9" stop-color="#EFAD09" stop-opacity=".980392"/><stop offset="1" stop-color="#F0AE09" stop-opacity=".976471"/></linearGradient><linearGradient id="c" x1="3025.1" x2="3070.86" y1="844.448" y2="1016.27" gradientUnits="userSpaceOnUse" spreadMethod="reflect"><stop offset="0" stop-color="#ECA30E"/><stop offset=".1" stop-color="#ECA40D" stop-opacity=".996078"/><stop offset=".2" stop-color="#EDA60D" stop-opacity=".992157"/><stop offset=".3" stop-color="#EDA80D" stop-opacity=".992157"/><stop offset=".4" stop-color="#EEA90D" stop-opacity=".992157"/><stop offset=".5" stop-color="#EEAB0C" stop-opacity=".988235"/><stop offset=".6" stop-color="#EFAC0C" stop-opacity=".984314"/><stop offset=".7" stop-color="#EFAC0B" stop-opacity=".984314"/><stop offset=".8" stop-color="#EFAD0A" stop-opacity=".984314"/><stop offset=".9" stop-color="#EFAD09" stop-opacity=".980392"/><stop offset="1" stop-color="#F0AE09" stop-opacity=".976471"/></linearGradient><clipPath id="a"><path d="M1920 391h2044v1798H1920z"/></clipPath></defs><g clip-path="url(#a)" transform="translate(-1920 -391)"><path fill="#FFC000" fill-rule="evenodd" d="M3963.48 391.858v516.253L2580.14 1135.49l607.52 1051.37h-588.39l-644.62-1115.6c-41.85-72.44-45.48-160.701-9.69-236.319 35.79-75.621 106.41-128.769 188.93-142.37Z"/><path fill="#FFFDFC" fill-rule="evenodd" d="M3033.82 2099.79c-20.56 0-37.34-16.71-37.34-37.32V795.168c0-20.539 16.71-37.31 37.34-37.31h703.32c20.56 0 37.34 16.697 37.34 37.31V2062.54c0 20.54-16.71 37.32-37.34 37.32h-703.32Z"/><path fill-rule="evenodd" d="M3736.04 760.289c18.81 0 34.02 15.301 34.02 34.076V2062.35c0 18.86-15.28 34.07-34.02 34.07h-702.12c-18.81 0-34.02-15.3-34.02-34.07V794.365c0-18.849 15.28-34.076 34.02-34.076h702.12Zm0-6.431h-702.12c-22.29 0-40.44 18.183-40.44 40.507V2062.35c0 22.32 18.15 40.51 40.44 40.51h702.12c22.29 0 40.44-18.19 40.44-40.51V794.365c0-22.324-18.15-40.507-40.44-40.507Z"/><path fill-rule="evenodd" d="M3736.04 760.289c18.81 0 34.02 15.301 34.02 34.076V2062.35c0 18.86-15.28 34.07-34.02 34.07h-702.12c-18.81 0-34.02-15.3-34.02-34.07V794.365c0-18.849 15.28-34.076 34.02-34.076h702.12Zm0-6.431h-702.12c-22.29 0-40.44 18.183-40.44 40.507V2062.35c0 22.32 18.15 40.51 40.44 40.51h702.12c22.29 0 40.44-18.19 40.44-40.51V794.365c0-22.324-18.15-40.507-40.44-40.507Z"/><path fill-rule="evenodd" d="M3697.99 845.286c18.84 0 34.06 15.297 34.06 34.067V2013.37c0 18.83-15.29 34.06-34.06 34.06h-626.02c-18.84 0-34.07-15.3-34.07-34.06V879.353c0-18.843 15.31-34.067 34.07-34.067h196.93c.96 19.435 17.06 34.953 36.79 34.953h172.61c19.73 0 35.84-15.444 36.8-34.953h182.89Zm0-6.428H3515.1c-3.4 0-6.2 2.66-6.36 6.06-.8 16.183-14.18 28.893-30.44 28.893h-172.61c-16.25 0-29.62-12.71-30.45-28.893-.13-3.4-2.94-6.06-6.34-6.06h-196.93c-22.31 0-40.49 18.178-40.49 40.495V2013.37c0 22.31 18.18 40.49 40.49 40.49h626.02c22.31 0 40.49-18.18 40.49-40.49V879.353c0-22.317-18.18-40.495-40.49-40.495Z"/><path fill-rule="evenodd" d="M3643.11 1701.29s-17.36 60.24-29.53 90.39c-16.6 41.16-41.45 63.11-41.45 63.11l-4.38 78.72-4.81-2.45 1.86-77.16s-4.24-28.6 14.97-76.71c17.51-43.75 63.34-75.9 63.34-75.9Zm0-6.43c-1.49 0-2.75.44-3.79 1.18-2.75 1.93-47.69 34.14-65.48 78.71-16.1 40.35-16.76 68.89-15.35 78.93-.15 0-2.01 77.16-2.01 77.16-.07 2.43 1.26 4.73 3.49 5.84l4.83 2.44c.89.44 1.93.74 2.95.74 1.12 0 2.23-.3 3.2-.81 1.85-1.11 3.11-3.04 3.19-5.17l4.29-76.13c6.46-6.28 26.7-27.94 41.09-63.63 11.71-29.05 27.88-84.55 29.59-90.54.29-.66.37-1.4.37-2.22.07-3.61-2.82-6.5-6.37-6.5Z"/><path fill-rule="evenodd" d="M3589.64 1245.28s27.46 64.03 32.22 231.89c4.76 167.94-68.3 289.84-68.3 289.84v253.23l-11.98 1.26.45-253.68s-29.85-117.9-25.67-243.35c4.82-145.02 73.28-279.19 73.28-279.19Zm0-6.42c-2.46 0-4.62 1.33-5.73 3.48-.67 1.33-69.2 137.11-74.02 281.91-4.03 119.6 23.06 233.73 25.66 244.37l-.44 252.88c0 1.85.74 3.55 2.15 4.73 1.19 1.04 2.76 1.63 4.32 1.63h.67l11.98-1.26c3.27-.37 5.72-3.1 5.72-6.36v-251.53c8.48-14.93 72.77-134.09 68.31-291.69-4.69-167.21-31.56-231.59-32.67-234.24-.97-2.29-3.2-3.77-5.73-3.92h-.22Z"/><path fill="#FFF" fill-rule="evenodd" d="M3540.21 2062.86c-.83 0-1.57-.3-2.16-.81-.67-.6-1.04-1.41-1.04-2.22l-8.65-225c-2.16-5.68-22.66-60-42.79-121.02-21.24-64.5-30.72-201.64-31.09-207.47-.07-1.57.89-2.89 2.39-3.33.29-.08.59-.15.81-.15 1.2 0 2.31.67 2.92 1.78 11.11 13.95 67.91 89.76 89.59 193.66 9.93 47.51-5.73 131.96-6.47 135.57l7.45 225.22c.07 1.7-1.27 3.18-3.05 3.33l-7.91.44Z"/><path fill-rule="evenodd" d="M3458.82 1505.23c.15.28 65 80.62 88.08 193.06 9.79 47.49-6.39 134.48-6.39 134.48l7.28 226.21-7.65.44-8.6-225.76s-21.17-56.52-42.27-121.53c-20.97-64.88-30.37-206.47-30.45-206.9Zm0-6.37c-.59 0-1.1.07-1.68.22-2.95.82-4.86 3.54-4.64 6.58.37 5.85 9.78 143.51 30.81 208.45 19.41 59.7 39.11 112.96 42.06 120.81l8.52 224.72c.08 1.71.81 3.33 2.07 4.52 1.17 1.11 2.72 1.7 4.25 1.7.37 0 8.02-.44 8.02-.44 3.46-.23 6.11-3.11 6.04-6.59l-7.28-225.47c1.61-8.94 15.72-89.8 6.24-136.26-21.54-104.67-77.94-181.15-89.03-195.43.22.3.35.67.43.74-1.25-2.22-3.46-3.55-5.81-3.55Z"/><path fill="#FFF" fill-rule="evenodd" d="M3566.09 2028.86c-.22 0-.5 0-.74-.07l-9.45-2.37c-1.46-.37-2.42-1.71-2.42-3.19l4.76-199.51c-.07-.59-6.96-90.74 12.33-172.16 19.28-81.49 117.84-238.57 122.03-245.22.59-.96 1.61-1.48 2.71-1.48.44 0 .8.07 1.24.22 1.47.59 2.21 2.15 1.84 3.69-.37 1.63-39.17 165.8-65.05 237.4-23.54 64.91-55.81 172.07-58 179.55l-5.95 200.03c0 .96-.51 1.85-1.25 2.44-.72.45-1.39.67-2.05.67Z"/><path fill-rule="evenodd" d="M3696.03 1408.28s-39.23 164.64-65.7 236.83c-24.85 67.83-58.9 180-58.9 180l-6.01 200.32-9.56-2.36 4.82-199.36s-7.26-89.55 12.39-171.36c19.58-81.87 122.96-244.07 122.96-244.07Zm0-6.42h-.6c-1.04.07-2.07.44-2.88 1.04-.6.37-1.12.88-1.56 1.4-.15.21-.3.37-.38.58-4.96 7.84-104.19 164.27-123.77 245.92-18.98 79.29-12.99 166.78-12.54 173.05l-4.82 199.06c-.07 3.03 1.93 5.62 4.89 6.36l9.58 2.37c.52.15 1.04.22 1.56.22 1.4 0 2.74-.44 3.85-1.33 1.56-1.18 2.44-2.96 2.53-4.88l5.99-199.5c3.12-10.27 35.16-115.06 58.52-178.89 25.59-69.84 63.42-227.23 65.78-237.05.23-.59.3-1.26.3-1.93 0-3.46-2.81-6.35-6.3-6.42h-.15Z"/><path fill="#FFF" fill-rule="evenodd" d="M3524.31 1934.86c-.59 0-1.19-.15-1.63-.44-.89-.52-1.5-1.48-1.57-2.53l-6.35-91.9c-9.09-7.11-37.8-35.02-48.85-68.57-13.71-41.62-38.1-133.68-38.32-134.57-.37-1.4.22-2.81 1.49-3.55.52-.29 1.04-.44 1.63-.44.83 0 1.65.3 2.24.89 2.1 1.99 52.29 49.76 73.84 96.49 24.76 53.55 20.14 107.31 19.91 109.6l7.76 88.72c.15 1.34-.67 2.67-1.95 3.18l-6.86 2.97c-.43.08-.89.15-1.34.15Z"/><path fill-rule="evenodd" d="M3430.93 1635.22s51.26 48.72 72.77 95.29c24.56 53.31 19.59 107.8 19.59 107.8l7.71 89.09-6.82 2.96-6.38-92.94c-.37-.08-35.91-29.28-48.67-68.09-13.88-41.84-38.2-134.11-38.2-134.11Zm0-6.36c-1.12 0-2.23.3-3.27.89-2.45 1.48-3.72 4.35-2.97 7.09.22.89 24.49 92.93 38.21 134.56 10.53 31.94 36.79 59.89 48.59 69.13l6.23 90.35c.15 2.06 1.27 3.91 3.13 5.02 1.03.59 2.15.96 3.33.96.88 0 1.78-.15 2.59-.52l6.84-2.96c2.52-1.11 4.08-3.69 3.84-6.43l-7.63-88.57c.52-6.43 3.71-58.55-20.18-110.46-21.74-47.17-72.04-95.3-74.19-97.28-1.34-1.19-2.89-1.78-4.52-1.78Z"/><path fill="#FFF" fill-rule="evenodd" d="M3519.66 2179.86c-20.54 0-37.25-20.48-37.25-45.66l-14.93-212.22c0-8.98 7.17-16.12 15.97-16.12h121.06c8.8 0 15.97 7.14 15.97 15.9L3606 2134.42c0 24.96-16.71 45.44-37.25 45.44h-49.09Z"/><path fill-rule="evenodd" d="M3604.2 1908.24c7.12 0 12.83 5.69 12.83 12.81l-14.53 213.69c0 23.63-15.27 42.75-34.19 42.75h-49.23c-18.9 0-34.17-19.12-34.17-42.75l-14.98-213.69c0-7.12 5.79-12.81 12.83-12.81h121.44Zm0-6.38h-121.44c-10.61 0-19.28 8.6-19.28 19.19v.44l14.97 213.47c.09 26.97 18.25 48.9 40.63 48.9h49.23c22.32 0 40.5-21.93 40.63-48.9l14.54-213.47v-.44c-.07-10.59-8.67-19.19-19.28-19.19Z"/><path fill="#FFF" fill-rule="evenodd" d="M3117.91 1867.86h-18c-.89 0-1.56.52-1.41 1.26l59.67 309.48c.16.67.98 1.26 1.87 1.26h18c.9 0 1.57-.52 1.42-1.26l-59.68-309.48c-.15-.74-.97-1.26-1.87-1.26ZM2904.34 1872.86h17.72c.88 0 1.54.52 1.4 1.26l-60.01 304.48c-.15.67-.96 1.26-1.84 1.26h-17.72c-.88 0-1.54-.52-1.39-1.26l60-304.48c.15-.74.96-1.26 1.84-1.26ZM3301.43 1867.86h-17.55c-.88 0-1.46.52-1.39 1.19l58.21 309.55c.15.67.95 1.26 1.82 1.26h17.55c.88 0 1.53-.52 1.39-1.26l-58.2-309.55c-.15-.67-.96-1.19-1.83-1.19Z"/><path fill="#FFF" fill-rule="evenodd" d="M3087.85 1872.86h18.17c.9 0 1.57.52 1.44 1.26l-61.49 304.48c-.16.67-.99 1.26-1.89 1.26h-18.16c-.9 0-1.58-.52-1.42-1.26l61.47-304.48c.15-.67.98-1.26 1.88-1.26Z"/><path fill-rule="evenodd" d="M3119.11 1867.28c.89 0 1.7.52 1.85 1.26l59.09 308.79c.15.67-.52 1.25-1.41 1.25h-17.81c-.89 0-1.71-.52-1.85-1.25l-59.09-308.79c-.15-.67.52-1.26 1.4-1.26h17.82Zm0-6.42h-17.82c-2.44 0-4.66 1.04-6.14 2.8-1.4 1.7-1.92 3.91-1.56 5.99l59.1 308.78c.74 3.69 4.14 6.43 8.14 6.43h17.81c2.44 0 4.67-1.04 6.15-2.8 1.4-1.7 1.99-3.85 1.54-5.99l-59.08-308.79c-.67-3.69-4.07-6.42-8.14-6.42ZM2922.58 1872.28c.89 0 1.56.52 1.41 1.24l-60.81 303.74c-.15.67-.98 1.26-1.87 1.26h-17.95c-.9 0-1.57-.52-1.42-1.26l60.81-303.74c.15-.65.98-1.24 1.87-1.24h17.96Zm0-6.42h-17.96c-4.03 0-7.53 2.72-8.2 6.49L2835.59 2176c-.37 2.22.15 4.44 1.57 6.05 1.49 1.78 3.73 2.81 6.2 2.81h17.95c4.1 0 7.53-2.73 8.21-6.49l60.81-303.65c.45-2.15-.14-4.36-1.56-6.06-1.42-1.78-3.73-2.8-6.19-2.8ZM3301.13 1867.28c.89 0 1.71.51 1.85 1.18l59.09 308.73c.15.66-.52 1.24-1.4 1.24h-17.82c-.89 0-1.7-.5-1.85-1.24l-59.09-308.73c-.15-.67.52-1.18 1.4-1.18h17.82Zm0-6.42h-17.82c-2.43 0-4.66 1.04-6.14 2.8-1.4 1.7-1.99 3.84-1.54 5.98l59.08 308.79c.67 3.69 4.07 6.43 8.14 6.43h17.82c2.44 0 4.66-1.04 6.14-2.8 1.41-1.7 1.92-3.91 1.56-5.98l-59.1-308.73c-.74-3.76-4.14-6.49-8.14-6.49Z"/><path fill-rule="evenodd" d="M3105.7 1872.2c.87 0 1.54.52 1.39 1.26l-60.17 303.73c-.15.66-.97 1.25-1.86 1.25h-17.76c-.89 0-1.55-.51-1.4-1.25l60.17-303.73c.15-.66.97-1.26 1.85-1.26h17.78Zm0-6.34h-17.78c-3.99 0-7.45 2.72-8.12 6.49L3019.63 2176c-.45 2.15.14 4.35 1.54 6.05 1.48 1.78 3.69 2.81 6.13 2.81h17.76c3.99 0 7.39-2.73 8.12-6.42l60.19-303.72c.37-2.22-.15-4.44-1.56-6.06-1.55-1.78-3.76-2.8-6.11-2.8Z"/><path fill="#FFF" fill-rule="evenodd" d="M2908.59 1930.86c-20.47 0-37.11-16.65-37.11-37 0-20.42 16.64-37.07 37.11-37.07l228.18-.08 228.79-410.11.22-.44c6.06-13.25 15.22-33.3 34.74-33.3h158.63c19.43 0 35.33 15.84 35.33 35.37 0 .52-.15 1.11-.37 1.56l-249.26 446.88c-4.43 10.73-13.9 33.82-34.89 33.82 0 0-6.2.3-7.76.3l-393.61.07Z"/><path fill-rule="evenodd" d="M3558.99 1416.2c17.73 0 32.06 14.39 32.06 32.1l-249.13 445.59c-5.62 13.52-14.4 32.03-32.14 32.03 0 0-6.2.3-7.75.3l-393.36.15c-18.69 0-33.91-15.13-33.91-33.72 0-18.68 15.15-33.72 33.91-33.72l229.99-.09 229.64-410.54c5.98-13.13 14.4-32.1 32.06-32.1h158.63Zm0-6.34h-158.56c-21.5 0-31.17 21.1-37.6 35.12l-.22.45-227.63 407.08-226.24.06c-22.23 0-40.26 18.01-40.26 40.15 0 22.13 18.1 40.14 40.26 40.14l393.36-.15c1.63 0 8.12-.29 8.12-.29 22.61 0 32.66-23.84 37.54-35.64l248.91-445.3c.51-.96.81-2 .81-3.11 0-21.32-17.29-38.51-38.49-38.51ZM3953.3 2188.88H2230.66c-1.77 0-3.18-1.32-3.18-3s1.41-3 3.18-3H3953.3c1.78 0 3.18 1.32 3.18 3s-1.4 3-3.18 3Z"/><path fill="#FFF" fill-rule="evenodd" stroke="#404040" stroke-miterlimit="8" stroke-width="12.9654" d="m2644.3 530.441-327.78-65.754c-9.02-1.81-17.79 4.032-19.59 13.052l-127.62 636.751c-1.81 9.02 4.03 17.79 13.05 19.6l473.27 94.94c9.01 1.81 17.78-4.04 19.59-13.06l98.44-491.21c.86-4.326-.03-8.827-2.46-12.502l-116.31-174.719c-2.45-3.675-6.25-6.23-10.59-7.098Z"/><path fill="none" stroke="#404040" stroke-miterlimit="8" stroke-width="12.9654" d="m2642.9 529.357-29.59 147.689c-1.82 9.067 4.05 17.882 13.11 19.7l147.56 29.611"/><path fill="#F5BA9D" fill-rule="evenodd" d="M2557.23 741.858c68.23 13.56 112.43 79.376 98.77 147l-123.53-24.551 24.76-122.449Z"/><path fill="#C8C6C4" fill-rule="evenodd" d="M2652.48 905.146c-16.41 81.796-100.38 132.864-182.27 106.844-62.24-19.775-103.37-81.487-97.64-146.492 7.53-85.525 87.07-143.253 168.94-126.852l-27.84 138.691 138.81 27.809Zm-24.59 207.234-114.32-22.9-138.81-27.81-114.32-22.91c-4.5-.9-8.89 2.03-9.8 6.53-.9 4.5 2.03 8.89 6.53 9.79l114.32 22.9 138.81 27.82 114.31 22.89c4.52.91 8.9-2.02 9.8-6.52.9-4.5-2.01-8.89-6.52-9.79Zm8.19-40.79-114.32-22.91-138.81-27.81-114.32-22.895c-4.5-.903-8.9 2.02-9.8 6.525-.9 4.5 2.02 8.89 6.53 9.79l114.32 22.9 138.81 27.81 114.3 22.91c4.52.9 8.9-2.03 9.81-6.53.9-4.51-2.02-8.89-6.52-9.79Z"/><path fill="#C43E1C" fill-rule="evenodd" d="m2083.3 986.72 261.76 52.48c18.07 3.62 35.65-8.09 39.27-26.16l52.49-261.76c3.63-18.069-8.08-35.658-26.16-39.281l-261.75-52.483c-18.08-3.624-35.66 8.088-39.29 26.159l-52.48 261.764c-3.63 18.069 8.09 35.658 26.16 39.281Z"/><path fill="#FFF" fill-rule="evenodd" d="M2281.78 754.041c24.14 4.856 41.52 14.005 52.17 27.413 10.64 13.416 13.92 30.41 9.82 50.955-2.64 13.198-8.15 24.288-16.54 33.287-8.39 9.004-19 15.175-31.83 18.532-12.82 3.341-26.94 3.466-42.33.369l-37.08-7.464-14.72 73.725-40.79-8.211 40.9-204.789 80.4 16.183Zm-59.25 90.326 32.39 6.515c12.61 2.539 22.7 1.6 30.3-2.803 7.58-4.414 12.47-12.103 14.66-23.072 4.26-21.299-5.96-34.441-30.68-39.416l-33.57-6.757-13.1 65.533Z"/><path fill="#F4B400" fill-rule="evenodd" d="m2862.05 767.098-217.08 87.887c-21.07 8.53-31.34 32.756-22.81 53.835l196.37 485.46c8.52 21.08 32.74 31.34 53.81 22.81l332.01-134.41c21.07-8.53 31.33-32.76 22.81-53.84L3077.3 858.363l-115.23-27.688-100.02-63.577Z"/><path fill="#F1F1F1" fill-rule="evenodd" d="m2997.75 1009.61-165.71 67.3c-10.51 4.27-15.64 16.4-11.38 26.96l67.06 166.3c4.25 10.56 16.34 15.7 26.85 11.43l165.71-67.3c10.52-4.27 15.64-16.4 11.38-26.96l-67.05-166.31c-4.26-10.55-16.35-15.69-26.86-11.42Zm52.94 149.71-152.95 62.12-36.11-89.55 152.96-62.13 36.1 89.56Z"/><path fill="url(#b)" fill-rule="evenodd" d="m2931.17 904.425 199 84.657-52.8-131Z"/><path fill="#FADA80" fill-rule="evenodd" d="m2863.16 767.073 46.46 114.302c8.55 21.052 32.61 31.202 53.75 22.683l114.79-46.255-215-90.73Z"/><path fill="#FFF" fill-opacity=".101961" fill-rule="evenodd" d="m2862.16 767.071 1.29 3.21 210.52 89.791 3.19-1.299Z"/><path fill="#BF360C" fill-opacity=".2" fill-rule="evenodd" d="m3203.06 1279.11-332.07 134.8c-21.07 8.55-45.29-1.74-53.82-22.89l1.29 3.21c8.53 21.14 32.75 31.43 53.82 22.88l332.07-134.8c21.08-8.55 31.34-32.85 22.81-53.99l-1.29-3.2c8.53 21.14-1.73 45.44-22.81 53.99Z"/><path fill="#F4B400" fill-rule="evenodd" d="m2879.38 773.858-217.09 87.752c-21.08 8.518-31.34 32.706-22.8 53.752l196.36 484.708c8.53 21.05 32.74 31.31 53.82 22.79l332-134.22c21.07-8.51 31.33-32.7 22.81-53.74l-149.86-369.918-115.23-27.644-100.01-63.48Z"/><path fill="#F1F1F1" fill-rule="evenodd" d="m3014.71 1016.36-166.31 67.06c-10.54 4.25-15.69 16.33-11.42 26.85l67.3 165.71c4.28 10.52 16.41 15.63 26.96 11.38l166.3-67.06c10.56-4.25 15.71-16.34 11.44-26.86l-67.32-165.7c-4.27-10.52-16.39-15.64-26.95-11.38Zm53.15 149.16-153.52 61.9-36.24-89.23 153.51-61.9 36.25 89.23Z"/><path fill="url(#c)" fill-rule="evenodd" d="m2948.48 911.201 199 84.657-52.79-131Z"/><path fill="#FADA80" fill-rule="evenodd" d="m2880.48 772.858 46.46 115.118c8.55 21.203 32.6 31.425 53.74 22.845l114.8-46.586-215-91.377Z"/><path fill="#FFF" fill-opacity=".101961" fill-rule="evenodd" d="m2879.48 773.859 1.29 3.174 210.52 88.826 3.19-1.284Z"/><path fill="#BF360C" fill-opacity=".2" fill-rule="evenodd" d="m3220.38 1285.56-332.09 134.12c-21.07 8.51-45.29-1.74-53.81-22.77l1.29 3.18c8.52 21.04 32.74 31.29 53.82 22.77l332.08-134.11c21.07-8.51 31.33-32.68 22.81-53.7l-1.29-3.19c8.52 21.02-1.74 45.19-22.81 53.7Z"/><path fill="#FFF" fill-rule="evenodd" d="M3217.82 1858.14s61.08-105.89 117.13-203.15c.89-1.54 111.98-3.17 112.87-4.65 16.68-28.95 11.22-57.45 11.88-85.14 1.11-43.87.89-81.38.89-81.38l106.06-60.03s22.3-14.62 26.43-36.62c4.14-22.01-.65-41.07-17.86-44.31-17.21-3.26-116.7-1.26-116.7-1.26s-2.81-37-27.69-47.7c-24.89-10.71-55.76-19.2-89.01 6.79-57.45 44.98-28.5 79.23-28.5 79.23l-20.9 51.99s-20.83-8.49-33.24 3.4c-12.41 11.88-19.13 24.66-19.13 24.66l-102.66-1.7 42.62-125.24-10.19-34.48s-3.41-4.21-5.98-3.84c-2.52.36-3.41.45-3.41.45l-11.52-34.93s-32.19-21.94-36.63-17.87c-4.44 3.99-7.01 7.97-4.29 11.95 2.74 4 25.56 17.43 25.56 17.43l3.4 17.87-31.54 15.36s-7.46.52-5.53 11.08c1.91 10.56 6.27 24.22 10.63 25.99 4.36 1.78 7.68-.44 7.68-.44s0 11.08.44 14.03c.44 3.03 2.14 5.99 2.14 5.99l-39.21 113.71s-5.25 22.82 8.12 29.4c13.37 6.57 19.57 6.79 19.57 6.79l117.14-.44s-15.58 11.29-9.82 26.79c5.83 15.58 22.15 34.93 22.15 34.93s-6.79 5.46-5.54 13.67c1.26 8.2 3.85 20.45 3.85 20.45s-30.07 12.63-56.65 28.51c-26.59 15.95-57.09 31.97-57.09 31.97l-100.52-95.84s-53.69-44.46-105.25-34.93c-60.42 11.14-105.61 46.81-105.61 46.81s-3.84-10.64-12.78-8.12c-8.94 2.57-40.47 16.39-40.47 23.4 0 7.09 5.09 14.03 5.09 14.03l-232.57 136.69s-29.18 14.47-49.86 12.32c-20.67-2.13-41.87 2.22-49.41 8.94-7.53 6.73-16.61 13.89-12.33 18.32 4.21 4.43 163.6 75.39 163.6 75.39s15.05 3.4 21.71-5.53c6.64-8.94 32.35-50.29 32.35-50.29l50.21-27.25s-18.45 24.29-16.62 29.84c1.85 5.46 4.66 11.07 4.66 11.07l-156.34 276.84s-16.78 21.26-39.23 29.84c-22.45 8.49-40.62 24.13-44.31 32.34-3.7 8.18-8.49 18.97-3.4 20.45 5.09 1.47 181.03 2.14 181.03 2.14s16.98-4.57 20.01-23.42c3.03-18.82 3.47-43.56 3.84-51.09.37-7.53 7.24-25.55 7.24-25.55l141.43-199.74s26.44 20.52 33.23 17.87c6.81-2.66 21.28-24 24.75-29.4 8.19-12.69-5.1-17.87-5.1-17.87l25.56-46.81 269.2 75.39s30.2 2.81 49.85-5.53c19.65-8.27 34.57-19.57 34.57-19.57Z"/><path fill="#1A1A1A" fill-rule="evenodd" d="m3460.48 1414.24-25.43 15.33s-16.46-3.54-30.5 7.23c-14.03 10.75-21.15 25.06-21.15 25.06l-8.08-2.58 16.53-48.88s13.51.3 21.6-7.67c8.08-7.96 11.62-18.13 5.07-20.86-6.46-2.65-11.46-1.26-11.46-1.26l-11.46 7.23-5.96-4.65s1.99-10.9 4.63-18.72c2.64-7.81 2.14-25.51 2.14-25.51s-21.83 2.8-35.21-2.58c-13.37-5.38-20.79-11.87-20.79-11.87s-12.27 7.38-15.65 17.04c-3.45 9.57-4.63 15.7-4.63 15.7l-3.23 13.85-7.79-6.99s-4.41-22.28 10.13-37.46c14.63-15.19 39.25-43.94 67.83-43.79 28.51.15 65.11 10.55 69.07 46.74 4.12 36.27 4.34 84.64 4.34 84.64ZM3461.33 1489.86l-40.31 17.36-83.54 145.06 90.75.44s29.7 10.15 31.84-30.09c2.06-40.23 1.26-132.77 1.26-132.77Z"/><path fill="#1A1A1A" fill-rule="evenodd" d="m3359.47 1415-13.15 37.73-29.83 2.13s-3.8-7.5-9.2-11.92c-5.48-4.4-15.82-9.33-15.82-9.33l22.36-48.75 5.7.44s-1.29 19.78 15.38 26.69c16.65 7.06 24.56 3.01 24.56 3.01ZM3320.48 1684.07s-4.36-15.01-28.61-28.68c-24.61-13.9-100.09-29.86-101.41-25.88 0 0-20.92 10.79-32.38 17.08-11.46 6.21-31.12 22.62-31.12 22.62l-93.81-88.7s-46.19-47.08-89.51-45.62c-16.19.52-41.25 1.71-63.5 10.21-37.33 14.33-70.73 38.81-70.73 38.81s-.67-10.28-8.95-8.51c-8.28 1.78-40.87 19.96-40.96 24.69-.07 4.73 3.85 12.35 3.85 12.35l32.37 51.15s-25.12 5.99-41.31 30.67c-16.27 24.77-45.17 79.32-45.17 79.32s-7.82-2.81-12.78 1.26c-4.95 4.14-25.58 34.37-23.88 39.25 1.7 4.81 7.25 8.94 7.25 8.94l136.01 81.83s13.97-8.65 20.92-18.78c6.94-10.12 12.71-21.58 10.64-24.69-2.07-3.1-8.51-7.69-8.51-7.69l23.88-44.34 232.77 61.35s19.66 17.01 60.54 11.09c40.88-5.91 49.16-5.99 78.87-51.16 29.58-45.08 85.53-146.57 85.53-146.57ZM2641.48 2093.61l-5.99 26.12-39.23 49.26-73.73.87s-1.56-19.93-12.79-26.92c-11.22-7.01-27.26-14.74-27.26-14.74s25.49-14.68 31.99-22.71c6.43-8.01 21.73-33.63 21.73-33.63l105.28 21.75ZM2641.37 1799.79c-1.57-1.84-61.19-77.93-61.19-77.93s-30.47 21.15-52.13 28.78c-21.66 7.65-55.57 11.03-55.57 11.03s17.03 7.19 21.14 20.79c4.03 13.5 5.59 28.35 5.59 28.35l70.21 33.05s21.15-16.23 33.63-17.34c12.47-1.1 24.56-5.06 24.56-5.06s15.32-19.84 13.76-21.67Z"/><path fill-rule="evenodd" d="M3114.99 1238.86h-2.13c-7.97 1.76-9.6 10.33-8.12 15.36 1.54 5.17 8.27 6.06 13.65 9.39 2 1.25 4.43 3.18 6.79 4.64 2.52 1.56 6.5 3.11 7.24 4.29.52.82 4.29 13.3 3.84 14.48-.37.89-7.82 4.29-10.19 5.54-4.29 2.29-7.75 3.55-10.63 5.1-6.65 3.54-16.32 6.72-17.86 13.22-1.41 5.68 1.39 14.1 3.83 20.02 1.48 3.54 4.57 9.96 6.42 11.51 1.78 1.41 4.22 1.41 7.68 1.71-.81 6.12 2.44 10.86 2.14 14.91-.37 4.44-3.32 9.61-5.1 14.92-10.25 30.22-19.63 59.63-29.82 89.91-1.63 4.94-4.35 10.18-5.09 14.47-2.81 16.1 7.31 29.84 17.05 33.24 6.94 2.44 19.49 2.15 29.83 2.15h80.03c3.4 0 14.17-1.19 15.72 0 .6.44-4.94 8.34-5.53 9.81-6.72 16.62 3.09 31.11 11.88 40.49 1.33 1.39 7.38 5.17 7.69 6.79.21 1.48-4.14 7.76-4.66 11.89-.44 3.4-.07 6.79.45 9.83 1.03 6.21 5.1 9.23 1.25 13.21-1.92 2-9.15 3.78-11.52 4.66-33 13.22-62.16 29.41-89.85 48.53-1.32.96-5.61 4.66-5.98 4.66-.66 0-5.98-5.55-8.12-7.68-17.93-17.95-36.47-36.49-54.04-54.08-12.32-12.34-24.44-27.55-40.02-37.44-3.17-2.07-5.6-4.59-8.49-6.79-5.97-4.52-12.91-8.29-19.12-11.53-14.91-7.68-28.64-13.45-47.25-14.92-37.58-3.03-71.76 9.15-97.46 24.3-9.15 5.39-18.09 11.81-28.49 17.88-2.07 1.17-8.94 5.61-9.82 5.53-3.18-.37-3.85-7.01-7.68-7.68-2.66-.44-7.97 1.69-11.52 2.95-9.07 3.33-21.63 8.79-28.13 14.04-3.1 2.52-8.19 7.39-8.12 12.33.08 3.11 5.76 7.83 5.09 10.64-.44 1.78-10.19 6.06-14.46 8.5-63.2 36.27-125.45 72.16-188.2 109.02-7.23 4.21-14.39 8.2-21.7 12.78-4.65 2.96-7.83 4.81-14.03 7.25-6.43 2.5-14.54 6.05-22.14 7.68-10.49 2.21-22.31-.16-35.37.89-11.01.8-21.7 3.91-30.64 8.92-5.91 3.33-19.86 12.05-18.75 20.91.73 5.84 11.43 9.76 18.31 12.78 43.7 19.28 85.04 37.75 128.98 57.54 6.71 3.03 15.28 8.49 21.7 9.38 2.29.3 5.09-.3 8.12-.44 3.98-.23 7.24-.59 8.94-1.26 10.04-3.84 14.91-17.94 20.44-27.69 3.99-7.02 8.94-14.64 13.67-22.17 1.55-2.5 3.24-6.05 4.64-7.24 2.37-1.98 6.57-2.96 9.38-4.28 9.97-4.66 16.47-7.38 27.68-12.78-2.06 6.21-14.91 20.83-5.97 28.96.73.66 3.32 1.7 3.4 2.13.29.98-8.64 15.52-9.83 17.45-45.84 79.32-91.98 158.87-137.47 238.06-6.12 10.63-11.67 20.31-20.44 28.51-3.92 3.62-7.99 7.16-11.89 10.2-8.27 6.49-18.82 9.67-29.38 14.91-14.62 7.17-27.1 16.18-34.49 32-2.14 4.5-5.16 12.7-2.58 17.05 2.14 3.55 6.28 3.55 11.52 4.66h172.84c3.61-1.48 14.69-5.55 18.3-9.83 4.51-5.38 5.16-16.17 5.99-25.55.74-8.87 1.61-18.1 2.58-25.12 2.14-15.51 4.36-32.43 11.07-43.88 3.17-5.39 7.68-10.48 11.51-15.73 38.55-53.84 76.42-107.33 114.52-161.47 2.73-3.92 9.23-15.52 11.89-15.73 1.11-.07 5.68 3.39 7.23 4.28 3.24 1.85 5.61 3.11 7.68 4.29 5.02 2.87 10.34 7.98 16.17 7.68 9.23-.52 15.5-10.79 20-17.06 5.9-8.2 17.06-23.06 8.12-32.35-1.61-1.71-5.46-3.04-5.53-5.11-.08-1.39 4.66-7.09 5.98-9.38 4.28-7.53 7.02-12.55 11.07-19.57 1.26-2.14 4.13-9.31 5.98-9.82.45-.15 7.01 1.92 9.38 2.59 61.88 16.47 122.93 33.37 183.02 49.41 13.07 3.47 26.58 5.91 37.88 11.07 11.88 5.48 24.29 9.09 37.5 11.53 13.66 2.52 27.84.37 41.72-2.96 28.12-6.79 44.73-18.9 57.07-40.92 31.89-56.8 65.86-113.53 98.79-170.4 1.69-2.89 7.23-15.73 10.18-15.73H3414c12.41 0 23.55.81 31.9-2.96 7.97-3.63 13.66-11.59 16.17-20.47 2.73-9.59 1.7-22.15 1.7-34.5v-91.58c0-4.44-1.56-14.56 0-18.32.59-1.4 7.38-4.72 10.19-6.42 24.58-14.27 50.78-28.89 74.48-42.63 26.58-15.36 59.07-36.19 47.71-81.76-2.07-8.28-13.73-17.44-22.96-18.77-3.55-.52-6.79.15-11.08 0-29.32-.81-58.48.52-86.45-.89-2.44-.14-12.34 1.34-14.04 0-.28-.22-1.02-6.57-1.24-7.68-1.78-7.83-4.51-14.84-7.68-19.58-13.15-19.86-44.45-36.18-77.46-28.13-27.08 6.64-49.83 25.41-63.41 46.46-7.98 12.34-12.77 31.83-2.15 43.43 1.41 1.55 6.57 4.65 5.55 8.13-.46 1.48-2.37 1.25-3.85 2.57-.88.83-2.14 3.04-2.58 3.85-4.58 9.46-9.59 21.71-14.92 32.35-1.33 2.74-4.27 10.12-5.53 10.64-1.33.52-6.64-1.18-8.49-1.26-17.57-.81-29.84 9.53-37.07 19.14-2.58 3.39-3.76 8.42-6.42 9.38-2.28.8-7.9 0-11.88 0-29.23 0-55.09.37-83.43-.44 11.22-33.46 25.54-74.68 37.07-109.47 1.69-5.17 4.86-12.34 4.64-16.62-.22-4.96-3.77-11.97-5.53-17.44-1.63-4.94-2.96-13.66-5.99-17.43-1.76-2.22-6.86-2.59-8.92-5.09-1.2-1.48-1.63-5.03-2.59-7.68-2.51-7.18-4.66-16.18-8.49-22.17-6.57-10.11-25.7-14.7-36.26-20.9Zm29.39 57.1c1.1-1.33-.74-4.07-1.25-5.98-1.56-5.7-3.03-16.12-5.55-19.58-2.28-3.11-10.03-6.2-13.21-8.05-2.07-1.26-12.55-6.94-13.21-8.5-1.48-3.46 1.26-10.41 3.39-9.38 9.01 4.35 21.19 8.13 29.39 14.92 3.98 3.25 5.53 10.27 8.05 17.43.81 2.3 1.55 4.81 2.57 7.68.67 1.85 2.81 6.35 2.59 7.7-.44 2.06-12.77 9.89-14.91 10.18-.67.08-2.88-.66-3.4-.44-3.39 1.4-3.02 7.53-8.49 7.68.44-3.02-3.98-10.11-2.95-12.78.96-2.58 8.94-3.55 10.18-5.1-.5 3.63 4.22 7.31 6.8 4.22Zm266.09 33.24c-1.11-.74-4.81.59-7.68 1.7-15.06 5.9-31.97 5.98-46.01-.45-5.23-2.44-12.47-5.9-14.46-10.64-.23-.59-.3-8.05-2.95-8.93-2.07-.67-3.99.96-4.66 2.14-1.99 3.11 1.11 6.65.45 8.94-.45 1.39-5.02 4.28-6.35 5.98-7.75 9.53-11.89 24.15-13.67 38.79-9.22-12.42.37-31.41 6.8-40.05 13.95-18.75 37.51-39.74 66.01-41.29 37.65-2.07 64.59 22.6 66.44 58.8.81 15.58 1.7 32.43 1.7 50.67 0 4.59 1.7 14.11 0 17.88-.89 2-11.01 6.2-12.77 7.24-4.44 2.59-8.71 6.64-12.78 7.23-2.81.45-5.83-.66-8.49-.44-18.82 1.63-33.95 15.36-41.27 25.56 4.06-10.7 7.01-20.01 11.08-31.1.81-2.29 2.73-9.9 3.84-10.63 1.54-1.04 5.31-.08 7.24-.45 8.62-1.7 21.7-9.23 22.14-18.75.44-8.29-6.2-14.19-12.32-14.93-2.15-.22-9.32.15-10.19.44-1.41.52-4.22 5.46-6.35 5.09-5.47-.8.15-12.77 1.24-17.05 2.89-10.49 4-18.32 1.71-26.44 3.1.51 16.98-5.39 11.3-9.31Zm-275.46 25.92c.44 5.25 2.14 14.11 7.23 14.92 8.79 1.41 1.55-5.75.89-7.68-3.92-10.12-.74-24.82 4.64-30.2 1.56-1.56 6.07-2.74 5.98-4.66-.06-1.63-3.91-2.89-5.53-3.84-1.91-1.11-4.72-2.96-6.35-2.96-3.92 0-4.72 3.48-9.38 4.28-4.87.82-9.75-.65-9.82-3.83 0-1.11 2.88-2.81 3.84-3.41 9.75-6.2 17.06-10.4 26.44-16.17 2.28-1.41 8.7-6.06 11.88-5.09 3.4.96 4.73 11.14 6.42 16.17 1.92 5.76 6.05 12.55 5.53 17.43-.13 1.19-1.46 2.73-2.13 4.28-4.14 9.98-7.16 20.47-10.63 31.11-8.35 25.25-17.71 52.81-25.98 78.37-2 6.12-5.99 12.63-3.85 16.17 1.63 2.74 9.38 2.15 14.91 2.15h17.43c-6.35 10.93-10.93 28.65-7.23 45.58-15.73-.74-33.01.8-47.7.43-4.14-.06-9.97-.52-13.65-1.69-8.49-2.81-14.78-15.97-12.78-28.96.66-4.22 3.09-8.94 4.66-13.59 10.47-31.24 22.29-66.48 31.88-96.25 3.25 1.48 4.88 5.84 9.82 5.53 8.12-.5-.44-4.72-2.13-6.42-3.48-3.39-6.29-12.48-7.25-19.57-.96-7.38-1.24-5.47 4.29-8.49 4.65-2.59 13.06-8.05 15.73-8.5-5.09 6.13-8.2 13.44-7.16 24.89Zm-9.83-42.17c-.07.29-3.53 2.72-5.09 3.4-.66.28-2.51.06-2.95.43-3.33 2.52-1.56 6.88.44 8.94 2.96 3.11 8.27 3.18 12.34 5.55-4 .07-6.44 6.5-10.2 5.09-2.07-.74-3.62-8.79-4.65-13.22-1.41-5.69-1.78-11.52-2.58-15.73-.07-.59-1.04-2.22-.89-2.59.59-1.48 9.68-3.99 10.18-5.1-.5 2.74 4.14 11.23 3.4 13.23Zm-13.58 19.65c.82 2.13 2.52 3.98 2.15 5.98-4.96-4.88-13.45-23.41-7.25-31.11.74 9.09 2.44 18.1 5.1 25.13Zm253.32 136.72c-10.79 8.64-25.49 19.73-41.29 21.71-9.96 1.26-19.11-2.06-17.41-12.33.96-5.98 11.88-19.65 17.04-20.91 7.53-1.76 13.15 2.07 21.27 0 1.63-.43 4.13-2.8 5.09-4.28 2.89-4.2 3.85-9.67 6.35-16.62 2.15-5.83 5.92-12.99 5.99-17.43 0-1.18-1.11-2.59-.44-3.39 2.29-2.59 15.94-3.18 15.72-7.68-.3-6.29-11.74.8-14.47 1.69-4.43 1.48-9.15 2.29-12.78 2.59-17.42 1.18-26.27-16.48-27.68-31.54-.14-1.48-.66-3.92-.44-5.11.07-.29 1.17-.51 1.26-2.13.22-2.44-.46-4.88-.46-7.25.16-15.43 7.17-32.05 15.74-39.59.8-.74.65.37 1.24.89 11.9 9.6 31.69 15.73 53.24 12.77-.07 10.79-1.62 17.51-4.29 26.82-2.2 7.83-6.79 19.58 3.85 19.13-.81 2.8-5.02 3.54-3.4 6.43.81 1.4 1.55-.37 3.84.89.89.51.45 1.84 2.15 2.14 5.68 1.04 17.63-1.48 17.85-3.4.6-4.28-8.62-2.28-12.32-3.39 3.55-4.52 5.9-8.65 11.51-7.24 3.18.8 5.69 6.27 5.1 9.81-.89 5.4-12.63 13.6-20.44 12.79-2.89-.3-6.95-4.96-9.84-3.4-4.2 2.22 1.85 5.25 2.15 7.68.07.59-1.78 3.92-2.58 5.99-5.53 14.84-11.08 30.43-15.72 43.87 1.24.07 3.31-1.19 4.27 0-1.85 3.92-6.12 7.25-10.1 10.49Zm160.06-124.83c7.23.29 14.39 0 21.7 0 7.6 0 15.87-1.19 22.96 0 6.72 1.1 16.46 6.86 18.74 11.89 2 4.43 2.52 13.44 2.15 20.01-1.47 24.23-15.73 36.28-32.34 46.03-11.73 6.87-24.35 14.62-37.06 21.71-2.88 1.63-11.37 7.39-12.78 7.24-2.57-.22-5.75-7.46-7.66-10.2-5.55-8.05-9.01-13.51-14.48-21.27-.67-.96-7.9-9.16-7.24-11.08.08-.22 6.29-3.69 8.12-4.65 3.41-1.92 5.33-2.44 8.5-4.29 6.93-3.98 10.48-8.27 16.16-9.37 3.55-.68 11.53 1.54 12.77-1.26.74-1.62-2.65-5.17-3.83-5.53-3.7-1.2-10.34.06-14.91 0-10.93-.31-27.62-.31-42.16-.89.15-13.67.22-27.19-1.26-39.16 21.86.59 40.68-.07 62.62.82Zm-170.33 72.83c-2.36 9.08-5.25 16.98-8.49 26-.74 2.07-2.59 8.05-3.4 8.49-2.37 1.33-9.97 0-11.88 0-3.03 0-10.27 1.04-12.34 0-1.18-.59-2.29-5.02-3.4-6.42-5.31-6.72-13.14-11.09-20.44-14.03 7.75-14.04 14.17-29.56 21.7-43.88 3.92 18.32 15.13 33.53 38.25 29.84Zm109.04-9.39v-17.86c10.05.28 21.26-.61 30.64.44-10.18 5.83-20.08 12.03-30.64 17.42Zm-21.7 81.84c-6.42 3.7-12.84 8.66-19.57 11.53-.74.3-3.61.37-4.28.89-.74.52-1.99 3.98-3.4 6.42-16.46 28.08-30.71 53.26-46.8 80.97-2 3.46-5.54 11.51-7.68 12.33-2.51.96-9.53 0-14.47 0h-89.41c-4.43 0-12.41 1.11-14.91 0-4.58-2.07-4.88-18.69-2.96-23.86.74-2 5.46-7.16 5.09-8.94-.37-1.77-4.64-2.81-5.97-3.83-7.9-6.29-21.41-22.54-16.17-37.46 4.42-12.55 15.94-21.65 25.99-28.96 2.66-1.91 10.47-5.83 10.19-8.11-.45-3.26-5.92-2.89-9.38-.89-6.86 3.98-10.56 7.31-16.17 11.89-2.14 1.77-4.66 5.75-7.68 6.42-3.1.59-9.23-.43-14.02-.43h-28.95c-4.42 0-12.77 1.32-14.47 0-.96-.74-1.25-9.68-1.25-12.79 0-10.86 1.7-15.95 4.64-23.41.96-2.52 3.4-8.79 4.66-9.38 2.22-1.04 11.81 0 17.06 0h34.48c5.16 0 14.1 1.03 16.6-.89 1.77-1.33 2.66-6.65 3.84-8.5 5.76-9.08 16.47-18.98 29.83-19.56 9.82-.46 16.17 3.02 22.97 7.68 4.13 2.87 12.62 9.52 12.32 14.92-.07 1.91-5.38 6.2-6.79 8.12-2.51 3.24-5.03 6.72-6.42 9.83-6.95 15.79 7.59 25.32 22.96 24.3 23.48-1.63 43.05-17.36 56.63-29.85 2.44-2.22 5.53-3.98 6.79-5.54 1.98-2.44 2.66-5.99 4.28-8.49 5.91-9.31 23.47-23.93 39.12-20.91 1.85.37 4.07 2.59 4.66 2.59 1.55 0 7.75-4.58 9.38-5.54 7.53-4.44 11.73-6.79 19.11-11.08 3.77-2.15 9.38-6.65 11.08-4.65 10.49 12.03 17.35 27.04 28.14 41.29-20.53 11.22-39.44 22.53-59.07 33.89Zm-23.85 29.33c1.84-3.16 3.39-7.16 5.09-8.93 3.55-3.63 11.45-6.65 16.17-9.39 5.83-3.39 11.89-7.01 16.61-9.38v119.3c0 5.68 1.11 11.66.45 16.62-1.04 7.46-7.75 16.62-14.47 20.02-6.14 3.1-15.06 2.14-24.29 2.14-24.36 0-50.65-.88-74.05-.45 22.88-40.99 49.98-87.52 74.49-129.93Zm-547.07 144.42c-3.11-.89-11.08-2.07-13.22-3.41-3.54-2.14-7.98-13.73-10.64-18.32-9.14-15.8-17.78-29.91-27.24-46.01-1.55-2.66-5.53-8.57-5.1-9.83.15-.44 6.73-3.92 8.14-4.64 14.83-8.35 27.68-16.18 41.26-23.87 5.1-2.8 10.85-7.09 16.61-9.37 12.56-5.03 34.11-8.87 51.98-9.39 36.32-.96 65.34 20.09 89.41 36.63 10.71 7.33 20.37 18.7 29.82 28.15 43.64 43.66 86.82 87.31 130.68 131.19 3.11 3.1 12.62 14.25 15.36 14.04.44 0 3.68-3.11 3.83-3.85.68-3.77-5.24-8.64-7.68-11.08-16.82-16.84-31.82-31.47-47.25-46.83-6.49-6.5-12.99-12.64-17.85-19.13 14.24-9.68 28.79-19.42 44.66-28.14 3.68-2 12.63-7.68 16.17-8.05 4.72-.52 12.84 1.62 19.12 2.58 6.65.96 13.36 2.44 18.3 3.4 29.54 5.9 58.18 14.1 77.9 30.65 3.61 3.03 10.27 8.49 10.18 11.9 0 1.85-4.79 7.97-6.79 11.51-25.25 43.96-48.36 84.58-73.68 127.8-9.59 16.47-17.56 32.27-31.53 41.73-11.95 8.12-31.82 14.03-51.08 15.73-14.98 1.33-24.88-2.36-36.62-5.53-6.65-1.78-13.22-3.18-18.32-5.99-3.68-2.08-7.53-5.91-11.51-9.39-3.92-3.39-8.64-6.42-11.52-9.81-1.85-2.22-2.8-4.96-4.65-7.24-12.48-15.45-26.43-29.33-39.57-43.88-43.41-48.08-85.43-96.25-129.87-144.41-2.21-2.37-3.9-5.32-6.42-4.28-7.08 3.02 2.36 12.33 4.65 14.92 1.92 2.07 4.07 4.35 5.98 6.42 1.85 2 5.02 5.02 4.66 6.35-11.97-3.46-25.48-6.94-38.17-10.55Zm-62.17-5.55c-3.39.52-10.11 2.74-11.88 2.14-1.56-.51-2.96-4.94-4.29-7.23-7.53-13.22-14.32-24.38-21.26-36.2-1.55-2.58-8.27-12.41-8.12-15.36.15-2.15 3.68-5.98 5.09-7.24 3.62-3.18 9.08-5.61 15.72-8.94 2.74-1.4 17.28-9.01 19.13-6.42 4.05 5.68 7.38 12.99 11.08 19.56 11.06 19.58 23.18 40.12 33.65 59.25-12.54-1.1-27.01-1.25-39.12.44Zm510.9 14.93c-27.17-28.37-72.13-38.86-120.05-46.47 5.61-2.44 11.66-5.68 18.32-8.49 6.49-2.8 13.95-4.36 20-7.24 1.63-.74 2.96-2.59 4.66-2.96 7.81-1.84 19.63 0 28.49 0h85.56c.3 0 .52.07.45.44-12.62 21.36-25.03 43.14-37.43 64.72Zm-633.09 104.81c-4.43 2.74-14.4 6.72-21.26 9.83-3.24 1.48-6.42 2.72-10.64 4.65-3.09 1.48-9.29 4.95-11.06 4.66-2.15-.37-6.14-6.59-7.68-8.5-15.37-19.95-28.14-36.94-42.97-56.65-1.11-1.48-7.61-7.84-7.24-9.4.15-.5 8.94-5.16 11.08-6.42 56.04-32.5 113.48-64.93 167.74-96.69 1.24-.74.74.08 1.24.89 8.58 13.07 17.65 29.91 24.29 42.18-5.75 2.22-12.17 3.17-17.41 6.42-2.59 1.56-5.03 5.02-7.68 7.68-2.73 2.74-6.06 4.95-8.12 7.24-15.59 18.03-27.62 44.4-40.03 65.59-4.42 7.54-8.85 14.79-12.76 21.73-8.49-5.92-12.4 3.61-17.5 6.79Zm181.77 27.26c-4.36-1.18-12.69-2.96-14.02-.44-.82 1.54 2.35 2.5 2.13 4.65-.15 1.18-3.91 6.12-5.53 8.93-4.06 7.09-6.72 11.46-10.64 18.32-1.26 2.21-4.35 9.09-5.09 9.39-1.63.59-6.13-3.4-7.68-4.29-36.77-20.98-71.98-41.22-108.53-62.19-2-1.19-7.46-3.18-7.68-4.66 0-.08 3.03-4.95 3.84-6.43 9.23-15.8 18.23-31.61 26.81-46.45 5.09-8.87 9.74-17.88 15.71-26 5.77-7.83 12.78-16.99 20.46-21.73 6.42-3.98 16.83-7.01 25.99-8.94 10.25-2.13 21.04-2.28 31.89-1.69 13.95.67 27.24 5.54 41.28 9.37 9.73 2.67 20.88 5.55 30.19 8.07 3.68 1.02 8.19 1.32 10.63 2.57 2.51 1.26 5.61 6.07 8.94 9.83 42.07 46.99 83.34 93.3 125.13 139.31 3.11 3.4 7.16 6.51 9.38 9.83 1.48 2.21 1.7 4.36 2.59 5.53 2.72 3.85 7.01 7.46 10.18 10.2.81.66 3.03 1.33 2.59 2.96-69.03-18.32-139.03-37.83-208.57-56.14Zm-288.61-77.12c16.7 20.01 32.72 42.18 49.41 63.89 1.69 2.22 7.23 8.72 7.23 9.38-.07.82-3.7 3.63-4.29 4.28-1.83 2.3-7.16 12.94-9.37 14.05-1.69.81-6.06.36-8.5.88-12.47 2.52-23.69 7.17-34.02 12.78-3.18 1.7-9.53 6.79-11.89 6.79-1.26 0-5.02-2.65-7.68-3.83-16.91-7.61-31.53-13.9-48.14-21.27-2.36-1.04-8.27-2.96-8.49-3.41-.74-1.25.15-6.36 0-8.49-.89-15.29-8.56-28.37-16.17-37.09-2.88-3.31 3.61-1.55 6.79-1.7 8.64-.43 17.8-3.17 25.99-6.35 7.98-3.17 16.32-6.49 22.96-10.18 12.47-7.03 23.63-15.45 34.48-20.91.59-.3 1.11.37 1.26.44.59.08.07.3.43.74Zm29.76 115.45c-2.95 5.02-6.86 13.74-11.96 15.74-2.15.88-10.92 1.99-13.58 1.7-2.07-.23-6.13-3.04-9.82-4.65-44.52-19.8-86.31-38.2-130.67-57.91-2.52-1.11-19.35-7.47-20.02-9.4-1.33-3.83 5.02-8.79 7.68-11.07 8.57-7.46 14.17-9.9 25.99-12.34 5.09-1.04 13.06-2.65 17.43-1.69 1.91.43 4.86 2.95 6.42 4.28 7.01 6.35 14.32 18.99 15.35 32.35.3 3.4-1.48 8.79 0 11.9.67 1.39 6.28 3.02 8.94 4.28 17.13 7.83 30.56 13.67 46.43 20.91 4.72 2.13 13.45 8.05 19.2 7.68 3.02-.22 8.05-3.7 11.51-5.55 11.23-5.98 23.7-11.74 37.07-14.03-2.95 5.46-6.21 11.38-9.97 17.8Zm91.56-66.92c39.94 23.64 82.9 48.38 124.32 72.39 3.47 1.99 16.76 7.9 17.87 10.63 3.09 7.98-7.24 19.51-9.38 22.62-2.66 3.83-10.03 15.88-15.73 16.16-.81 0-5.16-3.39-8.12-5.09-39.13-22.9-77.14-44.4-116.21-67.29-4.35-2.58-16.54-8.06-17.41-11.09-.67-2.13.65-7.09 1.7-9.81 1.61-4.22 5.23-9.76 9.36-15.75 2.96-4.28 8.79-13.73 12.78-13.21.52.07.52.29.82.44Zm-51.91 292.66c-3.11 4.28-7.46 8.57-8.94 12.33-.51 1.26-.44 7.25-1.7 8.12-2.07 1.34-9.95-2.07-11.88-2.57-25.17-5.98-46.06-11.16-71.54-15.75-1.99-.37-11.44-1.47-12.33-2.57-.52-.6 1.11-3.11 1.26-3.41 4.49-8.2 11.89-20.45 15.35-26.37 35.59-61.52 70-121.13 104.32-181.49 5.68-10.03 11.38-20.45 17.43-30.2.81-1.33 1.55-.3 2.14 0 33 16.62 63.79 38.11 97.53 55.76-42.82 60.06-88.08 125.35-131.64 186.15Zm-129.87 34.5c6.57-7.03 10.56-13.97 15.36-22.17 1.85-3.1 3.62-8.72 6.79-7.68 7.69 2.51 15.87 3.03 24.66 4.66 20.01 3.83 38.99 9.22 59.21 14.03 3.11.74 10.93 2.14 11.51 3.4.37.8-2.13 8.2-2.57 10.63-.67 3.92-.67 8.64-1.7 11.53-1.48 3.92-6.35 8.34-9.38 12.33-6.94 9.23-11.22 15.95-18.76 25.11-1.83 2.29-8.18 10.72-10.62 11.53-4.07 1.26-11.67 0-17.06 0h-34.04c-2.66 0-14.98 1.55-17.05 0-.3-.22-1.11-5.09-1.69-7.24-5.47-18.62-14.92-26.22-31.89-33.24 11.36-5.68 18.52-13.6 27.23-22.89Zm105.58 67.72c-1.77 2.44-9.38 6.94-13.21 7.68-6.05 1.2-14.32 0-21.72 0h-132.81c-6.2 0-19.86.83-20.9-.43-2.65-3.25 2.59-13.23 4.29-16.19 6.94-12.1 12.99-16.53 25.1-23.41 5.76-3.24 12.62-8.2 19.56-7.68 10.12.74 20.68 9.68 25.1 15.73 4.22 5.84 7.24 16.4 9.38 22.61.59 1.78.08 1.47.89 2.15 2.59 2.13 13.95 1.24 19.11 1.24h41.29c5.6 0 17.34 1.19 20-.87 1.18-.89.89-3.26 1.7-4.66 1.48-2.67 5.24-5.17 7.68-8.13 6.27-7.38 11.73-15.8 17.05-22.97.89-1.26 2.73-4.07 3.39-2.96-3.39 11.01.08 29.78-5.9 37.89Z"/><path fill-rule="evenodd" d="M3332.19 1384.88c-.59-.17-4.3.55-4.67 3.18-.66 4.54 6.89 7.71 11.11 7.8 4.13.08 11.25-3.83 5.99-6.85-2.67-1.59-4.22 1.28-6.44.96-5.1-1.03-2.81-4.22-5.99-5.09Z"/><path fill="#1A1A1A" fill-rule="evenodd" d="M3323.47 1383.86c-11.21 0-20.44-8.6-20.98-19.52-.23-5.51 1.69-10.7 5.45-14.77 3.77-4.07 8.92-6.41 14.53-6.71h1c11.22 0 20.43 8.59 20.98 19.51.22 5.51-1.69 10.71-5.46 14.78-3.76 4.07-8.92 6.41-14.53 6.71h-.99Z"/><path fill-rule="evenodd" d="M3323.48 1345.29c9.87 0 18.1 7.58 18.56 17.34.44 10.06-7.43 18.51-17.67 19.02h-.89c-9.87 0-18.11-7.58-18.56-17.34-.51-10.06 7.42-18.51 17.66-19.02h.9Zm0-3.43h-1.05c-5.86.3-11.27 2.77-15.2 7-3.94 4.22-6.03 9.76-5.72 15.52.52 11.52 10.17 20.48 21.97 20.48h1.04c5.86-.3 11.28-2.77 15.21-7 3.93-4.22 6.02-9.76 5.72-15.52-.59-11.44-10.24-20.48-21.97-20.48Z"/><path fill="#FFF" fill-rule="evenodd" d="M3343.29 1345.86s8.58 13.54 3.81 17.72c-4.77 4.12-15.62 8.61-15.62 8.61l5.94 11.67h7.19l8.87-25.88-10.19-12.12Z"/><path fill="#1A1A1A" fill-rule="evenodd" d="M3368.98 1394.86c-10.95 0-19.96-8.39-20.48-19.05-.53-11.02 8.24-20.44 19.51-20.95h.97c10.96 0 19.95 8.38 20.48 19.05.22 5.36-1.65 10.44-5.33 14.41-3.67 3.96-8.7 6.25-14.17 6.54h-.98Z"/><path fill-rule="evenodd" d="M3368.48 1356.21c9.87 0 18.1 7.59 18.56 17.34.44 10.07-7.43 18.52-17.67 19.03h-.89c-9.88 0-18.04-7.58-18.57-17.27-.44-10.06 7.43-18.51 17.67-19.02.3-.08.59-.08.9-.08Zm0-3.35h-1.05c-12.1.58-21.52 10.64-20.93 22.52.53 11.52 10.18 20.48 21.98 20.48h1.04c5.86-.3 11.28-2.77 15.21-7 3.93-4.22 6.02-9.76 5.72-15.52-.52-11.44-10.18-20.48-21.97-20.48Z"/><path fill-rule="evenodd" d="M3336.88 1383.86h.9c5.15-3.27-4.62-7.35-2.76-11.06.52-1.04 4.17-1.42 6.64-2.67 1.05-.52 4.17-2.82 4.7-3.42 7.45-8.02.22-26.72-8.2-27.77-1.12-.15-6.79-.43-6.05 2.53.31 1.18 2.76-.07 6.05 2.6 3.27 2.67 5.44 11.14 4.69 16.25-1.04 7.35-12.89 5.58-14.17 11.14-1.12 5.05 2.24 10.61 8.2 12.4ZM3370.07 1346.94c-1.59.13-12.12 3.21-10.39 6.14 1.52 2.64 10.75-1.58 12.05-1.64 9.59-.37 10.9 6.85 16.17 7.41.28 0 2.02.15 2.45-.85.5-1.07-.36-3.35-2.75-5.2-6.63-5.01-13.99-6.29-17.53-5.86Z"/></g></svg>