<svg xmlns="http://www.w3.org/2000/svg" viewBox="0 0 32 32"><circle cx="27" cy="27" r="3" fill="#ffc661"/><circle cx="11" cy="27" r="3" fill="#ffc661"/><path fill="#ffc661" d="M27.77,18.42,30,8.42A2,2,0,0,0,28,6H6V20H25.77A2,2,0,0,0,27.77,18.42Z"/><path fill="#fff" d="M30,8.42l-2.18,10a2,2,0,0,1-2,1.58h-6a2,2,0,0,0,2-1.58L24,8.42A2,2,0,0,0,22,6h6A2,2,0,0,1,30,8.42Z"/><path fill="#2c3a49" d="M27,23H8a1,1,0,0,1-1-1V21H25.77a3.05,3.05,0,0,0,3-2.37l2.18-10a3,3,0,0,0-.59-2.5A3,3,0,0,0,28,5H7V2A1,1,0,0,0,6,1H2A1,1,0,0,0,2,3H5V22a3,3,0,0,0,2.58,3A3.94,3.94,0,0,0,7,27a4,4,0,0,0,8,0,3.91,3.91,0,0,0-.56-2h9.12A3.91,3.91,0,0,0,23,27a4,4,0,1,0,4-4ZM28,7a1,1,0,0,1,.82.39,1,1,0,0,1,.2.82l-2.19,10a1,1,0,0,1-1,.79H7V7ZM13,27a2,2,0,1,1-2-2A2,2,0,0,1,13,27Zm14,2a2,2,0,1,1,2-2A2,2,0,0,1,27,29Z"/></svg>