<svg xmlns="http://www.w3.org/2000/svg" xml:space="preserve" viewBox="0 0 350 532" overflow="hidden"><defs><clipPath id="a"><path d="M3244 1421h325v522h-325z"/></clipPath></defs><g fill-rule="evenodd" clip-path="url(#a)" transform="translate(-3244 -1421)"><path fill="#ECB390" d="M3398.83 1421c12.09 0 24.19 4.61 33.41 13.84l102.92 102.92c18.45 18.45 18.45 48.37 0 66.83-11.14 11.13-22.28 22.27-33.42 33.41L3332 1468.26l33.41-33.42c9.23-9.23 21.33-13.84 33.42-13.84Z"/><path fill="#fff" d="m3303.63 1496 248.07 247.44c23.07 23.01 23.07 60.33 0 83.34l-42.33 42.22-248.07-247.44c-23.07-23.01-23.07-60.33 0-83.34l42.33-42.22Z"/><path fill="#ECB390" d="M3316.34 1730 3482 1895.91l-33.45 33.32c-18.48 18.4-48.39 18.36-66.82-.1l-98.94-99.09c-18.42-18.45-18.38-48.32.09-66.72 11.16-11.11 22.31-22.21 33.46-33.32Z"/></g></svg>
