<svg width="325" height="522" xmlns="http://www.w3.org/2000/svg" xmlns:xlink="http://www.w3.org/1999/xlink" xml:space="preserve" overflow="hidden"><defs><clipPath id="clip0"><rect x="3244" y="1421" width="325" height="522"/></clipPath></defs><g clip-path="url(#clip0)" transform="translate(-3244 -1421)"><path d="M3398.83 1421C3410.92 1421 3423.02 1425.61 3432.24 1434.84L3535.16 1537.76C3553.61 1556.21 3553.61 1586.13 3535.16 1604.59 3524.02 1615.72 3512.88 1626.86 3501.74 1638L3332 1468.26 3365.41 1434.84C3374.64 1425.61 3386.74 1421 3398.83 1421Z" fill="#ECB390" fill-rule="evenodd"/><path d="M3303.63 1496 3551.7 1743.44C3574.77 1766.45 3574.77 1803.77 3551.7 1826.78L3509.37 1869 3261.3 1621.56C3238.23 1598.55 3238.23 1561.23 3261.3 1538.22L3303.63 1496Z" fill="#334257" fill-rule="evenodd"/><path d="M3316.34 1730 3482 1895.91 3448.55 1929.23C3430.07 1947.63 3400.16 1947.59 3381.73 1929.13L3282.79 1830.04C3264.37 1811.59 3264.41 1781.72 3282.88 1763.32 3294.04 1752.21 3305.19 1741.11 3316.34 1730Z" fill="#ECB390" fill-rule="evenodd"/></g></svg>