<svg width="2225" height="2092" xmlns="http://www.w3.org/2000/svg" xmlns:xlink="http://www.w3.org/1999/xlink" xml:space="preserve" overflow="hidden"><defs><clipPath id="clip0"><rect x="1120" y="295" width="2225" height="2092"/></clipPath></defs><g clip-path="url(#clip0)" transform="translate(-1120 -295)"><path d="M1120 1103.5C1120 1080.03 1139.03 1061 1162.5 1061 1185.97 1061 1205 1080.03 1205 1103.5 1205 1126.97 1185.97 1146 1162.5 1146 1139.03 1146 1120 1126.97 1120 1103.5Z" fill="#FFFFFF" fill-rule="evenodd" fill-opacity="0.470588"/><path d="M1914 393C1914 338.876 1957.88 295 2012 295 2066.12 295 2110 338.876 2110 393 2110 447.124 2066.12 491 2012 491 1957.88 491 1914 447.124 1914 393Z" fill="#595959" fill-rule="evenodd"/><path d="M1355.31 950.025C1355.31 950.025 1223.95 1289.23 1408.55 1630.79 1593.15 1972.36 1973.38 2152.8 2277.7 2307.09 2582.02 2461.38 2898.03 2386.24 3048.19 2133.53 3198.35 1880.82 2992.4 1700.43 2992.12 1340.07 2991.84 979.706 3046.07 884.304 2850.77 579.866 2655.48 275.428 2176.73 208.011 1814.69 433.819 1452.65 659.627 1355.31 950.025 1355.31 950.025Z" fill="#FFFFFF" fill-rule="evenodd" fill-opacity="0.701961"/><path d="M1439.55 2298C1439.55 2298 1018.26 1721.29 1279.33 1278.03 1540.4 834.768 2058.91 1138.98 2157.64 725.307 2256.36 311.636 2616.72 243.83 2958.47 761.118 3300.22 1278.41 3218.46 1997.8 3037.5 2298Z" fill="#ECB390" fill-rule="evenodd"/><path d="M1439.55 2298C1439.55 2298 1018.26 1721.29 1279.33 1278.03 1540.4 834.768 2058.91 1138.98 2157.64 725.307 2256.36 311.636 2616.72 243.83 2958.47 761.118 3300.22 1278.41 3218.46 1997.8 3037.5 2298Z" fill="#FFFFFF" fill-rule="evenodd" fill-opacity="0.701961"/><path d="M1221 2298 3206 2298" stroke="#263238" stroke-width="4.09757" stroke-linecap="round" stroke-linejoin="round" stroke-miterlimit="10" fill="none" fill-rule="evenodd"/><path d="M1620 1760 1620 2295" stroke="#263238" stroke-width="4.09757" stroke-linecap="round" stroke-linejoin="round" stroke-miterlimit="10" fill="none" fill-rule="evenodd"/><path d="M1620 1693 1620 1737" stroke="#263238" stroke-width="4.09757" stroke-linecap="round" stroke-linejoin="round" stroke-miterlimit="10" fill="none" fill-rule="evenodd"/><path d="M2851 2296 2851 1585 1620 1585 1620 1668.76" stroke="#263238" stroke-width="4.09757" stroke-linecap="round" stroke-linejoin="round" stroke-miterlimit="10" fill="none" fill-rule="evenodd"/><path d="M2725 1626 2800 1626 2800 2261" stroke="#263238" stroke-width="4.09757" stroke-linecap="round" stroke-linejoin="round" stroke-miterlimit="10" fill="none" fill-rule="evenodd"/><path d="M1671 2295 1671 1626 2681 1626" stroke="#263238" stroke-width="4.09757" stroke-linecap="round" stroke-linejoin="round" stroke-miterlimit="10" fill="none" fill-rule="evenodd"/><path d="M1707 1545 1730 1545" stroke="#263238" stroke-width="4.09757" stroke-linecap="round" stroke-linejoin="round" stroke-miterlimit="10" fill="none" fill-rule="evenodd"/><path d="M1764.18 1545 2872 1545 2872 1584 1598 1584 1598 1545 1691.04 1545" stroke="#263238" stroke-width="4.09757" stroke-linecap="round" stroke-linejoin="round" stroke-miterlimit="10" fill="none" fill-rule="evenodd"/><path d="M3066 1526 3054 1601" stroke="#263238" stroke-width="4.09757" stroke-linecap="round" stroke-linejoin="round" stroke-miterlimit="10" fill="none" fill-rule="evenodd"/><path d="M2994 1214 3050.72 1214C3080.72 1214.02 3105.02 1238.31 3105 1268.24 3105 1270.98 3104.79 1273.71 3104.37 1276.42L3072.32 1484" stroke="#263238" stroke-width="4.09757" stroke-linecap="round" stroke-linejoin="round" stroke-miterlimit="10" fill="none" fill-rule="evenodd"/><path d="M2937 1214 2978 1214" stroke="#263238" stroke-width="4.09757" stroke-linecap="round" stroke-linejoin="round" stroke-miterlimit="10" fill="none" fill-rule="evenodd"/><path d="M2695 1525 2735.73 1260.75C2739.76 1234.43 2762.39 1215 2789 1215L2907 1215" stroke="#263238" stroke-width="4.09757" stroke-linecap="round" stroke-linejoin="round" stroke-miterlimit="10" fill="none" fill-rule="evenodd"/><path d="M2658 1765 2676 1645" stroke="#263238" stroke-width="4.09757" stroke-linecap="round" stroke-linejoin="round" stroke-miterlimit="10" fill="none" fill-rule="evenodd"/><path d="M2867 1917 2923.19 1917C2949.97 1917.01 2975.71 1906.61 2995 1888" stroke="#263238" stroke-width="4.09757" stroke-linecap="round" stroke-linejoin="round" stroke-miterlimit="10" fill="none" fill-rule="evenodd"/><path d="M2557 1917 2753 1917" stroke="#263238" stroke-width="4.09757" stroke-linecap="round" stroke-linejoin="round" stroke-miterlimit="10" fill="none" fill-rule="evenodd"/><path d="M2476 1899C2493.13 1910.75 2513.33 1917.02 2534 1917" stroke="#263238" stroke-width="4.09757" stroke-linecap="round" stroke-linejoin="round" stroke-miterlimit="10" fill="none" fill-rule="evenodd"/><path d="M2783 1765 2468.61 1765C2447.28 1765 2430 1782.28 2430 1803.61L2430 1813.68C2429.94 1837.03 2437.81 1859.71 2452.32 1878" stroke="#263238" stroke-width="4.09757" stroke-linecap="round" stroke-linejoin="round" stroke-miterlimit="10" fill="none" fill-rule="evenodd"/><path d="M3024 1789C3018.05 1774.5 3003.88 1765.02 2988.14 1765L2932 1765" stroke="#263238" stroke-width="4.09757" stroke-linecap="round" stroke-linejoin="round" stroke-miterlimit="10" fill="none" fill-rule="evenodd"/><path d="M2784 1945 2649.29 1945 2621 1917" stroke="#263238" stroke-width="4.09757" stroke-linecap="round" stroke-linejoin="round" stroke-miterlimit="10" fill="none" fill-rule="evenodd"/><path d="M2688 1945 2769 1945 2769 1945 2769 2040.36C2769 2045.13 2765.15 2049 2760.4 2049L2696.6 2049C2691.85 2049 2688 2045.13 2688 2040.36L2688 1945 2688 1945Z" stroke="#263238" stroke-width="4.09757" stroke-linecap="round" stroke-linejoin="round" stroke-miterlimit="10" fill="none" fill-rule="evenodd"/><path d="M2703 2049 2754 2049 2754 2165 2703 2165Z" stroke="#263238" stroke-width="4.09757" stroke-linecap="round" stroke-linejoin="round" stroke-miterlimit="10" fill="none" fill-rule="evenodd"/><path d="M2497 2237C2580.98 2180.63 2703 2165 2703 2165" stroke="#263238" stroke-width="4.09757" stroke-linecap="round" stroke-linejoin="round" stroke-miterlimit="10" fill="none" fill-rule="evenodd"/><path d="M2784 2220.01C2698.85 2207.52 2614.07 2226.37 2534 2247" stroke="#263238" stroke-width="4.09757" stroke-linecap="round" stroke-linejoin="round" stroke-miterlimit="10" fill="none" fill-rule="evenodd"/><path d="M2923 2247C2903.48 2242.15 2883.76 2237.85 2864 2234" stroke="#263238" stroke-width="4.09757" stroke-linecap="round" stroke-linejoin="round" stroke-miterlimit="10" fill="none" fill-rule="evenodd"/><path d="M2867 2192C2899.77 2202.87 2931.02 2218 2960 2237" stroke="#263238" stroke-width="4.09757" stroke-linecap="round" stroke-linejoin="round" stroke-miterlimit="10" fill="none" fill-rule="evenodd"/><path d="M2754 2165C2764.39 2166.59 2774.7 2168.64 2785 2171" stroke="#263238" stroke-width="4.09757" stroke-linecap="round" stroke-linejoin="round" stroke-miterlimit="10" fill="none" fill-rule="evenodd"/><path d="M2538 2268.5C2538 2285.9 2523.9 2300 2506.5 2300 2489.1 2300 2475 2285.9 2475 2268.5 2475 2251.1 2489.1 2237 2506.5 2237 2523.9 2237 2538 2251.1 2538 2268.5Z" stroke="#263238" stroke-width="4.09757" stroke-linecap="round" stroke-linejoin="round" stroke-miterlimit="10" fill="none" fill-rule="evenodd"/><path d="M2986 2268.5C2986 2285.9 2971.9 2300 2954.5 2300 2937.1 2300 2923 2285.9 2923 2268.5 2923 2251.1 2937.1 2237 2954.5 2237 2971.9 2237 2986 2251.1 2986 2268.5Z" stroke="#263238" stroke-width="4.09757" stroke-linecap="round" stroke-linejoin="round" stroke-miterlimit="10" fill="none" fill-rule="evenodd"/><path d="M2916.15 1851.95 2940.99 1684.06C2943.35 1667.98 2956.08 1655.4 2972.21 1653.2L3087.57 1637.61C3096.43 1636.39 3103.01 1628.82 3103 1619.9L3103 1619.9C3103 1610.03 3095.01 1602.03 3085.13 1602L3070.74 1602 2956.46 1619.62C2928.47 1623.92 2906.69 1646.16 2902.99 1674.2L2879.1 1856.27C2878.29 1862.44 2882.65 1868.1 2888.83 1868.91 2889.3 1868.97 2889.77 1869 2890.24 1869L2890.24 1869" stroke="#263238" stroke-width="4.09757" stroke-linecap="round" stroke-linejoin="round" stroke-miterlimit="10" fill="none" fill-rule="evenodd"/><path d="M3088 1637 3057.89 1797.15 3057.89 1797.15C3066.21 1797.15 3072.95 1803.89 3072.95 1812.2L3072.95 1842.78C3072.95 1863.89 3055.83 1881 3034.72 1881L2894 1881" stroke="#263238" stroke-width="4.09757" stroke-linecap="round" stroke-linejoin="round" stroke-miterlimit="10" fill="none" fill-rule="evenodd"/><path d="M3068 1640 3036.54 1794 2954 1794" stroke="#263238" stroke-width="4.09757" stroke-linecap="round" stroke-linejoin="round" stroke-miterlimit="10" fill="none" fill-rule="evenodd"/><path d="M2469 1674 2461 1738" stroke="#263238" stroke-width="4.09757" stroke-linecap="round" stroke-linejoin="round" stroke-miterlimit="10" fill="none" fill-rule="evenodd"/><path d="M2498 1744 2506.92 1683.58C2509.29 1667.45 2522.07 1654.83 2538.25 1652.64L2654 1637" stroke="#263238" stroke-width="4.09757" stroke-linecap="round" stroke-linejoin="round" stroke-miterlimit="10" fill="none" fill-rule="evenodd"/><path d="M1349 622 2297 622 2297 2298 1349 2298Z" stroke="#263238" stroke-width="4.09757" stroke-linecap="round" stroke-linejoin="round" stroke-miterlimit="10" fill="#FFFFFF" fill-rule="evenodd"/><path d="M2243 1634 1403 1634" stroke="#263238" stroke-width="4.09757" stroke-miterlimit="8" fill="none" fill-rule="evenodd"/><path d="M1403 1287 2243 1287" stroke="#263238" stroke-width="4.09757" stroke-miterlimit="8" fill="none" fill-rule="evenodd"/><path d="M1403 831 1676 831 1676 1234 1403 1234Z" stroke="#263238" stroke-width="4.09757" stroke-linecap="round" stroke-linejoin="round" stroke-miterlimit="10" fill="#ECB390" fill-rule="evenodd"/><path d="M1654 1235 1654 1104.08C1616.57 1089.69 1576.77 1082.54 1536.69 1083.02 1487.35 1083.54 1443.66 1092.49 1420 1102.94L1420 1235Z" stroke="#263238" stroke-width="4.09757" stroke-linecap="round" stroke-linejoin="round" stroke-miterlimit="10" fill="#ECB390" fill-rule="evenodd"/><path d="M1522 1235 1553.38 1235 1545.77 1137.31 1557 1112.91C1557 1112.91 1538.82 1106.36 1524.77 1112.91L1531.96 1137.31Z" fill="#263238" fill-rule="evenodd"/><path d="M1573.93 1068 1595 1083.37 1568.86 1146 1539.51 1113.48 1507.07 1146 1478 1083.37 1499.07 1068 1573.93 1068Z" stroke="#263238" stroke-width="4.09757" stroke-linecap="round" stroke-linejoin="round" stroke-miterlimit="10" fill="#ECB390" fill-rule="evenodd"/><path d="M1580 1075.62C1580 1075.62 1557.52 1108.44 1539.78 1109 1527.24 1109.33 1495 1078.2 1495 1078.2 1503.73 1070.37 1504.39 1055.94 1502.98 1044.55 1502.36 1038.95 1501.26 1033.41 1499.69 1028L1573.9 1028C1570.12 1038.51 1569.22 1049.83 1571.27 1060.81 1572.28 1066.64 1575.39 1071.91 1580 1075.62Z" stroke="#263238" stroke-width="4.09757" stroke-linecap="round" stroke-linejoin="round" stroke-miterlimit="10" fill="#FFFFFF" fill-rule="evenodd"/><path d="M1571.34 1060.28C1517.17 1074.43 1506.45 1043.64 1506.45 1043.64L1502.32 1043.64C1501.69 1038.01 1500.58 1032.45 1499 1027L1574 1027C1570.13 1037.66 1569.22 1049.15 1571.34 1060.28Z" fill="#263238" fill-rule="evenodd"/><path d="M1594.54 973.946C1594.54 973.946 1630.33 860.507 1499.12 891.3 1499.12 891.3 1488.4 885.778 1481.84 888.305 1475.27 890.832 1468.95 936.648 1480.09 979Z" fill="#263238" fill-rule="evenodd"/><path d="M1589.77 974.89C1589.77 974.89 1595.86 968.248 1598.89 970.446 1602.95 973.857 1604.79 979.223 1603.68 984.398 1602.05 989.988 1594.95 999.783 1594.43 1005.47 1593.9 1011.15 1590.2 1017.65 1586.17 1013.88 1582.15 1010.1 1589.77 974.89 1589.77 974.89Z" stroke="#263238" stroke-width="4.09757" stroke-linecap="round" stroke-linejoin="round" stroke-miterlimit="10" fill="#FFFFFF" fill-rule="evenodd"/><path d="M1483.2 974.89C1483.2 974.89 1477.1 968.248 1474.12 970.446 1470.05 973.857 1468.21 979.223 1469.32 984.398 1470.95 989.988 1478.06 999.783 1478.64 1005.47 1479.21 1011.15 1482.86 1017.65 1486.85 1013.88 1490.83 1010.1 1483.2 974.89 1483.2 974.89Z" stroke="#263238" stroke-width="4.09757" stroke-linecap="round" stroke-linejoin="round" stroke-miterlimit="10" fill="#FFFFFF" fill-rule="evenodd"/><path d="M1535.12 900C1610.34 900 1592.47 1000.53 1578.6 1032.83 1573.9 1044.15 1548.56 1059 1536.29 1059 1524.96 1059 1499.01 1041.22 1494.41 1030.71 1480.49 998.173 1463.38 900 1535.12 900Z" stroke="#263238" stroke-width="4.09757" stroke-linecap="round" stroke-linejoin="round" stroke-miterlimit="10" fill="#FFFFFF" fill-rule="evenodd"/><path d="M1548 961.585C1548 961.585 1567.86 955.22 1574 968" stroke="#263238" stroke-width="4.09757" stroke-linecap="round" stroke-linejoin="round" stroke-miterlimit="10" fill="none" fill-rule="evenodd"/><path d="M1563 978.5C1563 980.978 1561.66 983.001 1560 983.001 1558.34 983.001 1557 980.978 1557 978.5 1557 976.022 1558.34 974 1560 974 1561.66 974 1563 976.022 1563 978.5Z" fill="#263238" fill-rule="evenodd"/><path d="M1525 961.585C1525 961.585 1505.14 955.22 1499 968" stroke="#263238" stroke-width="4.09757" stroke-linecap="round" stroke-linejoin="round" stroke-miterlimit="10" fill="none" fill-rule="evenodd"/><path d="M1510 978.5C1510 980.978 1511.3 983.001 1512.97 983.001 1514.65 983.001 1516 980.978 1516 978.5 1516 976.022 1514.65 974 1512.97 974 1511.3 974 1510 976.022 1510 978.5Z" fill="#263238" fill-rule="evenodd"/><path d="M1493.83 930.035C1489.81 935.168 1493.83 950.941 1494.92 957.392 1496.01 963.843 1486.08 968.175 1487.26 984.514L1483.43 990.117C1483.43 990.117 1472.74 963.984 1475.44 941.477 1478.13 918.97 1492.37 910.259 1492.37 910.259 1492.37 910.259 1498.85 890.859 1536.97 891.001 1578.02 891.001 1582.18 913.272 1582.18 913.272 1582.18 913.272 1609.99 931.777 1589.42 992L1584.92 984.514C1585.99 976.528 1584.15 968.424 1579.72 961.677 1576.17 956.451 1581.9 940.771 1580.57 932.766 1579.25 924.762 1497.9 924.95 1493.83 930.035Z" fill="#263238" fill-rule="evenodd"/><path d="M1540.92 974C1540.92 974 1542.07 997.375 1545.41 1003.98 1548.75 1010.58 1537.01 1011.63 1532 1007.73" stroke="#263238" stroke-width="4.09757" stroke-linecap="round" stroke-linejoin="round" stroke-miterlimit="10" fill="none" fill-rule="evenodd"/><path d="M1520 1020C1521.05 1023.71 1523.58 1026.87 1527.02 1028.77 1534.79 1030.58 1542.9 1030.39 1550.57 1028.22 1552.78 1026.13 1554.32 1023.47 1555 1020.55" stroke="#263238" stroke-width="4.09757" stroke-linecap="round" stroke-linejoin="round" stroke-miterlimit="10" fill="#FFFFFF" fill-rule="evenodd"/><path d="M1518 1020C1530.85 1022.67 1544.15 1022.67 1557 1020" stroke="#263238" stroke-width="4.09757" stroke-linecap="round" stroke-linejoin="round" stroke-miterlimit="10" fill="none" fill-rule="evenodd"/><path d="M1460.22 1091 1403 1106.82 1403 1234 1533 1234 1460.22 1091Z" stroke="#263238" stroke-width="4.09757" stroke-linecap="round" stroke-linejoin="round" stroke-miterlimit="10" fill="#999999" fill-rule="evenodd"/><path d="M1676 1110.68 1604.08 1088 1544 1234 1676 1234 1676 1110.68Z" stroke="#263238" stroke-width="4.09757" stroke-linecap="round" stroke-linejoin="round" stroke-miterlimit="10" fill="#999999" fill-rule="evenodd"/><path d="M1569.21 1235 1611.92 1185.37 1585.52 1160.11 1626 1137.64 1612.06 1091.18 1594.95 1083 1543 1235 1569.21 1235Z" stroke="#263238" stroke-width="4.09757" stroke-linecap="round" stroke-linejoin="round" stroke-miterlimit="10" fill="#BFBFBF" fill-rule="evenodd"/><path d="M1464.68 1190.48 1506.87 1235 1535 1235 1478.61 1083 1460.55 1090.85 1447 1134 1487.97 1166.69 1464.68 1190.48Z" stroke="#263238" stroke-width="4.09757" stroke-linecap="round" stroke-linejoin="round" stroke-miterlimit="10" fill="#BFBFBF" fill-rule="evenodd"/><path d="M1403 783 2243 783" stroke="#263238" stroke-width="4.09757" stroke-linecap="round" stroke-linejoin="round" stroke-miterlimit="10" fill="none" fill-rule="evenodd"/><path d="M1731.84 851.976 1936.9 851.976C1941.56 852.326 1945.63 848.813 1945.98 844.133 1946.32 839.454 1942.83 835.374 1938.16 835.025 1937.74 834.992 1937.31 834.992 1936.9 835.025L1731.84 835.025C1727.18 835.374 1723.68 839.454 1724.02 844.133 1724.33 848.326 1727.66 851.664 1731.84 851.976Z" fill="#263238" fill-rule="evenodd"/><path d="M2014.16 893 1731.84 893C1727.18 893.35 1723.68 897.442 1724.02 902.134 1724.33 906.34 1727.66 909.688 1731.84 910L2014.16 910C2018.82 909.65 2022.32 905.558 2021.98 900.866 2021.67 896.66 2018.34 893.312 2014.16 893Z" fill="#263238" fill-rule="evenodd"/><path d="M1858.93 951.025 1731.81 951.025C1727.17 951.374 1723.68 955.454 1724.02 960.133 1724.33 964.326 1727.65 967.664 1731.81 967.976L1858.93 967.976C1863.58 968.326 1867.63 964.813 1867.98 960.133 1868.32 955.454 1864.84 951.374 1860.19 951.025 1859.77 950.992 1859.35 950.992 1858.93 951.025Z" fill="#263238" fill-rule="evenodd"/><path d="M2014.16 1010 1731.84 1010C1727.18 1010.35 1723.68 1014.44 1724.02 1019.13 1724.33 1023.34 1727.66 1026.69 1731.84 1027L2014.16 1027C2018.82 1026.65 2022.32 1022.56 2021.98 1017.87 2021.67 1013.66 2018.34 1010.31 2014.16 1010Z" fill="#263238" fill-rule="evenodd"/><path d="M1897.91 1068.02 1731.83 1068.02C1727.17 1068.37 1723.68 1072.45 1724.02 1077.13 1724.33 1081.33 1727.66 1084.66 1731.83 1084.98L1897.91 1084.98C1902.57 1085.33 1906.63 1081.81 1906.98 1077.13 1907.32 1072.45 1903.83 1068.37 1899.17 1068.02 1898.75 1067.99 1898.33 1067.99 1897.91 1068.02Z" fill="#263238" fill-rule="evenodd"/><path d="M1723 1134 1815 1134 1815 1226 1723 1226Z" stroke="#263238" stroke-width="4.09757" stroke-linecap="round" stroke-linejoin="round" stroke-miterlimit="10" fill="#BFBFBF" fill-rule="evenodd"/><path d="M1864 1134 1956 1134 1956 1226 1864 1226Z" stroke="#263238" stroke-width="4.09757" stroke-linecap="round" stroke-linejoin="round" stroke-miterlimit="10" fill="#BFBFBF" fill-rule="evenodd"/><path d="M2006 1134 2097 1134 2097 1226 2006 1226Z" stroke="#263238" stroke-width="4.09757" stroke-linecap="round" stroke-linejoin="round" stroke-miterlimit="10" fill="#BFBFBF" fill-rule="evenodd"/><path d="M1626 1431.5C1626 1476.51 1589.29 1513 1544 1513 1498.71 1513 1462 1476.51 1462 1431.5 1462 1386.49 1498.71 1350 1544 1350 1589.29 1350 1626 1386.49 1626 1431.5Z" stroke="#263238" stroke-width="20.4875" stroke-miterlimit="8" fill="none" fill-rule="evenodd"/><path d="M1626 1431.5C1626 1476.51 1589.29 1513 1544 1513 1498.71 1513 1462 1476.51 1462 1431.5 1462 1386.49 1498.71 1350 1544 1350" stroke="#ECB390" stroke-width="20.4875" stroke-linecap="round" stroke-linejoin="round" stroke-miterlimit="10" fill="none" fill-rule="evenodd"/><path d="M1607.88 1559.02 1480.12 1559.02C1475.45 1558.68 1471.37 1562.19 1471.02 1566.87 1470.67 1571.55 1474.18 1575.63 1478.86 1575.98 1479.28 1576.01 1479.7 1576.01 1480.12 1575.98L1607.88 1575.98C1612.55 1576.32 1616.63 1572.81 1616.98 1568.13 1617.33 1563.45 1613.82 1559.37 1609.14 1559.02 1608.72 1558.99 1608.3 1558.99 1607.88 1559.02Z" fill="#263238" fill-rule="evenodd"/><path d="M1895 1431.5C1895 1476.51 1858.51 1513 1813.5 1513 1768.49 1513 1732 1476.51 1732 1431.5 1732 1386.49 1768.49 1350 1813.5 1350 1858.51 1350 1895 1386.49 1895 1431.5Z" stroke="#263238" stroke-width="20.4875" stroke-miterlimit="8" fill="none" fill-rule="evenodd"/><path d="M1871 1489.15C1839.19 1520.97 1787.62 1520.95 1755.83 1489.11 1724.04 1457.27 1724.06 1405.66 1755.88 1373.85 1771.14 1358.59 1791.82 1350.01 1813.39 1350" stroke="#ECB390" stroke-width="20.4875" stroke-linecap="round" stroke-linejoin="round" stroke-miterlimit="10" fill="none" fill-rule="evenodd"/><path d="M1877.86 1559.02 1749.87 1559.02C1745.19 1559.37 1741.67 1563.45 1742.02 1568.13 1742.34 1572.33 1745.68 1575.66 1749.87 1575.98L1877.86 1575.98C1882.55 1576.33 1886.63 1572.81 1886.98 1568.13 1887.33 1563.45 1883.82 1559.37 1879.13 1559.02 1878.71 1558.99 1878.29 1558.99 1877.86 1559.02Z" fill="#263238" fill-rule="evenodd"/><path d="M2165 1431.5C2165 1476.51 2128.51 1513 2083.5 1513 2038.49 1513 2002 1476.51 2002 1431.5 2002 1386.49 2038.49 1350 2083.5 1350 2128.51 1350 2165 1386.49 2165 1431.5Z" stroke="#263238" stroke-width="20.4875" stroke-miterlimit="8" fill="none" fill-rule="evenodd"/><path d="M2083 1513C2037.75 1511.92 2001.94 1474.56 2003.02 1429.54 2004.07 1386.05 2039.27 1351.04 2083 1350" stroke="#ECB390" stroke-width="20.4875" stroke-linecap="round" stroke-linejoin="round" stroke-miterlimit="10" fill="none" fill-rule="evenodd"/><path d="M2147.17 1559 2019.83 1559C2015.17 1559.35 2011.68 1563.44 2012.02 1568.13 2012.33 1572.34 2015.66 1575.69 2019.83 1576L2147.17 1576C2151.83 1575.65 2155.32 1571.56 2154.98 1566.87 2154.67 1562.66 2151.34 1559.31 2147.17 1559Z" fill="#263238" fill-rule="evenodd"/><path d="M1403 1686 1561 1686 1561 1844 1403 1844Z" stroke="#263238" stroke-width="4.09757" stroke-linecap="round" stroke-linejoin="round" stroke-miterlimit="10" fill="#BFBFBF" fill-rule="evenodd"/><path d="M1608.85 1702.98 2096.89 1702.98C2101.56 1703.33 2105.63 1699.81 2105.98 1695.13 2106.33 1690.45 2102.82 1686.37 2098.15 1686.03 2097.73 1685.99 2097.31 1685.99 2096.89 1686.03L1608.85 1686.03C1604.18 1686.37 1600.67 1690.45 1601.02 1695.13 1601.33 1699.33 1604.67 1702.66 1608.85 1702.98Z" fill="#263238" fill-rule="evenodd"/><path d="M2174.15 1744 1608.85 1744C1604.18 1744.35 1600.68 1748.44 1601.02 1753.13 1601.33 1757.34 1604.67 1760.69 1608.85 1761L2174.15 1761C2178.82 1760.65 2182.33 1756.56 2181.98 1751.87 2181.67 1747.66 2178.33 1744.31 2174.15 1744Z" fill="#263238" fill-rule="evenodd"/><path d="M2160.88 1803.02 1608.85 1803.02C1604.18 1803.35 1600.67 1807.19 1601.02 1811.6 1601.33 1815.54 1604.67 1818.68 1608.85 1818.98L2160.88 1818.98C2165.55 1819.31 2169.63 1816 2169.98 1811.6 2170.33 1807.19 2166.82 1803.35 2162.15 1803.02 2161.73 1802.99 2161.3 1802.99 2160.88 1803.02Z" fill="#263238" fill-rule="evenodd"/><path d="M2174.15 1861 1608.85 1861C1604.18 1861.35 1600.68 1865.44 1601.02 1870.13 1601.33 1874.34 1604.67 1877.69 1608.85 1878L2174.15 1878C2178.82 1877.65 2182.33 1873.56 2181.98 1868.87 2181.67 1864.66 2178.33 1861.31 2174.15 1861Z" fill="#263238" fill-rule="evenodd"/><path d="M1727.91 1919.03 1608.83 1919.03C1604.17 1919.37 1600.68 1923.45 1601.02 1928.13 1601.33 1932.33 1604.66 1935.66 1608.83 1935.98L1727.91 1935.98C1732.57 1936.33 1736.63 1932.81 1736.98 1928.13 1737.32 1923.45 1733.83 1919.37 1729.17 1919.03 1728.75 1918.99 1728.33 1918.99 1727.91 1919.03Z" fill="#263238" fill-rule="evenodd"/><path d="M1403 1992 1561 1992 1561 2150 1403 2150Z" stroke="#263238" stroke-width="4.09757" stroke-linecap="round" stroke-linejoin="round" stroke-miterlimit="10" fill="#BFBFBF" fill-rule="evenodd"/><path d="M1608.85 2009.98 2096.89 2009.98C2101.56 2010.33 2105.63 2006.81 2105.98 2002.13 2106.33 1997.45 2102.82 1993.37 2098.15 1993.03 2097.73 1992.99 2097.31 1992.99 2096.89 1993.03L1608.85 1993.03C1604.18 1993.37 1600.67 1997.45 1601.02 2002.13 1601.33 2006.33 1604.67 2009.66 1608.85 2009.98Z" fill="#263238" fill-rule="evenodd"/><path d="M2174.15 2051 1608.85 2051C1604.18 2051.35 1600.68 2055.44 1601.02 2060.13 1601.33 2064.34 1604.67 2067.69 1608.85 2068L2174.15 2068C2178.82 2067.65 2182.33 2063.56 2181.98 2058.87 2181.67 2054.66 2178.33 2051.31 2174.15 2051Z" fill="#263238" fill-rule="evenodd"/><path d="M2160.88 2109.02 1608.85 2109.02C1604.18 2109.37 1600.67 2113.45 1601.02 2118.13 1601.33 2122.33 1604.67 2125.66 1608.85 2125.98L2160.88 2125.98C2165.55 2126.33 2169.63 2122.81 2169.98 2118.13 2170.33 2113.45 2166.82 2109.37 2162.15 2109.02 2161.73 2108.99 2161.3 2108.99 2160.88 2109.02Z" fill="#263238" fill-rule="evenodd"/><path d="M2174.15 2167 1608.85 2167C1604.18 2167.35 1600.68 2171.44 1601.02 2176.13 1601.33 2180.34 1604.67 2183.69 1608.85 2184L2174.15 2184C2178.82 2183.65 2182.33 2179.56 2181.98 2174.87 2181.67 2170.66 2178.33 2167.31 2174.15 2167Z" fill="#263238" fill-rule="evenodd"/><path d="M1727.91 2225.02 1608.83 2225.02C1604.17 2225.37 1600.68 2229.45 1601.02 2234.13 1601.33 2238.33 1604.66 2241.66 1608.83 2241.98L1727.91 2241.98C1732.57 2242.33 1736.63 2238.81 1736.98 2234.13 1737.32 2229.45 1733.83 2225.37 1729.17 2225.02 1728.75 2224.99 1728.33 2224.99 1727.91 2225.02Z" fill="#263238" fill-rule="evenodd"/><path d="M2358.28 631 2398 688.942 2361.05 717 2328 667.944" stroke="#263238" stroke-width="4.09757" stroke-linecap="round" stroke-linejoin="round" stroke-miterlimit="10" fill="#FFFFFF" fill-rule="evenodd"/><path d="M2409 691.474 2378.16 650 2333 683.762 2355.36 725 2409 691.474Z" stroke="#263238" stroke-width="4.09757" stroke-linecap="round" stroke-linejoin="round" stroke-miterlimit="10" fill="#ECB390" fill-rule="evenodd"/><path d="M2670 905.224 2668.96 1043C2668.96 1043 2652.26 1034.72 2628.35 1022.29 2585.29 999.836 2518.94 964.016 2485.44 939.303 2478.38 934.549 2472.04 928.812 2466.61 922.264 2444.92 891.244 2338 708.234 2338 708.234L2395.27 667 2498.8 819.791 2524.21 857.448 2526.56 858.248Z" fill="#999999" fill-rule="evenodd"/><path d="M2647 959.574 2628.4 1022C2585.19 999.544 2518.62 963.716 2485 939 2551.01 951.523 2647 959.574 2647 959.574Z" fill="#000000" fill-rule="evenodd" fill-opacity="0.211765"/><path d="M2526 858.203C2506.15 863.608 2500 877 2500 877 2490.81 852.048 2493.61 832.922 2498.89 820L2523.7 857.593Z" fill="#000000" fill-rule="evenodd" fill-opacity="0.211765"/><path d="M2670 905.224 2668.96 1043C2668.96 1043 2652.26 1034.72 2628.35 1022.29 2585.29 999.836 2518.94 964.016 2485.44 939.303 2478.38 934.549 2472.04 928.812 2466.61 922.264 2444.92 891.244 2338 708.234 2338 708.234L2395.27 667 2498.8 819.791 2524.21 857.448 2526.56 858.248Z" stroke="#263238" stroke-width="4.09757" stroke-linecap="round" stroke-linejoin="round" stroke-miterlimit="10" fill="none" fill-rule="evenodd"/><path d="M2360.07 641.8C2361.73 638.453 2362.69 634.8 2362.89 631.067 2363.23 626.064 2362.76 621.04 2361.48 616.191 2360.22 611.219 2358.24 606.461 2355.59 602.068 2353.28 598.082 2351.31 593.909 2349.7 589.593 2348.57 586.674 2347.58 583.755 2346.73 580.978 2344.97 575.228 2343.56 569.38 2342.49 563.465 2342.49 563.465 2333.06 560.311 2332.02 569.444 2331.79 571.958 2331.9 574.492 2332.35 576.976 2333.11 581.213 2334.47 585.591 2335.27 589.122 2335.99 591.133 2336.11 593.302 2335.65 595.383 2335.31 596.159 2334.87 596.887 2334.33 597.549L2333.77 598.302C2332.6 599.702 2331.11 600.801 2329.43 601.503 2328.7 601.813 2327.92 601.989 2327.12 602.021 2326.92 602.071 2326.71 602.071 2326.51 602.021 2325.93 602.088 2325.34 602.088 2324.76 602.021 2321.68 601.362 2318.71 600.251 2315.95 598.725L2315.95 598.725C2311.83 596.575 2307.88 594.121 2304.12 591.382L2304.12 591.382C2302.71 590.299 2301.34 589.263 2300.02 588.181 2296.74 585.519 2293.59 582.691 2290.59 579.707 2288.47 577.588 2286.12 575.281 2283.67 573.116 2281.22 570.951 2278.95 569.021 2276.69 567.279 2270 562.241 2263.87 559.652 2261.75 564.831 2259.63 570.009 2262.18 571.563 2267.55 576.553 2269.43 578.295 2271.7 580.413 2274.29 583.049 2278.77 587.751 2282.88 592.787 2286.59 598.113L2286.59 598.113 2288.05 600.185 2286.07 602.915C2286.4 603.433 2285.22 602.915 2282.96 601.974L2282.96 601.974C2277.07 599.026 2271.39 595.692 2265.95 591.994 2263.49 590.393 2260.9 588.557 2258.36 586.721 2255.81 584.885 2253.64 583.285 2251.57 581.495 2240.68 572.598 2238.14 582.814 2239.93 587.333 2242.83 591.305 2246.5 594.652 2250.72 597.172L2258.31 602.774 2261.85 605.551C2266.56 609.318 2271.27 613.131 2274.43 615.767L2275.75 616.803 2274.62 621.087 2272.59 620.569 2272.59 620.569C2266.7 619.093 2260.96 617.093 2255.44 614.59 2251.71 612.895 2248.84 611.295 2246.57 609.883 2242.33 607.67 2240.02 606.917 2237.15 609.459 2234.27 612.001 2237.15 616.756 2241.86 620.804 2245.63 623.954 2249.86 626.51 2254.4 628.383L2254.4 628.383C2255.22 628.694 2256.05 628.961 2256.9 629.184 2261.15 630.565 2265.21 632.496 2268.96 634.927L2271.27 636.292 2272.07 639.776 2268.3 639.399 2268.3 639.399C2264.33 638.91 2260.4 638.189 2256.52 637.234L2256.52 637.234C2253.42 636.377 2250.27 635.685 2247.09 635.163 2245.1 634.631 2242.98 635.379 2241.77 637.045 2239.93 639.776 2242.8 642.789 2247.19 645.284 2249.86 646.734 2252.67 647.901 2255.58 648.767 2257.71 649.469 2259.93 649.897 2262.18 650.039 2266.36 650.575 2270.48 651.601 2274.43 653.099L2279.14 654.84C2284.99 656.959 2290.36 659.171 2292.2 659.925L2292.9 660.207C2296.77 662.749 2300.16 664.915 2303.18 666.468 2310.24 670.691 2318.17 673.266 2326.37 674 2330.16 673.944 2333.81 672.522 2336.64 669.999" stroke="#263238" stroke-width="4.09757" stroke-linecap="round" stroke-linejoin="round" stroke-miterlimit="10" fill="#FFFFFF" fill-rule="evenodd"/><path d="M2327 602C2327 602 2313.03 617.836 2324.56 633" stroke="#263238" stroke-width="4.09757" stroke-linecap="round" stroke-linejoin="round" stroke-miterlimit="10" fill="none" fill-rule="evenodd"/><path d="M2561 955C2561 955 2577.15 984.816 2619 1011" stroke="#263238" stroke-width="4.09757" stroke-linecap="round" stroke-linejoin="round" stroke-miterlimit="10" fill="none" fill-rule="evenodd"/><path d="M2524 857C2524 857 2491.86 859.48 2501.96 892" stroke="#263238" stroke-width="4.09757" stroke-linecap="round" stroke-linejoin="round" stroke-miterlimit="10" fill="none" fill-rule="evenodd"/><path d="M3082.43 2160C3082.43 2160 2991.82 2237.16 2944.56 2249.66 2897.3 2262.17 2910.78 2297.72 2910.78 2297.72L3021.04 2297.72 3068.16 2287.56 3068.16 2298 3097.42 2298C3097.42 2298 3123.43 2284.69 3116.97 2218.07 3116.73 2213.98 3082.43 2160 3082.43 2160Z" fill="#263238" fill-rule="evenodd"/><path d="M2102.3 2183.45C2102.3 2183.45 2025.82 2237.12 1978.56 2249.64 1931.3 2262.15 1944.78 2297.72 1944.78 2297.72L2055.04 2297.72 2102.16 2287.56 2102.16 2298 2131.42 2298C2131.42 2298 2157.43 2284.69 2150.97 2218.02 2150.59 2213.92 2150.08 2209.64 2149.42 2205.18 2138.34 2127.6 2102.3 2183.45 2102.3 2183.45Z" fill="#263238" fill-rule="evenodd"/><path d="M3016.35 2220.9C3016.35 2220.9 2732.41 1991.15 2716.21 1961.3 2700 1931.46 2667.83 1658.19 2667.83 1658.19L2667.83 1658.19C2663.68 1661.11 2397.54 1850.22 2385.2 1868.56 2384.36 1869.83 2382.61 1872.57 2380.07 1876.62 2344.84 1932.49 2159.01 2234.95 2159.01 2234.95 2127.86 2235.93 2097.87 2223.13 2077 2199.96L2268.43 1787 2548.99 1512.41 2548.99 1512.41 2553.18 1508.26 2579.93 1401.47 2820.64 1372C2820.64 1372 2841.36 1448.43 2852.43 1508.35 2852.92 1512.13 2853.16 1515.95 2853.14 1519.76 2854.36 1586.99 2835.14 1888.69 2845.13 1914.01 2855.87 1941.4 3084.94 2156.54 3084.94 2156.54 3087.39 2205.24 3016.35 2220.9 3016.35 2220.9Z" fill="#757575" fill-rule="evenodd"/><path d="M2668 1658.22 2668 1658.22C2663.86 1661.15 2397.86 1850.56 2385.53 1868.93 2384.68 1870.2 2382.94 1872.94 2380.4 1877 2370.14 1809.05 2561.37 1665.16 2561.37 1665.16L2522.58 1645.04 2598.94 1633.76C2572.48 1621.48 2581.23 1588 2581.23 1588Z" fill="#000000" fill-rule="evenodd" fill-opacity="0.211765"/><path d="M2684 1549.12 2696.66 1568C2621.65 1551.43 2574.74 1528.54 2549 1512.67L2553.2 1508.52 2580.03 1401.5 2821.41 1372C2821.41 1372 2842.19 1448.52 2853.29 1508.52 2853.78 1512.31 2854.02 1516.13 2854 1519.94 2790.09 1544.77 2684 1549.12 2684 1549.12Z" fill="#000000" fill-rule="evenodd" fill-opacity="0.211765"/><path d="M3016.35 2220.9C3016.35 2220.9 2732.41 1991.15 2716.21 1961.3 2700 1931.46 2667.83 1658.19 2667.83 1658.19L2667.83 1658.19C2663.68 1661.11 2397.54 1850.22 2385.2 1868.56 2384.36 1869.83 2382.61 1872.57 2380.07 1876.62 2344.84 1932.49 2159.01 2234.95 2159.01 2234.95 2127.86 2235.93 2097.87 2223.13 2077 2199.96L2268.43 1787 2548.99 1512.41 2548.99 1512.41 2553.18 1508.26 2579.93 1401.47 2820.64 1372C2820.64 1372 2841.36 1448.43 2852.43 1508.35 2852.92 1512.13 2853.16 1515.95 2853.14 1519.76 2854.36 1586.99 2835.14 1888.69 2845.13 1914.01 2855.87 1941.4 3084.94 2156.54 3084.94 2156.54 3087.39 2205.24 3016.35 2220.9 3016.35 2220.9Z" stroke="#263238" stroke-width="4.09757" stroke-linecap="round" stroke-linejoin="round" stroke-miterlimit="10" fill="none" fill-rule="evenodd"/><path d="M2879.03 1162.63C2865.57 1238.48 2811.57 1331.01 2811.57 1331.01L2824.27 1370.65 2858.33 1476.66 2672.95 1532 2639.22 1468.51 2608.13 1527.38 2545 1502.02 2550.17 1475.34 2562.12 1413.59C2561.84 1410.1 2561.61 1406.43 2561.32 1402.66 2553.56 1287.92 2554.36 1052.47 2661.28 903 2661.28 903 2819.99 925.155 2878.09 1103 2883.36 1119.55 2882.93 1140.38 2879.03 1162.63Z" fill="#999999" fill-rule="evenodd"/><path d="M2811.54 1330.53 2824.25 1370.21C2792.63 1399.51 2754.53 1434.94 2750.91 1439.38 2746.21 1445.09 2616.28 1465.09 2550 1475L2561.95 1413.19C2561.67 1409.7 2561.43 1406.02 2561.15 1402.25L2830.08 1179.88 2879 1162C2865.55 1237.91 2811.54 1330.53 2811.54 1330.53Z" fill="#000000" fill-rule="evenodd" fill-opacity="0.211765"/><path d="M2879.03 1162.63C2865.57 1238.48 2811.57 1331.01 2811.57 1331.01L2824.27 1370.65 2858.33 1476.66 2672.95 1532 2639.22 1468.51 2608.13 1527.38 2545 1502.02 2550.17 1475.34 2562.12 1413.59C2561.84 1410.1 2561.61 1406.43 2561.32 1402.66 2553.56 1287.92 2554.36 1052.47 2661.28 903 2661.28 903 2819.99 925.155 2878.09 1103 2883.36 1119.55 2882.93 1140.38 2879.03 1162.63Z" stroke="#263238" stroke-width="4.09757" stroke-linecap="round" stroke-linejoin="round" stroke-miterlimit="10" fill="none" fill-rule="evenodd"/><path d="M2625.95 1206C2625.95 1206 2887.01 994.915 2790.65 961.759 2703.87 931.853 2592.97 999.059 2625.95 1206Z" stroke="#263238" stroke-width="4.09757" stroke-linecap="round" stroke-linejoin="round" stroke-miterlimit="10" fill="#ECB390" fill-rule="evenodd"/><path d="M2719.54 1036.99 2683.91 1052.5C2665.52 1099.12 2653.8 1148.14 2649.12 1198.07L2621.64 1233 2614 1198.07C2614 1198.07 2627.41 1092.34 2672.94 1049.16L2683.96 1007.16 2727 985Z" fill="#263238" fill-rule="evenodd"/><path d="M2628.78 1192.8C2628.78 1192.8 2835.1 1049.2 2787.5 953.001 2787.5 953.001 2843.99 951.543 2820.12 1089.36L2751.2 1109.34 2770.44 1147.66C2770.44 1147.66 2692.83 1163.27 2621.03 1233L2593 1068.95 2613.28 1054.05 2601.37 1028.84C2601.37 1028.84 2672.69 949.897 2740.95 956.527 2740.95 956.527 2659.65 990.146 2638.57 1054.14 2617.48 1118.13 2628.78 1192.8 2628.78 1192.8Z" stroke="#263238" stroke-width="4.09757" stroke-linecap="round" stroke-linejoin="round" stroke-miterlimit="10" fill="#BFBFBF" fill-rule="evenodd"/><path d="M2746.86 947.401C2746.86 947.401 2684.06 966.556 2656 1029.08L2689.77 1016.45 2693.19 1027 2710.1 1034.05 2710.1 1069C2710.1 1069 2806.81 1024.78 2807 988.927 2807.05 978.759 2783.02 930.989 2746.86 947.401Z" stroke="#263238" stroke-width="4.09757" stroke-linecap="round" stroke-linejoin="round" stroke-miterlimit="10" fill="#ECB390" fill-rule="evenodd"/><path d="M2809.02 894.042C2784.39 933.818 2800.7 982.487 2800.7 982.487 2800.7 982.487 2727.13 1037.63 2704.1 1022.31 2704.85 1006.54 2704.48 990.735 2703.02 975.014 2701.86 961.53 2699.86 948.13 2697 934.906 2697 934.906 2704.8 930.176 2716.32 923.886 2753.03 903.123 2827.82 863.772 2809.02 894.042Z" stroke="#263238" stroke-width="4.09757" stroke-linecap="round" stroke-linejoin="round" stroke-miterlimit="10" fill="#FFFFFF" fill-rule="evenodd"/><path d="M2332.24 1552.69C2334.63 1550.79 2336.81 1548.64 2338.72 1546.26 2340.16 1544.53 2341.39 1542.63 2342.36 1540.6 2344.48 1536.93 2347 1533.5 2349.88 1530.39L2353.38 1526.52C2357.59 1521.8 2361.66 1517.78 2363.07 1516.37L2363.59 1515.8C2367.42 1513.15 2370.59 1510.84 2373.05 1508.67 2379.69 1503.73 2385.12 1497.35 2388.94 1490.01 2394.05 1480.56 2379.48 1455.95 2371.59 1446.56 2369.08 1443.76 2366.04 1441.49 2362.65 1439.9 2358.19 1437.66 2353.4 1436.17 2348.46 1435.5 2343.37 1434.77 2338.19 1434.77 2333.09 1435.5 2328.52 1436.14 2323.9 1436.39 2319.29 1436.26 2316.17 1436.26 2313.05 1435.98 2310.16 1435.69 2304.14 1435.13 2298.16 1434.23 2292.24 1433 2289.27 1435.9 2289.2 1440.65 2292.1 1443.62 2292.62 1444.15 2293.21 1444.6 2293.85 1444.95 2296.08 1446.12 2298.47 1446.98 2300.94 1447.5 2305.2 1448.45 2309.78 1448.87 2313.33 1449.44 2315.49 1449.53 2317.57 1450.23 2319.34 1451.47 2319.91 1452.09 2320.42 1452.77 2320.85 1453.5L2320.85 1453.5 2321.32 1454.3C2322.16 1455.93 2322.61 1457.72 2322.65 1459.54 2322.64 1460.33 2322.51 1461.11 2322.27 1461.86 2322.31 1462.06 2322.31 1462.27 2322.27 1462.47 2322.02 1463.01 2321.74 1463.53 2321.42 1464.03 2319.63 1466.64 2317.46 1468.96 2314.98 1470.93L2314.98 1470.93C2311.37 1473.89 2307.52 1476.58 2303.49 1478.96L2303.49 1478.96 2298.77 1481.51C2295.04 1483.58 2291.2 1485.46 2287.28 1487.13 2284.49 1488.31 2281.46 1489.63 2278.53 1491.05 2275.76 1492.31 2273.06 1493.73 2270.44 1495.3 2263.16 1499.6 2258.48 1504.27 2262.45 1508.19 2266.42 1512.11 2268.88 1510.41 2275.6 1507.3 2277.91 1506.21 2280.7 1504.94 2284.15 1503.52 2290.24 1501.17 2296.48 1499.25 2302.83 1497.8L2302.83 1497.8 2305.29 1497.24 2307.09 1500.07C2307.7 1500.07 2307.09 1500.97 2305.05 1502.62L2305.05 1502.62C2300.16 1507.03 2295 1511.13 2289.59 1514.9 2287.13 1516.55 2284.44 1518.3 2281.74 1519.91 2279.05 1521.51 2277.01 1522.88 2274.32 1524.21 2261.93 1530.96 2270.44 1537.2 2275.31 1537.24 2280.15 1536.11 2284.7 1534.01 2288.69 1531.06L2296.83 1526.1 2300.75 1523.92C2305.95 1521.14 2311.34 1518.16 2314.94 1516.13L2316.36 1515.33 2319.95 1517.97 2318.72 1519.67 2318.72 1519.67C2315.12 1524.54 2311.08 1529.08 2306.66 1533.23 2303.64 1536.06 2301.08 1537.95 2299.14 1539.75 2295.5 1542.91 2293.9 1544.75 2295.22 1548.2 2296.54 1551.65 2301.98 1551.08 2307.51 1548.2 2311.86 1545.9 2315.83 1542.96 2319.29 1539.46L2319.29 1539.46C2319.9 1538.82 2320.47 1538.14 2320.99 1537.43 2323.86 1534.01 2327.18 1530.99 2330.87 1528.46L2333.05 1526.85 2336.59 1527.42C2336.03 1528.6 2335.41 1529.73 2334.8 1530.77L2334.8 1530.77C2332.84 1534.26 2330.67 1537.64 2328.32 1540.88L2328.32 1540.88C2326.31 1543.45 2324.45 1546.13 2322.74 1548.91 2321.43 1550.52 2321.34 1552.81 2322.5 1554.53 2324.35 1557.41 2328.32 1555.66 2332.24 1552.69Z" stroke="#263238" stroke-width="4.09757" stroke-linecap="round" stroke-linejoin="round" stroke-miterlimit="10" fill="#FFFFFF" fill-rule="evenodd"/><path d="M2360 1445.76 2426.76 1423 2444 1466.25 2387.67 1485" stroke="#263238" stroke-width="4.09757" stroke-linecap="round" stroke-linejoin="round" stroke-miterlimit="10" fill="#FFFFFF" fill-rule="evenodd"/><path d="M2432 1413 2384 1431.48 2404.48 1484 2450 1473.6 2432 1413Z" stroke="#263238" stroke-width="4.09757" stroke-linecap="round" stroke-linejoin="round" stroke-miterlimit="10" fill="#ECB390" fill-rule="evenodd"/><path d="M2872.66 1109.6C2872.66 1109.6 2840.83 1096.76 2800.13 1119.57 2775.24 1133.68 2651.07 1326.91 2655.65 1318.07L2401 1417.25 2427.08 1490C2427.08 1490 2694.6 1422.42 2716.24 1406.01 2737.89 1389.6 2851.44 1269.63 2877 1169.04" stroke="#263238" stroke-width="4.09757" stroke-linecap="round" stroke-linejoin="round" stroke-miterlimit="10" fill="#999999" fill-rule="evenodd"/><path d="M2599 1601C2599 1601 2675.57 1643.51 2716 1682" stroke="#263238" stroke-width="4.09757" stroke-linecap="round" stroke-linejoin="round" stroke-miterlimit="10" fill="none" fill-rule="evenodd"/><path d="M2812.36 1496C2811.76 1497.04 2809.27 1538.62 2834 1556" stroke="#263238" stroke-width="4.09757" stroke-linecap="round" stroke-linejoin="round" stroke-miterlimit="10" fill="none" fill-rule="evenodd"/><path d="M2834.15 1485C2834.15 1485 2847.82 1493.02 2838.87 1614.91 2829.91 1736.81 2826 1908.56 2826 1908.56 2829.02 1919.22 2834.51 1929.02 2842.03 1937.15 2854.09 1949.6 3048 2139 3048 2139" stroke="#263238" stroke-width="4.09757" stroke-linecap="round" stroke-linejoin="round" stroke-miterlimit="10" fill="none" fill-rule="evenodd"/><path d="M2658 1642C2658 1642 2595.24 1654.12 2545 1646.46" stroke="#263238" stroke-width="4.09757" stroke-linecap="round" stroke-linejoin="round" stroke-miterlimit="10" fill="none" fill-rule="evenodd"/><path d="M2639 1649C2639 1649 2391.66 1853.65 2342 1871" stroke="#263238" stroke-width="4.09757" stroke-linecap="round" stroke-linejoin="round" stroke-miterlimit="10" fill="none" fill-rule="evenodd"/><path d="M2360 1862 2194 2144" stroke="#263238" stroke-width="4.09757" stroke-linecap="round" stroke-linejoin="round" stroke-miterlimit="10" fill="none" fill-rule="evenodd"/><path d="M2656 1500C2656 1500 2645.33 1560.26 2638.67 1570.22 2632.02 1580.17 2647.34 1615 2647.34 1615" stroke="#263238" stroke-width="4.09757" stroke-linecap="round" stroke-linejoin="round" stroke-miterlimit="10" fill="none" fill-rule="evenodd"/><path d="M2639 1500C2639 1500 2631.66 1536.92 2629.31 1545.72 2626.95 1554.53 2639 1558 2639 1558" stroke="#263238" stroke-width="4.09757" stroke-linecap="round" stroke-linejoin="round" stroke-miterlimit="10" fill="none" fill-rule="evenodd"/><path d="M2614 1247C2614 1247 2604.77 1299.18 2607.51 1324" stroke="#263238" stroke-width="4.09757" stroke-linecap="round" stroke-linejoin="round" stroke-miterlimit="10" fill="#BFBFBF" fill-rule="evenodd"/><path d="M2834 1226C2834 1226 2790.18 1258.19 2751 1256.97" stroke="#263238" stroke-width="4.09757" stroke-linecap="round" stroke-linejoin="round" stroke-miterlimit="10" fill="none" fill-rule="evenodd"/><path d="M2656 1318C2656 1318 2673.55 1332.61 2684 1324.6" stroke="#263238" stroke-width="4.09757" stroke-linecap="round" stroke-linejoin="round" stroke-miterlimit="10" fill="none" fill-rule="evenodd"/><path d="M2812 1331C2812 1331 2788 1344.38 2783 1358" stroke="#263238" stroke-width="4.09757" stroke-linecap="round" stroke-linejoin="round" stroke-miterlimit="10" fill="none" fill-rule="evenodd"/><path d="M2770 932.917C2770 932.917 2740.24 964.668 2702.97 975 2701.83 961.549 2699.84 948.184 2697 934.992 2697 934.992 2704.74 930.275 2716.17 924Z" fill="#263238" fill-rule="evenodd"/><path d="M2780.22 939.548C2749.81 956.416 2715.34 962.352 2683.6 947.605 2672.33 942.422 2666.86 874.812 2683.6 815.118 2710.53 718.673 2788.57 715.469 2851.42 772.714 2884.67 803.056 2864.25 863.363 2822.61 906.474" stroke="#263238" stroke-width="4.09757" stroke-linecap="round" stroke-linejoin="round" stroke-miterlimit="10" fill="#FFFFFF" fill-rule="evenodd"/><path d="M2732 821.125C2748.65 819.742 2764.17 829.899 2770 846" stroke="#263238" stroke-width="4.09757" stroke-linecap="round" stroke-linejoin="round" stroke-miterlimit="10" fill="none" fill-rule="evenodd"/><path d="M2704 809C2704 809 2699.99 797.237 2690 797" stroke="#263238" stroke-width="4.09757" stroke-linecap="round" stroke-linejoin="round" stroke-miterlimit="10" fill="none" fill-rule="evenodd"/><path d="M2688.22 877C2688.22 877 2675.88 864.513 2679.75 857.445 2683.62 850.377 2687.54 854.571 2696.74 848.304 2702.37 844.524 2706.1 838.602 2707 832" stroke="#263238" stroke-width="4.09757" stroke-linecap="round" stroke-linejoin="round" stroke-miterlimit="10" fill="#FFFFFF" fill-rule="evenodd"/><path d="M2744.23 856.279C2742.98 859.502 2740.51 861.552 2738.72 860.869 2736.93 860.185 2736.45 856.963 2737.7 853.692 2738.96 850.42 2741.43 848.419 2743.22 849.151 2745.01 849.883 2745.64 853.057 2744.23 856.279Z" fill="#263238" fill-rule="evenodd"/><path d="M2699.38 834.656C2698.27 837.656 2696.09 839.536 2694.52 838.865 2692.94 838.193 2692.51 835.283 2693.62 832.328 2694.73 829.374 2696.91 827.494 2698.48 828.121 2700.06 828.747 2700.49 831.926 2699.38 834.656Z" fill="#263238" fill-rule="evenodd"/><path d="M2684 892C2684 892 2708.64 903.426 2727 903.662 2727 903.662 2717.63 923.68 2701.61 921.886 2685.59 920.092 2689.11 897.949 2689.11 897.949" stroke="#263238" stroke-width="4.09757" stroke-linecap="round" stroke-linejoin="round" stroke-miterlimit="10" fill="none" fill-rule="evenodd"/><path d="M2798.6 789.161C2798.6 789.161 2772.09 767.814 2714 758.012 2714 758.012 2714.28 722.386 2727.4 709.521 2740.51 696.656 2751.27 723.187 2751.27 723.187 2751.27 723.187 2784.17 714.045 2842.59 754.242 2901.02 794.439 2873 887.463 2799.17 927L2798.74 911.261C2798.74 911.261 2799.49 878.651 2787.37 872.571 2787.37 872.571 2796.44 849.009 2786.62 831.621 2776.79 814.231 2798.6 789.161 2798.6 789.161Z" fill="#263238" fill-rule="evenodd"/><path d="M2787 883.811C2787 883.811 2808.2 857.777 2825.6 866.963 2842.99 876.148 2804.4 932.023 2787 921.743" stroke="#263238" stroke-width="4.09757" stroke-linecap="round" stroke-linejoin="round" stroke-miterlimit="10" fill="#FFFFFF" fill-rule="evenodd"/><path d="M3219 402.5C3219 382.894 3235.12 367 3255 367 3274.88 367 3291 382.894 3291 402.5 3291 422.106 3274.88 438 3255 438 3235.12 438 3219 422.106 3219 402.5Z" fill="#FFFFFF" fill-rule="evenodd"/><path d="M2852 378.5C2852 367.73 2860.95 359 2872 359 2883.05 359 2892 367.73 2892 378.5 2892 389.27 2883.05 398 2872 398 2860.95 398 2852 389.27 2852 378.5Z" fill="#FFFFFF" fill-rule="evenodd"/><path d="M3081 539C3081 531.268 3087.27 525 3095 525 3102.73 525 3109 531.268 3109 539 3109 546.732 3102.73 553 3095 553 3087.27 553 3081 546.732 3081 539Z" fill="#595959" fill-rule="evenodd"/><path d="M1191 2079.5C1191 2074.81 1194.58 2071 1199 2071 1203.42 2071 1207 2074.81 1207 2079.5 1207 2084.19 1203.42 2088 1199 2088 1194.58 2088 1191 2084.19 1191 2079.5Z" fill="#595959" fill-rule="evenodd"/><path d="M3171 988C3171 973.088 3183.09 961 3198 961 3212.91 961 3225 973.088 3225 988 3225 1002.91 3212.91 1015 3198 1015 3183.09 1015 3171 1002.91 3171 988Z" fill="#FFFFFF" fill-rule="evenodd"/><path d="M3277 1406.5C3277 1387.45 3292.22 1372 3311 1372 3329.78 1372 3345 1387.45 3345 1406.5 3345 1425.55 3329.78 1441 3311 1441 3292.22 1441 3277 1425.55 3277 1406.5Z" fill="#404040" fill-rule="evenodd" fill-opacity="0.768627"/><path d="M3268 2051C3268 2040.51 3276.28 2032 3286.5 2032 3296.72 2032 3305 2040.51 3305 2051 3305 2061.49 3296.72 2070 3286.5 2070 3276.28 2070 3268 2061.49 3268 2051Z" fill="#FFFFFF" fill-rule="evenodd"/><path d="M1452 557C1452 552.582 1455.58 549 1460 549 1464.42 549 1468 552.582 1468 557 1468 561.418 1464.42 565 1460 565 1455.58 565 1452 561.418 1452 557Z" fill="#002060" fill-rule="evenodd"/><path d="M1193 629C1193 614.088 1204.86 602 1219.5 602 1234.14 602 1246 614.088 1246 629 1246 643.912 1234.14 656 1219.5 656 1204.86 656 1193 643.912 1193 629Z" fill="#404040" fill-rule="evenodd"/></g></svg>