<svg xmlns="http://www.w3.org/2000/svg" width="130" height="45" viewBox="0 0 70.06 35"><path d="M51.48 35a12.14 12.14 0 0 0 8.62-3.06 7.94 7.94 0 0 0 2.34-5.72 7.4 7.4 0 0 0-2.18-5.34 11.34 11.34 0 0 0-6-2.95l-4.2-.81c-1.74-.33-2.73-1.19-2.73-2.4 0-1.57 1.52-2.66 4-2.66A5.22 5.22 0 0 1 55 13.41a4.13 4.13 0 0 1 1 2.24l6-1.36a7.31 7.31 0 0 0-2.23-4.53 12.06 12.06 0 0 0-8.62-3.21 11.79 11.79 0 0 0-8 2.83 8 8 0 0 0-2.56 5.89 6.82 6.82 0 0 0 2 5 11.87 11.87 0 0 0 5.72 2.89l4.15 1c2.07.49 3 1.26 3 2.61 0 1.69-1.52 2.68-4 2.68a5.63 5.63 0 0 1-4.2-1.58 3.77 3.77 0 0 1-1.09-2.52L40 26.7a7.73 7.73 0 0 0 2.35 4.8 12.57 12.57 0 0 0 9.13 3.5m46 0a13 13 0 0 0 9.27-3.54A12 12 0 0 0 110 26l-6.38-2.13a6 6 0 0 1-1.62 2.78 6.22 6.22 0 0 1-4.47 1.69 6.86 6.86 0 0 1-4.86-2 7.94 7.94 0 0 1-2-5.62 7.83 7.83 0 0 1 2-5.61 6.66 6.66 0 0 1 4.8-1.9 5.78 5.78 0 0 1 4.3 1.63 7.2 7.2 0 0 1 1.64 2.9l6.48-2.19a12.17 12.17 0 0 0-3-5.39 13.3 13.3 0 0 0-9.55-3.65 13.84 13.84 0 0 0-9.87 4 14.49 14.49 0 0 0-4 10.25A14.34 14.34 0 0 0 87.52 31a14 14 0 0 0 10 4m-22 0a9.16 9.16 0 0 0 5.72-1.64v-5.89a6.26 6.26 0 0 1-3.66 1.1 3.81 3.81 0 0 1-2.72-.88A3.78 3.78 0 0 1 74 25V0h-7.19v7.36H81.2v7H66.8v12.35a8.25 8.25 0 0 0 2.13 5.94A8.89 8.89 0 0 0 75.48 35" transform="translate(-39.97)" style="fill:#353535"/></svg>
