<svg xmlns="http://www.w3.org/2000/svg" xml:space="preserve" width="182" height="46" overflow="hidden" style="height:100%;width:auto;margin-top:15px"><defs><linearGradient id="b" x1="3862.48" x2="3862.48" y1="893.999" y2="848.999" gradientUnits="userSpaceOnUse" spreadMethod="reflect"><stop offset="0" stop-color="#fc3f04"></stop><stop offset=".15" stop-color="#fc3f04"></stop><stop offset="1" stop-color="#ffc000"></stop></linearGradient><linearGradient id="c" x1="3756.13" x2="3777.87" y1="908.187" y2="836.813" gradientUnits="userSpaceOnUse" spreadMethod="reflect"><stop offset="0" stop-color="#fc3f04"></stop><stop offset=".15" stop-color="#fc3f04"></stop><stop offset="1" stop-color="#ffc000"></stop></linearGradient><clipPath id="a"><path d="M3703 848h182v46h-182z"></path></clipPath></defs><g fill-rule="evenodd" clip-path="url(#a)" transform="translate(-3703 -848)"><path fill="#ffd966" d="M3859.12 881.417c1.58 0 2.86 1.249 2.86 2.791s-1.28 2.791-2.86 2.791-2.86-1.25-2.86-2.791c0-1.542 1.28-2.791 2.86-2.791m-8.45-13.085c3.13 0 5.68 2.482 5.68 5.544s-2.55 5.544-5.68 5.544c-3.14 0-5.69-2.482-5.69-5.544s2.55-5.544 5.69-5.544m8.11-10.333c1.49 0 2.69 1.172 2.69 2.618 0 1.447-1.2 2.619-2.69 2.619-1.48 0-2.68-1.172-2.68-2.619 0-1.446 1.2-2.618 2.68-2.618"></path><path fill="url(#b)" d="M3862.51 848.999c4.67 0 9 1.416 12.59 3.842l1.65 1.23-17.72 3.469a2.64 2.64 0 0 0-2.09 3.102 2.647 2.647 0 0 0 3.11 2.085l20.92-4.096.22.288a23 23 0 0 1 1.63 2.825l.08.217-.68.064-32.53 6.407a5.454 5.454 0 0 0-4.3 6.404 5.455 5.455 0 0 0 6.41 4.295l32.53-6.408.65-.198-.06 1.274c-.07.709-.18 1.409-.31 2.097l-.17.682-25.41 5.159a2.776 2.776 0 0 0-2.17 3.263 2.776 2.776 0 0 0 3.27 2.16l21.82-4.43-1.55 2.446c-4.12 5.364-10.6 8.823-17.89 8.823-12.44 0-22.53-10.074-22.53-22.5s10.09-22.5 22.53-22.5"></path><path d="M3733.49 889.165q.585 0 .99.422c.27.282.41.623.41 1.024 0 .388-.14.716-.41.985q-.405.404-.99.404c-.41 0-.75-.135-1.03-.404a1.29 1.29 0 0 1-.43-.985c0-.401.14-.742.43-1.024.28-.281.62-.422 1.03-.422m-3.75 0c.39 0 .72.141 1 .422.27.282.4.623.4 1.024 0 .388-.13.716-.4.985-.28.269-.61.404-1 .404-.4 0-.74-.135-1.03-.404a1.31 1.31 0 0 1-.42-.985q0-.601.42-1.024c.29-.281.63-.422 1.03-.422m43.38-.019q.585 0 .99.423c.28.281.41.622.41 1.023 0 .388-.13.716-.41.986q-.405.403-.99.403c-.4 0-.75-.134-1.03-.403q-.42-.404-.42-.986 0-.601.42-1.023c.28-.282.63-.423 1.03-.423m-23.68 0q.585 0 .99.423c.27.281.41.622.41 1.023 0 .388-.14.716-.41.986q-.405.403-.99.403c-.4 0-.75-.134-1.03-.403-.29-.27-.43-.598-.43-.986 0-.401.14-.742.43-1.023.28-.282.63-.423 1.03-.423m42.2-7.04a.56.56 0 0 0-.39.15c-.11.1-.19.228-.26.385q-.105.234-.15.507c-.04.181-.05.353-.05.516q0 .226.03.544c.02.213.06.417.14.611.07.194.19.356.34.488.15.131.36.197.64.197q.405 0 .6-.366c.13-.244.2-.567.2-.967q0-.92-.33-1.493c-.23-.381-.48-.572-.77-.572m-25.89-.263q-.72.15-1.32.375a4.4 4.4 0 0 0-1.04.535q-.435.31-.69.723c-.17.276-.26.582-.28.92q0 .545.33.826c.21.188.56.282 1.04.282h2.23c-.02-.601-.04-1.208-.07-1.821-.03-.614-.1-1.227-.2-1.84m-23.68 0q-.72.15-1.32.375a4.4 4.4 0 0 0-1.04.535q-.435.31-.69.723c-.17.276-.27.582-.28.92 0 .363.11.639.32.826.22.188.56.282 1.04.282h2.23q-.015-.902-.06-1.821c-.03-.614-.1-1.227-.2-1.84m51.54-.639c.34.263.59.636.77 1.118q.27.722.27 1.624c0 .3-.04.588-.13.863q-.12.413-.18.695h2.39c-.03-.601-.09-1.148-.17-1.643a3.9 3.9 0 0 0-.47-1.295c-.22-.37-.53-.67-.92-.902q-.6-.346-1.56-.46m21.82-1.858q.39 2.103.51 4.102c.09 1.333.14 2.519.14 3.558 0 .088-.01.269-.02.544q-.015.414-.15.949t-.45 1.126c-.21.394-.5.757-.9 1.089q-.585.498-1.5.817t-2.28.319l-.43-1.352c.64-.05 1.21-.2 1.72-.451q.315-.168.63-.413c.21-.162.4-.359.56-.591s.3-.507.4-.826q.15-.479.15-1.098 0-1.709-.09-3.502a15.8 15.8 0 0 0-.56-3.539Zm-57.26 0q.39 2.103.51 4.102c.09 1.333.14 2.519.14 3.558 0 .088-.01.269-.02.544q-.03.414-.15.949-.135.534-.45 1.126t-.9 1.089-1.5.817q-.915.318-2.28.319l-.43-1.352c.64-.05 1.21-.2 1.72-.451q.315-.168.63-.413c.21-.162.39-.359.56-.591.16-.232.29-.507.4-.826q.15-.479.15-1.098 0-1.709-.09-3.502a15.8 15.8 0 0 0-.56-3.539Zm17.86-.019.02 8.223h-7.76c-.02.213-.05.47-.12.77-.06.301-.16.607-.31.92-.14.313-.34.626-.59.939-.24.313-.56.594-.95.845q-.585.375-1.41.601c-.55.15-1.2.225-1.96.225l-.43-1.352a4.6 4.6 0 0 0 1.62-.394c.42-.188.81-.479 1.19-.873q.555-.592.69-1.681h-2.37c-1.28 0-2.2-.269-2.74-.807q-.81-.807-.81-2.403c0-.513.15-1.02.46-1.521s.78-.964 1.42-1.389q.96-.639 2.4-1.108c.97-.313 2.1-.532 3.41-.657.16.826.27 1.727.34 2.704.08.976.13 2.021.16 3.135h5.34v-5.501Zm-23.68 0 .02 8.223h-7.77c-.01.213-.05.47-.11.77s-.17.607-.31.92c-.15.313-.34.626-.59.939-.24.313-.56.594-.95.845q-.585.375-1.41.601c-.55.15-1.2.225-1.96.225l-.43-1.352a4.6 4.6 0 0 0 1.62-.394c.42-.188.81-.479 1.18-.873q.57-.592.69-1.681h-2.36c-1.29 0-2.2-.269-2.74-.807q-.81-.807-.81-2.403c0-.513.15-1.02.46-1.521s.78-.964 1.42-1.389q.945-.639 2.4-1.108c.96-.313 2.1-.532 3.41-.657.15.826.27 1.727.34 2.704q.12 1.464.15 3.135h5.35v-5.501Zm-26.87 0v6.177h6.8v-5.501l2.4-.676.02 8.223h-27.27a7.7 7.7 0 0 1-1.47-.131 3.7 3.7 0 0 1-1.19-.432 2.2 2.2 0 0 1-.8-.788c-.19-.326-.28-.72-.28-1.183 0-.701.06-1.305.2-1.812.13-.507.29-.942.47-1.305s.37-.679.58-.948q.3-.404.51-.76h1.83c-.23.363-.44.744-.64 1.145-.2.4-.37.798-.5 1.192-.14.394-.22.77-.25 1.127-.03.356.01.672.13.948q.18.413.63.657c.29.163.71.244 1.24.244h8.09v-5.445l2.27-.713v6.158h4.83v-5.501Zm95.49-.526c.87.213 1.63.585 2.29 1.117.65.532 1.2 1.127 1.62 1.784.43.657.75 1.327.97 2.009.21.682.32 1.28.32 1.793v2.046h-6.83c-.22 0-.43-.012-.62-.037a4 4 0 0 1-.49-.094c-.17-.05-.32-.1-.46-.15l.17-2.047c.14.05.29.1.46.15.14.038.3.069.49.094s.4.038.62.038h4.28q0-.357-.12-.948a4.3 4.3 0 0 0-.45-1.249 5.3 5.3 0 0 0-1-1.305c-.44-.431-1.04-.81-1.78-1.135Zm-96.8-3.342q.585 0 .99.423c.28.281.41.623.41 1.023 0 .388-.13.717-.41.986q-.405.403-.99.403c-.4 0-.74-.134-1.03-.403a1.32 1.32 0 0 1-.42-.986q0-.6.42-1.023c.29-.282.63-.423 1.03-.423m-10.78 0q.585 0 .99.423c.27.281.41.623.41 1.023 0 .388-.14.717-.41.986q-.405.403-.99.403c-.4 0-.75-.134-1.03-.403a1.33 1.33 0 0 1-.43-.986c0-.4.15-.742.43-1.023.28-.282.63-.423 1.03-.423m-3.74 0q.585 0 .99.423c.27.281.4.623.4 1.023 0 .388-.13.717-.4.986q-.405.403-.99.403c-.41 0-.75-.134-1.04-.403a1.32 1.32 0 0 1-.42-.986q0-.6.42-1.023c.29-.282.63-.423 1.04-.423m120.81-.638v12.729h-2.4v-12.053Zm-20.2-.075-.61 2.497-4.76 1.446c.53.363 1.03.788 1.52 1.276s.92.989 1.3 1.502q.6.845 1.02 1.718c.27.582.41 1.167.41 1.756v2.609h-25.73v-12.053l2.4-.676v10.683h3.65a1.01 1.01 0 0 1-.43-.742 9 9 0 0 1-.06-1.079c0-.288.05-.595.14-.92.1-.326.23-.635.41-.93.18-.294.39-.544.64-.751.24-.206.52-.334.82-.384q-.57 0-.96-.141a1.6 1.6 0 0 1-.64-.413q-.255-.273-.39-.657a5 5 0 0 1-.21-.873q1.44.431 4.83.732 1.53.187 2.58.601c.7.275 1.26.654 1.7 1.135.43.482.75 1.077.94 1.784q.3 1.06.3 2.563v.075h7.76v-.563q0-.544-.3-1.174-.3-.628-.84-1.23c-.36-.4-.79-.785-1.3-1.154a8.6 8.6 0 0 0-1.66-.948l.15-3.23Zm17.1-14.743q-.18 0-.66.432a4.4 4.4 0 0 0-.6.779c-.2.331-.38.629-.52.892q.795.6 1.65 1.023.855.421 1.65.648c-.16-1.127-.35-2.037-.6-2.732s-.55-1.042-.92-1.042m-19.96-.357q-2.22 0-5.01 3.398h7.26v-1.013c0-.714-.2-1.29-.59-1.728s-.94-.657-1.66-.657m-98.58-.338q-.795.15-1.44.376-.66.225-1.11.488c-.3.175-.54.363-.71.563q-.255.3-.27.601v.601c0 .363.11.638.32.826s.56.281 1.04.281h2.17Zm110.32-2.441v6.177h3.93c.38-.863.77-1.649 1.19-2.356s.83-1.308 1.24-1.802c.41-.495.81-.88 1.19-1.155.39-.275.74-.413 1.07-.413.83 0 1.52.588 2.08 1.765.16.35.33.792.49 1.323.17.532.34 1.174.53 1.925.11.513.16.889.13 1.126-.02.326-.17.739-.43 1.24q-.765 1.539-1.44 1.539c-.16 0-.34-.044-.53-.131-.38-.151-.89-.382-1.54-.695s-1.43-.701-2.35-1.164c-.22.375-.46.619-.74.732-.22.075-.57.113-1.06.113h-113.3a1.1 1.1 0 0 1-.35-.338 5 5 0 0 1-.24-.413 3.5 3.5 0 0 1-.15-.47c-.06.238-.19.445-.38.62-.16.15-.4.288-.71.413-.3.125-.72.188-1.25.188q-1.935 0-2.73-.911c-.53-.607-.79-1.442-.79-2.506 0-.526.15-1.039.46-1.54.31-.5.79-.951 1.45-1.352q.99-.6 2.52-1.032c1.03-.288 2.26-.482 3.68-.582v5.876h89.01v-4.581l2.4-.676.02 2.76c1.12-1.064 2.17-1.858 3.13-2.384s1.94-.789 2.92-.789q1.14 0 1.83.573c.46.382.82.857 1.07 1.427.26.569.44 1.183.52 1.84.09.657.14 1.267.16 1.83h4.57v-5.501Zm-1.3-3.867q.585 0 .99.422c.27.282.41.623.41 1.023 0 .388-.14.717-.41.986q-.405.404-.99.404c-.4 0-.75-.135-1.03-.404a1.3 1.3 0 0 1-.43-.986c0-.4.14-.741.43-1.023a1.4 1.4 0 0 1 1.03-.422m-108.07 0q.585 0 .99.422c.27.282.41.623.41 1.023 0 .388-.14.717-.41.986q-.405.404-.99.404c-.4 0-.75-.135-1.03-.404a1.33 1.33 0 0 1-.43-.986c0-.4.15-.741.43-1.023a1.4 1.4 0 0 1 1.03-.422m-3.74 0q.585 0 .99.422c.27.282.4.623.4 1.023 0 .388-.13.717-.4.986q-.405.404-.99.404c-.41 0-.75-.135-1.04-.404a1.32 1.32 0 0 1-.42-.986q0-.6.42-1.023c.29-.281.63-.422 1.04-.422"></path></g></svg>