<svg id="Layer_1" enable-background="new 0 0 512.001 512.001" height="512" viewBox="0 0 512.001 512.001" width="512" xmlns="http://www.w3.org/2000/svg"><g><g><path d="m346.322 256.297c-11.002-11.001-27.135-10.234-39.234 1.865-18.219 18.219-29.348 25.729-38.413 25.923-8.863.185-19.531-6.763-36.763-23.996-17.233-17.232-24.185-27.884-23.996-36.764.193-9.065 7.703-20.194 25.921-38.412 5.922-5.921 9.236-12.797 9.584-19.883.352-7.15-2.389-14.023-7.717-19.351l-42.129-42.131c-1.537-1.558-9.133-8.522-20.986-7.434-11.908 1.105-23.181 9.903-33.506 26.149-18.695 29.413-42.997 89.341 4.296 160.224 3.065 4.595 9.274 5.834 13.869 2.769 4.594-3.065 5.833-9.274 2.768-13.868-31.146-46.682-26.593-87.692-15.555-115.805l48.489 48.489c-3.138 6.216-4.892 12.394-5.029 18.827-.373 17.516 11.145 32.627 29.849 51.332s33.822 30.218 51.331 29.849c6.433-.137 12.611-1.891 18.827-5.029l48.49 48.489c-28.114 11.039-69.126 15.592-115.81-15.558-4.594-3.064-10.804-1.825-13.869 2.768-3.065 4.595-1.826 10.804 2.768 13.869 30.48 20.338 58.929 27.437 83.803 27.436 32.973-.001 59.66-12.479 76.426-23.137 16.246-10.325 25.044-21.599 26.149-33.506 1.101-11.862-5.888-19.464-7.437-20.99zm-192.568-119.705c.742-1.252 1.48-2.453 2.208-3.599 9.13-14.364 15.795-16.63 18.238-16.937 2.705-.345 4.558 1.042 5.055 1.466.056.067-.024-.034.153.144l42.154 42.155c1.994 1.993 1.911 3.675 1.884 4.228-.099 2.016-1.431 4.402-3.75 6.722-5.789 5.789-10.919 11.229-15.286 16.477zm222.19 181.21c-.307 2.442-2.573 9.107-16.937 18.237-1.146.728-2.347 1.466-3.599 2.208l-50.656-50.656c5.248-4.367 10.689-9.497 16.478-15.286 4.251-4.252 7.937-4.877 10.95-1.865l42.154 42.154c.177.177.076.097.144.153.424.496 1.807 2.351 1.466 5.055z"/><path d="m442.684 69.316c-44.7-44.699-103.895-69.316-166.684-69.316h-40c-62.788 0-121.984 24.617-166.683 69.316-44.7 44.7-69.317 103.896-69.317 166.684 0 44.194 12.434 87.362 35.956 124.839 20.863 33.239 49.573 60.771 83.478 80.162-7.533 10.022-16.504 18.526-19.718 21.236-9.088 7.657-12.197 20.786-7.559 31.927 3.701 8.889 13.281 17.837 29.364 17.837 1.316 0 2.68-.06 4.084-.185 23.806-2.12 75.14-22.852 95.607-40.288 4.97.314 9.927.472 14.788.472h40c62.788 0 121.984-24.617 166.684-69.316s69.316-103.896 69.316-166.684-24.617-121.984-69.316-166.684zm-166.684 382.684h-40c-5.768 0-11.688-.244-17.595-.726-3.006-.247-5.956.877-8.038 3.054-12.551 13.118-64.31 35.588-86.535 37.566-6.721.6-11.528-1.377-13.21-5.417-1.32-3.172-.505-6.85 1.985-8.948.185-.156 18.6-15.799 29.877-35.034 1.392-2.375 1.744-5.219.972-7.861-.772-2.643-2.599-4.85-5.05-6.102-73.035-37.303-118.406-111.078-118.406-192.532 0-119.103 96.897-216 216-216h40c119.103 0 216 96.897 216 216s-96.896 216-216 216z"/><path d="m180.409 301.592h-.007c-5.523 0-9.996 4.478-9.996 10s4.48 10 10.003 10 10-4.478 10-10-4.477-10-10-10z"/></g></g></svg>