<svg xmlns="http://www.w3.org/2000/svg" viewBox="0 0 512 512">
  <path d="M346.3 256.3c-11-11-27.1-10.2-39.2 1.9-18.2 18.2-29.4 25.7-38.4 25.9-8.9.2-19.6-6.8-36.8-24-17.2-17.2-24.2-27.9-24-36.8.2-9 7.7-20.2 26-38.4 5.9-6 9.2-12.8 9.5-19.9.4-7.1-2.4-14-7.7-19.3l-42.1-42.2a26.7 26.7 0 0 0-21-7.4c-12 1.1-23.2 10-33.5 26.2-18.7 29.4-43 89.3 4.3 160.2a10 10 0 1 0 16.6-11.1c-31.1-46.7-26.6-87.7-15.5-115.8l48.4 48.5a43.4 43.4 0 0 0-5 18.8c-.4 17.5 11.2 32.6 29.9 51.3s33.8 30.2 51.3 29.9c6.4-.2 12.6-2 18.8-5l48.5 48.4c-28.1 11-69.1 15.6-115.8-15.5a10 10 0 0 0-11 16.6 148.4 148.4 0 0 0 83.7 27.5c33 0 59.7-12.5 76.4-23.2 16.3-10.3 25-21.6 26.2-33.5a26.6 26.6 0 0 0-7.5-21zM153.8 136.6c.7-1.3 1.4-2.5 2.2-3.6 9-14.4 15.8-16.6 18.2-17a6.6 6.6 0 0 1 5 1.5l.2.2 42.2 42.1c2 2 1.9 3.7 1.8 4.2 0 2-1.4 4.5-3.7 6.8-5.8 5.8-11 11.2-15.3 16.4zm222.1 181.2c-.3 2.4-2.5 9.1-16.9 18.2-1.1.8-2.3 1.5-3.6 2.2l-50.6-50.6c5.2-4.4 10.6-9.5 16.4-15.3 4.3-4.2 8-4.9 11-1.9l42.1 42.2.2.1c.4.5 1.8 2.4 1.4 5.1z"/>
  <path d="M442.7 69.3A234.3 234.3 0 0 0 276 0h-40C173.2 0 114 24.6 69.3 69.3A234.3 234.3 0 0 0 36 360.8a238.3 238.3 0 0 0 83.4 80.2c-7.5 10-16.5 18.5-19.7 21.2a28 28 0 0 0-7.5 32c3.7 8.9 13.2 17.8 29.3 17.8 1.3 0 2.7 0 4.1-.2 23.8-2.1 75.1-22.8 95.6-40.3 5 .3 10 .5 14.8.5h40c62.8 0 122-24.6 166.7-69.3S512 298.7 512 236s-24.6-122-69.3-166.7zM276 452h-40c-5.8 0-11.7-.2-17.6-.7-3-.3-6 .9-8 3-12.6 13.1-64.3 35.6-86.6 37.6-6.7.6-11.5-1.4-13.2-5.4a7.8 7.8 0 0 1 2-9c.2-.1 18.6-15.8 29.9-35a10 10 0 0 0-4-14A215.5 215.5 0 0 1 20 236c0-119.1 96.9-216 216-216h40c119.1 0 216 96.9 216 216s-96.9 216-216 216z"/>
  <path d="M180.4 301.6a10 10 0 1 0 0 20 10 10 0 0 0 0-20z"/>
</svg>
