<svg id="Layer_1" data-name="Layer 1" xmlns="http://www.w3.org/2000/svg" viewBox="0 0 150 35"><path d="M108,11.5a1.23,1.23,0,0,1-1.21-1.22A1.27,1.27,0,0,1,108,9.06a1.2,1.2,0,0,1,1.2,1.22A1.22,1.22,0,0,1,108,11.5Z" style="fill:#353535"/><path d="M98.94,12a.93.93,0,0,1-.38-1.27h0a.93.93,0,0,1,1.26-.38h0a1,1,0,0,1,.39,1.28h0a1.06,1.06,0,0,1-.16.21h0A.94.94,0,0,1,98.94,12Z" style="fill:#353535"/><path d="M103.08,11.2a1.17,1.17,0,0,1-.21-1.62h0a1.15,1.15,0,0,1,1.61-.19h0A1.15,1.15,0,0,1,104.7,11h0l-.09.11h0A1.16,1.16,0,0,1,103.08,11.2Z" style="fill:#353535"/><path d="M95,13.17a.62.62,0,0,1-.19-.46.65.65,0,0,1,1.11-.46.66.66,0,0,1,.19.46A.65.65,0,0,1,95,13.17Z" style="fill:#353535"/><path d="M65.66,11.23a1.21,1.21,0,0,0-.85-2.07,1.27,1.27,0,0,0-1.22,1.22,1.22,1.22,0,0,0,1.22,1.21A1.14,1.14,0,0,0,65.66,11.23Z" style="fill:#353535"/><path d="M74.11,11.92h0a.83.83,0,0,1-.21.16h0a.94.94,0,0,1-1.28-.38h0A.94.94,0,0,1,73,10.43h0a1,1,0,0,1,1.28.39A.94.94,0,0,1,74.11,11.92Z" style="fill:#353535"/><path d="M70,11.21h0l-.1.09h0a1.16,1.16,0,0,1-1.63-.21h0a1.16,1.16,0,0,1,.2-1.61h0A1.16,1.16,0,0,1,70,11.21Z" style="fill:#353535"/><path d="M95.81,8.87a1,1,0,0,1-.48-1.24h0a1,1,0,0,1,1.23-.49h0a1,1,0,0,1,.49,1.24h0a.75.75,0,0,1-.2.29h0A.94.94,0,0,1,95.81,8.87Z" style="fill:#353535"/><path d="M106.61,2.62a1.54,1.54,0,0,1-.46-1.09A1.59,1.59,0,0,1,107.68,0a1.53,1.53,0,1,1-1.07,2.62Z" style="fill:#353535"/><path d="M88.79,6.81h0a.77.77,0,0,1,.93-.58h0a.78.78,0,0,1,.58.93h0a.74.74,0,0,1-.2.37h0A.78.78,0,0,1,88.79,6.81Z" style="fill:#353535"/><path d="M92.58,5.88A.91.91,0,0,1,92,4.71h0a.94.94,0,0,1,1.18-.55h0a.92.92,0,0,1,.55,1.17h0a.93.93,0,0,1-.21.33h0A.91.91,0,0,1,92.58,5.88Z" style="fill:#353535"/><path d="M95.9,4.68a1.18,1.18,0,0,1-.53-1.59h0A1.2,1.2,0,0,1,97,2.56h0a1.19,1.19,0,0,1,.52,1.6h0a1.16,1.16,0,0,1-.22.31h0A1.18,1.18,0,0,1,95.9,4.68Z" style="fill:#353535"/><path d="M99.36,3.81A1.39,1.39,0,0,1,99,1.88h0a1.39,1.39,0,0,1,1.93-.39h0a1.41,1.41,0,0,1,.39,1.94h0a.87.87,0,0,1-.17.21h0A1.36,1.36,0,0,1,99.36,3.81Z" style="fill:#353535"/><path d="M103,3a1.4,1.4,0,0,1-.15-2h0a1.39,1.39,0,0,1,2-.16h0a1.4,1.4,0,0,1,.15,2h0l-.07.08h0A1.41,1.41,0,0,1,103,3Z" style="fill:#353535"/><path d="M107.88,7.42a1.35,1.35,0,0,1-1.35-1.34,1.4,1.4,0,0,1,1.36-1.36,1.34,1.34,0,0,1,1.33,1.36A1.31,1.31,0,0,1,107.88,7.42Z" style="fill:#353535"/><path d="M88.67,11.73h0a.7.7,0,0,1,.8-.61h0a.72.72,0,0,1,.62.8h0a.69.69,0,0,1-.2.41h0A.72.72,0,0,1,88.67,11.73Z" style="fill:#353535"/><path d="M91.82,9.45h0a.86.86,0,0,1,1.07-.59h0a.86.86,0,0,1,.59,1.06h0a.87.87,0,0,1-.22.37h0A.86.86,0,0,1,91.82,9.45Z" style="fill:#353535"/><path d="M99.33,7.8A1.14,1.14,0,0,1,99,6.24h0a1.13,1.13,0,0,1,1.54-.37h0a1.12,1.12,0,0,1,.37,1.55h0a.83.83,0,0,1-.16.21h0A1.12,1.12,0,0,1,99.33,7.8Z" style="fill:#353535"/><path d="M103,7.13a1.23,1.23,0,0,1-.18-1.72h0a1.21,1.21,0,0,1,1.71-.16h0a1.19,1.19,0,0,1,.18,1.7h0l-.08.08h0A1.22,1.22,0,0,1,103,7.13Z" style="fill:#353535"/><path d="M66.21.46A1.5,1.5,0,0,0,65.12,0a1.59,1.59,0,0,0-1.53,1.53,1.52,1.52,0,0,0,1.54,1.54C66,3.07,67.16,1.41,66.21.46Z" style="fill:#353535"/><path d="M83.83,7.64h0a.78.78,0,0,1-.37.2h0a.79.79,0,0,1-.94-.57h0a.79.79,0,0,1,.59-.94h0A.78.78,0,0,1,83.83,7.64Z" style="fill:#353535"/><path d="M80.58,5.78h0a.93.93,0,0,1-.33.21h0a.92.92,0,0,1-1.17-.55h0a.93.93,0,0,1,.55-1.18h0a.91.91,0,0,1,1.17.55A1,1,0,0,1,80.58,5.78Z" style="fill:#353535"/><path d="M77.23,4.57h0a1.79,1.79,0,0,1-.3.22h0a1.21,1.21,0,0,1-1.61-.52h0a1.21,1.21,0,0,1,.54-1.61h0a1.18,1.18,0,0,1,1.59.53A1.2,1.2,0,0,1,77.23,4.57Z" style="fill:#353535"/><path d="M73.69,3.74h0a.87.87,0,0,1-.21.17h0a1.41,1.41,0,0,1-1.94-.39h0a1.4,1.4,0,0,1,.4-1.93h0A1.4,1.4,0,0,1,73.87,2,1.38,1.38,0,0,1,73.69,3.74Z" style="fill:#353535"/><path d="M69.92,3.09h0l-.08.08h0a1.4,1.4,0,0,1-2-.15h0a1.4,1.4,0,0,1,.17-2h0a1.39,1.39,0,0,1,1.88,2Z" style="fill:#353535"/><path d="M65.9,5.22a1.35,1.35,0,0,0-1-.4,1.4,1.4,0,0,0-1.36,1.36,1.35,1.35,0,1,0,2.31-1Z" style="fill:#353535"/><path d="M84,12.44h0a.69.69,0,0,1-.41.2h0a.72.72,0,0,1-.81-.61h0a.72.72,0,0,1,.61-.81h0A.72.72,0,0,1,84,12.44Z" style="fill:#353535"/><path d="M80.78,10.39h0a.81.81,0,0,1-.37.22h0a.85.85,0,0,1-1-.59h0A.84.84,0,0,1,80,9h0A.85.85,0,0,1,80.78,10.39Z" style="fill:#353535"/><path d="M77.31,8.77h0A1,1,0,0,1,77,9h0a1,1,0,0,1-1.24-.49h0a.94.94,0,0,1,.49-1.23h0a.94.94,0,0,1,1.24.48A1,1,0,0,1,77.31,8.77Z" style="fill:#353535"/><path d="M73.7,7.74h0a1.13,1.13,0,0,1-.21.15h0a1.12,1.12,0,0,1-1.55-.37h0A1.13,1.13,0,0,1,72.31,6h0A1.13,1.13,0,0,1,73.7,7.74Z" style="fill:#353535"/><path d="M69.79,7.15h0l-.08.09h0A1.2,1.2,0,0,1,68,7.06h0a1.22,1.22,0,0,1,.16-1.71h0a1.23,1.23,0,0,1,1.72.17A1.21,1.21,0,0,1,69.79,7.15Z" style="fill:#353535"/><path d="M78,12.81a.65.65,0,1,0-1.12.46.7.7,0,0,0,.47.19A.65.65,0,0,0,78,12.81Z" style="fill:#353535"/><path d="M86.39,10.05a.7.7,0,0,1-.72-.72.72.72,0,1,1,.72.72Z" style="fill:#353535"/><path d="M86.39,15.22a.66.66,0,1,1,.47-1.12A.66.66,0,0,1,86.39,15.22Z" style="fill:#353535"/><path d="M62.37,33.65h.41V32.2h.69v-.26h-.69v-.33c0-.49.12-.78.59-.79h.24v-.24a2.05,2.05,0,0,0-.72.08C62.2,30.92,62.39,31.49,62.37,33.65Z" style="fill:#353535"/><path d="M58.16,31.31h-.4v1.31c0,.46-.1.78-.55.8-.73,0-.55-.78-.56-2.11h-.41c0,1.35-.17,2,.52,2.27a1.19,1.19,0,0,0,.43.07h0a.94.94,0,0,0,.51-.12h0c0,.66.07,1.24-.6,1.24l0,.24a1,1,0,0,0,.81-.32,1.18,1.18,0,0,0,.18-.7V31.31Z" style="fill:#353535"/><path d="M45.33,31.08a.22.22,0,0,0,.22-.22v-.07a.22.22,0,0,0-.43,0v.07A.22.22,0,0,0,45.33,31.08Z" style="fill:#353535"/><path d="M45.12,31.34h.43v2.31h-.43Z" style="fill:#353535"/><path d="M49.66,31.08a.21.21,0,0,0,.21-.22v-.07a.21.21,0,0,0-.21-.21.22.22,0,0,0-.21.21v.07A.22.22,0,0,0,49.66,31.08Z" style="fill:#353535"/><path d="M49.45,31.31h.43v2.35h-.43Z" style="fill:#353535"/><path d="M80.54,31a.22.22,0,0,0,.21-.22v0a.22.22,0,0,0-.43,0v0A.22.22,0,0,0,80.54,31Z" style="fill:#353535"/><path d="M80.32,31.31h.43v2.35h-.43Z" style="fill:#353535"/><path d="M70.8,32.86V31.31h-.42v1.23a1,1,0,0,0,1,1.11h1.22V31.31h-.43v2.11h-.81A.56.56,0,0,1,70.8,32.86Z" style="fill:#353535"/><path d="M67.43,32.43s-.09.88.61,1.15a1.3,1.3,0,0,0,.42.07h1.28V30.58h-.43v.73h-.86A1,1,0,0,0,67.43,32.43Zm1.07-.89h.81v1.89H68.5a.57.57,0,0,1-.57-.57V32.1A.56.56,0,0,1,68.5,31.54Z" style="fill:#353535"/><path d="M85.8,31.39a1.44,1.44,0,0,0-.42-.08H84.16v2.35h.43V31.54h.81a.57.57,0,0,1,.57.56v1.56h.44V32.43A1,1,0,0,0,85.8,31.39Z" style="fill:#353535"/><path d="M73.18,32.55a1,1,0,0,0,1,1.1h1v-.23h-1a.56.56,0,0,1-.56-.56s0-.26,0-.4,0-.37,0-.38a.56.56,0,0,1,.56-.55h1v-.23c-.83,0-1.41-.11-1.78.31A1.2,1.2,0,0,0,73.18,32.55Z" style="fill:#353535"/><path d="M51.83,32.32c-.26-.1-.75,0-.83-.39,0-.18.14-.41.53-.41H52v-.29a2.93,2.93,0,0,0-1,.05.62.62,0,0,0-.33,1c.39.44.88.21,1.09.46a.3.3,0,0,1,.07.36c-.21.35-.68.25-1.14.27v.3c.09,0,.7,0,.78,0C52.51,33.54,52.58,32.61,51.83,32.32Z" style="fill:#353535"/><path d="M41.28,30.58h-.51v3.07h.43v-2.2l1.12,2.2h.23l1.13-2.27.08-.15v2.42h.46V30.58h-.5L42.53,33h0C42.1,32.2,41.23,30.47,41.28,30.58Z" style="fill:#353535"/><path d="M65.49,32.13h1.1v-.24h-1.1V30.84h1.64v-.26H65.06v3.07h2.07v-.22H65.49" style="fill:#353535"/><path d="M53.3,33.26c-.22-.27-.14-.7-.16-1.65h.69v-.3h-.69v-.69h-.4c0,1.75-.1,2.41.17,2.72a.88.88,0,0,0,.35.24,1.7,1.7,0,0,0,.66.07v-.22A.8.8,0,0,1,53.3,33.26Z" style="fill:#353535"/><path d="M54.46,33.66h.43c0-1.35-.17-2.1.64-2.1h.18v-.25a2,2,0,0,0-.7.08C54.27,31.67,54.49,32.37,54.46,33.66Z" style="fill:#353535"/><path d="M83.05,31.39a1.41,1.41,0,0,0-.42-.08,1.24,1.24,0,0,0-1,.31,1.34,1.34,0,0,0-.26.95,1,1,0,0,0,1,1.08,1.23,1.23,0,0,0,1-.3,1.12,1.12,0,0,0,.26-.78S83.76,31.66,83.05,31.39Zm-.62,2c-.46,0-.56-.47-.58-.67-.16-1.48.72-1.19.75-1.23.45,0,.56.46.58.65C83.37,33.68,82.46,33.4,82.43,33.43Z" style="fill:#353535"/><path d="M75.55,32.74c.1.79.69,1,1.47.9a.92.92,0,0,0,.42-.16v.17h.45V31.31H76.57a1,1,0,0,0-.77.32A1.44,1.44,0,0,0,75.55,32.74Zm.49-.62a.58.58,0,0,1,.58-.58h.82v1.31a.6.6,0,0,1-.6.58h-.22a.58.58,0,0,1-.58-.58s0-.18,0-.37S76,32.12,76,32.12Z" style="fill:#353535"/><path d="M79.05,33a7.58,7.58,0,0,1,0-1.44h.68v-.26H79v-.69h-.4c0,1.75-.09,2.41.17,2.72a1.28,1.28,0,0,0,1,.31v-.22C79.68,33.4,79.2,33.54,79.05,33Z" style="fill:#353535"/><path d="M61.33,31.38a1.47,1.47,0,0,0-.41-.08,1.06,1.06,0,0,0-1.25,1.1s-.1.92.6,1.18a1.74,1.74,0,0,0,1.06,0,.82.82,0,0,0,.34-.23,1.32,1.32,0,0,0,.26-1A1,1,0,0,0,61.33,31.38Zm.13,1.51a.62.62,0,0,1-.75.54c-.46,0-.56-.47-.58-.67-.16-1.49.73-1.19.76-1.23.45,0,.56.45.58.65A2.43,2.43,0,0,1,61.46,32.89Z" style="fill:#353535"/><path d="M47.57,31.31H46.35v2.35h.43V31.54h.81a.57.57,0,0,1,.57.56v1.56h.44V32.43a1.18,1.18,0,0,0-.27-.81A1.07,1.07,0,0,0,47.57,31.31Z" style="fill:#353535"/><circle cx="73.16" cy="21.79" r="0.39" style="fill:#353535"/><path d="M80.68,23v3.13a2.44,2.44,0,0,1-.05.51.85.85,0,0,1-.16.33.54.54,0,0,1-.25.16,1,1,0,0,1-.33.05h0l0,.38h0a1.69,1.69,0,0,0,.66-.11,1.23,1.23,0,0,0,.48-.32,1.77,1.77,0,0,0,.36-1V23Z" style="fill:#353535"/><path d="M78.77,21.4h.71V26h-.71Z" style="fill:#353535"/><path d="M76.92,23h0v3.13a2.44,2.44,0,0,1,0,.51.85.85,0,0,1-.16.33.49.49,0,0,1-.25.16,1,1,0,0,1-.33.05h0l0,.38h0a1.69,1.69,0,0,0,.66-.11,1.23,1.23,0,0,0,.48-.32,1.77,1.77,0,0,0,.36-1V23Z" style="fill:#353535"/><path d="M71.53,24.54V26H75.6V23H73.06A1.53,1.53,0,0,0,71.53,24.54Zm3.36-.94v1.75H72.24v-.88a.87.87,0,0,1,.88-.87Z" style="fill:#353535"/><circle cx="63.54" cy="21.79" r="0.39" style="fill:#353535"/><circle cx="45.98" cy="27.16" r="0.39" style="fill:#353535"/><circle cx="47.1" cy="27.16" r="0.39" style="fill:#353535"/><circle cx="64.66" cy="21.79" r="0.39" style="fill:#353535"/><circle cx="74.29" cy="21.79" r="0.39" style="fill:#353535"/><circle cx="81.06" cy="21.79" r="0.39" style="fill:#353535"/><path d="M66.54,25.35H64.76V23h-.71v2.34H56.94v-.83a.92.92,0,0,1,.92-.92h3V23H57.8a1.58,1.58,0,0,0-1.58,1.58v.76H50.47v-4h-.7v4h-2V23h-.72v2.34H45.73v-.71h0a1.52,1.52,0,0,0-.47-1.18A1.77,1.77,0,0,0,44.09,23H41.27v3a2.51,2.51,0,0,1-.05.51.74.74,0,0,1-.16.32.45.45,0,0,1-.25.17h0v.41a1.76,1.76,0,0,0,.41-.1,1.23,1.23,0,0,0,.48-.32,1.77,1.77,0,0,0,.36-1V26H67.27V21.4h-.73ZM42.06,23.6h2.2a.9.9,0,0,1,.73.89v.85H42v-1.7A0,0,0,0,1,42.06,23.6Z" style="fill:#353535"/><path d="M86.41,23H83.9a1.56,1.56,0,0,0-1.56,1.56V26h3.34v.17a1.88,1.88,0,0,1-.06.51,1,1,0,0,1-.15.33.54.54,0,0,1-.25.16l-.13,0v.4a2.14,2.14,0,0,0,.48-.1,1.28,1.28,0,0,0,.48-.33,1.7,1.7,0,0,0,.37-1ZM84,23.6h1.72v1.75H83.06V24.5A.9.9,0,0,1,84,23.6Z" style="fill:#353535"/><path d="M68.35,21.4h0V26h.71V21.41a0,0,0,0,0,0,0Z" style="fill:#353535"/></svg>